<svg width="52" height="53" viewBox="0 0 52 53" fill="none" xmlns="http://www.w3.org/2000/svg">
<path d="M49.8257 26.2136C49.8126 31.167 48.2763 35.9902 45.4163 40.0362C42.6821 43.9043 38.7153 46.9475 34.2669 48.5755C29.5536 50.299 24.3587 50.5161 19.524 49.1573C14.6892 47.7984 10.6704 45.0765 7.57602 41.3386C4.48162 37.6008 2.60241 32.9166 2.2422 28.1064C1.88198 23.2963 3.02339 18.1432 5.60568 13.8757C8.18796 9.60828 11.8205 6.47822 16.1909 4.47689C20.6784 2.42347 25.8647 1.85477 30.6951 2.8359C35.5255 3.81702 39.8307 6.20906 43.1942 9.71247C46.5577 13.2159 48.8058 17.7699 49.5609 22.606C49.7475 23.7999 49.8213 25.0068 49.8257 26.2136C49.8257 27.6115 52 27.6115 51.9957 26.2136C51.9783 20.8565 50.3291 15.5428 47.2087 11.1755C44.1403 6.8863 39.8611 3.6043 34.9135 1.77662C29.8184 -0.103145 24.0983 -0.294162 18.8773 1.19055C13.6563 2.67527 9.30767 5.58392 5.99627 9.60394C2.68487 13.624 0.497527 18.8639 0.0765499 24.2427C-0.340088 29.5955 0.953224 35.0525 3.73081 39.6455C6.42593 44.0997 10.4751 47.742 15.2274 49.8823C20.227 52.1354 25.8213 52.7692 31.2028 51.6969C36.3544 50.668 41.1544 47.9938 44.7826 44.1995C48.4065 40.4096 50.8716 35.517 51.6702 30.3248C51.8785 28.9617 51.9957 27.5942 52 26.2136C52.0043 24.8331 49.8343 24.8158 49.83 26.2136H49.8257Z" fill="#087BB4"/>
<path d="M36.4281 26.2137C36.4194 30.937 35.8509 35.6906 34.3927 40.1969C33.3554 43.4007 31.8625 46.6003 29.3149 48.7535C29.2802 48.7839 29.1022 48.9185 29.2541 48.8056C29.2021 48.8447 29.1456 48.8881 29.0892 48.9272C28.9547 49.0227 28.8158 49.1182 28.6769 49.205C28.3905 49.383 28.0954 49.5436 27.7916 49.6826C27.6267 49.7564 28.0303 49.5957 27.7482 49.6999C27.6918 49.7216 27.631 49.7433 27.5746 49.765C27.4314 49.8171 27.2838 49.8606 27.1362 49.8996C26.9887 49.9387 26.8411 49.9691 26.6936 49.9995C26.6328 50.0125 26.5764 50.0212 26.5156 50.0299C26.776 49.9908 26.5069 50.0299 26.4462 50.0299C26.1424 50.0472 25.8473 50.0472 25.5435 50.0299C25.4827 50.0299 25.4219 50.0168 25.3655 50.0125C25.6389 50.0429 25.3395 50.0082 25.2961 49.9995C25.1485 49.9691 25.001 49.9387 24.8534 49.8996C24.7059 49.8606 24.5583 49.8128 24.4151 49.765C24.3587 49.7433 24.2979 49.7216 24.2415 49.6999C23.955 49.5914 24.4368 49.7954 24.1547 49.6652C23.8726 49.535 23.5818 49.3787 23.3127 49.2094C22.7268 48.8404 22.4013 48.5582 21.8501 47.9981C21.299 47.4381 20.9084 46.9432 20.4744 46.3094C19.4632 44.829 18.6776 43.1967 18.0527 41.5166C16.4729 37.2578 15.7568 32.6952 15.5962 28.1672C15.4226 23.3354 15.8523 18.4428 17.1369 13.7716C17.6577 11.8788 18.3174 10.0164 19.2114 8.26684C19.9579 6.80817 20.7825 5.51882 21.8849 4.39877C22.1236 4.15566 22.3709 3.92991 22.6313 3.71285C22.844 3.53485 22.6747 3.66509 22.8961 3.50447C23.0436 3.40028 23.1955 3.29608 23.3518 3.20058C23.6122 3.03995 23.8769 2.90103 24.1547 2.77079C24.4324 2.64055 24.0245 2.81855 24.1981 2.75343C24.2719 2.72738 24.3413 2.69699 24.4151 2.67094C24.5583 2.61885 24.7059 2.57543 24.8534 2.53636C25.001 2.49729 25.1485 2.4669 25.2961 2.43651C25.2961 2.43651 25.5912 2.3931 25.4176 2.41481C25.244 2.43651 25.5391 2.40612 25.5435 2.40612C25.8473 2.38442 26.1424 2.38876 26.4462 2.40612C26.4896 2.40612 26.789 2.44954 26.5156 2.40612C26.5764 2.41481 26.6371 2.42349 26.6936 2.43651C26.8411 2.4669 26.9887 2.49729 27.1362 2.53636C27.2708 2.57109 27.401 2.61451 27.5312 2.65792C27.605 2.68397 27.6744 2.71001 27.7482 2.73606C28.0346 2.84459 27.5529 2.64055 27.835 2.77079C28.1171 2.90103 28.4078 3.05732 28.6769 3.22663C28.8028 3.30477 28.9286 3.38725 29.0458 3.47408C29.1153 3.52183 29.1847 3.57393 29.2498 3.62168C29.0849 3.49578 29.3453 3.70416 29.354 3.70851C29.9138 4.18605 30.4303 4.71134 30.8947 5.28005C31.8668 6.4739 32.7739 8.1366 33.4379 9.66473C35.1652 13.6457 35.9811 18.0521 36.2936 22.3629C36.3847 23.6436 36.4281 24.933 36.4325 26.218C36.4325 27.6159 38.6068 27.6159 38.6024 26.218C38.5938 21.1648 37.9688 16.0117 36.3413 11.2102C35.1608 7.73286 33.4205 4.0862 30.4303 1.81137C28.052 0.00106098 24.988 -0.298487 22.3883 1.24701C19.2809 3.09205 17.4234 6.59111 16.1518 9.84706C14.368 14.4097 13.6042 19.3892 13.4306 24.2688C13.2483 29.3915 13.7344 34.6184 15.1362 39.5544C16.1778 43.2097 17.7619 47.0778 20.5525 49.7607C22.7876 51.914 25.8212 52.8908 28.7594 51.6144C31.8451 50.273 33.8719 47.0778 35.1956 44.1257C37.1529 39.7671 38.0903 35.0047 38.4462 30.2597C38.546 28.9139 38.5938 27.5681 38.5981 26.218C38.6024 24.8679 36.4325 24.8201 36.4281 26.218V26.2137Z" fill="#087BB4"/>
<path d="M44.7479 9.52148C40.5511 11.8788 35.6339 12.9511 30.8817 13.3852C25.3352 13.8931 19.6411 13.5936 14.2379 12.2131C11.8118 11.5923 9.43352 10.7501 7.24184 9.52148C6.0223 8.83556 4.92863 10.711 6.14816 11.3969C10.6617 13.9322 15.9001 15.0696 21.0126 15.5515C26.7717 16.0898 32.7175 15.7469 38.3334 14.3099C40.9374 13.6457 43.5023 12.7167 45.8459 11.3969C47.0654 10.711 45.9718 8.83556 44.7522 9.52148H44.7479Z" fill="#087BB4"/>
<path d="M7.23744 42.91C11.4342 40.5527 16.3514 39.4804 21.1037 39.0419C26.6501 38.5297 32.3442 38.8335 37.7518 40.2141C40.1822 40.8349 42.5561 41.6771 44.7478 42.9057C45.9674 43.5916 47.061 41.7162 45.8415 41.0302C41.3279 38.4949 36.0896 37.3575 30.9771 36.8756C25.2136 36.3373 19.2722 36.6803 13.6563 38.1172C11.0523 38.7815 8.48735 39.7105 6.14377 41.0302C4.92424 41.7162 6.01791 43.5916 7.23744 42.9057V42.91Z" fill="#087BB4"/>
<path d="M1.07904 27.2992H44.7782C46.7876 27.2992 48.8144 27.3686 50.8238 27.2992C50.8499 27.2992 50.8802 27.2992 50.9063 27.2992C52.3037 27.2992 52.3037 25.1285 50.9063 25.1285H7.21143C5.20202 25.1285 3.17525 25.0591 1.16584 25.1285C1.1398 25.1285 1.10942 25.1285 1.08338 25.1285C-0.31409 25.1285 -0.31409 27.2992 1.08338 27.2992H1.07904Z" fill="#087BB4"/>
</svg>
