<svg width="82" height="83" viewBox="0 0 82 83" fill="none" xmlns="http://www.w3.org/2000/svg">
<path d="M34.2966 22.4996C34.2597 20.1601 37.3746 19.3254 38.5124 21.37L42.6356 28.779C43.6652 30.6292 46.0215 31.2605 47.8383 30.173L55.1136 25.8182C57.1212 24.6165 59.4015 26.8968 58.1998 28.9044L53.845 36.1797C52.7575 37.9965 53.3889 40.3528 55.2391 41.3824L62.6481 45.5056C64.6926 46.6434 63.858 49.7583 61.5184 49.7214L53.0405 49.5877C50.9233 49.5543 49.1984 51.2792 49.2318 53.3963L49.3655 61.8743C49.4024 64.2138 46.2875 65.0485 45.1497 63.0039L41.0266 55.5949C39.9969 53.7447 37.6406 53.1134 35.8238 54.2009L28.5485 58.5557C26.5409 59.7574 24.2607 57.4771 25.4624 55.4695L29.8172 48.1942C30.9047 46.3774 30.2733 44.0211 28.4231 42.9915L21.0141 38.8683C18.9696 37.7305 19.8042 34.6156 22.1437 34.6525L30.6217 34.7862C32.7388 34.8196 34.4637 33.0947 34.4303 30.9775L34.2966 22.4996Z" fill="#38302A" stroke="#38302A" stroke-width="1.5"/>
<path d="M32.6929 21.5737C32.656 19.2342 35.7708 18.3995 36.9086 20.4441L41.0318 27.8531C42.0615 29.7033 44.4178 30.3346 46.2346 29.2471L53.5099 24.8923C55.5175 23.6906 57.7977 25.9709 56.596 27.9785L52.2412 35.2538C51.1537 37.0706 51.7851 39.4269 53.6353 40.4565L61.0443 44.5797C63.0888 45.7175 62.2542 48.8324 59.9147 48.7955L51.4367 48.6618C49.3196 48.6284 47.5946 50.3533 47.628 52.4704L47.7618 60.9484C47.7987 63.2879 44.6838 64.1226 43.546 62.078L39.4228 54.669C38.3931 52.8188 36.0369 52.1875 34.2201 53.275L26.9448 57.6298C24.9371 58.8315 22.6569 56.5512 23.8586 54.5436L28.2134 47.2683C29.3009 45.4515 28.6695 43.0952 26.8193 42.0656L19.4103 37.9424C17.3658 36.8046 18.2004 33.6897 20.5399 33.7266L29.0179 33.8603C31.1351 33.8937 32.86 32.1688 32.8266 30.0516L32.6929 21.5737Z" fill="#FE892A" stroke="#38302A" stroke-width="1.5"/>
</svg>
