<svg width="85" height="86" viewBox="0 0 85 86" fill="none" xmlns="http://www.w3.org/2000/svg">
<path d="M21.4617 52.6936C18.4576 52.4146 17.4218 48.5489 19.8839 46.8052L30.8618 39.0307C31.9931 38.2295 32.718 36.974 32.8462 35.5936L34.0902 22.1992C34.3692 19.1951 38.2349 18.1593 39.9785 20.6214L47.7531 31.5993C48.5543 32.7307 49.8098 33.4555 51.1902 33.5837L64.5846 34.8277C67.5887 35.1067 68.6245 38.9724 66.1623 40.7161L55.1845 48.4906C54.0531 49.2918 53.3283 50.5473 53.2001 51.9277L51.956 65.3221C51.677 68.3262 47.8114 69.362 46.0677 66.8999L38.2932 55.922C37.492 54.7906 36.2365 54.0658 34.8561 53.9376L21.4617 52.6936Z" fill="#38352A" stroke="#38352A" stroke-width="1.5"/>
<path d="M19.5129 50.3366C16.5088 50.0576 15.473 46.192 17.9351 44.4483L28.913 36.6738C30.0443 35.8725 30.7692 34.617 30.8974 33.2367L32.1414 19.8423C32.4204 16.8382 36.2861 15.8024 38.0297 18.2645L45.8043 29.2424C46.6055 30.3737 47.861 31.0986 49.2414 31.2268L62.6358 32.4708C65.6399 32.7498 66.6757 36.6154 64.2136 38.3591L53.2357 46.1337C52.1043 46.9349 51.3795 48.1904 51.2513 49.5707L50.0073 62.9651C49.7282 65.9692 45.8626 67.005 44.1189 64.5429L36.3444 53.565C35.5432 52.4337 34.2877 51.7088 32.9073 51.5806L19.5129 50.3366Z" fill="#FFD137" stroke="#38352A" stroke-width="1.5"/>
</svg>
