<svg width="91" height="82" viewBox="0 0 91 82" fill="none" xmlns="http://www.w3.org/2000/svg">
<path d="M13.0643 28.329C12.5598 28.5062 11.9845 28.394 11.6124 28.0094C11.1121 27.4946 10.3598 27.2745 9.66053 27.484C8.64448 27.7894 8.04299 28.9229 8.38896 29.9814L20.2423 63.7315L17.3388 64.7513L5.48226 30.9919C5.43876 30.8681 5.40308 30.7518 5.37495 30.6277C4.71776 28.1843 6.04822 25.6199 8.47467 24.7677C10.3323 24.1153 12.3306 24.6553 13.6127 25.9878C14.3351 26.7389 14.0505 27.9827 13.0689 28.3274L13.0643 28.329Z" fill="#2A3338"/>
<path fill-rule="evenodd" clip-rule="evenodd" d="M8.83518 25.7953C6.94743 26.4583 5.91528 28.4509 6.42522 30.3469L6.43085 30.3678L6.43565 30.3889C6.45192 30.4607 6.47409 30.5354 6.50841 30.6332L18.0047 63.3665L18.8562 63.0675L7.35925 30.3321L7.35556 30.3208C6.8232 28.6921 7.73644 26.9284 9.34778 26.4442C10.4591 26.1112 11.6272 26.4657 12.3924 27.2531L12.3941 27.2549C12.4448 27.3073 12.5637 27.354 12.7042 27.3046L12.7088 27.303C12.9273 27.2263 13.0147 26.9363 12.8293 26.7433M4.31966 30.8915C3.52795 27.9067 5.15605 24.7824 8.11453 23.7433C10.3874 22.9451 12.8292 23.6066 14.3965 25.2354C15.6556 26.5446 15.1741 28.7422 13.4294 29.355L13.4249 29.3566C12.5568 29.6615 11.5256 29.484 10.8322 28.7682C10.5971 28.5267 10.2602 28.4413 9.97327 28.5271C9.55534 28.653 9.26681 29.1508 9.41982 29.636L21.6288 64.3987L16.6734 66.1391L4.45648 31.3538C4.406 31.2101 4.3587 31.0591 4.31966 30.8915ZM8.83518 25.7953C10.2776 25.2887 11.8323 25.7073 12.8293 26.7433L8.83518 25.7953Z" fill="#2A3338"/>
<path d="M63.8779 10.4877C64.3825 10.3105 64.7612 9.86311 64.8111 9.33033C64.8797 8.61581 65.3291 7.97361 66.0059 7.69986C66.9897 7.3028 68.1679 7.81133 68.5598 8.85366C72.5114 20.1052 76.4614 31.3522 80.4131 42.6038L83.3166 41.5841L71.4616 7.82935C71.4181 7.7055 71.3733 7.59244 71.3176 7.47802C70.3027 5.16026 67.6609 3.99095 65.2344 4.84314C63.3768 5.49557 62.155 7.16645 61.9877 9.00803C61.8936 10.0458 62.8934 10.8386 63.8749 10.4939L63.8779 10.4877Z" fill="#2A3338"/>
<path fill-rule="evenodd" clip-rule="evenodd" d="M60.9049 8.90725C61.1095 6.6561 62.6015 4.61303 64.8743 3.81479C67.8328 2.77575 71.057 4.19594 72.3055 7.0203C72.3798 7.17549 72.4373 7.32289 72.4878 7.46664L84.7031 42.2473L79.7477 43.9877L67.5387 9.22497C67.3547 8.7507 66.8184 8.54263 66.4135 8.70566C66.1357 8.81819 65.926 9.09585 65.8938 9.43175L64.8114 9.32795L65.894 9.42935C65.818 10.2411 65.3403 10.9131 64.6939 11.298L64.6602 11.3683L64.2355 11.5174C62.4909 12.1302 60.7409 10.7163 60.9049 8.90725ZM63.0708 9.10406C63.0488 9.34855 63.257 9.51326 63.4603 9.47952L63.5178 9.45931C63.6583 9.40995 63.7219 9.2992 63.7287 9.22654L63.7289 9.22414C63.8337 8.13113 64.5228 7.12447 65.5983 6.68942C67.1586 6.05974 68.9749 6.86477 69.5778 8.46865L69.582 8.47976L81.0789 41.2151L81.9305 40.9161L70.4359 8.1873C70.4015 8.08958 70.3721 8.01742 70.3399 7.95119L70.3304 7.93169L70.3217 7.91183C69.5342 6.1134 67.4827 5.20373 65.595 5.86673C64.1525 6.37332 63.201 7.67212 63.0708 9.10406Z" fill="#2A3338"/>
<path d="M52.1883 53.5342C51.8716 53.4393 51.2392 53.3111 50.511 53.541L50.4284 53.57C49.7037 53.8246 49.2717 54.3112 49.0761 54.5757L48.5586 55.2882L47.4152 52.4436L47.5167 52.2482C47.6955 51.8917 48.238 51.0159 49.3568 50.592L49.4347 50.5647C50.5493 50.1732 51.5199 50.4867 51.8883 50.6407L52.0942 50.7281L53.0767 53.8044L52.1883 53.5342Z" fill="#2A3338"/>
<path d="M49.5956 51.0247C50.6277 50.6623 51.5127 51.011 51.7 51.0895L52.3329 53.0674C52.0547 52.9796 51.2813 52.7875 50.3635 53.0789C50.3313 53.0902 50.2992 53.1015 50.2671 53.1127C49.3498 53.4349 48.8464 54.0703 48.6823 54.2928C48.439 53.6878 48.194 53.0783 47.9506 52.4733C48.0474 52.2795 48.4953 51.4421 49.5284 51.0535C49.5514 51.0454 49.5697 51.039 49.5927 51.0309M49.2734 50.1074L49.1863 50.138C47.9087 50.6228 47.2912 51.6228 47.0886 52.0289L46.8919 52.4226L47.0553 52.829L47.4107 53.7089L47.787 54.6485L48.4436 56.2831L49.4786 54.8582C49.6381 54.6373 49.996 54.2333 50.5969 54.0223L50.6611 53.9998C51.2638 53.8087 51.7914 53.9171 52.051 53.996L53.8278 54.5364L53.2629 52.7665L52.6301 50.7886L52.4956 50.3618L52.0838 50.1869C51.6674 50.0137 50.5607 49.6501 49.281 50.0996L49.2734 50.1074Z" fill="#2A3338"/>
<path d="M38.7265 74.9312C36.2633 75.7963 33.6938 76.065 31.0901 75.7376C21.9477 74.5739 15.4527 66.1891 16.6164 57.0466C17.4224 50.7298 21.6576 45.4913 27.6709 43.3793C30.1341 42.5142 32.7036 42.2456 35.309 42.5775C39.7369 43.1401 43.683 45.3971 46.4163 48.9251C49.1496 52.4531 50.3453 56.8406 49.7827 61.2685C48.9766 67.5853 44.7415 72.8239 38.7281 74.9358L38.7265 74.9312ZM28.6292 46.0931C23.6479 47.8426 20.1409 52.1762 19.4743 57.4084C19.0086 61.0706 19.9954 64.7018 22.2639 67.6253C24.5279 70.5504 27.7896 72.414 31.458 72.8827C33.6149 73.1557 35.7379 72.9356 37.7744 72.2204C42.7512 70.4725 46.2611 66.1327 46.9231 60.9022C47.8876 53.3343 42.5135 46.3952 34.9502 45.4292C32.7933 45.1562 30.6658 45.3779 28.6292 46.0931Z" fill="#2A3338"/>
<path d="M27.8368 43.8374C30.1394 43.0287 32.6623 42.7301 35.2507 43.0577C44.1388 44.187 50.4315 52.3183 49.3021 61.2065C48.502 67.5109 44.1815 72.5064 38.5672 74.4782C36.2646 75.2869 33.7416 75.5856 31.1533 75.258C22.2651 74.1286 15.9725 65.9973 17.1018 57.1091C17.9019 50.8047 22.2225 45.8092 27.8368 43.8374ZM37.9341 72.6755C42.8879 70.9357 46.6965 66.522 47.407 60.9601C48.4039 53.118 42.8539 45.9419 35.0118 44.945C32.73 44.654 30.5048 44.9202 28.4729 45.6339C23.519 47.3737 19.7042 51.7845 18.9983 57.3448C18.0014 65.1868 23.556 72.3613 31.3997 73.3628C33.6815 73.6538 35.9067 73.3876 37.9386 72.6739M27.5146 42.9201C21.3223 45.0948 16.9651 50.4845 16.1358 56.9847C14.9364 66.3921 21.6198 75.02 31.0272 76.2194C33.708 76.5609 36.3512 76.2818 38.8832 75.3926C45.0754 73.2178 49.4327 67.8282 50.262 61.328C50.841 56.7707 49.6126 52.2607 46.7961 48.628C43.9842 44.9936 39.9233 42.6738 35.3659 42.0948C32.6851 41.7534 30.042 42.0324 27.51 42.9217L27.5146 42.9201ZM37.6119 71.7582C35.6487 72.4477 33.5964 72.6635 31.5196 72.3984C27.9822 71.9507 24.8336 70.1453 22.6483 67.3266C20.4629 64.5078 19.5104 61.0036 19.9598 57.4708C20.6032 52.422 23.988 48.2395 28.7905 46.5529C30.7536 45.8634 32.8059 45.6476 34.8873 45.911C42.1856 46.8413 47.3712 53.5374 46.4426 60.8402C45.7992 65.889 42.4143 70.0715 37.6119 71.7582Z" fill="#2A3338"/>
<path d="M72.971 62.9312C70.5079 63.7963 67.9383 64.065 65.3346 63.7376C56.1922 62.5739 49.6972 54.1891 50.8609 45.0466C51.6669 38.7298 55.9021 33.4913 61.9155 31.3793C64.3786 30.5142 66.9482 30.2456 69.5535 30.5775C78.6959 31.7412 85.1909 40.126 84.0272 49.2685C83.2211 55.5853 78.986 60.8239 72.9726 62.9358L72.971 62.9312ZM62.8737 34.0931C57.8924 35.8426 54.3854 40.1762 53.7188 45.4084C52.7544 52.9762 58.1301 59.9199 65.6963 60.8797C67.8533 61.1527 69.9762 60.9327 72.0127 60.2174C76.9941 58.4679 80.4994 54.1298 81.1615 48.8992C82.1259 41.3313 76.7518 34.3923 69.1885 33.4262C67.0316 33.1533 64.9041 33.3749 62.8721 34.0885L62.8737 34.0931Z" fill="#2A3338"/>
<path d="M62.0857 31.8335C64.3883 31.0248 66.9112 30.7262 69.4996 31.0538C78.3877 32.1831 84.6804 40.3144 83.551 49.2026C82.7509 55.507 78.4304 60.5025 72.8161 62.4743C70.5135 63.283 67.9905 63.5817 65.4022 63.2541C56.514 62.1247 50.2214 53.9934 51.3507 45.1052C52.1508 38.8008 56.4714 33.8053 62.0857 31.8335ZM72.1784 60.6733C77.1322 58.9334 80.9408 54.5197 81.6513 48.9578C82.6482 41.1157 77.0982 33.9396 69.2561 32.9427C66.9743 32.6517 64.7492 32.9179 62.7172 33.6316C57.7634 35.3714 53.9486 39.7822 53.2426 45.3425C52.2457 53.1845 57.8004 60.359 65.644 61.3605C67.9258 61.6515 70.151 61.3853 72.183 60.6716M61.7635 30.9162C55.5712 33.0909 51.214 38.4806 50.3847 44.9808C49.1853 54.3882 55.8687 63.0161 65.2761 64.2155C67.9569 64.557 70.6001 64.2779 73.1321 63.3887C79.3243 61.2139 83.6816 55.8243 84.5109 49.3241C85.0899 44.7667 83.8615 40.2568 81.045 36.624C78.2331 32.9897 74.1722 30.6699 69.6148 30.0909C66.9341 29.7494 64.2909 30.0285 61.7589 30.9178L61.7635 30.9162ZM71.8562 59.7559C69.893 60.4454 67.8408 60.6612 65.7639 60.3961C62.2265 59.9484 59.078 58.143 56.8926 55.3243C54.7072 52.5055 53.7548 49.0013 54.2041 45.4685C54.8475 40.4197 58.2323 36.2372 63.0348 34.5506C64.998 33.8611 67.0502 33.6453 69.1316 33.9087C72.669 34.3564 75.816 36.1573 77.9968 38.9776C80.1776 41.7979 81.133 45.2959 80.6807 48.8349C80.0373 53.8838 76.6524 58.0662 71.85 59.7529L71.8562 59.7559Z" fill="#2A3338"/>
<path d="M80.8375 56.3264C80.0097 57.5343 77.7969 60.4035 73.7544 62.1118C69.3346 63.9784 65.3925 63.3173 63.9451 62.996C62.5549 62.6908 58.1142 61.5195 54.7439 57.2929C52.1111 53.9924 51.5069 50.541 51.3323 49.0462C51.7294 50.7051 52.8929 54.5165 56.3571 57.7929C57.4514 58.8255 60.7925 61.8979 65.9309 62.3707C68.875 62.6404 71.1394 61.943 72.5299 61.501C76.7291 60.1653 79.4746 57.7274 80.8375 56.3264Z" fill="#2A3338"/>
<path d="M44.8334 70.4744C43.8367 71.5097 41.7241 73.4317 38.4224 74.55C37.3305 74.918 34.611 75.7134 31.1519 75.2537C25.1489 74.4611 21.5958 70.5357 20.9945 69.8503C18.2083 66.6707 17.4248 63.2514 17.1747 61.7471C17.6059 63.3269 18.7822 66.7937 21.9693 69.8532C22.9031 70.7515 25.3436 72.8881 28.8844 73.9323C36.8309 76.2683 43.8882 71.1722 44.8272 70.4714L44.8334 70.4744Z" fill="#2A3338"/>
<path d="M37.5736 71.605C44.4337 69.1957 48.0417 61.6814 45.6324 54.8213C43.2231 47.9613 35.7088 44.3532 28.8487 46.7626C21.9887 49.1719 18.3806 56.6862 20.7899 63.5462C23.1992 70.4063 30.7135 74.0143 37.5736 71.605Z" fill="#2A3338"/>
<path d="M71.8002 59.5542C78.6602 57.1449 82.2683 49.6306 79.8589 42.7706C77.4496 35.9105 69.9353 32.3025 63.0753 34.7118C56.2152 37.1211 52.6072 44.6354 55.0165 51.4954C57.4258 58.3555 64.9401 61.9635 71.8002 59.5542Z" fill="#2A3338"/>
<path d="M24.7802 65.3845C26.3931 62.0253 28.0061 58.6661 29.619 55.3069C29.8482 54.8296 30.0773 54.3524 30.3065 53.8752C30.6457 53.1686 29.5487 52.6419 29.2094 53.3484C27.5965 56.7076 25.9836 60.0669 24.3706 63.4261C24.1415 63.9033 23.9123 64.3805 23.6832 64.8578C23.3439 65.5643 24.4409 66.091 24.7802 65.3845Z" fill="#2A3338"/>
<path d="M28.0527 68.616C28.8354 66.9859 29.6151 65.3621 30.3977 63.7321L30.731 63.0379C31.0703 62.3314 29.9733 61.8046 29.634 62.5112L27.289 67.3951L26.9557 68.0892C26.6164 68.7958 27.7135 69.3225 28.0527 68.616Z" fill="#2A3338"/>
<path d="M60.2506 50.7424C61.5333 48.0711 62.8159 45.3999 64.0955 42.7348C64.2771 42.3567 64.4616 41.9725 64.6431 41.5944C64.9823 40.8879 63.8853 40.3611 63.5461 41.0677C62.2635 43.7389 60.9808 46.4102 59.7012 49.0752C59.5197 49.4533 59.3352 49.8376 59.1536 50.2156C58.8144 50.9222 59.9114 51.4489 60.2506 50.7424Z" fill="#2A3338"/>
<path d="M62.3944 56.3332C63.439 54.1578 64.4806 51.9886 65.5251 49.8131C65.6739 49.5032 65.8227 49.1933 65.9715 48.8835C66.3108 48.1769 65.2137 47.6502 64.8745 48.3567C63.8299 50.5322 62.7884 52.7014 61.7438 54.8768C61.595 55.1867 61.4462 55.4966 61.2974 55.8065C60.9582 56.513 62.0552 57.0398 62.3944 56.3332Z" fill="#2A3338"/>
<path d="M10.5856 27.1415C10.081 27.3187 9.50573 27.2065 9.13364 26.8219C8.63339 26.3071 7.88108 26.087 7.18177 26.2965C6.16572 26.6019 5.56423 27.7354 5.9102 28.7939L17.7635 62.544L14.8601 63.5638L3.0035 29.8044C2.96 29.6806 2.92432 29.5643 2.89619 29.4402C2.239 26.9968 3.56946 24.4324 5.99591 23.5802C7.85359 22.9278 9.85181 23.4678 11.1339 24.8003C11.8563 25.5514 11.5718 26.7952 10.5902 27.1399L10.5856 27.1415Z" fill="#077BB3"/>
<path fill-rule="evenodd" clip-rule="evenodd" d="M6.35642 24.6078C4.46867 25.2708 3.43652 27.2634 3.94646 29.1594L3.95209 29.1803L3.95689 29.2014C3.97316 29.2732 3.99533 29.3479 4.02965 29.4457L15.5259 62.179L16.3774 61.88L4.88049 29.1446L4.8768 29.1333C4.34445 27.5046 5.25768 25.7409 6.86902 25.2567C7.98036 24.9237 9.1484 25.2782 9.91365 26.0656L9.91533 26.0674C9.96606 26.1198 10.0849 26.1665 10.2254 26.1171L10.23 26.1155C10.4485 26.0388 10.5359 25.7488 10.3505 25.5558M1.8409 29.704C1.04919 26.7192 2.67729 23.5949 5.63577 22.5558C7.90862 21.7576 10.3505 22.4191 11.9177 24.0479C13.1769 25.3571 12.6953 27.5547 10.9507 28.1675L10.9461 28.1691C10.078 28.474 9.04687 28.2965 8.35343 27.5807C8.11832 27.3392 7.78145 27.2538 7.49451 27.3396C7.07658 27.4655 6.78805 27.9633 6.94106 28.4485L19.15 63.2112L14.1946 64.9516L1.97772 30.1663C1.92724 30.0226 1.87994 29.8716 1.8409 29.704ZM6.35642 24.6078C7.79886 24.1012 9.35354 24.5198 10.3505 25.5558L6.35642 24.6078Z" fill="#2A3338"/>
<path d="M61.3994 9.30016C61.904 9.12295 62.2827 8.67561 62.3326 8.14283C62.4011 7.42831 62.8506 6.78611 63.5274 6.51236C64.5112 6.1153 65.6894 6.62383 66.0812 7.66616C70.0329 18.9177 73.9829 30.1647 77.9346 41.4163L80.8381 40.3966L68.9831 6.64185C68.9396 6.518 68.8948 6.40494 68.8391 6.29052C67.8241 3.97276 65.1824 2.80345 62.7559 3.65564C60.8982 4.30807 59.6765 5.97895 59.5092 7.82053C59.4151 8.85834 60.4148 9.6511 61.3964 9.30635L61.3994 9.30016Z" fill="#077BB3"/>
<path fill-rule="evenodd" clip-rule="evenodd" d="M58.4262 7.71975C58.6307 5.4686 60.1227 3.42553 62.3956 2.62729C65.354 1.58825 68.5782 3.00844 69.8267 5.8328C69.9011 5.98799 69.9586 6.13539 70.009 6.27914L82.2243 41.0598L77.2689 42.8002L65.0599 8.03747C64.8759 7.5632 64.3396 7.35513 63.9348 7.51816C63.6569 7.63069 63.4472 7.90835 63.415 8.24425L62.3326 8.14045L63.4153 8.24185C63.3392 9.05358 62.8615 9.72562 62.2152 10.1105L62.1814 10.1808L61.7567 10.3299C60.0121 10.9427 58.2622 9.52876 58.4262 7.71975ZM60.5921 7.91656C60.57 8.16105 60.7782 8.32576 60.9815 8.29202L61.039 8.27181C61.1796 8.22245 61.2431 8.1117 61.2499 8.03904L61.2502 8.03664C61.355 6.94363 62.0441 5.93697 63.1196 5.50192C64.6798 4.87224 66.4961 5.67727 67.0991 7.28115L67.1032 7.29226L78.6002 40.0276L79.4517 39.7286L67.9571 6.9998C67.9228 6.90208 67.8934 6.82992 67.8612 6.76369L67.8517 6.74419L67.843 6.72433C67.0554 4.9259 65.004 4.01623 63.1162 4.67923C61.6738 5.18582 60.7223 6.48462 60.5921 7.91656Z" fill="#2A3338"/>
<path d="M49.7091 52.3467C49.3924 52.2518 48.7599 52.1236 48.0317 52.3535L47.9492 52.3825C47.2244 52.6371 46.7925 53.1237 46.5968 53.3882L46.0793 54.1007L44.936 51.2561L45.0374 51.0607C45.2162 50.7042 45.7588 49.8284 46.8775 49.4045L46.9555 49.3772C48.0701 48.9857 49.0407 49.2992 49.4091 49.4532L49.615 49.5406L50.5975 52.6169L49.7091 52.3467Z" fill="#077BB3"/>
<path d="M47.1169 49.8372C48.1489 49.4748 49.034 49.8235 49.2213 49.902L49.8541 51.8799C49.5759 51.7921 48.8026 51.6 47.8847 51.8914C47.8526 51.9027 47.8205 51.914 47.7884 51.9252C46.871 52.2474 46.3676 52.8828 46.2036 53.1053C45.9602 52.5003 45.7152 51.8908 45.4718 51.2858C45.5687 51.092 46.0165 50.2546 47.0497 49.866C47.0726 49.8579 47.091 49.8515 47.1139 49.8434M46.7947 48.9199L46.7075 48.9505C45.4299 49.4353 44.8124 50.4353 44.6098 50.8414L44.4132 51.2351L44.5765 51.6415L44.9319 52.5214L45.3083 53.461L45.9648 55.0956L46.9999 53.6707C47.1593 53.4498 47.5172 53.0458 48.1181 52.8348L48.1823 52.8123C48.7851 52.6212 49.3127 52.7296 49.5722 52.8085L51.349 53.3489L50.7841 51.579L50.1513 49.6011L50.0168 49.1743L49.6051 48.9994C49.1887 48.8262 48.082 48.4626 46.8022 48.9121L46.7947 48.9199Z" fill="#2A3338"/>
<path d="M36.2475 73.7437C33.7843 74.6088 31.2148 74.8775 28.6111 74.5501C19.4687 73.3864 12.9737 65.0016 14.1374 55.8591C14.9434 49.5423 19.1786 44.3038 25.1919 42.1918C27.6551 41.3267 30.2246 41.0581 32.8299 41.39C37.2579 41.9526 41.204 44.2096 43.9373 47.7376C46.6706 51.2656 47.8663 55.6531 47.3037 60.081C46.4976 66.3978 42.2625 71.6364 36.2491 73.7483L36.2475 73.7437ZM26.1502 44.9056C21.1689 46.6551 17.6619 50.9887 16.9953 56.2209C16.5296 59.8831 17.5164 63.5143 19.7849 66.4378C22.0489 69.3629 25.3106 71.2265 28.979 71.6952C31.1359 71.9682 33.2589 71.7481 35.2954 71.0329C40.2722 69.285 43.7821 64.9452 44.4441 59.7147C45.4085 52.1468 40.0345 45.2077 32.4712 44.2417C30.3143 43.9687 28.1868 44.1904 26.1502 44.9056Z" fill="#077BB3"/>
<path d="M25.3578 42.6499C27.6604 41.8412 30.1833 41.5426 32.7717 41.8702C41.6598 42.9995 47.9524 51.1308 46.8231 60.019C46.023 66.3234 41.7025 71.3189 36.0882 73.2907C33.7856 74.0994 31.2626 74.3981 28.6743 74.0705C19.7861 72.9411 13.4935 64.8098 14.6228 55.9216C15.4229 49.6172 19.7435 44.6217 25.3578 42.6499ZM35.4551 71.488C40.4089 69.7482 44.2175 65.3345 44.928 59.7726C45.9249 51.9305 40.3749 44.7544 32.5328 43.7575C30.251 43.4665 28.0258 43.7327 25.9939 44.4464C21.04 46.1862 17.2252 50.597 16.5193 56.1573C15.5224 63.9993 21.077 71.1738 28.9207 72.1753C31.2025 72.4663 33.4277 72.2001 35.4596 71.4864M25.0356 41.7326C18.8433 43.9073 14.4861 49.297 13.6568 55.7972C12.4574 65.2046 19.1408 73.8325 28.5482 75.0319C31.229 75.3734 33.8722 75.0943 36.4042 74.2051C42.5964 72.0303 46.9537 66.6407 47.783 60.1405C48.362 55.5832 47.1335 51.0732 44.3171 47.4405C41.5052 43.8061 37.4443 41.4863 32.8869 40.9073C30.2061 40.5659 27.563 40.8449 25.031 41.7342L25.0356 41.7326ZM35.1329 70.5707C33.1697 71.2602 31.1174 71.476 29.0406 71.2109C25.5032 70.7632 22.3546 68.9578 20.1693 66.1391C17.9839 63.3203 17.0314 59.8161 17.4808 56.2833C18.1241 51.2345 21.509 47.052 26.3115 45.3654C28.2746 44.6759 30.3269 44.4601 32.4083 44.7235C39.7066 45.6538 44.8922 52.3499 43.9636 59.6527C43.3202 64.7015 39.9353 68.884 35.1329 70.5707Z" fill="#2A3338"/>
<path d="M70.4917 61.7437C68.0286 62.6088 65.459 62.8775 62.8554 62.5501C53.7129 61.3864 47.2179 53.0016 48.3816 43.8591C49.1877 37.5423 53.4228 32.3038 59.4362 30.1918C61.8994 29.3267 64.4689 29.0581 67.0742 29.39C76.2166 30.5537 82.7116 38.9385 81.548 48.081C80.7419 54.3978 76.5067 59.6364 70.4934 61.7483L70.4917 61.7437ZM60.3945 32.9056C55.4131 34.6551 51.9062 38.9887 51.2396 44.2209C50.2751 51.7887 55.6508 58.7324 63.2171 59.6922C65.374 59.9652 67.4969 59.7452 69.5335 59.0299C74.5148 57.2804 78.0202 52.9423 78.6822 47.7117C79.6466 40.1438 74.2726 33.2048 66.7093 32.2387C64.5523 31.9658 62.4248 32.1874 60.3929 32.901L60.3945 32.9056Z" fill="#077BB3"/>
<path d="M59.6064 30.646C61.909 29.8373 64.432 29.5387 67.0203 29.8663C75.9085 30.9956 82.2011 39.1269 81.0718 48.0151C80.2717 54.3195 75.9511 59.315 70.3368 61.2868C68.0342 62.0955 65.5113 62.3942 62.9229 62.0666C54.0348 60.9372 47.7421 52.8059 48.8715 43.9177C49.6716 37.6133 53.9921 32.6178 59.6064 30.646ZM69.6991 59.4858C74.6529 57.7459 78.4615 53.3322 79.1721 47.7703C80.169 39.9282 74.6189 32.7521 66.7769 31.7552C64.4951 31.4642 62.2699 31.7304 60.2379 32.4441C55.2841 34.1839 51.4693 38.5947 50.7634 44.155C49.7665 51.997 55.3211 59.1715 63.1648 60.173C65.4466 60.464 67.6717 60.1978 69.7037 59.4841M59.2842 29.7287C53.092 31.9034 48.7347 37.2931 47.9054 43.7933C46.706 53.2007 53.3894 61.8286 62.7969 63.028C65.4777 63.3695 68.1209 63.0904 70.6528 62.2012C76.8451 60.0264 81.2023 54.6368 82.0316 48.1366C82.6106 43.5792 81.3822 39.0693 78.5657 35.4365C75.7538 31.8022 71.6929 29.4824 67.1356 28.9034C64.4548 28.5619 61.8116 28.841 59.2797 29.7303L59.2842 29.7287ZM69.3769 58.5684C67.4138 59.2579 65.3615 59.4737 63.2847 59.2086C59.7473 58.7609 56.5987 56.9555 54.4133 54.1368C52.228 51.318 51.2755 47.8138 51.7248 44.281C52.3682 39.2322 55.7531 35.0497 60.5555 33.3631C62.5187 32.6736 64.571 32.4578 66.6524 32.7212C70.1898 33.1689 73.3367 34.9698 75.5175 37.7901C77.6983 40.6104 78.6537 44.1084 78.2014 47.6474C77.5581 52.6963 74.1732 56.8787 69.3707 58.5654L69.3769 58.5684Z" fill="#2A3338"/>
<path d="M78.3583 55.135C77.5304 56.3429 75.3177 59.212 71.2751 60.9204C66.8553 62.787 62.9132 62.1258 61.4659 61.8046C60.0757 61.4993 55.6349 60.3281 52.2646 56.1015C49.6318 52.801 49.0277 49.3496 48.8531 47.8548C49.2502 49.5136 50.4136 53.3251 53.8778 56.6015C54.9722 57.6341 58.3132 60.7065 63.4516 61.1793C66.3957 61.449 68.6601 60.7516 70.0507 60.3096C74.2499 58.9739 76.9954 56.536 78.3583 55.135Z" fill="#0A5877"/>
<path d="M42.354 69.283C41.3573 70.3183 39.2447 72.2402 35.9431 73.3586C34.8511 73.7266 32.1316 74.522 28.6725 74.0623C22.6695 73.2696 19.1165 69.3443 18.5151 68.6589C15.7289 65.4793 14.9454 62.06 14.6953 60.5557C15.1265 62.1355 16.3028 65.6023 19.4899 68.6618C20.4238 69.5601 22.8642 71.6967 26.405 72.7409C34.3515 75.0769 41.4088 69.9808 42.3478 69.28L42.354 69.283Z" fill="#0A5877"/>
<path d="M35.0948 70.4175C41.9549 68.0082 45.5629 60.4939 43.1536 53.6338C40.7443 46.7738 33.23 43.1657 26.37 45.5751C19.5099 47.9844 15.9019 55.4987 18.3112 62.3587C20.7205 69.2188 28.2348 72.8268 35.0948 70.4175Z" fill="#D7F4FF"/>
<path d="M69.3214 58.3667C76.1815 55.9574 79.7895 48.4431 77.3802 41.5831C74.9709 34.723 67.4566 31.115 60.5965 33.5243C53.7365 35.9336 50.1284 43.4479 52.5377 50.3079C54.947 57.168 62.4614 60.776 69.3214 58.3667Z" fill="#D7F4FF"/>
<path d="M22.3014 64.197C23.9144 60.8378 25.5273 57.4786 27.1403 54.1194C27.3694 53.6421 27.5986 53.1649 27.8277 52.6877C28.167 51.9811 27.0699 51.4544 26.7307 52.1609C25.1177 55.5201 23.5048 58.8794 21.8918 62.2386C21.6627 62.7158 21.4336 63.193 21.2044 63.6703C20.8652 64.3768 21.9622 64.9035 22.3014 64.197Z" fill="#B3E5F4"/>
<path d="M25.574 67.4285C26.3566 65.7984 27.1363 64.1746 27.919 62.5446L28.2523 61.8504C28.5915 61.1439 27.4945 60.6171 27.1553 61.3237L24.8102 66.2076L24.4769 66.9017C24.1377 67.6083 25.2347 68.135 25.574 67.4285Z" fill="#B3E5F4"/>
<path d="M57.7719 49.5549C59.0545 46.8836 60.3371 44.2124 61.6168 41.5473C61.7983 41.1692 61.9828 40.785 62.1643 40.4069C62.5036 39.7004 61.4066 39.1736 61.0673 39.8802C59.7847 42.5514 58.5021 45.2227 57.2224 47.8877C57.0409 48.2658 56.8564 48.6501 56.6749 49.0281C56.3356 49.7347 57.4326 50.2614 57.7719 49.5549Z" fill="#B3E5F4"/>
<path d="M59.9159 55.1457C60.9605 52.9703 62.002 50.8011 63.0466 48.6256C63.1954 48.3157 63.3442 48.0058 63.493 47.696C63.8322 46.9894 62.7352 46.4627 62.396 47.1692C61.3514 49.3447 60.3099 51.5139 59.2653 53.6893C59.1165 53.9992 58.9677 54.3091 58.8189 54.619C58.4797 55.3255 59.5767 55.8523 59.9159 55.1457Z" fill="#B3E5F4"/>
</svg>
