<svg width="286" height="184" viewBox="0 0 286 184" fill="none" xmlns="http://www.w3.org/2000/svg">
<path d="M108.281 100.294L80.0247 84.8222L81.8183 116.989L65.0819 89.462L50.5568 118.218L49.8217 86.0101L22.8648 103.652L38.3309 75.3897L6.16375 77.1891L33.6911 60.4528L4.93469 45.9218L37.1489 45.1926L19.5069 18.2299L47.7634 33.7018L45.9698 1.53472L62.7062 29.062L77.2314 0.305664L77.9664 32.5139L104.923 14.872L89.4572 43.1344L121.624 41.3349L94.0971 58.0771L122.853 72.6022L90.6393 73.3373L108.281 100.294Z" fill="#DAF5B7"/>
<path d="M247.271 110.85L235.645 104.487L236.386 117.719L229.5 106.392L223.525 118.224L223.219 104.975L212.128 112.232L218.497 100.606L205.26 101.347L216.586 94.4606L204.754 88.4858L218.009 88.18L210.752 77.0892L222.372 83.4579L221.637 70.2206L228.523 81.5467L234.498 69.7148L234.798 82.9698L245.889 75.7131L239.526 87.3332L252.758 86.5982L241.431 93.4844L253.263 99.4591L240.014 99.759L247.271 110.85Z" fill="#DAF5B7"/>
<path d="M143 183C221.424 183 285 178.663 285 173.314C285 167.965 221.424 163.629 143 163.629C64.5756 163.629 1 167.965 1 173.314C1 178.663 64.5756 183 143 183Z" fill="#DAF5B7" stroke="#456818" stroke-width="1.23239" stroke-miterlimit="10"/>
<path d="M118.878 147.027C120.325 146.115 123.053 144.127 125.1 140.581C125.717 139.511 127.376 136.559 127.523 132.578C127.552 131.807 127.74 122.334 119.99 117.882C113.021 113.883 105.8 117.47 105.259 117.747C99.278 120.846 97.5314 126.685 97.2433 127.709C99.5132 127.756 104.212 128.179 108.905 131.225C117.061 136.518 118.637 145.456 118.884 147.027H118.878Z" fill="#FFD037"/>
<path d="M102.441 119.503C102.047 118.45 101.477 116.445 101.9 114.01C102.629 109.812 105.764 107.548 106.51 107.042C106.834 106.824 108.38 105.795 110.709 105.337C114.984 104.49 118.389 106.236 119.071 106.601C123.306 108.871 124.787 112.828 125.181 114.034C126.546 118.203 125.393 121.749 124.987 122.843C117.472 121.732 109.951 120.62 102.435 119.509L102.441 119.503Z" fill="#FFD037"/>
<path d="M102.571 111.627C102.03 111.292 101.131 110.639 100.401 109.528C99.184 107.669 99.2546 105.788 99.284 105.258C99.3075 104.882 99.5074 102.012 101.83 100.089C104.653 97.7546 108.346 98.7014 109.387 98.966C114.333 100.23 116.497 104.864 116.826 105.599C112.074 107.611 107.323 109.616 102.571 111.627Z" fill="#FFD037"/>
<path d="M118.877 147.025C119.212 145.673 120.806 138.616 116.684 132.535C116.025 131.565 114.179 128.907 110.627 127.184C107.492 125.661 104.711 125.678 104.105 125.69C100.765 125.761 98.3303 127.043 97.2306 127.707C97.3835 126.631 97.7834 125.043 98.9948 123.708C102.094 120.303 107.822 121.509 108.998 121.791C116.878 123.702 123.088 133.482 121.341 141.65C120.812 144.126 119.659 145.955 118.871 147.019L118.877 147.025Z" fill="#F18300"/>
<path d="M102.441 119.507C101.495 117.337 101.577 115.914 102.112 114.955C104.606 110.468 119.854 110.944 123.912 118.319C124.829 119.989 124.994 121.682 124.994 122.841C124.229 121.624 121.742 118.031 117.09 116.631C113.18 115.455 109.775 116.437 107.893 116.978C105.464 117.678 103.623 118.719 102.441 119.507Z" fill="#F18300"/>
<path d="M102.57 111.631C101.658 111.214 100.629 110.549 100.4 109.532C99.8176 106.944 104.546 102.646 109.456 102.51C113.231 102.404 115.966 104.792 116.819 105.603C115.995 105.38 110.579 104.016 106.069 107.35C104.158 108.761 103.111 110.496 102.57 111.625V111.631Z" fill="#F18300"/>
<path d="M118.878 147.027C124.711 143.245 128.016 136.888 127.481 130.461C127.399 129.485 126.628 121.71 119.983 117.882C113.344 114.06 104.717 116.4 100.336 121.493C98.4072 123.739 97.6015 126.162 97.2369 127.709" stroke="#0D0D0C" stroke-width="2" stroke-miterlimit="10"/>
<path d="M124.993 122.844C125.234 122.197 127.257 116.464 123.782 111.047C123.382 110.424 119.918 105.214 113.608 105.061C109.409 104.961 104.487 107.107 102.564 111.63C101.076 115.134 102.076 118.463 102.435 119.51" stroke="#0D0D0C" stroke-width="2" stroke-miterlimit="10"/>
<path d="M102.571 111.63C102.118 111.342 99.9307 109.884 99.3309 107.061C98.7546 104.332 99.9425 101.639 101.83 100.086C104.665 97.7577 108.24 98.6751 109.387 98.9633C114.338 100.233 116.497 104.862 116.826 105.597" stroke="#0D0D0C" stroke-width="2" stroke-miterlimit="10"/>
<path d="M76.2195 171.742C78.7834 172.583 83.4233 173.718 89.0275 172.806C91.7326 172.365 101.436 170.789 105.999 162.286C109.945 154.923 108.881 144.538 102.253 138.545C97.1781 133.953 90.8917 133.782 88.9746 133.8C90.3977 135.876 92.7206 139.869 93.4674 145.373C93.8379 148.078 94.7082 155.323 90.0802 162.25C85.3463 169.342 78.0542 171.307 76.2195 171.742Z" fill="#FFD037"/>
<path d="M105.13 163.809C107.265 162.91 113.534 159.94 116.891 153.054C120.608 145.444 120.296 134.03 113.187 128.696C109.829 126.179 104.36 124.58 99.1084 126.608C94.151 128.52 91.8693 132.707 91.2754 133.895C93.6923 134.106 98.4263 134.918 102.255 138.534C108.247 144.192 109.547 154.394 105.13 163.804V163.809Z" fill="#FFD037"/>
<path d="M76.2195 171.741C77.3603 171.9 79.2539 172.053 81.4885 171.636C92.6206 169.566 100.754 155.534 99.5127 144.549C98.9776 139.804 96.6194 135.029 94.4495 134.446C94.326 134.411 93.4439 134.188 92.2501 134.017C90.8917 133.823 89.7509 133.794 88.9687 133.8C89.9096 135.105 91.0799 136.993 92.0208 139.445C92.3913 140.409 93.5909 143.702 93.6909 148.231C93.7497 150.877 93.7967 155.681 90.974 160.78C90.3448 161.915 88.4924 165.014 84.864 167.743C81.4709 170.295 78.1366 171.306 76.2195 171.741Z" fill="#F18300"/>
<path d="M105.13 163.809C109.623 155.358 108.841 145.673 103.395 139.698C99.1084 134.994 93.316 134.112 91.2754 133.9C91.5929 132.883 92.2869 131.136 93.8276 130.46C98.7673 128.307 111.534 137.587 111.975 148.937C112.275 156.693 106.7 162.321 105.13 163.809Z" fill="#F18300"/>
<path d="M75.3257 171.677C78.1484 172.583 84.6818 174.247 92.3384 172.083C95.414 171.213 100.836 169.678 104.464 164.785C109.845 157.54 109.58 145.25 102.253 138.54C97.3134 134.018 91.0682 133.783 88.9747 133.794" stroke="#0D0D0C" stroke-width="2" stroke-miterlimit="10"/>
<path d="M105.13 163.81C106.771 163.098 114.974 159.364 118.026 150.366C120.243 143.833 120.002 133.76 113.187 128.696C109.811 126.191 104.372 124.574 99.1084 126.609C94.1334 128.532 91.8576 132.725 91.2754 133.895" stroke="#0D0D0C" stroke-width="2" stroke-miterlimit="10"/>
<path d="M39.2245 119.705C38.6599 121.258 34.7258 132.566 41.071 142.169C44.2054 146.915 48.463 149.138 50.2095 150.02C59.0011 154.477 67.5516 152.278 69.9274 151.572C72.4796 150.814 80.4831 148.297 85.1288 140.205C86.1168 138.488 89.8039 131.819 87.7104 123.71C86.6402 119.57 84.482 116.682 83.1177 115.13C81.4652 117.947 78.1955 122.498 72.4502 125.697C71.0917 126.45 59.8362 132.478 48.3865 127.138C43.6761 124.945 40.7358 121.669 39.2304 119.705H39.2245Z" fill="#FFD037"/>
<path d="M46.4177 147.754C46.3354 148.877 45.718 160.357 54.7741 167.707C64.0185 175.211 75.4975 171.759 77.7087 171.095C79.7493 170.483 83.8598 169.201 87.5176 165.473C92.3633 160.539 93.2159 154.593 93.5511 151.982C93.8158 149.924 94.3274 143.985 91.2342 137.534C89.7699 134.488 87.9704 132.294 86.6414 130.906C86.5649 133.394 86.0415 138.516 82.5602 143.314C75.9151 152.476 64.242 152.494 62.0897 152.494C54.6683 152.506 49.0993 149.489 46.4119 147.754H46.4177Z" fill="#FFD037"/>
<path d="M41.5304 89.4062C39.9309 91.2587 37.2081 94.9164 35.8262 100.268C35.2852 102.373 34.1796 106.878 35.538 112.2C37.5551 120.091 43.6298 124.378 45.2646 125.496C53.4328 131.082 66.2291 132.358 75.744 125.355C76.3732 124.89 86.0704 117.504 86.0645 105.155C86.0645 99.9796 84.3592 95.9573 83.1948 93.7285C81.4482 95.0281 72.6037 101.32 60.3896 99.6033C49.5928 98.0802 43.1887 91.2822 41.5363 89.4062H41.5304Z" fill="#FFD037"/>
<path d="M35.0428 104.297C35.2545 102.163 35.7249 100.34 36.2189 98.8989C36.0307 98.7518 35.7778 98.5637 35.4779 98.3461C33.9313 97.2464 28.8798 93.6533 26.7981 94.9647C24.9045 96.1644 25.916 101.139 26.9216 103.756C28.1271 106.897 30.203 108.908 31.3615 110.013C33.0257 111.601 34.6723 112.624 35.8719 113.271C35.2839 111.225 34.6723 108.084 35.0428 104.297Z" fill="#FFD037"/>
<path d="M50.0405 96.8273C53.8747 98.8855 57.9794 99.6441 59.1732 99.8441C64.2599 100.697 68.2823 100.085 69.729 99.8264C72.1988 99.3795 77.8501 98.2975 83.1898 93.7282C86.9181 90.5409 88.9351 86.989 89.9525 84.8014C90.6111 83.39 93.2339 77.4212 92.146 69.5941C91.2874 63.4488 88.5882 59.3382 87.9825 58.4444C85.4009 54.6337 82.437 52.5578 80.9022 51.4935C73.5925 46.3949 65.9889 46.1421 64.2011 46.1185C61.5548 46.0891 52.9985 46.1185 45.5124 52.4344C34.9567 61.3376 35.9152 74.8161 35.974 75.4688C36.9032 85.9893 43.8247 93.493 50.0523 96.8273H50.0405Z" fill="#FFD037"/>
<path d="M60.2016 87.7897C62.7126 89.4186 66.1116 89.3187 68.4992 87.4898C68.8167 87.2487 68.9814 86.8547 68.7638 86.4842C68.5815 86.1725 68.0757 85.9785 67.7582 86.2196C65.7588 87.7485 63.0596 87.8897 60.9484 86.5195C60.1545 86.002 59.4136 87.2781 60.2074 87.7897H60.2016Z" fill="#0D0D0C"/>
<path d="M83.4536 116.129C82.7127 117.717 81.4248 120.04 79.249 122.351C75.0972 126.761 70.3868 128.308 68.5227 128.89C67.2054 129.307 62.8949 130.542 57.2906 129.89C50.7102 129.125 46.2938 126.202 45.2588 125.497C42.3538 123.503 40.4132 121.28 39.2253 119.698C38.9489 120.363 38.6725 121.028 38.3961 121.692C38.9254 123.074 39.8898 125.156 41.6599 127.202C51.5041 138.558 74.4151 135.076 82.2246 126.996C83.4713 125.703 86.2587 122.868 85.6648 119.651C85.359 117.987 84.2593 116.811 83.4536 116.123V116.129Z" fill="#F18300"/>
<path d="M46.4166 147.755C46.3814 148.648 46.3461 149.542 46.3108 150.436C47.4752 151.453 49.2452 152.835 51.6151 154.053C62.6061 159.71 77.7076 157.446 85.9405 149.072C87.6635 147.319 92.4386 142.591 91.2331 137.528C90.6861 135.223 89.0925 133.641 87.934 132.729C87.4753 135.064 86.1463 140.11 81.8711 144.573C78.8014 147.778 75.6023 149.231 73.697 150.071C66.452 153.271 59.948 152.524 58.2485 152.289C52.6913 151.512 48.6278 149.236 46.4225 147.76L46.4166 147.755Z" fill="#F18300"/>
<path d="M41.5289 89.4062C41.276 89.7062 41.0231 90.012 40.7703 90.3119C41.7994 92.5289 43.7047 95.8926 47.1155 98.9682C55.2896 106.337 65.4749 106.066 67.98 106.001C73.8666 105.843 78.4652 104.002 80.5293 103.167C82.7169 102.279 84.4752 101.338 85.7337 100.591C85.3809 99.4739 84.981 98.3095 84.5399 97.1158C84.0989 95.9279 83.6461 94.7988 83.1874 93.7285C81.4055 95.0575 72.908 101.091 61.0115 99.6621C49.7441 98.3095 43.0931 91.1822 41.5289 89.4062Z" fill="#F18300"/>
<path d="M45.5057 52.4329C48.152 51.0157 52.7331 48.9986 58.7431 48.4517C60.519 48.293 68.9284 47.6755 78.1257 52.3741C84.6297 55.6967 88.6756 60.2248 90.8102 63.0416C89.8164 61.0246 85.0002 51.839 73.9269 47.8578C71.9922 47.1639 63.4358 44.3118 53.7386 47.8166C50.0221 49.1574 47.2699 51.0275 45.5057 52.4271V52.4329Z" fill="#F18300"/>
<path d="M34.791 106.703C33.9501 106.204 32.8563 105.486 31.6743 104.486C31.0686 103.975 29.7925 102.887 28.7045 101.464C26.464 98.5353 26.1288 95.6067 25.9348 95.6479C25.5878 95.7243 25.2938 100.194 27.252 104.551C29.3867 109.291 33.2797 111.873 35.3908 113.043C35.2909 112.067 35.1968 111.085 35.1027 110.097C34.9968 108.956 34.891 107.827 34.7851 106.698L34.791 106.703Z" fill="#F18300"/>
<path d="M39.2248 119.704C38.625 121.292 34.8731 131.654 40.4715 141.198C46.6638 151.76 60.3069 154.194 69.9277 151.572C72.4328 150.889 80.507 148.273 85.1291 140.204C85.9583 138.758 90.2806 131.213 87.4285 122.803C86.37 119.687 84.6705 117.464 83.4473 116.123" stroke="#0D0D0C" stroke-width="2" stroke-miterlimit="10"/>
<path d="M46.4179 147.755C46.165 150.607 46.0121 157.24 50.2109 163.132C56.6032 172.106 69.0172 173.67 77.7029 171.095C79.5789 170.536 83.8188 169.248 87.5119 165.473C94.7862 158.046 95.4507 145.867 91.2284 137.528C90.1288 135.358 88.8585 133.759 87.9294 132.729" stroke="#0D0D0C" stroke-width="2" stroke-miterlimit="10"/>
<path d="M50.0401 96.8283C53.8743 98.8865 57.9789 99.6451 59.1727 99.8451C64.2595 100.698 68.2818 100.086 69.7285 99.8274C72.2572 99.3746 77.8555 98.2926 83.1893 93.7292C84.6418 92.4884 89.4875 88.0603 91.5339 80.4919C91.875 79.2334 92.91 75.0111 92.1396 69.5892C91.2575 63.391 88.5289 59.2569 87.9761 58.4395C85.3945 54.6288 82.4248 52.553 80.8958 51.4886C73.5862 46.3901 65.9825 46.1372 64.1948 46.1137C61.5485 46.0843 52.9922 46.1137 45.5061 52.4295C34.9503 61.3328 35.9089 74.8112 35.9677 75.4639C36.8968 85.9844 43.8184 93.4881 50.046 96.8224L50.0401 96.8283Z" stroke="#0D0D0C" stroke-width="2" stroke-miterlimit="10"/>
<path d="M41.5304 89.4062C39.9426 91.241 37.2022 94.8988 35.8262 100.268C35.2852 102.373 34.1796 106.878 35.538 112.2C37.5551 120.086 43.618 124.373 45.2646 125.496C53.8798 131.394 66.6114 131.847 75.744 125.355C77.9492 123.784 83.9769 118.951 85.7352 110.259C87.4112 102.003 84.171 95.5339 83.1889 93.7285" stroke="#0D0D0C" stroke-width="2" stroke-miterlimit="10"/>
<path d="M35.0428 104.297C35.2545 102.163 35.7249 100.34 36.2189 98.8989C36.0307 98.7518 35.7778 98.5637 35.4779 98.3461C33.9313 97.2464 28.8798 93.6533 26.7981 94.9647C24.9045 96.1644 25.916 101.139 26.9216 103.756C28.1271 106.897 30.203 108.908 31.3615 110.013C33.0257 111.601 34.6723 112.624 35.8719 113.271C35.2839 111.225 34.6723 108.084 35.0428 104.297Z" stroke="#0D0D0C" stroke-width="2" stroke-miterlimit="10"/>
<path d="M86.124 103.563C86.0769 102.94 85.9181 101.294 85.3654 99.2236C85.0772 98.1415 84.7596 97.2359 84.4891 96.5361C85.0419 96.3656 85.8005 96.1245 86.7003 95.8128C93.0278 93.6311 94.4686 92.1315 95.5212 92.8137C97.062 93.8134 96.2504 98.4826 94.4216 101.529C93.022 103.863 90.9696 105.322 89.8523 106.116C88.3821 107.162 87.0178 107.827 86.0357 108.244C86.2533 106.41 86.2239 104.816 86.124 103.569V103.563Z" fill="#FFD037"/>
<path d="M86.0531 102.887C87.1116 102.646 88.6053 102.205 90.2401 101.34C90.9752 100.952 92.216 100.293 93.3215 99.2232C95.8973 96.7239 96.1678 93.4896 96.3442 93.5366C96.55 93.5896 96.65 98.2588 93.792 102.44C91.2868 106.109 87.7055 107.65 86.0295 108.238C86.0472 107.221 86.0531 106.192 86.0589 105.157C86.0589 104.392 86.0589 103.634 86.0589 102.881L86.0531 102.887Z" fill="#F18300"/>
<path d="M86.124 103.561C86.0769 102.938 85.9181 101.292 85.3654 99.2216C85.0772 98.1454 84.7596 97.2339 84.4891 96.5341C85.0302 96.3695 85.7946 96.1225 86.7003 95.8108C92.9102 93.6644 94.4216 92.1001 95.5212 92.8117C97.0032 93.7702 96.221 97.9102 95.0096 100.456C93.8453 102.903 92.0517 104.373 90.8226 105.373C89.0231 106.843 87.2766 107.725 86.0357 108.242C86.2533 106.408 86.2239 104.814 86.124 103.567V103.561Z" stroke="#0D0D0C" stroke-width="2" stroke-miterlimit="10"/>
<path d="M61.2823 65.4391L61.4705 65.245C61.7646 64.9451 62.582 64.2394 63.8345 64.1865C63.8816 64.1865 63.9345 64.1865 63.9816 64.1865C65.1342 64.1865 65.9398 64.7628 66.2339 65.0098L66.4397 65.1804L66.5102 68.4618L65.5987 67.9148C65.3576 67.7678 64.8637 67.5267 64.2109 67.5267C64.1286 67.5267 64.0404 67.5267 63.9522 67.5385C63.223 67.6091 62.7113 67.9619 62.4702 68.1618L61.6117 68.8852L61.2882 65.445L61.2823 65.4391Z" fill="#077BB3"/>
<path d="M63.9815 64.7718C65.0047 64.7718 65.6986 65.3246 65.8574 65.454C65.8691 66.1067 65.8868 66.7536 65.8986 67.4064C65.681 67.277 65.0576 66.9359 64.2049 66.9359C64.105 66.9359 63.9991 66.9359 63.8933 66.9535C62.9406 67.0476 62.3114 67.524 62.0938 67.7122C62.0291 67.03 61.9644 66.342 61.8997 65.6598C62.0467 65.5128 62.7406 64.8248 63.8638 64.7777C63.905 64.7777 63.9462 64.7777 63.9873 64.7777M63.9815 63.5957C63.9227 63.5957 63.8697 63.5957 63.8109 63.5957C62.3408 63.6545 61.3881 64.4837 61.047 64.8365L60.6707 65.2246L60.7236 65.7657L60.8236 66.7948L60.9235 67.8239L61.1352 70.0585L62.8524 68.6119C63.0406 68.4531 63.4404 68.1767 64.0109 68.1238C64.0814 68.1179 64.1461 68.112 64.2108 68.112C64.7224 68.112 65.1105 68.3002 65.2987 68.4119L67.1276 69.5057L67.0806 67.377L67.0394 65.4246L67.0276 64.8953L66.6219 64.5542C66.2808 64.2661 65.334 63.5957 63.9932 63.5957H63.9815Z" fill="#0D0D0C"/>
<path d="M81.9603 82.5242C76.0443 82.5242 70.5106 79.3545 67.5233 74.256C62.8658 66.3054 65.5474 56.0437 73.498 51.3862C76.062 49.8867 78.9729 49.0928 81.9309 49.0928C87.8468 49.0928 93.3805 52.2624 96.3678 57.361C98.626 61.2128 99.2435 65.7115 98.1144 70.0337C96.9853 74.356 94.2449 77.9726 90.3931 80.2308C87.8291 81.7303 84.9182 82.5242 81.9603 82.5242ZM81.925 52.1683C79.5139 52.1683 77.1381 52.8152 75.0446 54.0384C71.9043 55.879 69.6638 58.837 68.7464 62.3595C67.8291 65.8879 68.3348 69.5574 70.1754 72.7035C72.6159 76.867 77.1322 79.4545 81.9603 79.4545C84.3713 79.4545 86.7471 78.8076 88.8347 77.5845C95.327 73.7856 97.5146 65.4057 93.7098 58.9193C91.2693 54.7558 86.753 52.1742 81.925 52.1742V52.1683Z" fill="#077BB3"/>
<path d="M81.9247 49.6869C87.4642 49.6869 92.8568 52.539 95.8559 57.661C100.355 65.3411 97.773 75.2265 90.0929 79.7252C87.5348 81.2247 84.7297 81.9363 81.96 81.9363C76.4204 81.9363 71.0278 79.0842 68.0287 73.9621C63.53 66.282 66.1116 56.3967 73.7917 51.898C76.3498 50.3984 79.1549 49.6869 81.9247 49.6869ZM81.9658 80.0427C84.4063 80.0427 86.8821 79.4135 89.1402 78.0904C95.9206 74.1209 98.1964 65.3941 94.227 58.6196C91.5807 54.0974 86.8174 51.5804 81.9306 51.5804C79.4901 51.5804 77.0143 52.2097 74.7503 53.5328C67.9699 57.5022 65.7 66.2232 69.6694 73.0036C72.3157 77.5258 77.079 80.0427 81.9658 80.0427ZM81.9247 48.5107C78.8667 48.5107 75.85 49.334 73.1978 50.8865C69.2107 53.2211 66.3704 56.973 65.206 61.4423C64.0357 65.9116 64.6826 70.5749 67.0172 74.5561C70.1105 79.8369 75.8382 83.1124 81.96 83.1124C85.0179 83.1124 88.0347 82.2891 90.6868 80.7366C94.6739 78.402 97.5143 74.6502 98.6786 70.1809C99.8489 65.7116 99.202 61.0483 96.8674 57.0671C93.7742 51.7863 88.0464 48.5107 81.9247 48.5107ZM81.9658 78.8666C77.3436 78.8666 73.0214 76.3909 70.6868 72.4097C68.9226 69.4047 68.4403 65.888 69.3166 62.5125C70.1987 59.1371 72.3392 56.3085 75.3442 54.5502C77.3436 53.3799 79.6195 52.7566 81.9247 52.7566C86.5469 52.7566 90.8691 55.2323 93.2038 59.2135C96.8439 65.4235 94.7504 73.4388 88.5404 77.0789C86.541 78.2491 84.2652 78.8725 81.96 78.8725L81.9658 78.8666Z" fill="#0D0D0C"/>
<path d="M45.9818 84.9178C40.0659 84.9178 34.5322 81.7481 31.5448 76.6496C29.2866 72.7978 28.6692 68.2991 29.7983 63.9768C30.9273 59.6545 33.6677 56.0379 37.5195 53.7798C40.0835 52.2802 42.9944 51.4863 45.9524 51.4863C51.8683 51.4863 57.402 54.656 60.3894 59.7545C62.6476 63.6063 63.265 68.105 62.1359 72.4273C61.0069 76.7496 58.2665 80.3661 54.4146 82.6243C51.8507 84.1239 48.9398 84.9178 45.9818 84.9178ZM45.9524 54.5619C43.5413 54.5619 41.1655 55.2088 39.072 56.4319C35.9318 58.2726 33.6912 61.2305 32.7739 64.7531C31.8565 68.2814 32.3622 71.951 34.2029 75.0971C36.6433 79.2606 41.1597 81.8481 45.9877 81.8481C48.3987 81.8481 50.7745 81.2012 52.8622 79.978C59.3544 76.1733 61.542 67.7992 57.7372 61.3129C55.2967 57.1494 50.7804 54.5619 45.9465 54.5619H45.9524Z" fill="#077BB3"/>
<path d="M45.9459 52.0785C51.4855 52.0785 56.878 54.9306 59.8772 60.0526C64.3759 67.7328 61.7943 77.6181 54.1141 82.1168C51.556 83.6164 48.751 84.3279 45.9812 84.3279C40.4416 84.3279 35.0491 81.4758 32.0499 76.3538C27.5512 68.6737 30.1328 58.7883 37.813 54.2896C40.3711 52.79 43.1761 52.0785 45.9459 52.0785ZM45.9871 82.4344C48.4275 82.4344 50.9033 81.8051 53.1615 80.482C59.9419 76.5126 62.2177 67.7857 58.2482 61.0112C55.6019 56.489 50.8386 53.9721 45.9518 53.9721C43.5113 53.9721 41.0356 54.6013 38.7715 55.9244C31.9911 59.8939 29.7212 68.6149 33.6906 75.3952C36.3369 79.9174 41.1003 82.4344 45.9871 82.4344ZM45.9459 50.9024C42.888 50.9024 39.8712 51.7257 37.219 53.2781C33.232 55.6128 30.3916 59.3646 29.2272 63.8339C28.057 68.3032 28.7039 72.9665 31.0385 76.9477C34.1317 82.2285 39.8594 85.5041 45.9812 85.5041C49.0391 85.5041 52.0559 84.6808 54.7081 83.1283C62.941 78.3061 65.7108 67.6857 60.8886 59.4528C57.7954 54.172 52.0677 50.8965 45.9459 50.8965V50.9024ZM45.9871 81.2582C41.3649 81.2582 37.0426 78.7825 34.708 74.8013C32.9438 71.7963 32.4616 68.2797 33.3378 64.9042C34.2199 61.5287 36.3605 58.7001 39.3655 56.9418C41.3649 55.7715 43.6407 55.1482 45.9459 55.1482C50.5681 55.1482 54.8904 57.6239 57.225 61.6051C60.8651 67.8151 58.7716 75.8304 52.5616 79.4705C50.5622 80.6408 48.2864 81.2641 45.9812 81.2641L45.9871 81.2582Z" fill="#0D0D0C"/>
<path d="M37.3068 81.8089C38.5358 82.591 41.6761 84.3493 46.0395 84.3317C50.8087 84.3081 54.1489 82.1735 55.3486 81.3149C56.5012 80.4916 60.106 77.6924 61.535 72.5116C62.6524 68.4657 61.8644 65.0784 61.4351 63.6436C61.7173 65.3137 62.1407 69.2537 60.2531 73.5995C59.6591 74.9697 57.8008 79.0802 53.2904 81.5148C50.7088 82.9085 48.3683 83.1555 46.9216 83.2967C42.5641 83.7142 39.1062 82.5557 37.3126 81.8089H37.3068Z" fill="#0A3777"/>
<path d="M75.7323 80.6909C77.0437 81.2496 79.7253 82.1787 83.1772 81.9141C84.318 81.8259 87.1114 81.4907 90.0987 79.7206C95.2737 76.6568 96.9908 71.6818 97.2731 70.8232C98.5786 66.8302 97.9612 63.4018 97.6024 61.9258C97.8259 63.5371 98.1023 67.1596 96.3851 71.2054C95.8794 72.3874 94.4857 75.2984 91.6571 77.633C85.306 82.8667 76.8673 80.9614 75.7382 80.685L75.7323 80.6909Z" fill="#0A3777"/>
<path d="M83.4075 68.6337C82.7606 66.7107 80.9259 65.4346 78.9265 65.5111C76.8506 65.5934 75.0687 67.1165 74.6571 69.1865C74.9629 68.863 76.6095 67.2106 79.2322 67.1694C81.4728 67.1341 82.9959 68.2926 83.4134 68.6337H83.4075Z" fill="#0D0D0C"/>
<path d="M83.7594 68.5344C83.0302 66.4409 80.9896 64.9766 78.7432 65.1531C76.4968 65.3295 74.7561 66.9525 74.3033 69.0872C74.2268 69.4283 74.6502 69.7223 74.9149 69.4459C77.0789 67.1936 80.7014 66.9114 83.1478 68.8931C83.5124 69.1872 84.0357 68.6697 83.6653 68.3756C82.2304 67.2113 80.3662 66.6291 78.5256 66.8584C76.9731 67.0525 75.4794 67.7993 74.3974 68.9284L75.009 69.2871C75.3912 67.4936 76.879 66.0469 78.7432 65.894C80.6073 65.7411 82.4245 66.9349 83.0537 68.7344C83.2066 69.1754 83.9181 68.9872 83.7652 68.5403L83.7594 68.5344Z" fill="#0D0D0C"/>
<path d="M53.3435 69.5565C52.6967 67.6336 50.8619 66.3575 48.8625 66.4339C46.7866 66.5162 45.0048 68.0393 44.5931 70.1093C44.8989 69.7859 46.5455 68.1334 49.1683 68.0923C51.4088 68.057 52.9319 69.2155 53.3494 69.5565H53.3435Z" fill="#0D0D0C"/>
<path d="M53.697 69.4573C52.9678 67.3638 50.9272 65.8995 48.6808 66.0759C46.4344 66.2523 44.6937 67.8754 44.2409 70.0101C44.1645 70.3511 44.5879 70.6452 44.8525 70.3688C47.0166 68.1165 50.639 67.8342 53.0854 69.816C53.45 70.11 53.9734 69.5925 53.6029 69.2985C52.168 68.1341 50.3038 67.5519 48.4632 67.7813C46.9107 67.9754 45.417 68.7222 44.335 69.8513L44.9466 70.21C45.3288 68.4164 46.8166 66.9698 48.6808 66.8169C50.545 66.664 52.3621 67.8577 52.9913 69.6572C53.1442 70.0983 53.8558 69.9101 53.7029 69.4632L53.697 69.4573Z" fill="#0D0D0C"/>
<path d="M74.0585 47.8128C77.5398 44.5372 78.5336 41.5381 78.863 39.6446C79.3275 36.9336 78.7747 34.4225 78.0338 30.9765C77.3105 27.6128 76.3813 25.2605 76.7342 21.5969C76.8459 20.4325 77.0694 19.1152 78.0632 18.439C79.0805 17.7509 80.4919 18.0038 81.1799 18.2802C84.6966 19.7092 85.0788 28.3949 84.0732 34.152C82.903 40.8383 79.4687 45.8016 76.6812 48.9242C76.2931 48.7889 75.8932 48.636 75.4757 48.4596C74.97 48.2479 74.4936 48.0245 74.0585 47.8069V47.8128Z" fill="#FFD037" stroke="#0D0D0C" stroke-width="2" stroke-miterlimit="10"/>
<path d="M49.1122 49.7016C45.7543 48.3314 43.6667 46.4614 42.52 45.2441C39.4679 41.9921 36.0219 35.8586 37.2745 29.8662C37.8508 27.1082 39.3268 24.8618 38.0977 23.0388C37.5332 22.2038 36.4747 21.5569 35.475 21.6627C32.8346 21.9391 31.6878 27.3552 31.5643 27.9609C30.4 33.4593 32.7581 38.1991 33.3932 39.434C36.5217 45.5087 41.6026 48.3902 45.3839 50.4838C45.7543 50.6896 46.3071 50.9895 46.9893 51.3247C47.301 51.0718 47.6244 50.8131 47.9596 50.5543C48.3477 50.2544 48.7358 49.9663 49.1122 49.6957V49.7016Z" fill="#FFD037" stroke="#0D0D0C" stroke-width="2" stroke-miterlimit="10"/>
<path d="M84.22 26.3428C84.5258 28.7127 84.7022 32.4998 83.5202 36.9044C81.8795 43.0379 78.4981 47.0544 76.681 48.9362C75.8754 48.5951 75.0697 48.2599 74.2582 47.9188C75.7107 46.6957 77.6748 44.7727 79.4332 42.0147C81.3032 39.0861 82.103 36.5163 82.7146 34.5227C83.3261 32.5174 83.9848 29.7359 84.2141 26.3428H84.22Z" fill="#F18300"/>
<path d="M48.4228 49.5421C46.788 48.7541 44.5886 47.4309 42.5245 45.2433C38.0493 40.4977 37.2201 34.8875 37.0202 32.7705C36.6791 34.0172 36.2792 36.1401 36.7438 38.657C37.3495 41.9502 39.0961 44.0849 40.5956 45.9137C41.7835 47.3663 43.8712 49.5539 47.1349 51.4357L48.4228 49.5421Z" fill="#F18300"/>
<path d="M74.0585 47.8128C77.5398 44.5372 78.5336 41.5381 78.863 39.6446C79.3275 36.9336 78.7747 34.4225 78.0338 30.9765C77.3105 27.6128 76.3813 25.2605 76.7342 21.5969C76.8459 20.4325 77.0694 19.1152 78.0632 18.439C79.0805 17.7509 80.4919 18.0038 81.1799 18.2802C84.6966 19.7092 85.0788 28.3949 84.0732 34.152C82.903 40.8383 79.4687 45.8016 76.6812 48.9242C76.2931 48.7889 75.8932 48.636 75.4757 48.4596C74.97 48.2479 74.4936 48.0245 74.0585 47.8069V47.8128Z" stroke="#0D0D0C" stroke-width="2" stroke-miterlimit="10"/>
<path d="M49.1122 49.7016C45.7543 48.3314 43.6667 46.4614 42.52 45.2441C39.4679 41.9921 36.0219 35.8586 37.2745 29.8662C37.8508 27.1082 39.3268 24.8618 38.0977 23.0388C37.5332 22.2038 36.4747 21.5569 35.475 21.6627C32.8346 21.9391 31.6878 27.3552 31.5643 27.9609C30.4 33.4593 32.7581 38.1991 33.3932 39.434C36.5217 45.5087 41.6026 48.3902 45.3839 50.4838C45.7543 50.6896 46.3071 50.9895 46.9893 51.3247C47.301 51.0718 47.6244 50.8131 47.9596 50.5543C48.3477 50.2544 48.7358 49.9663 49.1122 49.6957V49.7016Z" stroke="#0D0D0C" stroke-width="2" stroke-miterlimit="10"/>
<path d="M175.777 104.534H111.625C110.326 104.534 109.273 105.587 109.273 106.886V171.038C109.273 172.337 110.326 173.391 111.625 173.391H175.777C177.076 173.391 178.13 172.337 178.13 171.038V106.886C178.13 105.587 177.076 104.534 175.777 104.534Z" fill="#2A4409" stroke="#0D0D0C" stroke-width="2" stroke-miterlimit="10"/>
<path d="M155.23 104.534H91.0781C89.779 104.534 88.7258 105.587 88.7258 106.886V171.038C88.7258 172.337 89.779 173.391 91.0781 173.391H155.23C156.529 173.391 157.582 172.337 157.582 171.038V106.886C157.582 105.587 156.529 104.534 155.23 104.534Z" fill="#66AF08" stroke="#0D0D0C" stroke-width="2" stroke-miterlimit="10"/>
<path d="M147.315 112.45H98.9942C97.6951 112.45 96.642 113.503 96.642 114.802V163.124C96.642 164.423 97.6951 165.476 98.9942 165.476H147.315C148.615 165.476 149.668 164.423 149.668 163.124V114.802C149.668 113.503 148.615 112.45 147.315 112.45Z" stroke="#0D0D0C" stroke-width="2" stroke-miterlimit="10"/>
<path d="M257.379 104.534H193.228C191.928 104.534 190.875 105.587 190.875 106.886V171.038C190.875 172.337 191.928 173.391 193.228 173.391H257.379C258.679 173.391 259.732 172.337 259.732 171.038V106.886C259.732 105.587 258.679 104.534 257.379 104.534Z" fill="#2A4409" stroke="#0D0D0C" stroke-width="2" stroke-miterlimit="10"/>
<path d="M236.832 104.534H172.68C171.381 104.534 170.328 105.587 170.328 106.886V171.038C170.328 172.337 171.381 173.391 172.68 173.391H236.832C238.131 173.391 239.185 172.337 239.185 171.038V106.886C239.185 105.587 238.131 104.534 236.832 104.534Z" fill="#66AF08" stroke="#0D0D0C" stroke-width="2" stroke-miterlimit="10"/>
<path d="M228.918 112.45H180.596C179.297 112.45 178.244 113.503 178.244 114.802V163.124C178.244 164.423 179.297 165.476 180.596 165.476H228.918C230.217 165.476 231.27 164.423 231.27 163.124V114.802C231.27 113.503 230.217 112.45 228.918 112.45Z" stroke="#0D0D0C" stroke-width="2" stroke-miterlimit="10"/>
<path d="M216.879 35.6738H152.727C151.428 35.6738 150.375 36.727 150.375 38.0261V102.178C150.375 103.477 151.428 104.53 152.727 104.53H216.879C218.178 104.53 219.231 103.477 219.231 102.178V38.0261C219.231 36.727 218.178 35.6738 216.879 35.6738Z" fill="#2A4409" stroke="#0D0D0C" stroke-width="2" stroke-miterlimit="10"/>
<path d="M196.332 35.6738H132.18C130.881 35.6738 129.828 36.727 129.828 38.0261V102.178C129.828 103.477 130.881 104.53 132.18 104.53H196.332C197.631 104.53 198.684 103.477 198.684 102.178V38.0261C198.684 36.727 197.631 35.6738 196.332 35.6738Z" fill="#66AF08" stroke="#0D0D0C" stroke-width="2" stroke-miterlimit="10"/>
<path d="M188.417 43.5898H140.096C138.797 43.5898 137.744 44.643 137.744 45.9421V94.2633C137.744 95.5624 138.797 96.6156 140.096 96.6156H188.417C189.717 96.6156 190.77 95.5624 190.77 94.2633V45.9421C190.77 44.643 189.717 43.5898 188.417 43.5898Z" stroke="#0D0D0C" stroke-width="2" stroke-miterlimit="10"/>
<path d="M150.533 88.5022C149.163 88.5022 148.04 87.9964 147.169 86.985C146.293 85.9735 145.858 84.715 145.858 83.2096L145.805 75.553C145.805 73.7359 146.223 72.3304 147.064 71.3366C147.905 70.3428 149.04 69.7782 150.48 69.643V69.1313C149.11 69.0608 148.016 68.5492 147.193 67.5906C146.37 66.6321 145.958 65.2795 145.958 63.533L145.905 57.0055C145.905 55.5 146.34 54.2416 147.217 53.2301C148.093 52.2186 149.21 51.7129 150.58 51.7129H177.919C179.29 51.7129 180.413 52.2186 181.289 53.2301C182.165 54.2416 182.6 55.5 182.6 57.0055L182.547 63.533C182.547 65.2795 182.136 66.6321 181.313 67.5906C180.489 68.5492 179.395 69.0667 178.025 69.1313V69.643C179.466 69.7782 180.601 70.3428 181.442 71.3366C182.283 72.3304 182.7 73.7359 182.7 75.553L182.647 83.2096C182.647 84.715 182.212 85.9794 181.336 86.985C180.46 87.9964 179.342 88.5022 177.972 88.5022H150.527H150.533ZM163.071 80.9514H165.435C166.258 80.9514 166.811 80.628 167.105 79.9752C167.393 79.3225 167.54 78.4698 167.54 77.4054C167.54 76.2763 167.393 75.4001 167.105 74.7826C166.811 74.1652 166.258 73.8594 165.435 73.8594H163.071C162.247 73.8594 161.689 74.1652 161.401 74.7826C161.107 75.4001 160.965 76.2704 160.965 77.4054C160.965 78.4698 161.112 79.3225 161.401 79.9752C161.689 80.628 162.247 80.9514 163.071 80.9514ZM163.071 65.7911H165.435C166.152 65.7911 166.658 65.4912 166.952 64.8914C167.24 64.2916 167.387 63.4977 167.387 62.5039C167.387 61.4395 167.24 60.6338 166.952 60.0869C166.658 59.54 166.158 59.2636 165.435 59.2636H163.071C162.353 59.2636 161.848 59.54 161.554 60.0869C161.26 60.6338 161.118 61.4395 161.118 62.5039C161.118 63.4977 161.265 64.2975 161.554 64.8914C161.842 65.4912 162.347 65.7911 163.071 65.7911Z" fill="white" stroke="#0D0D0C" stroke-width="2" stroke-miterlimit="10"/>
<path d="M122.997 144.828H110C108.895 144.828 108 143.933 108 142.828V135.684C108 134.755 108.754 134.001 109.683 134.001L120.487 134.001H122.997L134.804 134.002C134.804 134.002 134.805 134.002 134.805 134.002C134.805 134.001 134.805 134.001 134.805 134.001H135.244C136.214 134.001 137 134.787 137 135.757V142.627C137 143.839 136.017 144.822 134.805 144.822L122.997 144.828Z" fill="white"/>
<path d="M122.997 146.001V144.828M122.997 144.828H110C108.895 144.828 108 143.933 108 142.828V135.684V135.684C108 134.755 108.754 134.001 109.683 134.001L120.487 134.001H122.997L134.804 134.002C134.804 134.002 134.805 134.002 134.805 134.002V134.002C134.805 134.001 134.805 134.001 134.805 134.001H135.244C136.214 134.001 137 134.787 137 135.757V142.627C137 143.839 136.017 144.822 134.805 144.822V144.822L122.997 144.828Z" stroke="#0D0D0C" stroke-width="2" stroke-miterlimit="10"/>
<path d="M190.521 157.361L202.288 131.151H188.616L188.669 120.565H220.895V129.045L208.357 157.361H190.521Z" fill="white" stroke="#0D0D0C" stroke-width="2" stroke-miterlimit="10"/>
</svg>
