<svg width="678" height="457" viewBox="0 0 678 457" fill="none" xmlns="http://www.w3.org/2000/svg">
<path d="M0 19.0479C0 10.0686 0 5.579 2.78662 2.7895C5.57325 0 10.0583 0 19.0283 0H658.972C667.942 0 672.427 0 675.213 2.7895C678 5.579 678 10.0686 678 19.0479V437.952C678 446.931 678 451.421 675.213 454.21C672.427 457 667.942 457 658.972 457H19.0282C10.0582 457 5.57325 457 2.78662 454.21C0 451.421 0 446.931 0 437.952V19.0479Z" fill="#0C0D0D"/>
<path d="M0 19.0479C0 10.0686 0 5.579 2.78662 2.7895C5.57325 0 10.0583 0 19.0283 0H653.537C662.507 0 666.992 0 669.779 2.7895C672.565 5.579 672.565 10.0686 672.565 19.0479V432.512C672.565 441.491 672.565 445.98 669.779 448.77C666.992 451.56 662.507 451.56 653.537 451.56H19.0283C10.0583 451.56 5.57325 451.56 2.78662 448.77C0 445.98 0 441.491 0 432.512V19.0479Z" fill="white"/>
<path fill-rule="evenodd" clip-rule="evenodd" d="M653.537 1.15687H19.0283C14.5106 1.15687 11.2386 1.15933 8.74266 1.49525C6.27999 1.82668 4.74661 2.46356 3.60381 3.60753C2.46102 4.75151 1.8248 6.28647 1.4937 8.75169C1.15814 11.2502 1.15568 14.5256 1.15568 19.0479V432.512C1.15568 437.034 1.15814 440.309 1.4937 442.808C1.8248 445.273 2.46102 446.808 3.60381 447.952C4.74661 449.096 6.27999 449.733 8.74267 450.064C11.2386 450.4 14.5106 450.403 19.0283 450.403H653.537C658.055 450.403 661.327 450.4 663.822 450.064C666.285 449.733 667.819 449.096 668.961 447.952C670.104 446.808 670.74 445.273 671.071 442.808C671.407 440.309 671.409 437.034 671.409 432.512V19.0479C671.409 14.5256 671.407 11.2502 671.071 8.75168C670.74 6.28646 670.104 4.75151 668.961 3.60753C667.819 2.46356 666.285 1.82669 663.822 1.49525C661.327 1.15933 658.055 1.15687 653.537 1.15687ZM2.78662 2.7895C0 5.579 0 10.0686 0 19.0479V432.512C0 441.491 0 445.98 2.78662 448.77C5.57325 451.56 10.0583 451.56 19.0283 451.56H653.537C662.507 451.56 666.992 451.56 669.779 448.77C672.565 445.98 672.565 441.491 672.565 432.512V19.0479C672.565 10.0686 672.565 5.579 669.779 2.7895C666.992 0 662.507 0 653.537 0H19.0283C10.0583 0 5.57325 0 2.78662 2.7895Z" fill="#2A3338"/>
<path fill-rule="evenodd" clip-rule="evenodd" d="M338.321 12.8289C340.146 12.8289 341.626 11.3474 341.626 9.51981C341.626 7.69224 340.146 6.2107 338.321 6.2107C336.495 6.2107 335.015 7.69224 335.015 9.51981C335.015 11.3474 336.495 12.8289 338.321 12.8289ZM338.321 13.6002C340.572 13.6002 342.397 11.7733 342.397 9.51981C342.397 7.26629 340.572 5.43945 338.321 5.43945C336.069 5.43945 334.245 7.26629 334.245 9.51981C334.245 11.7733 336.069 13.6002 338.321 13.6002Z" fill="#2A3338"/>
<path fill-rule="evenodd" clip-rule="evenodd" d="M660.54 421.63V35.3682C660.54 30.8459 660.537 27.5705 660.202 25.072C659.871 22.6068 659.234 21.0718 658.092 19.9278C656.949 18.7839 655.415 18.147 652.953 17.8156C650.457 17.4796 647.185 17.4772 642.667 17.4772H29.898C25.3803 17.4772 22.1083 17.4796 19.6124 17.8156C17.1497 18.147 15.6164 18.7839 14.4736 19.9278C13.3308 21.0718 12.6946 22.6068 12.3635 25.072C12.0279 27.5705 12.0254 30.8459 12.0254 35.3682V421.63C12.0254 426.152 12.0279 429.427 12.3635 431.926C12.6946 434.391 13.3308 435.926 14.4736 437.07C15.6164 438.214 17.1497 438.851 19.6124 439.182C22.1084 439.518 25.3804 439.521 29.898 439.521H642.667C647.185 439.521 650.457 439.518 652.953 439.182C655.415 438.851 656.949 438.214 658.092 437.07C659.234 435.926 659.871 434.391 660.202 431.926C660.537 429.427 660.54 426.152 660.54 421.63ZM13.6564 19.1098C10.8698 21.8993 10.8698 26.3889 10.8698 35.3682V421.63C10.8698 430.609 10.8698 435.098 13.6564 437.888C16.443 440.677 20.928 440.677 29.898 440.677H642.667C651.637 440.677 656.122 440.677 658.909 437.888C661.695 435.098 661.695 430.609 661.695 421.63V35.3682C661.695 26.3889 661.695 21.8993 658.909 19.1098C656.122 16.3203 651.637 16.3203 642.667 16.3203H29.898C20.928 16.3203 16.443 16.3203 13.6564 19.1098Z" fill="#2A3338"/>
</svg>
