<svg width="50" height="44" viewBox="0 0 50 44" fill="none" xmlns="http://www.w3.org/2000/svg">
<path fill-rule="evenodd" clip-rule="evenodd" d="M25.8211 38.4903C38.6224 38.4903 49 30.5225 49 20.6937C49 10.8649 38.6224 2.89714 25.8211 2.89714C13.0198 2.89714 2.64221 10.8649 2.64221 20.6937C2.64221 26.1892 5.88638 31.1029 10.9845 34.3674L10.5549 42.3026V42.5699V42.7371C10.5549 42.8541 10.6067 42.965 10.6963 43.0402C10.7675 43.0999 10.8575 43.1327 10.9505 43.1327H11.17C11.4517 43.1327 11.726 43.0432 11.9535 42.8772L12.1626 42.7247L17.8005 37.396C20.2998 38.1038 23.0016 38.4903 25.8211 38.4903Z" fill="#2A3338"/>
<path d="M10.9845 34.3674L11.7334 34.4079L11.757 33.9715L11.3889 33.7358L10.9845 34.3674ZM10.5549 42.3026L9.80601 42.262L9.80492 42.2823V42.3026H10.5549ZM10.6963 43.0402L10.2143 43.6148L10.2144 43.6149L10.6963 43.0402ZM11.9535 42.8772L12.3956 43.4831L12.3956 43.4831L11.9535 42.8772ZM12.1626 42.7247L12.6047 43.3305L12.6432 43.3024L12.6778 43.2697L12.1626 42.7247ZM17.8005 37.396L18.0048 36.6744L17.5949 36.5583L17.2853 36.851L17.8005 37.396ZM48.25 20.6937C48.25 25.3266 45.8061 29.572 41.7543 32.6829C37.7018 35.7944 32.071 37.7403 25.8211 37.7403V39.2403C32.3725 39.2403 38.3312 37.2023 42.6678 33.8727C47.0051 30.5425 49.75 25.8896 49.75 20.6937H48.25ZM25.8211 3.64714C32.071 3.64714 37.7018 5.59301 41.7543 8.70452C45.8061 11.8154 48.25 16.0608 48.25 20.6937H49.75C49.75 15.4978 47.0051 10.8449 42.6678 7.51476C38.3312 4.18518 32.3725 2.14714 25.8211 2.14714V3.64714ZM3.39221 20.6937C3.39221 16.0608 5.83613 11.8154 9.8879 8.70452C13.9404 5.59301 19.5712 3.64714 25.8211 3.64714V2.14714C19.2697 2.14714 13.311 4.18518 8.9744 7.51476C4.63707 10.8449 1.89221 15.4978 1.89221 20.6937H3.39221ZM11.3889 33.7358C6.44882 30.5724 3.39221 25.8722 3.39221 20.6937H1.89221C1.89221 26.5062 5.32394 31.6333 10.5801 34.999L11.3889 33.7358ZM11.3038 42.3431L11.7334 34.4079L10.2356 34.3268L9.80601 42.262L11.3038 42.3431ZM11.3049 42.5699V42.3026H9.80492V42.5699H11.3049ZM11.3049 42.7371V42.5699H9.80492V42.7371H11.3049ZM11.1782 42.4655C11.2585 42.5329 11.3049 42.6323 11.3049 42.7371H9.80492C9.80492 43.0758 9.95482 43.3972 10.2143 43.6148L11.1782 42.4655ZM10.9505 42.3827C11.0338 42.3827 11.1144 42.412 11.1782 42.4655L10.2144 43.6149C10.4206 43.7878 10.6812 43.8827 10.9505 43.8827V42.3827ZM11.17 42.3827H10.9505V43.8827H11.17V42.3827ZM11.5115 42.2713C11.4123 42.3437 11.2928 42.3827 11.17 42.3827V43.8827C11.6106 43.8827 12.0397 43.7427 12.3956 43.4831L11.5115 42.2713ZM11.7206 42.1188L11.5115 42.2713L12.3956 43.4831L12.6047 43.3305L11.7206 42.1188ZM17.2853 36.851L11.6474 42.1796L12.6778 43.2697L18.3156 37.9411L17.2853 36.851ZM25.8211 37.7403C23.07 37.7403 20.4369 37.3631 18.0048 36.6744L17.5961 38.1176C20.1626 38.8444 22.9333 39.2403 25.8211 39.2403V37.7403Z" fill="#2A3338"/>
<path fill-rule="evenodd" clip-rule="evenodd" d="M24.1789 36.8475C36.9802 36.8475 47.3578 28.8798 47.3578 19.051C47.3578 9.22219 36.9802 1.25439 24.1789 1.25439C11.3775 1.25439 1 9.22219 1 19.051C1 24.5464 4.24417 29.4601 9.34229 32.7246L8.9127 40.6598V40.9271V41.0944C8.9127 41.2113 8.96446 41.3223 9.05408 41.3974C9.12531 41.4572 9.21529 41.4899 9.30825 41.4899H9.52782C9.80945 41.4899 10.0838 41.4005 10.3113 41.2345L10.5204 41.0819L16.1582 35.7533C18.6576 36.461 21.3594 36.8475 24.1789 36.8475Z" fill="#087BB4"/>
<path d="M9.34229 32.7246L10.0912 32.7652L10.1148 32.3287L9.74673 32.093L9.34229 32.7246ZM8.9127 40.6598L8.1638 40.6193L8.1627 40.6395V40.6598H8.9127ZM9.05408 41.3974L8.57214 41.9721L8.57215 41.9721L9.05408 41.3974ZM10.3113 41.2345L10.7534 41.8403L10.7534 41.8403L10.3113 41.2345ZM10.5204 41.0819L10.9625 41.6878L11.001 41.6597L11.0356 41.627L10.5204 41.0819ZM16.1582 35.7533L16.3626 35.0317L15.9527 34.9156L15.6431 35.2082L16.1582 35.7533ZM46.6078 19.051C46.6078 23.6839 44.1639 27.9293 40.1121 31.0402C36.0595 34.1517 30.4288 36.0975 24.1789 36.0975V37.5975C30.7303 37.5975 36.689 35.5595 41.0256 32.2299C45.3629 28.8998 48.1078 24.2468 48.1078 19.051H46.6078ZM24.1789 2.00439C30.4288 2.00439 36.0595 3.95026 40.1121 7.06177C44.1639 10.1727 46.6078 14.4181 46.6078 19.051H48.1078C48.1078 13.8551 45.3629 9.20219 41.0256 5.87201C36.689 2.54243 30.7303 0.504395 24.1789 0.504395V2.00439ZM1.75 19.051C1.75 14.4181 4.19391 10.1727 8.24568 7.06177C12.2982 3.95026 17.929 2.00439 24.1789 2.00439V0.504395C17.6275 0.504395 11.6688 2.54243 7.33219 5.87201C2.99486 9.20219 0.25 13.8551 0.25 19.051H1.75ZM9.74673 32.093C4.80661 28.9297 1.75 24.2294 1.75 19.051H0.25C0.25 24.8634 3.68173 29.9906 8.93785 33.3563L9.74673 32.093ZM9.66161 40.7004L10.0912 32.7652L8.59339 32.6841L8.1638 40.6193L9.66161 40.7004ZM9.6627 40.9271V40.6598H8.1627V40.9271H9.6627ZM9.6627 41.0944V40.9271H8.1627V41.0944H9.6627ZM9.53602 40.8228C9.61632 40.8901 9.6627 40.9896 9.6627 41.0944H8.1627C8.1627 41.4331 8.31261 41.7544 8.57214 41.9721L9.53602 40.8228ZM9.30825 40.7399C9.39156 40.7399 9.47219 40.7693 9.53601 40.8228L8.57215 41.9721C8.77842 42.1451 9.03903 42.2399 9.30825 42.2399V40.7399ZM9.52782 40.7399H9.30825V42.2399H9.52782V40.7399ZM9.86925 40.6286C9.77011 40.7009 9.65055 40.7399 9.52782 40.7399V42.2399C9.96835 42.2399 10.3975 42.1 10.7534 41.8403L9.86925 40.6286ZM10.0783 40.476L9.86925 40.6286L10.7534 41.8403L10.9625 41.6878L10.0783 40.476ZM15.6431 35.2082L10.0052 40.5368L11.0356 41.627L16.6734 36.2983L15.6431 35.2082ZM24.1789 36.0975C21.4278 36.0975 18.7947 35.7204 16.3626 35.0317L15.9539 36.4749C18.5204 37.2017 21.2911 37.5975 24.1789 37.5975V36.0975Z" fill="#2A3338"/>
</svg>
