<svg xmlns="http://www.w3.org/2000/svg" width="42" height="55" viewBox="0 0 42 55" fill="none">
<path d="M18.7301 0.369306C17.2063 0.917556 15.2448 2.25118 14.1769 3.46577C13.7222 3.98316 13.0023 5.1417 12.5706 6.05618C11.9411 7.38414 11.5934 7.82249 10.8087 8.27721C9.50277 9.03393 8.24599 10.4576 7.95249 11.5195C7.61554 12.7303 7.64704 15.1547 8.01862 16.5696C8.73598 19.3027 7.36708 21.8493 9.13402 23.8616C10.126 24.9905 10.9394 25.3366 12.9422 25.4786C14.597 25.5967 14.7356 25.6512 15.7278 26.5748C18.595 29.2442 22.1491 29.6297 25.2616 27.6162C27.931 25.8908 28.6919 23.5347 29.5279 20.7292C33.372 19.4296 34.231 19.3581 34.2096 15.0911C34.1923 11.761 33.3953 10.0728 31.3799 9.10541C30.3032 8.58802 30.2358 8.47434 30.0015 6.77637C29.7912 5.27207 28.6604 3.12252 27.5456 2.11073C26.0004 0.708774 24.3896 0.0997466 21.9963 0.0137774C19.2926 -0.0838433 18.9477 0.369306 18.7301 0.369306ZM23.8237 2.60576C26.2265 3.422 27.8281 5.8811 27.8281 8.75461C27.8281 10.6481 27.5236 10.8009 23.7362 10.8009C20.2968 10.8009 18.4562 10.4198 15.5735 9.11108C13.7745 8.29485 13.7386 8.07977 15.0665 6.09901C17.2447 2.85548 20.6082 1.51336 23.8237 2.60576ZM11.6999 16.8521C10.7564 16.8637 10.0019 17.1761 10.0019 13.8479C10.0019 12.1068 10.2154 11.511 11.1119 10.7432C11.9628 10.0152 12.0809 10.0822 11.8995 11.1923C11.9383 11.1923 11.7559 10.7669 11.6999 16.8521ZM15.5742 11.487C19.644 13.2858 22.3081 13.0732 27.1104 13.0887C27.2471 13.9783 27.4335 14.6563 27.2978 17.7467C27.1072 22.1003 25.9389 24.5748 23.4751 25.8455C21.7775 26.7209 19.9041 26.6595 18.4256 25.6805L17.4242 25.0166C18.0931 24.7364 18.676 24.4139 19.3177 24.6573C21.9796 25.6682 24.8824 22.7414 22.7165 20.3806C21.1817 18.7078 18.7657 19.2485 17.9542 21.4481C17.6569 22.254 17.4283 22.516 16.8801 22.6715C15.8626 22.9641 15.5842 22.754 15.0259 21.2743C13.3421 16.8071 13.9187 10.9092 14.2015 10.9092C14.25 10.9092 15.5971 11.487 15.5742 11.487ZM31.1157 17.7489C30.114 18.2018 29.8721 18.0875 29.862 17.1563C29.8334 14.4298 29.2502 12.6182 29.846 11.584C30.2802 10.8292 30.7995 10.9967 31.4696 12.1068C31.7867 12.1068 32.927 16.9296 31.1157 17.7489ZM12.4503 20.8023C12.7173 21.7167 13.0137 22.664 13.1034 22.903C13.2508 23.296 13.1796 23.3243 12.3747 23.1946C11.1633 22.9994 10.4809 22.2502 10.3042 20.9226C10.1102 19.4639 10.2743 19.137 11.1989 19.137C11.9464 19.137 11.9704 19.1701 12.4503 20.8023ZM21.091 21.9233C21.3045 22.2716 20.5037 22.8891 20.2105 22.5982C19.9173 22.3072 20.1885 21.6623 20.6022 21.6623C20.8753 21.6623 21.1218 21.9233 21.0888 21.9233H21.091Z" fill="#087BB4"/>
<path d="M25.3391 29.3901C25.2118 30.2923 25.6738 30.5647 27.3283 30.571C36.4577 30.595 38.2196 39.9429 39.1555 49.0239C39.3312 50.7291 39.5608 50.5842 35.251 51.4905C31.941 52.1846 31.247 52.5048 31.247 53.3119C31.247 54.5933 31.9218 54.6103 36.863 53.4407C40.0845 52.6783 41.1876 52.1672 41.5243 51.2874C41.921 50.2441 40.6989 41.3402 39.78 38.5756C37.9765 33.1551 34.847 29.7526 30.7888 28.8013C28.917 28.3616 26.599 28.253 25.9786 28.5742C26.0004 28.5742 25.4099 28.8841 25.3391 29.3901Z" fill="#087BB4"/>
<path d="M9.06567 29.3988C6.0662 30.1804 3.9598 32.0244 2.43723 35.2028C0.603848 39.0286 -0.312841 44.848 0.0962208 50.0474C0.380895 53.661 0.380895 53.661 3.68929 53.661C6.38866 53.661 6.80182 53.5237 6.80182 52.6268C6.80182 51.7977 6.34489 51.593 4.49482 51.593C3.10136 51.593 2.70143 51.5152 2.58775 51.223C2.31064 50.5097 2.45423 44.3665 2.79717 42.2538C3.267 39.3589 4.3909 36.071 5.39986 34.6356C7.20773 32.0704 9.1296 31.2082 13.1336 31.1755C15.3543 31.1569 15.7577 31.0948 15.9586 30.7406C16.3028 30.1341 15.9854 29.4992 15.2019 29.2275C14.1482 28.8618 10.7618 28.9563 9.06221 29.3988H9.06567Z" fill="#087BB4"/>
<path d="M13.9634 32.421C8.58703 32.7312 7.18318 33.3084 6.78262 35.3748C6.51999 36.7305 6.56282 48.1968 6.56282 48.1739C4.37359 48.1739 3.8899 48.1046 3.50729 48.6544C3.09067 49.2502 3.27615 49.9433 3.90722 50.1493C4.39249 50.3095 35.5666 50.4727 36.6659 50.0189C38.2634 49.3592 37.4717 47.7169 35.5562 47.7169C35.1717 47.7169 35.1411 47.4773 35.1288 44.3427C35.109 39.3776 34.7935 36.409 34.1551 35.1572C33.1616 33.2111 31.6384 32.7583 24.8906 32.4018C17.5458 32.0142 15.0369 32.421 13.9634 32.421ZM30.6581 35.3963C32.3133 35.8097 32.414 36.1583 32.6867 42.2965C32.8294 45.4742 32.8395 47.5749 32.7132 47.6946C32.437 47.9559 8.80117 48.0646 8.82415 48.0646C8.83234 46.0357 8.83171 37.1449 9.0068 36.2654C9.18661 35.366 9.58623 35.1821 11.8718 34.9453C14.9761 34.626 27.1217 34.5126 30.6581 35.3963Z" fill="#087BB4"/>
<path d="M19.7098 38.8581C18.7931 39.7747 18.6864 39.9882 18.6864 40.949C18.6864 41.8418 18.807 42.1472 19.4261 42.8208C21.3829 44.9505 24.8462 43.8657 24.8462 41.1232C24.8462 39.2583 23.8445 38.199 21.8638 37.9684C20.754 37.8393 20.7125 37.8563 19.7092 38.8596L19.7098 38.8581ZM22.5162 41.0126C22.612 41.6875 21.7554 41.9378 21.1681 41.4066C20.8195 41.0917 20.7871 40.9475 21.005 40.6864C21.4068 40.2058 22.4325 40.4253 22.5162 41.0126Z" fill="#087BB4"/>
</svg>