<svg width="75" height="75" viewBox="0 0 75 75" fill="none" xmlns="http://www.w3.org/2000/svg">
<path d="M32.7327 15.3772C33.5291 12.4672 37.5159 12.1184 38.8055 14.8459L44.5557 27.0071C45.1482 28.2603 46.2588 29.1922 47.5959 29.5582L60.5708 33.1092C63.4808 33.9056 63.8296 37.8924 61.1021 39.182L48.941 44.9322C47.6877 45.5248 46.7558 46.6353 46.3899 47.9725L42.8389 60.9473C42.0424 63.8573 38.0557 64.2061 36.766 61.4787L31.0159 49.3175C30.4233 48.0642 29.3127 47.1324 27.9756 46.7664L15.0007 43.2154C12.0907 42.419 11.7419 38.4322 14.4694 37.1425L26.6305 31.3924C27.8838 30.7998 28.8157 29.6893 29.1816 28.3521L32.7327 15.3772Z" fill="#38302A" stroke="#38302A" stroke-width="1.5"/>
<path d="M31.2793 14.1585C32.0757 11.2485 36.0625 10.8997 37.3521 13.6272L43.1023 25.7883C43.6949 27.0416 44.8054 27.9735 46.1426 28.3394L59.1175 31.8904C62.0275 32.6869 62.3763 36.6736 59.6488 37.9633L47.4876 43.7134C46.2343 44.306 45.3025 45.4166 44.9365 46.7537L41.3855 59.7286C40.5891 62.6386 36.6023 62.9874 35.3127 60.2599L29.5625 48.0988C28.9699 46.8455 27.8594 45.9136 26.5222 45.5477L13.5473 41.9966C10.6373 41.2002 10.2885 37.2134 13.016 35.9238L25.1772 30.1736C26.4305 29.5811 27.3623 28.4705 27.7283 27.1334L31.2793 14.1585Z" fill="#F99F57" stroke="#38302A" stroke-width="1.5"/>
</svg>
