<svg width="395" height="312" viewBox="0 0 395 312" fill="none" xmlns="http://www.w3.org/2000/svg">
<path d="M85.6839 258.694L82.1383 260.231C76.1232 246.355 59.9937 239.976 46.1124 245.994C32.2311 252.011 25.8577 268.138 31.8751 282.02L28.3294 283.557C21.4631 267.717 28.738 249.32 44.5724 242.456C60.4067 235.592 78.8091 242.864 85.6732 258.699L85.6839 258.694Z" fill="#2A3338"/>
<path d="M85.3923 258.021L81.8467 259.558L82.8108 259.939C78.1131 249.206 67.0407 242.373 55.3294 243.046C43.6182 243.719 33.2805 251.984 30.0123 263.244C28.1843 269.539 28.6165 276.286 31.2025 282.311L31.5835 281.347L28.0379 282.884L29.002 283.265C26.4906 277.413 25.8292 270.918 27.1678 264.688C28.5064 258.458 31.5813 253.136 36.0284 248.946C40.6803 244.565 46.6698 241.706 53.0088 240.863C59.3478 240.02 65.3662 241.15 70.8509 243.924C77.1689 247.116 82.174 252.514 85.006 258.988C85.3815 259.854 86.7319 259.269 86.3511 258.405C83.701 252.35 79.2405 247.177 73.5699 243.768C68.0391 240.445 61.5928 238.829 55.1487 239.194C41.7653 239.946 29.9572 249.405 26.2723 262.283C24.2359 269.41 24.7381 277.041 27.6592 283.853C27.8178 284.219 28.2574 284.393 28.6233 284.234L32.1689 282.697C32.5348 282.539 32.7085 282.099 32.5499 281.733C28.2028 271.602 30.5643 259.489 38.5799 251.854C46.7114 244.117 59.0701 242.313 69.0818 247.362C74.6105 250.149 78.9829 254.869 81.4627 260.53C81.6213 260.896 82.0609 261.07 82.4267 260.911L85.9724 259.374C86.8386 258.999 86.2555 257.654 85.3893 258.029L85.3923 258.021Z" fill="#2A3338"/>
<path d="M27.1144 271.671L25.8338 272.226C23.7211 273.142 22.7509 275.597 23.6667 277.71L34.2135 302.04C35.1293 304.153 37.5844 305.123 39.6972 304.207L40.9777 303.652C43.0904 302.736 44.0607 300.281 43.1448 298.168L32.5981 273.839C31.6822 271.726 29.2271 270.756 27.1144 271.671Z" fill="#2A3338"/>
<path d="M40.6862 302.98C40.1428 303.215 39.5965 303.503 39.0274 303.68C38.0177 303.989 36.8888 303.789 36.0346 303.175C35.3372 302.672 34.984 301.975 34.6551 301.216L32.1339 295.4C29.8132 290.046 27.4926 284.693 25.1743 279.345C24.3929 277.542 23.3393 275.628 24.8749 273.818C25.4167 273.181 26.1469 272.89 26.8894 272.568C27.675 272.227 28.43 271.964 29.3076 272.101C30.6175 272.307 31.5167 273.202 32.0305 274.372C34.0315 278.944 35.9978 283.524 37.9826 288.103L41.3365 295.84C41.9592 297.276 43.0553 299.038 42.66 300.648C42.4026 301.705 41.6614 302.531 40.6885 302.985C39.8316 303.382 40.4147 304.727 41.2716 304.33C43.4165 303.336 44.6726 300.97 44.0724 298.642C43.9206 298.056 43.6588 297.511 43.4186 296.957L40.4029 290C38.1102 284.711 35.8175 279.422 33.5249 274.134C33.1657 273.305 32.7721 272.53 32.0896 271.899C30.4594 270.394 28.3233 270.361 26.3756 271.206C25.5524 271.562 24.7407 271.902 24.0858 272.543C23.2728 273.337 22.739 274.405 22.6221 275.536C22.5117 276.594 22.8006 277.555 23.2111 278.502L29.9888 294.137C31.0244 296.526 32.0576 298.91 33.0931 301.299C33.2844 301.74 33.4541 302.19 33.6777 302.618C34.7566 304.694 37.1726 305.755 39.4283 305.091C40.0635 304.905 40.6659 304.599 41.2739 304.336C42.1402 303.96 41.5571 302.615 40.6908 302.99L40.6862 302.98Z" fill="#2A3338"/>
<path d="M33.8566 301.218L30.779 302.553C27.4432 303.999 23.5714 302.468 22.1254 299.133L17.5237 288.517C16.0777 285.181 17.6078 281.31 20.9436 279.864L24.0212 278.53L33.8566 301.218Z" fill="#2A3338"/>
<path d="M33.5651 300.545C31.3645 301.499 29.1247 302.834 26.6479 302.163C24.9189 301.698 23.5262 300.461 22.801 298.833C22.5741 298.324 22.3579 297.81 22.1363 297.299L19.1836 290.488C18.3393 288.54 17.3382 286.673 17.8897 284.466C18.3434 282.652 19.6318 281.231 21.3274 280.483C22.3227 280.051 23.3181 279.62 24.3135 279.188L23.3494 278.807L33.1848 301.496C33.5603 302.362 34.9054 301.779 34.5299 300.913L24.6945 278.224C24.5359 277.858 24.0962 277.685 23.7304 277.843C21.1855 278.946 18.5326 279.815 17.1266 282.425C16.1974 284.145 16.0133 286.167 16.5731 288.034C16.784 288.741 17.1225 289.419 17.4164 290.097L20.5673 297.366C20.8589 298.038 21.1474 298.719 21.4443 299.389C22.1601 300.996 23.3736 302.292 24.9538 303.077C26.8689 304.03 29.122 304.037 31.079 303.214C32.1059 302.782 33.1235 302.328 34.1458 301.885C35.012 301.509 34.429 300.164 33.5627 300.54L33.5651 300.545Z" fill="#2A3338"/>
<path d="M79.1315 249.123L77.8509 249.678C75.7382 250.594 74.7679 253.049 75.6838 255.161L86.2305 279.491C87.1464 281.604 89.6015 282.574 91.7142 281.658L92.9948 281.103C95.1075 280.187 96.0778 277.732 95.1619 275.62L84.6152 251.29C83.6993 249.177 81.2442 248.207 79.1315 249.123Z" fill="#2A3338"/>
<path d="M78.1425 250.35C78.6859 250.114 79.2322 249.826 79.8012 249.65C80.811 249.34 81.9399 249.541 82.794 250.155C83.4914 250.658 83.8447 251.355 84.1735 252.114L86.6948 257.93C89.0154 263.283 91.3361 268.637 93.6544 273.985C94.4357 275.787 95.4893 277.702 93.9538 279.511C93.412 280.149 92.6817 280.44 91.9392 280.762C91.1537 281.102 90.3986 281.366 89.521 281.228C88.2112 281.023 87.312 280.128 86.7981 278.957C84.7972 274.386 82.8309 269.805 80.8461 265.227L77.4922 257.49C76.8694 256.053 75.7734 254.291 76.1686 252.682C76.426 251.624 77.1672 250.798 78.1401 250.345C78.9971 249.948 78.414 248.602 77.5571 248.999C75.4121 249.993 74.156 252.359 74.7563 254.688C74.9081 255.274 75.1698 255.819 75.4101 256.373L78.4258 263.329C80.7184 268.618 83.0111 273.907 85.3038 279.196C85.663 280.025 86.0566 280.8 86.7391 281.431C88.3693 282.936 90.5054 282.968 92.4531 282.124C93.2763 281.767 94.088 281.428 94.7429 280.786C95.5558 279.993 96.0896 278.924 96.2066 277.793C96.3169 276.736 96.028 275.774 95.6176 274.827C93.3575 269.614 91.0999 264.406 88.8398 259.192L85.7355 252.031C85.5443 251.59 85.3745 251.139 85.151 250.712C84.0721 248.636 81.656 247.574 79.4004 248.239C78.7651 248.425 78.1627 248.731 77.5547 248.994C76.6885 249.37 77.2716 250.715 78.1378 250.339L78.1425 250.35Z" fill="#2A3338"/>
<path d="M84.9697 252.109L88.0473 250.775C91.3831 249.329 95.2549 250.859 96.7009 254.195L101.303 264.811C102.749 268.146 101.218 272.018 97.8827 273.464L94.8051 274.798L84.9697 252.109Z" fill="#2A3338"/>
<path d="M85.2612 252.781C87.4618 251.827 89.7016 250.492 92.1784 251.163C93.9074 251.628 95.3001 252.865 96.0253 254.494C96.2522 255.002 96.4684 255.516 96.69 256.027L99.6427 262.839C100.487 264.786 101.488 266.653 100.937 268.861C100.483 270.674 99.1944 272.096 97.4989 272.844C96.5036 273.275 95.5082 273.707 94.5128 274.138L95.4769 274.519L85.6415 251.83C85.266 250.964 83.9209 251.547 84.2964 252.413L94.1318 275.102C94.2904 275.468 94.73 275.642 95.0959 275.483C97.6408 274.38 100.294 273.511 101.7 270.901C102.629 269.182 102.813 267.159 102.253 265.292C102.042 264.585 101.704 263.907 101.41 263.229L98.259 255.96C97.9674 255.288 97.6789 254.608 97.382 253.937C96.6662 252.33 95.4527 251.035 93.8725 250.25C91.9574 249.297 89.7043 249.289 87.7473 250.112C86.7203 250.544 85.7027 250.998 84.6805 251.441C83.8142 251.817 84.3973 253.162 85.2636 252.786L85.2612 252.781Z" fill="#2A3338"/>
<path d="M64.1675 240.066C64.3026 240.717 64.4378 241.368 64.5729 242.019C65.1128 244.635 62.9088 246.997 60.2547 246.639C55.9603 246.066 51.455 246.613 47.1883 248.462C42.9217 250.312 39.4403 253.22 36.9232 256.747C35.3729 258.921 32.1397 258.923 30.5991 256.74C30.2165 256.196 29.8338 255.653 29.4512 255.109C28.7711 254.145 28.7627 252.857 29.4355 251.888C30.7437 250.011 32.2472 248.26 33.9392 246.664C36.695 244.056 39.9554 241.876 43.6409 240.279C47.3264 238.681 51.1466 237.792 54.9333 237.563C57.2496 237.422 59.5608 237.519 61.8252 237.848C62.9925 238.019 63.9263 238.905 64.1652 240.061L64.1675 240.066Z" fill="#2A3338"/>
<path d="M63.4395 240.17C63.6909 241.385 64.1884 242.709 63.7176 243.923C63.3656 244.836 62.5825 245.566 61.638 245.834C61.0804 245.993 60.5451 245.938 59.9788 245.87C59.2454 245.785 58.5052 245.729 57.7683 245.71C56.3783 245.673 54.9856 245.733 53.6096 245.921C47.9155 246.689 42.5546 249.435 38.5925 253.594C38.1187 254.093 37.6596 254.612 37.226 255.145C36.7924 255.678 36.4468 256.282 35.9691 256.757C35.2505 257.458 34.2277 257.768 33.2384 257.608C32.0124 257.405 31.3582 256.544 30.6805 255.586C30.2979 255.042 29.8074 254.5 29.6999 253.825C29.5759 253.067 29.9069 252.489 30.3333 251.895C33.8895 246.947 38.8052 243.071 44.4351 240.739C47.5659 239.439 50.8828 238.628 54.2627 238.345C56.0069 238.196 57.7563 238.192 59.5033 238.33C60.9783 238.444 62.9955 238.394 63.4371 240.165C63.6634 241.07 65.1187 240.874 64.8877 239.958C64.5385 238.563 63.5661 237.47 62.128 237.16C60.5265 236.812 58.7899 236.773 57.1591 236.77C53.7664 236.758 50.412 237.247 47.1627 238.214C40.592 240.174 34.687 244.127 30.3594 249.448C29.4301 250.593 28.2341 251.859 28.2121 253.415C28.1901 254.971 29.2533 256.23 30.145 257.358C31.666 259.274 34.4634 259.653 36.455 258.247C37.6105 257.432 38.3415 256.023 39.2835 254.982C40.385 253.763 41.624 252.67 42.9506 251.705C45.6551 249.746 48.7964 248.352 52.0668 247.67C53.8363 247.299 55.6558 247.117 57.4632 247.158C59.0241 247.191 60.6762 247.67 62.1973 247.183C63.4484 246.782 64.4778 245.824 65.0056 244.624C65.6861 243.083 65.2115 241.531 64.8847 239.966C64.696 239.044 63.2431 239.246 63.4341 240.173L63.4395 240.17Z" fill="#2A3338"/>
<path d="M82.5988 257.475L79.0532 259.012C73.0381 245.136 56.9086 238.758 43.0273 244.775C29.146 250.792 22.7726 266.92 28.79 280.801L25.2444 282.338C18.378 266.498 25.6529 248.101 41.4873 241.237C57.3216 234.373 75.7241 241.646 82.5881 257.48L82.5988 257.475Z" fill="#077BB3"/>
<path d="M82.3073 256.803L78.7616 258.34L79.7257 258.721C75.0281 247.987 63.9556 241.155 52.2443 241.828C40.5331 242.501 30.1954 250.766 26.9272 262.025C25.0992 268.32 25.5314 275.068 28.1174 281.092L28.4984 280.128L24.9528 281.665L25.9169 282.046C23.4055 276.194 22.7441 269.699 24.0827 263.469C25.4213 257.239 28.4962 251.918 32.9433 247.727C37.5952 243.346 43.5847 240.488 49.9237 239.644C56.2627 238.801 62.2811 239.931 67.7658 242.705C74.0838 245.897 79.0889 251.295 81.9209 257.769C82.2964 258.635 83.6469 258.05 83.266 257.186C80.6159 251.132 76.1554 245.958 70.4848 242.549C64.954 239.226 58.5078 237.61 52.0636 237.975C38.6802 238.728 26.8722 248.186 23.1872 261.064C21.1509 268.191 21.653 275.822 24.5741 282.635C24.7327 283.001 25.1723 283.174 25.5382 283.016L29.0838 281.479C29.4497 281.32 29.6235 280.88 29.4649 280.515C25.1178 270.383 27.4792 258.271 35.4948 250.635C43.6263 242.898 55.985 241.094 65.9968 246.143C71.5254 248.93 75.8978 253.65 78.3776 259.311C78.5362 259.677 78.9758 259.851 79.3417 259.692L82.8873 258.155C83.7535 257.78 83.1705 256.435 82.3042 256.81L82.3073 256.803Z" fill="#2A3338"/>
<path d="M24.0293 270.453L22.7488 271.008C20.636 271.924 19.6658 274.379 20.5816 276.491L31.1284 300.821C32.0442 302.934 34.4994 303.904 36.6121 302.989L37.8926 302.433C40.0053 301.518 40.9756 299.062 40.0597 296.95L29.513 272.62C28.5972 270.507 26.142 269.537 24.0293 270.453Z" fill="#FF9137"/>
<path d="M37.6011 301.761C37.0577 301.996 36.5114 302.284 35.9423 302.461C34.9326 302.771 33.8037 302.57 32.9495 301.956C32.2521 301.453 31.8989 300.756 31.57 299.997L29.0488 294.181C26.7282 288.828 24.4075 283.474 22.0892 278.126C21.3078 276.324 20.2542 274.409 21.7898 272.6C22.3316 271.962 23.0619 271.671 23.8043 271.349C24.5899 271.009 25.3449 270.745 26.2225 270.883C27.5324 271.088 28.4316 271.983 28.9454 273.154C30.9464 277.725 32.9127 282.305 34.8975 286.884L38.2514 294.621C38.8741 296.058 39.9702 297.819 39.5749 299.429C39.3175 300.486 38.5764 301.313 37.6034 301.766C36.7465 302.163 37.3296 303.508 38.1865 303.111C40.3315 302.118 41.5875 299.752 40.9873 297.423C40.8355 296.837 40.5737 296.292 40.3335 295.738L37.3178 288.781C35.0251 283.493 32.7325 278.204 30.4398 272.915C30.0806 272.086 29.687 271.311 29.0045 270.68C27.3743 269.175 25.2382 269.143 23.2905 269.987C22.4673 270.344 21.6556 270.683 21.0007 271.325C20.1878 272.118 19.654 273.187 19.537 274.317C19.4266 275.375 19.7155 276.336 20.126 277.283L26.9037 292.919C27.9393 295.308 28.9725 297.691 30.0081 300.08C30.1993 300.521 30.369 300.972 30.5926 301.399C31.6715 303.475 34.0875 304.537 36.3432 303.872C36.9784 303.686 37.5809 303.38 38.1888 303.117C39.0551 302.741 38.472 301.396 37.6058 301.772L37.6011 301.761Z" fill="#2A3338"/>
<path d="M30.7715 300L27.6939 301.334C24.3581 302.78 20.4863 301.25 19.0403 297.914L14.4386 287.298C12.9926 283.963 14.5227 280.091 17.8585 278.645L20.9361 277.311L30.7715 300Z" fill="#077BB3"/>
<path d="M30.48 299.326C28.2794 300.28 26.0396 301.616 23.5628 300.944C21.8338 300.48 20.4411 299.243 19.7159 297.614C19.489 297.105 19.2728 296.592 19.0512 296.081L16.0985 289.269C15.2542 287.321 14.2532 285.454 14.8046 283.247C15.2583 281.433 16.5468 280.012 18.2423 279.264C19.2376 278.833 20.233 278.401 21.2284 277.97L20.2643 277.589L30.0997 300.277C30.4752 301.144 31.8203 300.561 31.4448 299.694L21.6094 277.005C21.4508 276.64 21.0112 276.466 20.6453 276.624C18.1004 277.728 15.4475 278.596 14.0415 281.206C13.1123 282.926 12.9282 284.949 13.488 286.815C13.6989 287.523 14.0374 288.2 14.3313 288.878L17.4822 296.147C17.7738 296.82 18.0623 297.5 18.3592 298.17C19.075 299.777 20.2885 301.073 21.8688 301.858C23.7839 302.811 26.0369 302.818 27.9939 301.996C29.0209 301.563 30.0385 301.109 31.0607 300.666C31.927 300.291 31.3439 298.946 30.4776 299.321L30.48 299.326Z" fill="#2A3338"/>
<path d="M76.0464 247.904L74.7659 248.459C72.6531 249.375 71.6829 251.83 72.5987 253.943L83.1455 278.273C84.0613 280.385 86.5164 281.356 88.6292 280.44L89.9097 279.885C92.0224 278.969 92.9927 276.514 92.0768 274.401L81.5301 250.071C80.6142 247.958 78.1591 246.988 76.0464 247.904Z" fill="#FF9137"/>
<path d="M75.0574 249.131C75.6008 248.896 76.1471 248.608 76.7162 248.431C77.7259 248.121 78.8548 248.322 79.7089 248.936C80.4063 249.439 80.7596 250.136 81.0884 250.895L83.6097 256.711C85.9303 262.065 88.251 267.418 90.5693 272.766C91.3506 274.568 92.4043 276.483 90.8687 278.293C90.3269 278.93 89.5966 279.221 88.8541 279.543C88.0686 279.884 87.3136 280.147 86.436 280.01C85.1261 279.804 84.2269 278.909 83.7131 277.739C81.7121 273.167 79.7458 268.587 77.761 264.008L74.4071 256.271C73.7844 254.835 72.6883 253.073 73.0835 251.463C73.341 250.406 74.0821 249.58 75.0551 249.126C75.912 248.729 75.3289 247.384 74.472 247.781C72.327 248.774 71.071 251.141 71.6712 253.469C71.823 254.055 72.0848 254.6 72.325 255.154L75.3407 262.111C77.6334 267.4 79.926 272.688 82.2187 277.977C82.5779 278.806 82.9715 279.581 83.654 280.212C85.2842 281.717 87.4203 281.75 89.368 280.905C90.1912 280.548 91.0029 280.209 91.6578 279.568C92.4707 278.774 93.0045 277.705 93.1215 276.575C93.2319 275.517 92.943 274.556 92.5325 273.609C90.2725 268.395 88.0148 263.187 85.7547 257.973L82.6504 250.812C82.4592 250.371 82.2895 249.92 82.0659 249.493C80.987 247.417 78.571 246.355 76.3153 247.02C75.68 247.206 75.0776 247.512 74.4697 247.775C73.6034 248.151 74.1865 249.496 75.0527 249.12L75.0574 249.131Z" fill="#2A3338"/>
<path d="M81.8846 250.891L84.9622 249.557C88.298 248.11 92.1698 249.641 93.6158 252.976L98.2175 263.592C99.6635 266.928 98.1334 270.799 94.7976 272.245L91.72 273.58L81.8846 250.891Z" fill="#077BB3"/>
<path d="M82.1761 251.562C84.3767 250.608 86.6165 249.273 89.0933 249.944C90.8223 250.409 92.215 251.646 92.9402 253.275C93.1671 253.784 93.3833 254.297 93.6049 254.808L96.5576 261.62C97.4019 263.567 98.403 265.434 97.8515 267.642C97.3978 269.456 96.1094 270.877 94.4138 271.625C93.4185 272.056 92.4231 272.488 91.4277 272.919L92.3918 273.3L82.5564 250.611C82.1809 249.745 80.8358 250.328 81.2114 251.194L91.0467 273.883C91.2053 274.249 91.645 274.423 92.0108 274.264C94.5557 273.161 97.2086 272.292 98.6146 269.682C99.5438 267.963 99.7279 265.94 99.1681 264.074C98.9573 263.366 98.6187 262.688 98.3248 262.011L95.1739 254.742C94.8823 254.069 94.5938 253.389 94.2969 252.719C93.5811 251.112 92.3676 249.816 90.7874 249.031C88.8723 248.078 86.6192 248.07 84.6622 248.893C83.6353 249.326 82.6177 249.779 81.5954 250.223C80.7292 250.598 81.3122 251.943 82.1785 251.568L82.1761 251.562Z" fill="#2A3338"/>
<path d="M61.0824 238.848C61.2176 239.498 61.3527 240.149 61.4878 240.8C62.0277 243.417 59.8237 245.778 57.1696 245.42C52.8752 244.847 48.3699 245.394 44.1033 247.243C39.8366 249.093 36.3552 252.002 33.8381 255.528C32.2878 257.702 29.0546 257.704 27.514 255.521C27.1314 254.977 26.7487 254.434 26.3661 253.89C25.686 252.926 25.6776 251.639 26.3504 250.669C27.6586 248.792 29.1621 247.041 30.8541 245.445C33.6099 242.838 36.8703 240.657 40.5558 239.06C44.2413 237.462 48.0615 236.573 51.8482 236.344C54.1645 236.203 56.4757 236.3 58.7401 236.629C59.9074 236.8 60.8412 237.687 61.0801 238.842L61.0824 238.848Z" fill="#FF9137"/>
<path d="M60.3544 238.952C60.6058 240.166 61.1033 241.49 60.6325 242.704C60.2806 243.617 59.4974 244.347 58.553 244.616C57.9954 244.774 57.46 244.719 56.8937 244.651C56.1604 244.566 55.4201 244.51 54.6832 244.491C53.2932 244.454 51.9005 244.515 50.5245 244.702C44.8304 245.47 39.4695 248.216 35.5074 252.375C35.0336 252.874 34.5745 253.393 34.1409 253.926C33.7073 254.459 33.3618 255.063 32.884 255.538C32.1654 256.24 31.1426 256.549 30.1533 256.39C28.9274 256.186 28.2731 255.326 27.5954 254.367C27.2128 253.823 26.7223 253.282 26.6148 252.606C26.4908 251.848 26.8218 251.27 27.2482 250.676C30.8044 245.728 35.7202 241.852 41.35 239.52C44.4808 238.221 47.7977 237.409 51.1776 237.126C52.9218 236.977 54.6713 236.973 56.4182 237.111C57.8932 237.226 59.9104 237.176 60.352 238.946C60.5783 239.852 62.0336 239.655 61.8026 238.739C61.4534 237.344 60.481 236.251 59.0429 235.941C57.4414 235.594 55.7049 235.554 54.074 235.551C50.6813 235.539 47.3269 236.028 44.0776 236.996C37.5069 238.956 31.602 242.909 27.2743 248.23C26.345 249.374 25.1491 250.64 25.127 252.196C25.105 253.753 26.1682 255.011 27.0599 256.139C28.5809 258.056 31.3784 258.434 33.3699 257.028C34.5254 256.214 35.2564 254.804 36.1984 253.763C37.2999 252.544 38.5389 251.451 39.8655 250.486C42.5701 248.527 45.7113 247.134 48.9817 246.451C50.7512 246.08 52.5707 245.899 54.3781 245.94C55.939 245.972 57.5911 246.451 59.1122 245.965C60.3633 245.563 61.3927 244.605 61.9205 243.405C62.601 241.864 62.1264 240.312 61.7996 238.747C61.611 237.825 60.158 238.027 60.349 238.954L60.3544 238.952Z" fill="#2A3338"/>
<path d="M331.462 228.693C328.458 228.414 327.422 224.548 329.884 222.804L340.862 215.03C341.993 214.228 342.718 212.973 342.846 211.593L344.09 198.198C344.369 195.194 348.235 194.158 349.979 196.62L357.753 207.598C358.554 208.73 359.81 209.455 361.19 209.583L374.585 210.827C377.589 211.106 378.624 214.971 376.162 216.715L365.184 224.49C364.053 225.291 363.328 226.546 363.2 227.927L361.956 241.321C361.677 244.325 357.811 245.361 356.068 242.899L348.293 231.921C347.492 230.79 346.236 230.065 344.856 229.937L331.462 228.693Z" fill="#38352A" stroke="#38352A" stroke-width="1.5"/>
<path d="M329.513 226.337C326.509 226.058 325.473 222.192 327.935 220.449L338.913 212.674C340.044 211.873 340.769 210.618 340.897 209.237L342.141 195.843C342.42 192.839 346.286 191.803 348.03 194.265L355.804 205.243C356.606 206.374 357.861 207.099 359.241 207.227L372.636 208.471C375.64 208.75 376.676 212.616 374.214 214.36L363.236 222.134C362.104 222.935 361.38 224.191 361.251 225.571L360.007 238.966C359.728 241.97 355.863 243.005 354.119 240.543L346.344 229.565C345.543 228.434 344.288 227.709 342.907 227.581L329.513 226.337Z" fill="#FFD137" stroke="#38352A" stroke-width="1.5"/>
<path d="M199.163 21.6716C199.126 19.3321 202.241 18.4974 203.379 20.542L207.502 27.951C208.531 29.8012 210.888 30.4325 212.705 29.345L219.98 24.9902C221.987 23.7885 224.268 26.0688 223.066 28.0764L218.711 35.3517C217.624 37.1685 218.255 39.5248 220.105 40.5544L227.514 44.6776C229.559 45.8154 228.724 48.9303 226.385 48.8934L217.907 48.7597C215.79 48.7263 214.065 50.4512 214.098 52.5683L214.232 61.0463C214.269 63.3858 211.154 64.2205 210.016 62.1759L205.893 54.7669C204.863 52.9167 202.507 52.2854 200.69 53.3729L193.415 57.7277C191.407 58.9294 189.127 56.6491 190.329 54.6415L194.683 47.3662C195.771 45.5494 195.14 43.1931 193.289 42.1635L185.88 38.0403C183.836 36.9025 184.67 33.7876 187.01 33.8245L195.488 33.9582C197.605 33.9916 199.33 32.2667 199.297 30.1495L199.163 21.6716Z" fill="#2A3338" stroke="#2A3338" stroke-width="1.5"/>
<path d="M197.559 20.7458C197.522 18.4063 200.637 17.5716 201.775 19.6162L205.898 27.0252C206.928 28.8754 209.284 29.5067 211.101 28.4192L218.376 24.0645C220.384 22.8627 222.664 25.143 221.462 27.1506L217.107 34.4259C216.02 36.2427 216.651 38.599 218.502 39.6286L225.911 43.7518C227.955 44.8896 227.12 48.0045 224.781 47.9676L216.303 47.8339C214.186 47.8005 212.461 49.5254 212.494 51.6426L212.628 60.1205C212.665 62.46 209.55 63.2947 208.412 61.2502L204.289 53.8411C203.259 51.9909 200.903 51.3596 199.086 52.4471L191.811 56.8019C189.803 58.0036 187.523 55.7233 188.725 53.7157L193.08 46.4404C194.167 44.6236 193.536 42.2673 191.686 41.2377L184.277 37.1145C182.232 35.9767 183.067 32.8618 185.406 32.8987L193.884 33.0324C196.001 33.0658 197.726 31.3409 197.693 29.2238L197.559 20.7458Z" fill="#3D95BF" stroke="#2A3338" stroke-width="1.5"/>
</svg>
