<svg width="539" height="476" viewBox="0 0 539 476" fill="none" xmlns="http://www.w3.org/2000/svg">
<path fill-rule="evenodd" clip-rule="evenodd" d="M-203.968 761.591C-340.019 681.999 -426 564.817 -426 434.152C-426 194.376 -136.469 0 220.685 0C233.732 0 246.689 0.259393 259.545 0.770917C384.989 -0.222704 532.416 21.5854 670.619 66.2106C748.951 91.5036 815.738 121.356 868.516 153.133C996.556 102.662 1173.84 71.4189 1369.74 71.4189C1371.57 71.4189 1373.39 71.4216 1375.22 71.4271C1377.05 71.4216 1378.87 71.4189 1380.7 71.4189C1390.53 71.4189 1400.31 71.4975 1410.04 71.6533C1418.49 71.4974 1426.98 71.4189 1435.5 71.4189C1862.27 71.4189 2208.24 268.32 2208.24 511.209C2208.24 627.008 2129.6 732.354 2001.06 810.894C1956.45 844.954 1889.68 874.172 1806.92 896.958C1696.71 931.407 1570.13 950.999 1435.5 950.999C1421.01 950.999 1406.61 950.772 1392.32 950.324C1334.06 951.421 1273.88 950.306 1212.58 946.775C1065.09 938.278 929.965 916.876 816.875 886.648C721.328 900.243 616.135 907.769 505.665 907.769C194.998 907.769 -73.9358 848.255 -203.968 761.591Z" fill="#FE892A" fill-opacity="0.4"/>
</svg>
