<svg width="432" height="724" viewBox="0 0 432 724" fill="none" xmlns="http://www.w3.org/2000/svg">
<g clip-path="url(#clip0_1786_1076)">
<path d="M286.521 188.78C287.631 184.41 291.921 182.33 295.371 180.67C297.071 179.85 304.701 176.13 307.471 179.05C309.861 181.56 307.411 187.21 305.971 190.53C304.121 194.8 300.601 202.85 295.131 202.57C289.971 202.3 285.011 194.7 286.521 188.79V188.78Z" fill="#F18300"/>
<path d="M287.521 186.32C288.221 187.32 288.921 188.32 289.621 189.32C290.891 188.23 293.572 186.23 297.542 185.35C302.232 184.31 306.041 185.43 307.621 185.99C307.841 185.55 309.491 182.059 307.741 179.039C307.271 178.219 306.661 177.639 306.111 177.229C303.781 177.579 299.611 178.439 295.361 180.679C292.331 182.279 289.921 184.229 289.051 184.969C288.411 185.509 287.891 185.989 287.521 186.329V186.32Z" fill="#FFD037"/>
<path d="M287.521 186.319C288.911 185.009 291.132 183.109 294.202 181.369C296.582 180.019 304.181 175.719 307.061 178.269C308.751 179.769 308.111 183.019 307.491 186.139C306.311 192.119 302.882 196.199 301.042 198.329C299.402 200.229 297.832 201.619 296.702 202.539C295.562 199.799 294.111 196.759 292.271 193.569C290.691 190.839 289.071 188.429 287.521 186.329V186.319Z" stroke="#0C0D0D" stroke-width="2" stroke-miterlimit="10"/>
<path d="M211.33 110.01C213.85 108.57 235.27 96.82 257.23 108.36C271.66 115.94 280.32 130.42 281.69 144.91C281.92 147.38 282.67 157.58 277.29 168.82C269.73 184.62 253.26 195.78 235.24 197.13C230.42 197.49 207.92 198.46 194.51 181.11C183.15 166.42 186.34 148.99 187.14 144.63C187.72 141.48 191.8 121.16 211.33 110V110.01Z" fill="#FFD037"/>
<path d="M275.08 172.89C280.65 177.22 287.14 183.72 291.85 193.01C294.85 198.94 298.01 204.93 297.23 212.76C296.36 221.51 291.16 227.33 287.84 231.04C274.73 245.71 256.4 247.81 253.63 248.08C249.55 248.49 225.67 250.86 212.14 234.24C205.1 225.59 204.09 215.76 203.89 213.35C203.07 203.06 206.63 195.33 208.25 192.26C211.87 193.98 226.78 200.58 245.12 195.35C263.74 190.04 272.97 176.22 275.07 172.89H275.08Z" fill="#FFD037"/>
<path d="M296.25 222.97C297.95 226.78 300.34 233.46 300.24 241.95C300.21 244.65 299.76 261.59 286.63 273.81C267.31 291.79 239.47 281.95 238.26 281.51C234.62 280.18 215.97 272.73 210.23 254.03C209 250.01 206.09 240.53 210.53 232.13C217.6 218.75 238.2 217.8 253.82 217.08C263.14 216.65 278.14 217.1 296.25 222.97Z" fill="#FFD037"/>
<path d="M230.81 270.32C245.86 280.79 262.45 278.18 268.83 277.18C279.66 275.48 287.72 271.15 292.33 268.2C288.91 287.01 276.32 302.56 259.14 308.54C237.99 315.9 213.87 307.36 203.89 292.49C202.32 290.15 197.1 282.36 197.29 271.9C197.38 266.88 198.69 262.95 200.72 256.85C202.69 250.94 204.3 248.45 206 246.55C208.15 244.14 210.45 242.67 212.07 241.8C213.05 246.08 216.97 260.69 230.81 270.31V270.32Z" fill="#FFD037"/>
<path d="M225.221 307.03C222.841 308.21 219.291 309.73 214.791 310.75C209.751 311.89 195.421 315.15 182.911 306.43C173.301 299.74 170.321 289.85 169.651 287.36C168.601 283.46 166.331 275.07 170.841 266.51C175.671 257.34 184.811 254.5 187.231 253.85C194.091 252 199.881 253.37 202.421 254.15C210.021 271.78 217.611 289.4 225.211 307.03H225.221Z" fill="#FFD037"/>
<path d="M178.931 303.34C176.971 304.2 168.971 307.46 159.841 304.23C147.921 300.02 144.251 288.34 143.681 286.41C143.301 285.12 138.651 268.32 150.551 258.92C158.131 252.93 169.231 252.48 178.171 257.9C176.121 259.8 169.791 266.15 168.501 276.36C166.541 291.76 177.791 302.31 178.941 303.34H178.931Z" fill="#FFD037"/>
<path d="M153.731 257.4C152.351 256.18 148.981 253.54 143.931 252.74C142.731 252.55 135.471 251.54 129.131 256.62C122.501 261.94 122.131 269.73 122.101 271.17C121.841 280.95 129.151 286.9 130.451 287.92C137.051 293.08 144.441 292.64 146.241 292.48C145.451 291.35 139.321 282.28 142.701 271.22C145.341 262.58 152.061 258.38 153.731 257.4Z" fill="#FFD037"/>
<path d="M141.711 251.93C141.811 250.88 141.891 248.37 140.451 245.79C138.061 241.47 133.471 240.6 132.841 240.49C128.581 239.75 125.301 241.86 124.191 242.58C117.251 247.06 117.141 256.08 117.141 256.75C117.161 263.57 121.201 268.14 122.311 269.31C122.491 267.83 123.451 261.44 129.131 256.62C134.311 252.22 140.091 251.95 141.711 251.93Z" fill="#FFD037"/>
<path d="M123.351 123.24C132.951 141.15 138.361 161.16 139.021 181.47C139.171 186.06 139.081 190.66 138.761 195.24C138.651 196.85 141.151 196.84 141.261 195.24C142.651 175.03 139.491 154.55 131.931 135.74C130.041 131.03 127.891 126.44 125.501 121.97C124.741 120.55 122.581 121.81 123.341 123.23L123.351 123.24Z" fill="#0C0D0D"/>
<path d="M140.021 195.24C140.111 195.2 140.211 195.22 140.291 195.28C143.971 201.62 147.641 207.96 151.321 214.3C149.241 214.06 147.151 213.82 145.071 213.57C143.341 207.51 141.621 201.45 139.891 195.4C139.891 195.38 139.921 195.28 140.021 195.24Z" fill="#FC857F" stroke="#0C0D0D" stroke-width="2" stroke-miterlimit="10"/>
<path d="M140.051 194.939C140.141 194.939 140.241 195.039 140.221 195.159C140.431 202.509 140.641 209.859 140.851 217.209C138.671 215.949 136.491 214.689 134.311 213.429C136.171 207.319 138.031 201.209 139.891 195.109C139.901 195.009 139.981 194.949 140.061 194.949L140.051 194.939Z" fill="#FC857F" stroke="#0C0D0D" stroke-width="2" stroke-miterlimit="10"/>
<path d="M140.092 195.16C140.142 195.23 140.112 195.32 140.112 195.34C136.822 201.71 133.532 208.08 130.242 214.45C129.032 212.07 127.822 209.7 126.602 207.32C130.992 203.26 135.372 199.2 139.762 195.14C139.892 195.06 140.032 195.08 140.092 195.16Z" fill="#FC857F" stroke="#0C0D0D" stroke-width="2" stroke-miterlimit="10"/>
<path d="M241.62 83.1992C235.89 81.1892 228.29 79.1592 219.22 78.4092C205.81 77.2992 194.72 79.4392 187.44 81.4692C183.86 84.0592 176.27 90.2792 171.55 101.189C167.64 110.219 167.49 118.309 167.72 122.629" fill="#1C1C1C"/>
<path d="M241.62 83.1992C235.89 81.1892 228.29 79.1592 219.22 78.4092C205.81 77.2992 194.72 79.4392 187.44 81.4692C183.86 84.0592 176.27 90.2792 171.55 101.189C167.64 110.219 167.49 118.309 167.72 122.629" stroke="#070001" stroke-width="2" stroke-miterlimit="10"/>
<path d="M241.62 83.1996C251.37 78.9096 261.12 74.6196 270.86 70.3296C237.88 63.9996 204.91 57.6696 171.93 51.3496C156.39 74.8996 140.85 98.4596 125.32 122.01C129.91 123.71 136.83 125.67 145.43 125.94C155.07 126.24 162.83 124.28 167.72 122.63C167.51 118.09 167.66 107.88 173.6 97.0996C178.07 88.9896 183.9 84.0396 187.43 81.4796C195.08 79.3496 206.81 77.1396 220.93 78.5796C229.15 79.4196 236.14 81.2796 241.61 83.2096L241.62 83.1996Z" fill="#222628"/>
<path d="M169.151 108.42C165.721 111.36 159.861 115.62 151.571 118.35C140.481 122 130.891 120.96 126.081 120.1C125.531 120.93 124.981 121.77 124.441 122.6C130.661 124.53 140.191 126.61 151.741 125.72C158.021 125.23 163.421 123.98 167.741 122.63C167.611 120.69 167.591 118.44 167.821 115.93C168.081 113.03 168.601 110.5 169.161 108.41L169.151 108.42Z" fill="#0C0D0D"/>
<path d="M187.931 80.2499C179.371 72.7499 173.971 62.2399 172.861 50.9199C172.701 49.3299 170.201 49.3199 170.361 50.9199C171.541 62.8999 177.091 74.0599 186.171 82.0199C187.381 83.0799 189.151 81.3199 187.941 80.2499H187.931Z" fill="#6D6E71"/>
<path d="M167.73 122.63C169.72 124.67 173.63 128.14 179.6 130.29C184.39 132.01 188.61 132.2 191.26 132.11C193.13 128.14 199.03 116.95 212.29 109.6C224.49 102.84 236.03 103.14 240.51 103.49C241.25 101.62 241.97 99.3096 242.39 96.5896C243.27 90.9296 242.43 86.1796 241.62 83.1896C235.46 80.9696 226.58 78.5296 215.68 77.9796C203.62 77.3696 193.7 79.2896 187.05 81.1296C183.6 83.6896 176.89 89.3696 172.27 99.0896C167.48 109.18 167.46 118.33 167.73 122.63Z" fill="#222628"/>
<path d="M242.51 87.7701C228.7 80.7001 212.06 81.8801 199.44 90.8101C186.61 99.8901 179.98 115.54 182.36 131.14C180.39 130.63 177.9 129.78 175.22 128.32C171.82 126.47 169.36 124.31 167.73 122.63C167.53 117.91 167.73 106.91 174.44 95.6601C178.69 88.5401 183.93 84.0201 187.45 81.4701C194.73 79.4301 205.81 77.3001 219.23 78.4101C228.3 79.1601 235.89 81.1801 241.63 83.2001C241.93 84.7201 242.22 86.2501 242.52 87.7701H242.51Z" fill="#0C0D0D"/>
<path d="M242.25 82.1196C237.12 79.7096 231.83 78.3696 226.22 77.6196C217.73 76.4896 209.08 76.3095 200.57 77.3095C196.94 77.7395 193.34 78.3495 189.78 79.1695C188.48 79.4695 186.97 79.6295 185.89 80.4495C184.97 81.1495 184.07 81.8695 183.2 82.6295C177.69 87.4395 173.27 93.4996 170.39 100.23C167.51 106.96 166.02 114.98 166.47 122.63C166.57 124.23 169.07 124.24 168.97 122.63C168.15 108.96 173.4 95.4095 183.3 85.9195C184.2 85.0495 185.14 84.2195 186.11 83.4295C187.08 82.6395 187.68 82.2495 188.86 81.9595C192.1 81.1595 195.38 80.5196 198.68 80.0496C206.88 78.8896 215.19 78.9295 223.41 79.7795C229.51 80.4095 235.41 81.6595 240.98 84.2695C242.43 84.9495 243.7 82.7895 242.24 82.1095L242.25 82.1196Z" fill="#6D6E71"/>
<path d="M241.95 84.3997C252.62 79.9797 263.29 75.5497 273.97 71.1297C274.97 70.7197 275.33 68.9697 273.97 68.7197C247.48 63.7897 220.99 58.8497 194.51 53.9197C186.99 52.5197 179.47 51.1197 171.95 49.7197C171.37 49.6097 170.86 49.7997 170.54 50.2897C158.29 68.9097 146.04 87.5197 133.78 106.14C130.31 111.42 126.83 116.7 123.36 121.98C122.9 122.68 123.38 123.59 124.11 123.82C138.36 128.28 153.81 128.29 168.07 123.85L166.85 123.53C173.23 130.05 182.14 133.65 191.26 133.37C191.68 133.36 192.15 133.15 192.34 132.75C199.56 117.76 214.08 107.14 230.63 105.04C233.9 104.62 237.21 104.53 240.5 104.76C241.09 104.8 241.51 104.34 241.71 103.84C244.29 97.1597 244.67 89.7997 242.82 82.8797C242.41 81.3297 239.99 81.9897 240.41 83.5397C242.15 90.0597 241.73 96.8797 239.3 103.17L240.51 102.25C222.9 101.04 205.61 109.11 195.13 123.28C193.23 125.85 191.57 128.6 190.18 131.48L191.26 130.86C182.77 131.12 174.56 127.82 168.61 121.75C168.31 121.44 167.81 121.3 167.39 121.43C153.53 125.75 138.61 125.74 124.76 121.4L125.51 123.24C137.76 104.62 150.01 86.0097 162.27 67.3897C165.74 62.1097 169.22 56.8297 172.69 51.5497L171.28 52.1197C197.77 57.0497 224.26 61.9897 250.74 66.9197C258.26 68.3197 265.78 69.7197 273.3 71.1197V68.7097C262.63 73.1297 251.96 77.5597 241.28 81.9797C239.81 82.5897 240.46 85.0097 241.94 84.3897L241.95 84.3997Z" fill="#0C0D0D"/>
<path d="M264.089 134.24C261.879 131.59 258.179 130.7 255.059 132.05C251.819 133.46 249.929 136.97 250.549 140.5C250.839 139.8 252.429 136.17 256.559 134.49C260.089 133.06 263.219 133.96 264.079 134.23L264.089 134.24Z" fill="#0C0D0D"/>
<path d="M264.53 133.8C262.07 130.91 257.91 129.99 254.48 131.64C251.05 133.29 249.36 137.04 249.95 140.67C250.06 141.36 250.95 141.16 251.16 140.67C251.14 140.72 251.2 140.58 251.25 140.47C251.33 140.3 251.41 140.14 251.49 139.98C251.71 139.56 251.96 139.15 252.23 138.77C253.02 137.63 254.04 136.64 255.21 135.9C257.8 134.27 261.02 133.92 263.92 134.85C264.69 135.1 265.02 133.89 264.25 133.64C261.05 132.61 257.43 133.02 254.58 134.81C252.51 136.12 250.89 138.08 249.95 140.34H251.16C250.66 137.23 252.27 134.08 255.11 132.72C257.95 131.36 261.56 132.25 263.64 134.69C264.16 135.3 265.04 134.42 264.52 133.81L264.53 133.8Z" fill="#0C0D0D"/>
<path d="M217.011 154.21C214.801 151.56 211.101 150.67 207.981 152.02C204.741 153.43 202.851 156.94 203.471 160.47C203.761 159.77 205.351 156.14 209.481 154.46C213.011 153.03 216.141 153.93 217.001 154.2L217.011 154.21Z" fill="#0C0D0D"/>
<path d="M217.452 153.77C214.992 150.88 210.832 149.96 207.402 151.61C203.972 153.26 202.282 157.01 202.872 160.64C202.982 161.33 203.872 161.13 204.082 160.64C204.062 160.69 204.122 160.55 204.172 160.44C204.252 160.27 204.332 160.109 204.412 159.95C204.632 159.53 204.882 159.12 205.152 158.74C205.942 157.6 206.962 156.609 208.132 155.869C210.722 154.239 213.942 153.89 216.842 154.82C217.612 155.07 217.942 153.86 217.172 153.61C213.972 152.58 210.352 152.99 207.502 154.78C205.432 156.09 203.812 158.05 202.872 160.31H204.082C203.582 157.2 205.192 154.05 208.032 152.69C210.872 151.33 214.482 152.22 216.562 154.66C217.082 155.27 217.962 154.39 217.442 153.78L217.452 153.77Z" fill="#0C0D0D"/>
<path d="M248.23 172.35C247.24 174.05 245.78 175.45 243.88 176.36C242.74 176.91 241.46 177.2 240.2 177.25C239.7 177.27 239.21 177.26 238.71 177.22C238.61 177.22 238.09 177.14 238.4 177.19C238.25 177.17 238.09 177.14 237.94 177.11C237.28 176.99 236.59 177.29 236.4 177.98C236.23 178.59 236.61 179.39 237.27 179.52C242.43 180.49 247.72 178.18 250.38 173.61C251.19 172.22 249.03 170.96 248.22 172.35H248.23Z" fill="#0C0D0D"/>
<path d="M220.87 232.58C220.76 233.42 220.44 234.94 219.4 236.5C218.62 237.67 217.73 238.42 217.1 238.87C215.66 237.91 213.82 236.43 212.15 234.24C211.43 233.29 210.85 232.36 210.4 231.51C212.11 231.82 213.98 232.09 215.97 232.29C217.69 232.46 219.33 232.55 220.86 232.59L220.87 232.58Z" fill="#F18300"/>
<path d="M210.531 232.13C212.541 234.79 215.951 238.59 221.141 241.66C227.911 245.66 234.201 246.33 241.051 246.99C247.081 247.57 253.731 248.18 262.111 246.09C266.221 245.07 280.441 240.97 290.291 227.7C292.591 224.6 294.091 221.76 295.021 219.79L296.261 222.97C295.521 226.09 294.001 231.05 290.571 236.15C273.581 261.46 228.931 261.84 216.061 249.55C214.021 247.6 207.961 241.81 209.121 235.57C209.401 234.03 210.051 232.86 210.531 232.14V232.13Z" fill="#F18300"/>
<path d="M292.331 268.2C289.401 273.12 280.351 286.79 263.291 291.96C239.211 299.26 213.631 285.24 206.001 270.31C204.411 267.19 200.911 260.35 203.101 252.62C204.261 248.53 206.581 245.67 208.211 244C208.451 247.33 209.181 252.24 211.551 257.62C218.671 273.73 234.251 279.78 237.551 281.07C238.961 281.62 260.821 289.7 280.981 277.7C286.301 274.54 290.001 270.87 292.331 268.2Z" fill="#F18300"/>
<path d="M221.521 307.399C218.781 307.439 214.721 307.169 210.181 305.549C197.011 300.829 191.631 288.929 190.961 287.379C185.411 274.499 187.791 256.729 195.581 253.709C197.961 252.789 200.491 253.379 202.431 254.159C201.511 255.739 200.391 257.949 199.451 260.709C197.481 266.509 197.451 271.399 197.511 273.369C197.741 280.999 200.431 286.509 201.531 288.709C207.371 300.349 217.741 305.679 221.511 307.399H221.521Z" fill="#F18300"/>
<path d="M178.931 303.34C177.691 302.27 167.271 292.92 168.241 278.27C169.011 266.61 176.471 259.46 178.171 257.91C176.351 256.81 173.971 255.85 171.421 256.26C164.251 257.41 160.171 268.69 159.961 276.88C159.671 288.91 167.591 301.8 176.761 303.23C177.621 303.36 178.361 303.38 178.921 303.36L178.931 303.34Z" fill="#F18300"/>
<path d="M275.081 172.89L276.601 174.21C275.471 178.21 273.171 184.37 268.281 190.45C256.541 205.03 239.361 207.31 235.141 207.88C232.941 208.17 224.131 209.2 213.301 206.5C209.611 205.58 206.581 204.45 204.391 203.51C204.471 202 204.741 199.92 205.551 197.57C206.351 195.26 207.401 193.49 208.251 192.26C211.871 193.98 226.781 200.58 245.121 195.35C263.741 190.04 272.971 176.22 275.071 172.89H275.081Z" fill="#F18300"/>
<path d="M243.581 103.86C238.481 104.06 230.021 105.03 220.741 109.4C218.001 110.69 205.131 117.01 195.671 131.82C188.981 142.29 186.941 152.41 186.231 158.37C185.961 154.56 185.131 136.94 197.951 121.58C200.191 118.9 210.291 107.36 227.541 104.17C234.151 102.94 239.791 103.32 243.591 103.86H243.581Z" fill="#F18300"/>
<path d="M153.731 257.4C152.531 255.73 150.971 254.29 149.071 254.12C143.851 253.65 138.211 262.91 137.231 270.62C135.751 282.21 144.721 291.04 146.241 292.49C144.721 289.94 141.551 283.8 142.191 275.79C142.411 272.99 142.911 267.61 146.951 262.73C149.321 259.86 152.011 258.26 153.731 257.41V257.4Z" fill="#F18300"/>
<path d="M141.782 252.279C141.512 250.549 140.892 248.799 139.482 247.949C135.672 245.659 127.412 250.639 123.912 257.229C121.252 262.249 121.832 267.339 122.272 269.699C122.442 268.499 123.952 258.809 132.412 254.339C136.122 252.379 139.712 252.199 141.782 252.279Z" fill="#F18300"/>
<path d="M295.011 219.79C296.311 222.68 297.931 226.95 298.941 232.31C299.931 237.62 302.001 248.72 296.651 260.45C295.901 262.09 292.241 269.81 283.781 276.1C270.761 285.78 256.191 284.77 251.511 284.38C248.281 284.11 230.351 282.32 218.601 268.48C213.121 262.03 210.121 254.3 209.111 249.87C208.411 246.83 208.211 244.01 208.211 244.01C208.211 242.4 208.021 239.77 208.891 236.53C209.481 234.35 210.301 232.65 210.931 231.52" stroke="#0C0D0D" stroke-width="2" stroke-miterlimit="10"/>
<path d="M292.601 267.16C291.661 272.47 288.551 285.79 277.091 296.72C264.321 308.89 243.801 315.56 225.081 308.69C221.261 307.29 205.381 301.46 199.391 284.84C194.531 271.37 197.961 255.75 208.201 244.01" stroke="#0C0D0D" stroke-width="2" stroke-miterlimit="10"/>
<path d="M222.519 307.54C217.189 310.07 212.459 311.08 209.269 311.53C206.189 311.96 199.569 312.82 191.709 310.46C187.389 309.16 184.429 307.42 183.669 306.96C183.669 306.96 177.829 303.43 173.979 298.1C167.709 289.39 164.669 270.84 175.919 260.11C185.549 250.93 199.489 253.37 201.209 253.7" stroke="#0C0D0D" stroke-width="2" stroke-miterlimit="10"/>
<path d="M178.929 303.34C176.599 304.29 169.899 306.66 161.869 304.49C149.629 301.18 144.839 290.13 144.309 288.83C140.649 279.99 141.269 267.73 149.149 260.32C155.349 254.48 163.319 254.23 165.059 254.21C171.489 254.16 176.199 256.69 178.169 257.9" stroke="#0C0D0D" stroke-width="2" stroke-miterlimit="10"/>
<path d="M146.241 292.48C145.001 292.62 135.341 293.56 128.221 286.3C122.781 280.75 120.561 272.19 123.271 264.79C125.791 257.91 131.581 254.77 132.411 254.34C137.231 251.82 141.701 252.16 142.731 252.26C148.741 252.84 152.581 256.27 153.731 257.38" stroke="#0C0D0D" stroke-width="2" stroke-miterlimit="10"/>
<path d="M141.29 251.929C141.33 251.389 141.65 245.549 137.31 242.229C132.01 238.169 125.07 241.929 124.54 242.229C117.15 246.389 117.38 256.309 117.42 257.379C117.66 263.589 121.03 267.859 122.31 269.319" stroke="#0C0D0D" stroke-width="2" stroke-miterlimit="10"/>
<path d="M275.081 172.89C271.221 179.21 265.851 183.85 264.281 185.16C257.551 190.79 251.131 193.34 248.781 194.21C238.231 198.08 228.861 197.54 223.791 196.83C218.821 196.14 210.801 194.92 202.751 189C191.691 180.86 188.241 169.47 187.301 165.77C185.481 158.62 186.061 152.66 186.431 149.17C187.291 141 189.841 135.05 190.841 132.88C197.181 119.11 208.121 112.21 210.731 110.64C214.581 108.32 227.171 101.01 243.581 103.85C266.731 107.84 276.901 128.44 277.381 129.44C285.061 145.67 281.351 162.63 275.091 172.88L275.081 172.89Z" stroke="#0C0D0D" stroke-width="2" stroke-miterlimit="10"/>
<path d="M275.081 172.89C281.251 178.24 285.491 183.46 288.261 187.34C292.111 192.73 293.821 195.89 294.821 198.45C295.071 199.08 296.611 203.04 297.101 206.71C298.611 218.11 290.151 228.27 287.841 231.04C279.071 241.56 267.761 244.83 262.651 246.23C259.961 246.97 249.361 249.65 236.221 246.85C231.161 245.77 224.541 244.28 217.821 239.07C210.241 233.19 207.131 226.13 206.551 224.77C206.081 223.67 204.081 218.8 203.811 212C203.461 203.08 206.311 196.07 208.251 192.26" stroke="#0C0D0D" stroke-width="2" stroke-miterlimit="10"/>
<path d="M222.99 210.609C217.94 209.639 213.42 213.169 209.01 216.599C205.24 219.539 200.72 223.059 201.4 226.329C202.57 231.979 218.35 232.489 220.87 232.569C227.19 232.769 231.55 232.909 233.47 230.199C237 225.229 231.3 212.209 222.99 210.609Z" fill="#FFD037"/>
<path d="M234.521 226.709C233.231 228.019 232.051 228.479 231.381 228.669C223.801 230.839 216.531 217.519 206.711 219.229C206.091 219.339 205.611 219.479 205.401 219.549C204.791 219.999 203.911 220.739 203.101 221.859C202.351 222.899 201.101 224.629 201.401 226.349C201.761 228.369 204.101 229.439 206.071 230.339C208.371 231.389 210.361 231.639 214.241 232.099C215.181 232.209 217.541 232.349 222.281 232.629C222.281 232.629 224.071 232.739 227.691 232.589C228.931 232.539 229.901 232.469 231.051 231.979C231.671 231.709 232.681 231.269 233.471 230.219C234.521 228.839 234.551 227.309 234.521 226.719V226.709Z" fill="#F18300"/>
<path d="M224.551 211.06C223.591 210.65 222.151 210.19 220.401 210.24C218.291 210.3 216.941 211.08 211.861 214.44C206.011 218.32 204.941 219.18 203.721 220.74C202.381 222.46 200.931 224.34 201.401 226.34C201.911 228.52 204.421 229.6 206.771 230.57C208.401 231.25 209.951 231.67 217.371 232.44C219.061 232.61 223.331 233.04 228.511 232.54C229.891 232.41 231.331 232.21 232.531 231.14C234.251 229.61 234.401 227.26 234.481 226.05C234.841 220.44 231.001 216.2 230.111 215.22C229.101 214.11 227.321 212.42 224.551 211.07V211.06Z" stroke="#0C0D0D" stroke-width="2" stroke-miterlimit="10"/>
<path d="M225.57 143.88L225.72 143.45C225.95 142.79 226.69 141.16 228.53 140.19C229.39 139.73 230.32 139.5 231.31 139.5C231.86 139.5 232.41 139.57 232.91 139.71L233.35 139.83L235.83 145.16L233.95 144.84C233.7 144.8 233.44 144.77 233.18 144.77C232.5 144.77 231.85 144.91 231.25 145.19C230.06 145.74 229.43 146.66 229.16 147.15L228.29 148.74L225.57 143.86V143.88Z" fill="#077BB3"/>
<path d="M231.311 140.5C231.981 140.5 232.471 140.63 232.641 140.68C233.131 141.74 233.631 142.8 234.121 143.86C233.931 143.83 233.601 143.78 233.181 143.78C232.551 143.78 231.711 143.88 230.831 144.29C229.261 145.02 228.511 146.26 228.281 146.68C227.741 145.71 227.201 144.75 226.671 143.78C226.791 143.43 227.371 141.94 229.011 141.07C229.851 140.62 230.671 140.5 231.321 140.5M231.311 138.5C230.161 138.5 229.061 138.77 228.061 139.3C225.911 140.44 225.051 142.35 224.771 143.11L224.471 143.96L224.911 144.75L225.721 146.2L226.531 147.65L228.291 150.81L230.031 147.63C230.241 147.24 230.741 146.52 231.671 146.09C232.141 145.87 232.651 145.76 233.181 145.76C233.391 145.76 233.591 145.78 233.791 145.81L237.551 146.46L235.941 143L235.541 142.14L234.461 139.82L234.071 138.99L233.181 138.74C232.601 138.58 231.951 138.49 231.311 138.49V138.5Z" fill="#0C0D0D"/>
<path d="M203.361 186.56C187.691 186.56 174.941 173.81 174.941 158.14C174.941 142.47 187.691 129.72 203.361 129.72C219.031 129.72 231.781 142.47 231.781 158.14C231.781 173.81 219.031 186.56 203.361 186.56ZM203.361 134.94C190.571 134.94 180.161 145.35 180.161 158.14C180.161 170.93 190.571 181.34 203.361 181.34C216.151 181.34 226.551 170.93 226.551 158.14C226.551 145.35 216.151 134.94 203.361 134.94Z" fill="#077BB3"/>
<path d="M203.361 130.72C218.501 130.72 230.781 143 230.781 158.14C230.781 173.28 218.501 185.56 203.361 185.56C188.221 185.56 175.941 173.28 175.941 158.14C175.941 143 188.221 130.72 203.361 130.72ZM203.361 182.34C216.721 182.34 227.551 171.5 227.551 158.14C227.551 144.78 216.721 133.94 203.361 133.94C190.001 133.94 179.161 144.78 179.161 158.14C179.161 171.5 190.001 182.34 203.361 182.34ZM203.361 128.72C187.141 128.72 173.941 141.92 173.941 158.14C173.941 174.36 187.141 187.56 203.361 187.56C219.581 187.56 232.781 174.36 232.781 158.14C232.781 141.92 219.581 128.72 203.361 128.72ZM203.361 180.34C191.121 180.34 181.161 170.38 181.161 158.14C181.161 145.9 191.121 135.94 203.361 135.94C215.601 135.94 225.551 145.9 225.551 158.14C225.551 170.38 215.601 180.34 203.361 180.34Z" fill="#0C0D0D"/>
<path d="M258.201 158.88C242.531 158.88 229.781 146.13 229.781 130.46C229.781 114.79 242.531 102.04 258.201 102.04C273.871 102.04 286.621 114.79 286.621 130.46C286.621 146.13 273.871 158.88 258.201 158.88ZM258.201 107.26C245.411 107.26 235.001 117.67 235.001 130.46C235.001 143.25 245.411 153.66 258.201 153.66C270.991 153.66 281.391 143.25 281.391 130.46C281.391 117.67 270.991 107.26 258.201 107.26Z" fill="#077BB3"/>
<path d="M258.201 103.04C273.341 103.04 285.621 115.32 285.621 130.46C285.621 145.6 273.341 157.88 258.201 157.88C243.061 157.88 230.781 145.6 230.781 130.46C230.781 115.32 243.061 103.04 258.201 103.04ZM258.201 154.66C271.561 154.66 282.391 143.82 282.391 130.46C282.391 117.1 271.561 106.26 258.201 106.26C244.841 106.26 234.001 117.1 234.001 130.46C234.001 143.82 244.841 154.66 258.201 154.66ZM258.201 101.04C241.981 101.04 228.781 114.24 228.781 130.46C228.781 146.68 241.981 159.88 258.201 159.88C274.421 159.88 287.621 146.68 287.621 130.46C287.621 114.24 274.421 101.04 258.201 101.04ZM258.201 152.66C245.961 152.66 236.001 142.7 236.001 130.46C236.001 118.22 245.961 108.26 258.201 108.26C270.441 108.26 280.391 118.22 280.391 130.46C280.391 142.7 270.441 152.66 258.201 152.66Z" fill="#0C0D0D"/>
<path d="M282.602 143.24C281.472 145.44 278.382 150.73 271.962 154.45C264.942 158.52 258.202 158.25 255.712 158.03C253.322 157.81 245.622 156.8 239.072 150.43C233.962 145.46 232.202 139.81 231.592 137.33C232.612 140.03 235.372 146.17 241.882 150.92C243.932 152.42 250.192 156.85 258.902 156.55C263.892 156.38 267.542 154.73 269.782 153.69C276.532 150.55 280.612 145.88 282.602 143.24Z" fill="#0A5877"/>
<path d="M225.261 174.63C223.811 176.58 220.681 180.25 215.391 182.83C213.641 183.68 209.251 185.59 203.361 185.56C193.131 185.52 186.341 179.69 185.191 178.67C179.841 173.94 177.801 168.37 177.061 165.9C178.121 168.46 180.831 174.01 186.831 178.47C188.591 179.77 193.131 182.84 199.291 183.83C213.111 186.05 223.851 176 225.271 174.63H225.261Z" fill="#0A5877"/>
<path d="M366.291 127.25C366.251 127.42 365.411 131.25 368.021 133.64C369.291 134.81 370.771 135.07 371.441 135.15C383.221 136.26 395.001 137.37 406.781 138.48C408.361 120.33 409.931 102.18 411.511 84.0296C411.641 83.5396 412.051 81.7696 411.141 79.8696C409.971 77.4396 407.581 76.7696 407.211 76.6696C395.231 75.6496 383.241 74.6196 371.261 73.5996C369.601 91.4796 367.941 109.36 366.291 127.24V127.25Z" fill="#0A5877" stroke="#0C0D0D" stroke-width="2" stroke-miterlimit="10"/>
<path d="M387.821 124.219C388.081 122.729 387.291 121.559 387.011 121.159C385.501 118.939 382.661 118.799 382.261 118.789C377.221 118.339 372.181 117.889 367.151 117.439C366.871 120.709 366.581 123.979 366.301 127.249C366.761 126.989 367.461 126.669 368.361 126.489C369.491 126.269 370.381 126.399 370.751 126.449C372.461 126.679 376.201 127.079 381.211 127.629C381.631 127.719 384.461 128.289 386.451 126.509C386.771 126.219 387.621 125.469 387.841 124.219H387.821Z" fill="#053544" stroke="#0C0D0D" stroke-width="2" stroke-miterlimit="10"/>
<path d="M315.511 47.9094C338.771 50.2394 362.021 52.5794 385.281 54.9094C386.341 55.2394 388.921 56.1894 390.981 58.7494C393.141 61.4294 393.481 64.6394 393.521 67.0694C393.621 73.7794 391.611 95.3694 387.761 124.489C387.821 123.989 387.911 122.549 387.021 121.149C385.531 118.809 382.651 118.769 382.441 118.769C356.471 116.149 330.511 113.539 304.541 110.919C305.491 101.229 306.831 90.8994 308.711 80.0294C310.691 68.5394 313.021 57.8094 315.521 47.8994L315.511 47.9094Z" fill="#077BB3" stroke="#0C0D0D" stroke-width="2" stroke-miterlimit="10"/>
<path d="M356.901 106.5C354.351 106.48 351.821 106.32 349.311 106.03C346.801 105.74 345.191 105.44 344.491 105.13C343.791 104.82 343.481 104.4 343.541 103.86L346.621 77.1401L340.311 76.4101C339.611 76.3301 339.431 74.7801 339.781 71.7701C340.131 68.7601 340.791 66.0801 341.771 63.7301C342.071 62.9701 344.331 62.5001 348.571 62.3201C352.811 62.1401 356.051 62.1801 358.271 62.4301C360.491 62.6801 361.971 62.9401 362.691 63.1901C363.411 63.4401 363.951 63.7001 364.291 63.9701C364.641 64.2401 364.891 64.5301 365.071 64.8401C365.301 65.3301 365.401 65.7801 365.351 66.1901L360.791 105.84C360.741 106.29 359.441 106.51 356.891 106.49L356.901 106.5Z" fill="white" stroke="#0C0D0D" stroke-width="2" stroke-miterlimit="10"/>
<path d="M324.301 46.4798C324.371 50.2598 322.111 53.5298 318.841 54.9298C317.091 62.6698 315.521 70.4498 314.141 78.2598C313.251 83.2898 312.441 88.3298 311.711 93.3898C311.511 94.7598 311.311 96.1398 311.131 97.5198C311.131 97.5498 311.121 97.6298 311.101 97.7198V97.7498C311.101 97.7498 311.091 97.8398 311.081 97.8898C311.081 97.9098 311.071 97.9298 311.071 97.9498V98.0198L311.061 98.0498C311.051 98.0798 311.051 98.0998 311.051 98.1198C311.051 98.1598 311.051 98.1698 311.051 98.1698L310.991 98.5998C310.911 99.1898 310.841 99.7798 310.761 100.37C310.421 103.06 310.091 105.75 309.791 108.44C308.531 119.81 307.651 131.22 307.171 142.65C306.271 164.08 306.771 185.55 308.621 206.91C308.861 209.7 306.141 211.8 303.621 211.91C300.761 212.04 298.851 209.51 298.621 206.91C297.621 195.36 297.011 183.77 296.811 172.18C296.411 149.39 297.581 126.57 300.321 103.93C302.381 86.8698 305.271 69.8998 309.021 53.1198C307.361 51.5298 306.321 49.2898 306.271 46.8098C306.181 41.8298 310.141 37.7198 315.121 37.6298C320.101 37.5298 324.211 41.4998 324.311 46.4798H324.301Z" fill="#0A5877" stroke="#0C0D0D" stroke-width="2" stroke-miterlimit="10"/>
<path d="M306.701 176.059C304.211 175.599 301.481 180.029 299.171 183.779C296.511 188.089 294.601 191.199 295.851 193.579C297.641 196.979 305.221 197.619 308.421 194.269C308.711 193.959 309.611 192.949 310.141 190.109C311.191 184.429 309.781 176.619 306.701 176.059Z" fill="#FFD037" stroke="black" stroke-width="2" stroke-miterlimit="10"/>
<path d="M340.561 312.68H84.041V722.75H340.561V312.68Z" fill="#F5DF31" stroke="#0C0D0D" stroke-width="2" stroke-miterlimit="10"/>
<g filter="url(#filter0_d_1786_1076)">
<path d="M353.311 312.68H71.3008V363.12H353.311V312.68Z" fill="#F5DF31"/>
<path d="M353.311 312.68H71.3008V363.12H353.311V312.68Z" stroke="#0C0D0D" stroke-width="2" stroke-miterlimit="10"/>
</g>
<path opacity="0.2" d="M123.63 365.02H116.33V722.18H123.63V365.02Z" fill="black" stroke="black" stroke-width="2" stroke-miterlimit="10"/>
<path opacity="0.2" d="M155.22 365.02H147.92V722.18H155.22V365.02Z" fill="black" stroke="black" stroke-width="2" stroke-miterlimit="10"/>
<path opacity="0.2" d="M186.82 365.02H179.52V722.18H186.82V365.02Z" fill="black" stroke="black" stroke-width="2" stroke-miterlimit="10"/>
<path opacity="0.2" d="M218.419 365.02H211.119V722.18H218.419V365.02Z" fill="black" stroke="black" stroke-width="2" stroke-miterlimit="10"/>
<path opacity="0.2" d="M250.021 365.02H242.721V722.18H250.021V365.02Z" fill="black" stroke="black" stroke-width="2" stroke-miterlimit="10"/>
<path opacity="0.2" d="M281.62 365.02H274.32V722.18H281.62V365.02Z" fill="black" stroke="black" stroke-width="2" stroke-miterlimit="10"/>
<path opacity="0.2" d="M313.21 365.02H305.91V722.18H313.21V365.02Z" fill="black" stroke="black" stroke-width="2" stroke-miterlimit="10"/>
<path d="M341.731 249.31L350.631 252.6L341.731 255.89C340.021 256.52 338.681 257.87 338.051 259.57L334.761 268.47L331.471 259.57C330.841 257.86 329.491 256.52 327.791 255.89L318.891 252.6L327.791 249.31C329.501 248.68 330.841 247.33 331.471 245.63L334.761 236.73L338.051 245.63C338.681 247.34 340.031 248.68 341.731 249.31Z" fill="#F5DF31"/>
<path d="M321.621 273.33L326.881 275.28L321.621 277.23C320.581 277.62 319.761 278.44 319.371 279.48L317.421 284.74L315.471 279.48C315.081 278.44 314.261 277.62 313.221 277.23L307.961 275.28L313.221 273.33C314.261 272.94 315.081 272.12 315.471 271.08L317.421 265.82L319.371 271.08C319.761 272.12 320.581 272.94 321.621 273.33Z" fill="#F5DF31"/>
<path d="M339.432 287.73L342.942 289.03L339.432 290.33C338.592 290.64 337.922 291.31 337.612 292.15L336.312 295.66L335.012 292.15C334.702 291.31 334.032 290.64 333.192 290.33L329.682 289.03L333.192 287.73C334.032 287.42 334.702 286.75 335.012 285.91L336.312 282.4L337.612 285.91C337.922 286.75 338.592 287.42 339.432 287.73Z" fill="#F5DF31"/>
</g>
<defs>
<filter id="filter0_d_1786_1076" x="70.3008" y="311.68" width="287.61" height="56.0404" filterUnits="userSpaceOnUse" color-interpolation-filters="sRGB">
<feFlood flood-opacity="0" result="BackgroundImageFix"/>
<feColorMatrix in="SourceAlpha" type="matrix" values="0 0 0 0 0 0 0 0 0 0 0 0 0 0 0 0 0 0 127 0" result="hardAlpha"/>
<feOffset dx="3.6" dy="3.6"/>
<feColorMatrix type="matrix" values="0 0 0 0 0.0470588 0 0 0 0 0.0509804 0 0 0 0 0.0509804 0 0 0 1 0"/>
<feBlend mode="normal" in2="BackgroundImageFix" result="effect1_dropShadow_1786_1076"/>
<feBlend mode="normal" in="SourceGraphic" in2="effect1_dropShadow_1786_1076" result="shape"/>
</filter>
<clipPath id="clip0_1786_1076">
<rect width="432" height="723.75" fill="white"/>
</clipPath>
</defs>
</svg>
