<svg width="432" height="724" viewBox="0 0 432 724" fill="none" xmlns="http://www.w3.org/2000/svg">
<g clip-path="url(#clip0_1786_982)">
<path d="M342.151 519.72H85.6309V722.74H342.151V519.72Z" fill="#DDA052" stroke="#0C0D0D" stroke-width="2" stroke-miterlimit="10"/>
<path d="M225.685 306.567C220.535 300.277 219.525 294.987 219.395 291.737C219.205 287.067 220.695 282.947 222.715 277.307C224.675 271.797 226.765 268.027 226.985 261.777C227.055 259.787 226.975 257.517 225.445 256.157C223.885 254.767 221.445 254.887 220.225 255.207C213.985 256.837 211.405 271.397 211.835 281.327C212.325 292.867 217.025 301.997 221.025 307.877C221.705 307.737 222.415 307.567 223.155 307.357C224.055 307.107 224.905 306.847 225.695 306.567H225.685Z" fill="#FFD037" stroke="#0C0D0D" stroke-width="2" stroke-miterlimit="10"/>
<path d="M267.326 315.267C273.286 313.707 277.226 311.017 279.426 309.207C285.296 304.407 292.466 294.817 291.676 284.437C291.316 279.657 289.326 275.537 291.796 272.747C292.926 271.467 294.866 270.617 296.516 271.007C300.906 272.057 301.636 281.447 301.716 282.487C302.456 292.017 297.436 299.487 296.096 301.427C289.476 310.977 280.266 314.717 273.426 317.407C272.746 317.677 271.756 318.057 270.526 318.477C270.056 317.977 269.566 317.477 269.066 316.967C268.476 316.377 267.886 315.807 267.316 315.267H267.326Z" fill="#FFD037" stroke="#0C0D0D" stroke-width="2" stroke-miterlimit="10"/>
<path d="M213.316 268.106C212.276 272.036 211.146 278.386 212.156 286.066C213.566 296.766 218.376 304.296 221.016 307.866C222.456 307.476 223.886 307.076 225.326 306.686C223.156 304.306 220.266 300.626 217.916 295.596C215.416 290.236 214.626 285.736 214.046 282.236C213.456 278.726 212.966 273.886 213.326 268.116L213.316 268.106Z" fill="#F18300"/>
<path d="M268.525 315.146C271.465 314.176 275.455 312.436 279.425 309.206C288.025 302.196 290.655 292.926 291.465 289.396C291.765 291.576 291.965 295.246 290.625 299.386C288.875 304.806 285.465 308.016 282.525 310.766C280.195 312.946 276.195 316.176 270.275 318.626L268.525 315.146Z" fill="#F18300"/>
<path d="M225.685 306.567C220.535 300.277 219.525 294.987 219.395 291.737C219.205 287.067 220.695 282.947 222.715 277.307C224.675 271.797 226.765 268.027 226.985 261.777C227.055 259.787 226.975 257.517 225.445 256.157C223.885 254.767 221.445 254.887 220.225 255.207C213.985 256.837 211.405 271.397 211.835 281.327C212.325 292.867 217.025 301.997 221.025 307.877C221.705 307.737 222.415 307.567 223.155 307.357C224.055 307.107 224.905 306.847 225.695 306.567H225.685Z" stroke="#0C0D0D" stroke-width="2" stroke-miterlimit="10"/>
<path d="M267.326 315.267C273.286 313.707 277.226 311.017 279.426 309.207C285.296 304.407 292.466 294.817 291.676 284.437C291.316 279.657 289.326 275.537 291.796 272.747C292.926 271.467 294.866 270.617 296.516 271.007C300.906 272.057 301.636 281.447 301.716 282.487C302.456 292.017 297.436 299.487 296.096 301.427C289.476 310.977 280.266 314.717 273.426 317.407C272.746 317.677 271.756 318.057 270.526 318.477C270.056 317.977 269.566 317.477 269.066 316.967C268.476 316.377 267.886 315.807 267.316 315.267H267.326Z" stroke="#0C0D0D" stroke-width="2" stroke-miterlimit="10"/>
<path d="M263.018 420.09C263.238 421.11 263.688 422.56 264.738 423.96C265.998 425.65 267.408 426.31 273.088 428.53C279.628 431.09 280.948 431.46 282.928 431.56C285.108 431.66 287.478 431.77 288.838 430.24C290.328 428.57 289.768 425.89 289.208 423.42C288.828 421.7 288.278 420.18 284.638 413.68C283.808 412.2 281.698 408.46 278.308 404.51C277.738 403.85 276.538 402.95 274.848 402.03C273.958 401.54 267.558 398.04 264.598 400.28C262.428 401.92 264.828 404.59 263.218 413.17C263.028 414.17 262.408 417.26 263.018 420.1V420.09Z" fill="#FFD037"/>
<path d="M278.598 430.62C275.758 430.11 266.418 428.4 265.918 425.25C265.668 423.72 266.768 423.12 268.438 420.6C269.238 419.4 270.558 418.07 270.638 416.54C270.768 413.81 267.168 412.06 267.468 411.6C267.818 411.05 273.538 412.4 277.898 417.01C281.468 420.79 280.898 423.35 284.508 425.21C286.058 426.01 289.098 427.05 289.248 428.31C289.388 429.46 288.858 430.23 288.858 430.23C288.498 430.77 287.228 432.17 278.618 430.62H278.598Z" fill="#F18300"/>
<path d="M262.998 420.14C263.218 421.16 263.668 422.61 264.718 424.01C265.978 425.7 267.388 426.36 273.068 428.58C279.608 431.14 280.928 431.51 282.908 431.61C285.088 431.71 287.458 431.82 288.818 430.29C290.308 428.62 289.748 425.94 289.188 423.47C289.088 423.03 288.998 422.69 288.938 422.51C286.988 415.89 282.918 410.56 282.918 410.56C281.128 408.21 278.548 404.83 273.968 402.22C272.348 401.3 267.108 398.32 264.588 400.27C264.328 400.47 264.158 400.64 263.988 400.91C262.918 402.63 264.618 405.63 263.198 413.22C263.018 414.2 262.388 417.3 262.998 420.15V420.14Z" stroke="#0C0D0D" stroke-width="2" stroke-miterlimit="10"/>
<path d="M270.27 436.16C270.66 438.16 275.05 462.81 257.95 478.85C247.6 488.56 235.17 489.69 230.46 490.05C227.94 490.24 204.61 491.63 189.55 473.64C186.14 469.57 178.04 458.39 179.04 443.33C179.46 437.03 181.35 432.05 182.81 428.95" fill="#FFD037"/>
<path d="M258.299 478.221C257.769 482.431 255.589 495.421 244.599 506.051C230.819 519.381 213.409 519.111 207.679 518.691C202.689 518.321 180.729 515.941 170.909 497.821C169.059 494.411 163.649 483.071 167.919 469.971C170.749 461.281 176.449 456.041 179.149 453.851" fill="#FFD037"/>
<path d="M192.97 516.42C173.43 522.51 153.35 515.6 144.31 500.89C135.39 486.35 137.93 465.29 148.64 456.12C150.32 454.68 156.35 449.52 164.27 450.64C170.18 451.48 174 455.37 175.37 456.92" fill="#FFD037"/>
<path d="M138.11 488.58C137.51 488.09 123.33 476.09 126.28 458.59C128.3 446.6 137.68 436.08 148.83 433.94C151.13 433.5 158.53 432.08 164.98 436.85C171.28 441.51 172.28 448.83 172.45 450.33" fill="#FFD037"/>
<path d="M160.219 434.4C154.089 432.27 148.619 434.18 145.879 435.13C135.089 438.9 129.909 448.62 128.539 451.42C127.419 449.18 124.389 442.45 126.149 434.13C126.309 433.37 129.459 419.6 142.059 415.5C143.879 414.91 152.919 411.97 160.309 417.59C166.199 422.07 168.759 430.25 166.699 438.33C165.389 437.12 163.239 435.44 160.219 434.39V434.4Z" fill="#FFD037"/>
<path d="M154.799 414.38C150.249 405.6 141.409 400.69 133.139 402.03C127.379 402.96 120.709 407.12 118.789 413.91C118.499 414.94 116.849 420.75 120.499 425.85C123.379 429.87 127.719 430.88 128.859 431.11" fill="#FFD037"/>
<path d="M268.44 392.92C270.42 396.9 273.05 403.4 273.8 411.73C274.22 416.45 275.51 430.96 267.34 441.43C254.58 457.78 227.53 453.01 221.94 452.02C216.98 451.14 188.05 446.04 181.51 424.91C177.34 411.42 184.24 397.71 186.8 392.62C190.89 384.5 196.15 378.99 199.79 375.74" fill="#FFD037"/>
<path d="M122.769 428.26C121.939 428.85 120.549 429.66 118.699 429.99C115.409 430.58 110.809 429.65 108.539 426.03C106.069 422.1 107.979 417.61 108.399 416.62C109.909 413.07 112.769 411.34 114.349 410.39C117.629 408.41 120.789 408.02 122.449 407.94" fill="#FFD037"/>
<path d="M182.809 428.95C184.249 431.46 186.569 434.91 190.139 438.3C195.959 443.83 201.839 446.1 207.519 448.22C213.239 450.36 222.909 453.86 236.029 453.54C244.739 453.33 253.669 453.11 261.679 446.83C266.189 443.3 268.799 439.1 270.269 436.17C270.499 438.16 270.729 440.15 270.959 442.14C265.639 449.52 259.919 453.97 255.589 456.67C228.989 473.24 196.439 459.93 185.739 450.79C183.569 448.93 179.689 445.52 179.099 440.21C178.509 434.91 181.519 430.61 182.829 428.96L182.809 428.95Z" fill="#F18300"/>
<path d="M258.3 478.22C258.05 479.73 257.8 481.25 257.55 482.76C255.52 485.64 251.97 489.97 246.41 493.54C226.71 506.19 197.25 499.38 182.85 483.33C180.27 480.45 170.91 470.02 174.16 460.54C175.24 457.39 177.41 455.23 179.16 453.86C180.14 457.92 182.31 464.57 187.39 471.26C188.26 472.41 196.35 482.78 210.08 487.46C234.12 495.65 256.13 479.83 258.3 478.22Z" fill="#F18300"/>
<path d="M192.97 516.42C190.21 516.8 186.14 517 181.57 515.77C166.08 511.61 156.17 494.07 156.1 478.7C156.1 476.58 156.22 459.76 166.12 454.92C167.89 454.06 169.56 453.77 170.74 453.67C172.28 454.75 173.82 455.83 175.37 456.91C173.63 458.89 171.32 461.93 169.48 466.07C168.38 468.53 165.98 474.71 166.45 482.72C167.21 495.65 174.92 504.02 177.02 506.23C182.73 512.25 189.1 515.08 192.97 516.41V516.42Z" fill="#F18300"/>
<path d="M140.069 490.821C139.139 487.861 136.079 476.901 141.579 465.781C142.599 463.721 147.249 454.321 156.619 451.511C158.209 451.031 162.289 449.801 167.169 451.151C169.459 451.781 171.189 452.781 172.309 453.541C172.459 452.521 173.349 445.701 169.039 441.791C163.849 437.101 155.379 440.461 152.769 441.501C142.369 445.621 138.109 455.801 137.219 457.921C130.729 473.401 138.749 488.451 140.069 490.841V490.821Z" fill="#F18300"/>
<path d="M267.339 392.391C267.559 393.021 267.779 393.661 267.999 394.291C266.019 395.941 262.829 398.371 258.509 400.581C239.699 410.191 220.559 404.911 216.689 403.841C214.429 403.221 205.239 400.541 195.459 393.491C192.809 391.581 190.729 389.791 189.289 388.481C191.389 385.701 192.839 383.771 193.819 382.481C194.679 381.331 195.239 380.601 196.069 379.631C197.339 378.141 198.609 376.861 199.789 375.771C201.659 378.631 211.209 392.591 230.169 396.881C249.099 401.171 263.709 392.721 266.639 390.941C266.869 391.431 267.109 391.911 267.339 392.401V392.391Z" fill="#F18300"/>
<path d="M166.699 438.34C167.979 431.5 165.939 428.59 165.009 427.55C159.629 421.52 144.139 425.04 135.869 433.74C129.719 440.21 128.749 448.27 128.539 451.42C129.989 448.24 133.319 442.11 139.799 438.03C142.239 436.49 144.609 435.57 145.879 435.13C148.509 434.21 151.959 433.01 156.179 433.47C161.309 434.03 164.949 436.78 166.699 438.34Z" fill="#F18300"/>
<path d="M154.798 414.38C154.618 413.82 154.278 413.03 153.618 412.3C149.258 407.52 135.378 410.43 128.698 418.49C126.008 421.74 123.118 427.47 124.988 429.72C125.558 430.41 126.468 430.64 127.248 430.71C128.028 428.66 130.718 422.33 137.678 418C145.218 413.3 152.738 414.09 154.798 414.38Z" fill="#F18300"/>
<path d="M122.769 428.26C120.989 426.96 119.979 425.56 119.399 424.5C115.409 417.28 121.319 408.41 121.609 407.99C120.169 408.83 117.299 410.79 115.509 414.44C115.219 415.02 112.639 420.5 114.959 425.89C115.559 427.27 116.569 429.64 118.709 429.98C120.749 430.31 122.469 428.57 122.779 428.25L122.769 428.26Z" fill="#F18300"/>
<path d="M270.27 436.16C270.66 438.16 275.05 462.81 257.95 478.85C247.6 488.56 235.17 489.69 230.46 490.05C227.94 490.24 204.61 491.63 189.55 473.64C186.14 469.57 178.04 458.39 179.04 443.33C179.46 437.03 181.35 432.05 182.81 428.95" stroke="#0C0D0D" stroke-width="2" stroke-miterlimit="10"/>
<path d="M258.3 478.22C257.8 482.28 255.53 496.78 243.05 508.02C225.34 523.96 202.74 519.21 200.39 518.68C196.58 517.81 179.38 513.89 170.91 497.83C169.62 495.39 163.46 483.7 167.92 469.98C170.72 461.35 176.38 456.11 179.15 453.86" stroke="#0C0D0D" stroke-width="2" stroke-miterlimit="10"/>
<path d="M192.969 516.421C173.369 522.341 153.359 515.511 144.309 500.891C135.399 486.481 137.469 465.031 148.639 456.121C149.459 455.471 159.249 447.891 168.609 451.631C171.899 452.951 174.079 455.241 175.369 456.921" stroke="#0C0D0D" stroke-width="2" stroke-miterlimit="10"/>
<path d="M140.07 490.82C138.31 489.58 126.86 481.24 125.79 466.65C124.84 453.57 132.59 440.44 144.08 435.81C146.39 434.88 156.76 430.7 164.97 436.85C172.45 442.46 172.34 452.33 172.31 453.52" stroke="#0C0D0D" stroke-width="2" stroke-miterlimit="10"/>
<path d="M128.54 451.42C123.56 441.17 125.2 429.33 132.42 421.99C139.06 415.25 151.77 410.96 160.31 417.59C165.98 422 168.39 430.12 166.7 438.33" stroke="#0C0D0D" stroke-width="2" stroke-miterlimit="10"/>
<path d="M155.509 415.111C150.819 405.831 141.629 400.631 133.149 402.031C127.459 402.971 120.719 407.111 118.799 413.911C118.299 415.681 117.139 421.111 120.509 425.851C122.779 429.041 125.949 430.291 127.269 430.721" stroke="#0C0D0D" stroke-width="2" stroke-miterlimit="10"/>
<path d="M267.32 390.25C269.69 394.61 272.99 402.05 273.8 411.74C274.25 417.2 275.38 431.15 267.34 441.44C254.58 457.79 227.53 453.02 221.94 452.03C216.98 451.15 188.05 446.05 181.51 424.92C177.34 411.43 184.24 397.72 186.8 392.63C190.89 384.51 196.15 379 199.79 375.75" stroke="#0C0D0D" stroke-width="2" stroke-miterlimit="10"/>
<path d="M122.769 428.26C121.939 428.85 120.549 429.66 118.699 429.99C115.409 430.58 110.809 429.65 108.539 426.03C106.069 422.1 107.979 417.61 108.399 416.62C109.909 413.07 112.769 411.34 114.349 410.39C117.629 408.41 120.789 408.02 122.449 407.94" stroke="#0C0D0D" stroke-width="2" stroke-miterlimit="10"/>
<path d="M255.82 395.711C248.9 398.331 241.81 398.701 239.76 398.771C230.99 399.081 224.35 397.161 221.97 396.401C211.26 392.991 204.19 386.811 200.62 383.141C197.12 379.551 191.53 373.661 188.81 364.051C185.07 350.841 189.34 339.721 190.86 336.231C193.81 329.471 197.92 325.121 200.35 322.591C206.04 316.671 211.71 313.531 213.82 312.431C227.28 305.451 240.15 306.711 243.17 307.071C247.64 307.601 262.05 309.551 273.28 321.861C289.11 339.211 284.51 361.721 284.27 362.811C280.37 380.341 267.04 391.461 255.81 395.711H255.82Z" fill="#FFD037"/>
<path d="M240.059 373.821C236.119 374.621 231.879 373.921 228.349 371.771C226.969 370.931 225.719 373.091 227.089 373.931C231.179 376.431 236.039 377.181 240.719 376.231C241.379 376.101 241.759 375.311 241.589 374.691C241.399 374.001 240.719 373.681 240.049 373.821H240.059Z" fill="#0C0D0D"/>
<path d="M273.289 321.87C269.139 318.9 261.859 314.48 251.849 312.23C248.889 311.57 234.849 308.66 218.299 314.55C206.599 318.72 198.769 325.45 194.549 329.73C196.679 326.55 206.829 312.13 226.369 307.87C229.779 307.13 244.839 304.22 260.419 312.27C266.389 315.36 270.619 319.12 273.279 321.87H273.289Z" fill="#F18300"/>
<path d="M255.82 395.711C248.9 398.331 241.81 398.701 239.76 398.771C230.99 399.081 224.35 397.161 221.97 396.401C211.26 392.991 204.19 386.811 200.62 383.141C197.12 379.551 191.53 373.661 188.81 364.051C185.07 350.841 189.34 339.721 190.86 336.231C193.81 329.471 197.92 325.121 200.35 322.591C206.04 316.671 211.71 313.531 213.82 312.431C227.28 305.451 240.15 306.711 243.17 307.071C247.64 307.601 262.05 309.551 273.28 321.861C289.11 339.211 284.51 361.721 284.27 362.811C280.37 380.341 267.04 391.461 255.81 395.711H255.82Z" stroke="#0C0D0D" stroke-width="2" stroke-miterlimit="10"/>
<path d="M203.21 395.64C206.54 398.67 205.56 403 206.07 414.6C206.39 421.9 206.93 423.55 205.57 424.67C202.81 426.94 196.26 423.81 192.47 420.61C187.3 416.25 182.53 407.77 185.51 400.82C187.07 397.17 190.26 395.33 190.87 394.99C191.59 394.58 195.73 392.26 200.15 393.83C200.61 393.99 201.97 394.49 203.22 395.63L203.21 395.64Z" fill="#FFD037"/>
<path d="M203.21 395.64C200.63 393.16 196.92 393.18 196.5 393.18C193.98 393.2 192.16 394.25 190.86 394.99C189.99 395.49 188.58 396.32 187.27 397.94C186.53 398.85 185.21 400.77 184.84 403.46C184.68 404.59 184.66 406.1 185.26 408.35C186.76 413.91 190.68 418.63 192.47 420.61C192.09 419.09 191.71 416.83 191.9 414.13C192.07 411.65 192.54 404.94 197.66 401.66C200.61 399.77 203.85 399.81 205.72 400.03C205.6 399.53 205.4 398.86 205.04 398.13C204.97 397.99 204.33 396.7 203.21 395.63V395.64Z" fill="#F18300"/>
<path d="M197.861 393.26C198.611 393.36 201.761 393.86 204.091 396.51C206.961 399.77 205.551 402.78 206.071 414.6C206.381 421.63 207.011 423.49 205.571 424.67C202.841 426.92 196.331 423.99 192.471 420.61C187.051 415.88 182.141 406.26 186.251 399.33C188.351 395.78 193.021 392.61 197.861 393.25V393.26Z" stroke="#0C0D0D" stroke-width="2" stroke-miterlimit="10"/>
<path d="M201.995 340.747C201.955 340.847 201.895 341.127 202.365 341.717C205.405 345.587 217.785 346.657 219.695 342.537C221.745 338.117 211.595 327.977 208.375 329.397C207.635 329.727 207.405 330.617 207.395 330.677C206.485 334.487 217.425 339.217 216.745 340.947C216.005 342.807 202.705 338.797 201.995 340.737V340.747Z" fill="#0C0D0D"/>
<path d="M275.308 348.442C275.646 340.558 270.914 333.951 264.739 333.687C258.565 333.423 253.286 339.601 252.949 347.486C252.611 355.371 257.343 361.977 263.518 362.241C269.692 362.505 274.971 356.327 275.308 348.442Z" fill="#0C0D0D"/>
<path d="M271.288 340.904C271.36 339.226 270.353 337.821 269.04 337.765C267.727 337.708 266.604 339.023 266.532 340.7C266.461 342.377 267.467 343.783 268.78 343.839C270.093 343.895 271.216 342.581 271.288 340.904Z" fill="white" stroke="#0C0D0D" stroke-miterlimit="10"/>
<path d="M292.59 406.329L276.974 431.722C276.589 432.347 276.785 433.166 277.41 433.551L283.092 437.045C283.718 437.43 284.537 437.235 284.922 436.609L300.537 411.216C300.922 410.591 300.727 409.771 300.101 409.387L294.419 405.893C293.794 405.508 292.974 405.703 292.59 406.329Z" fill="#4E7381"/>
<path d="M283.729 435.97L280.579 434.03C280.129 433.75 278.099 432.87 278.069 432.34C278.059 432.07 278.639 431.42 278.769 431.2L280.529 428.34C284.009 422.68 287.489 417.03 290.959 411.37L292.779 408.41C292.939 408.15 293.349 407.12 293.649 407C294.029 406.84 295.369 407.94 295.709 408.16L297.939 409.53C298.259 409.73 299.219 410.08 299.389 410.42C299.529 410.7 299.199 411.02 299.019 411.31L297.559 413.68L292.569 421.8L286.619 431.48C286.399 431.84 284.019 436.1 283.729 435.97C282.279 435.29 281.009 437.45 282.469 438.13C285.239 439.42 286.409 436.6 287.569 434.71L292.969 425.93C294.929 422.74 296.899 419.55 298.859 416.35C299.779 414.86 300.799 413.4 301.629 411.85C302.679 409.88 301.259 408.62 299.739 407.69C298.219 406.76 296.859 405.88 295.399 405.02C293.939 404.16 292.459 404.34 291.489 405.76C291.109 406.32 290.779 406.91 290.429 407.48C286.729 413.5 283.019 419.52 279.319 425.55C278.189 427.38 276.929 429.19 275.909 431.09C274.709 433.35 276.689 434.56 278.329 435.57L282.479 438.12C283.849 438.97 285.109 436.8 283.739 435.96L283.729 435.97Z" fill="#0C0D0D"/>
<path d="M300.069 396.761L294.443 405.909L300.082 409.377L305.708 400.228L300.069 396.761Z" fill="#C3D4D9"/>
<path d="M300.71 408.31C298.83 407.15 296.95 406 295.07 404.84L295.52 406.55C297.4 403.5 299.27 400.45 301.15 397.4L299.44 397.85C301.32 399.01 303.2 400.16 305.08 401.32L304.63 399.61C302.75 402.66 300.88 405.71 299 408.76C298.15 410.13 300.32 411.39 301.16 410.02C303.04 406.97 304.91 403.92 306.79 400.87C307.15 400.29 306.91 399.51 306.34 399.16C304.46 398 302.58 396.85 300.7 395.69C300.12 395.33 299.34 395.57 298.99 396.14C297.11 399.19 295.24 402.24 293.36 405.29C293 405.87 293.24 406.65 293.81 407C295.69 408.16 297.57 409.31 299.45 410.47C300.82 411.32 302.08 409.15 300.71 408.31Z" fill="#0C0D0D"/>
<path d="M334.538 347.9C333.988 347.62 333.418 347.37 332.838 347.16C332.838 347.16 331.268 346.59 329.518 346.39C324.878 345.84 319.478 348.28 319.478 348.28C308.848 353.09 302.958 364.38 301.688 366.82C299.348 371.3 298.408 374.85 298.058 376.28C297.398 379.02 296.438 383.13 297.158 388.37C297.468 390.65 298.018 394.31 300.458 397.88C301.238 399.03 302.958 401.49 306.098 403.09C306.098 403.09 306.668 403.37 307.238 403.6C317.438 407.79 331.368 399.77 338.928 385.08C346.778 369.84 344.818 353.19 334.538 347.9ZM333.738 382.98C327.498 395.1 316.618 401.93 309.428 398.22C302.248 394.53 301.478 381.69 307.718 369.58C313.958 357.46 324.858 350.65 332.028 354.34C339.218 358.05 339.988 370.87 333.738 382.98Z" fill="#4E7381"/>
<path d="M332.658 382.35C329.218 388.96 323.358 396.37 315.568 397.81C312.728 398.34 309.848 397.6 307.848 395.46C305.428 392.88 304.748 389.04 304.748 385.63C304.728 376.49 309.218 367.08 315.658 360.71C319.728 356.69 327.248 351.88 332.728 356.25C335.798 358.7 336.688 363.01 336.718 366.74C336.758 372.17 335.108 377.54 332.658 382.34C331.928 383.77 334.088 385.04 334.818 383.6C337.258 378.81 338.928 373.59 339.188 368.2C339.378 364.12 338.718 359.64 336.198 356.3C331.208 349.69 322.548 352.01 316.888 356.34C308.898 362.46 303.548 372.51 302.428 382.46C301.598 389.88 303.968 399.67 312.838 400.43C317.038 400.79 321.188 398.78 324.448 396.3C328.848 392.96 332.278 388.47 334.818 383.6C335.558 382.17 333.408 380.91 332.658 382.34V382.35Z" fill="#0C0D0D"/>
<path d="M335.168 346.82C324.538 341.59 312.958 349.14 306.378 357.32C300.488 364.64 296.108 373.89 295.688 383.38C295.408 389.58 296.948 396.15 301.188 400.85C304.848 404.9 310.308 406.5 315.628 405.77C327.658 404.12 336.968 393.16 341.478 382.6C344.058 376.56 345.508 369.86 344.848 363.28C344.318 357.99 342.418 352.55 338.308 348.97C337.348 348.13 336.298 347.41 335.178 346.82C333.758 346.07 332.488 348.23 333.918 348.98C343.868 354.23 343.628 368.04 340.768 377.33C337.508 387.93 329.628 398.98 318.648 402.52C314.468 403.87 309.848 403.88 305.988 401.59C301.028 398.66 298.868 392.86 298.308 387.4C297.378 378.35 301.088 369.19 306.118 361.83C309.328 357.14 313.418 352.89 318.458 350.18C320.338 349.17 322.158 348.5 324.458 347.99C327.698 347.27 330.918 347.51 333.908 348.98C335.348 349.69 336.618 347.53 335.168 346.82Z" fill="#0C0D0D"/>
<path d="M332.48 347.05C331.74 346.81 330.73 346.54 329.51 346.39C317.39 344.97 303.939 358.47 299.299 372.54C298.289 375.59 293.72 389.46 301.1 398.76C302.81 400.91 304.72 402.27 306.1 403.1C303.41 401.43 300.73 399.75 298.04 398.08C297.03 397.43 295.559 396.34 294.239 394.64C285.949 384 295.48 365.34 296.5 363.39C301.2 354.46 308.16 349 313.25 345.89C314.28 345.36 315.59 344.82 317.14 344.43C320.04 343.7 322.56 343.81 324.23 344.03C326.98 345.04 329.73 346.04 332.48 347.05Z" fill="#8BA2AA"/>
<path d="M332.819 345.84C321.259 342.18 310.189 351.65 304.029 360.46C298.609 368.22 294.979 378.48 295.839 388.05C296.439 394.74 299.649 400.63 305.469 404.17C306.849 405.01 308.099 402.86 306.729 402.01C304.889 400.87 303.049 399.72 301.219 398.58C299.779 397.69 298.269 396.86 296.999 395.74C294.799 393.8 293.359 391.27 292.659 388.43C291.409 383.33 292.419 377.86 293.939 372.93C296.859 363.48 302.349 355.17 310.409 349.29C313.299 347.18 316.249 345.56 319.899 345.2C321.789 345.01 323.499 345.09 325.279 345.74C327.569 346.58 329.859 347.42 332.149 348.26C333.659 348.81 334.319 346.4 332.809 345.85C330.669 345.07 328.529 344.28 326.389 343.5C325.529 343.18 324.699 342.83 323.789 342.73C322.879 342.63 322.029 342.6 321.139 342.62C317.549 342.73 314.099 343.79 311.099 345.77C305.559 349.43 300.729 354.14 297.149 359.75C294.989 363.14 293.339 366.87 292.039 370.67C290.209 376 289.039 381.8 289.909 387.42C290.419 390.74 291.789 393.88 294.059 396.37C295.399 397.84 296.999 398.91 298.669 399.95C300.929 401.36 303.189 402.77 305.459 404.18L306.719 402.02C297.529 396.44 297.069 385.26 299.589 375.88C302.109 366.5 307.919 357.25 316.139 351.64C320.839 348.44 326.519 346.47 332.139 348.25C333.679 348.74 334.339 346.32 332.799 345.84H332.819Z" fill="#0C0D0D"/>
<path d="M333.738 382.98C327.498 395.1 316.618 401.93 309.428 398.22C302.248 394.53 301.478 381.69 307.718 369.58C313.958 357.46 324.858 350.65 332.028 354.34C339.218 358.05 339.988 370.87 333.738 382.98Z" fill="#EAFCFF"/>
<path d="M332.658 382.35C329.218 388.96 323.358 396.37 315.568 397.81C312.728 398.34 309.848 397.6 307.848 395.46C305.428 392.88 304.748 389.04 304.748 385.63C304.728 376.49 309.218 367.08 315.658 360.71C319.728 356.69 327.248 351.88 332.728 356.25C335.798 358.7 336.688 363.01 336.718 366.74C336.758 372.17 335.108 377.54 332.658 382.34C331.928 383.77 334.088 385.04 334.818 383.6C337.258 378.81 338.928 373.59 339.188 368.2C339.378 364.12 338.718 359.64 336.198 356.3C331.208 349.69 322.548 352.01 316.888 356.34C308.898 362.46 303.548 372.51 302.428 382.46C301.598 389.88 303.968 399.67 312.838 400.43C317.038 400.79 321.188 398.78 324.448 396.3C328.848 392.96 332.278 388.47 334.818 383.6C335.558 382.17 333.408 380.91 332.658 382.34V382.35Z" fill="#0C0D0D"/>
<path d="M240.726 343.437C240.366 343.047 239.576 342.337 238.366 342.057C238.036 341.977 237.696 341.937 237.346 341.937C236.716 341.937 236.076 342.067 235.496 342.317L233.836 343.037L234.686 337.527L235.066 337.287C235.616 336.937 236.756 336.347 238.286 336.347C238.626 336.347 238.956 336.377 239.296 336.437C241.406 336.807 242.626 338.177 243.046 338.757L243.316 339.127L242.006 344.857L240.716 343.447L240.726 343.437Z" fill="#077BB3"/>
<path d="M238.296 337.347C238.556 337.347 238.836 337.367 239.126 337.417C241.016 337.747 242.036 339.057 242.246 339.347C241.986 340.487 241.726 341.627 241.466 342.767C241.136 342.397 240.176 341.457 238.596 341.087C238.156 340.987 237.736 340.947 237.356 340.947C236.266 340.947 235.446 341.267 235.116 341.407C235.286 340.317 235.456 339.217 235.616 338.127C235.876 337.957 236.886 337.347 238.296 337.347ZM238.296 335.347C236.516 335.347 235.176 336.037 234.536 336.447L233.776 336.937L233.636 337.827L233.326 339.817L233.126 341.107L232.576 344.687L235.896 343.247C236.336 343.057 236.856 342.947 237.346 342.947C237.616 342.947 237.876 342.977 238.136 343.037C239.086 343.257 239.696 343.807 239.976 344.117L242.546 346.937L243.396 343.217L244.146 339.947L244.176 339.797L244.386 338.897L243.836 338.157C243.336 337.487 241.916 335.887 239.456 335.457C239.066 335.387 238.676 335.357 238.276 335.357L238.296 335.347Z" fill="#0C0D0D"/>
<path d="M208.386 363.587C202.026 363.587 196.006 361.517 190.976 357.607C184.986 352.947 181.166 346.237 180.216 338.707C179.266 331.177 181.316 323.727 185.966 317.727C191.386 310.747 199.576 306.747 208.426 306.747C214.786 306.747 220.806 308.817 225.846 312.727C238.226 322.347 240.466 340.227 230.856 352.607C225.436 359.587 217.246 363.587 208.396 363.587H208.386ZM208.426 311.967C201.196 311.967 194.516 315.237 190.086 320.927C186.286 325.817 184.616 331.897 185.386 338.047C186.156 344.197 189.276 349.677 194.166 353.477C198.276 356.667 203.186 358.357 208.376 358.357C215.606 358.357 222.286 355.087 226.716 349.387C230.516 344.497 232.186 338.417 231.416 332.267C230.646 326.117 227.526 320.637 222.636 316.837C218.526 313.647 213.616 311.957 208.426 311.957V311.967Z" fill="#077BB3"/>
<path d="M208.426 307.747C214.306 307.747 220.226 309.627 225.226 313.517C237.186 322.807 239.346 340.037 230.056 351.997C224.656 358.957 216.556 362.597 208.386 362.597C202.506 362.597 196.586 360.717 191.586 356.827C179.626 347.537 177.466 330.307 186.756 318.347C192.156 311.387 200.256 307.747 208.426 307.747ZM208.376 359.357C215.596 359.357 222.736 356.137 227.506 350.007C235.706 339.457 233.796 324.257 223.246 316.057C218.836 312.627 213.606 310.967 208.416 310.967C201.196 310.967 194.056 314.177 189.286 320.317C181.086 330.867 182.996 346.077 193.546 354.277C197.956 357.707 203.176 359.367 208.366 359.367M208.426 305.747C199.266 305.747 190.786 309.887 185.176 317.117C175.226 329.927 177.546 348.447 190.356 358.397C195.566 362.447 201.796 364.587 208.386 364.587C217.546 364.587 226.026 360.447 231.636 353.217C241.586 340.407 239.266 321.887 226.456 311.937C221.246 307.887 215.016 305.747 208.426 305.747ZM208.376 357.357C203.416 357.357 198.716 355.747 194.786 352.687C190.106 349.047 187.116 343.807 186.386 337.917C185.646 332.027 187.246 326.217 190.876 321.527C195.116 316.077 201.506 312.947 208.426 312.947C213.396 312.947 218.096 314.557 222.026 317.617C231.686 325.127 233.436 339.097 225.926 348.767C221.686 354.217 215.296 357.347 208.376 357.347V357.357Z" fill="#0C0D0D"/>
<path d="M268.517 375.577C262.157 375.577 256.137 373.507 251.097 369.597C245.107 364.937 241.287 358.227 240.337 350.697C239.387 343.167 241.437 335.717 246.087 329.717C251.507 322.737 259.697 318.737 268.547 318.737C274.907 318.737 280.927 320.807 285.967 324.717C291.957 329.377 295.777 336.087 296.727 343.617C297.677 351.147 295.627 358.597 290.977 364.597C285.557 371.577 277.367 375.577 268.517 375.577ZM268.557 323.957C261.327 323.957 254.647 327.227 250.217 332.917C246.417 337.807 244.747 343.887 245.517 350.037C246.287 356.187 249.407 361.667 254.297 365.467C258.407 368.657 263.317 370.347 268.507 370.347C275.737 370.347 282.417 367.077 286.847 361.377C294.697 351.277 292.867 336.677 282.767 328.827C278.657 325.637 273.747 323.947 268.557 323.947V323.957Z" fill="#077BB3"/>
<path d="M268.557 319.737C274.437 319.737 280.357 321.617 285.357 325.507C297.317 334.797 299.477 352.027 290.187 363.987C284.787 370.947 276.687 374.587 268.517 374.587C262.637 374.587 256.717 372.707 251.717 368.817C239.757 359.527 237.597 342.297 246.887 330.337C252.287 323.377 260.387 319.737 268.557 319.737ZM268.507 371.357C275.727 371.357 282.867 368.137 287.637 362.007C295.837 351.457 293.927 336.257 283.377 328.057C278.967 324.627 273.737 322.967 268.547 322.967C261.327 322.967 254.187 326.177 249.417 332.317C241.217 342.867 243.127 358.077 253.677 366.277C258.087 369.707 263.307 371.367 268.497 371.367M268.557 317.737C259.397 317.737 250.917 321.877 245.307 329.107C235.357 341.917 237.677 360.437 250.487 370.387C255.697 374.437 261.927 376.577 268.517 376.577C277.677 376.577 286.157 372.437 291.767 365.207C301.717 352.397 299.397 333.877 286.587 323.927C281.377 319.877 275.147 317.737 268.557 317.737ZM268.507 369.357C263.547 369.357 258.847 367.747 254.917 364.687C250.237 361.047 247.247 355.807 246.517 349.917C245.777 344.027 247.377 338.217 251.007 333.527C255.247 328.077 261.637 324.947 268.557 324.947C273.527 324.947 278.227 326.557 282.157 329.617C286.837 333.257 289.817 338.497 290.557 344.377C291.297 350.257 289.697 356.077 286.057 360.757C281.817 366.207 275.427 369.337 268.507 369.337V369.357Z" fill="#0C0D0D"/>
<path d="M280.117 372.017C277.877 373.057 272.187 375.337 264.837 374.337C256.797 373.247 251.637 368.897 249.807 367.187C248.047 365.547 242.597 360.027 241.327 350.977C240.337 343.917 242.417 338.377 243.457 336.047C242.607 338.807 241.017 345.347 243.247 353.097C243.947 355.537 246.167 362.877 253.237 367.987C257.287 370.917 261.177 371.847 263.587 372.397C270.837 374.067 276.927 372.877 280.127 372.017H280.117Z" fill="#0A5877"/>
<path d="M215.586 361.627C213.246 362.277 208.526 363.257 202.756 362.047C200.856 361.647 196.216 360.457 191.576 356.817C183.526 350.507 181.736 341.737 181.456 340.227C180.136 333.207 181.946 327.567 182.866 325.157C182.136 327.827 180.866 333.877 182.866 341.077C183.456 343.187 185.156 348.397 189.416 352.957C198.966 363.187 213.606 361.847 215.576 361.637L215.586 361.627Z" fill="#0A5877"/>
<g filter="url(#filter0_d_1786_982)">
<path d="M354.891 519.43H72.8809V569.87H354.891V519.43Z" fill="#DDA052"/>
<path d="M354.891 519.43H72.8809V569.87H354.891V519.43Z" stroke="#0C0D0D" stroke-width="2" stroke-miterlimit="10"/>
</g>
<path opacity="0.2" d="M124.601 569.68H117.301V722.42H124.601V569.68Z" fill="black" stroke="black" stroke-width="2" stroke-miterlimit="10"/>
<path opacity="0.2" d="M156.2 569.68H148.9V722.42H156.2V569.68Z" fill="black" stroke="black" stroke-width="2" stroke-miterlimit="10"/>
<path opacity="0.2" d="M187.8 569.68H180.5V722.42H187.8V569.68Z" fill="black" stroke="black" stroke-width="2" stroke-miterlimit="10"/>
<path opacity="0.2" d="M219.402 569.68H212.102V722.42H219.402V569.68Z" fill="black" stroke="black" stroke-width="2" stroke-miterlimit="10"/>
<path opacity="0.2" d="M250.991 569.68H243.691V722.42H250.991V569.68Z" fill="black" stroke="black" stroke-width="2" stroke-miterlimit="10"/>
<path opacity="0.2" d="M282.591 569.68H275.291V722.42H282.591V569.68Z" fill="black" stroke="black" stroke-width="2" stroke-miterlimit="10"/>
<path opacity="0.2" d="M314.191 569.68H306.891V722.42H314.191V569.68Z" fill="black" stroke="black" stroke-width="2" stroke-miterlimit="10"/>
<path d="M342.449 286.14L351.349 289.43L342.449 292.72C340.739 293.35 339.399 294.7 338.769 296.4L335.479 305.3L332.189 296.4C331.559 294.69 330.209 293.35 328.509 292.72L319.609 289.43L328.509 286.14C330.219 285.51 331.559 284.16 332.189 282.46L335.479 273.56L338.769 282.46C339.399 284.17 340.749 285.51 342.449 286.14Z" fill="#DDA052"/>
<path d="M322.34 310.169L327.6 312.119L322.34 314.069C321.3 314.459 320.48 315.279 320.09 316.319L318.14 321.579L316.19 316.319C315.8 315.279 314.98 314.459 313.94 314.069L308.68 312.119L313.94 310.169C314.98 309.779 315.8 308.959 316.19 307.919L318.14 302.659L320.09 307.919C320.48 308.959 321.3 309.779 322.34 310.169Z" fill="#DDA052"/>
<path d="M340.15 324.569L343.66 325.869L340.15 327.169C339.31 327.479 338.64 328.149 338.33 328.989L337.03 332.499L335.73 328.989C335.42 328.149 334.75 327.479 333.91 327.169L330.4 325.869L333.91 324.569C334.75 324.259 335.42 323.589 335.73 322.749L337.03 319.239L338.33 322.749C338.64 323.589 339.31 324.259 340.15 324.569Z" fill="#DDA052"/>
</g>
<defs>
<filter id="filter0_d_1786_982" x="71.8809" y="518.43" width="287.61" height="56.0404" filterUnits="userSpaceOnUse" color-interpolation-filters="sRGB">
<feFlood flood-opacity="0" result="BackgroundImageFix"/>
<feColorMatrix in="SourceAlpha" type="matrix" values="0 0 0 0 0 0 0 0 0 0 0 0 0 0 0 0 0 0 127 0" result="hardAlpha"/>
<feOffset dx="3.6" dy="3.6"/>
<feColorMatrix type="matrix" values="0 0 0 0 0.0470588 0 0 0 0 0.0509804 0 0 0 0 0.0509804 0 0 0 1 0"/>
<feBlend mode="normal" in2="BackgroundImageFix" result="effect1_dropShadow_1786_982"/>
<feBlend mode="normal" in="SourceGraphic" in2="effect1_dropShadow_1786_982" result="shape"/>
</filter>
<clipPath id="clip0_1786_982">
<rect width="432" height="723.75" fill="white"/>
</clipPath>
</defs>
</svg>
