<svg width="138" height="230" viewBox="0 0 138 230" fill="none" xmlns="http://www.w3.org/2000/svg">
<g clip-path="url(#clip0_1901_852)">
<path d="M91.5274 59.9927C91.882 58.604 93.2524 57.943 94.3545 57.4155C94.8975 57.1549 97.3349 55.9727 98.2197 56.9007C98.9832 57.6983 98.2006 59.4938 97.7406 60.5489C97.1496 61.9058 96.0252 64.464 94.2778 64.3751C92.6295 64.2893 91.045 61.8741 91.5274 59.9959V59.9927Z" fill="#F18300"/>
<path d="M91.8477 59.211C92.0713 59.5288 92.2949 59.8466 92.5185 60.1643C92.9242 59.818 93.7803 59.1824 95.0485 58.9027C96.5467 58.5722 97.7638 58.9281 98.2685 59.1061C98.3388 58.9663 98.8659 57.8572 98.3068 56.8975C98.1567 56.6369 97.9618 56.4526 97.7861 56.3223C97.0418 56.4335 95.7097 56.7068 94.3521 57.4186C93.3842 57.9271 92.6143 58.5468 92.3364 58.782C92.132 58.9536 91.9659 59.1061 91.8477 59.2141V59.211Z" fill="#FFD037"/>
<path d="M91.8477 59.2105C92.2917 58.7942 93.0009 58.1904 93.9816 57.6375C94.7418 57.2084 97.1696 55.842 98.0896 56.6523C98.6295 57.129 98.425 58.1618 98.227 59.1533C97.85 61.0537 96.7543 62.3503 96.1666 63.0272C95.6427 63.631 95.1411 64.0727 94.7802 64.3651C94.416 63.4943 93.9528 62.5282 93.365 61.5145C92.8603 60.6469 92.3428 59.8811 91.8477 59.2137V59.2105Z" stroke="#0C0D0D" stroke-width="2" stroke-miterlimit="10"/>
<path d="M67.5092 34.9601C68.3142 34.5025 75.1567 30.7685 82.1717 34.4358C86.7813 36.8446 89.5477 41.4462 89.9854 46.051C90.0588 46.8359 90.2984 50.0774 88.5798 53.6493C86.1648 58.6704 80.9036 62.2169 75.1472 62.6459C73.6074 62.7603 66.4199 63.0686 62.1362 57.5549C58.5073 52.8866 59.5263 47.3476 59.7819 45.962C59.9672 44.961 61.2705 38.5035 67.5092 34.9569V34.9601Z" fill="#FFD037"/>
<path d="M87.8736 54.9424C89.6529 56.3184 91.7261 58.384 93.2307 61.3363C94.1891 63.2208 95.1985 65.1243 94.9493 67.6126C94.6714 70.3933 93.0103 72.2428 91.9497 73.4218C87.7618 78.0838 81.9064 78.7512 81.0215 78.837C79.7182 78.9673 72.0899 79.7204 67.7678 74.4388C65.5189 71.6899 65.1963 68.566 65.1324 67.8001C64.8704 64.5301 66.0077 62.0736 66.5252 61.098C67.6815 61.6446 72.4445 63.742 78.3031 62.0799C84.2511 60.3925 87.1996 56.0006 87.8704 54.9424H87.8736Z" fill="#FFD037"/>
<path d="M94.6365 70.8574C95.1796 72.0682 95.9431 74.191 95.9111 76.889C95.9015 77.7471 95.7578 83.1304 91.5635 87.0138C85.3918 92.7277 76.4985 89.6006 76.1119 89.4608C74.9492 89.0381 68.9915 86.6706 67.1579 80.7279C66.765 79.4504 65.8354 76.4378 67.2538 73.7684C69.5122 69.5163 76.0928 69.2144 81.0825 68.9856C84.0597 68.849 88.8514 68.992 94.6365 70.8574Z" fill="#FFD037"/>
<path d="M73.7309 85.9051C78.5385 89.2324 83.8381 88.403 85.8762 88.0852C89.3357 87.5449 91.9105 86.1689 93.3831 85.2314C92.2906 91.2091 88.2688 96.1507 82.7807 98.0511C76.0245 100.39 68.3195 97.6761 65.1314 92.9505C64.6299 92.2069 62.9624 89.7313 63.0231 86.4073C63.0518 84.8119 63.4703 83.563 64.1188 81.6245C64.7481 79.7464 65.2624 78.9551 65.8055 78.3513C66.4923 77.5854 67.227 77.1183 67.7445 76.8418C68.0575 78.2019 69.3098 82.8448 73.7309 85.902V85.9051Z" fill="#FFD037"/>
<path d="M71.9464 97.5707C71.1861 97.9456 70.0521 98.4287 68.6146 98.7528C67.0046 99.1151 62.427 100.151 58.4307 97.38C55.3609 95.254 54.4089 92.111 54.1949 91.3197C53.8595 90.0804 53.1343 87.4141 54.575 84.6938C56.1179 81.7797 59.0377 80.8772 59.8107 80.6706C62.0021 80.0827 63.8517 80.5181 64.6631 80.766C67.0909 86.3686 69.5154 91.968 71.9432 97.5707H71.9464Z" fill="#FFD037"/>
<path d="M57.1586 96.3985C56.5325 96.6718 53.9769 97.7078 51.0604 96.6814C47.2526 95.3435 46.0803 91.6317 45.8982 91.0184C45.7768 90.6084 44.2914 85.2696 48.0928 82.2823C50.5142 80.3788 54.06 80.2358 56.9158 81.9582C56.261 82.562 54.2389 84.5799 53.8268 87.8246C53.2007 92.7185 56.7944 96.0712 57.1618 96.3985H57.1586Z" fill="#FFD037"/>
<path d="M49.1081 81.7989C48.6673 81.4112 47.5908 80.5723 45.9776 80.318C45.5943 80.2576 43.2751 79.9367 41.2498 81.551C39.1319 83.2417 39.0137 85.7173 39.0041 86.1749C38.9211 89.2829 41.2562 91.1737 41.6715 91.4979C43.7798 93.1376 46.1405 92.9978 46.7155 92.947C46.4631 92.5879 44.5049 89.7055 45.5847 86.1908C46.428 83.4451 48.5747 82.1104 49.1081 81.7989Z" fill="#FFD037"/>
<path d="M45.2687 80.0608C45.3006 79.7271 45.3262 78.9294 44.8662 78.1095C44.1027 76.7367 42.6364 76.4602 42.4352 76.4253C41.0744 76.1901 40.0266 76.8606 39.672 77.0894C37.4551 78.5131 37.4199 81.3796 37.4199 81.5925C37.4263 83.7598 38.7169 85.2121 39.0714 85.5839C39.1289 85.1136 39.4356 83.0829 41.2501 81.5512C42.9048 80.1529 44.7512 80.0671 45.2687 80.0608Z" fill="#FFD037"/>
<path d="M39.4038 39.1641C42.4705 44.8557 44.1986 51.2147 44.4095 57.669C44.4574 59.1276 44.4286 60.5894 44.3264 62.0449C44.2913 62.5566 45.0899 62.5534 45.125 62.0449C45.5691 55.6224 44.5596 49.1141 42.1446 43.1365C41.5409 41.6397 40.8541 40.181 40.0906 38.7605C39.8478 38.3092 39.1578 38.7096 39.4006 39.1609L39.4038 39.1641Z" fill="#0C0D0D"/>
<path d="M44.729 62.0457C44.7578 62.033 44.7897 62.0393 44.8153 62.0584C45.9908 64.0732 47.1632 66.088 48.3388 68.1027C47.6743 68.0265 47.0067 67.9502 46.3422 67.8708C45.7896 65.945 45.2401 64.0191 44.6875 62.0965C44.6875 62.0902 44.6971 62.0584 44.729 62.0457Z" fill="#FC857F" stroke="#0C0D0D" stroke-width="2" stroke-miterlimit="10"/>
<path d="M44.7379 61.9502C44.7667 61.9502 44.7986 61.982 44.7922 62.0201C44.8593 64.3559 44.9264 66.6916 44.9935 69.0274C44.2971 68.6269 43.6007 68.2265 42.9043 67.8261C43.4985 65.8844 44.0926 63.9427 44.6868 62.0042C44.69 61.9724 44.7155 61.9534 44.7411 61.9534L44.7379 61.9502Z" fill="#FC857F" stroke="#0C0D0D" stroke-width="2" stroke-miterlimit="10"/>
<path d="M44.7507 62.0196C44.7667 62.0419 44.7571 62.0705 44.7571 62.0768C43.7061 64.1011 42.6552 66.1254 41.6042 68.1498C41.2177 67.3934 40.8311 66.6403 40.4414 65.8839C41.8438 64.5937 43.2429 63.3035 44.6453 62.0133C44.6868 61.9878 44.7315 61.9942 44.7507 62.0196Z" fill="#FC857F" stroke="#0C0D0D" stroke-width="2" stroke-miterlimit="10"/>
<path d="M77.1852 26.44C75.3548 25.8013 72.927 25.1562 70.0297 24.9178C65.7459 24.5651 62.2033 25.2451 59.8777 25.8903C58.7341 26.7133 56.3095 28.69 54.8018 32.1571C53.5527 35.0267 53.5048 37.5976 53.5783 38.9705" fill="#1C1C1C"/>
<path d="M77.1852 26.44C75.3548 25.8013 72.927 25.1562 70.0297 24.9178C65.7459 24.5651 62.2033 25.2451 59.8777 25.8903C58.7341 26.7133 56.3095 28.69 54.8018 32.1571C53.5527 35.0267 53.5048 37.5976 53.5783 38.9705" stroke="#070001" stroke-width="2" stroke-miterlimit="10"/>
<path d="M77.1846 26.4399C80.2992 25.0766 83.4138 23.7133 86.5251 22.35C75.9899 20.3384 65.4578 18.3268 54.9225 16.3184C49.9583 23.8023 44.9942 31.2894 40.0332 38.7734C41.4995 39.3136 43.71 39.9365 46.4572 40.0223C49.5367 40.1176 52.0156 39.4947 53.5776 38.9704C53.5106 37.5276 53.5585 34.283 55.456 30.8572C56.8839 28.2799 58.7463 26.7069 59.8739 25.8934C62.3176 25.2165 66.0647 24.5141 70.5753 24.9718C73.2011 25.2387 75.434 25.8298 77.1814 26.4431L77.1846 26.4399Z" fill="#222628"/>
<path d="M54.0343 34.4553C52.9386 35.3896 51.0667 36.7434 48.4185 37.611C44.8758 38.7709 41.8124 38.4404 40.2758 38.1671C40.1001 38.4309 39.9245 38.6978 39.752 38.9616C41.7389 39.5749 44.7832 40.2359 48.4728 39.9531C50.4789 39.7974 52.2039 39.4001 53.5839 38.9711C53.5424 38.3546 53.536 37.6396 53.6095 36.8419C53.6925 35.9203 53.8586 35.1163 54.0375 34.4521L54.0343 34.4553Z" fill="#0C0D0D"/>
<path d="M60.033 25.5027C57.2985 23.1193 55.5735 19.7793 55.2189 16.1819C55.1678 15.6766 54.3692 15.6735 54.4203 16.1819C54.7973 19.989 56.5702 23.5356 59.4707 26.0652C59.8573 26.402 60.4227 25.8427 60.0362 25.5027H60.033Z" fill="#6D6E71"/>
<path d="M53.5801 38.9711C54.2158 39.6194 55.4648 40.7221 57.3719 41.4053C58.902 41.9519 60.2501 42.0123 61.0966 41.9837C61.694 40.7221 63.5787 37.166 67.8145 34.8303C71.7118 32.682 75.3981 32.7774 76.8293 32.8886C77.0656 32.2943 77.2957 31.5602 77.4298 30.6958C77.7109 28.8971 77.4426 27.3877 77.1838 26.4375C75.2161 25.732 72.3794 24.9566 68.8975 24.7818C65.045 24.5879 61.8761 25.1981 59.7518 25.7828C58.6497 26.5964 56.5062 28.4014 55.0304 31.4903C53.5002 34.6968 53.4938 37.6046 53.5801 38.9711Z" fill="#222628"/>
<path d="M77.4686 27.8926C73.0571 25.6458 67.7415 26.0208 63.7102 28.8587C59.6117 31.7442 57.4938 36.7176 58.254 41.6751C57.6247 41.5131 56.8293 41.2429 55.9732 40.779C54.8871 40.1911 54.1013 39.5046 53.5806 38.9707C53.5167 37.4708 53.5806 33.9751 55.724 30.4C57.0817 28.1373 58.7556 26.7009 59.88 25.8905C62.2056 25.2422 65.745 24.5654 70.032 24.9181C72.9293 25.1564 75.3539 25.7984 77.1875 26.4403C77.2833 26.9234 77.376 27.4096 77.4718 27.8926H77.4686Z" fill="#0C0D0D"/>
<path d="M77.3851 26.0968C75.7464 25.331 74.0565 24.9051 72.2644 24.6668C69.5524 24.3077 66.7892 24.2505 64.0707 24.5683C62.9111 24.7049 61.7611 24.8988 60.6239 25.1594C60.2086 25.2547 59.7262 25.3055 59.3812 25.5661C59.0874 25.7886 58.7999 26.0174 58.5219 26.2589C56.7618 27.7875 55.3499 29.7133 54.4299 31.852C53.5099 33.9907 53.0339 36.5394 53.1776 38.9705C53.2096 39.4789 54.0082 39.4821 53.9762 38.9705C53.7143 34.6263 55.3914 30.3203 58.5539 27.3044C58.8414 27.028 59.1417 26.7642 59.4515 26.5131C59.7614 26.2621 59.953 26.1382 60.33 26.046C61.365 25.7918 62.4128 25.5884 63.4669 25.439C66.0864 25.0704 68.741 25.0831 71.3668 25.3532C73.3154 25.5534 75.2001 25.9507 76.9794 26.7801C77.4426 26.9962 77.8483 26.3098 77.3819 26.0937L77.3851 26.0968Z" fill="#6D6E71"/>
<path d="M77.2902 26.8216C80.6987 25.4169 84.1072 24.0091 87.5188 22.6045C87.8383 22.4742 87.9533 21.9181 87.5188 21.8386C79.0568 20.2719 70.5947 18.702 62.1358 17.1353C59.7336 16.6904 57.3313 16.2455 54.9291 15.8006C54.7438 15.7657 54.5809 15.8261 54.4787 15.9818C50.5655 21.899 46.6523 27.8131 42.7359 33.7303C41.6274 35.4082 40.5158 37.0862 39.4073 38.7641C39.2604 38.9865 39.4137 39.2757 39.6469 39.3488C44.199 40.7662 49.1344 40.7693 53.6897 39.3584L53.2999 39.2567C55.338 41.3286 58.1842 42.4727 61.0976 42.3837C61.2317 42.3805 61.3819 42.3138 61.4426 42.1867C63.749 37.423 68.3873 34.0481 73.6741 33.3807C74.7187 33.2473 75.7761 33.2187 76.827 33.2918C77.0155 33.3045 77.1497 33.1583 77.2136 32.9994C78.0377 30.8766 78.1591 28.5376 77.5681 26.3385C77.4372 25.8459 76.6641 26.0557 76.7983 26.5483C77.3541 28.6202 77.2199 30.7876 76.4437 32.7865L76.8302 32.4941C71.2048 32.1096 65.6816 34.6741 62.3338 39.1772C61.7269 39.9939 61.1966 40.8678 60.7526 41.7831L61.0976 41.5861C58.3855 41.6687 55.7629 40.62 53.8622 38.691C53.7663 38.5925 53.6066 38.548 53.4724 38.5893C49.0449 39.9622 44.2788 39.959 39.8545 38.5798L40.0941 39.1645C44.0073 33.2473 47.9205 27.3332 51.8369 21.416C52.9454 19.738 54.057 18.0601 55.1655 16.3822L54.7151 16.5633C63.1772 18.13 71.6393 19.6999 80.0981 21.2666C82.5004 21.7115 84.9026 22.1564 87.3048 22.6013V21.8354C83.8963 23.2401 80.4879 24.6479 77.0762 26.0525C76.6066 26.2464 76.8143 27.0154 77.287 26.8184L77.2902 26.8216Z" fill="#0C0D0D"/>
<path d="M84.3627 42.6609C83.6567 41.8187 82.4748 41.5359 81.4781 41.9649C80.4431 42.413 79.8394 43.5284 80.0374 44.6502C80.1301 44.4278 80.638 43.2742 81.9573 42.7403C83.0849 42.2859 84.0848 42.5719 84.3595 42.6577L84.3627 42.6609Z" fill="#0C0D0D"/>
<path d="M84.5031 42.5208C83.7172 41.6024 82.3883 41.31 81.2926 41.8344C80.1969 42.3587 79.6571 43.5504 79.8456 44.704C79.8807 44.9233 80.165 44.8597 80.2321 44.704C80.2257 44.7199 80.2449 44.6754 80.2608 44.6405C80.2864 44.5864 80.3119 44.5356 80.3375 44.4847C80.4078 44.3513 80.4876 44.221 80.5739 44.1002C80.8262 43.7379 81.1521 43.4233 81.5258 43.1882C82.3532 42.6702 83.3818 42.5589 84.3082 42.8545C84.5542 42.9339 84.6596 42.5494 84.4136 42.4699C83.3914 42.1426 82.235 42.2729 81.3246 42.8418C80.6633 43.2581 80.1458 43.8809 79.8456 44.5991H80.2321C80.0724 43.6108 80.5867 42.6098 81.4939 42.1776C82.4011 41.7454 83.5543 42.0282 84.2188 42.8036C84.3849 42.9975 84.666 42.7178 84.4999 42.524L84.5031 42.5208Z" fill="#0C0D0D"/>
<path d="M69.3236 49.0066C68.6177 48.1644 67.4357 47.8816 66.4391 48.3106C65.4041 48.7587 64.8003 49.8741 64.9984 50.9959C65.091 50.7735 65.5989 49.6199 66.9182 49.086C68.0459 48.6316 69.0457 48.9176 69.3204 49.0034L69.3236 49.0066Z" fill="#0C0D0D"/>
<path d="M69.464 48.8665C68.6782 47.9481 67.3493 47.6557 66.2536 48.1801C65.1579 48.7044 64.618 49.8961 64.8065 51.0497C64.8416 51.269 65.1259 51.2054 65.193 51.0497C65.1866 51.0656 65.2058 51.0211 65.2218 50.9862C65.2473 50.9321 65.2729 50.8813 65.2984 50.8304C65.3687 50.697 65.4486 50.5667 65.5348 50.4459C65.7872 50.0836 66.113 49.769 66.4868 49.5339C67.3141 49.0159 68.3427 48.9046 69.2691 49.2002C69.5151 49.2796 69.6205 48.8951 69.3745 48.8157C68.3523 48.4883 67.1959 48.6186 66.2855 49.1875C65.6243 49.6038 65.1068 50.2266 64.8065 50.9448H65.193C65.0333 49.9565 65.5476 48.9555 66.4548 48.5233C67.362 48.0911 68.5152 48.3739 69.1797 49.1493C69.3458 49.3432 69.6269 49.0635 69.4608 48.8697L69.464 48.8665Z" fill="#0C0D0D"/>
<path d="M79.2959 54.771C78.9796 55.3112 78.5132 55.7561 77.9063 56.0453C77.5421 56.2201 77.1332 56.3123 76.7307 56.3282C76.571 56.3345 76.4145 56.3313 76.2548 56.3186C76.2228 56.3186 76.0567 56.2932 76.1557 56.3091C76.1078 56.3027 76.0567 56.2932 76.0088 56.2837C75.7979 56.2455 75.5775 56.3409 75.5168 56.5601C75.4625 56.754 75.5839 57.0082 75.7948 57.0495C77.4431 57.3578 79.1329 56.6237 79.9827 55.1714C80.2414 54.7297 79.5514 54.3293 79.2927 54.771H79.2959Z" fill="#0C0D0D"/>
<path d="M70.5555 73.9113C70.5204 74.1783 70.4182 74.6613 70.0859 75.1571C69.8368 75.5289 69.5525 75.7672 69.3512 75.9102C68.8912 75.6051 68.3034 75.1348 67.77 74.4389C67.54 74.137 67.3547 73.8414 67.2109 73.5713C67.7572 73.6698 68.3546 73.7556 68.9902 73.8192C69.5397 73.8732 70.0636 73.9018 70.5523 73.9145L70.5555 73.9113Z" fill="#F18300"/>
<path d="M67.253 73.7682C67.8951 74.6135 68.9844 75.8211 70.6423 76.7967C72.8049 78.0679 74.8142 78.2808 77.0024 78.4906C78.9287 78.6749 81.053 78.8687 83.7299 78.2045C85.0428 77.8804 89.5854 76.5775 92.7319 72.3604C93.4666 71.3752 93.9458 70.4727 94.2428 69.8467L94.639 70.8573C94.4026 71.8488 93.917 73.425 92.8213 75.0457C87.394 83.089 73.1308 83.2097 69.0195 79.3041C68.3679 78.6844 66.432 76.8444 66.8026 74.8614C66.892 74.372 67.0997 74.0002 67.253 73.7714V73.7682Z" fill="#F18300"/>
<path d="M93.3841 85.2305C92.4481 86.7941 89.5572 91.1382 84.1074 92.7812C76.4152 95.1011 68.2438 90.6457 65.8065 85.9011C65.2986 84.9096 64.1805 82.7359 64.8801 80.2794C65.2506 78.9796 65.9917 78.0707 66.5124 77.54C66.5891 78.5983 66.8223 80.1586 67.5794 81.8683C69.8538 86.9879 74.8308 88.9105 75.8849 89.3205C76.3354 89.4953 83.3184 92.063 89.7584 88.2495C91.4579 87.2453 92.6398 86.079 93.3841 85.2305Z" fill="#F18300"/>
<path d="M70.7638 97.6884C69.8885 97.7011 68.5916 97.6153 67.1413 97.1005C62.9342 95.6005 61.2156 91.8188 61.0016 91.3263C59.2286 87.2331 59.9889 81.586 62.4774 80.6263C63.2377 80.3339 64.0459 80.5214 64.6656 80.7693C64.3717 81.2714 64.0139 81.9737 63.7136 82.8508C63.0843 84.694 63.0747 86.248 63.0939 86.874C63.1674 89.2988 64.0267 91.0498 64.3781 91.7489C66.2436 95.448 69.5563 97.1418 70.7606 97.6884H70.7638Z" fill="#F18300"/>
<path d="M57.158 96.3985C56.7619 96.0584 53.4333 93.0871 53.7432 88.4315C53.9891 84.7261 56.3722 82.4539 56.9152 81.9613C56.3339 81.6117 55.5736 81.3067 54.759 81.437C52.4686 81.8024 51.1653 85.3871 51.0982 87.9898C51.0055 91.8128 53.5355 95.9091 56.4648 96.3635C56.7396 96.4048 56.9759 96.4112 57.1548 96.4048L57.158 96.3985Z" fill="#F18300"/>
<path d="M87.8725 54.9424L88.3581 55.3619C87.9971 56.633 87.2624 58.5906 85.7003 60.5228C81.95 65.1561 76.462 65.8807 75.1139 66.0618C74.4112 66.154 71.5968 66.4813 68.1373 65.6233C66.9585 65.3309 65.9906 64.9718 65.291 64.6731C65.3166 64.1932 65.4028 63.5322 65.6616 62.7854C65.9171 62.0513 66.2525 61.4888 66.5241 61.098C67.6805 61.6446 72.4434 63.742 78.302 62.0799C84.25 60.3925 87.1985 56.0006 87.8694 54.9424H87.8725Z" fill="#F18300"/>
<path d="M77.8108 33.0055C76.1816 33.0691 73.4791 33.3773 70.5147 34.7661C69.6394 35.176 65.5281 37.1844 62.5062 41.8909C60.3691 45.2182 59.7174 48.4342 59.4906 50.3282C59.4044 49.1174 59.1392 43.518 63.2345 38.6367C63.9501 37.7851 67.1765 34.1178 72.6869 33.104C74.7984 32.7131 76.6001 32.8339 77.814 33.0055H77.8108Z" fill="#F18300"/>
<path d="M49.1084 81.7988C48.7251 81.2681 48.2268 80.8105 47.6198 80.7564C45.9523 80.6071 44.1507 83.5498 43.8376 86C43.3648 89.6831 46.2303 92.4892 46.7158 92.95C46.2303 92.1397 45.2176 90.1884 45.4221 87.6429C45.4923 86.7531 45.6521 85.0434 46.9426 83.4926C47.6997 82.5806 48.559 82.0721 49.1084 81.802V81.7988Z" fill="#F18300"/>
<path d="M45.2909 80.1719C45.2047 79.6222 45.0066 79.066 44.5562 78.7959C43.3391 78.0682 40.7005 79.6508 39.5824 81.745C38.7327 83.3403 38.918 84.9578 39.0586 85.7078C39.1129 85.3265 39.5952 82.2471 42.2977 80.8266C43.4829 80.2037 44.6297 80.1465 45.2909 80.1719Z" fill="#F18300"/>
<path d="M94.2392 69.8467C94.6545 70.7651 95.172 72.1221 95.4947 73.8254C95.8109 75.5129 96.4722 79.0403 94.7631 82.768C94.5235 83.2892 93.3544 85.7425 90.6519 87.7414C86.4927 90.8176 81.8384 90.4966 80.3434 90.3727C79.3116 90.2869 73.584 89.7181 69.8305 85.3198C68.0799 83.2701 67.1216 80.8136 66.799 79.4058C66.5754 78.4397 66.5115 77.5435 66.5115 77.5435C66.5115 77.0319 66.4508 76.1961 66.7287 75.1665C66.9172 74.4737 67.1791 73.9335 67.3804 73.5744" stroke="#0C0D0D" stroke-width="2" stroke-miterlimit="10"/>
<path d="M93.4685 84.8998C93.1682 86.5873 92.1747 90.8202 88.5139 94.2936C84.4346 98.1611 77.8796 100.281 71.8996 98.0976C70.6793 97.6527 65.6065 95.8 63.6931 90.5183C62.1406 86.2377 63.2363 81.2738 66.5074 77.543" stroke="#0C0D0D" stroke-width="2" stroke-miterlimit="10"/>
<path d="M71.0819 97.7327C69.3793 98.5367 67.8683 98.8577 66.8493 99.0007C65.8654 99.1373 63.7507 99.4106 61.2399 98.6607C59.8599 98.2475 58.9143 97.6946 58.6715 97.5484C58.6715 97.5484 56.806 96.4266 55.5761 94.7328C53.5732 91.9648 52.6021 86.0698 56.1958 82.66C59.2721 79.7427 63.7251 80.5181 64.2746 80.6229" stroke="#0C0D0D" stroke-width="2" stroke-miterlimit="10"/>
<path d="M57.1577 96.3974C56.4134 96.6993 54.2731 97.4525 51.708 96.7629C47.798 95.711 46.2678 92.1994 46.0985 91.7863C44.9293 88.977 45.1274 85.0809 47.6446 82.7261C49.6252 80.8702 52.1712 80.7908 52.727 80.7844C54.781 80.7685 56.2856 81.5725 56.9149 81.9571" stroke="#0C0D0D" stroke-width="2" stroke-miterlimit="10"/>
<path d="M46.7146 92.9471C46.3185 92.9916 43.2326 93.2903 40.9582 90.9832C39.2204 89.2194 38.5113 86.4992 39.377 84.1475C40.182 81.9611 42.0315 80.9633 42.2967 80.8266C43.8364 80.0258 45.2643 80.1338 45.5933 80.1656C47.5132 80.3499 48.7399 81.44 49.1072 81.7927" stroke="#0C0D0D" stroke-width="2" stroke-miterlimit="10"/>
<path d="M45.1342 80.0606C45.1469 79.889 45.2492 78.0331 43.8628 76.978C42.1697 75.6878 39.9528 76.8827 39.7835 76.978C37.4228 78.3 37.4962 81.4525 37.509 81.7925C37.5857 83.766 38.6622 85.123 39.0711 85.5869" stroke="#0C0D0D" stroke-width="2" stroke-miterlimit="10"/>
<path d="M87.873 54.9423C86.6399 56.9507 84.9245 58.4252 84.423 58.8415C82.2731 60.6307 80.2223 61.4411 79.4716 61.7175C76.1015 62.9474 73.1083 62.7758 71.4887 62.5501C69.9011 62.3309 67.3391 61.9432 64.7676 60.0618C61.2345 57.475 60.1325 53.8554 59.8322 52.6796C59.2508 50.4074 59.4361 48.5134 59.5543 47.4043C59.829 44.808 60.6436 42.9171 60.963 42.2275C62.9883 37.8515 66.483 35.6588 67.3168 35.1599C68.5466 34.4226 72.5684 32.0996 77.8105 33.0021C85.2056 34.2701 88.4544 40.8165 88.6077 41.1343C91.0611 46.292 89.8759 51.6817 87.8762 54.9391L87.873 54.9423Z" stroke="#0C0D0D" stroke-width="2" stroke-miterlimit="10"/>
<path d="M87.8719 54.9424C89.8429 56.6426 91.1973 58.3014 92.0822 59.5344C93.312 61.2473 93.8583 62.2515 94.1777 63.0651C94.2576 63.2653 94.7495 64.5237 94.9061 65.69C95.3884 69.3128 92.6859 72.5416 91.948 73.4218C89.1465 76.765 85.5336 77.8041 83.9012 78.249C83.0419 78.4842 79.6558 79.3359 75.4583 78.4461C73.8419 78.1029 71.7272 77.6294 69.5805 75.9737C67.1591 74.1051 66.1657 71.8615 65.9804 71.4293C65.8302 71.0797 65.1914 69.5321 65.1051 67.3711C64.9933 64.5364 65.9037 62.3087 66.5234 61.098" stroke="#0C0D0D" stroke-width="2" stroke-miterlimit="10"/>
<path d="M71.2331 66.9298C69.6199 66.6215 68.176 67.7433 66.7673 68.8333C65.563 69.7676 64.1191 70.8862 64.3363 71.9254C64.7101 73.7209 69.7509 73.883 70.5559 73.9084C72.5748 73.972 73.9676 74.0165 74.5809 73.1553C75.7085 71.5758 73.8877 67.4382 71.2331 66.9298Z" fill="#FFD037"/>
<path d="M74.9168 72.0465C74.5048 72.4628 74.1278 72.609 73.9138 72.6694C71.4924 73.359 69.17 69.126 66.0331 69.6694C65.835 69.7044 65.6817 69.7489 65.6146 69.7711C65.4198 69.9141 65.1386 70.1493 64.8799 70.5052C64.6403 70.8357 64.241 71.3855 64.3368 71.9321C64.4518 72.574 65.1993 72.9141 65.8286 73.2001C66.5634 73.5337 67.1991 73.6132 68.4385 73.7594C68.7388 73.7943 69.4927 73.8388 71.0068 73.9278C71.0068 73.9278 71.5786 73.9628 72.735 73.9151C73.1311 73.8992 73.441 73.877 73.8084 73.7212C74.0064 73.6354 74.3291 73.4956 74.5814 73.1619C74.9168 72.7234 74.9264 72.2372 74.9168 72.0497V72.0465Z" fill="#F18300"/>
<path d="M71.7307 67.0723C71.424 66.942 70.964 66.7958 70.405 66.8117C69.7309 66.8308 69.2997 67.0787 67.6769 68.1465C65.8082 69.3795 65.4664 69.6528 65.0766 70.1485C64.6486 70.6951 64.1854 71.2926 64.3355 71.9281C64.4984 72.6209 65.3003 72.9641 66.0509 73.2724C66.5716 73.4885 67.0668 73.622 69.4371 73.8667C69.9769 73.9207 71.3409 74.0573 72.9957 73.8984C73.4365 73.8571 73.8965 73.7936 74.2798 73.4535C74.8293 72.9673 74.8772 72.2205 74.9027 71.836C75.0177 70.0532 73.7911 68.7058 73.5068 68.3943C73.1841 68.0416 72.6155 67.5045 71.7307 67.0755V67.0723Z" stroke="#0C0D0D" stroke-width="2" stroke-miterlimit="10"/>
<path d="M72.0566 45.724L72.1046 45.5873C72.178 45.3776 72.4144 44.8596 73.0022 44.5513C73.2769 44.4051 73.574 44.332 73.8902 44.332C74.0659 44.332 74.2416 44.3543 74.4014 44.3988L74.5419 44.4369L75.3341 46.1307L74.7336 46.029C74.6537 46.0163 74.5707 46.0068 74.4876 46.0068C74.2704 46.0068 74.0627 46.0513 73.8711 46.1403C73.4909 46.315 73.2897 46.6074 73.2034 46.7631L72.9255 47.2684L72.0566 45.7176V45.724Z" fill="#077BB3"/>
<path d="M73.8901 44.6495C74.1041 44.6495 74.2606 44.6908 74.3149 44.7067C74.4715 45.0436 74.6312 45.3804 74.7877 45.7173C74.727 45.7077 74.6216 45.6918 74.4874 45.6918C74.2862 45.6918 74.0179 45.7236 73.7367 45.8539C73.2352 46.0859 72.9956 46.48 72.9222 46.6134C72.7497 46.3052 72.5772 46.0001 72.4079 45.6918C72.4462 45.5806 72.6315 45.1071 73.1554 44.8306C73.4237 44.6876 73.6856 44.6495 73.8933 44.6495M73.8901 44.0139C73.5227 44.0139 73.1713 44.0997 72.8519 44.2682C72.1651 44.6304 71.8904 45.2374 71.8009 45.4789L71.7051 45.7491L71.8456 46.0001L72.1044 46.4609L72.3631 46.9217L72.9254 47.9259L73.4812 46.9153C73.5483 46.7914 73.708 46.5626 74.0051 46.4259C74.1552 46.356 74.3181 46.3211 74.4874 46.3211C74.5545 46.3211 74.6184 46.3274 74.6823 46.337L75.8834 46.5435L75.3691 45.444L75.2413 45.1707L74.8963 44.4334L74.7717 44.1696L74.4874 44.0902C74.3022 44.0393 74.0945 44.0107 73.8901 44.0107V44.0139Z" fill="#0C0D0D"/>
<path d="M64.9634 59.2868C59.9577 59.2868 55.8848 55.235 55.8848 50.2552C55.8848 45.2754 59.9577 41.2236 64.9634 41.2236C69.9691 41.2236 74.042 45.2754 74.042 50.2552C74.042 55.235 69.9691 59.2868 64.9634 59.2868ZM64.9634 42.8825C60.8777 42.8825 57.5523 46.1907 57.5523 50.2552C57.5523 54.3197 60.8777 57.6279 64.9634 57.6279C69.0491 57.6279 72.3713 54.3197 72.3713 50.2552C72.3713 46.1907 69.0491 42.8825 64.9634 42.8825Z" fill="#077BB3"/>
<path d="M64.9625 41.5418C69.7989 41.5418 73.7217 45.4443 73.7217 50.2556C73.7217 55.0669 69.7989 58.9694 64.9625 58.9694C60.1261 58.9694 56.2033 55.0669 56.2033 50.2556C56.2033 45.4443 60.1261 41.5418 64.9625 41.5418ZM64.9625 57.9461C69.2303 57.9461 72.6899 54.5013 72.6899 50.2556C72.6899 46.0099 69.2303 42.5651 64.9625 42.5651C60.6947 42.5651 57.232 46.0099 57.232 50.2556C57.232 54.5013 60.6947 57.9461 64.9625 57.9461ZM64.9625 40.9062C59.7811 40.9062 55.5645 45.1011 55.5645 50.2556C55.5645 55.4102 59.7811 59.605 64.9625 59.605C70.1439 59.605 74.3606 55.4102 74.3606 50.2556C74.3606 45.1011 70.1439 40.9062 64.9625 40.9062ZM64.9625 57.3105C61.0525 57.3105 57.8708 54.1454 57.8708 50.2556C57.8708 46.3659 61.0525 43.2007 64.9625 43.2007C68.8725 43.2007 72.051 46.3659 72.051 50.2556C72.051 54.1454 68.8725 57.3105 64.9625 57.3105Z" fill="#0C0D0D"/>
<path d="M82.481 50.4899C77.4753 50.4899 73.4023 46.4381 73.4023 41.4583C73.4023 36.4786 77.4753 32.4268 82.481 32.4268C87.4867 32.4268 91.5596 36.4786 91.5596 41.4583C91.5596 46.4381 87.4867 50.4899 82.481 50.4899ZM82.481 34.0856C78.3953 34.0856 75.0698 37.3938 75.0698 41.4583C75.0698 45.5229 78.3953 48.831 82.481 48.831C86.5667 48.831 89.8889 45.5229 89.8889 41.4583C89.8889 37.3938 86.5667 34.0856 82.481 34.0856Z" fill="#077BB3"/>
<path d="M82.4801 32.745C87.3165 32.745 91.2393 36.6474 91.2393 41.4587C91.2393 46.2701 87.3165 50.1725 82.4801 50.1725C77.6437 50.1725 73.7209 46.2701 73.7209 41.4587C73.7209 36.6474 77.6437 32.745 82.4801 32.745ZM82.4801 49.1492C86.7479 49.1492 90.2075 45.7044 90.2075 41.4587C90.2075 37.2131 86.7479 33.7682 82.4801 33.7682C78.2123 33.7682 74.7495 37.2131 74.7495 41.4587C74.7495 45.7044 78.2123 49.1492 82.4801 49.1492ZM82.4801 32.1094C77.2987 32.1094 73.082 36.3042 73.082 41.4587C73.082 46.6133 77.2987 50.8081 82.4801 50.8081C87.6615 50.8081 91.8781 46.6133 91.8781 41.4587C91.8781 36.3042 87.6615 32.1094 82.4801 32.1094ZM82.4801 48.5137C78.5701 48.5137 75.3884 45.3485 75.3884 41.4587C75.3884 37.569 78.5701 34.4038 82.4801 34.4038C86.3901 34.4038 89.5686 37.569 89.5686 41.4587C89.5686 45.3485 86.3901 48.5137 82.4801 48.5137Z" fill="#0C0D0D"/>
<path d="M90.2753 45.5197C89.9144 46.2189 88.9273 47.9 86.8764 49.0822C84.6339 50.3756 82.4809 50.2898 81.6855 50.2198C80.922 50.1499 78.4623 49.829 76.3699 47.8046C74.7376 46.2252 74.1753 44.4297 73.9805 43.6416C74.3063 44.4996 75.188 46.4509 77.2676 47.9604C77.9224 48.437 79.9221 49.8448 82.7045 49.7495C84.2985 49.6955 85.4645 49.1711 86.1801 48.8406C88.3363 47.8428 89.6396 46.3587 90.2753 45.5197Z" fill="#0A5877"/>
<path d="M71.9578 55.495C71.4946 56.1147 70.4947 57.281 68.8049 58.1009C68.2458 58.371 66.8435 58.978 64.9619 58.9684C61.694 58.9557 59.525 57.103 59.1576 56.7789C57.4486 55.2757 56.7969 53.5056 56.5605 52.7207C56.8992 53.5342 57.7649 55.298 59.6815 56.7153C60.2437 57.1284 61.694 58.1041 63.6618 58.4187C68.0765 59.1242 71.5074 55.9304 71.961 55.495H71.9578Z" fill="#0A5877"/>
<path d="M117.01 40.439C116.997 40.4931 116.729 41.7102 117.563 42.4697C117.968 42.8415 118.441 42.9242 118.655 42.9496C122.418 43.3023 126.181 43.6551 129.944 44.0078C130.449 38.2399 130.951 32.4721 131.455 26.7042C131.497 26.5485 131.628 25.986 131.337 25.3822C130.963 24.61 130.2 24.397 130.082 24.3653C126.255 24.0411 122.425 23.7138 118.598 23.3896C118.067 29.0717 117.537 34.7538 117.01 40.4359V40.439Z" fill="#832706" stroke="#342F2E" stroke-width="2" stroke-miterlimit="10"/>
<path d="M123.888 39.4759C123.971 39.0024 123.719 38.6306 123.629 38.5035C123.147 37.798 122.24 37.7535 122.112 37.7503C120.502 37.6073 118.892 37.4643 117.285 37.3213C117.196 38.3605 117.103 39.3996 117.014 40.4388C117.161 40.3562 117.384 40.2545 117.672 40.1973C118.033 40.1274 118.317 40.1687 118.435 40.1846C118.981 40.2577 120.176 40.3848 121.777 40.5596C121.911 40.5882 122.815 40.7693 123.45 40.2036C123.553 40.1115 123.824 39.8731 123.895 39.4759H123.888Z" fill="#591A04" stroke="#342F2E" stroke-width="2" stroke-miterlimit="10"/>
<path d="M100.789 15.2258C108.22 15.9663 115.647 16.7099 123.077 17.4504C123.416 17.5552 124.24 17.8571 124.898 18.6707C125.588 19.5223 125.697 20.5424 125.709 21.3147C125.741 23.447 125.099 30.3081 123.869 39.5621C123.888 39.4032 123.917 38.9456 123.633 38.5007C123.157 37.7571 122.237 37.7444 122.17 37.7444C113.874 36.9118 105.581 36.0823 97.2852 35.2497C97.5886 32.1704 98.0167 28.8876 98.6172 25.4332C99.2497 21.7818 99.994 18.3719 100.793 15.2227L100.789 15.2258Z" fill="#D86339" stroke="#342F2E" stroke-width="2" stroke-miterlimit="10"/>
<path d="M114.011 33.8448C113.196 33.8384 112.388 33.7876 111.586 33.6954C110.784 33.6033 110.27 33.5079 110.046 33.4094C109.823 33.3109 109.724 33.1774 109.743 33.0058L110.727 24.5145L108.711 24.2825C108.488 24.2571 108.43 23.7645 108.542 22.808C108.654 21.8514 108.864 20.9997 109.178 20.2529C109.273 20.0114 109.995 19.8621 111.35 19.8049C112.704 19.7477 113.739 19.7604 114.448 19.8398C115.158 19.9193 115.63 20.0019 115.86 20.0813C116.09 20.1608 116.263 20.2434 116.371 20.3292C116.483 20.415 116.563 20.5072 116.621 20.6057C116.694 20.7614 116.726 20.9044 116.71 21.0347L115.253 33.635C115.237 33.778 114.822 33.848 114.008 33.8416L114.011 33.8448Z" fill="white" stroke="#342F2E" stroke-width="2" stroke-miterlimit="10"/>
<path d="M103.597 14.771C103.619 15.9723 102.897 17.0114 101.853 17.4563C101.294 19.916 100.792 22.3884 100.351 24.8704C100.067 26.4689 99.8083 28.0705 99.5752 29.6785C99.5113 30.1139 99.4474 30.5524 99.3899 30.991C99.3899 31.0005 99.3867 31.026 99.3803 31.0546V31.0641C99.3803 31.0641 99.3771 31.0927 99.3739 31.1086C99.3739 31.1149 99.3707 31.1213 99.3707 31.1276V31.1499L99.3675 31.1594C99.3643 31.169 99.3643 31.1753 99.3643 31.1817C99.3643 31.1944 99.3643 31.1976 99.3643 31.1976L99.3452 31.3342C99.3196 31.5217 99.2972 31.7092 99.2717 31.8967C99.1631 32.7515 99.0577 33.6064 98.9618 34.4613C98.5593 38.0745 98.2782 41.7005 98.1249 45.3328C97.8374 52.143 97.9971 58.966 98.5881 65.754C98.6647 66.6406 97.7958 67.308 96.9908 67.3429C96.0772 67.3842 95.4671 66.5802 95.3936 65.754C95.0742 62.0835 94.8793 58.4003 94.8154 54.7171C94.6877 47.4747 95.0614 40.2228 95.9367 33.028C96.5947 27.6065 97.5179 22.2137 98.7158 16.8812C98.1856 16.3759 97.8533 15.664 97.8374 14.8759C97.8086 13.2933 99.0736 11.9872 100.664 11.9586C102.255 11.9268 103.568 13.1884 103.6 14.771H103.597Z" fill="#832706" stroke="#342F2E" stroke-width="2" stroke-miterlimit="10"/>
<path d="M97.974 55.95C97.1786 55.8038 96.3065 57.2116 95.5686 58.4033C94.7189 59.773 94.1087 60.7613 94.508 61.5176C95.0798 62.5981 97.5012 62.8015 98.5235 61.7369C98.6161 61.6384 98.9036 61.3174 99.0729 60.4149C99.4083 58.6099 98.9579 56.1279 97.974 55.95Z" fill="#FFD037" stroke="black" stroke-width="2" stroke-miterlimit="10"/>
<path d="M108.792 99.3662H26.8477V229.682H108.792V99.3662Z" fill="#EFBF04" stroke="#856A00" stroke-width="2" stroke-miterlimit="10"/>
<g filter="url(#filter0_d_1901_852)">
<path d="M112.864 99.3662H22.7773V115.396H112.864V99.3662Z" fill="#EFBF04"/>
<path d="M112.864 99.3662H22.7773V115.396H112.864V99.3662Z" stroke="#856A00" stroke-width="2" stroke-miterlimit="10"/>
</g>
<path opacity="0.2" d="M39.4921 115.999H37.1602V229.501H39.4921V115.999Z" fill="#EFBF04" stroke="#F4FFE6" stroke-width="2" stroke-miterlimit="10"/>
<path opacity="0.2" d="M49.5839 115.999H47.252V229.501H49.5839V115.999Z" fill="#EFBF04" stroke="#F4FFE6" stroke-width="2" stroke-miterlimit="10"/>
<path opacity="0.2" d="M59.6776 115.999H57.3457V229.501H59.6776V115.999Z" fill="#EFBF04" stroke="#F4FFE6" stroke-width="2" stroke-miterlimit="10"/>
<path opacity="0.2" d="M69.7714 115.999H67.4395V229.501H69.7714V115.999Z" fill="#EFBF04" stroke="#F4FFE6" stroke-width="2" stroke-miterlimit="10"/>
<path opacity="0.2" d="M79.8671 115.999H77.5352V229.501H79.8671V115.999Z" fill="#EFBF04" stroke="#F4FFE6" stroke-width="2" stroke-miterlimit="10"/>
<path opacity="0.2" d="M89.9608 115.999H87.6289V229.501H89.9608V115.999Z" fill="#EFBF04" stroke="#F4FFE6" stroke-width="2" stroke-miterlimit="10"/>
<path opacity="0.2" d="M100.053 115.999H97.7207V229.501H100.053V115.999Z" fill="#EFBF04" stroke="#F4FFE6" stroke-width="2" stroke-miterlimit="10"/>
<g opacity="0.5">
<path d="M109.165 79.2283L112.008 80.2738L109.165 81.3193C108.619 81.5195 108.191 81.9485 107.99 82.4888L106.939 85.3171L105.888 82.4888C105.686 81.9454 105.255 81.5195 104.712 81.3193L101.869 80.2738L104.712 79.2283C105.258 79.0281 105.686 78.599 105.888 78.0588L106.939 75.2305L107.99 78.0588C108.191 78.6022 108.622 79.0281 109.165 79.2283Z" fill="#D86339"/>
<path d="M102.741 86.8612L104.421 87.4809L102.741 88.1006C102.408 88.2245 102.146 88.4851 102.022 88.8156L101.399 90.4872L100.776 88.8156C100.651 88.4851 100.389 88.2245 100.057 88.1006L98.377 87.4809L100.057 86.8612C100.389 86.7373 100.651 86.4767 100.776 86.1462L101.399 84.4746L102.022 86.1462C102.146 86.4767 102.408 86.7373 102.741 86.8612Z" fill="#D86339"/>
<path d="M108.429 91.438L109.55 91.8511L108.429 92.2642C108.161 92.3627 107.947 92.5756 107.848 92.8426L107.432 93.958L107.017 92.8426C106.918 92.5756 106.704 92.3627 106.436 92.2642L105.314 91.8511L106.436 91.438C106.704 91.3394 106.918 91.1265 107.017 90.8596L107.432 89.7441L107.848 90.8596C107.947 91.1265 108.161 91.3394 108.429 91.438Z" fill="#D86339"/>
</g>
</g>
<defs>
<filter id="filter0_d_1901_852" x="21.7773" y="98.3662" width="95.6859" height="21.6293" filterUnits="userSpaceOnUse" color-interpolation-filters="sRGB">
<feFlood flood-opacity="0" result="BackgroundImageFix"/>
<feColorMatrix in="SourceAlpha" type="matrix" values="0 0 0 0 0 0 0 0 0 0 0 0 0 0 0 0 0 0 127 0" result="hardAlpha"/>
<feOffset dx="3.6" dy="3.6"/>
<feColorMatrix type="matrix" values="0 0 0 0 0.521569 0 0 0 0 0.415686 0 0 0 0 0 0 0 0 1 0"/>
<feBlend mode="normal" in2="BackgroundImageFix" result="effect1_dropShadow_1901_852"/>
<feBlend mode="normal" in="SourceGraphic" in2="effect1_dropShadow_1901_852" result="shape"/>
</filter>
<clipPath id="clip0_1901_852">
<rect width="138" height="230" fill="white"/>
</clipPath>
</defs>
</svg>
