<svg width="432" height="724" viewBox="0 0 432 724" fill="none" xmlns="http://www.w3.org/2000/svg">
<g clip-path="url(#clip0_1786_888)">
<path d="M164.84 322.749C164.62 323.769 164.17 325.219 163.12 326.619C161.86 328.309 160.45 328.969 154.77 331.189C148.23 333.749 146.91 334.119 144.93 334.219C142.75 334.319 140.38 334.429 139.02 332.899C137.53 331.229 138.09 328.549 138.65 326.079C139.03 324.359 139.58 322.839 143.22 316.339C144.05 314.859 146.16 311.119 149.55 307.169C150.12 306.509 151.32 305.609 153.01 304.689C153.9 304.199 160.3 300.699 163.26 302.939C165.43 304.579 163.03 307.249 164.64 315.829C164.83 316.829 165.45 319.919 164.84 322.759V322.749Z" fill="#FFD037"/>
<path d="M149.259 333.279C152.099 332.769 161.439 331.059 161.939 327.909C162.189 326.379 161.089 325.779 159.419 323.259C158.619 322.059 157.299 320.729 157.219 319.199C157.089 316.469 160.689 314.719 160.389 314.259C160.039 313.709 154.319 315.059 149.959 319.669C146.389 323.449 146.959 326.009 143.349 327.869C141.799 328.669 138.759 329.709 138.609 330.969C138.469 332.119 138.999 332.889 138.999 332.889C139.359 333.429 140.629 334.829 149.239 333.279H149.259Z" fill="#F18300"/>
<path d="M164.859 322.799C164.639 323.819 164.189 325.269 163.139 326.669C161.879 328.359 160.469 329.019 154.789 331.239C148.249 333.799 146.929 334.169 144.949 334.269C142.769 334.369 140.399 334.479 139.039 332.949C137.549 331.279 138.109 328.599 138.669 326.129C138.769 325.689 138.859 325.349 138.919 325.169C140.869 318.549 144.939 313.219 144.939 313.219C146.729 310.869 149.309 307.489 153.889 304.879C155.509 303.959 160.749 300.979 163.269 302.929C163.529 303.129 163.699 303.299 163.869 303.569C164.939 305.289 163.239 308.289 164.659 315.879C164.839 316.859 165.469 319.959 164.859 322.809V322.799Z" stroke="#0C0D0D" stroke-width="2" stroke-miterlimit="10"/>
<path d="M156.461 345.129C156.031 347.119 151.181 371.689 167.971 388.039C178.131 397.939 190.551 399.309 195.251 399.749C197.771 399.989 221.071 401.819 236.461 384.119C239.941 380.119 248.261 369.089 247.541 354.019C247.241 347.709 245.451 342.699 244.041 339.569" fill="#FFD037"/>
<path d="M167.971 388.05C168.501 392.26 170.681 405.25 181.671 415.88C195.451 429.21 212.861 428.94 218.591 428.52C223.581 428.15 245.541 425.77 255.361 407.65C257.211 404.24 262.621 392.9 258.351 379.8C255.521 371.11 249.821 365.87 247.121 363.68" fill="#FFD037"/>
<path d="M233.301 426.249C250.951 431.259 269.081 425.289 278.101 411.999C288.421 396.779 285.551 373.809 274.471 366.259C271.131 363.979 262.861 360.269 255.531 363.509C253.391 364.459 251.871 365.769 250.901 366.749" fill="#FFD037"/>
<path d="M279.83 409.149C281.44 408.419 297.2 400.949 300.17 384.109C302.14 372.959 298.47 357.949 287.3 352.409C282.5 350.029 275.43 348.959 268.71 351.929C261.69 355.029 258.58 360.969 257.73 362.739" fill="#FFD037"/>
<path d="M299.052 367.309C302.362 353.849 297.362 341.399 288.392 337.119C287.882 336.879 277.862 332.309 269.782 338.559C264.832 342.389 262.412 348.889 263.412 355.489" fill="#FFD037"/>
<path d="M275.561 335.87C280.911 327.56 290.181 323.5 298.281 325.61C303.931 327.08 310.171 331.84 311.451 338.78C311.641 339.83 312.741 345.77 308.631 350.51C305.381 354.25 300.971 354.84 299.821 354.96" fill="#FFD037"/>
<path d="M164.301 294.18C161.481 297.62 157.461 303.36 154.881 311.32C153.421 315.82 148.911 329.68 154.541 341.72C163.331 360.51 190.761 361.89 196.431 362.18C201.461 362.43 230.801 363.92 241.891 344.78C248.971 332.57 245.311 317.66 243.941 312.12C241.771 303.29 237.861 296.75 235.051 292.77" fill="#FFD037"/>
<path d="M306.141 352.709C306.911 353.369 308.221 354.309 310.031 354.809C313.251 355.709 317.921 355.209 320.521 351.819C323.351 348.139 321.871 343.489 321.541 342.459C320.371 338.779 317.691 336.799 316.201 335.689C313.121 333.409 310.011 332.729 308.371 332.489" fill="#FFD037"/>
<path d="M244.03 339.569C242.85 342.729 240.39 347.969 235.3 352.499C229.83 357.359 224.16 358.869 218.56 360.369C209.55 362.779 202.23 362.469 196.43 362.179C189.93 361.859 183.97 361.559 176.82 358.939C172.32 357.289 164.27 353.589 156.46 345.139L155.66 351.099C160.84 358.579 166.48 363.139 170.76 365.919C197.04 382.989 229.84 370.289 240.71 361.359C242.92 359.539 246.86 356.199 247.55 350.909C248.24 345.619 245.31 341.269 244.03 339.589V339.569Z" fill="#F18300"/>
<path d="M167.971 388.049C168.221 389.559 168.471 391.079 168.721 392.589C170.751 395.469 174.301 399.799 179.861 403.369C199.561 416.019 229.021 409.209 243.421 393.159C246.001 390.279 255.361 379.849 252.111 370.369C251.031 367.219 248.861 365.059 247.111 363.689C246.131 367.749 243.961 374.399 238.881 381.089C238.011 382.239 229.921 392.609 216.191 397.289C192.151 405.479 170.141 389.659 167.971 388.049Z" fill="#F18300"/>
<path d="M233.301 426.25C236.061 426.63 240.131 426.83 244.701 425.6C260.191 421.44 270.101 403.9 270.171 388.53C270.171 386.41 270.051 369.59 260.151 364.75C258.381 363.89 256.711 363.6 255.531 363.5C253.991 364.58 252.451 365.66 250.901 366.74C252.641 368.72 254.951 371.76 256.791 375.9C257.891 378.36 260.291 384.54 259.821 392.55C259.061 405.48 251.351 413.85 249.251 416.06C243.541 422.08 237.171 424.91 233.301 426.24V426.25Z" fill="#F18300"/>
<path d="M279.83 409.15C288.13 391.41 284.84 373.5 274.47 366.25C272.64 364.97 267.2 361.66 257.73 362.74C258.29 361.03 259.81 357.23 263.42 355.5C269.75 352.46 277.21 358.33 279.11 359.83C287.76 366.64 289.06 377.38 289.37 379.98C291.21 395.23 281.97 406.64 279.83 409.15Z" fill="#F18300"/>
<path d="M165.48 293.91C165.12 294.48 164.77 295.05 164.41 295.62C165.97 297.67 168.54 300.75 172.26 303.87C188.45 317.43 208.28 316.56 212.29 316.39C214.63 316.29 224.18 315.73 235.3 311.04C238.31 309.77 240.73 308.49 242.43 307.53C241.01 304.35 240.02 302.15 239.35 300.67C238.76 299.36 238.39 298.52 237.8 297.39C236.89 295.66 235.95 294.13 235.03 292.8C232.57 295.17 220.14 306.64 200.7 306.6C181.29 306.55 168.93 295.05 166.47 292.67C166.13 293.09 165.8 293.52 165.46 293.94L165.48 293.91Z" fill="#F18300"/>
<path d="M263.41 355.5C262.07 350.03 263.61 347.14 264.35 346.03C268.55 339.78 281.14 340.55 288.83 345.59C299.35 352.48 299.08 366.27 299.05 367.31C298.64 365.77 296.09 356.84 287.3 352.41C285.87 351.69 280.94 349.29 274.42 350.28C268.64 351.16 264.86 354.21 263.42 355.5H263.41Z" fill="#F18300"/>
<path d="M275.561 335.87C275.791 335.33 276.201 334.57 276.941 333.91C281.711 329.58 295.171 333.75 301.171 342.42C303.431 345.68 306.011 351.58 303.811 353.95C303.311 354.49 302.241 355.18 299.841 354.96C299.841 354.13 299.691 344.23 291.301 338.56C284.301 333.83 276.791 335.57 275.581 335.87H275.561Z" fill="#F18300"/>
<path d="M306.141 352.71C308.031 351.59 309.171 350.28 309.851 349.28C314.501 342.46 309.451 333.08 309.201 332.64C310.561 333.61 313.231 335.83 314.671 339.64C314.901 340.25 316.961 345.95 314.141 351.09C313.421 352.41 312.181 354.67 310.031 354.81C307.971 354.95 306.421 353.06 306.141 352.71Z" fill="#F18300"/>
<path d="M156.459 345.129C156.029 347.119 151.179 371.689 167.969 388.039C178.129 397.939 190.549 399.309 195.249 399.749C197.769 399.989 221.069 401.819 236.459 384.119C239.939 380.119 248.259 369.089 247.539 354.019C247.239 347.709 245.449 342.699 244.039 339.569" stroke="#0C0D0D" stroke-width="2" stroke-miterlimit="10"/>
<path d="M167.971 388.049C168.471 392.109 170.741 406.609 183.221 417.849C200.931 433.789 223.531 429.039 225.881 428.509C229.691 427.639 246.891 423.719 255.361 407.659C256.651 405.219 262.811 393.529 258.351 379.809C255.551 371.179 249.891 365.939 247.121 363.689" stroke="#0C0D0D" stroke-width="2" stroke-miterlimit="10"/>
<path d="M233.301 426.249C250.951 431.259 269.081 425.289 278.101 411.999C288.421 396.779 285.551 373.809 274.471 366.259C271.131 363.979 262.861 360.269 255.531 363.509C253.391 364.459 251.871 365.769 250.901 366.749" stroke="#0C0D0D" stroke-width="2" stroke-miterlimit="10"/>
<path d="M279.83 409.149C281.44 408.419 297.2 400.949 300.17 384.109C302.14 372.959 298.47 357.949 287.3 352.409C282.5 350.029 275.43 348.959 268.71 351.929C261.69 355.029 258.58 360.969 257.73 362.739" stroke="#0C0D0D" stroke-width="2" stroke-miterlimit="10"/>
<path d="M299.05 367.309C302.36 353.849 297.36 341.399 288.39 337.119C287.88 336.879 277.86 332.309 269.78 338.559C264.83 342.389 262.41 348.889 263.41 355.489" stroke="#0C0D0D" stroke-width="2" stroke-miterlimit="10"/>
<path d="M275.561 335.869C280.911 327.559 290.181 323.499 298.281 325.609C303.931 327.079 310.171 331.839 311.451 338.779C311.641 339.829 312.741 345.769 308.631 350.509C305.381 354.249 300.971 354.839 299.821 354.959" stroke="#0C0D0D" stroke-width="2" stroke-miterlimit="10"/>
<path d="M165.98 291.829C162.7 295.549 157.82 302.059 154.87 311.329C153.21 316.549 149 329.889 154.53 341.729C163.32 360.519 190.75 361.899 196.42 362.189C201.45 362.439 230.79 363.929 241.88 344.789C248.96 332.579 245.3 317.669 243.93 312.129C241.76 303.299 237.85 296.759 235.04 292.779" stroke="#0C0D0D" stroke-width="2" stroke-miterlimit="10"/>
<path d="M306.141 352.709C306.911 353.369 308.221 354.309 310.031 354.809C313.251 355.709 317.921 355.209 320.521 351.819C323.351 348.139 321.871 343.489 321.541 342.459C320.371 338.779 317.691 336.799 316.201 335.689C313.121 333.409 310.011 332.729 308.371 332.489" stroke="#0C0D0D" stroke-width="2" stroke-miterlimit="10"/>
<path d="M168.72 294.809C173.99 300.009 180.32 303.219 182.17 304.119C190.06 307.959 196.91 308.889 199.4 309.159C210.57 310.369 219.54 307.589 224.29 305.679C228.94 303.809 236.44 300.689 242.82 292.999C251.59 282.429 252.19 270.539 252.21 266.729C252.25 259.349 250.25 253.709 249.05 250.409C246.24 242.689 242.33 237.529 240.84 235.669C231.36 223.839 219.08 219.779 216.17 218.879C211.87 217.559 197.9 213.499 182.65 220.209C161.15 229.669 156.25 252.109 156.03 253.199C152.5 270.809 160.18 286.369 168.73 294.799L168.72 294.809Z" fill="#FFD037"/>
<path d="M184.079 280.029C187.069 284.349 192.479 286.379 197.569 284.999C199.119 284.579 198.459 282.169 196.909 282.589C196.069 282.819 195.489 282.909 194.679 282.929C193.369 282.979 192.089 282.779 190.849 282.339C189.719 281.929 188.649 281.279 187.759 280.469C187.409 280.149 187.079 279.819 186.769 279.459C186.689 279.369 186.619 279.279 186.539 279.189C186.389 279.009 186.589 279.259 186.509 279.149C186.419 279.019 186.319 278.899 186.229 278.769C185.849 278.219 185.129 277.959 184.519 278.319C183.969 278.639 183.689 279.469 184.069 280.029H184.079Z" fill="#0C0D0D"/>
<path d="M201.24 216.46C206.55 217.44 216.14 219.93 225.72 227.08C229.63 230 242.67 240.05 247 258.61C250.52 273.72 246.32 286.13 244.37 290.98C246.57 287.58 254.2 274.91 251.66 258.3C248.72 239.07 234.3 228.64 231.21 226.4C226.49 222.98 221.89 221.02 220.17 220.33C212.5 217.23 205.65 216.56 201.25 216.46H201.24Z" fill="#F18300"/>
<path d="M168.72 294.809C173.99 300.009 180.32 303.219 182.17 304.119C190.06 307.959 196.91 308.889 199.4 309.159C210.57 310.369 219.54 307.589 224.29 305.679C228.94 303.809 236.44 300.689 242.82 292.999C251.59 282.429 252.19 270.539 252.21 266.729C252.25 259.349 250.25 253.709 249.05 250.409C246.24 242.689 242.33 237.529 240.84 235.669C231.36 223.839 219.08 219.779 216.17 218.879C211.87 217.559 197.9 213.499 182.65 220.209C161.15 229.669 156.25 252.109 156.03 253.199C152.5 270.809 160.18 286.369 168.73 294.799L168.72 294.809Z" stroke="#0C0D0D" stroke-width="2" stroke-miterlimit="10"/>
<path d="M224.46 265.54C224.41 262.09 222.09 259.07 218.81 258.17C215.4 257.23 211.73 258.78 209.99 261.91C210.65 261.55 214.17 259.72 218.44 261.01C222.08 262.11 223.96 264.78 224.45 265.54H224.46Z" fill="#0C0D0D"/>
<path d="M225.09 265.54C224.99 261.84 222.51 258.49 218.88 257.54C215.25 256.59 211.33 258.33 209.46 261.6C209.14 262.15 209.77 262.75 210.32 262.46C215.01 259.92 221 261.41 223.93 265.86C224.37 266.53 225.45 265.9 225.01 265.23C223.46 262.88 221.09 261.08 218.36 260.34C215.48 259.55 212.31 259.96 209.69 261.38L210.55 262.24C212.14 259.46 215.41 257.93 218.56 258.76C221.71 259.59 223.76 262.4 223.85 265.55C223.87 266.35 225.12 266.36 225.1 265.55L225.09 265.54Z" fill="#0C0D0D"/>
<path d="M175.281 251.5C175.231 248.05 172.911 245.03 169.631 244.13C166.221 243.19 162.551 244.74 160.811 247.87C161.471 247.51 164.991 245.68 169.261 246.97C172.901 248.07 174.781 250.74 175.271 251.5H175.281Z" fill="#0C0D0D"/>
<path d="M175.91 251.5C175.81 247.8 173.33 244.45 169.7 243.5C166.07 242.55 162.15 244.29 160.28 247.56C159.96 248.11 160.59 248.71 161.14 248.42C165.83 245.88 171.82 247.37 174.75 251.82C175.19 252.49 176.27 251.86 175.83 251.19C174.28 248.84 171.91 247.04 169.18 246.3C166.3 245.51 163.13 245.92 160.51 247.34L161.37 248.2C162.96 245.42 166.23 243.89 169.38 244.72C172.53 245.55 174.58 248.36 174.67 251.51C174.69 252.31 175.94 252.32 175.92 251.51L175.91 251.5Z" fill="#0C0D0D"/>
<path d="M231.43 226.389C238.69 222.719 241.75 218.299 243.19 215.379C245.25 211.189 245.56 206.819 246 200.839C246.43 195.009 246.05 190.719 248.38 184.909C249.12 183.059 250.12 181.019 252.06 180.399C254.05 179.759 256.23 180.859 257.22 181.639C262.27 185.659 258.72 200.009 254.32 208.919C249.2 219.269 241.21 225.719 235.17 229.469C234.61 229.059 234.02 228.619 233.43 228.139C232.7 227.549 232.04 226.959 231.43 226.389Z" fill="#FFD037" stroke="#0C0D0D" stroke-width="2" stroke-miterlimit="10"/>
<path d="M189.829 217.49C185.009 213.65 182.499 209.59 181.219 207.05C177.799 200.28 175.119 188.62 180.049 179.44C182.319 175.22 185.799 172.26 184.669 168.7C184.149 167.07 182.729 165.51 181.049 165.2C176.609 164.38 172.139 172.67 171.639 173.59C167.099 182 168.669 190.86 169.109 193.18C171.289 204.59 178.199 211.74 183.369 216.97C183.879 217.49 184.639 218.24 185.589 219.12C186.219 218.86 186.869 218.59 187.539 218.33C188.319 218.03 189.079 217.75 189.829 217.49Z" fill="#FFD037" stroke="#0C0D0D" stroke-width="2" stroke-miterlimit="10"/>
<path d="M258.309 196.229C257.669 200.239 256.139 206.509 252.099 213.119C246.479 222.339 239.029 227.27 235.169 229.46C234.019 228.52 232.859 227.579 231.709 226.639C234.659 225.339 238.789 223.149 242.979 219.499C247.439 215.619 249.979 211.82 251.929 208.85C253.889 205.87 256.299 201.649 258.309 196.229Z" fill="#F18300"/>
<path d="M188.769 216.89C186.479 214.82 183.529 211.61 181.209 207.05C176.179 197.16 177.529 187.61 178.219 184.06C177.069 185.93 175.399 189.21 174.939 193.53C174.339 199.2 176.169 203.51 177.739 207.22C178.979 210.16 181.339 214.73 185.759 219.37L188.769 216.9V216.89Z" fill="#F18300"/>
<path d="M231.43 226.389C238.69 222.719 241.75 218.299 243.19 215.379C245.25 211.189 245.56 206.819 246 200.839C246.43 195.009 246.05 190.719 248.38 184.909C249.12 183.059 250.12 181.019 252.06 180.399C254.05 179.759 256.23 180.859 257.22 181.639C262.27 185.659 258.72 200.009 254.32 208.919C249.2 219.269 241.21 225.719 235.17 229.469C234.61 229.059 234.02 228.619 233.43 228.139C232.7 227.549 232.04 226.959 231.43 226.389Z" stroke="#0C0D0D" stroke-width="2" stroke-miterlimit="10"/>
<path d="M189.829 217.49C185.009 213.65 182.499 209.59 181.219 207.05C177.799 200.28 175.119 188.62 180.049 179.44C182.319 175.22 185.799 172.26 184.669 168.7C184.149 167.07 182.729 165.51 181.049 165.2C176.609 164.38 172.139 172.67 171.639 173.59C167.099 182 168.669 190.86 169.109 193.18C171.289 204.59 178.199 211.74 183.369 216.97C183.879 217.49 184.639 218.24 185.589 219.12C186.219 218.86 186.869 218.59 187.539 218.33C188.319 218.03 189.079 217.75 189.829 217.49Z" stroke="#0C0D0D" stroke-width="2" stroke-miterlimit="10"/>
<path d="M201.88 255.189C201.51 254.759 200.7 253.989 199.43 253.689C199.09 253.609 198.75 253.569 198.4 253.569C197.82 253.569 197.24 253.679 196.71 253.889L194.93 254.589L196.28 248.869L196.69 248.659C197.17 248.409 198.16 247.999 199.44 247.999C199.99 247.999 200.54 248.079 201.08 248.229C203.09 248.809 204.14 250.259 204.5 250.849L204.73 251.239L203.06 256.559L201.89 255.189H201.88Z" fill="#077BB3"/>
<path d="M199.43 248.999C199.85 248.999 200.31 249.049 200.79 249.189C202.58 249.709 203.44 251.059 203.63 251.369C203.3 252.429 202.97 253.479 202.64 254.539C202.33 254.169 201.34 253.109 199.66 252.719C199.21 252.619 198.79 252.569 198.4 252.569C197.42 252.569 196.67 252.829 196.34 252.959C196.61 251.819 196.88 250.679 197.14 249.549C197.37 249.429 198.25 248.999 199.43 248.999ZM199.43 246.999C197.94 246.999 196.78 247.479 196.22 247.769L195.4 248.189L195.19 249.089L194.39 252.499L193.51 256.219L197.06 254.819C197.48 254.659 197.93 254.569 198.39 254.569C198.66 254.569 198.93 254.599 199.19 254.659C200.19 254.889 200.82 255.489 201.11 255.829L203.46 258.589L204.54 255.129L205.2 253.029L205.53 251.969L205.8 251.109L205.33 250.339C204.91 249.649 203.68 247.959 201.34 247.269C200.72 247.089 200.07 246.999 199.42 246.999H199.43Z" fill="#0C0D0D"/>
<path d="M229.339 289.13C215.949 289.13 204.259 279.6 201.539 266.47C199.999 259.04 201.449 251.45 205.619 245.1C209.789 238.75 216.179 234.41 223.609 232.87C225.519 232.47 227.469 232.27 229.399 232.27C242.789 232.27 254.479 241.8 257.199 254.93C258.739 262.36 257.289 269.95 253.119 276.3C248.949 282.65 242.559 286.99 235.129 288.53C233.219 288.93 231.269 289.13 229.339 289.13ZM229.379 237.5C227.799 237.5 226.209 237.66 224.649 237.99C212.129 240.58 204.049 252.89 206.649 265.41C208.869 276.13 218.409 283.91 229.339 283.91C230.919 283.91 232.509 283.75 234.059 283.42C246.589 280.82 254.669 268.52 252.069 256C249.849 245.28 240.299 237.5 229.369 237.5H229.379Z" fill="#077BB3"/>
<path d="M229.39 233.279C242.12 233.279 253.53 242.189 256.21 255.139C259.28 269.969 249.75 284.479 234.92 287.549C233.04 287.939 231.18 288.129 229.33 288.129C216.6 288.129 205.19 279.219 202.51 266.269C199.44 251.439 208.97 236.929 223.8 233.859C225.68 233.469 227.54 233.279 229.39 233.279ZM229.34 284.909C230.96 284.909 232.61 284.749 234.27 284.399C247.35 281.689 255.77 268.879 253.06 255.789C250.69 244.359 240.62 236.489 229.38 236.489C227.75 236.489 226.1 236.649 224.45 236.999C211.37 239.709 202.96 252.519 205.67 265.599C208.04 277.029 218.11 284.899 229.34 284.899M229.39 231.279C227.39 231.279 225.37 231.489 223.4 231.899C207.52 235.189 197.27 250.789 200.56 266.679C203.38 280.269 215.48 290.139 229.34 290.139C231.34 290.139 233.36 289.929 235.33 289.519C243.02 287.929 249.64 283.429 253.95 276.859C258.26 270.289 259.76 262.439 258.17 254.739C255.35 241.149 243.25 231.279 229.39 231.279ZM229.34 282.909C218.89 282.909 209.76 275.459 207.63 265.209C205.15 253.219 212.87 241.449 224.86 238.969C226.35 238.659 227.87 238.499 229.38 238.499C239.84 238.499 248.97 245.939 251.1 256.199C253.58 268.189 245.85 279.959 233.87 282.439C232.38 282.749 230.86 282.909 229.35 282.909H229.34Z" fill="#0C0D0D"/>
<path d="M170.081 273.139C156.691 273.139 145.001 263.609 142.281 250.479C140.741 243.049 142.191 235.459 146.361 229.109C150.531 222.759 156.921 218.419 164.351 216.879C166.261 216.479 168.211 216.279 170.141 216.279C183.531 216.279 195.221 225.809 197.941 238.939C199.481 246.369 198.031 253.959 193.861 260.309C189.691 266.659 183.301 270.999 175.871 272.539C173.961 272.939 172.011 273.139 170.081 273.139ZM170.121 221.509C168.541 221.509 166.951 221.669 165.391 221.999C152.871 224.589 144.791 236.889 147.391 249.419C149.611 260.139 159.151 267.919 170.081 267.919C171.661 267.919 173.251 267.759 174.801 267.429C180.871 266.169 186.081 262.629 189.481 257.449C192.881 252.269 194.061 246.069 192.811 240.009C190.591 229.289 181.041 221.509 170.111 221.509H170.121Z" fill="#077BB3"/>
<path d="M170.12 217.289C182.85 217.289 194.26 226.199 196.94 239.149C200.01 253.979 190.48 268.489 175.65 271.559C173.77 271.949 171.91 272.139 170.06 272.139C157.33 272.139 145.92 263.229 143.24 250.279C140.17 235.449 149.7 220.939 164.53 217.869C166.41 217.479 168.27 217.289 170.12 217.289ZM170.08 268.919C171.7 268.919 173.35 268.759 175.01 268.409C188.09 265.699 196.51 252.889 193.8 239.799C191.43 228.369 181.36 220.499 170.12 220.499C168.49 220.499 166.84 220.669 165.19 221.009C152.11 223.719 143.7 236.529 146.41 249.609C148.78 261.039 158.85 268.909 170.08 268.909M170.12 215.289C168.12 215.289 166.1 215.499 164.13 215.909C148.25 219.199 138 234.799 141.29 250.689C144.11 264.279 156.21 274.149 170.07 274.149C172.07 274.149 174.09 273.939 176.06 273.529C191.94 270.239 202.19 254.639 198.9 238.749C196.08 225.159 183.98 215.289 170.12 215.289ZM170.08 266.919C159.63 266.919 150.5 259.469 148.37 249.219C145.89 237.229 153.61 225.459 165.6 222.979C167.09 222.669 168.61 222.509 170.12 222.509C180.58 222.509 189.71 229.949 191.84 240.209C194.32 252.199 186.59 263.969 174.61 266.449C173.12 266.759 171.6 266.919 170.09 266.919H170.08Z" fill="#0C0D0D"/>
<path d="M148.75 262.189C150.31 264.109 154.41 268.659 161.44 270.999C169.13 273.559 175.68 271.929 178.08 271.209C180.38 270.509 187.71 267.959 192.83 260.389C196.83 254.479 197.4 248.599 197.5 246.049C197.05 248.899 195.59 255.469 190.18 261.449C188.48 263.329 183.25 268.939 174.65 270.419C169.73 271.259 165.82 270.389 163.42 269.819C156.17 268.119 151.23 264.369 148.75 262.189Z" fill="#0A5877"/>
<path d="M211.26 281.299C213.07 282.909 216.88 285.869 222.59 287.319C224.48 287.799 229.16 288.779 234.93 287.549C244.94 285.429 250.41 278.349 251.33 277.119C255.6 271.399 256.47 265.539 256.7 262.969C256.18 265.689 254.66 271.679 249.69 277.259C248.23 278.889 244.41 282.819 238.58 285.039C225.5 290.019 212.95 282.359 211.27 281.299H211.26Z" fill="#0A5877"/>
<path opacity="0.12" d="M126.9 342.939C157.679 342.939 182.63 317.988 182.63 287.209C182.63 256.431 157.679 231.479 126.9 231.479C96.1211 231.479 71.1699 256.431 71.1699 287.209C71.1699 317.988 96.1211 342.939 126.9 342.939Z" fill="#FFC25F"/>
<path opacity="0.3" d="M127.039 333.7C152.588 333.7 173.299 312.988 173.299 287.44C173.299 261.891 152.588 241.18 127.039 241.18C101.491 241.18 80.7793 261.891 80.7793 287.44C80.7793 312.988 101.491 333.7 127.039 333.7Z" fill="#FFC25F"/>
<path d="M95.7485 307.55C102.798 318.92 114.948 325.23 127.408 325.29L133.228 334.68C134.688 337.04 137.818 337.77 140.168 336.31L165.438 320.65C167.799 319.19 168.529 316.07 167.069 313.71L161.248 304.32C166.738 293.13 166.528 279.46 159.478 268.07C148.578 250.47 125.468 245.04 107.868 255.95C90.2685 266.85 84.8385 289.96 95.7485 307.56V307.55Z" fill="#FF9D00"/>
<path d="M94.6692 308.179C101.729 319.449 114.089 326.399 127.409 326.539L126.329 325.919C127.429 327.699 128.529 329.469 129.629 331.249C130.729 333.029 131.799 335.439 133.449 336.829C135.689 338.709 138.699 338.679 141.119 337.199C142.569 336.319 143.999 335.419 145.439 334.519L159.829 325.609L165.109 322.339C166.859 321.259 168.399 319.989 168.899 317.859C169.629 314.769 167.729 312.399 166.209 309.939C164.919 307.859 163.629 305.779 162.339 303.689V304.949C167.679 293.939 167.669 280.959 162.039 270.049C157.329 260.909 149.019 253.939 139.219 250.859C129.419 247.779 118.989 248.739 109.999 253.319C101.009 257.899 94.0592 266.009 90.8592 275.589C87.2392 286.429 88.7092 298.469 94.6692 308.189C95.5092 309.559 97.6692 308.299 96.8292 306.929C91.7392 298.619 90.0892 288.569 92.4492 279.099C94.8192 269.559 101.049 261.299 109.569 256.399C117.979 251.559 128.119 250.319 137.449 252.949C146.779 255.579 155.169 262.299 159.779 271.129C162.569 276.469 163.959 282.479 163.849 288.489C163.799 291.319 163.409 294.129 162.699 296.869C162.359 298.159 161.959 299.439 161.489 300.679C161.199 301.459 160.879 302.219 160.529 302.969C160.209 303.659 159.839 304.199 160.179 304.959C160.519 305.719 161.099 306.439 161.539 307.149L164.299 311.599C164.859 312.499 165.439 313.379 165.969 314.299C167.049 316.159 166.619 318.369 164.819 319.589C160.909 322.249 156.739 324.599 152.709 327.089C148.349 329.789 144.049 332.609 139.629 335.199C138.129 336.079 136.319 336.049 134.979 334.859C134.209 334.179 133.709 333.089 133.179 332.229C131.659 329.779 130.289 327.149 128.589 324.819C128.149 324.219 127.809 324.079 127.049 324.049C125.709 323.989 124.369 323.939 123.039 323.769C120.379 323.439 117.749 322.779 115.229 321.869C110.209 320.059 105.619 317.109 101.869 313.309C99.9592 311.369 98.2892 309.229 96.8392 306.919C95.9892 305.559 93.8192 306.809 94.6792 308.179H94.6692Z" fill="#0C0D0D"/>
<path d="M165.965 318.896L138.371 335.991C136.625 337.073 136.086 339.366 137.168 341.112L142.93 350.412C144.012 352.159 146.305 352.697 148.051 351.615L175.645 334.52C177.391 333.438 177.93 331.145 176.848 329.399L171.086 320.099C170.004 318.352 167.711 317.814 165.965 318.896Z" fill="#B2B2B2"/>
<path d="M148.689 352.7C154.889 348.86 161.079 345.02 167.279 341.19C170.149 339.41 173.019 337.65 175.879 335.86C177.519 334.83 178.699 333.3 178.659 331.27C178.629 329.43 177.369 327.87 176.439 326.37L172.799 320.49C171.619 318.59 170.139 316.99 167.669 317.12C166.349 317.19 165.349 317.83 164.279 318.49L160.329 320.93C153.109 325.4 145.899 329.87 138.679 334.34C137.569 335.03 136.519 335.7 135.909 336.93C134.809 339.14 135.689 341.09 136.859 342.97L140.479 348.82C141.439 350.37 142.279 352.15 144.019 352.95C145.549 353.66 147.239 353.5 148.699 352.69C150.159 351.88 148.849 349.75 147.439 350.53C145.319 351.71 144.139 349.96 143.169 348.4L139.809 342.98C139.099 341.83 137.679 340.22 137.899 338.78C138.089 337.58 138.979 337.08 139.899 336.51C146.569 332.38 153.239 328.24 159.909 324.11C162.099 322.75 164.259 321.31 166.489 320.03C168.039 319.14 169.429 319.78 170.299 321.19L173.339 326.1C174.139 327.39 175.009 328.67 175.749 330C176.589 331.5 175.899 332.87 174.569 333.7L166.889 338.46C160.529 342.4 154.129 346.26 147.819 350.27C147.689 350.36 147.549 350.44 147.409 350.52C146.039 351.37 147.299 353.53 148.669 352.68L148.689 352.7Z" fill="#0C0D0D"/>
<path d="M163.189 308.584L130.393 328.902C128.646 329.984 128.108 332.277 129.19 334.024L136.436 345.721C137.518 347.467 139.811 348.006 141.558 346.924L174.354 326.605C176.1 325.523 176.639 323.23 175.557 321.484L168.31 309.787C167.228 308.04 164.935 307.502 163.189 308.584Z" fill="#D7D7D8"/>
<path d="M142.179 348.01C149.449 343.51 156.719 339 163.989 334.5L174.339 328.09C176.059 327.03 177.379 325.53 177.339 323.36C177.299 321.35 175.769 319.51 174.759 317.87L170.429 310.89C169.179 308.87 167.909 306.83 165.189 306.81C163.659 306.8 162.529 307.54 161.309 308.29L156.769 311.11C148.199 316.42 139.639 321.72 131.069 327.03C129.979 327.71 128.849 328.31 128.139 329.44C126.609 331.88 127.749 334.12 129.059 336.24L133.299 343.09C134.269 344.65 135.229 346.84 136.799 347.89C138.369 348.94 140.479 348.97 142.169 348.02C143.569 347.24 142.319 345.08 140.909 345.86C138.539 347.18 137.359 344.89 136.339 343.24C134.989 341.06 133.639 338.88 132.289 336.7C131.529 335.47 129.829 333.57 129.869 332.02C129.909 330.56 131.039 329.97 132.109 329.31C140.049 324.39 147.979 319.48 155.919 314.56C158.499 312.96 161.039 311.25 163.689 309.75C165.469 308.74 166.769 309.71 167.699 311.21L171.429 317.23C172.419 318.83 173.479 320.41 174.419 322.05C175.359 323.69 174.589 325 173.209 325.85C170.149 327.75 167.089 329.64 164.029 331.54C156.489 336.21 148.939 340.89 141.399 345.56L140.929 345.85C139.559 346.7 140.819 348.86 142.189 348.01H142.179Z" fill="#0C0D0D"/>
<path d="M109.56 292.26C115.337 292.26 120.02 287.577 120.02 281.8C120.02 276.023 115.337 271.34 109.56 271.34C103.783 271.34 99.0996 276.023 99.0996 281.8C99.0996 287.577 103.783 292.26 109.56 292.26Z" fill="#FFBF73"/>
<path d="M199.188 319.38C195.108 317.67 191.328 321.72 180.458 327.88C174.378 331.33 172.458 331.82 172.228 333.7C171.798 337.25 177.938 341.1 182.678 342.59C189.128 344.62 198.848 344.1 203.118 337.87C205.238 334.77 205.188 331.22 205.168 330.22C205.148 329.1 205.078 324.13 201.388 320.86C200.898 320.43 200.188 319.8 199.198 319.38H199.188Z" fill="#FFD037"/>
<path d="M197.4 319.28C197.4 319.28 198.28 319.17 199.19 319.38C201.48 319.91 204.89 324.61 205.16 330.22C205.28 332.74 204.72 334.46 204.6 334.83C204.23 335.95 203.31 338.08 201.24 339.84C200.37 340.57 199.11 341.41 196.88 342.1C191.38 343.81 185.3 343.03 182.67 342.58C183.51 341.52 184.81 339.99 186.61 338.37C192.01 333.51 195.74 333.37 197.26 330.27C198.15 328.45 198.4 325.4 195.29 320.04C195.7 319.78 196.43 319.39 197.4 319.27V319.28Z" fill="#F18300"/>
<path d="M199.189 319.38C196.419 318.24 195.199 320.39 180.459 327.88C174.679 330.81 172.469 331.7 172.229 333.7C171.799 337.21 177.759 341.13 182.679 342.59C188.859 344.42 200.109 344.31 203.979 336.44C206.929 330.44 204.149 321.42 199.209 319.38H199.189Z" stroke="#0C0D0D" stroke-width="2" stroke-miterlimit="10"/>
<path d="M346.891 429.47H90.3711V722.75H346.891V429.47Z" fill="#E1E1E1" stroke="#0C0D0D" stroke-width="2" stroke-miterlimit="10"/>
<g filter="url(#filter0_d_1786_888)">
<path d="M359.641 429.47H77.6309V479.91H359.641V429.47Z" fill="#E1E1E1"/>
<path d="M359.641 429.47H77.6309V479.91H359.641V429.47Z" stroke="#0C0D0D" stroke-width="2" stroke-miterlimit="10"/>
</g>
<path opacity="0.2" d="M126.63 482.93H119.33V722.63H126.63V482.93Z" fill="black" stroke="black" stroke-width="2" stroke-miterlimit="10"/>
<path opacity="0.2" d="M158.23 482.93H150.93V722.63H158.23V482.93Z" fill="black" stroke="black" stroke-width="2" stroke-miterlimit="10"/>
<path opacity="0.2" d="M189.829 482.93H182.529V722.63H189.829V482.93Z" fill="black" stroke="black" stroke-width="2" stroke-miterlimit="10"/>
<path opacity="0.2" d="M221.431 482.93H214.131V722.63H221.431V482.93Z" fill="black" stroke="black" stroke-width="2" stroke-miterlimit="10"/>
<path opacity="0.2" d="M253.03 482.93H245.73V722.63H253.03V482.93Z" fill="black" stroke="black" stroke-width="2" stroke-miterlimit="10"/>
<path opacity="0.2" d="M284.62 482.93H277.32V722.63H284.62V482.93Z" fill="black" stroke="black" stroke-width="2" stroke-miterlimit="10"/>
<path opacity="0.2" d="M316.22 482.93H308.92V722.63H316.22V482.93Z" fill="black" stroke="black" stroke-width="2" stroke-miterlimit="10"/>
<path d="M304.91 259.89L313.81 263.18L304.91 266.47C303.2 267.1 301.86 268.45 301.23 270.15L297.94 279.05L294.65 270.15C294.02 268.44 292.67 267.1 290.97 266.47L282.07 263.18L290.97 259.89C292.68 259.26 294.02 257.91 294.65 256.21L297.94 247.31L301.23 256.21C301.86 257.92 303.21 259.26 304.91 259.89Z" fill="#E1E1E1"/>
<path d="M284.791 283.919L290.051 285.869L284.791 287.819C283.751 288.209 282.931 289.029 282.541 290.069L280.591 295.329L278.641 290.069C278.251 289.029 277.431 288.209 276.391 287.819L271.131 285.869L276.391 283.919C277.431 283.529 278.251 282.709 278.641 281.669L280.591 276.409L282.541 281.669C282.931 282.709 283.751 283.529 284.791 283.919Z" fill="#E1E1E1"/>
<path d="M302.602 298.319L306.112 299.619L302.602 300.919C301.762 301.229 301.092 301.899 300.782 302.739L299.482 306.249L298.182 302.739C297.872 301.899 297.202 301.229 296.362 300.919L292.852 299.619L296.362 298.319C297.202 298.009 297.872 297.339 298.182 296.499L299.482 292.989L300.782 296.499C301.092 297.339 301.762 298.009 302.602 298.319Z" fill="#E1E1E1"/>
</g>
<defs>
<filter id="filter0_d_1786_888" x="76.6309" y="428.47" width="287.61" height="56.0404" filterUnits="userSpaceOnUse" color-interpolation-filters="sRGB">
<feFlood flood-opacity="0" result="BackgroundImageFix"/>
<feColorMatrix in="SourceAlpha" type="matrix" values="0 0 0 0 0 0 0 0 0 0 0 0 0 0 0 0 0 0 127 0" result="hardAlpha"/>
<feOffset dx="3.6" dy="3.6"/>
<feColorMatrix type="matrix" values="0 0 0 0 0.0470588 0 0 0 0 0.0509804 0 0 0 0 0.0509804 0 0 0 1 0"/>
<feBlend mode="normal" in2="BackgroundImageFix" result="effect1_dropShadow_1786_888"/>
<feBlend mode="normal" in="SourceGraphic" in2="effect1_dropShadow_1786_888" result="shape"/>
</filter>
<clipPath id="clip0_1786_888">
<rect width="432" height="723.75" fill="white"/>
</clipPath>
</defs>
</svg>
