<svg width="82" height="83" viewBox="0 0 82 83" fill="none" xmlns="http://www.w3.org/2000/svg">
<path d="M34.2965 22.4996C34.2596 20.1601 37.3745 19.3254 38.5123 21.37L42.6355 28.779C43.6651 30.6292 46.0214 31.2605 47.8382 30.173L55.1135 25.8182C57.1211 24.6165 59.4014 26.8968 58.1997 28.9044L53.8449 36.1797C52.7574 37.9965 53.3887 40.3528 55.2389 41.3824L62.6479 45.5056C64.6925 46.6434 63.8578 49.7583 61.5183 49.7214L53.0404 49.5877C50.9232 49.5543 49.1983 51.2792 49.2317 53.3963L49.3654 61.8743C49.4023 64.2138 46.2874 65.0485 45.1496 63.0039L41.0264 55.5949C39.9968 53.7447 37.6405 53.1134 35.8237 54.2009L28.5484 58.5557C26.5408 59.7574 24.2605 57.4771 25.4622 55.4695L29.817 48.1942C30.9045 46.3774 30.2732 44.0211 28.423 42.9915L21.014 38.8683C18.9694 37.7305 19.8041 34.6156 22.1436 34.6525L30.6216 34.7862C32.7387 34.8196 34.4636 33.0947 34.4302 30.9775L34.2965 22.4996Z" fill="#38302A" stroke="#38302A" stroke-width="1.5"/>
<path d="M32.6927 21.5737C32.6558 19.2342 35.7707 18.3995 36.9085 20.4441L41.0317 27.8531C42.0614 29.7033 44.4176 30.3346 46.2345 29.2471L53.5097 24.8923C55.5174 23.6906 57.7976 25.9709 56.5959 27.9785L52.2411 35.2538C51.1536 37.0706 51.785 39.4269 53.6352 40.4565L61.0442 44.5797C63.0887 45.7175 62.2541 48.8324 59.9146 48.7955L51.4366 48.6618C49.3194 48.6284 47.5945 50.3533 47.6279 52.4704L47.7616 60.9484C47.7985 63.2879 44.6837 64.1226 43.5459 62.078L39.4227 54.669C38.393 52.8188 36.0367 52.1875 34.2199 53.275L26.9446 57.6298C24.937 58.8315 22.6568 56.5512 23.8585 54.5436L28.2133 47.2683C29.3008 45.4515 28.6694 43.0952 26.8192 42.0656L19.4102 37.9424C17.3657 36.8046 18.2003 33.6897 20.5398 33.7266L29.0178 33.8603C31.1349 33.8937 32.8599 32.1688 32.8265 30.0516L32.6927 21.5737Z" fill="#FE892A" stroke="#38302A" stroke-width="1.5"/>
</svg>
