<svg width="278" height="177" viewBox="0 0 278 177" fill="none" xmlns="http://www.w3.org/2000/svg">
<path d="M207.273 97.7053L180.518 83.0586L182.222 113.51L166.373 87.4509L152.622 114.674L151.926 84.1831L126.407 100.884L141.054 74.1291L110.603 75.8326L136.662 59.989L109.439 46.233L139.929 45.5426L123.229 20.018L149.983 34.6647L148.28 4.21331L164.124 30.2724L177.88 3.0498L178.57 33.5402L204.095 16.8392L189.448 43.5942L219.899 41.8907L193.84 57.7399L221.063 71.4904L190.572 72.1863L207.273 97.7053Z" fill="#DAF7F6"/>
<path d="M41.9053 152.756L30.8993 146.732L31.6008 159.258L25.0818 148.542L19.4258 159.737L19.1418 147.194L8.6425 154.064L14.666 143.058L2.14026 143.76L12.8567 137.241L1.6615 131.585L14.2039 131.301L7.33426 120.801L18.3402 126.825L17.6388 114.299L24.1577 125.021L29.8138 113.82L30.0977 126.363L40.597 119.493L34.5735 130.499L47.0993 129.798L36.3828 136.317L47.578 141.973L35.0356 142.262L41.9053 152.756Z" fill="#DAF7F6"/>
<path d="M135.426 176.001C209.667 176.001 269.852 171.896 269.852 166.832C269.852 161.768 209.667 157.663 135.426 157.663C61.1845 157.663 0.999878 161.768 0.999878 166.832C0.999878 171.896 61.1845 176.001 135.426 176.001Z" fill="#DAF7F6" stroke="#0F4C4A" stroke-miterlimit="10"/>
<path d="M260.643 33.1625C260.137 32.8006 260.12 31.8876 260.604 30.4124C261.089 28.9371 261.718 27.6512 262.503 26.5378C262.681 26.2817 263.165 26.1982 263.955 26.2761C264.746 26.354 265.798 26.6769 267.118 27.2448C268.437 27.807 269.767 28.5641 271.115 29.5161C276.331 33.207 277.656 36.8701 275.089 40.5053C274.355 41.5408 273.508 42.2868 272.551 42.7377C271.588 43.1886 270.686 43.3779 269.845 43.3C268.153 43.1107 266.789 42.6653 265.759 41.9639L265.113 41.5464C264.974 41.7468 264.791 42.0975 264.573 42.5985C264.356 43.0996 264.134 43.5115 263.9 43.84C263.694 44.1294 263.043 44.0014 261.94 43.4558C260.838 42.9103 259.925 42.3814 259.201 41.8637C258.093 41.0787 257.598 40.3216 257.72 39.5923C257.843 38.8631 258.528 37.6105 259.775 35.8513C260.07 35.4338 261.072 35.6788 262.775 36.5806C263.421 36.9035 264.089 37.0872 264.774 37.1373C265.459 37.1874 265.987 36.9592 266.344 36.447C266.7 35.9348 266.472 35.3948 265.659 34.8159C264.846 34.2369 263.833 33.8416 262.636 33.619C261.439 33.4019 260.777 33.246 260.649 33.1569L260.643 33.1625ZM259.68 44.7195C260.916 45.5936 261.751 46.423 262.18 47.2024C262.608 47.9818 262.469 48.8725 261.762 49.8746C260.604 51.5113 258.756 51.4278 256.206 49.6296C253.657 47.8315 252.966 46.1113 254.124 44.4746C255.282 42.8379 257.13 42.9214 259.68 44.7195Z" fill="#28AFB0" stroke="#0C0D0D" stroke-width="1.5" stroke-miterlimit="10"/>
<path d="M268.522 51.3552C268.371 50.9266 268.75 50.381 269.652 49.713C270.554 49.0449 271.472 48.5495 272.402 48.2266C272.613 48.1542 272.936 48.3045 273.37 48.6831C273.805 49.0616 274.289 49.6963 274.829 50.5814C275.369 51.4666 275.837 52.4742 276.232 53.6043C277.763 57.9744 277.006 60.6967 273.961 61.7655C273.092 62.0717 272.279 62.1552 271.522 62.016C270.765 61.8769 270.153 61.6096 269.685 61.2088C268.767 60.3849 268.149 59.5499 267.831 58.7037L267.625 58.1859C267.458 58.2472 267.202 58.3752 266.868 58.5812C266.534 58.7872 266.222 58.9375 265.95 59.0321C265.705 59.1156 265.376 58.7649 264.953 57.98C264.536 57.195 264.218 56.4992 264.001 55.8868C263.678 54.9571 263.701 54.3002 264.085 53.9216C264.469 53.5431 265.393 53.0921 266.868 52.5744C267.219 52.4519 267.709 53.0142 268.332 54.2668C268.577 54.7288 268.895 55.1185 269.279 55.4359C269.663 55.7532 270.069 55.8367 270.498 55.6919C270.927 55.5472 271.016 55.1241 270.776 54.4394C270.537 53.7546 270.108 53.0977 269.496 52.4631C268.883 51.834 268.555 51.461 268.516 51.3552H268.522ZM263.094 57.774C263.456 58.8095 263.6 59.6501 263.528 60.2903C263.456 60.9305 262.999 61.3981 262.159 61.6931C260.789 62.1719 259.726 61.348 258.98 59.2158C258.234 57.0837 258.546 55.7754 259.915 55.2967C261.285 54.8179 262.342 55.6418 263.094 57.774Z" fill="#28AFB0" stroke="#0C0D0D" stroke-width="1.5" stroke-miterlimit="10"/>
<path d="M198.61 93.9053C198.076 96.6832 192.832 97.6742 191.023 98.0138C189.286 98.3422 183.741 99.3888 182.728 97.329C181.882 95.6088 184.654 92.6973 185.567 91.7843C186.196 91.1497 191.507 85.9222 195.226 87.815C196.951 88.6946 197.876 90.8713 198.048 91.2833C198.438 92.2018 198.783 93.0257 198.61 93.9053Z" fill="#FFD037" stroke="#0C0D0D" stroke-width="2" stroke-miterlimit="10"/>
<path d="M198.611 93.904C196.657 94.8727 194.914 95.3514 193.662 95.6131C190.901 96.1809 189.52 96.4648 187.95 95.8413C187.043 95.4795 186.425 94.9562 185.2 94.9061C184.243 94.8615 183.446 95.1287 182.906 95.3681C182.45 96.3757 182.55 96.9714 182.728 97.3277C183.474 98.8364 186.764 98.3687 191.736 97.8733C194.82 97.5671 196.512 97.1162 197.653 95.7355C198.199 95.0786 198.472 94.3883 198.611 93.8984V93.904Z" fill="#F18300"/>
<path d="M198.61 93.9053C198.076 96.6832 192.832 97.6742 191.023 98.0138C189.286 98.3422 183.741 99.3888 182.728 97.329C181.882 95.6088 184.654 92.6973 185.567 91.7843C186.196 91.1497 191.507 85.9222 195.226 87.815C196.951 88.6946 197.876 90.8713 198.048 91.2833C198.438 92.2018 198.783 93.0257 198.61 93.9053Z" stroke="#0C0D0D" stroke-width="2" stroke-miterlimit="10"/>
<path d="M191.395 108.641C187.014 117.13 187.07 126.834 191.891 133.881C195.982 139.866 202.089 141.859 204.199 142.51C212.027 144.943 221.073 143.412 227.481 138.112C229.184 136.704 233.782 132.902 234.968 126.227C235.831 121.361 234.45 117.386 233.693 115.588" fill="#FFD037"/>
<path d="M191.046 132.563C190.562 134.4 188.174 144.131 193.997 152.326C194.843 153.517 196.769 155.955 200.015 157.898C208.632 163.059 221.414 161.667 228.896 154.274C230.221 152.96 234.324 148.791 235.059 142.082C235.616 137.016 233.973 133.047 233.122 131.305" fill="#FFD037"/>
<path d="M210.302 160.8C211.738 162.141 214.071 164.006 217.35 165.431C219.253 166.255 223.34 167.97 228.617 167.385C230.176 167.213 236.355 166.339 241.143 161.173C246.699 155.171 248.191 145.746 244.817 139.523C244.188 138.359 242.546 135.336 238.983 133.766C236.84 132.825 234.858 132.781 233.683 132.853" fill="#FFD037"/>
<path d="M237.886 164.344C239.723 164.255 246.955 163.687 252.099 157.931C257.772 151.59 258.963 141.135 254.142 134.928C251.431 131.437 245.725 127.875 241.483 129.823C239.779 130.608 238.716 132.094 238.064 133.408" fill="#FFD037"/>
<path d="M255.907 152.021C256.263 151.748 256.759 151.347 257.31 150.829C258.156 150.033 261.262 146.96 262.532 142.317C263.088 140.28 264.814 134 260.861 129.491C258.701 127.025 254.894 125.154 250.891 125.967C247.662 126.624 245.691 128.739 245.023 129.53" fill="#FFD037"/>
<path d="M248.83 126.712C248.863 125.989 249.086 122.671 251.708 120.477C254.854 117.844 259.491 118.468 262.013 120.255C265.971 123.055 267.084 130.375 262.82 136.894" fill="#FFD037"/>
<path d="M199.302 83.834C197.593 85.1255 194.909 87.5026 192.894 91.2826C192.287 92.4183 188.53 99.7055 190.868 107.204C193.941 117.069 205.503 121.244 213.381 121.645C215.368 121.745 227.916 122.152 233.878 113.194C236.957 108.568 236.929 103.469 236.89 102.122C236.717 96.8385 234.446 93.1086 233.45 91.6612" fill="#FFD037"/>
<path d="M202.268 87.062C205.336 89.8176 208.938 91.4376 209.984 91.8885C214.471 93.8147 218.307 94.1599 219.693 94.2434C222.092 94.3937 227.531 94.6609 233.444 91.6603C234.562 91.0924 238.437 89.016 241.861 84.6681C243.097 83.0983 246.754 78.3273 247.35 71.1237C247.483 69.5259 247.673 65.2505 245.774 60.2847C245.452 59.4497 244.043 55.9536 240.825 52.3017C235.247 45.9664 228.311 44.0291 226.668 43.606C224.241 42.9825 216.37 41.0897 208.064 45.2205C196.351 51.038 194.207 63.6472 194.118 64.2596C192.61 74.141 197.291 82.5972 202.263 87.0675L202.268 87.062Z" fill="#FFD037"/>
<path d="M261.362 119.797C261.346 119.335 261.201 116.435 258.796 114.481C256.942 112.972 254.036 112.265 251.503 113.59C249.493 114.642 248.202 116.73 248.085 118.957C247.963 121.345 249.237 123.015 249.583 123.444" fill="#FFD037"/>
<path d="M215.06 81.902C215.182 82.8261 218.445 83.6945 219.241 82.6146C219.692 82.0022 219.363 80.7385 218.623 80.2374C217.298 79.3467 214.949 81.0669 215.06 81.902Z" fill="#0C0D0D"/>
<path d="M214.388 82.0867C214.455 82.5154 214.833 82.8494 215.178 83.0777C215.551 83.3282 215.997 83.4896 216.425 83.6065C217.322 83.8515 218.463 83.9684 219.298 83.4729C220.406 82.816 220.311 81.2461 219.643 80.3053C219.292 79.8098 218.797 79.4313 218.185 79.3311C217.622 79.242 217.055 79.3255 216.531 79.5426C215.975 79.7709 215.446 80.0938 215.023 80.528C214.683 80.8731 214.31 81.3853 214.366 81.903C214.405 82.2649 214.661 82.6156 215.062 82.5989C215.407 82.5822 215.796 82.2927 215.757 81.903C215.757 81.8863 215.757 81.8418 215.757 81.8307C215.757 81.8195 215.774 81.6915 215.752 81.8696C215.73 82.0144 215.741 81.9309 215.752 81.9086C215.763 81.8863 215.769 81.8529 215.774 81.8251C215.791 81.736 215.691 81.981 215.757 81.8641C215.791 81.8028 215.824 81.7416 215.863 81.6859C215.88 81.6636 215.952 81.5523 215.885 81.6525C215.819 81.7527 215.913 81.6247 215.93 81.6024C215.991 81.5356 216.058 81.4688 216.125 81.4076C216.158 81.3797 216.192 81.3463 216.225 81.3185C216.242 81.3018 216.258 81.2907 216.275 81.274C216.348 81.2127 216.258 81.274 216.242 81.2962C216.286 81.2294 216.409 81.1737 216.476 81.1348C216.565 81.0791 216.654 81.0234 216.748 80.9733C216.837 80.9288 216.926 80.8898 217.01 80.8453C217.077 80.8119 216.96 80.8676 216.954 80.8676C216.977 80.862 216.999 80.8509 217.021 80.8397C217.077 80.823 217.127 80.8008 217.183 80.7841C217.272 80.7562 217.366 80.7284 217.461 80.7117C217.472 80.7117 217.6 80.6839 217.6 80.6839C217.6 80.6894 217.45 80.695 217.533 80.695C217.561 80.695 217.595 80.6894 217.628 80.6894C217.728 80.6839 217.823 80.6894 217.923 80.6894C218.051 80.695 217.789 80.656 217.917 80.6894C217.967 80.7006 218.018 80.7117 218.068 80.7284C218.09 80.734 218.235 80.7841 218.129 80.7451C218.023 80.7061 218.162 80.7618 218.185 80.7785C218.224 80.8008 218.263 80.8286 218.302 80.8509C218.368 80.8843 218.268 80.823 218.263 80.8175C218.285 80.8397 218.313 80.862 218.34 80.8843C218.379 80.9177 218.413 80.9622 218.446 80.9956C218.535 81.0902 218.396 80.9121 218.469 81.0234C218.53 81.1236 218.58 81.2294 218.641 81.3241C218.68 81.3853 218.63 81.2907 218.624 81.2795C218.636 81.3074 218.647 81.3296 218.652 81.3575C218.669 81.4076 218.686 81.4577 218.702 81.5078C218.719 81.5579 218.73 81.608 218.741 81.6636C218.747 81.6915 218.747 81.7138 218.758 81.7416C218.747 81.6971 218.747 81.6191 218.758 81.7082C218.764 81.8195 218.758 81.9253 218.758 82.0311C218.758 82.1146 218.758 81.9643 218.769 81.9643C218.769 81.9643 218.758 82.0255 218.752 82.0311C218.752 82.0422 218.708 82.1869 218.708 82.1814C218.697 82.1814 218.78 82.0422 218.702 82.1758C218.624 82.3094 218.686 82.1535 218.725 82.1591C218.713 82.1591 218.663 82.2203 218.658 82.2315C218.647 82.2426 218.63 82.2537 218.619 82.2649C218.58 82.315 218.741 82.1869 218.68 82.2148C218.619 82.2426 218.558 82.2816 218.502 82.315C218.469 82.3373 218.658 82.2593 218.535 82.2983C218.496 82.3094 218.452 82.3261 218.413 82.3373C218.335 82.3595 218.263 82.3707 218.185 82.3874C218.062 82.4152 218.335 82.3762 218.207 82.3874C218.157 82.3874 218.107 82.3985 218.062 82.3985C217.873 82.4096 217.678 82.3985 217.489 82.3874C217.444 82.3874 217.4 82.3762 217.355 82.3707C217.277 82.3651 217.428 82.3818 217.428 82.3818C217.428 82.3762 217.366 82.3707 217.361 82.3707C217.26 82.354 217.166 82.3373 217.066 82.315C216.86 82.2705 216.659 82.2092 216.459 82.1424C216.414 82.1257 216.364 82.1034 216.32 82.0867C216.247 82.0589 216.398 82.1146 216.386 82.1146C216.364 82.1146 216.331 82.0923 216.309 82.0812C216.225 82.0422 216.142 82.0032 216.064 81.9587C215.986 81.9142 215.913 81.8585 215.835 81.814C215.819 81.8028 215.958 81.9253 215.858 81.8307C215.83 81.8084 215.802 81.7806 215.78 81.7583C215.757 81.736 215.735 81.7026 215.713 81.6859C215.713 81.6859 215.796 81.8195 215.78 81.775L215.752 81.7305L215.735 81.6971C215.685 81.6358 215.78 81.7806 215.78 81.7973C215.78 81.7861 215.763 81.7249 215.757 81.7082C215.702 81.3463 215.234 81.1125 214.9 81.2239C214.51 81.3519 214.355 81.6915 214.416 82.0812L214.388 82.0867Z" fill="#0C0D0D"/>
<path d="M214.549 62.7239C215.565 58.4492 213.674 54.3395 210.327 53.5445C206.979 52.7495 203.443 55.5704 202.428 59.845C201.412 64.1197 203.303 68.2294 206.65 69.0244C209.998 69.8194 213.534 66.9985 214.549 62.7239Z" fill="#0C0D0D"/>
<path d="M207.339 57.6112C207.555 56.7019 207.153 55.8276 206.441 55.6585C205.729 55.4895 204.977 56.0896 204.761 56.9989C204.545 57.9083 204.947 58.7826 205.659 58.9517C206.371 59.1207 207.123 58.5206 207.339 57.6112Z" fill="white" stroke="#0C0D0D" stroke-miterlimit="10"/>
<path d="M241.274 67.5823C242.289 63.3076 240.398 59.1979 237.051 58.4029C233.704 57.6079 230.167 60.4288 229.152 64.7034C228.137 68.9781 230.027 73.0878 233.374 73.8828C236.722 74.6778 240.258 71.8569 241.274 67.5823Z" fill="#0C0D0D"/>
<path d="M233.933 62.4794C234.149 61.5701 233.747 60.6958 233.035 60.5267C232.323 60.3576 231.57 60.9577 231.354 61.8671C231.138 62.7765 231.541 63.6507 232.252 63.8198C232.964 63.9889 233.717 63.3888 233.933 62.4794Z" fill="white" stroke="#0C0D0D" stroke-miterlimit="10"/>
<path d="M232.747 114.597C231.617 115.743 229.886 117.274 227.492 118.616C223.311 120.96 219.498 121.399 217.31 121.633C212.823 122.106 209.377 121.433 208.492 121.249C206.432 120.821 202.001 119.846 197.625 116.317C194.391 113.706 192.487 110.744 191.401 108.646C190.939 109.709 190.483 110.767 190.021 111.83C190.666 113.611 191.936 116.478 194.424 119.195C205.68 131.498 231.372 129.266 234.395 121.622C234.924 120.292 234.723 118.889 234.339 117.697C234.094 117.208 233.849 116.718 233.593 116.222C233.315 115.677 233.031 115.137 232.753 114.602L232.747 114.597Z" fill="#F18300"/>
<path d="M191.046 132.565C190.846 132.933 190.634 133.411 190.478 133.985C190.205 134.992 190.228 135.872 190.294 136.451C192.438 139.468 197.782 145.993 206.717 148.192C218.269 151.036 233.01 145.948 234.613 138.121C235.137 135.566 234.173 133.122 233.116 131.296C231.952 133.356 229.792 136.518 226.107 139.14C219.031 144.167 209.122 145.208 200.983 141.328C195.828 138.867 192.705 135.059 191.046 132.565Z" fill="#F18300"/>
<path d="M211.208 160.952C211.392 161.242 211.698 161.659 212.166 162.049C217.221 166.302 232.908 160.708 238.487 149.857C241.971 143.077 240.958 135.227 238.982 133.758C238.052 133.067 236.956 132.917 236.059 132.917C235.269 132.895 234.478 132.867 233.682 132.845C234.528 134.342 235.497 136.547 235.697 139.286C236.327 147.976 228.438 155.424 221.691 158.586C219.542 159.594 216.007 160.869 211.214 160.947L211.208 160.952Z" fill="#F18300"/>
<path d="M237.886 164.346C245.964 156.535 248.542 146.331 244.812 139.522C244.032 138.103 242.217 135.431 238.064 133.404C239.189 131.812 240.297 131.367 241.026 131.244C244.311 130.676 247.695 135.28 249.087 138.242C253.056 146.659 249.159 159.296 241.188 163.243C239.935 163.867 238.771 164.179 237.881 164.346H237.886Z" fill="#F18300"/>
<path d="M199.302 83.8356C199.118 84.0138 198.912 84.2031 198.678 84.3923C198.333 84.6651 198.005 84.8822 197.704 85.0548C199.374 89.9148 201.924 92.7818 203.555 94.296C212.891 102.986 227.126 99.9187 229.742 99.3564C232.381 98.7886 234.513 98.0036 235.988 97.3801C235.749 96.5952 235.448 95.749 235.07 94.8527C234.557 93.6335 233.995 92.5703 233.455 91.6573C232.564 92.1583 231.29 92.7985 229.686 93.3441C223.874 95.337 218.831 94.4185 216.726 94.0399C207.329 92.3364 201.206 85.9622 199.307 83.8301L199.302 83.8356Z" fill="#F18300"/>
<path d="M208.075 45.2165C210.831 44.5095 215.496 43.68 221.141 44.5318C222.806 44.7823 230.683 46.1017 238.087 52.4926C243.32 57.013 246.026 62.0845 247.356 65.1519C246.894 63.0754 244.528 53.5447 235.242 47.3988C233.622 46.3243 226.391 41.7817 216.682 42.8283C212.963 43.2291 210.013 44.3258 208.075 45.2221V45.2165Z" fill="#F18300"/>
<path d="M245.029 129.522C245.491 128.799 246.243 127.897 247.384 127.535C250.952 126.399 256.235 131.215 257.961 136.309C259.564 141.041 257.889 145.383 257.159 147.008C257.354 145.082 257.332 142.449 256.425 139.554C256.068 138.424 255.523 136.743 254.153 134.928C253.713 134.343 252.355 132.64 249.967 131.265C248.03 130.152 246.22 129.712 245.035 129.522H245.029Z" fill="#F18300"/>
<path d="M248.831 126.712C248.748 125.988 248.692 124.541 249.583 123.433C251.409 121.156 255.584 122.347 256.163 122.509C260.093 123.628 263.277 127.419 263.762 131.639C263.979 133.559 263.589 135.162 263.255 136.153C263.3 131.95 261.006 128.159 257.426 126.517C253.324 124.635 249.41 126.433 248.842 126.706L248.831 126.712Z" fill="#F18300"/>
<path d="M261.363 119.798C261.04 119.592 257.661 117.521 253.904 119.074C250.959 120.293 249.806 122.893 249.584 123.438C249.027 122.887 248.136 121.824 248.225 120.583C248.403 118.1 252.35 116.636 255.011 116.435C257.093 116.279 260.478 116.741 261.224 118.679C261.386 119.096 261.391 119.497 261.363 119.792V119.798Z" fill="#F18300"/>
<path d="M191.396 108.641C186.998 117.832 187.332 127.936 192.593 134.867C196.306 139.76 201.305 141.536 203.415 142.254C212.005 145.177 222.393 143.317 228.784 137.016C232.119 133.725 233.377 130.202 233.633 129.456C236.01 122.525 233.527 116.351 232.748 114.592" stroke="#0C0D0D" stroke-width="2" stroke-miterlimit="10"/>
<path d="M191.047 132.564C188.648 141.354 190.969 150.367 197.082 155.817C203.461 161.501 211.344 160.966 213.248 160.833C221.916 160.243 232.048 154.659 234.553 144.9C236.123 138.804 234.096 133.476 233.117 131.3" stroke="#0C0D0D" stroke-width="2" stroke-miterlimit="10"/>
<path d="M210.302 160.798C218.474 168.564 230.382 169.527 238.187 163.86C246.348 157.931 248.408 145.907 244.817 139.521C244.149 138.336 242.167 134.812 238.07 133.403C236.305 132.796 234.713 132.78 233.678 132.852" stroke="#0C0D0D" stroke-width="2" stroke-miterlimit="10"/>
<path d="M237.039 164.624C238.943 164.562 246.809 164.089 252.103 157.926C258.31 150.706 258.355 138.737 252.693 133.254C250.65 131.277 246.186 128.516 242.049 130.058C240.001 130.821 238.737 132.38 238.069 133.398" stroke="#0C0D0D" stroke-width="2" stroke-miterlimit="10"/>
<path d="M255.773 151.568C256.241 151.223 264.413 144.999 263.255 136.158C263.088 134.872 262.214 128.214 256.63 126.182C252.8 124.791 248.202 126.099 245.034 129.522" stroke="#0C0D0D" stroke-width="2" stroke-miterlimit="10"/>
<path d="M248.83 126.711C248.852 126.11 249.019 122.853 251.708 120.476C252.465 119.808 254.236 118.494 256.718 118.411C260.315 118.288 262.77 120.827 263.404 121.556C266.355 124.941 266.355 130.836 263.249 136.153" stroke="#0C0D0D" stroke-width="2" stroke-miterlimit="10"/>
<path d="M199.302 83.834C197.832 84.8416 193.172 88.3043 191.079 94.8789C190.439 96.8886 188.936 102.634 191.402 108.646C195.85 119.491 208.994 121.422 210.335 121.6C219.042 122.731 232.097 119.713 235.921 109.403C238.983 101.147 234.312 93.0919 233.455 91.6667" stroke="#0C0D0D" stroke-width="2" stroke-miterlimit="10"/>
<path d="M202.268 87.062C205.336 89.8176 208.938 91.4376 209.984 91.8885C214.471 93.8147 218.307 94.1599 219.693 94.2434C221.853 94.377 227.476 94.6553 233.444 91.6603C234.206 91.2762 244.783 85.737 247.016 73.69C248.196 67.327 246.487 62.1608 245.774 60.2847C245.479 59.5053 244.071 55.9814 240.825 52.3017C235.247 45.9664 228.311 44.0291 226.668 43.606C224.241 42.9825 216.37 41.0897 208.064 45.2205C196.351 51.038 194.207 63.6472 194.118 64.2596C192.61 74.141 197.291 82.5972 202.263 87.0675L202.268 87.062Z" stroke="#0C0D0D" stroke-width="2" stroke-miterlimit="10"/>
<path d="M261.362 119.797C261.306 116.958 259.58 114.442 257.008 113.429C254.553 112.466 251.341 112.866 249.448 115.205C247.583 117.509 247.6 120.966 249.576 123.433" stroke="#0C0D0D" stroke-width="2" stroke-miterlimit="10"/>
<path d="M234.479 96.9001C232.347 96.5605 229.758 98.2974 229.141 100.385C227.699 105.245 236.79 112.399 239.222 111.018C240.998 110.01 239.406 104.365 239.167 103.558C238.532 101.404 237.335 97.351 234.479 96.9001Z" fill="#FFD037" stroke="#0C0D0D" stroke-width="2" stroke-miterlimit="10"/>
<path d="M238.481 111.191C238.848 111.146 239.038 111.124 239.221 111.024C240.747 110.172 240.017 105.523 238.804 102.367C238.331 101.142 237.518 99.4387 236.048 97.6016C238.581 105.162 237.991 107.878 236.783 108.847C236.332 109.209 235.43 109.615 235.491 110.133C235.569 110.79 237.134 111.352 238.481 111.191Z" fill="#F18300"/>
<path d="M234.479 96.9001C232.347 96.5605 229.758 98.2974 229.141 100.385C227.699 105.245 236.79 112.399 239.222 111.018C240.998 110.01 239.406 104.365 239.167 103.558C238.532 101.404 237.335 97.351 234.479 96.9001Z" stroke="#0C0D0D" stroke-width="2" stroke-miterlimit="10"/>
<path d="M211.31 43.8918C210.909 43.3184 210.408 42.5557 209.89 41.6204C209.334 40.6239 208.983 39.8446 208.71 39.2266C208.588 38.9538 208.059 37.7569 207.463 36.0145C206.956 34.5392 206.7 33.7988 206.544 32.9471C206.366 31.9895 206.149 30.7704 206.405 29.2283C206.595 28.0815 206.968 27.2075 207.224 26.6285C207.463 26.083 207.747 25.5931 208.32 24.6021C209.111 23.2438 209.506 22.5646 210.113 21.7407C210.992 20.5438 211.143 20.6106 211.644 19.7756C212.234 18.7846 212.713 17.983 212.59 16.9754C212.451 15.8007 211.527 14.6317 210.341 14.3032C208.961 13.9191 207.747 14.8209 206.645 15.6337C204.73 17.0477 203.828 18.8069 203.16 20.143C202.887 20.6885 201.835 22.8541 201.395 25.9883C201.328 26.4559 200.944 29.3452 201.512 32.4405C202.748 39.1654 207.875 43.5243 209.295 44.66C209.968 44.4039 210.642 44.1534 211.321 43.8973L211.31 43.8918Z" fill="#FFD037" stroke="#0C0D0D" stroke-width="2" stroke-miterlimit="10"/>
<path d="M234.641 47.0656C237.536 41.7602 238.682 37.2398 239.195 34.1446C240.57 25.9277 238.866 19.6481 241.973 18.0782C243.092 17.516 244.584 17.683 245.558 18.3733C249.9 21.4574 244.35 35.3582 243.854 36.5718C242.535 39.8006 240.358 44.0149 236.634 48.4295C235.971 47.9785 235.309 47.5221 234.646 47.0711L234.641 47.0656Z" fill="#FFD037" stroke="#0C0D0D" stroke-width="2" stroke-miterlimit="10"/>
<path d="M201.534 24.6901C201.183 26.4883 200.638 30.5522 202.302 35.2452C204.2 40.5839 207.83 43.5734 209.283 44.6478C209.957 44.3917 210.63 44.1412 211.31 43.8851C210.029 42.8831 208.409 41.4189 206.839 39.387C206.01 38.3181 204.841 36.6258 203.822 34.399C202.124 30.6802 201.634 27.1897 201.534 24.6846V24.6901Z" fill="#F18300"/>
<path d="M234.641 47.0639C235.91 45.8113 237.213 44.414 238.521 42.8719C241.126 39.7934 243.181 36.7761 244.806 34.0371C243.904 36.6647 242.552 39.8323 240.47 43.167C239.2 45.2101 237.881 46.9525 236.634 48.4222C235.971 47.9657 235.309 47.5148 234.646 47.0639H234.641Z" fill="#F18300"/>
<path d="M211.307 43.8934C210.389 42.5796 209.131 40.5365 208.151 37.831C206.865 34.2681 205.896 31.9856 206.397 29.23C207.015 25.8452 209.621 22.416 210.584 21.1523C211.641 19.7661 212.766 18.5692 212.577 16.977C212.46 15.9861 211.831 14.9005 210.84 14.4607C209.504 13.8706 208.023 14.689 207.388 15.0397C203.72 17.0661 200.034 24.7207 201.504 32.431C202.779 39.1336 207.438 43.2087 209.286 44.6505C209.96 44.3944 210.634 44.1439 211.313 43.8878L211.307 43.8934Z" stroke="#0C0D0D" stroke-width="2" stroke-miterlimit="10"/>
<path d="M223.065 63.9568C222.842 63.7341 222.358 63.35 221.634 63.2442C221.506 63.2275 221.389 63.2163 221.272 63.2163C220.749 63.2163 220.332 63.3834 220.131 63.4836L219.179 63.9568L219.652 60.7168L219.87 60.5776C220.17 60.3883 220.805 60.0654 221.645 60.0654C221.857 60.0654 222.074 60.0877 222.286 60.1267C223.427 60.3549 224.078 61.1065 224.306 61.4182L224.457 61.6186L223.789 64.6526L223.071 63.9456L223.065 63.9568Z" fill="#077BB3"/>
<path d="M221.645 60.6339C221.812 60.6339 221.99 60.6506 222.174 60.684C223.187 60.8844 223.733 61.5914 223.855 61.7584C223.722 62.3597 223.588 62.9609 223.455 63.5621C223.265 63.3729 222.664 62.8329 221.712 62.6937C221.562 62.6714 221.411 62.6603 221.272 62.6603C220.593 62.6603 220.087 62.883 219.886 62.9832C219.981 62.3374 220.075 61.6972 220.17 61.0514C220.309 60.9624 220.871 60.6283 221.645 60.6283M221.645 59.5205C220.665 59.5205 219.925 59.8935 219.574 60.1162L219.14 60.389L219.068 60.8956L218.945 61.7139L218.784 62.8273L218.478 64.9316L220.382 63.9852C220.537 63.9073 220.866 63.7737 221.278 63.7737C221.372 63.7737 221.467 63.7793 221.556 63.796C222.118 63.8795 222.503 64.1801 222.675 64.3527L224.111 65.7722L224.546 63.8015L224.774 62.7661L224.941 61.9978L225.052 61.5079L224.757 61.1015C224.49 60.7341 223.727 59.8601 222.397 59.5929C222.152 59.5428 221.901 59.5205 221.651 59.5205H221.645Z" fill="#0C0D0D"/>
<path d="M238.569 81.5289C231.632 81.5289 225.403 76.886 223.416 70.2335C220.916 61.8774 225.687 53.0426 234.043 50.543C235.524 50.1032 237.049 49.875 238.574 49.875C245.511 49.875 251.74 54.5179 253.728 61.1704C254.936 65.2176 254.496 69.4986 252.492 73.2174C250.482 76.9361 247.148 79.6528 243.1 80.8609C241.62 81.3007 240.094 81.5289 238.569 81.5289ZM238.574 52.7865C237.327 52.7865 236.08 52.9702 234.872 53.3321C231.571 54.3175 228.849 56.5331 227.212 59.5727C225.576 62.6067 225.219 66.1028 226.205 69.404C227.825 74.8318 232.913 78.6285 238.574 78.6285C239.821 78.6285 241.068 78.4448 242.271 78.0829C249.096 76.0454 252.987 68.8362 250.95 62.011C249.33 56.5832 244.242 52.7921 238.574 52.7921V52.7865Z" fill="#077BB3"/>
<path d="M238.575 50.4366C245.149 50.4366 251.217 54.7177 253.194 61.3368C255.604 69.4145 251.011 77.9209 242.939 80.3314C241.481 80.7656 240.011 80.9716 238.564 80.9716C231.989 80.9716 225.921 76.6906 223.945 70.0714C221.534 61.9937 226.127 53.4874 234.199 51.0768C235.658 50.6426 237.127 50.4366 238.575 50.4366ZM238.575 79.179C239.85 79.179 241.147 78.9953 242.433 78.6112C249.558 76.479 253.611 68.9747 251.485 61.8434C249.737 56.0036 244.381 52.2236 238.58 52.2236C237.305 52.2236 236.008 52.4074 234.722 52.7915C227.597 54.9181 223.549 62.4279 225.676 69.5537C227.424 75.3935 232.78 79.1735 238.58 79.1735M238.575 49.3232C236.994 49.3232 235.413 49.5571 233.882 50.0136C225.231 52.5966 220.293 61.7432 222.876 70.3943C224.936 77.2807 231.382 82.085 238.564 82.085C240.145 82.085 241.726 81.8512 243.257 81.3947C247.449 80.1421 250.9 77.3308 252.977 73.484C255.053 69.6316 255.51 65.2059 254.257 61.0139C252.197 54.1276 245.751 49.3232 238.569 49.3232H238.575ZM238.575 78.0656C233.158 78.0656 228.293 74.4359 226.739 69.2419C225.793 66.0799 226.138 62.7397 227.702 59.8337C229.272 56.9278 231.872 54.8067 235.034 53.8659C236.192 53.5208 237.383 53.3482 238.575 53.3482C243.991 53.3482 248.863 56.9779 250.416 62.1719C252.364 68.7019 248.64 75.5994 242.115 77.5535C240.963 77.8986 239.772 78.0712 238.575 78.0712V78.0656Z" fill="#0C0D0D"/>
<path d="M204.949 75.6451C198.013 75.6451 191.783 71.0022 189.796 64.3497C188.588 60.3025 189.028 56.0215 191.032 52.3027C193.042 48.584 196.376 45.8673 200.423 44.6592C201.904 44.2195 203.43 43.9912 204.955 43.9912C211.891 43.9912 218.121 48.6341 220.108 55.2866C221.316 59.3338 220.877 63.6149 218.872 67.3336C216.863 71.0523 213.528 73.769 209.481 74.9771C208 75.4169 206.475 75.6451 204.949 75.6451ZM204.955 46.9027C203.708 46.9027 202.461 47.0865 201.253 47.4483C197.952 48.4337 195.229 50.6493 193.587 53.6889C191.95 56.7229 191.594 60.219 192.58 63.5202C194.205 68.948 199.288 72.7447 204.949 72.7447C206.196 72.7447 207.443 72.561 208.646 72.1991C215.471 70.1616 219.362 62.9524 217.325 56.1272C215.705 50.6994 210.617 46.9083 204.955 46.9083V46.9027Z" fill="#077BB3"/>
<path d="M204.955 44.5529C211.529 44.5529 217.597 48.8339 219.574 55.453C221.984 63.5307 217.391 72.0371 209.319 74.4476C207.861 74.8818 206.391 75.0878 204.944 75.0878C198.369 75.0878 192.301 70.8068 190.325 64.1876C187.914 56.1099 192.507 47.6036 200.579 45.1931C202.038 44.7588 203.507 44.5529 204.955 44.5529ZM204.949 73.2952C206.224 73.2952 207.521 73.1115 208.807 72.7274C215.933 70.6008 219.986 63.0909 217.859 55.9596C216.111 50.1198 210.755 46.3399 204.955 46.3399C203.68 46.3399 202.383 46.5236 201.097 46.9077C193.971 49.0398 189.924 56.5442 192.05 63.6699C193.798 69.5097 199.154 73.2897 204.955 73.2897M204.955 43.4395C203.374 43.4395 201.793 43.6733 200.262 44.1298C196.07 45.3823 192.618 48.1937 190.542 52.0405C188.465 55.8928 188.009 60.3186 189.261 64.5105C191.321 71.3969 197.768 76.2012 204.949 76.2012C206.53 76.2012 208.111 75.9674 209.642 75.5109C218.293 72.9278 223.231 63.7812 220.642 55.1301C218.583 48.2438 212.136 43.4395 204.955 43.4395ZM204.949 72.1818C199.532 72.1818 194.667 68.5522 193.114 63.3581C191.165 56.8281 194.884 49.9306 201.414 47.9821C202.572 47.637 203.763 47.4644 204.955 47.4644C210.371 47.4644 215.242 51.0941 216.796 56.2881C217.742 59.4501 217.397 62.7903 215.827 65.6963C214.257 68.6023 211.652 70.7233 208.49 71.6697C207.332 72.0148 206.146 72.1874 204.949 72.1874V72.1818Z" fill="#0C0D0D"/>
<path d="M193.934 70.3898C194.886 71.3807 197.38 73.7077 201.393 74.6708C205.786 75.7229 209.338 74.5093 210.635 73.9916C211.876 73.4961 215.823 71.7258 218.3 67.2834C220.238 63.8151 220.271 60.5251 220.204 59.1055C220.087 60.7088 219.598 64.4219 216.881 67.996C216.024 69.1205 213.396 72.4829 208.697 73.7132C206.009 74.4147 203.798 74.1196 202.44 73.9192C198.337 73.3236 195.42 71.4809 193.934 70.3898Z" fill="#0A5877"/>
<path d="M229.516 77.9937C230.595 78.8009 232.85 80.2594 236.09 80.7939C237.159 80.972 239.803 81.2893 242.943 80.3318C248.393 78.6784 251.088 74.4865 251.539 73.7628C253.637 70.3836 253.838 67.0935 253.838 65.6572C253.682 67.1881 253.12 70.584 250.631 73.9186C249.902 74.8929 247.965 77.2533 244.841 78.7675C237.821 82.1578 230.495 78.5058 229.516 77.9993V77.9937Z" fill="#0A5877"/>
<path d="M234.641 47.0656C237.536 41.7602 238.682 37.2398 239.195 34.1446C240.57 25.9277 238.866 19.6481 241.973 18.0782C243.092 17.516 244.584 17.683 245.558 18.3733C249.9 21.4574 244.35 35.3582 243.854 36.5718C242.535 39.8006 240.358 44.0149 236.634 48.4295C235.971 47.9785 235.309 47.5221 234.646 47.0711L234.641 47.0656Z" stroke="#0C0D0D" stroke-width="2" stroke-miterlimit="10"/>
<path d="M55.3474 40.7334H28.3754C27.1455 40.7334 26.1486 41.7304 26.1486 42.9602V164.098C26.1486 165.328 27.1455 166.325 28.3754 166.325H55.3474C56.5772 166.325 57.5742 165.328 57.5742 164.098V42.9602C57.5742 41.7304 56.5772 40.7334 55.3474 40.7334Z" fill="#0F4C4A" stroke="#0C0D0D" stroke-width="2" stroke-miterlimit="10"/>
<path d="M40.611 40.7393H23.8487C22.6189 40.7393 21.6219 41.7362 21.6219 42.9661V164.104C21.6219 165.334 22.6189 166.331 23.8487 166.331H40.611C41.8408 166.331 42.8377 165.334 42.8377 164.104V42.9661C42.8377 41.7362 41.8408 40.7393 40.611 40.7393Z" fill="#28AFB0" stroke="#0C0D0D" stroke-width="2" stroke-miterlimit="10"/>
<path d="M181.516 40.7334H154.544C153.314 40.7334 152.317 41.7304 152.317 42.9602V164.098C152.317 165.328 153.314 166.325 154.544 166.325H181.516C182.746 166.325 183.743 165.328 183.743 164.098V42.9602C183.743 41.7304 182.746 40.7334 181.516 40.7334Z" fill="#0F4C4A" stroke="#0C0D0D" stroke-width="2" stroke-miterlimit="10"/>
<path d="M166.776 40.7393H150.014C148.784 40.7393 147.787 41.7362 147.787 42.9661V164.104C147.787 165.334 148.784 166.331 150.014 166.331H166.776C168.006 166.331 169.003 165.334 169.003 164.104V42.9661C169.003 41.7362 168.006 40.7393 166.776 40.7393Z" fill="#28AFB0" stroke="#0C0D0D" stroke-width="2" stroke-miterlimit="10"/>
<path d="M147.786 70.5452V64.2991C147.786 63.0692 146.789 62.0723 145.559 62.0723L45.0634 62.0723C43.8336 62.0723 42.8366 63.0692 42.8366 64.2991V70.5452C42.8366 71.7751 43.8336 72.772 45.0634 72.772H145.559C146.789 72.772 147.786 71.7751 147.786 70.5452Z" fill="#81EAE7" stroke="#0C0D0D" stroke-width="2" stroke-miterlimit="10"/>
<path d="M75.4501 76.7965V58.0469C75.4501 54.9662 72.9527 52.4688 69.8719 52.4688C66.7912 52.4688 64.2938 54.9662 64.2938 58.0469V76.7965C64.2938 79.8772 66.7912 82.3746 69.8719 82.3746C72.9527 82.3746 75.4501 79.8772 75.4501 76.7965Z" fill="#28AFB0" stroke="#0C0D0D" stroke-width="2" stroke-miterlimit="10"/>
<path d="M86.6079 76.7965V58.0469C86.6079 54.9662 84.1105 52.4688 81.0298 52.4688C77.9491 52.4688 75.4517 54.9662 75.4517 58.0469V76.7965C75.4517 79.8772 77.9491 82.3746 81.0298 82.3746C84.1105 82.3746 86.6079 79.8772 86.6079 76.7965Z" fill="#28AFB0" stroke="#0C0D0D" stroke-width="2" stroke-miterlimit="10"/>
<path d="M97.7732 76.7965V58.0469C97.7732 54.9662 95.2758 52.4688 92.1951 52.4688C89.1144 52.4688 86.6169 54.9662 86.6169 58.0469V76.7965C86.6169 79.8772 89.1144 82.3746 92.1951 82.3746C95.2758 82.3746 97.7732 79.8772 97.7732 76.7965Z" fill="#28AFB0" stroke="#0C0D0D" stroke-width="2" stroke-miterlimit="10"/>
<path d="M122.775 76.8024V58.0527C122.775 54.972 120.278 52.4746 117.197 52.4746C114.116 52.4746 111.619 54.972 111.619 58.0527V76.8024C111.619 79.8831 114.116 82.3805 117.197 82.3805C120.278 82.3805 122.775 79.8831 122.775 76.8024Z" fill="#28AFB0" stroke="#0C0D0D" stroke-width="2" stroke-miterlimit="10"/>
<path d="M147.792 105.735V99.4885C147.792 98.2587 146.796 97.2617 145.566 97.2617H45.0704C43.8406 97.2617 42.8436 98.2587 42.8436 99.4885V105.735C42.8436 106.965 43.8406 107.961 45.0704 107.961H145.566C146.796 107.961 147.792 106.965 147.792 105.735Z" fill="#81EAE7" stroke="#0C0D0D" stroke-width="2" stroke-miterlimit="10"/>
<path d="M76.6503 111.986V93.2363C76.6503 90.1556 74.1529 87.6582 71.0721 87.6582C67.9914 87.6582 65.494 90.1556 65.494 93.2363V111.986C65.494 115.067 67.9914 117.564 71.0721 117.564C74.1529 117.564 76.6503 115.067 76.6503 111.986Z" fill="#28AFB0" stroke="#0C0D0D" stroke-width="2" stroke-miterlimit="10"/>
<path d="M93.0732 111.98V93.2305C93.0732 90.1498 90.5758 87.6523 87.4951 87.6523C84.4144 87.6523 81.917 90.1498 81.917 93.2305V111.98C81.917 115.061 84.4144 117.558 87.4951 117.558C90.5758 117.558 93.0732 115.061 93.0732 111.98Z" fill="#28AFB0" stroke="#0C0D0D" stroke-width="2" stroke-miterlimit="10"/>
<path d="M117.189 111.98V93.2305C117.189 90.1498 114.692 87.6523 111.611 87.6523C108.53 87.6523 106.033 90.1498 106.033 93.2305V111.98C106.033 115.061 108.53 117.558 111.611 117.558C114.692 117.558 117.189 115.061 117.189 111.98Z" fill="#28AFB0" stroke="#0C0D0D" stroke-width="2" stroke-miterlimit="10"/>
<path d="M128.347 111.986V93.2363C128.347 90.1556 125.849 87.6582 122.769 87.6582C119.688 87.6582 117.191 90.1556 117.191 93.2363V111.986C117.191 115.067 119.688 117.564 122.769 117.564C125.849 117.564 128.347 115.067 128.347 111.986Z" fill="#28AFB0" stroke="#0C0D0D" stroke-width="2" stroke-miterlimit="10"/>
<path d="M147.786 140.929V134.683C147.786 133.453 146.789 132.456 145.559 132.456H45.0634C43.8336 132.456 42.8366 133.453 42.8366 134.683V140.929C42.8366 142.159 43.8336 143.156 45.0634 143.156H145.559C146.789 143.156 147.786 142.159 147.786 140.929Z" fill="#81EAE7" stroke="#0C0D0D" stroke-width="2" stroke-miterlimit="10"/>
<path d="M88.6693 147.181V128.432C88.6693 125.351 86.1719 122.854 83.0912 122.854C80.0105 122.854 77.5131 125.351 77.5131 128.432V147.181C77.5131 150.262 80.0105 152.759 83.0912 152.759C86.1719 152.759 88.6693 150.262 88.6693 147.181Z" fill="#28AFB0" stroke="#0C0D0D" stroke-width="2" stroke-miterlimit="10"/>
<path d="M99.8271 147.175V128.426C99.8271 125.345 97.3297 122.848 94.249 122.848C91.1683 122.848 88.6709 125.345 88.6709 128.426V147.175C88.6709 150.256 91.1683 152.754 94.249 152.754C97.3297 152.754 99.8271 150.256 99.8271 147.175Z" fill="#28AFB0" stroke="#0C0D0D" stroke-width="2" stroke-miterlimit="10"/>
<path d="M110.981 147.175V128.426C110.981 125.345 108.484 122.848 105.403 122.848C102.322 122.848 99.8251 125.345 99.8251 128.426V147.175C99.8251 150.256 102.322 152.754 105.403 152.754C108.484 152.754 110.981 150.256 110.981 147.175Z" fill="#28AFB0" stroke="#0C0D0D" stroke-width="2" stroke-miterlimit="10"/>
<path d="M126.708 147.175V128.426C126.708 125.345 124.211 122.848 121.13 122.848C118.05 122.848 115.552 125.345 115.552 128.426V147.175C115.552 150.256 118.05 152.754 121.13 152.754C124.211 152.754 126.708 150.256 126.708 147.175Z" fill="#28AFB0" stroke="#0C0D0D" stroke-width="2" stroke-miterlimit="10"/>
<path d="M86.7707 13.1314L98.8968 11.3936L99.4785 15.4521L96.232 29.4543L90.7876 30.2345L93.8435 17.0173L87.4588 17.9323L86.7707 13.1314ZM117.147 15.3445L117.785 19.799L113.826 20.3665L114.393 24.326L109.939 24.9644L109.371 21.0049L105.412 21.5723L104.773 17.1178L108.733 16.5504L108.165 12.5908L112.62 11.9524L113.187 15.912L117.147 15.3445ZM134.326 14.7515C136.028 15.4673 137.011 16.7491 137.276 18.5968C137.508 20.2137 137.122 21.5738 136.118 22.6774C135.112 23.7644 133.545 24.4604 131.417 24.7654C129.289 25.0704 127.589 24.8426 126.318 24.0818C125.045 23.3046 124.293 22.1075 124.061 20.4907C123.796 18.6429 124.38 17.1365 125.813 15.9715C124.516 15.265 123.765 14.1941 123.559 12.7587C123.33 11.1584 123.711 9.82416 124.703 8.75599C125.692 7.67132 127.07 7.00249 128.835 6.7495C130.6 6.49651 132.11 6.75158 133.364 7.51469C134.616 8.26131 135.357 9.43478 135.586 11.0351C135.792 12.4704 135.372 13.7092 134.326 14.7515ZM129.459 11.105C128.42 11.254 127.96 11.7491 128.081 12.5905C128.202 13.4319 128.782 13.7782 129.821 13.6292C130.283 13.563 130.639 13.4026 130.888 13.1479C131.155 12.8909 131.258 12.5561 131.199 12.1437C131.14 11.7312 130.947 11.439 130.619 11.2671C130.308 11.0928 129.921 11.0388 129.459 11.105ZM129.488 20.1171C129.82 20.322 130.251 20.3866 130.778 20.3109C131.306 20.2353 131.693 20.0536 131.938 19.766C132.197 19.4594 132.293 19.0752 132.227 18.6132C132.161 18.1513 131.962 17.8179 131.629 17.613C131.311 17.3892 130.888 17.3151 130.36 17.3908C129.832 17.4664 129.438 17.6575 129.179 17.9641C128.934 18.2517 128.845 18.6265 128.911 19.0885C128.977 19.5504 129.17 19.8933 129.488 20.1171Z" fill="#124A49"/>
</svg>
