<svg width="298" height="182" viewBox="0 0 298 182" fill="none" xmlns="http://www.w3.org/2000/svg">
<path d="M277.235 126.268L247.803 110.155L249.677 143.654L232.247 114.987L217.114 144.934L216.355 111.392L188.282 129.765L204.388 100.332L170.889 102.206L199.557 84.7704L169.609 69.6438L203.151 68.8844L184.785 40.8051L214.212 56.9178L212.338 23.4186L229.773 52.0858L244.9 22.1387L245.665 55.6807L273.738 37.3082L257.626 66.7409L291.125 64.8669L262.458 82.3024L292.405 97.4291L258.863 98.1946L277.235 126.268Z" fill="#FFDABA"/>
<path d="M61.1513 159.136L49.0438 152.504L49.8155 166.289L42.6441 154.494L36.4219 166.816L36.1096 153.018L24.5595 160.576L31.1858 148.468L17.4064 149.234L29.1954 142.062L16.8798 135.84L30.6775 135.528L23.1203 123.978L35.2277 130.604L34.4561 116.825L41.6275 128.62L47.8496 116.298L48.162 130.096L59.7121 122.538L53.0858 134.646L66.8651 133.874L55.0761 141.046L67.3918 147.274L53.5941 147.586L61.1513 159.136Z" fill="#FFDABA"/>
<path d="M149 181C230.672 181 296.88 176.484 296.88 170.914C296.88 165.343 230.672 160.827 149 160.827C67.3281 160.827 1.12 165.343 1.12 170.914C1.12 176.484 67.3281 181 149 181Z" fill="#FFDABA" stroke="#832706" stroke-miterlimit="10"/>
<path d="M129.445 150.322C130.952 149.373 133.793 147.303 135.925 143.61C136.568 142.495 138.295 139.421 138.448 135.275C138.478 134.473 138.674 124.607 130.603 119.971C123.346 115.806 115.825 119.542 115.262 119.83C109.034 123.057 107.215 129.139 106.915 130.204C109.278 130.253 114.172 130.694 119.059 133.866C127.553 139.378 129.194 148.687 129.451 150.322H129.445Z" fill="#FFD037"/>
<path d="M112.333 121.658C111.923 120.561 111.329 118.473 111.77 115.938C112.529 111.565 115.793 109.207 116.571 108.681C116.908 108.454 118.519 107.382 120.944 106.905C125.396 106.023 128.942 107.842 129.652 108.221C134.062 110.585 135.605 114.707 136.015 115.962C137.436 120.304 136.236 123.997 135.813 125.136C127.987 123.979 120.154 122.821 112.327 121.664L112.333 121.658Z" fill="#FFD037"/>
<path d="M112.462 113.458C111.899 113.108 110.962 112.429 110.203 111.271C108.935 109.336 109.008 107.376 109.039 106.825C109.063 106.433 109.272 103.445 111.691 101.442C114.63 99.0107 118.476 99.9966 119.56 100.272C124.711 101.589 126.964 106.415 127.307 107.18C122.359 109.275 117.411 111.363 112.462 113.458Z" fill="#FFD037"/>
<path d="M129.445 150.319C129.794 148.91 131.453 141.561 127.16 135.229C126.474 134.218 124.551 131.45 120.852 129.656C117.588 128.07 114.691 128.088 114.061 128.1C110.582 128.174 108.047 129.509 106.901 130.201C107.061 129.08 107.477 127.426 108.739 126.036C111.966 122.49 117.931 123.746 119.156 124.04C127.362 126.03 133.829 136.215 132.011 144.721C131.459 147.299 130.259 149.204 129.438 150.312L129.445 150.319Z" fill="#F18300"/>
<path d="M112.335 121.659C111.349 119.399 111.435 117.917 111.992 116.919C114.589 112.246 130.468 112.742 134.694 120.422C135.65 122.161 135.821 123.925 135.821 125.132C135.025 123.864 132.434 120.122 127.59 118.665C123.518 117.44 119.972 118.462 118.012 119.026C115.483 119.755 113.566 120.839 112.335 121.659Z" fill="#F18300"/>
<path d="M112.461 113.456C111.512 113.021 110.44 112.329 110.201 111.27C109.595 108.575 114.519 104.099 119.632 103.958C123.564 103.847 126.412 106.334 127.3 107.179C126.442 106.946 120.802 105.525 116.105 108.998C114.114 110.468 113.024 112.274 112.461 113.45V113.456Z" fill="#F18300"/>
<path d="M129.442 150.321C135.517 146.383 138.959 139.763 138.402 133.069C138.316 132.052 137.514 123.956 130.594 119.969C123.679 115.989 114.695 118.426 110.133 123.73C108.124 126.069 107.285 128.592 106.905 130.203" stroke="#0D0C0C" stroke-width="2" stroke-miterlimit="10"/>
<path d="M135.82 125.136C136.071 124.463 138.178 118.492 134.559 112.851C134.142 112.202 130.535 106.776 123.964 106.617C119.591 106.513 114.465 108.748 112.463 113.457C110.913 117.107 111.954 120.574 112.328 121.664" stroke="#0D0C0C" stroke-width="2" stroke-miterlimit="10"/>
<path d="M112.463 113.458C111.992 113.158 109.714 111.639 109.089 108.7C108.489 105.858 109.726 103.053 111.692 101.437C114.644 99.0114 118.367 99.9668 119.561 100.267C124.718 101.59 126.965 106.409 127.308 107.175" stroke="#0D0C0C" stroke-width="2" stroke-miterlimit="10"/>
<path d="M69.6422 160.356C71.1243 162.144 76.8565 168.654 86.6612 170.185C89.0619 170.559 97.5439 171.882 104.991 166.382C110.931 161.991 116.1 153.332 113.657 144.262C111.366 135.755 103.735 131.94 102.443 131.315C103 133.875 103.668 138.64 102.229 144.244C101.623 146.607 99.6016 154.465 92.3322 159.193C82.2947 165.715 70.6466 160.803 69.6422 160.362V160.356Z" fill="#FFD037"/>
<path d="M103.78 167.21C106.003 167.498 114.062 168.264 120.86 162.997C128.797 156.854 132.312 144.588 127.419 136.393C125.484 133.148 121.582 129.467 116.028 128.683C109.738 127.795 105.072 131.163 104.092 131.904C105.88 132.964 111.398 136.547 113.401 143.338C115.838 151.618 112.059 161.282 103.78 167.204V167.21Z" fill="#FFD037"/>
<path d="M69.6422 160.356C71.5591 162.175 74.6334 164.521 78.8529 165.58C91.2605 168.691 105.126 158.592 108.5 147.655C110.245 141.996 109.37 135.51 107.477 134.09C106.657 133.471 105.524 132.816 105.524 132.816C104.287 132.093 103.203 131.616 102.443 131.315C102.835 132.944 103.227 135.229 103.172 137.96C103.154 139.038 103.013 142.682 101.329 147.085C100.208 150.019 98.438 154.661 93.7775 158.121C89.9193 160.987 85.9998 161.612 83.5624 161.973C77.4138 162.879 72.3797 161.41 69.6483 160.356H69.6422Z" fill="#F18300"/>
<path d="M103.78 167.209C111.827 161.753 115.722 152.505 113.658 144.256C111.778 136.742 105.654 132.835 104.092 131.904C104.674 131.291 105.5 130.648 106.591 130.422C110.498 129.607 114.699 134.862 116.408 137.832C120.45 144.856 120.407 156.278 113.303 162.769C109.922 165.856 106.021 166.842 103.78 167.209Z" fill="#F18300"/>
<path d="M69.6422 160.358C71.1181 162.146 76.8565 168.656 86.6612 170.187C89.0742 170.56 97.5684 171.889 104.991 166.384C111.464 161.576 116.137 152.286 113.405 143.351C111.323 136.541 105.867 132.976 104.097 131.917" stroke="#0D0C0C" stroke-width="2" stroke-miterlimit="10"/>
<path d="M103.78 167.208C104.349 167.288 117.4 168.861 125.018 158.965C129.819 152.73 131.853 142.736 126.923 135.632C126.402 134.885 121.974 128.724 114.203 128.522C109.016 128.387 105.304 130.984 104.092 131.908" stroke="#0D0C0C" stroke-width="2" stroke-miterlimit="10"/>
<path d="M53.8879 103.038C53.0183 104.52 46.8941 115.385 51.622 126.402C53.9553 131.846 57.9053 134.908 59.5344 136.139C67.7162 142.337 76.8902 141.663 79.4501 141.382C82.206 141.075 90.8717 139.979 97.1367 132.545C98.4656 130.965 103.481 124.816 102.838 116.12C102.508 111.68 100.836 108.323 99.7211 106.474C97.5042 109.052 93.3091 113.119 86.8297 115.33C85.2987 115.85 72.6523 119.941 61.8983 112.347C57.4767 109.224 55.076 105.323 53.894 103.032L53.8879 103.038Z" fill="#FFD037"/>
<path d="M56.3048 133.686C56.1027 134.537 53.2795 147.098 61.6083 155.58C68.0265 162.12 77.1147 162.194 79.7542 162.218C83.049 162.243 85.5722 161.624 86.2826 161.447C88.1872 160.957 91.9903 159.726 95.7383 156.639C96.761 155.794 101.507 151.746 103.736 144.495C104.306 142.633 105.904 137.171 104.079 130.563C103.124 127.115 101.575 124.561 100.448 122.993C99.9578 125.535 98.5738 130.722 94.2072 135.082C85.8661 143.405 73.8567 141.5 71.6458 141.151C64.009 139.939 58.7851 135.921 56.3048 133.698V133.686Z" fill="#FFD037"/>
<path d="M58.7178 75.8594C57.0521 77.7885 54.2166 81.5977 52.7774 87.1707C52.214 89.3631 51.0626 94.0542 52.4773 99.5966C54.5779 107.815 60.9042 112.28 62.6067 113.443C71.1131 119.261 84.4393 120.59 94.3482 113.296C95.0035 112.813 105.102 105.121 105.096 92.2599C105.096 86.8706 103.32 82.6817 102.107 80.3606C100.289 81.7141 91.0779 88.2669 78.358 86.4787C67.1141 84.8925 60.4449 77.813 58.724 75.8594H58.7178Z" fill="#FFD037"/>
<path d="M51.9628 91.3654C52.1833 89.1424 52.6732 87.2439 53.1876 85.7435C52.9917 85.5904 52.7283 85.3944 52.416 85.1678C50.8053 84.0226 45.5447 80.2807 43.3767 81.6464C41.4048 82.8957 42.4581 88.0768 43.5053 90.802C44.7608 94.0723 46.9226 96.1668 48.1291 97.3181C49.8622 98.9716 51.577 100.037 52.8263 100.711C52.2139 98.5797 51.577 95.3094 51.9628 91.3654Z" fill="#FFD037"/>
<path d="M66.6989 82.2861C70.6123 84.5704 74.8563 85.5196 76.0873 85.7707C81.3479 86.8547 85.5552 86.3709 87.074 86.1504C89.6645 85.783 95.5866 84.8705 101.313 80.3141C105.312 77.1357 107.547 73.5163 108.692 71.281C109.427 69.8357 112.385 63.7238 111.552 55.5358C110.897 49.1054 108.239 44.7266 107.645 43.7774C105.104 39.7109 102.097 37.445 100.541 36.2753C93.1247 30.69 85.2245 30.1389 83.3628 30.047C80.613 29.9123 71.7085 29.6244 63.6736 35.914C52.35 44.7817 52.8338 58.8428 52.8706 59.5226C53.4401 70.5032 60.3543 78.5748 66.7051 82.2861H66.6989Z" fill="#FFD037"/>
<path d="M77.6353 73.282C80.1952 75.0764 83.735 75.0642 86.2827 73.2575C86.6195 73.0187 86.7787 72.59 86.5582 72.2103C86.3623 71.8796 85.8478 71.6959 85.511 71.9347C83.3798 73.4474 80.5627 73.4719 78.4131 71.9592C78.0763 71.7204 77.5619 71.898 77.3659 72.2348C77.1393 72.6145 77.2985 73.0432 77.6415 73.282H77.6353Z" fill="#0D0C0C"/>
<path d="M99.873 107.558C98.8196 109.046 97.0742 111.19 94.4102 113.155C89.3394 116.91 84.2257 117.62 82.2048 117.871C80.7778 118.055 76.1296 118.526 70.5076 116.818C63.9058 114.815 59.919 111.006 58.9942 110.087C56.3853 107.503 54.8053 104.869 53.8867 103.032C53.4825 103.663 53.0722 104.294 52.668 104.925C52.9497 106.437 53.556 108.752 54.9951 111.177C62.981 124.638 87.1041 125.312 96.6088 118.477C98.1276 117.387 101.508 114.993 101.49 111.588C101.484 109.83 100.571 108.415 99.873 107.558Z" fill="#F18300"/>
<path d="M56.3056 133.684C56.1218 134.596 55.9381 135.509 55.7544 136.427C56.7833 137.67 58.3755 139.379 60.6109 141.02C70.9852 148.645 86.8835 148.81 96.7311 141.559C98.7888 140.04 104.484 135.968 104.074 130.56C103.89 128.098 102.512 126.212 101.471 125.079C100.614 127.406 98.4153 132.373 93.2832 136.256C89.5965 139.042 86.069 140.01 83.9745 140.561C75.9947 142.655 69.4358 140.818 67.721 140.292C62.1296 138.577 58.3327 135.57 56.3056 133.684Z" fill="#F18300"/>
<path d="M58.7159 75.8594C58.4526 76.1717 58.1892 76.4902 57.9259 76.8025C58.9976 79.1113 60.9819 82.6143 64.5339 85.8173C73.0464 93.4908 83.6535 93.2091 86.2624 93.1417C92.3927 92.9764 97.1818 91.0595 99.3313 90.1899C101.61 89.2652 103.441 88.2853 104.751 87.5075C104.384 86.3439 103.967 85.1313 103.508 83.8881C103.049 82.6511 102.577 81.4752 102.099 80.3606C100.244 81.7447 91.3944 88.0281 79.0053 86.5399C67.2714 85.1313 60.3449 77.7089 58.7159 75.8594Z" fill="#F18300"/>
<path d="M63.6604 35.9124C66.4714 34.5406 71.3156 32.6115 77.5868 32.2747C79.4363 32.1767 88.2122 31.8521 97.6128 37.0944C104.257 40.7995 108.293 45.6682 110.406 48.6752C109.445 46.5378 104.784 36.7943 93.4116 32.2318C91.4274 31.4357 82.6331 28.147 72.3996 31.4234C68.4801 32.6789 65.5405 34.5161 63.6543 35.9124H63.6604Z" fill="#F18300"/>
<path d="M51.6992 93.8703C50.8234 93.3497 49.6843 92.6026 48.4534 91.5615C47.8226 91.0287 46.4936 89.8957 45.3607 88.4137C43.0274 85.3639 42.6783 82.314 42.4762 82.3569C42.1149 82.4365 41.8087 87.0909 43.848 91.6289C46.0711 96.5649 50.1253 99.2534 52.3238 100.472C52.2197 99.4555 52.1217 98.4328 52.0238 97.4039C51.9135 96.2159 51.8033 95.04 51.6931 93.8642L51.6992 93.8703Z" fill="#F18300"/>
<path d="M53.8846 103.041C52.9721 104.554 47.2092 114.487 51.1777 125.296C55.5565 137.232 69.0296 142.376 79.4468 141.384C81.48 141.188 89.3802 140.19 95.6881 133.705C96.8945 132.461 104.121 125.033 102.706 115.142C102.223 111.756 100.875 109.159 99.8647 107.561" stroke="#0D0C0C" stroke-width="2" stroke-miterlimit="10"/>
<path d="M56.3062 133.684C55.602 136.323 54.1628 143.286 57.6719 150.121C62.6876 159.895 74.5991 163.251 83.5587 161.971C85.6348 161.671 90.8649 160.655 95.7336 156.631C103.34 150.348 106.788 139.465 104.075 130.554C103.328 128.099 102.25 126.237 101.472 125.073" stroke="#0D0C0C" stroke-width="2" stroke-miterlimit="10"/>
<path d="M66.6976 82.2844C70.611 84.5687 74.855 85.5179 76.0859 85.769C81.3466 86.853 85.5539 86.3692 87.0727 86.1487C89.7183 85.769 95.5914 84.8627 101.311 80.3124C102.873 79.0753 108.085 74.6537 110.498 66.8515C110.902 65.5532 112.139 61.1989 111.545 55.5279C110.865 49.0425 108.183 44.6392 107.638 43.7696C105.096 39.7031 102.083 37.4311 100.534 36.2675C93.1172 30.6822 85.2171 30.1311 83.3553 30.0392C80.6056 29.9045 71.7011 29.6166 63.6662 35.9061C52.3426 44.7739 52.8264 58.835 52.8631 59.5148C53.4327 70.4954 60.3469 78.567 66.6976 82.2783V82.2844Z" stroke="#0D0C0C" stroke-width="2" stroke-miterlimit="10"/>
<path d="M58.7178 75.8594C57.0643 77.7701 54.2105 81.5793 52.7774 87.1707C52.214 89.3631 51.0626 94.0542 52.4773 99.5966C54.5779 107.809 60.8919 112.274 62.6067 113.443C71.5786 119.586 84.8374 120.057 94.3482 113.296C96.6447 111.661 102.922 106.627 104.753 97.5756C106.499 88.9773 103.124 82.2407 102.101 80.3606" stroke="#0D0C0C" stroke-width="2" stroke-miterlimit="10"/>
<path d="M51.9628 91.3654C52.1833 89.1424 52.6732 87.2439 53.1876 85.7435C52.9917 85.5904 52.7283 85.3944 52.416 85.1678C50.8053 84.0226 45.5447 80.2807 43.3767 81.6464C41.4048 82.8957 42.4581 88.0768 43.5053 90.802C44.7608 94.0723 46.9226 96.1668 48.1291 97.3181C49.8622 98.9716 51.577 100.037 52.8263 100.711C52.2139 98.5797 51.577 95.3094 51.9628 91.3654Z" stroke="#0D0C0C" stroke-width="2" stroke-miterlimit="10"/>
<path d="M105.157 90.6015C105.108 89.9523 104.943 88.2375 104.367 86.0818C104.067 84.955 103.736 84.0119 103.455 83.2831C104.03 83.1055 104.82 82.8544 105.757 82.5298C112.347 80.2578 113.847 78.6961 114.944 79.4065C116.548 80.4476 115.703 85.3102 113.798 88.4825C112.341 90.9138 110.203 92.4326 109.04 93.2593C107.509 94.3494 106.088 95.0415 105.065 95.4763C105.292 93.5656 105.261 91.9059 105.157 90.6076V90.6015Z" fill="#FFD037"/>
<path d="M105.09 89.8971C106.193 89.646 107.748 89.1867 109.451 88.2865C110.216 87.8823 111.509 87.1964 112.66 86.0818C115.342 83.479 115.624 80.1107 115.808 80.1597C116.022 80.2148 116.126 85.0774 113.15 89.4317C110.541 93.2532 106.811 94.8577 105.066 95.4701C105.084 94.4106 105.09 93.3389 105.097 92.261C105.097 91.4649 105.097 90.6749 105.097 89.891L105.09 89.8971Z" fill="#F18300"/>
<path d="M105.157 90.6017C105.108 89.9526 104.943 88.2378 104.367 86.0821C104.067 84.9614 103.736 84.0121 103.455 83.2834C104.018 83.1119 104.814 82.8547 105.757 82.5301C112.224 80.2948 113.798 78.6657 114.944 79.4068C116.487 80.405 115.672 84.7164 114.411 87.3682C113.198 89.9158 111.33 91.4469 110.05 92.488C108.176 94.019 106.357 94.9376 105.065 95.4766C105.292 93.5658 105.261 91.9062 105.157 90.6078V90.6017Z" stroke="#0D0C0C" stroke-width="2" stroke-miterlimit="10"/>
<path d="M79.5826 50.0456L79.7847 49.8496C80.0971 49.5434 80.9728 48.8391 82.2834 48.833C83.5695 48.833 84.433 49.4944 84.7453 49.7761L84.9474 49.9599L84.8984 53.3771L83.9675 52.7708C83.7042 52.5994 83.1592 52.3177 82.4365 52.3177C82.3814 52.3177 82.3263 52.3177 82.2711 52.3177C81.5118 52.3605 80.9667 52.7096 80.7095 52.9117L79.7909 53.6282L79.5826 50.0333V50.0456Z" fill="#077BB3"/>
<path d="M82.3071 49.4533C83.4339 49.4533 84.1749 50.0903 84.3403 50.2372C84.328 50.917 84.3219 51.5907 84.3097 52.2705C84.0769 52.1174 83.3972 51.7132 82.4418 51.7132C82.3744 51.7132 82.3071 51.7132 82.2397 51.7132C81.2476 51.7744 80.5739 52.246 80.3351 52.4358C80.2922 51.7193 80.2493 51.0089 80.2126 50.2924C80.3657 50.1454 81.119 49.4534 82.2948 49.4472H82.3132M82.3071 48.2285H82.2826C80.7515 48.2346 79.7288 49.0614 79.3613 49.4166L78.9572 49.8085L78.9878 50.372L79.1103 52.5154L79.245 54.8487L81.0884 53.4096C81.2905 53.2503 81.7191 52.9809 82.3132 52.9441C82.3561 52.9441 82.3989 52.9441 82.4418 52.9441C83.0113 52.9441 83.44 53.1646 83.6421 53.2993L85.5039 54.5119L85.5345 52.295L85.5467 51.2784L85.559 50.2617V49.7106L85.1548 49.337C84.7873 49.0063 83.7769 48.2346 82.3009 48.2346L82.3071 48.2285Z" fill="#0D0C0C"/>
<path d="M101.091 68.6222C94.6663 68.6222 88.7871 65.1131 85.7434 59.4605C81.1993 51.0091 84.3777 40.4327 92.829 35.8886C95.3583 34.529 98.1999 33.8125 101.054 33.8125C107.478 33.8125 113.357 37.3216 116.401 42.9742C118.599 47.0652 119.077 51.7746 117.742 56.2269C116.401 60.6792 113.412 64.3475 109.321 66.5461C106.792 67.9057 103.951 68.6222 101.097 68.6222H101.091ZM101.06 37.0093C98.7327 37.0093 96.4117 37.5972 94.3478 38.7057C87.452 42.4169 84.8615 51.0459 88.5727 57.9478C91.053 62.5654 95.8544 65.4315 101.103 65.4315C103.43 65.4315 105.751 64.8436 107.815 63.7351C111.159 61.9408 113.596 58.946 114.692 55.3083C115.789 51.6705 115.397 47.8307 113.602 44.4869C111.122 39.8754 106.321 37.0093 101.072 37.0093H101.06Z" fill="#077BB3"/>
<path d="M101.054 34.427C107.037 34.427 112.83 37.6299 115.862 43.2703C120.253 51.4338 117.191 61.6244 109.027 66.0154C106.498 67.3749 103.773 68.0241 101.09 68.0241C95.107 68.0241 89.3135 64.8212 86.2821 59.1808C81.8911 51.0173 84.9531 40.8267 93.1166 36.4357C95.6459 35.0761 98.3712 34.4331 101.054 34.4331M101.09 66.0399C103.46 66.0399 105.861 65.4703 108.09 64.27C115.298 60.3934 117.999 51.4031 114.123 44.195C111.446 39.2222 106.333 36.3928 101.054 36.3928C98.6835 36.3928 96.2828 36.9624 94.0475 38.1627C86.8394 42.0393 84.1448 51.0234 88.0213 58.2316C90.6976 63.2044 95.8051 66.0338 101.09 66.0338M101.054 33.2021C98.1017 33.2021 95.156 33.9432 92.5348 35.3517C83.7834 40.0551 80.4948 51.0051 85.1981 59.7565C88.3459 65.6051 94.4333 69.2428 101.084 69.2428C104.036 69.2428 106.982 68.4957 109.603 67.0932C113.841 64.815 116.94 61.0181 118.324 56.4127C119.708 51.8073 119.218 46.9325 116.94 42.6946C113.792 36.846 107.704 33.2083 101.054 33.2083V33.2021ZM101.09 64.815C96.0685 64.815 91.4754 62.0714 89.1053 57.6559C85.5533 51.0541 88.0336 42.7926 94.6354 39.2467C96.6074 38.1872 98.8305 37.6238 101.06 37.6238C106.081 37.6238 110.675 40.3674 113.051 44.7829C116.603 51.3848 114.116 59.6463 107.515 63.1983C105.543 64.2577 103.319 64.8212 101.096 64.8212L101.09 64.815Z" fill="#0D0C0C"/>
<path d="M63.5558 69.7423C57.1316 69.7423 51.2524 66.2332 48.2087 60.5806C46.0101 56.4897 45.5324 51.7802 46.8675 47.3279C48.2025 42.8757 51.1972 39.2073 55.2882 37.0087C57.8175 35.6491 60.6591 34.9326 63.5129 34.9326C69.9372 34.9326 75.8164 38.4418 78.8601 44.0944C83.4042 52.5457 80.2257 63.1221 71.7744 67.6662C69.2451 69.0258 66.4035 69.7423 63.5497 69.7423H63.5558ZM63.5252 38.1294C61.198 38.1294 58.8769 38.7174 56.8131 39.8258C53.4693 41.6202 51.0319 44.6149 49.9418 48.2465C48.8517 51.8782 49.2375 55.7241 51.038 59.0618C53.5183 63.6794 58.3196 66.5455 63.568 66.5455C65.8952 66.5455 68.2163 65.9576 70.2801 64.8491C73.6239 63.0547 76.0613 60.06 77.1575 56.4223C78.2538 52.7845 77.8618 48.9447 76.0674 45.6009C73.5872 40.9894 68.7858 38.1233 63.5374 38.1233L63.5252 38.1294Z" fill="#077BB3"/>
<path d="M63.525 35.5393C69.5083 35.5393 75.3017 38.7422 78.3332 44.3826C82.7242 52.5461 79.6621 62.7367 71.4986 67.1277C68.9694 68.4873 66.2441 69.1364 63.5617 69.1364C57.5784 69.1364 51.785 65.9335 48.7535 60.2931C44.3625 52.1296 47.4246 41.939 55.5881 37.548C58.1174 36.1884 60.8426 35.5393 63.525 35.5393ZM63.5617 67.1583C65.9318 67.1583 68.3325 66.5888 70.5616 65.3884C77.7698 61.5118 80.4705 52.5216 76.5939 45.3134C73.9177 40.3406 68.804 37.5113 63.525 37.5113C61.1549 37.5113 58.7543 38.0808 56.519 39.2811C49.3108 43.1577 46.6162 52.1419 50.4928 59.35C53.169 64.3228 58.2766 67.1522 63.5617 67.1522M63.525 34.3145C60.5731 34.3145 57.6274 35.0616 55.0063 36.464C46.2549 41.1674 42.9662 52.1174 47.6695 60.8688C50.8174 66.7174 56.9048 70.3551 63.5556 70.3551C66.5075 70.3551 69.4532 69.608 72.0743 68.2055C76.3122 65.9274 79.4111 62.1304 80.7951 57.525C82.1792 52.9135 81.6892 48.0448 79.4111 43.8069C76.2632 37.9583 70.1758 34.3206 63.525 34.3206V34.3145ZM63.5617 65.9335C58.5399 65.9335 53.9468 63.1899 51.5768 58.7743C48.0247 52.1725 50.505 43.911 57.1069 40.3651C59.0789 39.3056 61.3019 38.7422 63.5311 38.7422C68.5529 38.7422 73.146 41.4858 75.5222 45.9014C77.2431 49.0982 77.6105 52.7727 76.5694 56.2512C75.5222 59.7297 73.1889 62.5958 69.9921 64.3106C68.0201 65.3701 65.7971 65.9335 63.574 65.9335H63.5617Z" fill="#0D0C0C"/>
<path d="M54.0147 66.1676C55.264 67.025 58.4669 68.9786 63.0049 69.1256C67.9716 69.2848 71.5298 67.1842 72.8097 66.3391C74.0407 65.5307 77.8989 62.7503 79.583 57.41C80.8997 53.2456 80.2077 49.6875 79.8157 48.1748C80.0485 49.9263 80.3363 54.0417 78.2051 58.4879C77.5314 59.8903 75.4431 64.0976 70.654 66.4615C67.9104 67.815 65.4668 67.9865 63.9542 68.0722C59.4039 68.3417 55.8458 67.0066 54.0085 66.1553L54.0147 66.1676Z" fill="#0A5877"/>
<path d="M94.0404 66.4685C95.3877 67.0993 98.1375 68.1711 101.745 68.0241C102.933 67.9751 105.854 67.7301 109.026 66.0092C114.532 63.0145 116.504 57.907 116.828 57.019C118.341 52.9158 117.827 49.3209 117.508 47.7715C117.68 49.4556 117.833 53.2404 115.885 57.3803C115.316 58.5929 113.754 61.5692 110.723 63.8903C103.913 69.0958 95.2101 66.7931 94.0404 66.4624V66.4685Z" fill="#0A5877"/>
<path d="M93.5521 32.1902C97.3001 28.9137 98.4515 25.8272 98.8618 23.8736C99.4497 21.0748 98.972 18.4353 98.329 14.8221C97.7043 11.2945 96.8286 8.80814 97.3307 5.01116C97.49 3.79858 97.7717 2.43902 98.8312 1.77761C99.9151 1.09783 101.379 1.41628 102.083 1.73474C105.684 3.35764 105.758 12.4091 104.49 18.3618C103.02 25.276 99.2537 30.3101 96.2345 33.4579C95.8365 33.2986 95.4261 33.1272 94.9974 32.9312C94.4769 32.6924 93.9931 32.4413 93.546 32.1963L93.5521 32.1902Z" fill="#FFD037" stroke="#0D0C0C" stroke-width="2" stroke-miterlimit="10"/>
<path d="M67.5193 33.2074C64.0775 31.6579 61.9769 29.6308 60.8317 28.3142C57.7757 24.8173 54.4258 18.295 55.9569 12.1096C56.6611 9.2619 58.2779 6.97759 57.0776 5.03623C56.5264 4.14823 55.4424 3.4317 54.4013 3.50519C51.6455 3.68892 50.243 9.28639 50.0899 9.91106C48.6691 15.5882 50.9412 20.61 51.5536 21.9205C54.5789 28.3631 59.76 31.5538 63.6121 33.881C63.9918 34.1076 64.5552 34.4383 65.2533 34.818C65.5902 34.5669 65.9331 34.3097 66.2883 34.0586C66.7048 33.7585 67.1151 33.4768 67.5193 33.2074Z" fill="#FFD037" stroke="#0D0C0C" stroke-width="2" stroke-miterlimit="10"/>
<path d="M104.937 10.2219C105.164 12.7022 105.201 16.6462 103.81 21.1842C101.869 27.5043 98.2008 31.5585 96.241 33.4448C95.4143 33.0589 94.5875 32.6792 93.7607 32.2934C95.3163 31.0747 97.4352 29.1517 99.3705 26.3469C101.428 23.3705 102.359 20.7249 103.069 18.6733C103.78 16.6094 104.57 13.7433 104.943 10.2158L104.937 10.2219Z" fill="#F18300"/>
<path d="M66.8048 33.0117C65.1329 32.1298 62.8915 30.6723 60.8276 28.3145C56.3509 23.2069 55.7017 17.34 55.5731 15.123C55.1689 16.4091 54.679 18.6077 55.0587 21.2411C55.5608 24.6951 57.3001 26.9733 58.7944 28.9391C59.9764 30.4947 62.0708 32.8525 65.3901 34.9347L66.7987 33.0117H66.8048Z" fill="#F18300"/>
<path d="M93.5521 32.1902C97.3001 28.9137 98.4515 25.8272 98.8618 23.8736C99.4497 21.0748 98.972 18.4353 98.329 14.8221C97.7043 11.2945 96.8286 8.80814 97.3307 5.01116C97.49 3.79858 97.7717 2.43902 98.8312 1.77761C99.9151 1.09783 101.379 1.41628 102.083 1.73474C105.684 3.35764 105.758 12.4091 104.49 18.3618C103.02 25.276 99.2537 30.3101 96.2345 33.4579C95.8365 33.2986 95.4261 33.1272 94.9974 32.9312C94.4769 32.6924 93.9931 32.4413 93.546 32.1963L93.5521 32.1902Z" stroke="#0D0C0C" stroke-width="2" stroke-miterlimit="10"/>
<path d="M67.5193 33.2074C64.0775 31.6579 61.9769 29.6308 60.8317 28.3142C57.7757 24.8173 54.4258 18.295 55.9569 12.1096C56.6611 9.2619 58.2779 6.97759 57.0776 5.03623C56.5264 4.14823 55.4424 3.4317 54.4013 3.50519C51.6455 3.68892 50.243 9.28639 50.0899 9.91106C48.6691 15.5882 50.9412 20.61 51.5536 21.9205C54.5789 28.3631 59.76 31.5538 63.6121 33.881C63.9918 34.1076 64.5552 34.4383 65.2533 34.818C65.5902 34.5669 65.9331 34.3097 66.2883 34.0586C66.7048 33.7585 67.1151 33.4768 67.5193 33.2074Z" stroke="#0D0C0C" stroke-width="2" stroke-miterlimit="10"/>
<path d="M96.551 60.6132C100.4 60.6132 103.52 56.6293 103.52 51.7148C103.52 46.8004 100.4 42.8164 96.551 42.8164C92.7019 42.8164 89.5817 46.8004 89.5817 51.7148C89.5817 56.6293 92.7019 60.6132 96.551 60.6132Z" fill="#0D0C0C"/>
<path d="M92.3763 50.5689C93.1948 50.5689 93.8584 49.7217 93.8584 48.6765C93.8584 47.6314 93.1948 46.7842 92.3763 46.7842C91.5578 46.7842 90.8943 47.6314 90.8943 48.6765C90.8943 49.7217 91.5578 50.5689 92.3763 50.5689Z" fill="white" stroke="#0D0C0C" stroke-miterlimit="10"/>
<path d="M67.8304 60.6132C71.6794 60.6132 74.7997 56.6293 74.7997 51.7148C74.7997 46.8004 71.6794 42.8164 67.8304 42.8164C63.9813 42.8164 60.8611 46.8004 60.8611 51.7148C60.8611 56.6293 63.9813 60.6132 67.8304 60.6132Z" fill="#0D0C0C"/>
<path d="M64.537 49.4459C65.3555 49.4459 66.019 48.5986 66.019 47.5535C66.019 46.5084 65.3555 45.6611 64.537 45.6611C63.7185 45.6611 63.0549 46.5084 63.0549 47.5535C63.0549 48.5986 63.7185 49.4459 64.537 49.4459Z" fill="white" stroke="#0D0C0C" stroke-miterlimit="10"/>
<g filter="url(#filter0_d_692_471)">
<path d="M257.375 128.314H160.528C159.175 128.314 158.078 129.411 158.078 130.764V168.385C158.078 169.738 159.175 170.834 160.528 170.834H257.375C258.728 170.834 259.825 169.738 259.825 168.385V130.764C259.825 129.411 258.728 128.314 257.375 128.314Z" fill="#832706" stroke="#0D0C0C" stroke-width="2" stroke-miterlimit="10"/>
<path d="M237.852 168.385V130.764C237.852 129.411 236.756 128.314 235.403 128.314H85.177C83.8241 128.314 82.7274 129.411 82.7274 130.764V168.385C82.7274 169.738 83.8241 170.834 85.177 170.834H235.403C236.756 170.834 237.852 169.738 237.852 168.385Z" fill="#D86339" stroke="#0D0C0C" stroke-width="2" stroke-miterlimit="10"/>
<path d="M229.854 161.631V137.514C229.854 136.161 228.757 135.064 227.404 135.064H93.1746C91.8217 135.064 90.7249 136.161 90.7249 137.514V161.631C90.7249 162.984 91.8217 164.081 93.1746 164.081H227.404C228.757 164.081 229.854 162.984 229.854 161.631Z" stroke="#0D0C0C" stroke-width="2" stroke-miterlimit="10"/>
<path d="M236.192 85.7871H172.06C170.707 85.7871 169.611 86.8839 169.611 88.2368V125.857C169.611 127.21 170.707 128.307 172.06 128.307H236.192C237.545 128.307 238.642 127.21 238.642 125.857V88.2368C238.642 86.8839 237.545 85.7871 236.192 85.7871Z" fill="#832706" stroke="#0D0C0C" stroke-width="2" stroke-miterlimit="10"/>
<path d="M219.656 125.863V88.2426C219.656 86.8897 218.559 85.793 217.206 85.793L103.144 85.793C101.791 85.793 100.694 86.8897 100.694 88.2426V125.863C100.694 127.216 101.791 128.313 103.144 128.313H217.206C218.559 128.313 219.656 127.216 219.656 125.863Z" fill="#D86339" stroke="#0D0C0C" stroke-width="2" stroke-miterlimit="10"/>
<path d="M213.526 119.108V94.9907C213.526 93.6378 212.429 92.541 211.076 92.541H109.281C107.928 92.541 106.831 93.6378 106.831 94.9907V119.108C106.831 120.461 107.928 121.557 109.281 121.557H211.076C212.429 121.557 213.526 120.461 213.526 119.108Z" stroke="#0D0C0C" stroke-width="2" stroke-miterlimit="10"/>
<path d="M122.397 99.6H126.137V115H121.737V104.198L119.075 104.836L118.063 101.162L122.397 99.6ZM141.465 104.572C142.903 104.807 144.039 105.408 144.875 106.376C145.726 107.329 146.151 108.51 146.151 109.918C146.151 111.531 145.609 112.844 144.523 113.856C143.438 114.853 142.001 115.352 140.211 115.352C138.407 115.352 136.963 114.853 135.877 113.856C134.807 112.844 134.271 111.531 134.271 109.918C134.271 108.774 134.55 107.777 135.107 106.926L139.683 99.6H144.611L141.465 104.572ZM138.671 109.918C138.671 110.915 139.185 111.414 140.211 111.414C141.238 111.414 141.751 110.915 141.751 109.918C141.751 108.921 141.238 108.422 140.211 108.422C139.185 108.422 138.671 108.921 138.671 109.918ZM160.464 104.22C160.053 104.631 159.532 104.836 158.902 104.836C158.271 104.836 157.743 104.631 157.318 104.22C156.907 103.795 156.702 103.267 156.702 102.636C156.702 102.005 156.907 101.485 157.318 101.074C157.743 100.649 158.271 100.436 158.902 100.436C159.532 100.436 160.053 100.649 160.464 101.074C160.889 101.485 161.102 102.005 161.102 102.636C161.102 103.267 160.889 103.795 160.464 104.22ZM153.622 109.28V105.32H164.182V109.28H153.622ZM160.464 113.548C160.053 113.959 159.532 114.164 158.902 114.164C158.271 114.164 157.743 113.959 157.318 113.548C156.907 113.123 156.702 112.595 156.702 111.964C156.702 111.333 156.907 110.813 157.318 110.402C157.743 109.977 158.271 109.764 158.902 109.764C159.532 109.764 160.053 109.977 160.464 110.402C160.889 110.813 161.102 111.333 161.102 111.964C161.102 112.595 160.889 113.123 160.464 113.548ZM183.983 108.796V112.756H182.443V115H178.131V112.756H171.663V108.796L175.909 99.6H180.903L176.591 108.796H178.131V106.64H182.443V108.796H183.983ZM191.357 106.75V102.79H201.037V106.75H191.357ZM191.357 111.81V107.85H201.037V111.81H191.357Z" fill="white"/>
<path d="M122.397 99.6V98.85H122.266L122.142 98.8944L122.397 99.6ZM126.137 99.6H126.887V98.85H126.137V99.6ZM126.137 115V115.75H126.887V115H126.137ZM121.737 115H120.987V115.75H121.737V115ZM121.737 104.198H122.487V103.247L121.562 103.469L121.737 104.198ZM119.075 104.836L118.352 105.035L118.544 105.734L119.249 105.565L119.075 104.836ZM118.063 101.162L117.808 100.456L117.155 100.692L117.34 101.361L118.063 101.162ZM122.397 100.35H126.137V98.85H122.397V100.35ZM125.387 99.6V115H126.887V99.6H125.387ZM126.137 114.25H121.737V115.75H126.137V114.25ZM122.487 115V104.198H120.987V115H122.487ZM121.562 103.469L118.9 104.107L119.249 105.565L121.911 104.927L121.562 103.469ZM119.798 104.637L118.786 100.963L117.34 101.361L118.352 105.035L119.798 104.637ZM118.317 101.868L122.651 100.306L122.142 98.8944L117.808 100.456L118.317 101.868ZM141.465 104.572L140.831 104.171L140.225 105.129L141.344 105.312L141.465 104.572ZM144.875 106.376L144.308 106.866L144.316 106.875L144.875 106.376ZM144.523 113.856L145.031 114.408L145.035 114.405L144.523 113.856ZM135.877 113.856L135.362 114.401L135.37 114.408L135.877 113.856ZM135.107 106.926L135.735 107.337L135.739 107.33L135.743 107.323L135.107 106.926ZM139.683 99.6V98.85H139.267L139.047 99.2027L139.683 99.6ZM144.611 99.6L145.245 100.001L145.973 98.85H144.611V99.6ZM141.344 105.312C142.634 105.523 143.602 106.05 144.308 106.866L145.443 105.886C144.476 104.766 143.172 104.091 141.586 103.832L141.344 105.312ZM144.316 106.875C145.031 107.677 145.401 108.674 145.401 109.918H146.901C146.901 108.346 146.421 106.982 145.435 105.877L144.316 106.875ZM145.401 109.918C145.401 111.344 144.931 112.451 144.012 113.307L145.035 114.405C146.286 113.237 146.901 111.719 146.901 109.918H145.401ZM144.016 113.304C143.097 114.148 141.855 114.602 140.211 114.602V116.102C142.146 116.102 143.779 115.559 145.031 114.408L144.016 113.304ZM140.211 114.602C138.551 114.602 137.302 114.147 136.385 113.304L135.37 114.408C136.623 115.56 138.263 116.102 140.211 116.102V114.602ZM136.392 113.311C135.487 112.455 135.021 111.347 135.021 109.918H133.521C133.521 111.716 134.126 113.233 135.362 114.401L136.392 113.311ZM135.021 109.918C135.021 108.901 135.267 108.051 135.735 107.337L134.48 106.515C133.833 107.503 133.521 108.647 133.521 109.918H135.021ZM135.743 107.323L140.319 99.9973L139.047 99.2027L134.471 106.529L135.743 107.323ZM139.683 100.35H144.611V98.85H139.683V100.35ZM143.977 99.199L140.831 104.171L142.099 104.973L145.245 100.001L143.977 99.199ZM137.921 109.918C137.921 110.538 138.082 111.139 138.534 111.578C138.981 112.013 139.588 112.164 140.211 112.164V110.664C139.808 110.664 139.645 110.566 139.579 110.502C139.517 110.442 139.421 110.295 139.421 109.918H137.921ZM140.211 112.164C140.835 112.164 141.441 112.013 141.889 111.578C142.34 111.139 142.501 110.538 142.501 109.918H141.001C141.001 110.295 140.905 110.442 140.844 110.502C140.778 110.566 140.614 110.664 140.211 110.664V112.164ZM142.501 109.918C142.501 109.298 142.34 108.697 141.889 108.258C141.441 107.823 140.835 107.672 140.211 107.672V109.172C140.614 109.172 140.778 109.27 140.844 109.334C140.905 109.394 141.001 109.541 141.001 109.918H142.501ZM140.211 107.672C139.588 107.672 138.981 107.823 138.534 108.258C138.082 108.697 137.921 109.298 137.921 109.918H139.421C139.421 109.541 139.517 109.394 139.579 109.334C139.645 109.27 139.808 109.172 140.211 109.172V107.672ZM160.464 104.22L160.994 104.75V104.75L160.464 104.22ZM157.318 104.22L156.778 104.741L156.787 104.75L156.797 104.76L157.318 104.22ZM157.318 101.074L157.848 101.604V101.604L157.318 101.074ZM160.464 101.074L159.924 101.595L159.933 101.604L159.943 101.614L160.464 101.074ZM153.622 109.28H152.872V110.03H153.622V109.28ZM153.622 105.32V104.57H152.872V105.32H153.622ZM164.182 105.32H164.932V104.57H164.182V105.32ZM164.182 109.28V110.03H164.932V109.28H164.182ZM160.464 113.548L160.994 114.078V114.078L160.464 113.548ZM157.318 113.548L156.778 114.069L156.787 114.078L156.797 114.088L157.318 113.548ZM157.318 110.402L157.848 110.932L157.318 110.402ZM160.464 110.402L159.924 110.923L159.933 110.932L159.943 110.942L160.464 110.402ZM159.933 103.69C159.676 103.947 159.352 104.086 158.902 104.086V105.586C159.713 105.586 160.43 105.314 160.994 104.75L159.933 103.69ZM158.902 104.086C158.451 104.086 158.114 103.947 157.839 103.68L156.797 104.76C157.372 105.315 158.091 105.586 158.902 105.586V104.086ZM157.857 103.699C157.591 103.423 157.452 103.087 157.452 102.636H155.952C155.952 103.447 156.223 104.166 156.778 104.741L157.857 103.699ZM157.452 102.636C157.452 102.185 157.591 101.862 157.848 101.604L156.787 100.544C156.223 101.108 155.952 101.825 155.952 102.636H157.452ZM157.848 101.604C158.125 101.327 158.459 101.186 158.902 101.186V99.686C158.083 99.686 157.361 99.9703 156.787 100.544L157.848 101.604ZM158.902 101.186C159.344 101.186 159.665 101.327 159.924 101.595L161.003 100.553C160.441 99.9708 159.721 99.686 158.902 99.686V101.186ZM159.943 101.614C160.211 101.873 160.352 102.194 160.352 102.636H161.852C161.852 101.817 161.567 101.097 160.985 100.534L159.943 101.614ZM160.352 102.636C160.352 103.078 160.211 103.412 159.933 103.69L160.994 104.75C161.568 104.177 161.852 103.455 161.852 102.636H160.352ZM154.372 109.28V105.32H152.872V109.28H154.372ZM153.622 106.07H164.182V104.57H153.622V106.07ZM163.432 105.32V109.28H164.932V105.32H163.432ZM164.182 108.53H153.622V110.03H164.182V108.53ZM159.933 113.018C159.676 113.275 159.352 113.414 158.902 113.414V114.914C159.713 114.914 160.43 114.642 160.994 114.078L159.933 113.018ZM158.902 113.414C158.451 113.414 158.114 113.275 157.839 113.008L156.797 114.088C157.372 114.643 158.091 114.914 158.902 114.914V113.414ZM157.857 113.027C157.591 112.751 157.452 112.415 157.452 111.964H155.952C155.952 112.775 156.223 113.494 156.778 114.069L157.857 113.027ZM157.452 111.964C157.452 111.513 157.591 111.19 157.848 110.932L156.787 109.872C156.223 110.436 155.952 111.153 155.952 111.964H157.452ZM157.848 110.932C158.125 110.655 158.459 110.514 158.902 110.514V109.014C158.083 109.014 157.361 109.298 156.787 109.872L157.848 110.932ZM158.902 110.514C159.344 110.514 159.665 110.655 159.924 110.923L161.003 109.881C160.441 109.299 159.721 109.014 158.902 109.014V110.514ZM159.943 110.942C160.211 111.201 160.352 111.522 160.352 111.964H161.852C161.852 111.145 161.567 110.425 160.985 109.862L159.943 110.942ZM160.352 111.964C160.352 112.406 160.211 112.74 159.933 113.018L160.994 114.078C161.568 113.505 161.852 112.783 161.852 111.964H160.352ZM183.983 108.796H184.733V108.046H183.983V108.796ZM183.983 112.756V113.506H184.733V112.756H183.983ZM182.443 112.756V112.006H181.693V112.756H182.443ZM182.443 115V115.75H183.193V115H182.443ZM178.131 115H177.381V115.75H178.131V115ZM178.131 112.756H178.881V112.006H178.131V112.756ZM171.663 112.756H170.913V113.506H171.663V112.756ZM171.663 108.796L170.982 108.482L170.913 108.631V108.796H171.663ZM175.909 99.6V98.85H175.429L175.228 99.2856L175.909 99.6ZM180.903 99.6L181.582 99.9184L182.083 98.85H180.903V99.6ZM176.591 108.796L175.912 108.478L175.411 109.546H176.591V108.796ZM178.131 108.796V109.546H178.881V108.796H178.131ZM178.131 106.64V105.89H177.381V106.64H178.131ZM182.443 106.64H183.193V105.89H182.443V106.64ZM182.443 108.796H181.693V109.546H182.443V108.796ZM183.233 108.796V112.756H184.733V108.796H183.233ZM183.983 112.006H182.443V113.506H183.983V112.006ZM181.693 112.756V115H183.193V112.756H181.693ZM182.443 114.25H178.131V115.75H182.443V114.25ZM178.881 115V112.756H177.381V115H178.881ZM178.131 112.006H171.663V113.506H178.131V112.006ZM172.413 112.756V108.796H170.913V112.756H172.413ZM172.344 109.11L176.59 99.9144L175.228 99.2856L170.982 108.482L172.344 109.11ZM175.909 100.35H180.903V98.85H175.909V100.35ZM180.224 99.2816L175.912 108.478L177.27 109.114L181.582 99.9184L180.224 99.2816ZM176.591 109.546H178.131V108.046H176.591V109.546ZM178.881 108.796V106.64H177.381V108.796H178.881ZM178.131 107.39H182.443V105.89H178.131V107.39ZM181.693 106.64V108.796H183.193V106.64H181.693ZM182.443 109.546H183.983V108.046H182.443V109.546ZM191.357 106.75H190.607V107.5H191.357V106.75ZM191.357 102.79V102.04H190.607V102.79H191.357ZM201.037 102.79H201.787V102.04H201.037V102.79ZM201.037 106.75V107.5H201.787V106.75H201.037ZM191.357 111.81H190.607V112.56H191.357V111.81ZM191.357 107.85V107.1H190.607V107.85H191.357ZM201.037 107.85H201.787V107.1H201.037V107.85ZM201.037 111.81V112.56H201.787V111.81H201.037ZM192.107 106.75V102.79H190.607V106.75H192.107ZM191.357 103.54H201.037V102.04H191.357V103.54ZM200.287 102.79V106.75H201.787V102.79H200.287ZM201.037 106H191.357V107.5H201.037V106ZM192.107 111.81V107.85H190.607V111.81H192.107ZM191.357 108.6H201.037V107.1H191.357V108.6ZM200.287 107.85V111.81H201.787V107.85H200.287ZM201.037 111.06H191.357V112.56H201.037V111.06Z" fill="#0D0C0C"/>
<path d="M114.05 151.796V155.756H112.51V158H108.198V155.756H101.73V151.796L105.976 142.6H110.97L106.658 151.796H108.198V149.64H112.51V151.796H114.05ZM132.706 156.174C131.576 157.626 129.978 158.352 127.91 158.352C125.842 158.352 124.243 157.626 123.114 156.174C121.984 154.707 121.42 152.749 121.42 150.3C121.42 147.851 121.984 145.9 123.114 144.448C124.243 142.981 125.842 142.248 127.91 142.248C129.978 142.248 131.576 142.981 132.706 144.448C133.835 145.9 134.4 147.851 134.4 150.3C134.4 152.749 133.835 154.707 132.706 156.174ZM125.82 150.3C125.82 152.823 126.516 154.084 127.91 154.084C129.303 154.084 130 152.823 130 150.3C130 147.777 129.303 146.516 127.91 146.516C126.516 146.516 125.82 147.777 125.82 150.3ZM148.939 147.22C148.528 147.631 148.008 147.836 147.377 147.836C146.746 147.836 146.218 147.631 145.793 147.22C145.382 146.795 145.177 146.267 145.177 145.636C145.177 145.005 145.382 144.485 145.793 144.074C146.218 143.649 146.746 143.436 147.377 143.436C148.008 143.436 148.528 143.649 148.939 144.074C149.364 144.485 149.577 145.005 149.577 145.636C149.577 146.267 149.364 146.795 148.939 147.22ZM142.097 152.28V148.32H152.657V152.28H142.097ZM148.939 156.548C148.528 156.959 148.008 157.164 147.377 157.164C146.746 157.164 146.218 156.959 145.793 156.548C145.382 156.123 145.177 155.595 145.177 154.964C145.177 154.333 145.382 153.813 145.793 153.402C146.218 152.977 146.746 152.764 147.377 152.764C148.008 152.764 148.528 152.977 148.939 153.402C149.364 153.813 149.577 154.333 149.577 154.964C149.577 155.595 149.364 156.123 148.939 156.548ZM169.906 149.948C171.299 150.784 171.996 152.023 171.996 153.666C171.996 155.103 171.49 156.24 170.478 157.076C169.466 157.897 168.014 158.308 166.122 158.308C164.23 158.308 162.778 157.897 161.766 157.076C160.754 156.24 160.248 155.103 160.248 153.666C160.248 152.023 160.945 150.784 162.338 149.948C161.297 149.171 160.776 148.144 160.776 146.868C160.776 145.445 161.275 144.331 162.272 143.524C163.269 142.703 164.553 142.292 166.122 142.292C167.691 142.292 168.975 142.703 169.972 143.524C170.969 144.331 171.468 145.445 171.468 146.868C171.468 148.144 170.947 149.171 169.906 149.948ZM166.122 146.164C165.198 146.164 164.736 146.538 164.736 147.286C164.736 148.034 165.198 148.408 166.122 148.408C166.533 148.408 166.863 148.313 167.112 148.122C167.376 147.931 167.508 147.653 167.508 147.286C167.508 146.919 167.376 146.641 167.112 146.45C166.863 146.259 166.533 146.164 166.122 146.164ZM165.022 154.018C165.286 154.238 165.653 154.348 166.122 154.348C166.591 154.348 166.951 154.238 167.2 154.018C167.464 153.783 167.596 153.461 167.596 153.05C167.596 152.639 167.464 152.324 167.2 152.104C166.951 151.869 166.591 151.752 166.122 151.752C165.653 151.752 165.286 151.869 165.022 152.104C164.773 152.324 164.648 152.639 164.648 153.05C164.648 153.461 164.773 153.783 165.022 154.018ZM179.596 149.75V145.79H189.276V149.75H179.596ZM179.596 154.81V150.85H189.276V154.81H179.596ZM211.17 152.28C211.17 151.649 211.324 151.063 211.632 150.52C211.955 149.977 212.299 149.552 212.666 149.244C213.047 148.936 213.392 148.606 213.7 148.254C214.023 147.902 214.184 147.572 214.184 147.264C214.184 147.029 214.103 146.839 213.942 146.692C213.781 146.545 213.561 146.472 213.282 146.472C212.563 146.472 211.962 147.007 211.478 148.078L207.76 145.966C208.288 144.719 209.058 143.788 210.07 143.172C211.082 142.556 212.211 142.248 213.458 142.248C214.939 142.248 216.164 142.644 217.132 143.436C218.1 144.213 218.584 145.262 218.584 146.582C218.584 147.198 218.467 147.77 218.232 148.298C217.997 148.826 217.711 149.266 217.374 149.618C217.037 149.955 216.692 150.271 216.34 150.564C216.003 150.857 215.717 151.151 215.482 151.444C215.247 151.723 215.13 152.001 215.13 152.28H211.17ZM214.932 157.604C214.448 158.088 213.854 158.33 213.15 158.33C212.446 158.33 211.845 158.088 211.346 157.604C210.862 157.105 210.62 156.504 210.62 155.8C210.62 155.096 210.862 154.502 211.346 154.018C211.845 153.519 212.446 153.27 213.15 153.27C213.854 153.27 214.448 153.519 214.932 154.018C215.431 154.502 215.68 155.096 215.68 155.8C215.68 156.504 215.431 157.105 214.932 157.604Z" fill="white"/>
<path d="M114.05 151.796H114.8V151.046H114.05V151.796ZM114.05 155.756V156.506H114.8V155.756H114.05ZM112.51 155.756V155.006H111.76V155.756H112.51ZM112.51 158V158.75H113.26V158H112.51ZM108.198 158H107.448V158.75H108.198V158ZM108.198 155.756H108.948V155.006H108.198V155.756ZM101.73 155.756H100.98V156.506H101.73V155.756ZM101.73 151.796L101.05 151.482L100.98 151.631V151.796H101.73ZM105.976 142.6V141.85H105.497L105.296 142.286L105.976 142.6ZM110.97 142.6L111.649 142.918L112.15 141.85H110.97V142.6ZM106.658 151.796L105.979 151.478L105.478 152.546H106.658V151.796ZM108.198 151.796V152.546H108.948V151.796H108.198ZM108.198 149.64V148.89H107.448V149.64H108.198ZM112.51 149.64H113.26V148.89H112.51V149.64ZM112.51 151.796H111.76V152.546H112.51V151.796ZM113.3 151.796V155.756H114.8V151.796H113.3ZM114.05 155.006H112.51V156.506H114.05V155.006ZM111.76 155.756V158H113.26V155.756H111.76ZM112.51 157.25H108.198V158.75H112.51V157.25ZM108.948 158V155.756H107.448V158H108.948ZM108.198 155.006H101.73V156.506H108.198V155.006ZM102.48 155.756V151.796H100.98V155.756H102.48ZM102.411 152.11L106.657 142.914L105.296 142.286L101.05 151.482L102.411 152.11ZM105.976 143.35H110.97V141.85H105.976V143.35ZM110.291 142.282L105.979 151.478L107.337 152.114L111.649 142.918L110.291 142.282ZM106.658 152.546H108.198V151.046H106.658V152.546ZM108.948 151.796V149.64H107.448V151.796H108.948ZM108.198 150.39H112.51V148.89H108.198V150.39ZM111.76 149.64V151.796H113.26V149.64H111.76ZM112.51 152.546H114.05V151.046H112.51V152.546ZM132.706 156.174L133.298 156.634L133.3 156.632L132.706 156.174ZM123.114 156.174L122.519 156.632L122.522 156.634L123.114 156.174ZM123.114 144.448L123.706 144.908L123.708 144.906L123.114 144.448ZM132.706 144.448L132.111 144.906L132.114 144.908L132.706 144.448ZM132.114 155.714C131.145 156.958 129.779 157.602 127.91 157.602V159.102C130.176 159.102 132.007 158.294 133.298 156.634L132.114 155.714ZM127.91 157.602C126.04 157.602 124.674 156.958 123.706 155.714L122.522 156.634C123.812 158.294 125.643 159.102 127.91 159.102V157.602ZM123.708 155.716C122.708 154.418 122.17 152.637 122.17 150.3H120.67C120.67 152.861 121.261 154.997 122.519 156.632L123.708 155.716ZM122.17 150.3C122.17 147.962 122.708 146.191 123.706 144.908L122.522 143.988C121.26 145.609 120.67 147.739 120.67 150.3H122.17ZM123.708 144.906C124.677 143.647 126.043 142.998 127.91 142.998V141.498C125.64 141.498 123.809 142.316 122.519 143.99L123.708 144.906ZM127.91 142.998C129.776 142.998 131.142 143.647 132.111 144.906L133.3 143.99C132.01 142.316 130.179 141.498 127.91 141.498V142.998ZM132.114 144.908C133.111 146.191 133.65 147.962 133.65 150.3H135.15C135.15 147.739 134.559 145.609 133.298 143.988L132.114 144.908ZM133.65 150.3C133.65 152.637 133.111 154.418 132.111 155.716L133.3 156.632C134.559 154.997 135.15 152.861 135.15 150.3H133.65ZM125.07 150.3C125.07 151.606 125.246 152.704 125.686 153.501C125.912 153.91 126.215 154.253 126.608 154.49C127.002 154.727 127.444 154.834 127.91 154.834V153.334C127.678 153.334 127.511 153.283 127.383 153.205C127.253 153.127 127.121 152.996 126.999 152.775C126.742 152.311 126.57 151.517 126.57 150.3H125.07ZM127.91 154.834C128.375 154.834 128.817 154.727 129.211 154.49C129.604 154.253 129.907 153.91 130.134 153.501C130.574 152.704 130.75 151.606 130.75 150.3H129.25C129.25 151.517 129.077 152.311 128.821 152.775C128.698 152.996 128.566 153.127 128.436 153.205C128.308 153.283 128.141 153.334 127.91 153.334V154.834ZM130.75 150.3C130.75 148.994 130.574 147.896 130.134 147.099C129.907 146.69 129.604 146.347 129.211 146.11C128.817 145.873 128.375 145.766 127.91 145.766V147.266C128.141 147.266 128.308 147.317 128.436 147.395C128.566 147.473 128.698 147.604 128.821 147.825C129.077 148.289 129.25 149.083 129.25 150.3H130.75ZM127.91 145.766C127.444 145.766 127.002 145.873 126.608 146.11C126.215 146.347 125.912 146.69 125.686 147.099C125.246 147.896 125.07 148.994 125.07 150.3H126.57C126.57 149.083 126.742 148.289 126.999 147.825C127.121 147.604 127.253 147.473 127.383 147.395C127.511 147.317 127.678 147.266 127.91 147.266V145.766ZM148.939 147.22L149.469 147.75V147.75L148.939 147.22ZM145.793 147.22L145.253 147.741L145.263 147.75L145.272 147.76L145.793 147.22ZM145.793 144.074L146.323 144.604V144.604L145.793 144.074ZM148.939 144.074L148.399 144.595L148.409 144.604L148.418 144.614L148.939 144.074ZM142.097 152.28H141.347V153.03H142.097V152.28ZM142.097 148.32V147.57H141.347V148.32H142.097ZM152.657 148.32H153.407V147.57H152.657V148.32ZM152.657 152.28V153.03H153.407V152.28H152.657ZM148.939 156.548L149.469 157.078V157.078L148.939 156.548ZM145.793 156.548L145.253 157.069L145.263 157.078L145.272 157.088L145.793 156.548ZM145.793 153.402L146.323 153.932L145.793 153.402ZM148.939 153.402L148.399 153.923L148.409 153.932L148.418 153.942L148.939 153.402ZM148.409 146.69C148.151 146.947 147.828 147.086 147.377 147.086V148.586C148.188 148.586 148.905 148.314 149.469 147.75L148.409 146.69ZM147.377 147.086C146.926 147.086 146.589 146.947 146.314 146.68L145.272 147.76C145.847 148.315 146.566 148.586 147.377 148.586V147.086ZM146.333 146.699C146.066 146.423 145.927 146.087 145.927 145.636H144.427C144.427 146.447 144.698 147.166 145.253 147.741L146.333 146.699ZM145.927 145.636C145.927 145.185 146.066 144.862 146.323 144.604L145.263 143.544C144.699 144.108 144.427 144.825 144.427 145.636H145.927ZM146.323 144.604C146.601 144.327 146.935 144.186 147.377 144.186V142.686C146.558 142.686 145.836 142.97 145.263 143.544L146.323 144.604ZM147.377 144.186C147.819 144.186 148.14 144.327 148.399 144.595L149.479 143.553C148.916 142.971 148.196 142.686 147.377 142.686V144.186ZM148.418 144.614C148.686 144.873 148.827 145.194 148.827 145.636H150.327C150.327 144.817 150.042 144.097 149.46 143.534L148.418 144.614ZM148.827 145.636C148.827 146.078 148.686 146.412 148.409 146.69L149.469 147.75C150.043 147.177 150.327 146.455 150.327 145.636H148.827ZM142.847 152.28V148.32H141.347V152.28H142.847ZM142.097 149.07H152.657V147.57H142.097V149.07ZM151.907 148.32V152.28H153.407V148.32H151.907ZM152.657 151.53H142.097V153.03H152.657V151.53ZM148.409 156.018C148.151 156.275 147.828 156.414 147.377 156.414V157.914C148.188 157.914 148.905 157.642 149.469 157.078L148.409 156.018ZM147.377 156.414C146.926 156.414 146.589 156.275 146.314 156.008L145.272 157.088C145.847 157.643 146.566 157.914 147.377 157.914V156.414ZM146.333 156.027C146.066 155.751 145.927 155.415 145.927 154.964H144.427C144.427 155.775 144.698 156.494 145.253 157.069L146.333 156.027ZM145.927 154.964C145.927 154.513 146.066 154.19 146.323 153.932L145.263 152.872C144.699 153.436 144.427 154.153 144.427 154.964H145.927ZM146.323 153.932C146.601 153.655 146.935 153.514 147.377 153.514V152.014C146.558 152.014 145.836 152.298 145.263 152.872L146.323 153.932ZM147.377 153.514C147.819 153.514 148.14 153.655 148.399 153.923L149.479 152.881C148.916 152.299 148.196 152.014 147.377 152.014V153.514ZM148.418 153.942C148.686 154.201 148.827 154.522 148.827 154.964H150.327C150.327 154.145 150.042 153.425 149.46 152.862L148.418 153.942ZM148.827 154.964C148.827 155.406 148.686 155.74 148.409 156.018L149.469 157.078C150.043 156.505 150.327 155.783 150.327 154.964H148.827ZM169.906 149.948L169.457 149.347L168.561 150.016L169.52 150.591L169.906 149.948ZM170.478 157.076L170.95 157.658L170.956 157.654L170.478 157.076ZM161.766 157.076L161.288 157.654L161.293 157.658L161.766 157.076ZM162.338 149.948L162.724 150.591L163.683 150.016L162.786 149.347L162.338 149.948ZM162.272 143.524L162.744 144.107L162.749 144.103L162.272 143.524ZM169.972 143.524L169.495 144.103L169.5 144.107L169.972 143.524ZM167.112 148.122L166.673 147.514L166.664 147.52L166.656 147.526L167.112 148.122ZM167.112 146.45L166.656 147.046L166.664 147.052L166.673 147.058L167.112 146.45ZM165.022 154.018L164.508 154.564L164.524 154.58L164.542 154.594L165.022 154.018ZM167.2 154.018L167.696 154.58L167.698 154.579L167.2 154.018ZM167.2 152.104L166.686 152.65L166.702 152.666L166.72 152.68L167.2 152.104ZM165.022 152.104L165.518 152.666L165.52 152.665L165.022 152.104ZM169.52 150.591C170.684 151.29 171.246 152.283 171.246 153.666H172.746C172.746 151.763 171.914 150.278 170.292 149.305L169.52 150.591ZM171.246 153.666C171.246 154.904 170.822 155.819 170 156.498L170.956 157.654C172.158 156.661 172.746 155.303 172.746 153.666H171.246ZM170.005 156.494C169.176 157.167 167.917 157.558 166.122 157.558V159.058C168.11 159.058 169.756 158.628 170.95 157.658L170.005 156.494ZM166.122 157.558C164.326 157.558 163.068 157.167 162.238 156.494L161.293 157.658C162.488 158.628 164.133 159.058 166.122 159.058V157.558ZM162.244 156.498C161.422 155.819 160.998 154.904 160.998 153.666H159.498C159.498 155.303 160.086 156.661 161.288 157.654L162.244 156.498ZM160.998 153.666C160.998 152.283 161.559 151.29 162.724 150.591L161.952 149.305C160.33 150.278 159.498 151.763 159.498 153.666H160.998ZM162.786 149.347C161.931 148.708 161.526 147.902 161.526 146.868H160.026C160.026 148.386 160.662 149.633 161.889 150.549L162.786 149.347ZM161.526 146.868C161.526 145.644 161.943 144.755 162.743 144.107L161.8 142.941C160.606 143.907 160.026 145.247 160.026 146.868H161.526ZM162.749 144.103C163.585 143.415 164.688 143.042 166.122 143.042V141.542C164.417 141.542 162.954 141.991 161.795 142.945L162.749 144.103ZM166.122 143.042C167.556 143.042 168.659 143.415 169.495 144.103L170.449 142.945C169.29 141.991 167.826 141.542 166.122 141.542V143.042ZM169.5 144.107C170.301 144.755 170.718 145.644 170.718 146.868H172.218C172.218 145.247 171.638 143.907 170.443 142.941L169.5 144.107ZM170.718 146.868C170.718 147.902 170.313 148.708 169.457 149.347L170.354 150.549C171.581 149.633 172.218 148.386 172.218 146.868H170.718ZM166.122 145.414C165.578 145.414 165.031 145.521 164.61 145.862C164.159 146.227 163.986 146.75 163.986 147.286H165.486C165.486 147.074 165.543 147.036 165.554 147.027C165.595 146.994 165.742 146.914 166.122 146.914V145.414ZM163.986 147.286C163.986 147.822 164.159 148.345 164.61 148.71C165.031 149.051 165.578 149.158 166.122 149.158V147.658C165.742 147.658 165.595 147.578 165.554 147.545C165.543 147.536 165.486 147.498 165.486 147.286H163.986ZM166.122 149.158C166.646 149.158 167.152 149.036 167.567 148.718L166.656 147.526C166.573 147.59 166.419 147.658 166.122 147.658V149.158ZM167.551 148.73C168.037 148.379 168.258 147.858 168.258 147.286H166.758C166.758 147.447 166.715 147.484 166.673 147.514L167.551 148.73ZM168.258 147.286C168.258 146.714 168.037 146.193 167.551 145.842L166.673 147.058C166.715 147.088 166.758 147.125 166.758 147.286H168.258ZM167.567 145.854C167.152 145.536 166.646 145.414 166.122 145.414V146.914C166.419 146.914 166.573 146.982 166.656 147.046L167.567 145.854ZM164.542 154.594C164.983 154.962 165.541 155.098 166.122 155.098V153.598C165.764 153.598 165.589 153.514 165.502 153.442L164.542 154.594ZM166.122 155.098C166.699 155.098 167.262 154.963 167.696 154.58L166.704 153.456C166.639 153.513 166.483 153.598 166.122 153.598V155.098ZM167.698 154.579C168.149 154.178 168.346 153.637 168.346 153.05H166.846C166.846 153.285 166.779 153.389 166.702 153.457L167.698 154.579ZM168.346 153.05C168.346 152.465 168.149 151.918 167.68 151.528L166.72 152.68C166.779 152.73 166.846 152.814 166.846 153.05H168.346ZM167.714 151.558C167.281 151.15 166.71 151.002 166.122 151.002V152.502C166.472 152.502 166.62 152.588 166.686 152.65L167.714 151.558ZM166.122 151.002C165.53 151.002 164.965 151.151 164.524 151.543L165.52 152.665C165.607 152.587 165.775 152.502 166.122 152.502V151.002ZM164.526 151.542C164.078 151.937 163.898 152.479 163.898 153.05H165.398C165.398 152.8 165.467 152.711 165.518 152.666L164.526 151.542ZM163.898 153.05C163.898 153.623 164.078 154.16 164.508 154.564L165.536 153.472C165.467 153.407 165.398 153.298 165.398 153.05H163.898ZM179.596 149.75H178.846V150.5H179.596V149.75ZM179.596 145.79V145.04H178.846V145.79H179.596ZM189.276 145.79H190.026V145.04H189.276V145.79ZM189.276 149.75V150.5H190.026V149.75H189.276ZM179.596 154.81H178.846V155.56H179.596V154.81ZM179.596 150.85V150.1H178.846V150.85H179.596ZM189.276 150.85H190.026V150.1H189.276V150.85ZM189.276 154.81V155.56H190.026V154.81H189.276ZM180.346 149.75V145.79H178.846V149.75H180.346ZM179.596 146.54H189.276V145.04H179.596V146.54ZM188.526 145.79V149.75H190.026V145.79H188.526ZM189.276 149H179.596V150.5H189.276V149ZM180.346 154.81V150.85H178.846V154.81H180.346ZM179.596 151.6H189.276V150.1H179.596V151.6ZM188.526 150.85V154.81H190.026V150.85H188.526ZM189.276 154.06H179.596V155.56H189.276V154.06ZM211.17 152.28H210.42V153.03H211.17V152.28ZM211.632 150.52L210.987 150.137L210.984 150.143L210.98 150.15L211.632 150.52ZM212.666 149.244L212.195 148.661L212.189 148.665L212.184 148.67L212.666 149.244ZM213.7 148.254L213.147 147.747L213.141 147.754L213.136 147.76L213.7 148.254ZM213.942 146.692L213.438 147.247L213.438 147.247L213.942 146.692ZM211.478 148.078L211.108 148.73L211.823 149.136L212.162 148.387L211.478 148.078ZM207.76 145.966L207.07 145.674L206.809 146.288L207.39 146.618L207.76 145.966ZM210.07 143.172L209.68 142.531L210.07 143.172ZM217.132 143.436L216.657 144.016L216.663 144.021L217.132 143.436ZM218.232 148.298L218.917 148.603L218.232 148.298ZM217.374 149.618L217.904 150.148L217.91 150.143L217.916 150.137L217.374 149.618ZM216.34 150.564L215.86 149.988L215.854 149.993L215.848 149.998L216.34 150.564ZM215.482 151.444L216.056 151.927L216.062 151.92L216.068 151.913L215.482 151.444ZM215.13 152.28V153.03H215.88V152.28H215.13ZM214.932 157.604L215.462 158.134L214.932 157.604ZM211.346 157.604L210.808 158.126L210.816 158.134L210.824 158.142L211.346 157.604ZM211.346 154.018L210.816 153.488L211.346 154.018ZM214.932 154.018L214.394 154.54L214.402 154.548L214.41 154.556L214.932 154.018ZM211.92 152.28C211.92 151.778 212.041 151.319 212.284 150.89L210.98 150.15C210.607 150.807 210.42 151.521 210.42 152.28H211.92ZM212.277 150.903C212.569 150.411 212.863 150.058 213.149 149.818L212.184 148.67C211.736 149.046 211.34 149.543 210.987 150.137L212.277 150.903ZM213.137 149.827C213.551 149.494 213.927 149.134 214.265 148.748L213.136 147.76C212.857 148.078 212.544 148.378 212.195 148.661L213.137 149.827ZM214.253 148.761C214.635 148.344 214.934 147.84 214.934 147.264H213.434C213.434 147.304 213.41 147.46 213.147 147.747L214.253 148.761ZM214.934 147.264C214.934 146.836 214.777 146.438 214.447 146.137L213.438 147.247C213.441 147.25 213.441 147.25 213.439 147.247C213.437 147.245 213.434 147.241 213.433 147.237C213.431 147.234 213.432 147.233 213.432 147.236C213.433 147.239 213.434 147.248 213.434 147.264H214.934ZM214.447 146.137C214.112 145.833 213.694 145.722 213.282 145.722V147.222C213.357 147.222 213.399 147.232 213.419 147.239C213.429 147.242 213.434 147.244 213.435 147.245C213.437 147.246 213.437 147.247 213.438 147.247L214.447 146.137ZM213.282 145.722C212.108 145.722 211.316 146.616 210.795 147.769L212.162 148.387C212.609 147.398 213.019 147.222 213.282 147.222V145.722ZM211.849 147.426L208.131 145.314L207.39 146.618L211.108 148.73L211.849 147.426ZM208.451 146.258C208.927 145.135 209.601 144.336 210.46 143.813L209.68 142.531C208.515 143.24 207.65 144.304 207.07 145.674L208.451 146.258ZM210.46 143.813C211.348 143.272 212.341 142.998 213.458 142.998V141.498C212.081 141.498 210.816 141.84 209.68 142.531L210.46 143.813ZM213.458 142.998C214.8 142.998 215.847 143.353 216.657 144.016L217.607 142.856C216.481 141.935 215.079 141.498 213.458 141.498V142.998ZM216.663 144.021C217.441 144.646 217.834 145.473 217.834 146.582H219.334C219.334 145.051 218.759 143.781 217.602 142.851L216.663 144.021ZM217.834 146.582C217.834 147.1 217.736 147.568 217.547 147.993L218.917 148.603C219.198 147.972 219.334 147.296 219.334 146.582H217.834ZM217.547 147.993C217.341 148.456 217.1 148.82 216.833 149.099L217.916 150.137C218.323 149.712 218.654 149.196 218.917 148.603L217.547 147.993ZM216.844 149.088C216.522 149.41 216.194 149.71 215.86 149.988L216.82 151.14C217.19 150.832 217.552 150.501 217.904 150.148L216.844 149.088ZM215.848 149.998C215.483 150.316 215.164 150.641 214.896 150.975L216.068 151.913C216.27 151.66 216.523 151.399 216.832 151.13L215.848 149.998ZM214.908 150.961C214.595 151.333 214.38 151.776 214.38 152.28H215.88C215.88 152.226 215.899 152.113 216.056 151.927L214.908 150.961ZM215.13 151.53H211.17V153.03H215.13V151.53ZM214.402 157.074C214.063 157.413 213.662 157.58 213.15 157.58V159.08C214.047 159.08 214.833 158.763 215.462 158.134L214.402 157.074ZM213.15 157.58C212.638 157.58 212.225 157.412 211.868 157.066L210.824 158.142C211.464 158.764 212.254 159.08 213.15 159.08V157.58ZM211.884 157.082C211.538 156.725 211.37 156.312 211.37 155.8H209.87C209.87 156.696 210.186 157.486 210.808 158.126L211.884 157.082ZM211.37 155.8C211.37 155.289 211.538 154.887 211.876 154.548L210.816 153.488C210.187 154.117 209.87 154.903 209.87 155.8H211.37ZM211.876 154.548C212.235 154.19 212.645 154.02 213.15 154.02V152.52C212.247 152.52 211.455 152.849 210.816 153.488L211.876 154.548ZM213.15 154.02C213.654 154.02 214.053 154.189 214.394 154.54L215.47 153.496C214.843 152.849 214.054 152.52 213.15 152.52V154.02ZM214.41 154.556C214.761 154.897 214.93 155.296 214.93 155.8H216.43C216.43 154.896 216.101 154.107 215.454 153.48L214.41 154.556ZM214.93 155.8C214.93 156.305 214.76 156.715 214.402 157.074L215.462 158.134C216.101 157.495 216.43 156.703 216.43 155.8H214.93Z" fill="#0D0C0C"/>
</g>
<defs>
<filter id="filter0_d_692_471" x="77.7274" y="84.7871" width="187.098" height="95.0479" filterUnits="userSpaceOnUse" color-interpolation-filters="sRGB">
<feFlood flood-opacity="0" result="BackgroundImageFix"/>
<feColorMatrix in="SourceAlpha" type="matrix" values="0 0 0 0 0 0 0 0 0 0 0 0 0 0 0 0 0 0 127 0" result="hardAlpha"/>
<feOffset dy="4"/>
<feGaussianBlur stdDeviation="2"/>
<feComposite in2="hardAlpha" operator="out"/>
<feColorMatrix type="matrix" values="0 0 0 0 0 0 0 0 0 0 0 0 0 0 0 0 0 0 0.25 0"/>
<feBlend mode="normal" in2="BackgroundImageFix" result="effect1_dropShadow_692_471"/>
<feBlend mode="normal" in="SourceGraphic" in2="effect1_dropShadow_692_471" result="shape"/>
</filter>
</defs>
</svg>
