<svg width="306" height="184" viewBox="0 0 306 184" fill="none" xmlns="http://www.w3.org/2000/svg">
<path d="M133.426 110.822L103.146 94.2724L105.074 128.694L87.1374 99.2374L71.5756 130.009L70.7944 95.5435L41.9075 114.416L58.4836 84.1788L24.021 86.0981L53.5127 68.1888L22.7042 52.6456L57.2109 51.859L38.3101 23.0129L68.5893 39.5629L66.6614 5.14136L84.5983 34.6042L100.16 3.82617L100.941 38.2981L129.828 19.4197L113.252 49.6565L147.715 47.7372L118.223 65.6465L149.031 81.1897L114.525 81.9763L133.426 110.822Z" fill="#D5D1FF"/>
<path d="M224.08 110.917L211.625 104.109L212.419 118.267L205.041 106.148L198.64 118.809L198.319 104.631L186.436 112.396L193.253 99.9554L179.077 100.748L191.206 93.3795L178.536 86.986L192.73 86.6588L184.956 74.7906L197.411 81.6057L196.618 67.4406L203.995 79.5605L210.396 66.8994L210.718 81.0834L222.6 73.3181L215.783 85.7526L229.959 84.966L217.831 92.3349L230.5 98.7283L216.306 99.0493L224.08 110.917Z" fill="#D5D1FF"/>
<path d="M153 183.001C237.021 183.001 305.133 178.361 305.133 172.637C305.133 166.913 237.021 162.272 153 162.272C68.9791 162.272 0.866699 166.913 0.866699 172.637C0.866699 178.361 68.9791 183.001 153 183.001Z" fill="#D5D1FF" stroke="#504789" stroke-miterlimit="10"/>
<path d="M255.713 164.538C253.602 166.728 249.52 170.327 243.484 171.844C231.325 174.902 215.845 168.358 212.581 157.1C211.296 152.664 211.573 146.371 215.334 141.286C218.573 136.906 223.015 135.289 224.798 134.748C224.193 136.906 223.519 140.418 224.275 144.521C226.486 156.622 238.879 161.983 240.529 162.663C246.622 165.186 252.279 164.991 255.719 164.532L255.713 164.538Z" fill="#FFD037"/>
<path d="M215.311 162.795C214.151 162.518 204.134 159.969 200.744 150.952C200.177 149.448 198.262 144.35 200.826 139.197C203.119 134.59 208.248 131.45 213.635 131.765C218.322 132.042 221.409 134.829 222.304 135.698C220.584 136.491 216.35 138.744 213.817 143.602C209.035 152.789 215.021 162.354 215.304 162.801L215.311 162.795Z" fill="#FFD037"/>
<path d="M202.891 155.043C202.337 155.093 195.18 155.622 190.7 149.99C186.945 145.27 186.901 138.506 190.083 134.025C194.266 128.148 203.773 126.581 210.918 131.892C210.439 131.98 203.137 133.421 200.302 140.381C198.298 145.289 199.306 150.984 202.885 155.037L202.891 155.043Z" fill="#FFD037"/>
<path d="M198.455 128.909C197.22 127.959 194.706 126.298 191.178 125.838C190.025 125.687 183.101 124.794 179.276 129.821C177.475 132.188 176.523 135.661 177.556 139.135C178.596 142.621 181.324 145.006 184.165 146.007C186.043 146.667 187.719 146.63 188.721 146.523C188.538 146.063 186.081 139.6 190.088 134.025C193.036 129.928 197.491 129.073 198.455 128.909Z" fill="#FFD037"/>
<path d="M177.998 132.023C177.135 132.161 174.886 132.633 172.926 134.54C171.2 136.214 170.639 138.077 170.425 138.819C170.192 139.625 169.36 142.519 170.671 145.276C172.655 149.429 178.615 151.354 182.742 149.41C184.456 148.604 185.495 147.295 186.05 146.459C185.432 146.364 181.161 145.64 178.685 141.619C175.925 137.139 177.809 132.47 177.998 132.017V132.023Z" fill="#FFD037"/>
<path d="M169.991 142.745C169.569 142.984 166.507 144.803 165.846 148.616C165.777 149.019 165.203 152.7 167.812 155.57C168.076 155.866 169.55 157.439 172.083 158.005C172.764 158.156 175.605 158.704 178.283 157.011C182.056 154.626 182.044 149.976 182.044 149.699C181.546 149.85 177.268 151.052 173.564 148.314C170.892 146.345 170.168 143.538 169.991 142.745Z" fill="#FFD037"/>
<path d="M255.714 164.539C253.427 165.633 249.886 166.955 245.483 167.075C233.922 167.383 223.696 159.227 220.136 150.443C218.543 146.516 218.146 142.13 219.431 139.242C219.771 138.474 220.508 136.819 222.304 135.692C223.274 135.082 224.206 134.849 224.799 134.742C224.238 136.674 223.488 140.229 224.276 144.515C224.408 145.245 224.944 147.944 226.607 150.996C231.471 159.901 241.173 162.972 243.517 163.639C246.012 164.35 250.277 165.206 255.721 164.532L255.714 164.539Z" fill="#F18300"/>
<path d="M215.31 162.794C214.995 162.297 209.123 152.745 213.912 143.576C216.413 138.781 220.565 136.516 222.304 135.698C220.905 133.766 219.613 133.086 218.479 133.036C213.206 132.79 205.06 145.735 208.852 155.407C210.358 159.245 213.351 161.573 215.31 162.794Z" fill="#F18300"/>
<path d="M210.924 131.891C209.992 130.947 207.975 129.217 205.31 129.173C200.497 129.091 197.044 134.591 196.036 138.322C194.505 143.986 197.252 150.518 202.891 155.036C202.513 154.526 197.492 147.472 200.314 140.361C201.7 136.869 204.428 134.761 204.781 134.49C207.232 132.64 209.689 132.086 210.924 131.891Z" fill="#F18300"/>
<path d="M198.186 128.959C197.795 128.468 197.071 127.713 195.949 127.323C195.949 127.323 195.439 127.146 194.904 127.096C193.114 126.926 187.368 130.224 185.611 136.623C184.628 140.21 184.729 145.383 187.022 146.421C187.595 146.679 188.206 146.642 188.717 146.522C188.534 145.993 186.272 139.103 190.645 133.571C193.31 130.198 196.945 129.229 198.18 128.959H198.186Z" fill="#F18300"/>
<path d="M186.052 146.466C184.729 146.315 182.877 145.875 181.201 144.56C177.899 141.961 176.671 137.033 177.994 132.024C177.496 132.144 176.992 132.27 176.495 132.389C175.751 133.749 174.926 135.813 174.989 138.342C175.083 142.288 177.288 146.013 180.35 147.693C181.201 148.159 182.852 149.065 184.364 148.367C185.365 147.901 185.85 146.945 186.052 146.454V146.466Z" fill="#F18300"/>
<path d="M182.044 149.698C181.717 149.799 176.683 151.303 172.909 148.024C170.71 146.118 170.149 143.632 169.992 142.751C169.683 142.984 169.324 143.317 169.091 143.802C168.026 146.023 170.275 149.654 172.985 151.416C175.952 153.348 180.532 153.732 181.78 151.825C182.063 151.391 182.246 150.73 182.044 149.698Z" fill="#F18300"/>
<path d="M255.713 164.538C253.602 166.728 249.52 170.327 243.484 171.844C231.325 174.902 215.845 168.358 212.581 157.1C211.296 152.664 211.573 146.371 215.334 141.286C218.573 136.906 223.015 135.289 224.798 134.748" stroke="#0C0C0D" stroke-width="2" stroke-miterlimit="10"/>
<path d="M215.311 162.795C214.151 162.518 204.134 159.969 200.744 150.952C200.177 149.448 198.262 144.35 200.826 139.197C203.119 134.59 208.248 131.45 213.635 131.765C218.322 132.042 221.409 134.829 222.304 135.698" stroke="#0C0C0D" stroke-width="2" stroke-miterlimit="10"/>
<path d="M202.891 155.043C202.337 155.093 195.18 155.622 190.7 149.99C186.945 145.27 186.901 138.506 190.083 134.025C194.266 128.148 203.773 126.581 210.918 131.892" stroke="#0C0C0D" stroke-width="2" stroke-miterlimit="10"/>
<path d="M198.455 128.909C197.22 127.959 194.706 126.298 191.178 125.838C190.025 125.687 183.101 124.794 179.276 129.821C177.475 132.188 176.523 135.661 177.556 139.135C178.596 142.621 181.324 145.006 184.165 146.007C186.043 146.667 187.719 146.63 188.721 146.523" stroke="#0C0C0D" stroke-width="2" stroke-miterlimit="10"/>
<path d="M177.998 132.024C177.135 132.163 174.886 132.635 172.926 134.542C171.2 136.215 170.639 138.078 170.425 138.821C170.192 139.626 169.36 142.521 170.671 145.277C172.649 149.43 178.615 151.356 182.742 149.411C184.456 148.606 185.495 147.297 186.05 146.46" stroke="#0C0C0D" stroke-width="2" stroke-miterlimit="10"/>
<path d="M169.991 142.745C169.569 142.984 166.507 144.803 165.846 148.616C165.777 149.019 165.203 152.7 167.812 155.57C168.076 155.866 169.55 157.439 172.083 158.005C172.764 158.156 175.605 158.704 178.283 157.011C182.056 154.626 182.044 149.976 182.044 149.699" stroke="#0C0C0D" stroke-width="2" stroke-miterlimit="10"/>
<path d="M286.447 114.114C286.932 115.108 292.653 127.291 286.069 138.158C283.152 142.972 278.893 145.319 277.249 146.213C268.926 150.763 260.66 149.133 258.203 148.611C256.357 148.214 245.558 145.729 239.315 135.452C238.048 133.363 233.323 125.592 235.774 116.536C236.669 113.226 238.237 110.772 239.435 109.218C241.205 112.232 244.708 117.103 250.863 120.526C252.319 121.331 264.377 127.781 276.644 122.068C281.691 119.72 284.841 116.215 286.454 114.114H286.447Z" fill="#FFD037"/>
<path d="M276.581 146.542C276.254 149.066 274.987 156.183 269.04 161.859C259.293 171.154 245.842 168.12 244.128 167.705C235.554 165.622 225.479 158.807 223.671 148.254C223.4 146.694 222.172 138.393 227.754 131.698C230.488 128.419 233.752 126.84 235.648 126.104C236.095 128.35 237.053 131.817 239.309 135.467C246.932 147.776 261.316 149.154 261.946 149.204C268.315 149.708 273.488 147.952 276.575 146.549L276.581 146.542Z" fill="#FFD037"/>
<path d="M283.982 81.6924C285.696 83.6746 288.613 87.5887 290.094 93.3152C290.673 95.568 291.858 100.388 290.402 106.083C290.295 106.499 287.926 115.246 279.982 120.311C266.871 128.681 246.118 122.237 240.132 110.752C238.204 107.059 237.744 102.717 237.663 101.88C236.988 94.8946 239.282 89.4703 240.479 87.0727C242.501 88.4634 251.479 94.322 263.777 92.6041C275.414 90.9742 282.262 83.6431 283.976 81.6924H283.982Z" fill="#FFD037"/>
<path d="M290.932 97.6275C290.705 95.3432 290.201 93.3925 289.672 91.8507C289.873 91.6934 290.144 91.4921 290.466 91.2592C292.123 90.0825 297.535 86.2376 299.765 87.6409C301.794 88.9246 300.71 94.2483 299.633 97.0486C298.341 100.409 296.117 102.561 294.876 103.744C293.093 105.443 291.329 106.538 290.044 107.23C290.674 105.04 291.329 101.68 290.932 97.6275Z" fill="#FFD037"/>
<path d="M283.982 81.6943C280.952 85.2309 277.146 87.5844 276.037 88.2451C271.287 91.0706 267.041 92.0208 265.491 92.3229C258.541 93.6821 252.764 92.411 249.683 91.467C246.665 90.542 241.789 88.9877 237.379 84.5072C231.312 78.3466 230.304 70.9274 230.083 68.5361C229.667 63.9109 230.619 60.2674 231.198 58.1342C232.546 53.144 234.726 49.7018 235.564 48.4558C240.882 40.5332 248.379 37.3302 250.156 36.6191C252.783 35.5619 261.339 32.2771 271.274 35.6689C285.274 40.4577 289.552 54.2641 289.747 54.9374C292.903 65.7862 288.909 75.9553 283.988 81.7006L283.982 81.6943Z" fill="#FFD037"/>
<path d="M269.032 75.7351C269 75.7792 268.849 75.9806 268.956 75.8421C268.881 75.9302 268.811 76.0246 268.736 76.1127C268.534 76.3455 268.32 76.5595 268.087 76.7609C267.526 77.258 266.852 77.6544 266.14 77.9061C264.848 78.3592 263.513 78.3718 262.259 78.0068C261.282 77.7236 260.867 79.2402 261.843 79.5234C265.044 80.4484 268.458 79.2088 270.393 76.528C270.638 76.1819 270.456 75.6533 270.109 75.452C269.712 75.2191 269.284 75.389 269.032 75.7351Z" fill="#0C0C0D"/>
<path d="M239.427 109.218C240.347 111.112 242.035 113.975 244.965 116.668C248.915 120.287 252.992 121.633 255.802 122.521C258 123.219 262.436 124.578 268.276 124.037C270.79 123.804 275.288 123.332 279.982 120.318C283.233 118.229 285.293 115.75 286.446 114.114C286.742 114.825 287.038 115.536 287.335 116.247C286.767 117.726 285.734 119.953 283.838 122.143C273.291 134.295 248.745 130.569 240.378 121.923C239.055 120.551 236.258 117.663 236.693 114.063C236.976 111.729 238.495 110.067 239.421 109.218H239.427Z" fill="#F18300"/>
<path d="M276.58 146.542C274.356 148.487 270.469 151.325 265.013 152.64C252.469 155.654 240.24 148.537 234.488 140.483C233.316 138.84 228.685 132.352 231.111 128.57C232.138 126.959 234.122 126.349 235.653 126.104C236.107 128.488 237.209 132.554 240.145 136.713C243.724 141.785 248.052 144.202 249.854 145.177C261.409 151.457 274.079 147.398 276.586 146.542H276.58Z" fill="#F18300"/>
<path d="M283.984 81.6924C284.255 82.0133 284.526 82.3405 284.797 82.6615C283.694 85.0339 281.653 88.6333 277.999 91.9245C269.248 99.8093 258.329 99.5198 255.645 99.4506C254.196 99.4129 248.627 99.1612 242.2 96.4175C240.443 95.6687 239.031 94.9072 238.023 94.322C238.263 93.0886 238.616 91.6853 239.157 90.1751C239.573 89.0172 240.027 87.9789 240.48 87.0727C242.56 88.5012 251.178 94.0892 263.105 92.667C275.22 91.226 282.34 83.555 283.978 81.6924H283.984Z" fill="#F18300"/>
<path d="M271.269 35.661C268.074 35.2771 262.719 35.038 256.507 36.8315C254.674 37.3601 246.036 40.003 238.677 48.2655C233.473 54.1052 231.193 60.1903 230.153 63.8212C230.367 61.4237 231.602 50.3924 241.109 42.13C242.766 40.6889 250.207 34.5283 261.251 34.2577C265.485 34.157 268.956 34.9499 271.262 35.661H271.269Z" fill="#F18300"/>
<path d="M291.202 100.201C292.103 99.6661 293.275 98.8984 294.541 97.8286C295.19 97.2812 296.557 96.117 297.723 94.5941C300.123 91.4603 300.483 88.3265 300.69 88.3706C301.062 88.4524 301.377 93.2349 299.279 97.8979C296.992 102.97 292.821 105.732 290.56 106.985C290.667 105.94 290.767 104.889 290.868 103.832C290.982 102.611 291.095 101.403 291.209 100.195L291.202 100.201Z" fill="#F18300"/>
<path d="M286.447 114.114C286.932 115.108 292.653 127.291 286.069 138.158C279.731 148.611 266.633 150.228 258.203 148.611C257.069 148.39 245.741 146.037 239.315 135.452C238.048 133.363 233.323 125.592 235.774 116.536C236.669 113.226 238.237 110.772 239.435 109.218" stroke="#0C0C0D" stroke-width="2" stroke-miterlimit="10"/>
<path d="M276.581 146.542C276.254 149.066 274.987 156.183 269.04 161.859C259.293 171.154 245.842 168.12 244.128 167.705C235.554 165.622 225.479 158.807 223.671 148.254C223.4 146.694 222.172 138.393 227.754 131.698C230.488 128.419 233.752 126.84 235.648 126.104" stroke="#0C0C0D" stroke-width="2" stroke-miterlimit="10"/>
<path d="M283.982 81.6943C280.952 85.2309 277.146 87.5844 276.037 88.2451C271.287 91.0706 267.041 92.0208 265.491 92.3229C258.541 93.6821 252.764 92.411 249.683 91.467C246.665 90.542 241.789 88.9877 237.379 84.5072C231.312 78.3466 230.304 70.9274 230.083 68.5361C229.667 63.9109 230.619 60.2674 231.198 58.1342C232.546 53.144 234.726 49.7018 235.564 48.4558C240.882 40.5332 248.379 37.3302 250.156 36.6191C252.783 35.5619 261.339 32.2771 271.274 35.6689C285.274 40.4577 289.552 54.2641 289.747 54.9374C292.903 65.7862 288.909 75.9553 283.988 81.7006L283.982 81.6943Z" stroke="#0C0C0D" stroke-width="2" stroke-miterlimit="10"/>
<path d="M283.982 81.6924C285.683 83.6557 288.619 87.5698 290.094 93.3152C290.673 95.568 291.858 100.388 290.402 106.083C290.295 106.499 287.926 115.246 279.982 120.311C266.871 128.681 246.118 122.237 240.132 110.752C238.204 107.059 237.744 102.717 237.663 101.88C236.988 94.8946 239.282 89.4703 240.479 87.0727" stroke="#0C0C0D" stroke-width="2" stroke-miterlimit="10"/>
<path d="M290.932 97.6275C290.705 95.3432 290.201 93.3925 289.672 91.8507C289.873 91.6934 290.144 91.4921 290.466 91.2592C292.123 90.0825 297.535 86.2376 299.765 87.6409C301.794 88.9246 300.71 94.2483 299.633 97.0486C298.341 100.409 296.117 102.561 294.876 103.744C293.093 105.443 291.329 106.538 290.044 107.23C290.674 105.04 291.329 101.68 290.932 97.6275Z" stroke="#0C0C0D" stroke-width="2" stroke-miterlimit="10"/>
<path d="M237.551 99.5453C237.494 96.8457 237.904 94.5803 238.338 92.9253C237.897 92.7617 237.286 92.5415 236.562 92.296C230.797 90.339 227.88 89.3321 226.777 90.3327C224.994 91.9436 226.985 97.003 228.529 99.5768C230.368 102.635 232.945 104.397 234.369 105.354C236.228 106.6 237.954 107.355 239.189 107.808C238.471 105.958 237.626 103.107 237.551 99.5453Z" fill="#FFD037"/>
<path d="M237.379 101.228C236.402 100.856 235.111 100.303 233.681 99.4658C232.95 99.0379 231.4 98.1254 229.989 96.8291C227.084 94.1546 226.19 91.1278 225.988 91.2096C225.635 91.3544 226.152 96.1243 229.025 100.353C232.15 104.953 236.736 106.96 239.181 107.804C238.897 106.791 238.614 105.777 238.337 104.752C238.009 103.569 237.694 102.398 237.379 101.228Z" fill="#F18300"/>
<path d="M237.551 99.1367C237.57 96.6825 237.929 94.5745 238.338 92.9195C237.897 92.7558 237.286 92.5356 236.562 92.2902C230.797 90.3331 227.88 89.3263 226.777 90.3268C224.994 91.9378 226.985 96.9972 228.529 99.5709C230.179 102.321 232.529 103.995 234.369 105.348C236.19 106.682 237.847 107.588 239.038 108.167C238.313 106.065 237.519 102.95 237.551 99.1367Z" stroke="#0C0C0D" stroke-width="2" stroke-miterlimit="10"/>
<path d="M255.32 56.4901L255.458 56.2384C255.666 55.8546 256.29 54.9169 257.531 54.489C257.915 54.3569 258.319 54.2939 258.728 54.2939C259.459 54.2939 260.032 54.5079 260.31 54.6338L260.574 54.7533L261.582 58.3087L260.448 57.9249C260.152 57.8242 259.824 57.7676 259.503 57.7676C259.238 57.7676 258.98 57.8053 258.728 57.8745C257.934 58.1011 257.449 58.6045 257.229 58.8877L256.529 59.7875L255.326 56.4901H255.32Z" fill="#077BB3"/>
<path d="M258.723 54.9245C259.397 54.9245 259.901 55.1447 260.04 55.2076C260.241 55.9124 260.443 56.6235 260.645 57.3283C260.449 57.2654 260.04 57.1395 259.498 57.1395C259.214 57.1395 258.893 57.171 258.553 57.2717C257.501 57.5674 256.915 58.2596 256.726 58.5051C256.486 57.8506 256.247 57.1962 256.008 56.5417C256.121 56.3403 256.625 55.4656 257.734 55.0881C258.087 54.9685 258.421 54.9245 258.723 54.9245ZM258.723 53.6659C258.244 53.6659 257.778 53.7414 257.324 53.8987C255.875 54.3959 255.144 55.4908 254.899 55.9376L254.628 56.4347L254.823 56.9696L254.974 57.3912L255.535 58.9267L256.316 61.0662L257.715 59.2665C257.885 59.0462 258.269 58.6498 258.887 58.4736C259.082 58.417 259.29 58.3918 259.492 58.3918C259.744 58.3918 259.996 58.4358 260.229 58.5114L262.503 59.2854L261.848 56.9759L261.401 55.409L261.243 54.849L261.086 54.2889L260.556 54.0498C260.235 53.8987 259.561 53.6533 258.717 53.6533L258.723 53.6659Z" fill="#0C0C0D"/>
<path d="M240.1 81.0264C239.148 81.0264 238.191 80.9509 237.246 80.7999C227.499 79.2393 220.84 70.0455 222.402 60.3106C223.801 51.5888 231.229 45.252 240.062 45.252C241.013 45.252 241.971 45.3275 242.916 45.4785C252.663 47.0391 259.322 56.2329 257.759 65.9678C256.361 74.6896 248.933 81.0264 240.1 81.0264ZM240.068 48.5368C232.861 48.5368 226.794 53.7032 225.653 60.8266C224.381 68.7744 229.811 76.2754 237.775 77.5528C238.544 77.6787 239.331 77.7416 240.106 77.7416C247.314 77.7416 253.374 72.5752 254.515 65.4518C255.788 57.504 250.357 50.003 242.399 48.7256C241.631 48.5997 240.843 48.5368 240.068 48.5368Z" fill="#077BB3"/>
<path d="M240.063 45.882C240.97 45.882 241.89 45.9513 242.816 46.1023C252.235 47.6125 258.648 56.4602 257.136 65.8679C255.775 74.3506 248.436 80.3917 240.1 80.3917C239.193 80.3917 238.273 80.3225 237.347 80.1714C227.928 78.6612 221.514 69.8135 223.027 60.4058C224.387 51.9231 231.727 45.882 240.063 45.882ZM240.1 78.3654C247.453 78.3654 253.929 73.0291 255.133 65.547C256.462 57.2468 250.811 49.4312 242.494 48.1034C241.675 47.9712 240.869 47.9083 240.063 47.9083C232.704 47.9083 226.227 53.2446 225.024 60.7267C223.694 69.0269 229.352 76.8425 237.662 78.1766C238.481 78.3088 239.288 78.3717 240.094 78.3717M240.063 44.6235C230.921 44.6235 223.228 51.1806 221.779 60.2107C220.998 65.0939 222.163 69.9897 225.068 73.9919C227.972 77.9941 232.263 80.6371 237.152 81.4174C238.128 81.5747 239.124 81.6502 240.107 81.6502C249.248 81.6502 256.941 75.0931 258.39 66.063C260.009 55.982 253.11 46.4673 243.024 44.85C242.047 44.6927 241.052 44.6172 240.069 44.6172L240.063 44.6235ZM240.1 77.1068C239.357 77.1068 238.607 77.0439 237.87 76.9306C230.253 75.7098 225.055 68.5298 226.271 60.9281C227.367 54.113 233.164 49.1669 240.063 49.1669C240.806 49.1669 241.556 49.2298 242.293 49.3431C245.979 49.9346 249.217 51.9231 251.403 54.9499C253.589 57.9705 254.471 61.6643 253.879 65.3519C252.783 72.167 246.987 77.1131 240.088 77.1131L240.1 77.1068Z" fill="#0C0C0D"/>
<path d="M276.95 69.4464C275.999 69.4464 275.041 69.3708 274.096 69.2198C269.377 68.4647 265.231 65.9161 262.428 62.046C259.624 58.176 258.496 53.4438 259.252 48.7305C260.651 40.0087 268.079 33.6719 276.912 33.6719C277.864 33.6719 278.821 33.7474 279.766 33.8984C289.513 35.459 296.172 44.6528 294.61 54.3877C293.211 63.1095 285.783 69.4464 276.95 69.4464ZM276.919 36.9567C269.711 36.9567 263.644 42.1231 262.503 49.2465C261.231 57.1943 266.662 64.6953 274.625 65.9727C275.394 66.0986 276.181 66.1615 276.956 66.1615C284.164 66.1615 290.225 60.9952 291.365 53.8717C291.983 50.0205 291.063 46.1631 288.776 43.0041C286.489 39.8451 283.105 37.7622 279.25 37.1455C278.481 37.0196 277.693 36.9567 276.919 36.9567Z" fill="#077BB3"/>
<path d="M276.914 34.3015C277.821 34.3015 278.741 34.3708 279.667 34.5218C289.086 36.032 295.5 44.8797 293.988 54.2874C292.627 62.7701 285.287 68.8112 276.952 68.8112C276.044 68.8112 275.124 68.7419 274.198 68.5909C264.779 67.0807 258.366 58.2267 259.878 48.8253C261.239 40.3426 268.578 34.3015 276.914 34.3015ZM276.952 66.7912C284.304 66.7912 290.781 61.4549 291.984 53.9728C293.313 45.6726 287.662 37.857 279.346 36.5292C278.527 36.397 277.72 36.3341 276.914 36.3341C269.555 36.3341 263.078 41.6704 261.875 49.1525C260.546 57.4527 266.203 65.2683 274.513 66.5961C275.332 66.7283 276.139 66.7912 276.945 66.7912M276.914 33.043C267.772 33.043 260.079 39.6001 258.63 48.6302C257.011 58.7112 263.91 68.2259 273.997 69.8432C274.973 70.0005 275.969 70.076 276.952 70.076C286.093 70.076 293.786 63.5189 295.235 54.4888C296.016 49.6056 294.851 44.7098 291.946 40.7076C289.042 36.6991 284.751 34.0624 279.862 33.2821C278.886 33.1248 277.89 33.0493 276.907 33.0493L276.914 33.043ZM276.952 65.5326C276.208 65.5326 275.458 65.4697 274.721 65.3564C271.036 64.7649 267.797 62.7764 265.605 59.7496C263.412 56.7227 262.53 53.0352 263.122 49.3476C264.219 42.5325 270.015 37.5864 276.914 37.5864C277.657 37.5864 278.407 37.6493 279.144 37.7626C282.83 38.3541 286.068 40.3426 288.254 43.3694C290.44 46.39 291.323 50.0838 290.73 53.7714C289.634 60.5865 283.838 65.5326 276.939 65.5326H276.952Z" fill="#0C0C0D"/>
<path d="M290.862 61.7699C289.936 63.0221 287.485 65.9986 283.125 67.6725C278.356 69.5037 274.185 68.6668 272.654 68.2766C271.186 67.9053 266.499 66.5083 263.059 61.8957C260.375 58.2962 259.846 54.6087 259.713 53.0166C260.079 54.7912 261.188 58.8878 264.76 62.4872C265.888 63.6199 269.34 66.9992 274.79 67.6788C277.909 68.0689 280.347 67.4082 281.84 66.9803C286.351 65.7029 289.356 63.2109 290.856 61.7636L290.862 61.7699Z" fill="#0A5877"/>
<path d="M252.066 75.5651C250.969 76.6286 248.657 78.5982 245.104 79.6743C243.932 80.033 241.009 80.7755 237.342 80.1714C230.985 79.1268 227.337 74.8288 226.726 74.08C223.872 70.6064 223.16 66.944 222.939 65.333C223.343 67.0258 224.47 70.7511 227.759 74.1177C228.723 75.1057 231.243 77.4592 234.973 78.6926C243.352 81.4488 251.032 76.2762 252.053 75.5651H252.066Z" fill="#0A5877"/>
<path d="M239.724 66.5219C239.617 64.3509 240.959 62.3687 242.987 61.6702C245.092 60.9465 247.461 61.7709 248.677 63.6776C248.242 63.4762 245.961 62.4631 243.328 63.4447C241.078 64.2754 240.007 66.0248 239.724 66.5219Z" fill="#0C0C0D"/>
<path d="M240.114 66.521C240.045 64.5451 241.235 62.6573 243.151 62.028C245.066 61.3987 247.221 62.1853 248.336 63.8718L248.878 63.3306C247.126 62.5188 245.047 62.3804 243.226 63.0537C241.613 63.6515 240.24 64.822 239.389 66.3134C239.137 66.7539 239.818 67.1503 240.07 66.7098C241.733 63.8089 245.431 62.5943 248.487 64.0039C248.815 64.155 249.262 63.8277 249.029 63.4628C247.731 61.4868 245.236 60.5051 242.955 61.254C240.719 61.9902 239.257 64.1675 239.339 66.5022C239.358 67.0056 240.145 67.0119 240.127 66.5022L240.114 66.521Z" fill="#0C0C0D"/>
<path d="M270.095 55.7758C269.988 53.6048 271.33 51.6226 273.359 50.9241C275.463 50.2004 277.832 51.0248 279.048 52.9315C278.613 52.7301 276.333 51.717 273.699 52.6986C271.45 53.5293 270.379 55.2787 270.095 55.7758Z" fill="#0C0C0D"/>
<path d="M270.486 55.775C270.416 53.799 271.607 51.9112 273.522 51.2819C275.438 50.6526 277.592 51.4392 278.707 53.1257L279.249 52.5845C277.498 51.7727 275.419 51.6343 273.598 52.3076C271.985 52.9054 270.612 54.0759 269.761 55.5673C269.509 56.0078 270.189 56.4042 270.441 55.9637C272.105 53.0628 275.803 51.8483 278.859 53.2578C279.186 53.4089 279.634 53.0816 279.4 52.7167C278.103 50.7407 275.608 49.7591 273.327 50.5079C271.046 51.2567 269.629 53.4215 269.711 55.7561C269.729 56.2595 270.517 56.2658 270.498 55.7561L270.486 55.775Z" fill="#0C0C0D"/>
<path d="M240.964 42.131C236.214 40.218 234.053 37.6065 232.994 35.8508C231.476 33.3337 231.054 30.6089 230.455 26.8836C229.87 23.2463 229.882 20.5404 228.112 17.0228C227.551 15.9027 226.814 14.6756 225.56 14.3924C224.275 14.1029 222.964 14.9021 222.385 15.4496C219.43 18.2373 222.423 27.0535 225.661 32.4024C229.429 38.6196 234.784 42.238 238.778 44.2705C239.112 43.9874 239.452 43.6727 239.799 43.3392C240.221 42.9302 240.612 42.5274 240.964 42.1373V42.131Z" fill="#FFD037" stroke="#0C0C0D" stroke-width="2" stroke-miterlimit="10"/>
<path d="M266.607 34.3342C269.429 31.6661 270.784 28.9916 271.458 27.3303C273.247 22.9065 274.3 15.4495 270.721 9.95595C269.07 7.42625 266.733 5.75866 267.243 3.46808C267.483 2.41719 268.289 1.36 269.329 1.07682C272.069 0.327983 275.32 5.2867 275.679 5.84046C278.974 10.8747 278.464 16.513 278.313 17.9918C277.55 25.2663 273.594 30.1117 270.633 33.6672C270.343 34.0196 269.908 34.5293 269.354 35.1334C268.944 35.0012 268.522 34.8691 268.087 34.7432C267.583 34.5985 267.086 34.4601 266.601 34.3342H266.607Z" fill="#FFD037" stroke="#0C0C0D" stroke-width="2" stroke-miterlimit="10"/>
<path d="M222.486 24.6562C223.104 27.1356 224.401 30.9805 227.287 34.9198C231.307 40.4008 236.246 43.0941 238.785 44.2646C239.459 43.6101 240.133 42.962 240.807 42.3075C238.886 41.6531 236.177 40.4952 233.348 38.4312C230.343 36.235 228.547 33.9885 227.161 32.2328C225.775 30.4708 224.036 27.9537 222.486 24.6562Z" fill="#F18300"/>
<path d="M267.235 33.8991C268.564 32.4769 270.247 30.3059 271.456 27.3231C274.084 20.8541 272.729 14.9389 272.105 12.749C272.931 13.8628 274.153 15.8262 274.669 18.5132C275.344 22.0372 274.43 24.8375 273.643 27.2476C273.019 29.1543 271.784 32.1497 269.257 35.2898C268.583 34.8241 267.909 34.3647 267.235 33.8991Z" fill="#F18300"/>
<path d="M240.964 42.131C236.214 40.218 234.053 37.6065 232.994 35.8508C231.476 33.3337 231.054 30.6089 230.455 26.8836C229.87 23.2463 229.882 20.5404 228.112 17.0228C227.551 15.9027 226.814 14.6756 225.56 14.3924C224.275 14.1029 222.964 14.9021 222.385 15.4496C219.43 18.2373 222.423 27.0535 225.661 32.4024C229.429 38.6196 234.784 42.238 238.778 44.2705C239.112 43.9874 239.452 43.6727 239.799 43.3392C240.221 42.9302 240.612 42.5274 240.964 42.1373V42.131Z" stroke="#0C0C0D" stroke-width="2" stroke-miterlimit="10"/>
<path d="M266.607 34.3342C269.429 31.6661 270.784 28.9916 271.458 27.3303C273.247 22.9065 274.3 15.4495 270.721 9.95595C269.07 7.42625 266.733 5.75866 267.243 3.46808C267.483 2.41719 268.289 1.36 269.329 1.07682C272.069 0.327983 275.32 5.2867 275.679 5.84046C278.974 10.8747 278.464 16.513 278.313 17.9918C277.55 25.2663 273.594 30.1117 270.633 33.6672C270.343 34.0196 269.908 34.5293 269.354 35.1334C268.944 35.0012 268.522 34.8691 268.087 34.7432C267.583 34.5985 267.086 34.4601 266.601 34.3342H266.607Z" stroke="#0C0C0D" stroke-width="2" stroke-miterlimit="10"/>
<path d="M196.705 128.133C192.988 129.417 189.27 127.189 188.546 126.755C182.699 123.25 180.841 114.931 182.605 108.525C182.869 107.575 185.364 99.0228 193.158 97.072C197.058 96.0966 202.835 96.6315 205.393 100.344C207.251 103.038 206.382 106.505 204.561 113.326C202.406 121.413 201.02 126.642 196.705 128.133Z" fill="#FFD037"/>
<path d="M199.333 100.231C199.642 99.079 200.543 95.6935 198.659 92.8932C196.101 89.0798 190.538 89.5203 189.605 89.5958C188.893 89.6525 183.815 90.1433 180.741 94.5986C180.539 94.8881 176.589 100.816 179.689 105.756C182.039 109.5 186.65 109.84 187.243 109.871C193.083 110.205 198.016 105.164 199.333 100.224V100.231Z" fill="#FFD037"/>
<path d="M195.426 93.2588C195.974 92.7805 197.726 91.2073 198.098 88.6084C198.198 87.9162 198.564 85.3739 196.875 83.6749C195.495 82.2842 193.586 82.2905 192.61 82.2967C192.119 82.2967 187.784 82.3848 185.642 85.9277C184.016 88.6147 183.884 92.9064 186.499 94.876C189.359 97.0345 193.536 94.9138 195.432 93.2588H195.426Z" fill="#FFD037"/>
<path d="M193.903 128.517C193.241 126.321 192.397 122.401 193.191 117.65C193.468 115.988 194.224 111.747 197.374 107.695C198.175 106.663 199.693 104.762 202.364 103.239C203.832 102.402 205.187 101.943 206.176 101.685C205.785 100.993 205.212 100.282 204.355 99.9607C200.789 98.6392 194.218 104.787 191.792 111.483C191.471 112.364 189.045 119.387 192.41 126.107C192.933 127.146 193.481 127.964 193.897 128.524L193.903 128.517Z" fill="#F18300"/>
<path d="M199.927 96.9838C199.908 96.1091 199.713 95.2155 199.102 94.5611C196.897 92.195 190.174 93.9066 186.432 97.6068C182.406 101.584 182.538 107.166 182.608 108.531C182.91 107.159 184.088 102.654 188.303 99.5135C191.277 97.2984 194.314 96.8453 194.944 96.7572C197.054 96.4741 198.812 96.7321 199.933 96.9901L199.927 96.9838Z" fill="#F18300"/>
<path d="M197.153 91.2322C197.286 91.056 197.456 90.7791 197.582 90.4078C197.664 90.1561 197.714 89.9044 197.727 89.7408C197.764 88.9731 196.99 88.2997 196.763 88.111C195.465 86.9908 191.061 85.9651 187.4 88.306C186.714 88.7465 185.617 89.5835 184.666 91.0749C185.781 90.4833 188.528 89.2248 192.113 89.5961C194.4 89.8352 196.133 90.647 197.153 91.2322Z" fill="#F18300"/>
<path d="M193.902 128.517C192.353 128.272 188.818 127.498 185.907 124.578C181.044 119.701 181.888 112.829 182.121 110.948C182.348 109.123 183.009 104.34 187.01 100.602C187.785 99.8723 190.563 97.3489 194.936 96.7511C196.423 96.5498 200.259 96.0212 203.466 98.4502C204.752 99.4256 205.52 100.558 205.968 101.345" stroke="#0C0C0D" stroke-width="2" stroke-miterlimit="10"/>
<path d="M182.322 108.349C181.314 107.651 179.941 106.461 179.147 104.611C177.232 100.156 179.771 94.5367 183.633 91.7301C187.192 89.1437 191.136 89.4961 192.113 89.6031C193.72 89.773 196.347 90.0499 198.199 92.2272C199.724 94.0206 199.9 96.1224 199.919 96.9845" stroke="#0C0C0D" stroke-width="2" stroke-miterlimit="10"/>
<path d="M197.405 90.7865C197.544 90.5663 199.087 88.0995 197.966 85.5698C196.851 83.059 194.041 82.5996 193.253 82.4675C190.481 82.0081 187.533 83.2541 185.869 85.5761C184.376 87.659 184.433 89.9055 184.483 90.6418" stroke="#0C0C0D" stroke-width="2" stroke-miterlimit="10"/>
<path d="M135.509 98.249H66.7789C65.3871 98.249 64.2588 99.376 64.2588 100.766V169.414C64.2588 170.804 65.3871 171.931 66.7789 171.931H135.509C136.901 171.931 138.029 170.804 138.029 169.414V100.766C138.029 99.376 136.901 98.249 135.509 98.249Z" fill="#242038" stroke="#0C0C0D" stroke-width="2" stroke-miterlimit="10"/>
<path d="M113.489 98.249H44.7594C43.3676 98.249 42.2393 99.376 42.2393 100.766V169.414C42.2393 170.804 43.3676 171.931 44.7594 171.931H113.489C114.881 171.931 116.009 170.804 116.009 169.414V100.766C116.009 99.376 114.881 98.249 113.489 98.249Z" fill="#725AC0" stroke="#0C0C0D" stroke-width="2" stroke-miterlimit="10"/>
<path d="M105.01 106.721H53.2406C51.8488 106.721 50.7205 107.848 50.7205 109.238V160.946C50.7205 162.336 51.8488 163.463 53.2406 163.463H105.01C106.402 163.463 107.53 162.336 107.53 160.946V109.238C107.53 107.848 106.402 106.721 105.01 106.721Z" stroke="#0C0C0D" stroke-width="2" stroke-miterlimit="10"/>
<path d="M85.2589 135.551L89.9329 130.835C89.9336 130.834 89.9343 130.833 89.935 130.833C91.1595 129.608 92.099 128.275 92.099 126.901C92.099 125.502 91.1704 124.155 89.9329 122.917C88.7074 121.692 87.3735 120.751 85.999 120.751C84.6245 120.751 83.2907 121.692 82.0651 122.917L82.0651 122.917L82.0572 122.925L77.445 127.621L72.7869 122.921L72.7869 122.921L72.7829 122.917C71.5574 121.692 70.2235 120.751 68.849 120.751C68.1437 120.751 67.4666 121.011 66.8512 121.374C66.2279 121.742 65.586 122.264 64.9273 122.905L64.9212 122.911L64.9151 122.917C63.6777 124.155 62.749 125.502 62.749 126.901C62.749 128.275 63.6886 129.608 64.9131 130.833C64.9138 130.833 64.9144 130.834 64.9151 130.835L69.5891 135.551L64.9151 140.267C64.9144 140.268 64.9137 140.269 64.913 140.269C63.6766 141.506 62.749 142.852 62.749 144.251C62.749 145.625 63.6896 146.959 64.9151 148.185L64.9274 148.197L64.94 148.209C65.5994 148.833 66.2417 149.34 66.8644 149.698C67.4799 150.051 68.1523 150.301 68.849 150.301C70.2235 150.301 71.5574 149.36 72.7829 148.135L77.445 143.473L82.0611 148.131L82.0651 148.135C83.2907 149.36 84.6245 150.301 85.999 150.301C87.3599 150.301 88.69 149.393 89.9204 148.197L89.9267 148.191L89.9329 148.185C91.1584 146.959 92.099 145.625 92.099 144.251C92.099 142.852 91.1713 141.506 89.9348 140.269C89.9342 140.268 89.9335 140.268 89.9329 140.267L85.2589 135.551Z" fill="white" stroke="#0C0C0D" stroke-width="2.5"/>
<path d="M222.933 98.249H154.203C152.811 98.249 151.683 99.376 151.683 100.766V169.414C151.683 170.804 152.811 171.931 154.203 171.931H222.933C224.325 171.931 225.453 170.804 225.453 169.414V100.766C225.453 99.376 224.325 98.249 222.933 98.249Z" fill="#242038" stroke="#0C0C0D" stroke-width="2" stroke-miterlimit="10"/>
<path d="M200.913 98.249H132.183C130.792 98.249 129.663 99.376 129.663 100.766V169.414C129.663 170.804 130.792 171.931 132.183 171.931H200.913C202.305 171.931 203.434 170.804 203.434 169.414V100.766C203.434 99.376 202.305 98.249 200.913 98.249Z" fill="#725AC0" stroke="#0C0C0D" stroke-width="2" stroke-miterlimit="10"/>
<path d="M192.434 106.721H140.665C139.273 106.721 138.145 107.848 138.145 109.238V160.946C138.145 162.336 139.273 163.463 140.665 163.463H192.434C193.826 163.463 194.954 162.336 194.954 160.946V109.238C194.954 107.848 193.826 106.721 192.434 106.721Z" stroke="#0C0C0D" stroke-width="2" stroke-miterlimit="10"/>
<path d="M179.542 24.5664H110.812C109.42 24.5664 108.292 25.6934 108.292 27.0835V95.7315C108.292 97.1217 109.42 98.2486 110.812 98.2486H179.542C180.934 98.2486 182.062 97.1217 182.062 95.7315V27.0835C182.062 25.6934 180.934 24.5664 179.542 24.5664Z" fill="#242038" stroke="#0C0C0D" stroke-width="2" stroke-miterlimit="10"/>
<path d="M157.523 24.5664H88.7927C87.4009 24.5664 86.2726 25.6934 86.2726 27.0835V95.7315C86.2726 97.1217 87.4009 98.2486 88.7927 98.2486H157.523C158.914 98.2486 160.043 97.1217 160.043 95.7315V27.0835C160.043 25.6934 158.914 24.5664 157.523 24.5664Z" fill="#725AC0" stroke="#0C0C0D" stroke-width="2" stroke-miterlimit="10"/>
<path d="M149.043 33.0381H97.2739C95.8821 33.0381 94.7538 34.165 94.7538 35.5552V87.263C94.7538 88.6532 95.8821 89.7801 97.2739 89.7801H149.043C150.435 89.7801 151.564 88.6532 151.564 87.263V35.5552C151.564 34.165 150.435 33.0381 149.043 33.0381Z" stroke="#0C0C0D" stroke-width="2" stroke-miterlimit="10"/>
<path d="M153.727 154.789C152.357 154.789 151.234 154.284 150.363 153.272C149.487 152.261 149.052 151.002 149.052 149.497L148.999 141.84C148.999 140.023 149.417 138.618 150.257 137.624C151.098 136.63 152.233 136.065 153.674 135.93V135.418C152.304 135.348 151.21 134.836 150.387 133.878C149.564 132.919 149.152 131.567 149.152 129.82L149.099 123.293C149.099 121.787 149.534 120.529 150.41 119.517C151.287 118.506 152.404 118 153.774 118H181.113C182.483 118 183.607 118.506 184.483 119.517C185.359 120.529 185.794 121.787 185.794 123.293L185.741 129.82C185.741 131.567 185.33 132.919 184.506 133.878C183.683 134.836 182.589 135.354 181.219 135.418V135.93C182.66 136.065 183.795 136.63 184.636 137.624C185.477 138.618 185.894 140.023 185.894 141.84L185.841 149.497C185.841 151.002 185.406 152.266 184.53 153.272C183.654 154.284 182.536 154.789 181.166 154.789H153.721H153.727ZM166.265 147.239H168.629C169.452 147.239 170.005 146.915 170.299 146.262C170.587 145.61 170.734 144.757 170.734 143.693C170.734 142.563 170.587 141.687 170.299 141.07C170.005 140.452 169.452 140.146 168.629 140.146H166.265C165.441 140.146 164.883 140.452 164.594 141.07C164.3 141.687 164.159 142.558 164.159 143.693C164.159 144.757 164.306 145.61 164.594 146.262C164.883 146.915 165.441 147.239 166.265 147.239ZM166.265 132.078H168.629C169.346 132.078 169.852 131.778 170.146 131.179C170.434 130.579 170.581 129.785 170.581 128.791C170.581 127.727 170.434 126.921 170.146 126.374C169.852 125.827 169.352 125.551 168.629 125.551H166.265C165.547 125.551 165.041 125.827 164.747 126.374C164.453 126.921 164.312 127.727 164.312 128.791C164.312 129.785 164.459 130.585 164.747 131.179C165.036 131.778 165.541 132.078 166.265 132.078Z" fill="white" stroke="#0C0C0D" stroke-width="2.46479" stroke-miterlimit="10"/>
<path d="M109.904 79.7952L121.672 53.5852H107.999L108.052 43H140.278V51.4799L127.74 79.7952H109.904Z" fill="white" stroke="#0C0C0D" stroke-width="2.46479" stroke-miterlimit="10"/>
</svg>
