<svg width="268" height="186" viewBox="0 0 268 186" fill="none" xmlns="http://www.w3.org/2000/svg">
<path d="M97.7942 93.9561L71.3289 79.4649L73.0088 109.593L57.3334 83.8106L43.7289 110.744L43.0405 80.5774L17.7924 97.1011L32.2781 70.6302L2.15005 72.3156L27.9324 56.6347L0.998901 43.0303L31.171 42.3418L14.6474 17.0937L41.1127 31.5849L39.4328 1.45681L55.1082 27.2392L68.7126 0.305664L69.4011 30.4723L94.6492 13.9487L80.1635 40.4195L110.292 38.7341L84.5092 54.4095L111.443 68.0195L81.2706 68.7025L97.7942 93.9561Z" fill="#FFDABA"/>
<path d="M209.825 137.976L198.936 132.016L199.63 144.409L193.18 133.801L187.578 144.883L187.298 132.473L176.91 139.27L182.875 128.381L170.476 129.075L181.085 122.625L170.003 117.024L182.418 116.743L175.621 106.355L186.504 112.32L185.816 99.9219L192.266 110.53L197.862 99.4482L198.142 111.863L208.53 105.066L202.571 115.95L214.964 115.261L204.355 121.711L215.437 127.307L203.028 127.588L209.825 137.976Z" fill="#FFDABA"/>
<path d="M134.003 185C207.456 185 267.001 180.938 267.001 175.928C267.001 170.918 207.456 166.857 134.003 166.857C60.5497 166.857 1.00427 170.918 1.00427 175.928C1.00427 180.938 60.5497 185 134.003 185Z" fill="#FFDABA" stroke="#832706" stroke-width="0.833716" stroke-miterlimit="10"/>
<path d="M246.107 128.449C246.344 129.568 249.065 143.326 239.657 152.491C233.962 158.038 227.011 158.803 224.378 159.051C222.968 159.183 209.915 160.208 201.289 150.294C199.34 148.052 194.68 141.878 195.082 133.429C195.253 129.893 196.255 127.089 197.043 125.332" fill="#FFD037"/>
<path d="M239.66 152.492C239.362 154.849 238.14 162.131 231.987 168.085C224.271 175.554 214.511 175.405 211.305 175.168C208.507 174.964 196.208 173.626 190.706 163.48C189.67 161.569 186.641 155.219 189.032 147.877C190.618 143.008 193.812 140.072 195.321 138.849" fill="#FFD037"/>
<path d="M203.054 173.891C193.167 176.7 183.005 173.357 177.955 165.905C172.171 157.379 173.78 144.512 179.993 140.282C181.865 139.005 186.497 136.923 190.606 138.74C191.802 139.269 192.655 140.002 193.201 140.552" fill="#FFD037"/>
<path d="M176.993 164.314C176.089 163.906 167.26 159.72 165.597 150.285C164.495 144.039 166.55 135.629 172.807 132.528C175.5 131.195 179.455 130.594 183.222 132.263C187.155 133.998 188.901 137.325 189.374 138.322" fill="#FFD037"/>
<path d="M135.127 110.948C136.229 103.265 141.439 97.8448 146.996 97.5034C147.31 97.4813 153.474 97.2114 156.36 102.158C158.128 105.187 158.023 109.07 156.117 112.292" fill="#FFD037"/>
<path d="M153.925 99.5387C152.89 94.097 148.924 90.0487 144.275 89.4428C141.031 89.0187 136.79 90.1864 134.67 93.5241C134.35 94.0309 132.533 96.8895 133.673 100.205C134.576 102.827 136.746 104.061 137.319 104.364" fill="#FFD037"/>
<path d="M241.714 99.911C243.295 101.839 245.542 105.055 246.991 109.517C247.812 112.039 250.334 119.805 247.178 126.547C242.254 137.073 226.887 137.849 223.709 138.009C220.889 138.152 204.454 138.984 198.241 128.266C194.275 121.425 196.33 113.069 197.09 109.968C198.307 105.022 200.494 101.36 202.074 99.1289" fill="#FFD037"/>
<path d="M241.049 99.7509C237.943 102.499 234.302 104.097 233.245 104.543C228.712 106.449 224.851 106.757 223.452 106.834C217.167 107.17 212.238 105.336 209.638 104.124C207.093 102.934 202.995 100.963 199.663 96.4627C195.086 90.2829 195.114 83.6129 195.218 81.4813C195.422 77.3559 196.711 74.2605 197.482 72.4484C199.289 68.2183 201.635 65.4479 202.527 64.4565C208.189 58.1279 215.184 56.2332 216.842 55.8201C219.288 55.2142 227.23 53.3746 235.552 57.5937C247.29 63.5422 249.344 76.2488 249.432 76.8657C250.87 86.8239 246.094 95.2951 241.049 99.7509Z" fill="#FFD037"/>
<path d="M134.504 101.868C133.964 102.05 133.089 102.265 132.042 102.144C130.181 101.934 127.862 100.695 127.217 98.3926C126.518 95.8921 128.264 93.7825 128.649 93.3199C130.026 91.6565 131.838 91.1828 132.841 90.924C134.917 90.3842 136.674 90.6816 137.583 90.9019" fill="#FFD037"/>
<path d="M226.36 92.9951C225.567 93.7221 224.443 94.2949 223.275 94.4216C222.576 94.4987 221.871 94.4436 221.193 94.2564C220.929 94.1848 220.67 94.0966 220.422 93.992C220.516 94.0305 220.318 93.9424 220.274 93.9204C220.197 93.8818 220.125 93.8488 220.053 93.8102C219.271 93.3971 218.572 94.5868 219.359 94.9999C221.965 96.3714 225.17 95.9583 227.335 93.9644C227.99 93.3641 227.01 92.3892 226.36 92.9895V92.9951Z" fill="#0D0C0C"/>
<path d="M236.772 81.5874C240.146 80.8145 242.082 76.6954 241.095 72.3871C240.108 68.0787 236.573 65.2126 233.199 65.9854C229.824 66.7583 227.889 70.8774 228.876 75.1857C229.862 79.4941 233.398 82.3602 236.772 81.5874Z" fill="#0D0C0C"/>
<path d="M231.323 73.7509C232.04 73.5865 232.452 72.7105 232.242 71.7943C232.032 70.8781 231.28 70.2686 230.563 70.4329C229.845 70.5972 229.434 71.4732 229.644 72.3894C229.853 73.3057 230.605 73.9152 231.323 73.7509Z" fill="white" stroke="#0D0C0C" stroke-width="0.833716" stroke-miterlimit="10"/>
<path d="M209.838 86.2539C213.212 85.481 215.147 81.3619 214.161 77.0536C213.174 72.7452 209.639 69.8791 206.264 70.6519C202.89 71.4248 200.954 75.5439 201.941 79.8522C202.928 84.1606 206.463 87.0267 209.838 86.2539Z" fill="#0D0C0C"/>
<path d="M205.069 76.6527C205.787 76.4884 206.198 75.6124 205.989 74.6962C205.779 73.7799 205.027 73.1704 204.309 73.3348C203.592 73.4991 203.18 74.3751 203.39 75.2913C203.6 76.2075 204.352 76.817 205.069 76.6527Z" fill="white" stroke="#0D0C0C" stroke-width="0.833716" stroke-miterlimit="10"/>
<path d="M197.045 125.337C197.705 127.105 199.082 130.041 201.936 132.58C204.998 135.301 208.176 136.149 211.315 136.987C216.361 138.336 220.464 138.165 223.714 138C227.354 137.818 230.698 137.653 234.702 136.182C237.224 135.257 241.735 133.186 246.109 128.449L246.555 131.787C243.652 135.979 240.496 138.534 238.095 140.087C223.372 149.649 204.998 142.538 198.906 137.532C197.667 136.513 195.458 134.646 195.073 131.677C194.687 128.714 196.329 126.274 197.045 125.337Z" fill="#F18300"/>
<path d="M239.661 152.494C239.518 153.342 239.38 154.19 239.237 155.039C238.102 156.647 236.109 159.076 232.997 161.075C221.964 168.164 205.457 164.347 197.388 155.352C195.94 153.739 190.696 147.895 192.519 142.58C193.125 140.817 194.337 139.605 195.317 138.84C195.868 141.115 197.08 144.838 199.927 148.589C200.418 149.233 204.945 155.044 212.639 157.666C226.106 162.254 238.438 153.392 239.656 152.488L239.661 152.494Z" fill="#F18300"/>
<path d="M203.056 173.893C201.508 174.108 199.228 174.218 196.672 173.529C187.992 171.2 182.44 161.374 182.401 152.765C182.401 151.575 182.467 142.151 188.014 139.441C189.005 138.957 189.942 138.797 190.602 138.742C191.467 139.348 192.332 139.953 193.197 140.554C192.222 141.661 190.927 143.363 189.897 145.687C189.286 147.07 187.937 150.529 188.201 155.017C188.625 162.26 192.943 166.948 194.122 168.187C197.322 171.558 200.891 173.144 203.061 173.887L203.056 173.893Z" fill="#F18300"/>
<path d="M176.99 164.313C172.342 154.376 174.181 144.341 179.992 140.282C181.017 139.566 184.063 137.71 189.372 138.315C189.058 137.357 188.21 135.231 186.189 134.262C182.642 132.56 178.467 135.848 177.398 136.685C172.551 140.497 171.824 146.517 171.648 147.971C170.618 156.513 175.795 162.908 176.99 164.313Z" fill="#F18300"/>
<path d="M241.048 99.7493C241.246 100.069 241.444 100.388 241.642 100.702C240.376 102.657 238.134 105.582 234.51 108.028C225.824 113.899 216.251 112.296 213.894 111.9C212.622 111.685 207.747 110.776 202.426 107.565C200.972 106.689 199.821 105.841 199.012 105.202C199.375 104.145 199.86 102.949 200.521 101.683C201.027 100.713 201.562 99.8539 202.068 99.1104C203.721 100.631 210.622 106.618 221.302 106.838C232.147 107.064 239.368 101.181 241.042 99.7438L241.048 99.7493Z" fill="#F18300"/>
<path d="M235.551 57.5968C232.786 56.8643 228.098 55.9885 222.409 56.8037C220.729 57.0406 212.798 58.3074 205.296 64.68C199.992 69.1854 197.232 74.2692 195.866 77.3426C196.351 75.2551 198.808 65.6824 208.199 59.5742C209.84 58.5056 217.149 53.9947 226.909 55.1238C230.649 55.5589 233.612 56.688 235.551 57.6024V57.5968Z" fill="#F18300"/>
<path d="M156.117 112.282C157.957 109.721 157.77 107.898 157.616 107.165C156.745 103.04 150.042 100.798 144.992 101.801C138.079 103.172 135.325 110.393 135.127 110.938C135.661 110.222 138.856 106.119 144.358 105.662C145.256 105.584 148.318 105.375 151.496 107.259C154.316 108.928 155.638 111.307 156.117 112.282Z" fill="#F18300"/>
<path d="M153.923 99.5409C153.901 99.2049 153.829 98.7423 153.62 98.2356C152.441 95.4155 148.062 94.2974 144.917 94.6224C139.332 95.2007 134.573 100.67 135.46 103.011C135.769 103.821 136.727 104.195 137.311 104.371C137.487 103.936 139.641 98.8304 145.187 97.6407C149.814 96.6493 153.355 99.1333 153.917 99.5409H153.923Z" fill="#F18300"/>
<path d="M134.505 101.869C133.756 100.888 133.442 99.9738 133.293 99.3129C132.307 94.7964 136.901 90.9795 137.121 90.8032C136.213 91.0235 134.356 91.6184 132.809 93.2928C132.561 93.5627 130.297 96.0908 130.683 99.3514C130.782 100.189 130.953 101.621 132.038 102.149C133.079 102.651 134.285 101.995 134.5 101.874L134.505 101.869Z" fill="#F18300"/>
<path d="M200.643 110.852C200.092 113.093 200.169 114.949 200.312 116.112C200.598 118.485 200.896 120.903 202.488 121.774C203.105 122.11 204.228 122.385 205.165 123.536C205.33 123.74 205.451 123.922 205.523 124.037C203.292 127.364 201.931 127.249 201.573 127.177C200.059 126.879 199.585 124.115 198.632 118.585C198.103 115.511 198.092 113.749 199.122 112.273C199.613 111.568 200.213 111.121 200.648 110.852H200.643Z" fill="#F18300"/>
<path d="M246.107 128.449C246.344 129.568 249.065 143.326 239.657 152.491C233.962 158.038 227.011 158.803 224.378 159.051C222.968 159.183 209.915 160.208 201.289 150.294C199.34 148.052 194.68 141.878 195.082 133.429C195.253 129.893 196.255 127.089 197.043 125.332" stroke="#0D0C0C" stroke-width="1.66743" stroke-miterlimit="10"/>
<path d="M239.658 152.492C239.383 154.767 238.11 162.891 231.115 169.186C221.19 178.115 208.533 175.454 207.217 175.157C205.08 174.672 195.446 172.469 190.704 163.48C189.983 162.114 186.535 155.566 189.03 147.877C190.6 143.041 193.772 140.105 195.32 138.849" stroke="#0D0C0C" stroke-width="1.66743" stroke-miterlimit="10"/>
<path d="M203.054 173.891C193.167 176.7 183.005 173.357 177.955 165.905C172.171 157.379 173.78 144.512 179.993 140.282C181.865 139.005 186.497 136.923 190.606 138.74C191.802 139.269 192.655 140.002 193.201 140.552" stroke="#0D0C0C" stroke-width="1.66743" stroke-miterlimit="10"/>
<path d="M176.993 164.314C176.089 163.906 167.26 159.72 165.597 150.285C164.495 144.039 166.55 135.629 172.807 132.528C175.5 131.195 179.455 130.594 183.222 132.263C187.155 133.998 188.901 137.325 189.374 138.322" stroke="#0D0C0C" stroke-width="1.66743" stroke-miterlimit="10"/>
<path d="M135.127 110.948C136.229 103.265 141.439 97.8448 146.996 97.5034C147.31 97.4813 153.474 97.2114 156.36 102.158C158.128 105.187 158.023 109.07 156.117 112.292" stroke="#0D0C0C" stroke-width="1.66743" stroke-miterlimit="10"/>
<path d="M153.925 99.5387C152.89 94.097 148.924 90.0487 144.275 89.4428C141.031 89.0187 136.79 90.1864 134.67 93.5241C134.35 94.0309 132.533 96.8895 133.673 100.205C134.576 102.827 136.746 104.061 137.319 104.364" stroke="#0D0C0C" stroke-width="1.66743" stroke-miterlimit="10"/>
<path d="M241.714 99.911C243.295 101.839 245.542 105.055 246.991 109.517C247.812 112.039 250.334 119.805 247.178 126.547C242.254 137.073 226.887 137.849 223.709 138.009C220.889 138.152 204.454 138.984 198.241 128.266C194.275 121.425 196.33 113.069 197.09 109.968C198.307 105.022 200.494 101.36 202.074 99.1289" stroke="#0D0C0C" stroke-width="1.66743" stroke-miterlimit="10"/>
<path d="M241.049 99.7509C237.943 102.499 234.302 104.097 233.245 104.543C228.712 106.449 224.851 106.757 223.452 106.834C217.167 107.17 212.238 105.336 209.638 104.124C207.093 102.934 202.995 100.963 199.663 96.4627C195.086 90.2829 195.114 83.6129 195.218 81.4813C195.422 77.3559 196.711 74.2605 197.482 72.4484C199.289 68.2183 201.635 65.4479 202.527 64.4565C208.189 58.1279 215.184 56.2332 216.842 55.8201C219.288 55.2142 227.23 53.3746 235.552 57.5937C247.29 63.5422 249.344 76.2488 249.432 76.8657C250.87 86.8239 246.094 95.2951 241.049 99.7509Z" stroke="#0D0C0C" stroke-width="1.66743" stroke-miterlimit="10"/>
<path d="M134.504 101.868C133.964 102.05 133.089 102.265 132.042 102.144C130.181 101.934 127.862 100.695 127.217 98.3926C126.518 95.8921 128.264 93.7825 128.649 93.3199C130.026 91.6565 131.838 91.1828 132.841 90.924C134.917 90.3842 136.674 90.6816 137.583 90.9019" stroke="#0D0C0C" stroke-width="1.66743" stroke-miterlimit="10"/>
<path d="M200.645 110.851C198.094 112.112 198.535 117.466 198.684 119.311C198.827 121.079 199.295 126.741 201.564 127.171C203.459 127.529 205.541 124.065 206.185 122.935C206.632 122.159 210.283 115.604 207.452 112.503C206.141 111.066 203.778 110.752 203.332 110.691C202.335 110.559 201.443 110.444 200.639 110.846L200.645 110.851Z" stroke="#0D0C0C" stroke-width="1.66743" stroke-miterlimit="10"/>
<path d="M235.364 117.292C234.863 116.994 234.18 116.488 233.624 115.678C232.957 114.698 232.864 113.833 232.72 110.423C232.555 106.496 232.599 105.725 232.908 104.662C233.249 103.489 233.624 102.211 234.687 101.771C235.843 101.286 237.16 102.068 238.371 102.812C239.214 103.329 239.919 103.897 242.701 107.009C243.334 107.719 244.931 109.52 246.407 112.032C246.799 112.698 247.184 113.42 247.096 114.317C246.964 115.601 245.95 116.444 245.427 116.873C243.004 118.878 239.815 118.531 239.076 118.448C238.239 118.355 236.895 118.101 235.364 117.292Z" fill="#FFD037"/>
<path d="M246.942 113.298C246.187 112.274 243.329 113.772 241.318 113.81C239.198 113.849 236.251 112.29 232.566 105.345C232.677 108.203 232.787 111.062 232.897 113.926C233.266 114.752 234.296 116.757 236.56 117.925C240.035 119.715 243.797 118.178 245.422 116.873C245.923 116.471 246.986 115.617 247.091 114.317C247.118 113.981 247.151 113.596 246.936 113.304L246.942 113.298Z" fill="#F18300"/>
<path d="M235.364 117.292C234.863 116.994 234.18 116.488 233.624 115.678C232.957 114.698 232.864 113.833 232.72 110.423C232.555 106.496 232.599 105.725 232.908 104.662C233.249 103.489 233.624 102.211 234.687 101.771C235.843 101.286 237.16 102.068 238.371 102.812C239.214 103.329 239.919 103.897 242.701 107.009C243.334 107.719 244.931 109.52 246.407 112.032C246.799 112.698 247.184 113.42 247.096 114.317C246.964 115.601 245.95 116.444 245.427 116.873C243.004 118.878 239.815 118.531 239.076 118.448C238.239 118.355 236.895 118.101 235.364 117.292Z" stroke="#0D0C0C" stroke-width="1.66743" stroke-miterlimit="10"/>
<path d="M232.301 56.2314C232.714 55.6586 233.221 54.893 233.75 53.9566C234.317 52.9597 234.675 52.1776 234.956 51.5552C235.083 51.2798 235.622 50.0846 236.239 48.3331C236.762 46.8515 237.021 46.1134 237.192 45.2542C237.379 44.2958 237.605 43.0675 237.363 41.5143C237.181 40.3577 236.812 39.4764 236.559 38.8871C236.322 38.3363 236.041 37.8406 235.468 36.8436C234.68 35.4667 234.289 34.7837 233.689 33.952C232.813 32.7403 232.659 32.8064 232.169 31.9637C231.585 30.9612 231.111 30.1516 231.238 29.1381C231.392 27.9594 232.323 26.7863 233.524 26.4668C234.917 26.0923 236.129 27.0066 237.231 27.8328C239.147 29.2758 240.04 31.0494 240.706 32.3988C240.976 32.9496 242.017 35.1362 242.436 38.2922C242.496 38.7659 242.86 41.6741 242.265 44.7805C240.965 51.5387 235.771 55.8789 234.339 57.0135C233.662 56.7546 232.984 56.4902 232.307 56.2314H232.301Z" fill="#FFD037" stroke="#0D0C0C" stroke-width="1.66743" stroke-miterlimit="10"/>
<path d="M208.799 59.2394C209.246 57.2841 209.328 55.6318 209.317 54.4586C209.306 53.5167 209.201 49.7934 207.164 45.6735C205.935 43.184 204.911 42.3963 204.602 42.165C204.349 41.9832 202.823 40.8927 200.741 40.8101C196.671 40.6503 193.73 44.4453 191.692 47.067C191.692 47.067 190.271 48.8956 189.522 51.5559C189.373 52.0792 189.219 52.7566 189.379 53.5718C189.428 53.8142 189.676 55.0865 190.745 55.7309C190.91 55.83 191.268 56.0393 191.758 56.0559C192.314 56.0779 192.727 55.8466 193.025 55.6703C193.735 55.2627 194.143 54.7174 194.281 54.5247C195.883 52.3325 196.269 51.6716 196.269 51.6716C197.718 49.1765 198.858 47.5242 200.031 46.6759C200.813 46.1086 201.413 46.0425 201.804 46.0701C201.804 46.0701 202.168 46.0976 202.526 46.2573C203.49 46.6815 205.379 48.7579 206.475 52.6685C207.164 55.1305 207.164 56.9591 207.147 57.565C207.119 58.7933 206.954 59.8232 206.789 60.5833C207.461 60.1317 208.133 59.68 208.799 59.2284V59.2394Z" fill="#FFD037" stroke="#0D0C0C" stroke-width="1.66743" stroke-miterlimit="10"/>
<path d="M242.29 36.9937C242.632 38.8057 243.144 42.9036 241.431 47.6128C239.481 52.972 235.802 55.9463 234.331 57.0203C233.654 56.7614 232.977 56.497 232.299 56.2382C233.599 55.2412 235.24 53.7761 236.832 51.7493C237.675 50.6752 238.864 48.9898 239.905 46.7536C241.646 43.0248 242.164 39.5163 242.285 36.9937H242.29Z" fill="#F18300"/>
<path d="M208.799 59.2396C208.969 58.3418 209.184 56.9208 209.217 55.1693C209.267 52.7128 209.361 47.9925 206.43 44.104C205.555 42.9418 204.359 41.4106 202.261 40.9369C200.509 40.5459 199 41.0801 198.284 41.3996C199.116 41.2509 200.476 41.1407 201.875 41.7301C204.089 42.6664 205.009 44.7704 205.874 46.7477C207.301 50.0194 207.35 52.9496 207.361 54.9269C207.378 57.2898 207.069 59.2451 206.788 60.5835C207.46 60.1319 208.132 59.6802 208.799 59.2286V59.2396Z" fill="#F18300"/>
<path d="M232.303 56.2306C233.239 54.9197 234.522 52.8708 235.525 50.1554C236.852 46.5808 237.844 44.2895 237.359 41.5191C236.764 38.1097 234.17 34.6397 233.211 33.3564C232.159 31.9519 231.036 30.7401 231.24 29.1373C231.366 28.1404 232.005 27.0499 233.008 26.6203C234.357 26.0419 235.839 26.8736 236.478 27.2316C240.157 29.3026 243.798 37.0356 242.261 44.7797C240.922 51.5103 236.202 55.5752 234.335 57.0127C233.658 56.7538 232.98 56.4895 232.303 56.2306Z" stroke="#0D0C0C" stroke-width="1.66743" stroke-miterlimit="10"/>
<path d="M208.799 59.2363C209.157 57.7436 209.482 55.6231 209.234 53.1225C208.843 49.2009 206.805 42.0132 202.261 40.9336C196.015 39.452 187.786 50.1538 189.587 54.3398C189.863 54.9787 190.551 55.882 191.532 56.0307C195.233 56.6035 197.888 45.764 201.804 46.0669C204.145 46.2487 205.637 50.319 206.249 51.9989C207.598 55.6947 207.124 58.9994 206.788 60.5857C207.46 60.1341 208.132 59.6824 208.799 59.2308V59.2363Z" stroke="#0D0C0C" stroke-width="1.66743" stroke-miterlimit="10"/>
<path d="M218.939 73.9869L219.088 73.7886C219.32 73.4747 219.986 72.7311 221.126 72.5108C221.33 72.4722 221.534 72.4502 221.743 72.4502C222.597 72.4502 223.236 72.7807 223.544 72.9734L223.759 73.1111L224.205 76.3498L223.269 75.8761C223.015 75.7494 222.613 75.5952 222.101 75.5952C221.991 75.5952 221.875 75.6007 221.759 75.6172C221.027 75.7164 220.537 76.1019 220.311 76.3277L219.595 77.0217L218.95 73.9814L218.939 73.9869Z" fill="#077BB3"/>
<path d="M221.742 73.0006C222.535 73.0006 223.108 73.3476 223.246 73.4413L223.516 75.3856C223.306 75.2809 222.789 75.0496 222.095 75.0496C221.963 75.0496 221.825 75.0606 221.676 75.0771C220.712 75.2093 220.112 75.7491 219.914 75.9363C219.787 75.3305 219.655 74.7246 219.528 74.1187C219.649 73.9535 220.206 73.2485 221.23 73.0502C221.406 73.0172 221.582 73.0006 221.742 73.0006ZM221.742 71.8991C221.5 71.8991 221.258 71.9211 221.021 71.9652C219.688 72.2185 218.917 73.0943 218.647 73.4578L218.349 73.8599L218.454 74.3446L218.84 76.1622L219.253 78.112L220.685 76.7185C220.866 76.5422 221.252 76.2393 221.825 76.1622C221.913 76.1511 222.007 76.1456 222.095 76.1456C222.519 76.1456 222.855 76.2833 223.015 76.366L224.893 77.3133L224.606 75.2313L224.474 74.2564L224.342 73.2815L224.27 72.7803L223.841 72.5049C223.483 72.2736 222.739 71.8936 221.742 71.8936V71.8991Z" fill="#0D0C0C"/>
<path d="M204.693 93.8803C203.112 93.8803 201.537 93.6435 200.011 93.1753C191.623 90.5976 186.903 81.6749 189.48 73.2864C191.546 66.5668 197.659 62.0503 204.687 62.0503C206.268 62.0503 207.843 62.2871 209.369 62.7553C217.758 65.333 222.478 74.2557 219.9 82.6442C217.835 89.3639 211.721 93.8803 204.693 93.8803ZM204.687 64.9529C198.943 64.9529 193.947 68.6432 192.256 74.1401C191.237 77.4613 191.568 80.9809 193.198 84.0488C194.823 87.1221 197.549 89.3749 200.865 90.3938C202.11 90.7794 203.399 90.9721 204.687 90.9721C210.432 90.9721 215.422 87.2819 217.113 81.785C219.223 74.9277 215.362 67.6408 208.51 65.5313C207.265 65.1457 205.976 64.9529 204.682 64.9529H204.687Z" fill="#077BB3"/>
<path d="M204.687 62.6006C206.18 62.6006 207.706 62.8209 209.204 63.2836C217.311 65.7786 221.866 74.3764 219.371 82.484C217.339 89.088 211.258 93.3345 204.693 93.3345C203.2 93.3345 201.675 93.1142 200.176 92.6516C192.069 90.1565 187.514 81.5587 190.009 73.4511C192.041 66.8472 198.122 62.6006 204.687 62.6006ZM204.693 91.5225C210.487 91.5225 215.852 87.7716 217.647 81.9443C219.845 74.7895 215.835 67.1997 208.681 65.002C207.353 64.5944 206.015 64.4017 204.693 64.4017C198.899 64.4017 193.528 68.147 191.738 73.9744C189.541 81.1291 193.556 88.7189 200.711 90.9166C202.038 91.3242 203.376 91.5169 204.698 91.5169M204.687 61.499C197.417 61.499 191.094 66.1697 188.957 73.1261C187.662 77.3287 188.087 81.7845 190.147 85.6676C192.206 89.5561 195.654 92.4092 199.857 93.6981C201.432 94.1828 203.063 94.4306 204.698 94.4306C211.969 94.4306 218.292 89.7599 220.429 82.8035C221.723 78.601 221.299 74.1451 219.239 70.2621C217.179 66.3735 213.731 63.5204 209.529 62.2316C207.953 61.7469 206.323 61.499 204.687 61.499ZM204.693 90.4209C203.459 90.4209 202.225 90.2336 201.03 89.8701C197.852 88.8897 195.241 86.7361 193.688 83.7949C192.129 80.8537 191.81 77.4829 192.79 74.3048C194.41 69.0448 199.19 65.5088 204.693 65.5088C205.932 65.5088 207.16 65.696 208.356 66.0595C211.534 67.0344 214.139 69.1935 215.698 72.1347C217.256 75.0759 217.57 78.4468 216.595 81.6248C214.976 86.8848 210.195 90.4209 204.693 90.4209Z" fill="#0D0C0C"/>
<path d="M238.576 88.2269C236.996 88.2269 235.42 87.99 233.895 87.5218C229.835 86.2716 226.503 83.5176 224.509 79.7612C222.521 76.0049 222.113 71.6977 223.364 67.6384C225.429 60.9188 231.543 56.4023 238.571 56.4023C240.152 56.4023 241.727 56.6392 243.253 57.1074C251.641 59.685 256.361 68.6078 253.784 76.9963C251.718 83.7159 245.604 88.2324 238.576 88.2324V88.2269ZM238.571 59.2995C232.826 59.2995 227.83 62.9898 226.14 68.4866C225.121 71.8079 225.451 75.3274 227.076 78.3953C228.701 81.4632 231.427 83.7214 234.743 84.7404C235.988 85.1259 237.276 85.3187 238.565 85.3187C244.31 85.3187 249.3 81.6284 250.991 76.1316C253.101 69.2743 249.24 61.9873 242.388 59.8778C241.143 59.4923 239.854 59.2995 238.56 59.2995H238.571Z" fill="#077BB3"/>
<path d="M238.565 56.9473C240.058 56.9473 241.584 57.1676 243.082 57.6303C251.189 60.1253 255.744 68.7231 253.249 76.8307C251.217 83.4346 245.136 87.6812 238.571 87.6812C237.078 87.6812 235.553 87.4609 234.054 86.9982C225.947 84.5032 221.392 75.9054 223.887 67.7978C225.919 61.1938 232 56.9473 238.565 56.9473ZM238.571 85.8691C244.365 85.8691 249.73 82.1183 251.525 76.2909C253.723 69.1362 249.713 61.5464 242.559 59.3487C241.231 58.9411 239.893 58.7484 238.571 58.7484C232.777 58.7484 227.406 62.4937 225.616 68.321C223.419 75.4758 227.434 83.0656 234.589 85.2633C235.916 85.6709 237.254 85.8636 238.576 85.8636M238.565 55.8457C231.295 55.8457 224.972 60.5164 222.835 67.4728C221.541 71.6753 221.965 76.1312 224.025 80.0143C226.085 83.9028 229.532 86.7559 233.735 88.0447C235.31 88.5294 236.941 88.7773 238.576 88.7773C245.847 88.7773 252.17 84.1066 254.307 77.1502C255.601 72.9477 255.177 68.4918 253.117 64.6087C251.057 60.7202 247.609 57.8671 243.407 56.5782C241.832 56.0936 240.201 55.8457 238.565 55.8457ZM238.571 84.7676C237.337 84.7676 236.103 84.5803 234.908 84.2168C228.343 82.1954 224.647 75.2169 226.663 68.6515C228.282 63.3915 233.063 59.8554 238.565 59.8554C239.805 59.8554 241.033 60.0427 242.228 60.4062C248.788 62.4221 252.484 69.4061 250.468 75.9715C248.849 81.2315 244.068 84.7676 238.565 84.7676H238.571Z" fill="#0D0C0C"/>
<path d="M249.575 83.0343C248.606 84.0257 246.078 86.3445 242.029 87.2809C237.601 88.3053 234.037 87.0496 232.738 86.5208C231.493 86.0086 227.538 84.202 225.076 79.7131C223.159 76.2101 223.148 72.8943 223.231 71.4678C223.336 73.0816 223.804 76.8214 226.503 80.4401C227.356 81.5802 229.973 84.9841 234.693 86.2619C237.392 86.989 239.617 86.7081 240.988 86.5208C245.119 85.9535 248.077 84.1249 249.575 83.0398V83.0343Z" fill="#0A5877"/>
<path d="M213.703 90.4045C212.607 91.2087 210.327 92.6573 207.066 93.1695C205.986 93.3402 203.326 93.6377 200.17 92.6518C194.701 90.9443 192.024 86.7033 191.572 85.9707C189.49 82.5558 189.314 79.2401 189.325 77.7915C189.468 79.3337 190.003 82.7541 192.487 86.1304C193.214 87.1163 195.141 89.5068 198.275 91.0545C205.309 94.5189 212.712 90.9113 213.703 90.4101V90.4045Z" fill="#0A5877"/>
<path d="M75.4515 52.0259H35.569C34.3522 52.0259 33.3658 53.0123 33.3658 54.229V173.777C33.3658 174.994 34.3522 175.981 35.569 175.981H75.4515C76.6682 175.981 77.6546 174.994 77.6546 173.777V54.229C77.6546 53.0123 76.6682 52.0259 75.4515 52.0259Z" fill="#832706" stroke="#0D0C0C" stroke-width="1.66743" stroke-miterlimit="10"/>
<path d="M58.332 52.0259H24.4972C23.2804 52.0259 22.2941 53.0123 22.2941 54.229V173.777C22.2941 174.994 23.2804 175.981 24.4972 175.981H58.332C59.5488 175.981 60.5352 174.994 60.5352 173.777V54.229C60.5352 53.0123 59.5488 52.0259 58.332 52.0259Z" fill="#D86339" stroke="#0D0C0C" stroke-width="1.66743" stroke-miterlimit="10"/>
<path d="M52.264 58.4219H30.574C29.3572 58.4219 28.3708 59.4083 28.3708 60.625V167.39C28.3708 168.606 29.3572 169.593 30.574 169.593H52.264C53.4807 169.593 54.4671 168.606 54.4671 167.39V60.625C54.4671 59.4083 53.4807 58.4219 52.264 58.4219Z" stroke="#0D0C0C" stroke-width="1.66743" stroke-miterlimit="10"/>
<path d="M205.939 137.735H131.297C130.08 137.735 129.094 138.721 129.094 139.938V173.773C129.094 174.99 130.08 175.976 131.297 175.976H205.939C207.156 175.976 208.143 174.99 208.143 173.773V139.938C208.143 138.721 207.156 137.735 205.939 137.735Z" fill="#832706" stroke="#0D0C0C" stroke-width="1.66743" stroke-miterlimit="10"/>
<path d="M191.065 173.773V139.938C191.065 138.721 190.079 137.735 188.862 137.735H69.3138C68.097 137.735 67.1107 138.721 67.1107 139.938V173.773C67.1107 174.99 68.097 175.976 69.3138 175.976H188.862C190.079 175.976 191.065 174.99 191.065 173.773Z" fill="#D86339" stroke="#0D0C0C" stroke-width="1.66743" stroke-miterlimit="10"/>
<path d="M184.677 167.701V146.011C184.677 144.794 183.69 143.808 182.474 143.808H75.7091C74.4924 143.808 73.506 144.794 73.506 146.011V167.701C73.506 168.918 74.4924 169.904 75.7091 169.904H182.474C183.69 169.904 184.677 168.918 184.677 167.701Z" stroke="#0D0C0C" stroke-width="1.66743" stroke-miterlimit="10"/>
<path d="M205.939 137.735H131.297C130.08 137.735 129.094 138.721 129.094 139.938V173.773C129.094 174.99 130.08 175.976 131.297 175.976H205.939C207.156 175.976 208.143 174.99 208.143 173.773V139.938C208.143 138.721 207.156 137.735 205.939 137.735Z" fill="#832706" stroke="#0D0C0C" stroke-width="1.66743" stroke-miterlimit="10"/>
<path d="M191.065 173.773V139.938C191.065 138.721 190.079 137.735 188.862 137.735H69.3138C68.097 137.735 67.1107 138.721 67.1107 139.938V173.773C67.1107 174.99 68.097 175.976 69.3138 175.976H188.862C190.079 175.976 191.065 174.99 191.065 173.773Z" fill="#D86339" stroke="#0D0C0C" stroke-width="1.66743" stroke-miterlimit="10"/>
<path d="M184.677 167.701V146.011C184.677 144.794 183.69 143.808 182.474 143.808H75.7091C74.4924 143.808 73.506 144.794 73.506 146.011V167.701C73.506 168.918 74.4924 169.904 75.7091 169.904H182.474C183.69 169.904 184.677 168.918 184.677 167.701Z" stroke="#0D0C0C" stroke-width="1.66743" stroke-miterlimit="10"/>
<path d="M194.259 99.4897H136.58C135.363 99.4897 134.377 100.476 134.377 101.693V135.528C134.377 136.745 135.363 137.731 136.58 137.731H194.259C195.475 137.731 196.462 136.745 196.462 135.528V101.693C196.462 100.476 195.475 99.4897 194.259 99.4897Z" fill="#832706" stroke="#0D0C0C" stroke-width="1.66743" stroke-miterlimit="10"/>
<path d="M179.393 135.528V101.693C179.393 100.476 178.407 99.4897 177.19 99.4897H74.606C73.3893 99.4897 72.4029 100.476 72.4029 101.693V135.528C72.4029 136.745 73.3893 137.731 74.606 137.731H177.19C178.407 137.731 179.393 136.745 179.393 135.528Z" fill="#D86339" stroke="#0D0C0C" stroke-width="1.66743" stroke-miterlimit="10"/>
<path d="M173.877 129.45V107.76C173.877 106.544 172.89 105.557 171.674 105.557H80.1219C78.9052 105.557 77.9188 106.544 77.9188 107.76V129.45C77.9188 130.667 78.9052 131.653 80.1219 131.653H171.674C172.89 131.653 173.877 130.667 173.877 129.45Z" stroke="#0D0C0C" stroke-width="1.66743" stroke-miterlimit="10"/>
<path d="M102.032 117.566V119.06C102.032 120.86 101.45 122.348 100.286 123.524C99.1344 124.7 97.6164 125.288 95.7324 125.288C93.7644 125.288 92.1564 124.664 90.9084 123.416C89.6604 122.156 89.0364 120.59 89.0364 118.718C89.0364 116.846 89.6604 115.28 90.9084 114.02C92.1564 112.748 93.7164 112.112 95.5884 112.112C96.7644 112.112 97.8384 112.376 98.8104 112.904C99.7944 113.432 100.568 114.146 101.132 115.046L98.0724 116.792C97.5684 116.024 96.7644 115.64 95.6604 115.64C94.7604 115.64 94.0284 115.928 93.4644 116.504C92.9124 117.08 92.6364 117.824 92.6364 118.736C92.6364 119.6 92.8944 120.356 93.4104 121.004C93.9264 121.64 94.7244 121.958 95.8044 121.958C97.0524 121.958 97.8864 121.514 98.3064 120.626H95.6244V117.566H102.032ZM114.389 124.982L112.391 121.022H111.491V124.982H107.891V112.382H112.931C114.311 112.382 115.451 112.79 116.351 113.606C117.251 114.41 117.701 115.478 117.701 116.81C117.701 117.554 117.527 118.226 117.179 118.826C116.843 119.426 116.369 119.912 115.757 120.284L118.241 124.982H114.389ZM111.491 115.694V118.034H112.859C113.243 118.046 113.543 117.95 113.759 117.746C113.987 117.542 114.101 117.254 114.101 116.882C114.101 116.51 113.987 116.222 113.759 116.018C113.543 115.802 113.243 115.694 112.859 115.694H111.491ZM127.241 121.688H131.921V125H123.641V112.4H131.831V115.676H127.241V117.044H131.381V120.284H127.241V121.688ZM141.461 121.688H146.141V125H137.861V112.4H146.051V115.676H141.461V117.044H145.601V120.284H141.461V121.688ZM158.922 112.4H162.522V125H159.642L155.682 119.24V125H152.082V112.4H154.962L158.922 118.16V112.4Z" fill="white"/>
<path d="M102.032 117.566H102.658V116.94H102.032V117.566ZM100.286 123.524L99.842 123.084L99.8397 123.086L100.286 123.524ZM90.9084 123.416L90.4642 123.856L90.4663 123.858L90.9084 123.416ZM90.9084 114.02L91.3527 114.46L91.3548 114.457L90.9084 114.02ZM98.8104 112.904L98.512 113.453L98.5148 113.454L98.8104 112.904ZM101.132 115.046L101.442 115.589L102.008 115.266L101.662 114.713L101.132 115.046ZM98.0724 116.792L97.5497 117.135L97.872 117.626L98.3823 117.335L98.0724 116.792ZM93.4644 116.504L93.0176 116.066L93.013 116.071L93.4644 116.504ZM93.4104 121.004L92.9213 121.393L92.9249 121.397L93.4104 121.004ZM98.3064 120.626L98.8717 120.893L99.2939 120H98.3064V120.626ZM95.6244 120.626H94.9991V121.251H95.6244V120.626ZM95.6244 117.566V116.94H94.9991V117.566H95.6244ZM101.407 117.566V119.06H102.658V117.566H101.407ZM101.407 119.06C101.407 120.711 100.879 122.036 99.842 123.084L100.731 123.963C102.021 122.659 102.658 121.008 102.658 119.06H101.407ZM99.8397 123.086C98.8227 124.124 97.4748 124.662 95.7324 124.662V125.913C97.758 125.913 99.4462 125.275 100.733 123.961L99.8397 123.086ZM95.7324 124.662C93.9094 124.662 92.4673 124.09 91.3506 122.973L90.4663 123.858C91.8455 125.237 93.6195 125.913 95.7324 125.913V124.662ZM91.3527 122.975C90.2276 121.84 89.6617 120.435 89.6617 118.718H88.4111C88.4111 120.744 89.0932 122.471 90.4642 123.856L91.3527 122.975ZM89.6617 118.718C89.6617 117 90.2276 115.595 91.3527 114.46L90.4642 113.579C89.0932 114.964 88.4111 116.691 88.4111 118.718H89.6617ZM91.3548 114.457C92.4787 113.312 93.8749 112.737 95.5884 112.737V111.486C93.558 111.486 91.8341 112.183 90.4621 113.582L91.3548 114.457ZM95.5884 112.737C96.667 112.737 97.6374 112.978 98.512 113.453L99.1089 112.354C98.0395 111.773 96.8619 111.486 95.5884 111.486V112.737ZM98.5148 113.454C99.4081 113.934 100.099 114.574 100.603 115.378L101.662 114.713C101.038 113.717 100.181 112.929 99.1061 112.353L98.5148 113.454ZM100.823 114.502L97.7625 116.248L98.3823 117.335L101.442 115.589L100.823 114.502ZM98.5952 116.448C97.9511 115.467 96.9261 115.014 95.6604 115.014V116.265C96.6027 116.265 97.1858 116.58 97.5497 117.135L98.5952 116.448ZM95.6604 115.014C94.6138 115.014 93.7135 115.355 93.0177 116.066L93.9112 116.941C94.3434 116.5 94.9071 116.265 95.6604 116.265V115.014ZM93.013 116.071C92.3333 116.78 92.0111 117.687 92.0111 118.736H93.2617C93.2617 117.96 93.4916 117.379 93.9159 116.936L93.013 116.071ZM92.0111 118.736C92.0111 119.734 92.3131 120.629 92.9213 121.393L93.8996 120.614C93.4757 120.082 93.2617 119.465 93.2617 118.736H92.0111ZM92.9249 121.397C93.595 122.223 94.6005 122.583 95.8044 122.583V121.332C94.8484 121.332 94.2579 121.056 93.896 120.61L92.9249 121.397ZM95.8044 122.583C96.4992 122.583 97.128 122.46 97.6598 122.176C98.2004 121.889 98.6066 121.453 98.8717 120.893L97.7412 120.358C97.5862 120.686 97.3654 120.916 97.0721 121.073C96.7699 121.233 96.3576 121.332 95.8044 121.332V122.583ZM98.3064 120H95.6244V121.251H98.3064V120ZM96.2497 120.626V117.566H94.9991V120.626H96.2497ZM95.6244 118.191H102.032V116.94H95.6244V118.191ZM114.389 124.982L113.83 125.263L114.004 125.607H114.389V124.982ZM112.391 121.022L112.949 120.74L112.776 120.396H112.391V121.022ZM111.491 121.022V120.396H110.865V121.022H111.491ZM111.491 124.982V125.607H112.116V124.982H111.491ZM107.891 124.982H107.265V125.607H107.891V124.982ZM107.891 112.382V111.756H107.265V112.382H107.891ZM116.351 113.606L115.931 114.069L115.934 114.072L116.351 113.606ZM117.179 118.826L116.638 118.512L116.633 118.52L117.179 118.826ZM115.757 120.284L115.432 119.749L114.929 120.055L115.204 120.576L115.757 120.284ZM118.241 124.982V125.607H119.279L118.793 124.689L118.241 124.982ZM111.491 115.694V115.068H110.865V115.694H111.491ZM111.491 118.034H110.865V118.659H111.491V118.034ZM112.859 118.034L112.878 117.409L112.868 117.408H112.859V118.034ZM113.759 117.746L113.342 117.28L113.336 117.285L113.329 117.291L113.759 117.746ZM113.759 116.018L113.317 116.46L113.329 116.472L113.342 116.484L113.759 116.018ZM114.947 124.7L112.949 120.74L111.832 121.303L113.83 125.263L114.947 124.7ZM112.391 120.396H111.491V121.647H112.391V120.396ZM110.865 121.022V124.982H112.116V121.022H110.865ZM111.491 124.356H107.891V125.607H111.491V124.356ZM108.516 124.982V112.382H107.265V124.982H108.516ZM107.891 113.007H112.931V111.756H107.891V113.007ZM112.931 113.007C114.178 113.007 115.161 113.371 115.931 114.069L116.771 113.142C115.74 112.208 114.443 111.756 112.931 111.756V113.007ZM115.934 114.072C116.687 114.744 117.075 115.635 117.075 116.81H118.326C118.326 115.32 117.815 114.075 116.767 113.139L115.934 114.072ZM117.075 116.81C117.075 117.452 116.927 118.014 116.638 118.512L117.72 119.139C118.127 118.437 118.326 117.655 118.326 116.81H117.075ZM116.633 118.52C116.352 119.022 115.956 119.431 115.432 119.749L116.082 120.818C116.782 120.392 117.333 119.829 117.724 119.131L116.633 118.52ZM115.204 120.576L117.688 125.274L118.793 124.689L116.309 119.991L115.204 120.576ZM118.241 124.356H114.389V125.607H118.241V124.356ZM110.865 115.694V118.034H112.116V115.694H110.865ZM111.491 118.659H112.859V117.408H111.491V118.659ZM112.839 118.658C113.339 118.674 113.818 118.549 114.188 118.2L113.329 117.291C113.267 117.35 113.147 117.417 112.878 117.409L112.839 118.658ZM114.176 118.212C114.564 117.864 114.726 117.39 114.726 116.882H113.475C113.475 117.117 113.409 117.219 113.342 117.28L114.176 118.212ZM114.726 116.882C114.726 116.373 114.564 115.899 114.176 115.552L113.342 116.484C113.409 116.544 113.475 116.646 113.475 116.882H114.726ZM114.201 115.575C113.839 115.214 113.364 115.068 112.859 115.068V116.319C113.122 116.319 113.246 116.389 113.317 116.46L114.201 115.575ZM112.859 115.068H111.491V116.319H112.859V115.068ZM127.241 121.688H126.615V122.313H127.241V121.688ZM131.921 121.688H132.546V121.062H131.921V121.688ZM131.921 125V125.625H132.546V125H131.921ZM123.641 125H123.015V125.625H123.641V125ZM123.641 112.4V111.774H123.015V112.4H123.641ZM131.831 112.4H132.456V111.774H131.831V112.4ZM131.831 115.676V116.301H132.456V115.676H131.831ZM127.241 115.676V115.05H126.615V115.676H127.241ZM127.241 117.044H126.615V117.669H127.241V117.044ZM131.381 117.044H132.006V116.418H131.381V117.044ZM131.381 120.284V120.909H132.006V120.284H131.381ZM127.241 120.284V119.658H126.615V120.284H127.241ZM127.241 122.313H131.921V121.062H127.241V122.313ZM131.295 121.688V125H132.546V121.688H131.295ZM131.921 124.374H123.641V125.625H131.921V124.374ZM124.266 125V112.4H123.015V125H124.266ZM123.641 113.025H131.831V111.774H123.641V113.025ZM131.205 112.4V115.676H132.456V112.4H131.205ZM131.831 115.05H127.241V116.301H131.831V115.05ZM126.615 115.676V117.044H127.866V115.676H126.615ZM127.241 117.669H131.381V116.418H127.241V117.669ZM130.755 117.044V120.284H132.006V117.044H130.755ZM131.381 119.658H127.241V120.909H131.381V119.658ZM126.615 120.284V121.688H127.866V120.284H126.615ZM141.461 121.688H140.836V122.313H141.461V121.688ZM146.141 121.688H146.767V121.062H146.141V121.688ZM146.141 125V125.625H146.767V125H146.141ZM137.861 125H137.236V125.625H137.861V125ZM137.861 112.4V111.774H137.236V112.4H137.861ZM146.051 112.4H146.677V111.774H146.051V112.4ZM146.051 115.676V116.301H146.677V115.676H146.051ZM141.461 115.676V115.05H140.836V115.676H141.461ZM141.461 117.044H140.836V117.669H141.461V117.044ZM145.601 117.044H146.227V116.418H145.601V117.044ZM145.601 120.284V120.909H146.227V120.284H145.601ZM141.461 120.284V119.658H140.836V120.284H141.461ZM141.461 122.313H146.141V121.062H141.461V122.313ZM145.516 121.688V125H146.767V121.688H145.516ZM146.141 124.374H137.861V125.625H146.141V124.374ZM138.487 125V112.4H137.236V125H138.487ZM137.861 113.025H146.051V111.774H137.861V113.025ZM145.426 112.4V115.676H146.677V112.4H145.426ZM146.051 115.05H141.461V116.301H146.051V115.05ZM140.836 115.676V117.044H142.087V115.676H140.836ZM141.461 117.669H145.601V116.418H141.461V117.669ZM144.976 117.044V120.284H146.227V117.044H144.976ZM145.601 119.658H141.461V120.909H145.601V119.658ZM140.836 120.284V121.688H142.087V120.284H140.836ZM158.922 112.4V111.774H158.297V112.4H158.922ZM162.522 112.4H163.147V111.774H162.522V112.4ZM162.522 125V125.625H163.147V125H162.522ZM159.642 125L159.127 125.354L159.313 125.625H159.642V125ZM155.682 119.24L156.197 118.885L155.057 117.226V119.24H155.682ZM155.682 125V125.625H156.307V125H155.682ZM152.082 125H151.457V125.625H152.082V125ZM152.082 112.4V111.774H151.457V112.4H152.082ZM154.962 112.4L155.477 112.045L155.291 111.774H154.962V112.4ZM158.922 118.16L158.407 118.514L159.547 120.173V118.16H158.922ZM158.922 113.025H162.522V111.774H158.922V113.025ZM161.897 112.4V125H163.147V112.4H161.897ZM162.522 124.374H159.642V125.625H162.522V124.374ZM160.157 124.645L156.197 118.885L155.167 119.594L159.127 125.354L160.157 124.645ZM155.057 119.24V125H156.307V119.24H155.057ZM155.682 124.374H152.082V125.625H155.682V124.374ZM152.707 125V112.4H151.457V125H152.707ZM152.082 113.025H154.962V111.774H152.082V113.025ZM154.447 112.754L158.407 118.514L159.437 117.805L155.477 112.045L154.447 112.754ZM159.547 118.16V112.4H158.297V118.16H159.547Z" fill="#0D0C0C"/>
<path d="M45.4468 77.7795C46.6468 78.4595 47.2468 79.4928 47.2468 80.8795C47.2468 82.1595 46.8268 83.1662 45.9868 83.8995C45.1601 84.6328 43.9534 84.9995 42.3668 84.9995H36.4468V70.9995H42.0068C43.5801 70.9995 44.7801 71.3395 45.6068 72.0195C46.4334 72.6995 46.8468 73.6728 46.8468 74.9395C46.8468 76.1528 46.3801 77.0995 45.4468 77.7795ZM41.7668 74.4395H40.4468V76.3195L41.9868 76.2995C42.5601 76.2195 42.8468 75.9128 42.8468 75.3795C42.8468 75.0728 42.7401 74.8395 42.5268 74.6795C42.3134 74.5195 42.0601 74.4395 41.7668 74.4395ZM42.1268 81.5595C42.4468 81.5595 42.7134 81.4662 42.9268 81.2795C43.1401 81.0928 43.2468 80.8528 43.2468 80.5595C43.2468 79.9995 42.9468 79.6728 42.3468 79.5795L40.4468 79.5595V81.5595H42.1268ZM41.6479 106.12H46.2479V110H37.6479V95.9995H41.6479V106.12ZM45.6176 133.94C44.5642 134.86 43.1909 135.32 41.4976 135.32C39.8042 135.32 38.4309 134.86 37.3776 133.94C36.3242 133.02 35.7976 131.813 35.7976 130.32V121H39.7976V129.88C39.7976 130.92 40.3642 131.44 41.4976 131.44C42.6309 131.44 43.1976 130.92 43.1976 129.88V121H47.1976V130.32C47.1976 131.813 46.6709 133.02 45.6176 133.94ZM41.1011 156.32H46.3011V160H37.1011V146H46.2011V149.64H41.1011V151.16H45.7011V154.76H41.1011V156.32Z" fill="white"/>
<path d="M45.4468 77.7795L45.0786 77.2741L44.2946 77.8453L45.1385 78.3235L45.4468 77.7795ZM45.9868 83.8995L45.5755 83.4285L45.5718 83.4318L45.9868 83.8995ZM36.4468 84.9995H35.8215V85.6248H36.4468V84.9995ZM36.4468 70.9995V70.3742H35.8215V70.9995H36.4468ZM45.6068 72.0195L45.2096 72.5024L45.6068 72.0195ZM40.4468 74.4395V73.8142H39.8215V74.4395H40.4468ZM40.4468 76.3195H39.8215V76.953L40.4549 76.9447L40.4468 76.3195ZM41.9868 76.2995L41.9949 76.9247L42.0342 76.9242L42.0732 76.9188L41.9868 76.2995ZM42.5268 74.6795L42.9019 74.1793L42.9019 74.1793L42.5268 74.6795ZM42.3468 79.5795L42.4429 78.9617L42.3984 78.9547L42.3534 78.9543L42.3468 79.5795ZM40.4468 79.5595L40.4534 78.9343L39.8215 78.9276V79.5595H40.4468ZM40.4468 81.5595H39.8215V82.1848H40.4468V81.5595ZM45.1385 78.3235C46.1413 78.8918 46.6215 79.7165 46.6215 80.8795H47.8721C47.8721 79.2692 47.1523 78.0273 45.7551 77.2355L45.1385 78.3235ZM46.6215 80.8795C46.6215 82.0086 46.2587 82.8321 45.5756 83.4285L46.398 84.3706C47.3949 83.5003 47.8721 82.3104 47.8721 80.8795H46.6215ZM45.5718 83.4318C44.9007 84.0271 43.8664 84.3742 42.3668 84.3742V85.6248C44.0405 85.6248 45.4195 85.2386 46.4017 84.3673L45.5718 83.4318ZM42.3668 84.3742H36.4468V85.6248H42.3668V84.3742ZM37.0721 84.9995V70.9995H35.8215V84.9995H37.0721ZM36.4468 71.6248H42.0068V70.3742H36.4468V71.6248ZM42.0068 71.6248C43.5012 71.6248 44.5369 71.9491 45.2096 72.5024L46.004 71.5366C45.0233 70.7299 43.659 70.3742 42.0068 70.3742V71.6248ZM45.2096 72.5024C45.8648 73.0414 46.2215 73.8217 46.2215 74.9395H47.4721C47.4721 73.5239 47.0021 72.3576 46.004 71.5366L45.2096 72.5024ZM46.2215 74.9395C46.2215 75.9649 45.841 76.7187 45.0786 77.2741L45.815 78.2849C46.9192 77.4804 47.4721 76.3408 47.4721 74.9395H46.2215ZM41.7668 73.8142H40.4468V75.0648H41.7668V73.8142ZM39.8215 74.4395V76.3195H41.0721V74.4395H39.8215ZM40.4549 76.9447L41.9949 76.9247L41.9787 75.6743L40.4387 75.6943L40.4549 76.9447ZM42.0732 76.9188C42.4484 76.8664 42.8161 76.7279 43.0886 76.4365C43.3672 76.1384 43.4721 75.7601 43.4721 75.3795H42.2215C42.2215 75.5322 42.183 75.5739 42.175 75.5825C42.1608 75.5977 42.0984 75.6526 41.9004 75.6802L42.0732 76.9188ZM43.4721 75.3795C43.4721 74.9097 43.2978 74.4762 42.9019 74.1793L42.1516 75.1797C42.1824 75.2028 42.2215 75.236 42.2215 75.3795H43.4721ZM42.9019 74.1793C42.5695 73.9299 42.1811 73.8142 41.7668 73.8142V75.0648C41.9391 75.0648 42.0574 75.1091 42.1516 75.1797L42.9019 74.1793ZM42.1268 82.1848C42.5774 82.1848 42.9964 82.0494 43.3385 81.7501L42.515 80.8089C42.4305 80.8829 42.3162 80.9342 42.1268 80.9342V82.1848ZM43.3385 81.7501C43.6929 81.44 43.8721 81.026 43.8721 80.5595H42.6215C42.6215 80.6797 42.5874 80.7456 42.515 80.8089L43.3385 81.7501ZM43.8721 80.5595C43.8721 80.1656 43.764 79.7783 43.4823 79.4716C43.2064 79.1712 42.8317 79.0221 42.4429 78.9617L42.2507 80.1974C42.4619 80.2302 42.5371 80.2912 42.5612 80.3175C42.5795 80.3374 42.6215 80.3934 42.6215 80.5595H43.8721ZM42.3534 78.9543L40.4534 78.9343L40.4402 80.1848L42.3402 80.2048L42.3534 78.9543ZM39.8215 79.5595V81.5595H41.0721V79.5595H39.8215ZM40.4468 82.1848H42.1268V80.9342H40.4468V82.1848ZM41.6479 106.12H41.0227V106.745H41.6479V106.12ZM46.2479 106.12H46.8732V105.494H46.2479V106.12ZM46.2479 110V110.625H46.8732V110H46.2479ZM37.6479 110H37.0227V110.625H37.6479V110ZM37.6479 95.9995V95.3742H37.0227V95.9995H37.6479ZM41.6479 95.9995H42.2732V95.3742H41.6479V95.9995ZM41.6479 106.745H46.2479V105.494H41.6479V106.745ZM45.6227 106.12V110H46.8732V106.12H45.6227ZM46.2479 109.374H37.6479V110.625H46.2479V109.374ZM38.2732 110V95.9995H37.0227V110H38.2732ZM37.6479 96.6248H41.6479V95.3742H37.6479V96.6248ZM41.0227 95.9995V106.12H42.2732V95.9995H41.0227ZM45.6176 133.94L46.0289 134.41L45.6176 133.94ZM37.3776 133.94L36.9662 134.41L37.3776 133.94ZM35.7976 121V120.374H35.1723V121H35.7976ZM39.7976 121H40.4228V120.374H39.7976V121ZM43.1976 121V120.374H42.5723V121H43.1976ZM47.1976 121H47.8228V120.374H47.1976V121ZM45.2062 133.469C44.2897 134.269 43.073 134.694 41.4976 134.694V135.945C43.3088 135.945 44.8388 135.45 46.0289 134.41L45.2062 133.469ZM41.4976 134.694C39.9221 134.694 38.7055 134.269 37.7889 133.469L36.9662 134.41C38.1563 135.45 39.6863 135.945 41.4976 135.945V134.694ZM37.7889 133.469C36.8816 132.676 36.4228 131.646 36.4228 130.32H35.1723C35.1723 131.979 35.7668 133.363 36.9662 134.41L37.7889 133.469ZM36.4228 130.32V121H35.1723V130.32H36.4228ZM35.7976 121.625H39.7976V120.374H35.7976V121.625ZM39.1723 121V129.88H40.4228V121H39.1723ZM39.1723 129.88C39.1723 130.51 39.3466 131.094 39.7998 131.51C40.2428 131.917 40.8472 132.065 41.4976 132.065V130.814C41.0146 130.814 40.769 130.702 40.6453 130.589C40.5318 130.485 40.4228 130.289 40.4228 129.88H39.1723ZM41.4976 132.065C42.1479 132.065 42.7523 131.917 43.1953 131.51C43.6485 131.094 43.8228 130.51 43.8228 129.88H42.5723C42.5723 130.289 42.4633 130.485 42.3498 130.589C42.2261 130.702 41.9805 130.814 41.4976 130.814V132.065ZM43.8228 129.88V121H42.5723V129.88H43.8228ZM43.1976 121.625H47.1976V120.374H43.1976V121.625ZM46.5723 121V130.32H47.8228V121H46.5723ZM46.5723 130.32C46.5723 131.646 46.1135 132.676 45.2062 133.469L46.0289 134.41C47.2283 133.363 47.8228 131.979 47.8228 130.32H46.5723ZM41.1011 156.32H40.4758V156.945H41.1011V156.32ZM46.3011 156.32H46.9264V155.694H46.3011V156.32ZM46.3011 160V160.625H46.9264V160H46.3011ZM37.1011 160H36.4758V160.625H37.1011V160ZM37.1011 146V145.374H36.4758V146H37.1011ZM46.2011 146H46.8264V145.374H46.2011V146ZM46.2011 149.64V150.265H46.8264V149.64H46.2011ZM41.1011 149.64V149.014H40.4758V149.64H41.1011ZM41.1011 151.16H40.4758V151.785H41.1011V151.16ZM45.7011 151.16H46.3264V150.534H45.7011V151.16ZM45.7011 154.76V155.385H46.3264V154.76H45.7011ZM41.1011 154.76V154.134H40.4758V154.76H41.1011ZM41.1011 156.945H46.3011V155.694H41.1011V156.945ZM45.6758 156.32V160H46.9264V156.32H45.6758ZM46.3011 159.374H37.1011V160.625H46.3011V159.374ZM37.7264 160V146H36.4758V160H37.7264ZM37.1011 146.625H46.2011V145.374H37.1011V146.625ZM45.5758 146V149.64H46.8264V146H45.5758ZM46.2011 149.014H41.1011V150.265H46.2011V149.014ZM40.4758 149.64V151.16H41.7264V149.64H40.4758ZM41.1011 151.785H45.7011V150.534H41.1011V151.785ZM45.0758 151.16V154.76H46.3264V151.16H45.0758ZM45.7011 154.134H41.1011V155.385H45.7011V154.134ZM40.4758 154.76V156.32H41.7264V154.76H40.4758Z" fill="#0D0C0C"/>
<path d="M99.9929 150.534H103.593V163.134H99.9929V158.49H96.9329V163.134H93.3329V150.534H96.9329V154.998H99.9929V150.534ZM119.953 161.532C118.669 162.792 117.091 163.422 115.219 163.422C113.347 163.422 111.763 162.792 110.467 161.532C109.183 160.26 108.541 158.694 108.541 156.834C108.541 154.974 109.183 153.414 110.467 152.154C111.763 150.882 113.347 150.246 115.219 150.246C117.091 150.246 118.669 150.882 119.953 152.154C121.249 153.414 121.897 154.974 121.897 156.834C121.897 158.694 121.249 160.26 119.953 161.532ZM113.005 159.03C113.593 159.606 114.331 159.894 115.219 159.894C116.107 159.894 116.839 159.606 117.415 159.03C118.003 158.442 118.297 157.71 118.297 156.834C118.297 155.958 118.003 155.232 117.415 154.656C116.839 154.068 116.107 153.774 115.219 153.774C114.331 153.774 113.593 154.068 113.005 154.656C112.429 155.232 112.141 155.958 112.141 156.834C112.141 157.71 112.429 158.442 113.005 159.03ZM133.345 163.116L131.347 159.156H130.447V163.116H126.847V150.516H131.887C133.267 150.516 134.407 150.924 135.307 151.74C136.207 152.544 136.657 153.612 136.657 154.944C136.657 155.688 136.483 156.36 136.135 156.96C135.799 157.56 135.325 158.046 134.713 158.418L137.197 163.116H133.345ZM130.447 153.828V156.168H131.815C132.199 156.18 132.499 156.084 132.715 155.88C132.943 155.676 133.057 155.388 133.057 155.016C133.057 154.644 132.943 154.356 132.715 154.152C132.499 153.936 132.199 153.828 131.815 153.828H130.447ZM146.058 163.422C144.69 163.422 143.55 163.14 142.638 162.576C141.726 162 141.114 161.226 140.802 160.254L143.88 158.472C144.3 159.54 145.056 160.074 146.148 160.074C146.964 160.074 147.372 159.858 147.372 159.426C147.372 159.306 147.342 159.198 147.282 159.102C147.222 159.006 147.108 158.922 146.94 158.85C146.772 158.778 146.622 158.724 146.49 158.688C146.37 158.64 146.154 158.574 145.842 158.49C145.53 158.406 145.296 158.34 145.14 158.292C142.632 157.536 141.378 156.186 141.378 154.242C141.378 153.09 141.792 152.136 142.62 151.38C143.46 150.624 144.558 150.246 145.914 150.246C146.982 150.246 147.936 150.498 148.776 151.002C149.628 151.506 150.252 152.232 150.648 153.18L147.66 154.926C147.312 154.038 146.736 153.594 145.932 153.594C145.62 153.594 145.38 153.66 145.212 153.792C145.056 153.912 144.978 154.068 144.978 154.26C144.978 154.524 145.116 154.728 145.392 154.872C145.68 155.016 146.226 155.202 147.03 155.43C147.63 155.61 148.122 155.784 148.506 155.952C148.89 156.108 149.292 156.336 149.712 156.636C150.132 156.924 150.444 157.302 150.648 157.77C150.864 158.226 150.972 158.766 150.972 159.39C150.972 160.674 150.528 161.67 149.64 162.378C148.764 163.074 147.57 163.422 146.058 163.422ZM159.163 159.822H163.843V163.134H155.563V150.534H163.753V153.81H159.163V155.178H163.303V158.418H159.163V159.822Z" fill="white"/>
<path d="M99.9929 150.534V149.909H99.3676V150.534H99.9929ZM103.593 150.534H104.218V149.909H103.593V150.534ZM103.593 163.134V163.76H104.218V163.134H103.593ZM99.9929 163.134H99.3676V163.76H99.9929V163.134ZM99.9929 158.49H100.618V157.865H99.9929V158.49ZM96.9329 158.49V157.865H96.3076V158.49H96.9329ZM96.9329 163.134V163.76H97.5581V163.134H96.9329ZM93.3329 163.134H92.7076V163.76H93.3329V163.134ZM93.3329 150.534V149.909H92.7076V150.534H93.3329ZM96.9329 150.534H97.5581V149.909H96.9329V150.534ZM96.9329 154.998H96.3076V155.624H96.9329V154.998ZM99.9929 154.998V155.624H100.618V154.998H99.9929ZM99.9929 151.16H103.593V149.909H99.9929V151.16ZM102.968 150.534V163.134H104.218V150.534H102.968ZM103.593 162.509H99.9929V163.76H103.593V162.509ZM100.618 163.134V158.49H99.3676V163.134H100.618ZM99.9929 157.865H96.9329V159.116H99.9929V157.865ZM96.3076 158.49V163.134H97.5581V158.49H96.3076ZM96.9329 162.509H93.3329V163.76H96.9329V162.509ZM93.9581 163.134V150.534H92.7076V163.134H93.9581ZM93.3329 151.16H96.9329V149.909H93.3329V151.16ZM96.3076 150.534V154.998H97.5581V150.534H96.3076ZM96.9329 155.624H99.9929V154.373H96.9329V155.624ZM100.618 154.998V150.534H99.3676V154.998H100.618ZM119.953 161.532L120.391 161.979L120.391 161.979L119.953 161.532ZM110.467 161.532L110.027 161.977L110.032 161.981L110.467 161.532ZM110.467 152.154L110.905 152.601L110.905 152.601L110.467 152.154ZM119.953 152.154L119.513 152.599L119.518 152.603L119.953 152.154ZM113.005 159.03L112.559 159.468L112.568 159.477L113.005 159.03ZM117.415 159.03L116.973 158.588L117.415 159.03ZM117.415 154.656L116.969 155.094L116.978 155.103L117.415 154.656ZM113.005 154.656L112.563 154.214L113.005 154.656ZM119.515 161.086C118.354 162.226 116.935 162.797 115.219 162.797V164.048C117.248 164.048 118.985 163.358 120.391 161.979L119.515 161.086ZM115.219 162.797C113.504 162.797 112.078 162.226 110.903 161.084L110.032 161.981C111.449 163.359 113.191 164.048 115.219 164.048V162.797ZM110.908 161.088C109.746 159.937 109.167 158.533 109.167 156.834H107.916C107.916 158.856 108.621 160.583 110.027 161.976L110.908 161.088ZM109.167 156.834C109.167 155.136 109.746 153.739 110.905 152.601L110.029 151.708C108.621 153.09 107.916 154.813 107.916 156.834H109.167ZM110.905 152.601C112.081 151.447 113.506 150.872 115.219 150.872V149.621C113.189 149.621 111.446 150.317 110.029 151.708L110.905 152.601ZM115.219 150.872C116.933 150.872 118.351 151.447 119.513 152.598L120.394 151.71C118.988 150.318 117.25 149.621 115.219 149.621V150.872ZM119.518 152.603C120.689 153.741 121.272 155.138 121.272 156.834H122.523C122.523 154.811 121.81 153.087 120.389 151.706L119.518 152.603ZM121.272 156.834C121.272 158.531 120.688 159.935 119.515 161.086L120.391 161.979C121.81 160.586 122.523 158.858 122.523 156.834H121.272ZM112.568 159.477C113.283 160.177 114.182 160.52 115.219 160.52V159.269C114.481 159.269 113.904 159.036 113.443 158.584L112.568 159.477ZM115.219 160.52C116.257 160.52 117.153 160.177 117.858 159.472L116.973 158.588C116.526 159.036 115.958 159.269 115.219 159.269V160.52ZM117.858 159.472C118.57 158.76 118.923 157.866 118.923 156.834H117.672C117.672 157.554 117.437 158.124 116.973 158.588L117.858 159.472ZM118.923 156.834C118.923 155.802 118.569 154.911 117.853 154.21L116.978 155.103C117.438 155.553 117.672 156.114 117.672 156.834H118.923ZM117.862 154.219C117.159 153.501 116.261 153.149 115.219 153.149V154.4C115.954 154.4 116.52 154.636 116.969 155.094L117.862 154.219ZM115.219 153.149C114.178 153.149 113.277 153.5 112.563 154.214L113.448 155.098C113.91 154.636 114.485 154.4 115.219 154.4V153.149ZM112.563 154.214C111.861 154.917 111.516 155.806 111.516 156.834H112.767C112.767 156.11 112.998 155.548 113.448 155.098L112.563 154.214ZM111.516 156.834C111.516 157.862 111.86 158.755 112.559 159.468L113.452 158.593C112.998 158.13 112.767 157.558 112.767 156.834H111.516ZM133.345 163.116L132.787 163.398L132.96 163.742H133.345V163.116ZM131.347 159.156L131.906 158.875L131.732 158.531H131.347V159.156ZM130.447 159.156V158.531H129.822V159.156H130.447ZM130.447 163.116V163.742H131.073V163.116H130.447ZM126.847 163.116H126.222V163.742H126.847V163.116ZM126.847 150.516V149.891H126.222V150.516H126.847ZM135.307 151.74L134.887 152.204L134.891 152.207L135.307 151.74ZM136.135 156.96L135.594 156.647L135.59 156.655L136.135 156.96ZM134.713 158.418L134.389 157.884L133.885 158.19L134.161 158.711L134.713 158.418ZM137.197 163.116V163.742H138.235L137.75 162.824L137.197 163.116ZM130.447 153.828V153.203H129.822V153.828H130.447ZM130.447 156.168H129.822V156.794H130.447V156.168ZM131.815 156.168L131.835 155.543L131.825 155.543H131.815V156.168ZM132.715 155.88L132.298 155.414L132.292 155.42L132.286 155.426L132.715 155.88ZM132.715 154.152L132.273 154.594L132.285 154.607L132.298 154.618L132.715 154.152ZM133.904 162.835L131.906 158.875L130.789 159.438L132.787 163.398L133.904 162.835ZM131.347 158.531H130.447V159.782H131.347V158.531ZM129.822 159.156V163.116H131.073V159.156H129.822ZM130.447 162.491H126.847V163.742H130.447V162.491ZM127.473 163.116V150.516H126.222V163.116H127.473ZM126.847 151.142H131.887V149.891H126.847V151.142ZM131.887 151.142C133.135 151.142 134.118 151.506 134.887 152.204L135.727 151.277C134.697 150.342 133.4 149.891 131.887 149.891V151.142ZM134.891 152.207C135.643 152.879 136.032 153.77 136.032 154.944H137.283C137.283 153.455 136.771 152.21 135.724 151.274L134.891 152.207ZM136.032 154.944C136.032 155.586 135.883 156.149 135.594 156.647L136.676 157.274C137.083 156.572 137.283 155.79 137.283 154.944H136.032ZM135.59 156.655C135.309 157.157 134.912 157.566 134.389 157.884L135.038 158.953C135.738 158.527 136.29 157.964 136.681 157.266L135.59 156.655ZM134.161 158.711L136.645 163.409L137.75 162.824L135.266 158.126L134.161 158.711ZM137.197 162.491H133.345V163.742H137.197V162.491ZM129.822 153.828V156.168H131.073V153.828H129.822ZM130.447 156.794H131.815V155.543H130.447V156.794ZM131.796 156.793C132.295 156.809 132.775 156.684 133.145 156.335L132.286 155.426C132.224 155.485 132.103 155.552 131.835 155.543L131.796 156.793ZM133.132 156.346C133.521 155.998 133.683 155.524 133.683 155.016H132.432C132.432 155.252 132.366 155.354 132.298 155.414L133.132 156.346ZM133.683 155.016C133.683 154.508 133.521 154.034 133.132 153.686L132.298 154.618C132.366 154.678 132.432 154.78 132.432 155.016H133.683ZM133.157 153.71C132.796 153.349 132.32 153.203 131.815 153.203V154.454C132.078 154.454 132.203 154.524 132.273 154.594L133.157 153.71ZM131.815 153.203H130.447V154.454H131.815V153.203ZM142.638 162.576L142.304 163.105L142.309 163.108L142.638 162.576ZM140.802 160.254L140.488 159.713L140.052 159.966L140.206 160.445L140.802 160.254ZM143.88 158.472L144.461 158.243L144.195 157.567L143.566 157.931L143.88 158.472ZM147.282 159.102L146.751 159.434L146.751 159.434L147.282 159.102ZM146.94 158.85L146.693 159.425H146.693L146.94 158.85ZM146.49 158.688L146.257 159.269L146.291 159.282L146.325 159.292L146.49 158.688ZM145.842 158.49L146.004 157.886L145.842 158.49ZM145.14 158.292L145.323 157.695L145.32 157.694L145.14 158.292ZM142.62 151.38L142.201 150.915L142.198 150.919L142.62 151.38ZM148.776 151.002L148.454 151.538L148.457 151.54L148.776 151.002ZM150.648 153.18L150.963 153.72L151.435 153.444L151.224 152.939L150.648 153.18ZM147.66 154.926L147.077 155.154L147.344 155.835L147.975 155.466L147.66 154.926ZM145.212 153.792L145.593 154.288L145.598 154.284L145.212 153.792ZM145.392 154.872L145.102 155.427L145.112 155.432L145.392 154.872ZM147.03 155.43L147.209 154.831L147.2 154.829L147.03 155.43ZM148.506 155.952L148.255 156.525L148.262 156.528L148.27 156.532L148.506 155.952ZM149.712 156.636L149.348 157.145L149.358 157.152L149.712 156.636ZM150.648 157.77L150.074 158.02L150.078 158.029L150.082 158.038L150.648 157.77ZM149.64 162.378L150.029 162.868L150.029 162.867L149.64 162.378ZM146.058 162.797C144.774 162.797 143.756 162.533 142.966 162.044L142.309 163.108C143.343 163.748 144.605 164.048 146.058 164.048V162.797ZM142.971 162.048C142.176 161.545 141.661 160.887 141.397 160.063L140.206 160.445C140.566 161.565 141.275 162.455 142.304 163.105L142.971 162.048ZM141.115 160.795L144.193 159.013L143.566 157.931L140.488 159.713L141.115 160.795ZM143.298 158.701C143.542 159.321 143.902 159.832 144.401 160.185C144.902 160.539 145.496 160.7 146.148 160.7V159.449C145.707 159.449 145.377 159.343 145.122 159.163C144.865 158.982 144.638 158.691 144.461 158.243L143.298 158.701ZM146.148 160.7C146.59 160.7 147.019 160.644 147.358 160.465C147.537 160.37 147.704 160.234 147.824 160.043C147.946 159.85 147.997 159.637 147.997 159.426H146.746C146.746 159.432 146.746 159.408 146.766 159.377C146.784 159.348 146.798 159.346 146.773 159.36C146.704 159.396 146.521 159.449 146.148 159.449V160.7ZM147.997 159.426C147.997 159.196 147.938 158.972 147.812 158.771L146.751 159.434C146.751 159.433 146.75 159.431 146.749 159.429C146.748 159.427 146.747 159.425 146.747 159.423C146.745 159.418 146.746 159.419 146.746 159.426H147.997ZM147.812 158.771C147.654 158.519 147.405 158.37 147.186 158.276L146.693 159.425C146.745 159.447 146.771 159.464 146.78 159.471C146.789 159.477 146.772 159.467 146.751 159.434L147.812 158.771ZM147.186 158.276C146.999 158.196 146.821 158.131 146.654 158.085L146.325 159.292C146.422 159.318 146.544 159.361 146.693 159.425L147.186 158.276ZM146.722 158.108C146.564 158.044 146.315 157.97 146.004 157.886L145.679 159.094C145.992 159.178 146.175 159.236 146.257 159.269L146.722 158.108ZM146.004 157.886C145.694 157.803 145.468 157.739 145.323 157.695L144.956 158.89C145.123 158.941 145.365 159.01 145.679 159.094L146.004 157.886ZM145.32 157.694C144.13 157.335 143.302 156.854 142.776 156.287C142.263 155.735 142.003 155.066 142.003 154.242H140.752C140.752 155.363 141.119 156.341 141.86 157.138C142.588 157.922 143.641 158.494 144.959 158.891L145.32 157.694ZM142.003 154.242C142.003 153.26 142.347 152.476 143.041 151.842L142.198 150.919C141.236 151.797 140.752 152.92 140.752 154.242H142.003ZM143.038 151.845C143.741 151.212 144.679 150.872 145.914 150.872V149.621C144.436 149.621 143.178 150.036 142.201 150.916L143.038 151.845ZM145.914 150.872C146.879 150.872 147.72 151.098 148.454 151.538L149.097 150.466C148.151 149.899 147.084 149.621 145.914 149.621V150.872ZM148.457 151.54C149.189 151.973 149.724 152.593 150.071 153.421L151.224 152.939C150.779 151.872 150.066 151.039 149.094 150.464L148.457 151.54ZM150.332 152.64L147.344 154.386L147.975 155.466L150.963 153.72L150.332 152.64ZM148.242 154.698C148.039 154.181 147.75 153.742 147.348 153.432C146.939 153.117 146.456 152.969 145.932 152.969V154.22C146.211 154.22 146.418 154.294 146.585 154.423C146.759 154.557 146.932 154.784 147.077 155.154L148.242 154.698ZM145.932 152.969C145.542 152.969 145.144 153.05 144.825 153.301L145.598 154.284C145.615 154.27 145.697 154.22 145.932 154.22V152.969ZM144.83 153.297C144.525 153.532 144.352 153.869 144.352 154.26H145.603C145.603 154.255 145.603 154.255 145.602 154.26C145.601 154.265 145.599 154.272 145.595 154.279C145.592 154.286 145.588 154.291 145.586 154.293C145.584 154.295 145.586 154.293 145.593 154.288L144.83 153.297ZM144.352 154.26C144.352 154.804 144.665 155.198 145.102 155.427L145.681 154.318C145.611 154.281 145.596 154.257 145.599 154.261C145.6 154.263 145.602 154.266 145.603 154.27C145.604 154.274 145.603 154.271 145.603 154.26H144.352ZM145.112 155.432C145.459 155.605 146.058 155.805 146.859 156.032L147.2 154.829C146.393 154.6 145.9 154.427 145.671 154.313L145.112 155.432ZM146.85 156.029C147.436 156.205 147.902 156.371 148.255 156.525L148.756 155.379C148.341 155.198 147.823 155.015 147.209 154.831L146.85 156.029ZM148.27 156.532C148.599 156.665 148.959 156.867 149.348 157.145L150.075 156.127C149.624 155.806 149.18 155.551 148.741 155.373L148.27 156.532ZM149.358 157.152C149.681 157.374 149.917 157.659 150.074 158.02L151.221 157.52C150.97 156.945 150.582 156.475 150.065 156.121L149.358 157.152ZM150.082 158.038C150.251 158.393 150.346 158.837 150.346 159.39H151.597C151.597 158.695 151.476 158.06 151.213 157.503L150.082 158.038ZM150.346 159.39C150.346 160.512 149.968 161.317 149.25 161.889L150.029 162.867C151.087 162.024 151.597 160.836 151.597 159.39H150.346ZM149.251 161.889C148.518 162.47 147.478 162.797 146.058 162.797V164.048C147.661 164.048 149.009 163.678 150.029 162.868L149.251 161.889ZM159.163 159.822H158.538V160.448H159.163V159.822ZM163.843 159.822H164.468V159.197H163.843V159.822ZM163.843 163.134V163.76H164.468V163.134H163.843ZM155.563 163.134H154.938V163.76H155.563V163.134ZM155.563 150.534V149.909H154.938V150.534H155.563ZM163.753 150.534H164.378V149.909H163.753V150.534ZM163.753 153.81V154.436H164.378V153.81H163.753ZM159.163 153.81V153.185H158.538V153.81H159.163ZM159.163 155.178H158.538V155.804H159.163V155.178ZM163.303 155.178H163.928V154.553H163.303V155.178ZM163.303 158.418V159.044H163.928V158.418H163.303ZM159.163 158.418V157.793H158.538V158.418H159.163ZM159.163 160.448H163.843V159.197H159.163V160.448ZM163.218 159.822V163.134H164.468V159.822H163.218ZM163.843 162.509H155.563V163.76H163.843V162.509ZM156.188 163.134V150.534H154.938V163.134H156.188ZM155.563 151.16H163.753V149.909H155.563V151.16ZM163.128 150.534V153.81H164.378V150.534H163.128ZM163.753 153.185H159.163V154.436H163.753V153.185ZM158.538 153.81V155.178H159.788V153.81H158.538ZM159.163 155.804H163.303V154.553H159.163V155.804ZM162.678 155.178V158.418H163.928V155.178H162.678ZM163.303 157.793H159.163V159.044H163.303V157.793ZM158.538 158.418V159.822H159.788V158.418H158.538Z" fill="#0D0C0C"/>
</svg>
