<svg width="280" height="184" viewBox="0 0 280 184" fill="none" xmlns="http://www.w3.org/2000/svg">
<path d="M132.679 112.649L100.838 95.2248L102.866 131.465L84.0033 100.452L67.6388 132.85L66.8173 96.5631L36.4403 116.432L53.8715 84.5979L17.6311 86.6186L48.6441 67.763L16.2465 51.3985L52.5332 50.5704L32.6573 20.2L64.4985 37.6245L62.4711 1.3842L81.3333 32.4038L97.6978 -0.000488281L98.5193 36.2929L128.896 16.417L111.465 48.2515L147.705 46.2308L116.692 65.0864L149.09 81.4508L112.803 82.279L132.679 112.649Z" fill="#C9DCF7"/>
<path d="M228.01 112.749L214.912 105.581L215.747 120.488L207.989 107.727L201.258 121.057L200.92 106.131L188.424 114.306L195.593 101.208L180.686 102.043L193.44 94.2845L180.116 87.5532L195.043 87.2087L186.867 74.7134L199.966 81.8886L199.131 66.975L206.889 79.7354L213.62 66.4053L213.958 81.3387L226.453 73.1631L219.285 86.2547L234.192 85.4265L221.438 93.1847L234.762 99.916L219.835 100.254L228.01 112.749Z" fill="#C9DCF7"/>
<path d="M140 183C216.803 183 279.063 178.75 279.063 173.508C279.063 168.265 216.803 164.015 140 164.015C63.1973 164.015 0.936523 168.265 0.936523 173.508C0.936523 178.75 63.1973 183 140 183Z" fill="#C9DCF7" stroke="#273D5B" stroke-miterlimit="10"/>
<path d="M141.734 94.6606H69.4587C67.9951 94.6606 66.8086 95.8471 66.8086 97.3108V169.586C66.8086 171.05 67.9951 172.236 69.4587 172.236H141.734C143.198 172.236 144.384 171.05 144.384 169.586V97.3108C144.384 95.8471 143.198 94.6606 141.734 94.6606Z" fill="#142844" stroke="#0C0D0D" stroke-width="2" stroke-miterlimit="10"/>
<path d="M118.58 94.6606H46.3043C44.8407 94.6606 43.6542 95.8471 43.6542 97.3108V169.586C43.6542 171.05 44.8407 172.236 46.3043 172.236H118.58C120.043 172.236 121.23 171.05 121.23 169.586V97.3108C121.23 95.8471 120.043 94.6606 118.58 94.6606Z" fill="#3C6CAF" stroke="#0C0D0D" stroke-width="2" stroke-miterlimit="10"/>
<path d="M109.662 103.578H55.2219C53.7583 103.578 52.5718 104.765 52.5718 106.228V160.668C52.5718 162.132 53.7583 163.318 55.2219 163.318H109.662C111.126 163.318 112.312 162.132 112.312 160.668V106.228C112.312 104.765 111.126 103.578 109.662 103.578Z" stroke="#0C0D0D" stroke-width="2" stroke-miterlimit="10"/>
<path d="M233.665 94.6606H161.39C159.926 94.6606 158.74 95.8471 158.74 97.3108V169.586C158.74 171.05 159.926 172.236 161.39 172.236H233.665C235.129 172.236 236.316 171.05 236.316 169.586V97.3108C236.316 95.8471 235.129 94.6606 233.665 94.6606Z" fill="#142844" stroke="#0C0D0D" stroke-width="2" stroke-miterlimit="10"/>
<path d="M210.511 94.6606H138.236C136.772 94.6606 135.586 95.8471 135.586 97.3108V169.586C135.586 171.05 136.772 172.236 138.236 172.236H210.511C211.975 172.236 213.161 171.05 213.161 169.586V97.3108C213.161 95.8471 211.975 94.6606 210.511 94.6606Z" fill="#3C6CAF" stroke="#0C0D0D" stroke-width="2" stroke-miterlimit="10"/>
<path d="M201.593 103.578H147.153C145.69 103.578 144.503 104.765 144.503 106.228V160.668C144.503 162.132 145.69 163.318 147.153 163.318H201.593C203.057 163.318 204.243 162.132 204.243 160.668V106.228C204.243 104.765 203.057 103.578 201.593 103.578Z" stroke="#0C0D0D" stroke-width="2" stroke-miterlimit="10"/>
<path d="M188.036 17.0864H115.76C114.297 17.0864 113.11 18.2729 113.11 19.7365V92.0118C113.11 93.4755 114.297 94.662 115.76 94.662H188.036C189.499 94.662 190.686 93.4755 190.686 92.0118V19.7365C190.686 18.2729 189.499 17.0864 188.036 17.0864Z" fill="#142844" stroke="#0C0D0D" stroke-width="2" stroke-miterlimit="10"/>
<path d="M164.881 17.0864H92.6059C91.1423 17.0864 89.9558 18.2729 89.9558 19.7365V92.0118C89.9558 93.4755 91.1423 94.662 92.6059 94.662H164.881C166.345 94.662 167.531 93.4755 167.531 92.0118V19.7365C167.531 18.2729 166.345 17.0864 164.881 17.0864Z" fill="#3C6CAF" stroke="#0C0D0D" stroke-width="2" stroke-miterlimit="10"/>
<path d="M155.964 26.0039H101.524C100.06 26.0039 98.8734 27.1904 98.8734 28.654V83.094C98.8734 84.5577 100.06 85.7442 101.524 85.7442H155.964C157.427 85.7442 158.614 84.5577 158.614 83.094V28.654C158.614 27.1904 157.427 26.0039 155.964 26.0039Z" stroke="#0C0D0D" stroke-width="2" stroke-miterlimit="10"/>
<path d="M61.1699 154.102L61.3222 112.681L83.2586 112.761C90.1688 112.787 95.1841 113.807 98.2914 115.815C101.399 117.822 102.949 121.049 102.929 125.481C102.929 127.038 102.717 128.476 102.313 129.794C101.909 131.113 101.505 132.047 101.1 132.61L100.498 133.445C101.856 134.127 102.803 135.79 103.353 138.434C103.592 139.514 103.704 140.753 103.698 142.15C103.684 145.907 102.525 148.862 100.219 151.008C97.9137 153.155 94.462 154.222 89.8706 154.208L61.1566 154.102H61.1699ZM86.9489 135.797L81.854 135.777L81.8408 139.196L86.9356 139.215C87.3729 139.215 87.7638 139.05 88.1083 138.712C88.4462 138.374 88.6184 137.963 88.6184 137.486C88.6184 137.009 88.4661 136.605 88.1414 136.287C87.8234 135.969 87.4259 135.803 86.9422 135.803L86.9489 135.797ZM86.9489 127.694L81.854 127.674L81.8408 131.093L86.9356 131.113C87.3729 131.113 87.7638 130.947 88.1083 130.609C88.4462 130.271 88.6184 129.861 88.6184 129.384C88.6184 128.906 88.4661 128.502 88.1414 128.184C87.8234 127.866 87.4259 127.701 86.9422 127.701L86.9489 127.694Z" fill="white" stroke="#0C0D0D" stroke-width="2" stroke-miterlimit="10"/>
<path d="M130.425 76.9724L130.087 70.5591L126.43 70.5458L126.045 76.9591L107.163 76.8862C107.587 70.3338 108.429 63.6158 109.694 56.7255C110.959 49.8352 112.119 44.5747 113.172 40.944L114.69 35.498L143.099 35.604C143.536 37.0417 144.086 39.0426 144.755 41.6066C145.424 44.1639 146.405 49.0733 147.697 56.3346C148.989 63.5893 149.863 70.4995 150.314 77.0519L130.411 76.979L130.425 76.9724ZM127.384 55.6853L126.867 65.0336L129.683 65.0468L129.298 55.6919L126.867 55.6853H127.384Z" fill="white" stroke="#0C0D0D" stroke-width="2" stroke-miterlimit="10"/>
<path d="M177.908 131.863L177.895 135.162C178.69 135.248 180.094 135.288 182.089 135.295C185.845 135.308 189.204 135.202 192.159 134.97L193.597 134.857L193.53 152.779C189.648 154.124 184.142 154.78 177.007 154.753C169.872 154.727 164.426 152.891 160.662 149.241C156.899 145.59 155.031 140.177 155.057 133.002C155.084 125.827 156.959 120.553 160.689 117.168C164.419 113.789 169.958 112.106 177.312 112.133C180.386 112.146 183.294 112.338 186.031 112.702C188.767 113.073 190.715 113.438 191.874 113.802L193.67 114.345L193.603 132.804C190.132 132.194 184.898 131.869 177.901 131.843L177.908 131.863Z" fill="white" stroke="#0C0D0D" stroke-width="2" stroke-miterlimit="10"/>
<path d="M248.803 5.62272C249.502 6.69926 249.991 7.93773 250.255 9.25343C251.112 13.4836 251.209 17.8674 250.57 22.134C250.539 22.3386 250.506 22.5801 250.469 22.8502C250.239 24.5306 249.857 27.3212 248.948 29.2487L248.803 5.62272ZM248.803 5.62272C248.564 5.25151 248.303 4.90247 248.014 4.57551L248.803 5.62272ZM265.022 36.6595L265.022 36.6599C265.106 41.4124 262.111 45.8485 258.279 49.0002C257.632 49.5303 256.895 50.0536 256.076 50.5553L256.076 50.5552L256.07 50.5591C254.66 51.4411 253.022 52.2579 251.255 52.9645L251.255 52.9647C248.396 54.11 245.227 54.9471 242.151 55.2589C240.68 55.408 239.242 55.4377 237.872 55.3228C237.33 55.2766 236.8 55.21 236.285 55.1226C232.884 54.53 230.122 52.9439 228.607 50.0182L228.32 49.4655L227.724 49.6451C227.472 49.7211 227.168 49.7247 226.797 49.6665C226.465 49.6145 226.134 49.5234 225.775 49.4247C225.725 49.411 225.675 49.3972 225.624 49.3834C221.987 48.3909 218.405 47.1956 214.901 45.8056C214.699 45.7256 214.567 45.6525 214.484 45.5959C214.507 45.5815 214.535 45.5659 214.567 45.5497C214.738 45.4639 214.979 45.3887 215.267 45.3531L215.269 45.3529C215.466 45.3282 215.662 45.304 215.86 45.2796C215.927 45.2714 215.994 45.2632 216.061 45.2549L216.061 45.2548C218.675 44.931 221.289 44.6076 223.903 44.2842L224.316 44.2331L224.316 44.2331C224.609 44.1969 224.895 44.1521 225.181 44.1074C225.663 44.032 226.145 43.9565 226.663 43.9214L227.304 43.878L227.36 43.2387C227.612 40.3699 229.027 37.6126 231.16 35.6412C231.723 35.1253 232.332 34.6646 232.982 34.2662C233.57 33.9107 234.198 33.6094 234.846 33.3694C235.249 33.2229 235.66 33.099 236.078 32.9925L238.218 32.4481L236.189 31.5765C232.933 30.1777 229.664 28.1546 227.046 25.6448L227.046 25.6448L227.041 25.6402C226.787 25.4015 226.542 25.156 226.302 24.9042L226.301 24.9035C225.222 23.7763 224.285 22.5685 223.532 21.2882C222.383 19.3325 222.012 17.1536 222.502 15.2861L222.503 15.2814C222.596 14.9192 222.723 14.5697 222.884 14.2374L222.884 14.2374L222.888 14.2299C223.408 13.1273 224.293 12.1579 225.615 11.4503C227.258 10.5706 228.981 10.4201 230.615 10.8104L230.619 10.8112C231.003 10.901 231.38 11.0229 231.758 11.1751L231.761 11.1764C232.681 11.5425 233.557 12.076 234.354 12.747L235.684 13.8666L235.586 12.1308C235.536 11.2526 235.544 10.3847 235.616 9.53293C235.807 7.27272 236.763 5.27956 238.242 4.03803L238.242 4.03804L238.246 4.03458C238.53 3.79269 238.836 3.5811 239.16 3.40223L239.16 3.40227L239.167 3.39836C240.228 2.79876 241.511 2.5189 242.999 2.7048C244.848 2.93586 246.341 3.80822 247.45 5.07043L247.452 5.07299C247.714 5.36819 247.951 5.68616 248.172 6.02906L248.174 6.0312C248.817 7.02184 249.273 8.1704 249.52 9.40107L249.52 9.40231C250.359 13.5451 250.454 17.8409 249.828 22.023C249.795 22.2404 249.761 22.4913 249.723 22.7685C249.602 23.6518 249.445 24.8017 249.191 25.9831C248.854 27.5567 248.376 29.0225 247.699 29.8852L246.006 32.044L248.562 31.0468C249.562 30.6567 250.542 30.1413 251.474 29.6512C251.834 29.4617 252.187 29.2761 252.531 29.1029C253.804 28.4627 255.02 27.9542 256.315 27.81L256.316 27.8099C258.551 27.5588 260.695 28.5524 262.318 30.258C263.943 31.9659 264.982 34.327 265.022 36.6595Z" fill="#FFD037" stroke="#0C0D0D" stroke-width="1.5"/>
<path d="M249.522 9.40231L249.522 9.40107C249.275 8.1704 248.819 7.02185 248.176 6.0312L248.175 6.02906C247.954 5.68615 247.716 5.36818 247.454 5.07299L247.452 5.07043C246.344 3.80822 244.85 2.93586 243.001 2.7048C241.513 2.5189 240.23 2.79876 239.169 3.39836L239.162 3.40227L239.162 3.40223C238.838 3.58109 238.532 3.79269 238.248 4.03458L238.244 4.03804L238.244 4.03803C236.765 5.27955 235.809 7.27269 235.618 9.53289C235.618 9.5329 235.618 9.53292 235.618 9.53293L234.871 9.46973C234.823 10.038 234.802 10.6119 234.807 11.1897L249.522 9.40231ZM249.522 9.40231C250.361 13.5451 250.456 17.8408 249.83 22.0229C249.797 22.2403 249.763 22.4913 249.725 22.7685C249.604 23.6518 249.447 24.8017 249.193 25.9831C248.876 27.4633 248.434 28.848 247.82 29.7253C247.794 29.7347 247.769 29.744 247.743 29.7532L247.743 29.7532L247.739 29.7549C247.594 29.8084 247.458 29.8549 247.32 29.8947L247.31 29.8978M249.522 9.40231L247.31 29.8978M226.529 26.1862C226.264 25.9369 226.01 25.6818 225.762 25.4222C224.648 24.2586 223.674 23.005 222.888 21.6684M226.529 26.1862L242.756 30.6968C242.498 30.7183 242.239 30.7381 241.979 30.7573L241.979 30.7573C241.74 30.775 241.502 30.792 241.262 30.8091C240.279 30.879 239.276 30.9506 238.283 31.0714L238.281 31.0715C237.508 31.1669 236.731 31.2941 235.962 31.4769C232.782 30.0824 229.604 28.0956 227.048 25.6448L227.048 25.6448L227.043 25.6402C226.789 25.4015 226.544 25.156 226.304 24.9042L226.303 24.9035C225.224 23.7764 224.288 22.5686 223.535 21.2883L222.888 21.6684M226.529 26.1862C229.222 28.7684 232.572 30.8377 235.896 32.2656L226.529 26.1862ZM222.888 21.6684C221.656 19.5721 221.229 17.1891 221.779 15.0958L223.535 21.2882M222.888 21.6684L223.535 21.2882M223.535 21.2882C222.385 19.3325 222.014 17.1536 222.504 15.2861L222.505 15.2814C222.598 14.9192 222.725 14.5697 222.886 14.2374L222.887 14.2374M223.535 21.2882L222.887 14.2374M222.887 14.2374L222.89 14.2299M222.887 14.2374L222.89 14.2299M222.89 14.2299C223.41 13.1273 224.295 12.1579 225.617 11.4503L222.89 14.2299ZM247.31 29.8978L247.299 29.9012M247.31 29.8978L247.299 29.9012M247.299 29.9012C246.795 30.0641 246.278 30.1943 245.75 30.3008C244.781 30.4963 243.782 30.6094 242.756 30.6967L247.299 29.9012Z" fill="#B2CED3" stroke="#0C0D0D" stroke-width="1.5"/>
<path d="M236.246 14.5851L236.246 14.5849C235.781 14.0937 235.301 13.6156 234.809 13.1521L234.808 13.1514C234.661 13.0122 234.51 12.878 234.357 12.749L234.356 12.7486C233.559 12.0776 232.683 11.5441 231.763 11.1779L231.76 11.1767L231.76 11.1767C231.383 11.0245 231.005 10.9026 230.621 10.8128L230.617 10.812C228.983 10.4217 227.261 10.5722 225.617 11.4518L236.246 14.5851ZM236.246 14.5851C236.538 14.8926 236.824 15.2059 237.105 15.5243C239.175 17.8694 240.942 20.4845 242.351 23.2768C242.449 23.4729 242.566 23.6972 242.695 23.9448C243.085 24.6941 243.586 25.6575 244.044 26.7049L236.246 14.5851ZM222.887 14.239L222.886 14.239C222.725 14.5713 222.598 14.9208 222.505 15.283L222.504 15.2877C222.014 17.1553 222.385 19.3342 223.535 21.2899C224.288 22.5702 225.224 23.778 226.303 24.9051L226.304 24.9058C226.544 25.1576 226.789 25.4031 227.043 25.6418L227.048 25.6464L227.048 25.6464C229.604 28.0972 232.782 30.084 235.962 31.4785C236.732 31.2957 237.508 31.1685 238.281 31.0731L238.283 31.073C239.276 30.9522 240.279 30.8806 241.262 30.8107L241.262 30.8107M222.887 14.239L241.32 31.5584L241.315 31.5588L241.262 30.8107M222.887 14.239L222.89 14.2315M222.887 14.239L222.89 14.2315M241.262 30.8107L241.264 30.8105C241.503 30.7935 241.741 30.7765 241.979 30.7589L241.979 30.7589C242.239 30.7397 242.498 30.7199 242.756 30.6983L241.262 30.8107ZM222.89 14.2315C223.41 13.1289 224.295 12.1595 225.617 11.4519L222.89 14.2315ZM244.044 26.705C244.188 27.0349 244.326 27.3702 244.453 27.7056L244.044 26.705ZM244.453 27.7056C244.828 28.6912 245.086 29.627 245.145 30.4136C244.367 30.5435 243.57 30.6291 242.756 30.6983L244.453 27.7056Z" fill="#E8F5F8" stroke="#0C0D0D" stroke-width="1.5"/>
<path d="M243.275 10.3431C243.429 10.665 243.576 10.986 243.71 11.3144L243.706 11.3181C241.57 13.0296 239.252 13.785 236.79 14.0671C237.088 14.3815 237.38 14.7013 237.667 15.0261C239.961 14.5937 242.174 13.582 244.046 12.1514C245.74 16.6566 245.924 21.7331 244.731 26.4028C244.879 26.7421 245.022 27.0888 245.154 27.4374C246.666 22.1199 246.969 16.666 244.958 11.3973C246.717 9.81692 248.09 7.83944 248.805 5.62246C248.565 5.25126 248.305 4.90221 248.015 4.57525C247.343 6.82293 246.331 8.83661 244.605 10.5273L244.553 10.4037C243.294 7.53689 241.424 5.03239 239.072 2.97886L238.8 2.74512C238.431 2.94865 238.083 3.18914 237.761 3.46327C240.08 5.35451 241.957 7.63946 243.275 10.3431Z" fill="#8AAEB1"/>
<path d="M241.315 31.5558C241.554 31.5388 241.794 31.5216 242.034 31.5039C240.224 25.8391 237.25 20.7747 232.236 17.4142C232.759 15.1083 232.738 12.7008 232.04 10.4783C231.63 10.3131 231.216 10.179 230.791 10.0796C231.541 12.3027 231.877 14.5312 231.445 16.9078L231.331 16.8373C228.648 15.2239 225.674 14.26 222.568 13.9424L222.211 13.9088C222.028 14.2874 221.883 14.6845 221.778 15.0944C224.764 15.2987 227.616 16.0803 230.253 17.5257C230.565 17.699 230.87 17.8765 231.17 18.0675L231.168 18.0729C230.238 21.3156 228.241 23.5332 225.761 25.4208C226.009 25.6805 226.264 25.9355 226.528 26.1849C229.08 24.37 230.979 21.5951 231.927 18.557C236.425 21.6039 239.774 26.356 241.315 31.5558Z" fill="#B2CED3"/>
<path d="M227.536 43.2935C226.629 43.3514 225.751 43.5273 225.001 43.6148C222.031 43.9614 219.061 44.3079 216.091 44.6549C215.806 44.6882 215.52 44.7212 215.235 44.7549C213.68 44.9359 212.708 45.96 214.64 46.6829C218.451 48.1083 222.345 49.334 226.3 50.3518C227.158 50.5727 228.145 50.8595 229.014 50.6127C228.123 48.9914 227.595 46.9885 227.536 44.5481C227.526 44.1285 227.497 43.7098 227.536 43.2935Z" fill="#0C0D0D"/>
<path d="M239.575 47.8637C238.447 42.8166 237.435 37.6086 238.262 32.5046C238.296 32.2778 238.337 32.0469 238.373 31.8154C237.536 31.9185 236.708 32.0585 235.895 32.2652C235.455 32.3772 235.019 32.5084 234.589 32.6649C233.896 32.9214 233.224 33.244 232.594 33.6255C232.194 35.6274 232.154 37.6982 232.293 39.7348C232.383 41.0485 232.549 42.3581 232.752 43.659C233.395 47.8443 234.381 52.0344 236.16 55.8614C236.697 55.9526 237.248 56.0218 237.811 56.0697C239.234 56.1891 240.719 56.1576 242.228 56.0047C241.909 55.3685 241.61 54.7198 241.34 54.0577C240.535 52.0649 240.043 49.9641 239.575 47.8637Z" fill="#0C0D0D"/>
<path d="M252.767 45.9983C251.238 43.1123 249.754 40.1848 248.748 37.0767C248.071 34.9871 247.616 32.8031 247.528 30.6143C246.992 30.7872 246.448 30.9242 245.897 31.0353C244.886 31.239 243.854 31.3551 242.816 31.4434C242.661 34.0897 243.31 36.6594 244.17 39.1558C245.942 44.3 248.429 49.1925 251.534 53.6602C253.336 52.9396 255.015 52.1033 256.468 51.1943C254.86 49.8427 253.769 47.8853 252.767 45.9983Z" fill="#0C0D0D"/>
<path d="M258.766 35.6976C259.348 35.3411 259.531 34.5806 259.175 33.9988C258.818 33.4167 258.058 33.2339 257.476 33.5903C256.894 33.9467 256.711 34.7073 257.067 35.2894C257.424 35.8712 258.184 36.0539 258.766 35.6976Z" fill="#0C0D0D"/>
<path d="M249.522 9.40231L249.522 9.40107C249.275 8.1704 248.819 7.02185 248.176 6.0312L248.175 6.02906C247.954 5.68615 247.716 5.36818 247.454 5.07299L247.452 5.07043C246.344 3.80822 244.85 2.93586 243.001 2.7048C241.513 2.5189 240.23 2.79876 239.169 3.39836L239.162 3.40227L239.162 3.40223C238.838 3.58109 238.532 3.79269 238.248 4.03458L238.244 4.03804L238.244 4.03803C236.765 5.27955 235.809 7.27269 235.618 9.53289C235.618 9.5329 235.618 9.53292 235.618 9.53293L234.871 9.46973C234.823 10.038 234.802 10.6119 234.807 11.1897L249.522 9.40231ZM249.522 9.40231C250.361 13.5451 250.456 17.8408 249.83 22.0229C249.797 22.2403 249.763 22.4913 249.725 22.7685C249.604 23.6518 249.447 24.8017 249.193 25.9831C248.876 27.4633 248.434 28.848 247.82 29.7253C247.794 29.7347 247.769 29.744 247.743 29.7532L247.743 29.7532L247.739 29.7549C247.594 29.8084 247.458 29.8549 247.32 29.8947L247.31 29.8978M249.522 9.40231L247.31 29.8978M226.529 26.1862C226.264 25.9369 226.01 25.6818 225.762 25.4222C224.648 24.2586 223.674 23.005 222.888 21.6684M226.529 26.1862L242.756 30.6968C242.498 30.7183 242.239 30.7381 241.979 30.7573L241.979 30.7573C241.74 30.775 241.502 30.792 241.262 30.8091C240.279 30.879 239.276 30.9506 238.283 31.0714L238.281 31.0715C237.508 31.1669 236.731 31.2941 235.962 31.4769C232.782 30.0824 229.604 28.0956 227.048 25.6448L227.048 25.6448L227.043 25.6402C226.789 25.4015 226.544 25.156 226.304 24.9042L226.303 24.9035C225.224 23.7764 224.288 22.5686 223.535 21.2883L222.888 21.6684M226.529 26.1862C229.222 28.7684 232.572 30.8377 235.896 32.2656L226.529 26.1862ZM222.888 21.6684C221.656 19.5721 221.229 17.1891 221.779 15.0958L223.535 21.2882M222.888 21.6684L223.535 21.2882M223.535 21.2882C222.385 19.3325 222.014 17.1536 222.504 15.2861L222.505 15.2814C222.598 14.9192 222.725 14.5697 222.886 14.2374L222.887 14.2374M223.535 21.2882L222.887 14.2374M222.887 14.2374L222.89 14.2299M222.887 14.2374L222.89 14.2299M222.89 14.2299C223.41 13.1273 224.295 12.1579 225.617 11.4503L222.89 14.2299ZM247.31 29.8978L247.299 29.9012M247.31 29.8978L247.299 29.9012M247.299 29.9012C246.795 30.0641 246.278 30.1943 245.75 30.3008C244.781 30.4963 243.782 30.6094 242.756 30.6967L247.299 29.9012Z" stroke="#0C0D0D" stroke-width="1.5"/>
<path d="M260.824 39.8249C261.23 40.7572 262.202 41.3149 263.197 41.1901C264.23 41.0591 265.054 40.2214 265.17 39.1699C265.031 39.3446 264.28 40.2411 262.972 40.3753C261.855 40.4899 261.044 39.9774 260.821 39.8252L260.824 39.8249Z" fill="#0C0D0D"/>
<path d="M260.652 39.8901C261.107 40.9039 262.189 41.5467 263.303 41.3613C264.417 41.1759 265.216 40.29 265.35 39.2044C265.373 39.0308 265.149 38.9023 265.029 39.0518C264.046 40.2702 262.249 40.5681 260.942 39.6844C260.747 39.5534 260.508 39.8345 260.706 39.9653C261.473 40.4846 262.429 40.6945 263.338 40.5003C264.105 40.3361 264.819 39.8985 265.31 39.2878L264.989 39.1352C264.876 40.0474 264.196 40.8342 263.271 40.9913C262.347 41.1484 261.388 40.631 260.996 39.7597C260.9 39.546 260.553 39.6708 260.649 39.8874L260.652 39.8901Z" fill="#0C0D0D"/>
</svg>
