<svg width="273" height="163" viewBox="0 0 273 163" fill="none" xmlns="http://www.w3.org/2000/svg">
<path d="M232.771 113.12L206.485 98.7299L208.159 128.647L192.593 103.045L179.078 129.79L178.4 99.8347L153.328 116.243L167.713 89.957L137.795 91.6306L163.397 76.0593L136.652 62.55L166.608 61.8718L150.205 36.7947L176.486 51.1846L174.812 21.2671L190.383 46.8693L203.893 20.124L204.576 50.0798L229.648 33.6717L215.258 59.9575L245.175 58.2839L219.573 73.8552L246.319 87.3645L216.363 88.0482L232.771 113.12Z" fill="#DAF5B7"/>
<path d="M39.7884 142.474L28.9754 136.551L29.6645 148.862L23.2599 138.328L17.703 149.333L17.4241 137.01L7.10884 143.759L13.0267 132.946L0.72061 133.63L11.2492 127.225L0.250244 121.669L12.5727 121.39L5.82354 111.074L16.6365 116.992L15.9474 104.686L22.352 115.22L27.9089 104.216L28.1878 116.538L38.5031 109.789L32.5852 120.602L44.8913 119.913L34.3627 126.318L45.3617 131.88L33.0391 132.159L39.7884 142.474Z" fill="#DAF5B7"/>
<path d="M139.681 162C212.62 162 271.75 157.967 271.75 152.992C271.75 148.017 212.62 143.984 139.681 143.984C66.7411 143.984 7.61182 148.017 7.61182 152.992C7.61182 157.967 66.7411 162 139.681 162Z" fill="#DAF5B7" stroke="#456818" stroke-miterlimit="10"/>
<path d="M100.782 134.599C102.127 133.751 104.665 131.902 106.569 128.604C107.143 127.609 108.685 124.863 108.822 121.16C108.849 120.444 109.024 111.633 101.816 107.492C95.3345 103.773 88.6181 107.11 88.1149 107.367C82.5526 110.249 80.9282 115.68 80.6602 116.632C82.7713 116.676 87.1414 117.069 91.5059 119.902C99.0919 124.825 100.558 133.138 100.787 134.599H100.782Z" fill="#FFD037"/>
<path d="M85.4996 109.002C85.1332 108.023 84.6027 106.158 84.9965 103.893C85.6747 99.9881 88.5898 97.8824 89.2845 97.412C89.5853 97.2096 91.0237 96.2525 93.1896 95.8259C97.1658 95.0383 100.333 96.6627 100.967 97.0018C104.905 99.113 106.283 102.794 106.65 103.915C107.919 107.793 106.847 111.091 106.469 112.108C99.4794 111.074 92.484 110.041 85.4942 109.007L85.4996 109.002Z" fill="#FFD037"/>
<path d="M85.6152 101.68C85.112 101.368 84.2752 100.761 83.597 99.7273C82.4648 97.999 82.5304 96.2488 82.5578 95.7566C82.5797 95.4065 82.7656 92.7375 84.926 90.949C87.5513 88.7776 90.9861 89.6582 91.9542 89.9043C96.5539 91.0802 98.5667 95.3901 98.8729 96.0738C94.4537 97.9443 90.0344 99.8094 85.6152 101.68Z" fill="#FFD037"/>
<path d="M100.781 134.599C101.093 133.341 102.575 126.778 98.7413 121.122C98.1287 120.22 96.4113 117.748 93.1078 116.145C90.1926 114.729 87.6056 114.745 87.0423 114.756C83.9357 114.822 81.6713 116.014 80.6486 116.632C80.7908 115.631 81.1627 114.154 82.2894 112.913C85.1717 109.746 90.4989 110.867 91.5928 111.13C98.9217 112.907 104.697 122.003 103.073 129.6C102.581 131.902 101.509 133.603 100.776 134.593L100.781 134.599Z" fill="#F18300"/>
<path d="M85.5007 109.001C84.6201 106.983 84.6967 105.659 85.1944 104.768C87.5134 100.595 101.695 101.038 105.469 107.896C106.323 109.45 106.476 111.025 106.476 112.102C105.765 110.97 103.451 107.628 99.1249 106.327C95.4877 105.233 92.321 106.146 90.5708 106.649C88.3119 107.3 86.6 108.268 85.5007 109.001Z" fill="#F18300"/>
<path d="M85.6141 101.678C84.7663 101.29 83.8092 100.672 83.5959 99.7255C83.0544 97.319 87.4518 93.3209 92.0187 93.1951C95.5301 93.0966 98.0733 95.3172 98.8664 96.072C98.1007 95.8641 93.0634 94.5952 88.8684 97.6964C87.0908 99.009 86.1173 100.622 85.6141 101.673V101.678Z" fill="#F18300"/>
<path d="M100.78 134.599C106.206 131.083 109.28 125.17 108.782 119.192C108.705 118.284 107.989 111.054 101.808 107.493C95.6336 103.938 87.61 106.115 83.5353 110.851C81.7414 112.941 80.9921 115.194 80.653 116.632" stroke="#0D0D0C" stroke-width="2" stroke-miterlimit="10"/>
<path d="M106.474 112.109C106.698 111.507 108.58 106.175 105.347 101.137C104.975 100.558 101.754 95.7117 95.8854 95.5695C91.9803 95.4765 87.4024 97.4729 85.6139 101.679C84.2302 104.939 85.16 108.034 85.4936 109.008" stroke="#0D0D0C" stroke-width="2" stroke-miterlimit="10"/>
<path d="M85.6151 101.679C85.1939 101.411 83.1593 100.054 82.6014 97.429C82.0654 94.8912 83.1703 92.3862 84.9259 90.9423C87.5622 88.7765 90.8875 89.6297 91.9541 89.8977C96.5593 91.0791 98.5665 95.3835 98.8728 96.0671" stroke="#0D0D0C" stroke-width="2" stroke-miterlimit="10"/>
<path d="M47.3724 143.563C48.696 145.16 53.8154 150.974 62.5718 152.341C64.7158 152.675 72.2909 153.856 78.9417 148.945C84.247 145.023 88.8631 137.289 86.6808 129.189C84.6353 121.592 77.8204 118.185 76.6664 117.627C77.1641 119.913 77.7603 124.168 76.475 129.173C75.9335 131.284 74.1286 138.301 67.6365 142.524C58.6722 148.348 48.2694 143.962 47.3724 143.568V143.563Z" fill="#FFD037"/>
<path d="M77.8589 149.682C79.8443 149.939 87.042 150.623 93.113 145.919C100.201 140.433 103.341 129.478 98.9707 122.16C97.2424 119.261 93.7584 115.974 88.7976 115.274C83.1806 114.481 79.0129 117.489 78.1378 118.151C79.7349 119.097 84.6628 122.297 86.4513 128.362C88.6281 135.757 85.2535 144.388 77.8589 149.677V149.682Z" fill="#FFD037"/>
<path d="M47.3724 143.563C49.0844 145.187 51.83 147.282 55.5984 148.228C66.6793 151.007 79.062 141.988 82.0756 132.219C83.6344 127.166 82.8523 121.373 81.1622 120.105C80.4293 119.552 79.4175 118.967 79.4175 118.967C78.3127 118.322 77.3446 117.895 76.6664 117.627C77.0164 119.082 77.3665 121.122 77.3173 123.561C77.3009 124.524 77.1751 127.778 75.671 131.711C74.6701 134.33 73.0894 138.476 68.9272 141.566C65.4815 144.126 61.9811 144.684 59.8043 145.007C54.3131 145.816 49.8172 144.503 47.3779 143.563H47.3724Z" fill="#F18300"/>
<path d="M77.8589 149.682C85.0456 144.809 88.5242 136.55 86.681 129.183C85.0019 122.472 79.5325 118.983 78.1378 118.151C78.6574 117.604 79.3958 117.03 80.3693 116.828C83.8588 116.1 87.6108 120.793 89.1367 123.446C92.7465 129.719 92.7082 139.919 86.3638 145.717C83.3447 148.473 79.8607 149.354 77.8589 149.682Z" fill="#F18300"/>
<path d="M47.3724 143.563C48.6906 145.16 53.8154 150.974 62.5718 152.341C64.7268 152.675 72.3128 153.862 78.9417 148.945C84.7228 144.651 88.8959 136.354 86.4566 128.374C84.597 122.292 79.7238 119.109 78.1431 118.163" stroke="#0D0D0C" stroke-width="2" stroke-miterlimit="10"/>
<path d="M77.8589 149.682C78.3675 149.753 90.0228 151.159 96.8267 142.32C101.115 136.752 102.931 127.826 98.5277 121.482C98.0628 120.815 94.1084 115.312 87.1678 115.132C82.5352 115.012 79.2208 117.331 78.1378 118.157" stroke="#0D0D0C" stroke-width="2" stroke-miterlimit="10"/>
<path d="M33.2999 92.3731C32.5232 93.6967 27.0539 103.399 31.2762 113.239C33.3601 118.101 36.8878 120.836 38.3427 121.935C45.6497 127.47 53.8429 126.868 56.1291 126.617C58.5903 126.343 66.3294 125.364 71.9246 118.725C73.1115 117.313 77.5909 111.822 77.0166 104.056C76.7213 100.09 75.2281 97.0932 74.2327 95.4415C72.2528 97.7441 68.5063 101.376 62.7197 103.35C61.3523 103.815 50.0581 107.469 40.4538 100.687C36.5049 97.8972 34.3609 94.4132 33.3054 92.3677L33.2999 92.3731Z" fill="#FFD037"/>
<path d="M35.4603 119.744C35.2798 120.504 32.7584 131.722 40.1968 139.297C45.9287 145.138 54.0452 145.204 56.4025 145.226C59.3451 145.248 61.5984 144.695 62.2329 144.537C63.9339 144.099 67.3304 143 70.6776 140.243C71.591 139.488 75.8298 135.873 77.8206 129.397C78.3293 127.735 79.7568 122.856 78.1269 116.954C77.2737 113.875 75.8899 111.594 74.8836 110.194C74.446 112.464 73.2099 117.097 69.3103 120.991C61.861 128.424 51.1355 126.723 49.1611 126.411C42.3408 125.328 37.6754 121.74 35.4603 119.755V119.744Z" fill="#FFD037"/>
<path d="M37.6152 68.1016C36.1276 69.8244 33.5953 73.2264 32.31 78.2035C31.8068 80.1615 30.7785 84.3511 32.042 89.3009C33.9179 96.6408 39.5678 100.628 41.0883 101.667C48.6853 106.863 60.5866 108.05 69.4361 101.536C70.0213 101.104 79.0403 94.2342 79.0348 82.7485C79.0348 77.9355 77.4487 74.1944 76.3658 72.1215C74.7414 73.3303 66.5154 79.1825 55.1555 77.5855C45.1138 76.1689 39.1576 69.8463 37.6207 68.1016H37.6152Z" fill="#FFD037"/>
<path d="M31.5818 81.9485C31.7787 79.9631 32.2162 78.2676 32.6756 76.9276C32.5006 76.7909 32.2654 76.6158 31.9865 76.4135C30.5481 75.3907 25.8499 72.0489 23.9137 73.2686C22.1526 74.3843 23.0933 79.0114 24.0286 81.4453C25.1498 84.3659 27.0805 86.2365 28.1579 87.2647C29.7058 88.7414 31.2372 89.6931 32.3529 90.2947C31.806 88.3914 31.2372 85.4707 31.5818 81.9485Z" fill="#FFD037"/>
<path d="M44.7421 73.8391C48.237 75.8792 52.0273 76.7269 53.1266 76.9512C57.8248 77.9193 61.5823 77.4872 62.9387 77.2903C65.2522 76.9621 70.5411 76.1472 75.655 72.078C79.2265 69.2393 81.2228 66.007 82.2456 64.0106C82.9019 62.7199 85.5436 57.2614 84.7998 49.9489C84.2146 44.206 81.8409 40.2954 81.3103 39.4477C79.0405 35.816 76.3551 33.7923 74.9659 32.7477C68.3424 27.7596 61.2869 27.2674 59.6243 27.1853C57.1685 27.065 49.216 26.8079 42.0402 32.425C31.9273 40.3446 32.3594 52.9023 32.3922 53.5094C32.9009 63.316 39.0758 70.5247 44.7476 73.8391H44.7421Z" fill="#FFD037"/>
<path d="M54.5098 65.7997C56.796 67.4022 59.9573 67.3913 62.2326 65.7778C62.5334 65.5645 62.6756 65.1817 62.4787 64.8426C62.3037 64.5472 61.8442 64.3831 61.5434 64.5964C59.6401 65.9474 57.1242 65.9692 55.2044 64.6183C54.9036 64.405 54.4442 64.5636 54.2691 64.8644C54.0668 65.2035 54.209 65.5864 54.5153 65.7997H54.5098Z" fill="#0D0D0C"/>
<path d="M74.3699 96.4095C73.4291 97.7386 71.8703 99.6529 69.4912 101.409C64.9625 104.761 60.3956 105.396 58.5907 105.62C57.3163 105.784 53.1651 106.205 48.1442 104.679C42.2482 102.891 38.6877 99.4888 37.8618 98.6684C35.5318 96.3603 34.1207 94.0085 33.3003 92.3677C32.9393 92.931 32.5729 93.4944 32.2119 94.0577C32.4635 95.4086 33.005 97.4761 34.2903 99.6419C41.4223 111.664 62.9662 112.265 71.4547 106.161C72.8111 105.188 75.8302 103.049 75.8138 100.008C75.8083 98.4387 74.9934 97.1753 74.3699 96.4095Z" fill="#F18300"/>
<path d="M35.4598 119.742C35.2957 120.557 35.1316 121.372 34.9675 122.192C35.8864 123.303 37.3084 124.829 39.3047 126.294C48.5699 133.104 62.7684 133.251 71.5631 126.776C73.4008 125.419 78.4873 121.782 78.1209 116.953C77.9568 114.754 76.7262 113.069 75.7964 112.058C75.0307 114.136 73.0672 118.572 68.4839 122.039C65.1913 124.528 62.0409 125.392 60.1704 125.884C53.0438 127.755 47.1861 126.114 45.6547 125.644C40.6611 124.112 37.2701 121.427 35.4598 119.742Z" fill="#F18300"/>
<path d="M37.6146 68.1016C37.3794 68.3805 37.1442 68.6649 36.9091 68.9438C37.8662 71.0058 39.6383 74.1343 42.8105 76.9948C50.4129 83.8479 59.8859 83.5963 62.2159 83.5361C67.6907 83.3885 71.9678 81.6765 73.8875 80.8999C75.9221 80.074 77.5575 79.1989 78.7279 78.5043C78.3997 77.4651 78.0278 76.3822 77.6176 75.2719C77.2074 74.1671 76.7863 73.117 76.3597 72.1215C74.7024 73.3576 66.7992 78.9692 55.7346 77.6401C45.2553 76.3822 39.0695 69.7533 37.6146 68.1016Z" fill="#F18300"/>
<path d="M42.0289 32.4251C44.5394 31.2 48.8656 29.4771 54.4663 29.1763C56.118 29.0888 63.9556 28.7989 72.3511 33.4807C78.2854 36.7897 81.8897 41.1378 83.7766 43.8233C82.918 41.9145 78.7558 33.2127 68.5991 29.138C66.8271 28.427 58.973 25.4899 49.8337 28.416C46.3333 29.5373 43.708 31.1781 42.0234 32.4251H42.0289Z" fill="#F18300"/>
<path d="M31.3469 84.1852C30.5648 83.7203 29.5475 83.053 28.4481 82.1232C27.8848 81.6474 26.6979 80.6355 25.6861 79.312C23.6022 76.5882 23.2905 73.8645 23.11 73.9027C22.7873 73.9738 22.5138 78.1306 24.3351 82.1834C26.3205 86.5917 29.9413 88.9927 31.9048 90.0811C31.8118 89.1732 31.7243 88.2598 31.6368 87.341C31.5383 86.2799 31.4399 85.2298 31.3414 84.1797L31.3469 84.1852Z" fill="#F18300"/>
<path d="M33.2999 92.3735C32.485 93.7245 27.3383 102.596 30.8825 112.249C34.7931 122.909 46.8257 127.503 56.1291 126.617C57.9449 126.442 65.0004 125.551 70.6339 119.759C71.7114 118.648 78.1652 112.014 76.9018 103.181C76.4697 100.156 75.2664 97.8374 74.364 96.4099" stroke="#0D0D0C" stroke-width="2" stroke-miterlimit="10"/>
<path d="M35.4603 119.743C34.8313 122.1 33.546 128.319 36.68 134.423C41.1594 143.152 51.7973 146.149 59.799 145.006C61.6531 144.738 66.324 143.83 70.6721 140.237C77.4651 134.625 80.5444 124.906 78.1214 116.948C77.4542 114.755 76.4916 113.092 75.797 112.053" stroke="#0D0D0C" stroke-width="2" stroke-miterlimit="10"/>
<path d="M44.7404 73.8387C48.2353 75.8788 52.0256 76.7265 53.1249 76.9508C57.8231 77.9189 61.5806 77.4868 62.937 77.2899C65.2997 76.9508 70.5449 76.1413 75.6533 72.0776C77.0479 70.9728 81.7024 67.0239 83.8573 60.0559C84.2183 58.8964 85.3231 55.0077 84.7926 49.943C84.1855 44.1509 81.7899 40.2185 81.3031 39.4418C79.0333 35.8101 76.3424 33.781 74.9587 32.7418C68.3352 27.7538 61.2797 27.2615 59.6171 27.1795C57.1613 27.0591 49.2088 26.8021 42.033 32.4191C31.9201 40.3388 32.3522 52.8965 32.385 53.5036C32.8937 63.3102 39.0686 70.5188 44.7404 73.8332V73.8387Z" stroke="#0D0D0C" stroke-width="2" stroke-miterlimit="10"/>
<path d="M37.6152 68.1016C36.1385 69.808 33.5898 73.21 32.31 78.2035C31.8068 80.1615 30.7785 84.3511 32.042 89.3009C33.9179 96.6353 39.5569 100.622 41.0883 101.667C49.1009 107.153 60.9421 107.574 69.4361 101.536C71.4871 100.076 77.0932 95.5797 78.7285 87.496C80.2873 79.817 77.2737 73.8006 76.3603 72.1215" stroke="#0D0D0C" stroke-width="2" stroke-miterlimit="10"/>
<path d="M31.5818 81.9485C31.7787 79.9631 32.2162 78.2676 32.6756 76.9276C32.5006 76.7909 32.2654 76.6158 31.9865 76.4135C30.5481 75.3907 25.8499 72.0489 23.9137 73.2686C22.1526 74.3843 23.0933 79.0114 24.0286 81.4453C25.1498 84.3659 27.0805 86.2365 28.1579 87.2647C29.7058 88.7414 31.2372 89.6931 32.3529 90.2947C31.806 88.3914 31.2372 85.4708 31.5818 81.9485Z" stroke="#0D0D0C" stroke-width="2" stroke-miterlimit="10"/>
<path d="M79.0896 81.2659C79.0458 80.6861 78.8982 79.1547 78.384 77.2295C78.116 76.2231 77.8207 75.3808 77.5691 74.73C78.0832 74.5714 78.7888 74.3471 79.6256 74.0573C85.5106 72.0281 86.8506 70.6334 87.8296 71.2679C89.2626 72.1977 88.5078 76.5404 86.8069 79.3735C85.5052 81.5448 83.5963 82.9012 82.5572 83.6396C81.1898 84.6131 79.9209 85.2312 79.0075 85.6195C79.2099 83.9131 79.1826 82.4309 79.0896 81.2714V81.2659Z" fill="#FFD037"/>
<path d="M79.0282 80.6377C80.0127 80.4135 81.4019 80.0033 82.9224 79.1993C83.6061 78.8383 84.7601 78.2257 85.7884 77.2303C88.184 74.9058 88.4355 71.8976 88.5996 71.9414C88.7911 71.9906 88.884 76.3333 86.2259 80.222C83.896 83.6349 80.5651 85.0679 79.0063 85.6148C79.0228 84.6686 79.0282 83.7115 79.0337 82.7489C79.0337 82.0379 79.0337 81.3323 79.0337 80.6322L79.0282 80.6377Z" fill="#F18300"/>
<path d="M79.0896 81.2663C79.0458 80.6865 78.8982 79.1551 78.384 77.2299C78.116 76.229 77.8207 75.3812 77.5691 74.7304C78.0723 74.5772 78.7833 74.3475 79.6256 74.0576C85.4012 72.0613 86.8069 70.6065 87.8296 71.2682C89.2079 72.1598 88.4805 76.0102 87.3538 78.3784C86.2709 80.6537 84.6027 82.021 83.4596 82.9508C81.786 84.3182 80.1616 85.1386 79.0075 85.6199C79.2099 83.9134 79.1826 82.4312 79.0896 81.2717V81.2663Z" stroke="#0D0D0C" stroke-width="2" stroke-miterlimit="10"/>
<path d="M56.2526 45.0473L56.4331 44.8723C56.712 44.5988 57.4941 43.9698 58.6646 43.9644C59.8131 43.9644 60.5843 44.555 60.8632 44.8066L61.0437 44.9707L61 48.0226L60.1686 47.4812C59.9335 47.328 59.4467 47.0764 58.8013 47.0764C58.7521 47.0764 58.7028 47.0764 58.6536 47.0764C57.9754 47.1147 57.4886 47.4265 57.2589 47.607L56.4385 48.2469L56.2526 45.0363V45.0473Z" fill="#077BB3"/>
<path d="M58.6864 44.5162C59.6928 44.5162 60.3546 45.0851 60.5023 45.2163C60.4913 45.8234 60.4859 46.4251 60.4749 47.0322C60.2671 46.8954 59.66 46.5344 58.8068 46.5344C58.7466 46.5344 58.6865 46.5344 58.6263 46.5344C57.7402 46.5891 57.1386 47.0103 56.9253 47.1798C56.887 46.5399 56.8487 45.9055 56.8159 45.2655C56.9527 45.1343 57.6254 44.5162 58.6755 44.5108H58.6919M58.6864 43.4224H58.6646C57.2972 43.4278 56.3838 44.1662 56.0557 44.4834L55.6947 44.8335L55.722 45.3366L55.8314 47.2509L55.9518 49.3348L57.598 48.0495C57.7785 47.9073 58.1614 47.6666 58.6919 47.6338C58.7302 47.6338 58.7685 47.6338 58.8068 47.6338C59.3154 47.6338 59.6983 47.8307 59.8788 47.951L61.5415 49.0339L61.5688 47.054L61.5797 46.1461L61.5907 45.2382V44.746L61.2297 44.4123C60.9015 44.117 59.9991 43.4278 58.681 43.4278L58.6864 43.4224Z" fill="#0D0D0C"/>
<path d="M75.4585 61.6372C69.7211 61.6372 64.4705 58.5033 61.7523 53.4551C57.694 45.9073 60.5326 36.4617 68.0803 32.4034C70.3392 31.1892 72.877 30.5493 75.4257 30.5493C81.1631 30.5493 86.4137 33.6833 89.1319 38.7315C91.0954 42.385 91.5221 46.591 90.3297 50.5672C89.1319 54.5435 86.4629 57.8196 82.8093 59.7831C80.5505 60.9973 78.0127 61.6372 75.464 61.6372H75.4585ZM75.4312 33.4043C73.3528 33.4043 71.2799 33.9294 69.4367 34.9193C63.2782 38.2338 60.9647 45.9401 64.2791 52.1041C66.4942 56.228 70.7822 58.7877 75.4694 58.7877C77.5478 58.7877 79.6207 58.2626 81.4639 57.2727C84.4502 55.6702 86.627 52.9956 87.606 49.7468C88.585 46.498 88.235 43.0687 86.6324 40.0824C84.4173 35.964 80.1294 33.4043 75.4421 33.4043H75.4312Z" fill="#077BB3"/>
<path d="M75.4255 31.0968C80.769 31.0968 85.9431 33.9573 88.6504 38.9946C92.5719 46.2853 89.8373 55.3863 82.5466 59.3078C80.2877 60.522 77.8539 61.1018 75.4583 61.1018C70.1147 61.1018 64.9407 58.2413 62.2333 53.204C58.3118 45.9133 61.0465 36.8123 68.3371 32.8908C70.596 31.6766 73.0299 31.1023 75.4255 31.1023M75.4583 59.3297C77.5749 59.3297 79.7189 58.8211 81.7098 57.7491C88.1472 54.287 90.5592 46.2579 87.0971 39.8205C84.707 35.3793 80.1401 32.8525 75.4255 32.8525C73.3088 32.8525 71.1648 33.3611 69.1685 34.4331C62.731 37.8952 60.3245 45.9188 63.7866 52.3563C66.1767 56.7974 70.7382 59.3243 75.4583 59.3243M75.4255 30.0029C72.7892 30.0029 70.1584 30.6647 67.8175 31.9227C60.0018 36.1232 57.0648 45.9024 61.2652 53.7181C64.0765 58.9414 69.5131 62.1902 75.4528 62.1902C78.089 62.1902 80.7198 61.5229 83.0607 60.2705C86.8455 58.2358 89.613 54.8448 90.8491 50.7319C92.0852 46.6189 91.6476 42.2653 89.613 38.4805C86.8018 33.2572 81.3652 30.0084 75.4255 30.0084V30.0029ZM75.4583 58.2358C70.9734 58.2358 66.8714 55.7856 64.7547 51.8421C61.5825 45.9462 63.7976 38.568 69.6935 35.4012C71.4547 34.455 73.4401 33.9518 75.4309 33.9518C79.9158 33.9518 84.0178 36.4021 86.14 40.3455C89.3122 46.2415 87.0916 53.6197 81.1956 56.7919C79.4345 57.7381 77.4491 58.2413 75.4637 58.2413L75.4583 58.2358Z" fill="#0D0D0C"/>
<path d="M41.9389 62.6377C36.2015 62.6377 30.9509 59.5038 28.2326 54.4555C26.2691 50.802 25.8425 46.5961 27.0348 42.6198C28.2271 38.6436 30.9017 35.3674 34.5552 33.4039C36.8141 32.1897 39.3519 31.5498 41.9006 31.5498C47.638 31.5498 52.8886 34.6838 55.6068 39.732C59.6651 47.2797 56.8265 56.7253 49.2788 60.7836C47.0199 61.9978 44.4821 62.6377 41.9334 62.6377H41.9389ZM41.9115 34.4048C39.8332 34.4048 37.7603 34.9299 35.9171 35.9198C32.9308 37.5224 30.754 40.1969 29.7804 43.4402C28.8069 46.6836 29.1515 50.1183 30.7595 53.0991C32.9746 57.2231 37.2626 59.7827 41.9498 59.7827C44.0282 59.7827 46.1011 59.2577 47.9442 58.2677C50.9305 56.6652 53.1073 53.9907 54.0864 50.7418C55.0654 47.493 54.7153 44.0637 53.1128 41.0775C50.8977 36.959 46.6097 34.3993 41.9225 34.3993L41.9115 34.4048Z" fill="#077BB3"/>
<path d="M41.9123 32.0914C47.2558 32.0914 52.4299 34.9519 55.1372 39.9892C59.0588 47.2799 56.3241 56.3809 49.0334 60.3025C46.7745 61.5167 44.3407 62.0964 41.9451 62.0964C36.6015 62.0964 31.4275 59.2359 28.7201 54.1986C24.7986 46.908 27.5333 37.8069 34.824 33.8854C37.0828 32.6712 39.5167 32.0914 41.9123 32.0914ZM41.9451 60.3298C44.0617 60.3298 46.2057 59.8212 48.1966 58.7492C54.634 55.2871 57.046 47.258 53.5839 40.8206C51.1938 36.3794 46.6269 33.8526 41.9123 33.8526C39.7956 33.8526 37.6516 34.3612 35.6553 35.4332C29.2178 38.8953 26.8113 46.9189 30.2734 53.3564C32.6636 57.7975 37.225 60.3244 41.9451 60.3244M41.9123 30.9976C39.276 30.9976 36.6453 31.6648 34.3044 32.9173C26.4886 37.1178 23.5516 46.897 27.7521 54.7128C30.5633 59.936 35.9999 63.1848 41.9396 63.1848C44.5759 63.1848 47.2066 62.5176 49.5475 61.2651C53.3323 59.2305 56.0998 55.8395 57.3359 51.7265C58.572 47.6081 58.1344 43.2599 56.0998 39.4751C53.2886 34.2518 47.852 31.003 41.9123 31.003V30.9976ZM41.9451 59.2359C37.4602 59.2359 33.3582 56.7857 31.2415 52.8422C28.0693 46.9463 30.2844 39.5681 36.1804 36.4013C37.9415 35.4551 39.9269 34.9519 41.9177 34.9519C46.4026 34.9519 50.5047 37.4022 52.6268 41.3456C54.1637 44.2006 54.4918 47.4823 53.562 50.5889C52.6268 53.6955 50.5429 56.2551 47.6879 57.7866C45.9268 58.7328 43.9414 59.2359 41.956 59.2359H41.9451Z" fill="#0D0D0C"/>
<path d="M33.4165 59.4426C34.5322 60.2083 37.3927 61.953 41.4455 62.0843C45.8812 62.2265 49.0589 60.3505 50.202 59.5957C51.3013 58.8737 54.747 56.3906 56.2511 51.6214C57.427 47.9022 56.809 44.7245 56.459 43.3735C56.6668 44.9378 56.9239 48.6132 55.0205 52.584C54.4189 53.8364 52.5538 57.5939 48.2768 59.7051C45.8265 60.9138 43.6442 61.067 42.2933 61.1435C38.2295 61.3842 35.0518 60.1919 33.411 59.4316L33.4165 59.4426Z" fill="#0A5877"/>
<path d="M69.1654 59.7107C70.3687 60.274 72.8244 61.2312 76.0459 61.0999C77.1069 61.0562 79.7158 60.8374 82.549 59.3005C87.4659 56.626 89.2271 52.0645 89.517 51.2715C90.8679 47.607 90.4085 44.3964 90.1241 43.0127C90.2772 44.5168 90.4139 47.8968 88.6747 51.5941C88.166 52.6771 86.7713 55.3352 84.064 57.4081C77.982 62.0571 70.2101 60.0006 69.1654 59.7052V59.7107Z" fill="#0A5877"/>
<path d="M68.7228 29.0981C72.07 26.172 73.0983 23.4154 73.4647 21.6707C73.9898 19.1712 73.5631 16.8139 72.9889 13.587C72.431 10.4366 71.6489 8.21604 72.0974 4.82503C72.2396 3.74209 72.4912 2.52789 73.4374 1.9372C74.4054 1.3301 75.7126 1.6145 76.3416 1.89891C79.5576 3.3483 79.6232 11.432 78.4911 16.7483C77.1784 22.9232 73.8147 27.419 71.1183 30.2303C70.7628 30.0881 70.3964 29.9349 70.0135 29.7599C69.5486 29.5466 69.1165 29.3224 68.7173 29.1036L68.7228 29.0981Z" fill="#FFD037" stroke="#0D0D0C" stroke-width="2" stroke-miterlimit="10"/>
<path d="M45.4735 30.0067C42.3997 28.6229 40.5237 26.8126 39.5009 25.6367C36.7717 22.5136 33.7799 16.6888 35.1473 11.1647C35.7763 8.62143 37.2202 6.58136 36.1482 4.84757C35.6559 4.05451 34.6879 3.41459 33.7581 3.48022C31.2968 3.6443 30.0444 8.64331 29.9076 9.20119C28.6387 14.2713 30.6679 18.7562 31.2148 19.9266C33.9167 25.6804 38.5438 28.53 41.984 30.6083C42.3231 30.8107 42.8263 31.106 43.4498 31.4451C43.7506 31.2209 44.0569 30.9912 44.3741 30.7669C44.746 30.4989 45.1125 30.2473 45.4735 30.0067Z" fill="#FFD037" stroke="#0D0D0C" stroke-width="2" stroke-miterlimit="10"/>
<path d="M78.8915 9.4791C79.0939 11.6942 79.1267 15.2165 77.8852 19.2693C76.1514 24.9137 72.8752 28.5344 71.125 30.219C70.3866 29.8744 69.6483 29.5353 68.9099 29.1907C70.2991 28.1023 72.1915 26.3849 73.9199 23.88C75.7576 21.2219 76.5889 18.8591 77.2234 17.0268C77.8578 15.1837 78.5634 12.624 78.897 9.47363L78.8915 9.4791Z" fill="#F18300"/>
<path d="M44.8342 29.831C43.3411 29.0434 41.3393 27.7417 39.4961 25.636C35.498 21.0746 34.9183 15.8349 34.8034 13.855C34.4424 15.0035 34.0049 16.9671 34.344 19.3189C34.7925 22.4036 36.3458 24.4382 37.6803 26.1939C38.7359 27.5831 40.6064 29.6888 43.5708 31.5484L44.8288 29.831H44.8342Z" fill="#F18300"/>
<path d="M68.7228 29.0981C72.07 26.172 73.0983 23.4154 73.4647 21.6707C73.9898 19.1712 73.5631 16.8139 72.9889 13.587C72.431 10.4366 71.6489 8.21604 72.0974 4.82503C72.2396 3.74209 72.4912 2.52789 73.4374 1.9372C74.4054 1.3301 75.7126 1.6145 76.3416 1.89891C79.5576 3.3483 79.6232 11.432 78.4911 16.7483C77.1784 22.9232 73.8147 27.419 71.1183 30.2303C70.7628 30.0881 70.3964 29.9349 70.0135 29.7599C69.5486 29.5466 69.1165 29.3224 68.7173 29.1036L68.7228 29.0981Z" stroke="#0D0D0C" stroke-width="2" stroke-miterlimit="10"/>
<path d="M45.4735 30.0067C42.3997 28.6229 40.5237 26.8126 39.5009 25.6367C36.7717 22.5136 33.7799 16.6888 35.1473 11.1647C35.7763 8.62143 37.2202 6.58136 36.1482 4.84757C35.6559 4.05451 34.6879 3.41459 33.7581 3.48022C31.2968 3.6443 30.0444 8.64331 29.9076 9.20119C28.6387 14.2713 30.6679 18.7562 31.2148 19.9266C33.9167 25.6804 38.5438 28.53 41.984 30.6083C42.3231 30.8107 42.8263 31.106 43.4498 31.4451C43.7506 31.2209 44.0569 30.9912 44.3741 30.7669C44.746 30.4989 45.1125 30.2473 45.4735 30.0067Z" stroke="#0D0D0C" stroke-width="2" stroke-miterlimit="10"/>
<path d="M71.4042 54.4829C74.8417 54.4829 77.6283 50.9249 77.6283 46.5359C77.6283 42.1469 74.8417 38.5889 71.4042 38.5889C67.9667 38.5889 65.1801 42.1469 65.1801 46.5359C65.1801 50.9249 67.9667 54.4829 71.4042 54.4829Z" fill="#0D0D0C"/>
<path d="M67.6743 45.5109C68.4053 45.5109 68.9979 44.7543 68.9979 43.8209C68.9979 42.8875 68.4053 42.1309 67.6743 42.1309C66.9433 42.1309 66.3507 42.8875 66.3507 43.8209C66.3507 44.7543 66.9433 45.5109 67.6743 45.5109Z" fill="white" stroke="#0D0D0C" stroke-miterlimit="10"/>
<path d="M45.7526 54.4829C49.1901 54.4829 51.9767 50.9249 51.9767 46.5359C51.9767 42.1469 49.1901 38.5889 45.7526 38.5889C42.3151 38.5889 39.5284 42.1469 39.5284 46.5359C39.5284 50.9249 42.3151 54.4829 45.7526 54.4829Z" fill="#0D0D0C"/>
<path d="M42.8109 44.5129C43.5419 44.5129 44.1345 43.7562 44.1345 42.8228C44.1345 41.8895 43.5419 41.1328 42.8109 41.1328C42.0799 41.1328 41.4873 41.8895 41.4873 42.8228C41.4873 43.7562 42.0799 44.5129 42.8109 44.5129Z" fill="white" stroke="#0D0D0C" stroke-miterlimit="10"/>
<path d="M215.033 114.95H128.54C127.332 114.95 126.352 115.93 126.352 117.138V150.736C126.352 151.945 127.332 152.924 128.54 152.924H215.033C216.241 152.924 217.221 151.945 217.221 150.736V117.138C217.221 115.93 216.241 114.95 215.033 114.95Z" fill="#2A4409" stroke="#0D0D0C" stroke-width="2" stroke-miterlimit="10"/>
<path d="M197.596 150.736V117.138C197.596 115.93 196.616 114.95 195.408 114.95L61.2443 114.95C60.036 114.95 59.0565 115.93 59.0565 117.138V150.736C59.0565 151.945 60.036 152.924 61.2443 152.924H195.408C196.616 152.924 197.596 151.945 197.596 150.736Z" fill="#66AF08" stroke="#0D0D0C" stroke-width="2" stroke-miterlimit="10"/>
<path d="M190.453 144.704V123.165C190.453 121.957 189.474 120.978 188.265 120.978L68.3875 120.978C67.1792 120.978 66.1997 121.957 66.1997 123.165V144.704C66.1997 145.912 67.1792 146.891 68.3875 146.891H188.265C189.474 146.891 190.453 145.912 190.453 144.704Z" stroke="#0D0D0C" stroke-width="2" stroke-miterlimit="10"/>
<path d="M196.115 76.9712H138.839C137.631 76.9712 136.652 77.9507 136.652 79.1589V112.757C136.652 113.966 137.631 114.945 138.839 114.945H196.115C197.323 114.945 198.302 113.966 198.302 112.757V79.1589C198.302 77.9507 197.323 76.9712 196.115 76.9712Z" fill="#2A4409" stroke="#0D0D0C" stroke-width="2" stroke-miterlimit="10"/>
<path d="M181.347 112.762V79.1633C181.347 77.9551 180.367 76.9756 179.159 76.9756H77.2917C76.0834 76.9756 75.104 77.9551 75.104 79.1633V112.762C75.104 113.97 76.0834 114.949 77.2917 114.949H179.159C180.367 114.949 181.347 113.97 181.347 112.762Z" fill="#66AF08" stroke="#0D0D0C" stroke-width="2" stroke-miterlimit="10"/>
<path d="M175.871 106.729V85.1902C175.871 83.9819 174.892 83.0024 173.684 83.0024H82.7718C81.5635 83.0024 80.584 83.9819 80.584 85.1902V106.729C80.584 107.937 81.5635 108.916 82.7718 108.916H173.684C174.892 108.916 175.871 107.937 175.871 106.729Z" stroke="#0D0D0C" stroke-width="2" stroke-miterlimit="10"/>
<path d="M97.5604 89.3005C99.0864 89.3005 100.36 89.7835 101.382 90.7495C102.404 91.7015 102.915 92.9755 102.915 94.5715C102.915 96.1675 102.404 97.4485 101.382 98.4145C100.36 99.3665 99.0864 99.8425 97.5604 99.8425H95.8804V104H91.6804V89.3005H97.5604ZM97.5604 95.7685C97.8824 95.7685 98.1554 95.6635 98.3794 95.4535C98.6034 95.2295 98.7154 94.9355 98.7154 94.5715C98.7154 94.2075 98.6034 93.9205 98.3794 93.7105C98.1554 93.4865 97.8824 93.3745 97.5604 93.3745H95.8804V95.7685H97.5604ZM109.42 89.3005H113.62V104H109.42V89.3005ZM126.048 99.9265H130.941V104H120.546V100.766L125.229 93.3745H120.651V89.3005H130.731V92.5345L126.048 99.9265ZM142.741 99.9265H147.634V104H137.239V100.766L141.922 93.3745H137.344V89.3005H147.424V92.5345L142.741 99.9265ZM163.062 104L162.558 102.11H158.316L157.812 104H153.297L157.98 89.3005H162.894L167.577 104H163.062ZM159.219 98.7505H161.655L160.437 94.2355L159.219 98.7505Z" fill="white"/>
<path d="M101.382 90.7495L100.97 91.1855L100.973 91.1885L101.382 90.7495ZM101.382 98.4145L101.791 98.8535L101.795 98.8505L101.382 98.4145ZM95.8804 99.8425V99.2425H95.2804V99.8425H95.8804ZM95.8804 104V104.6H96.4804V104H95.8804ZM91.6804 104H91.0804V104.6H91.6804V104ZM91.6804 89.3005V88.7005H91.0804V89.3005H91.6804ZM98.3794 95.4535L98.7897 95.8912L98.7968 95.8846L98.8036 95.8778L98.3794 95.4535ZM98.3794 93.7105L97.9551 94.1348L97.9619 94.1416L97.969 94.1482L98.3794 93.7105ZM95.8804 93.3745V92.7745H95.2804V93.3745H95.8804ZM95.8804 95.7685H95.2804V96.3685H95.8804V95.7685ZM97.5604 89.9005C98.9474 89.9005 100.07 90.3342 100.97 91.1855L101.795 90.3134C100.651 89.2327 99.2254 88.7005 97.5604 88.7005V89.9005ZM100.973 91.1885C101.856 92.0104 102.315 93.1159 102.315 94.5715H103.515C103.515 92.8351 102.953 91.3926 101.791 90.3105L100.973 91.1885ZM102.315 94.5715C102.315 96.0269 101.856 97.1416 100.97 97.9784L101.795 98.8505C102.953 97.7554 103.515 96.308 103.515 94.5715H102.315ZM100.973 97.9755C100.073 98.814 98.9499 99.2425 97.5604 99.2425V100.442C99.2228 100.442 100.648 99.9189 101.791 98.8535L100.973 97.9755ZM97.5604 99.2425H95.8804V100.442H97.5604V99.2425ZM95.2804 99.8425V104H96.4804V99.8425H95.2804ZM95.8804 103.4H91.6804V104.6H95.8804V103.4ZM92.2804 104V89.3005H91.0804V104H92.2804ZM91.6804 89.9005H97.5604V88.7005H91.6804V89.9005ZM97.5604 96.3685C98.0266 96.3685 98.4487 96.2109 98.7897 95.8912L97.969 95.0158C97.862 95.116 97.7381 95.1685 97.5604 95.1685V96.3685ZM98.8036 95.8778C99.1571 95.5243 99.3154 95.0689 99.3154 94.5715H98.1154C98.1154 94.8021 98.0496 94.9347 97.9551 95.0292L98.8036 95.8778ZM99.3154 94.5715C99.3154 94.075 99.1571 93.6172 98.7897 93.2728L97.969 94.1482C98.0496 94.2238 98.1154 94.3399 98.1154 94.5715H99.3154ZM98.8036 93.2862C98.4651 92.9476 98.0386 92.7745 97.5604 92.7745V93.9745C97.7262 93.9745 97.8457 94.0253 97.9551 94.1348L98.8036 93.2862ZM97.5604 92.7745H95.8804V93.9745H97.5604V92.7745ZM95.2804 93.3745V95.7685H96.4804V93.3745H95.2804ZM95.8804 96.3685H97.5604V95.1685H95.8804V96.3685ZM109.42 89.3005V88.7005H108.82V89.3005H109.42ZM113.62 89.3005H114.22V88.7005H113.62V89.3005ZM113.62 104V104.6H114.22V104H113.62ZM109.42 104H108.82V104.6H109.42V104ZM109.42 89.9005H113.62V88.7005H109.42V89.9005ZM113.02 89.3005V104H114.22V89.3005H113.02ZM113.62 103.4H109.42V104.6H113.62V103.4ZM110.02 104V89.3005H108.82V104H110.02ZM126.048 99.9265L125.541 99.6054L124.957 100.526H126.048V99.9265ZM130.941 99.9265H131.541V99.3265H130.941V99.9265ZM130.941 104V104.6H131.541V104H130.941ZM120.546 104H119.946V104.6H120.546V104ZM120.546 100.766L120.039 100.445L119.946 100.592V100.766H120.546ZM125.229 93.3745L125.735 93.6956L126.319 92.7745H125.229V93.3745ZM120.651 93.3745H120.051V93.9745H120.651V93.3745ZM120.651 89.3005V88.7005H120.051V89.3005H120.651ZM130.731 89.3005H131.331V88.7005H130.731V89.3005ZM130.731 92.5345L131.237 92.8556L131.331 92.7085V92.5345H130.731ZM126.048 100.526H130.941V99.3265H126.048V100.526ZM130.341 99.9265V104H131.541V99.9265H130.341ZM130.941 103.4H120.546V104.6H130.941V103.4ZM121.146 104V100.766H119.946V104H121.146ZM121.052 101.088L125.735 93.6956L124.722 93.0534L120.039 100.445L121.052 101.088ZM125.229 92.7745H120.651V93.9745H125.229V92.7745ZM121.251 93.3745V89.3005H120.051V93.3745H121.251ZM120.651 89.9005H130.731V88.7005H120.651V89.9005ZM130.131 89.3005V92.5345H131.331V89.3005H130.131ZM130.224 92.2134L125.541 99.6054L126.554 100.248L131.237 92.8556L130.224 92.2134ZM142.741 99.9265L142.234 99.6054L141.651 100.526H142.741V99.9265ZM147.634 99.9265H148.234V99.3265H147.634V99.9265ZM147.634 104V104.6H148.234V104H147.634ZM137.239 104H136.639V104.6H137.239V104ZM137.239 100.766L136.732 100.445L136.639 100.592V100.766H137.239ZM141.922 93.3745L142.429 93.6956L143.012 92.7745H141.922V93.3745ZM137.344 93.3745H136.744V93.9745H137.344V93.3745ZM137.344 89.3005V88.7005H136.744V89.3005H137.344ZM147.424 89.3005H148.024V88.7005H147.424V89.3005ZM147.424 92.5345L147.931 92.8556L148.024 92.7085V92.5345H147.424ZM142.741 100.526H147.634V99.3265H142.741V100.526ZM147.034 99.9265V104H148.234V99.9265H147.034ZM147.634 103.4H137.239V104.6H147.634V103.4ZM137.839 104V100.766H136.639V104H137.839ZM137.746 101.088L142.429 93.6956L141.415 93.0534L136.732 100.445L137.746 101.088ZM141.922 92.7745H137.344V93.9745H141.922V92.7745ZM137.944 93.3745V89.3005H136.744V93.3745H137.944ZM137.344 89.9005H147.424V88.7005H137.344V89.9005ZM146.824 89.3005V92.5345H148.024V89.3005H146.824ZM146.917 92.2134L142.234 99.6054L143.248 100.248L147.931 92.8556L146.917 92.2134ZM163.062 104L162.483 104.155L162.601 104.6H163.062V104ZM162.558 102.11L163.138 101.956L163.019 101.51H162.558V102.11ZM158.316 102.11V101.51H157.855L157.737 101.956L158.316 102.11ZM157.812 104V104.6H158.273L158.392 104.155L157.812 104ZM153.297 104L152.726 103.818L152.476 104.6H153.297V104ZM157.98 89.3005V88.7005H157.542L157.409 89.1184L157.98 89.3005ZM162.894 89.3005L163.466 89.1184L163.333 88.7005H162.894V89.3005ZM167.577 104V104.6H168.398L168.149 103.818L167.577 104ZM159.219 98.7505L158.64 98.5942L158.436 99.3505H159.219V98.7505ZM161.655 98.7505V99.3505H162.439L162.235 98.5942L161.655 98.7505ZM160.437 94.2355L161.017 94.0792L160.437 91.9318L159.858 94.0792L160.437 94.2355ZM163.642 103.846L163.138 101.956L161.979 102.265L162.483 104.155L163.642 103.846ZM162.558 101.51H158.316V102.71H162.558V101.51ZM157.737 101.956L157.233 103.846L158.392 104.155L158.896 102.265L157.737 101.956ZM157.812 103.4H153.297V104.6H157.812V103.4ZM153.869 104.183L158.552 89.4826L157.409 89.1184L152.726 103.818L153.869 104.183ZM157.98 89.9005H162.894V88.7005H157.98V89.9005ZM162.323 89.4826L167.006 104.183L168.149 103.818L163.466 89.1184L162.323 89.4826ZM167.577 103.4H163.062V104.6H167.577V103.4ZM159.219 99.3505H161.655V98.1505H159.219V99.3505ZM162.235 98.5942L161.017 94.0792L159.858 94.3918L161.076 98.9068L162.235 98.5942ZM159.858 94.0792L158.64 98.5942L159.799 98.9068L161.017 94.3918L159.858 94.0792Z" fill="#0D0D0C"/>
<path d="M258.214 29.8418H218.61C217.402 29.8418 216.422 30.8213 216.422 32.0295V150.742C216.422 151.951 217.402 152.93 218.61 152.93H258.214C259.422 152.93 260.401 151.951 260.401 150.742V32.0295C260.401 30.8213 259.422 29.8418 258.214 29.8418Z" fill="#2A4409" stroke="#0D0D0C" stroke-width="2" stroke-miterlimit="10"/>
<path d="M241.214 29.8418H207.616C206.408 29.8418 205.428 30.8213 205.428 32.0295V150.742C205.428 151.951 206.408 152.93 207.616 152.93H241.214C242.423 152.93 243.402 151.951 243.402 150.742V32.0295C243.402 30.8213 242.423 29.8418 241.214 29.8418Z" fill="#66AF08" stroke="#0D0D0C" stroke-width="2" stroke-miterlimit="10"/>
<path d="M235.187 36.186H213.649C212.441 36.186 211.461 37.1655 211.461 38.3738V144.392C211.461 145.6 212.441 146.58 213.649 146.58H235.187C236.396 146.58 237.375 145.6 237.375 144.392V38.3738C237.375 37.1655 236.396 36.186 235.187 36.186Z" stroke="#0D0D0C" stroke-width="2" stroke-miterlimit="10"/>
<path d="M91.3636 127V141H87.3636V134.18L84.2436 139.42H83.8836L80.7635 134.18V141H76.7635V127H80.7635L84.0636 132.7L87.3636 127H91.3636ZM110.845 127L106.105 135.68V141H102.105V135.68L97.3651 127H101.805L104.105 131.92L106.405 127H110.845ZM131.646 127C133.579 127 135.192 127.673 136.486 129.02C137.792 130.353 138.446 132.013 138.446 134C138.446 135.987 137.792 137.653 136.486 139C135.192 140.333 133.579 141 131.646 141H125.846V127H131.646ZM131.646 137.12C132.459 137.12 133.126 136.833 133.646 136.26C134.179 135.673 134.446 134.92 134.446 134C134.446 133.08 134.179 132.333 133.646 131.76C133.126 131.173 132.459 130.88 131.646 130.88H130.046V137.12H131.646ZM157.127 139.22C155.7 140.62 153.947 141.32 151.867 141.32C149.787 141.32 148.027 140.62 146.587 139.22C145.16 137.807 144.447 136.067 144.447 134C144.447 131.933 145.16 130.2 146.587 128.8C148.027 127.387 149.787 126.68 151.867 126.68C153.947 126.68 155.7 127.387 157.127 128.8C158.567 130.2 159.287 131.933 159.287 134C159.287 136.067 158.567 137.807 157.127 139.22ZM149.407 136.44C150.06 137.08 150.88 137.4 151.867 137.4C152.854 137.4 153.667 137.08 154.307 136.44C154.96 135.787 155.287 134.973 155.287 134C155.287 133.027 154.96 132.22 154.307 131.58C153.667 130.927 152.854 130.6 151.867 130.6C150.88 130.6 150.06 130.927 149.407 131.58C148.767 132.22 148.447 133.027 148.447 134C148.447 134.973 148.767 135.787 149.407 136.44ZM179.727 132.74V134.4C179.727 136.4 179.08 138.053 177.787 139.36C176.507 140.667 174.82 141.32 172.727 141.32C170.54 141.32 168.754 140.627 167.367 139.24C165.98 137.84 165.287 136.1 165.287 134.02C165.287 131.94 165.98 130.2 167.367 128.8C168.754 127.387 170.487 126.68 172.567 126.68C173.874 126.68 175.067 126.973 176.147 127.56C177.24 128.147 178.1 128.94 178.727 129.94L175.327 131.88C174.767 131.027 173.874 130.6 172.647 130.6C171.647 130.6 170.834 130.92 170.207 131.56C169.594 132.2 169.287 133.027 169.287 134.04C169.287 135 169.574 135.84 170.147 136.56C170.72 137.267 171.607 137.62 172.807 137.62C174.194 137.62 175.12 137.127 175.587 136.14H172.607V132.74H179.727Z" fill="white"/>
<path d="M91.3636 127H91.9636V126.4H91.3636V127ZM91.3636 141V141.6H91.9636V141H91.3636ZM87.3636 141H86.7635V141.6H87.3636V141ZM87.3636 134.18H87.9636V132L86.848 133.873L87.3636 134.18ZM84.2436 139.42V140.02H84.5846L84.7591 139.727L84.2436 139.42ZM83.8836 139.42L83.368 139.727L83.5425 140.02H83.8836V139.42ZM80.7635 134.18L81.2791 133.873L80.1635 132V134.18H80.7635ZM80.7635 141V141.6H81.3636V141H80.7635ZM76.7635 141H76.1635V141.6H76.7635V141ZM76.7635 127V126.4H76.1635V127H76.7635ZM80.7635 127L81.2828 126.699L81.1095 126.4H80.7635V127ZM84.0635 132.7L83.5443 133.001L84.0635 133.898L84.5828 133.001L84.0635 132.7ZM87.3636 127V126.4H87.0176L86.8443 126.699L87.3636 127ZM90.7635 127V141H91.9636V127H90.7635ZM91.3636 140.4H87.3636V141.6H91.3636V140.4ZM87.9636 141V134.18H86.7635V141H87.9636ZM86.848 133.873L83.728 139.113L84.7591 139.727L87.8791 134.487L86.848 133.873ZM84.2436 138.82H83.8836V140.02H84.2436V138.82ZM84.3991 139.113L81.2791 133.873L80.248 134.487L83.368 139.727L84.3991 139.113ZM80.1635 134.18V141H81.3636V134.18H80.1635ZM80.7635 140.4H76.7635V141.6H80.7635V140.4ZM77.3636 141V127H76.1635V141H77.3636ZM76.7635 127.6H80.7635V126.4H76.7635V127.6ZM80.2443 127.301L83.5443 133.001L84.5828 132.399L81.2828 126.699L80.2443 127.301ZM84.5828 133.001L87.8828 127.301L86.8443 126.699L83.5443 132.399L84.5828 133.001ZM87.3636 127.6H91.3636V126.4H87.3636V127.6ZM110.845 127L111.372 127.288L111.856 126.4H110.845V127ZM106.105 135.68L105.579 135.392L105.505 135.527V135.68H106.105ZM106.105 141V141.6H106.705V141H106.105ZM102.105 141H101.505V141.6H102.105V141ZM102.105 135.68H102.705V135.527L102.632 135.392L102.105 135.68ZM97.3651 127V126.4H96.3538L96.8385 127.288L97.3651 127ZM101.805 127L102.349 126.746L102.187 126.4H101.805V127ZM104.105 131.92L103.562 132.174L104.105 133.337L104.649 132.174L104.105 131.92ZM106.405 127V126.4H106.023L105.862 126.746L106.405 127ZM110.319 126.712L105.579 135.392L106.632 135.968L111.372 127.288L110.319 126.712ZM105.505 135.68V141H106.705V135.68H105.505ZM106.105 140.4H102.105V141.6H106.105V140.4ZM102.705 141V135.68H101.505V141H102.705ZM102.632 135.392L97.8917 126.712L96.8385 127.288L101.579 135.968L102.632 135.392ZM97.3651 127.6H101.805V126.4H97.3651V127.6ZM101.262 127.254L103.562 132.174L104.649 131.666L102.349 126.746L101.262 127.254ZM104.649 132.174L106.949 127.254L105.862 126.746L103.562 131.666L104.649 132.174ZM106.405 127.6H110.845V126.4H106.405V127.6ZM136.486 129.02L136.053 129.436L136.057 129.44L136.486 129.02ZM136.486 139L136.055 138.582L136.055 138.582L136.486 139ZM125.846 141H125.246V141.6H125.846V141ZM125.846 127V126.4H125.246V127H125.846ZM133.646 136.26L133.202 135.856L133.201 135.857L133.646 136.26ZM133.646 131.76L133.197 132.158L133.201 132.163L133.206 132.169L133.646 131.76ZM130.046 130.88V130.28H129.446V130.88H130.046ZM130.046 137.12H129.446V137.72H130.046V137.12ZM131.646 127.6C133.422 127.6 134.877 128.211 136.053 129.436L136.918 128.604C135.507 127.135 133.736 126.4 131.646 126.4V127.6ZM136.057 129.44C137.246 130.653 137.846 132.159 137.846 134H139.046C139.046 131.867 138.338 130.053 136.914 128.6L136.057 129.44ZM137.846 134C137.846 135.841 137.246 137.355 136.055 138.582L136.916 139.418C138.338 137.952 139.046 136.133 139.046 134H137.846ZM136.055 138.582C134.88 139.794 133.424 140.4 131.646 140.4V141.6C133.734 141.6 135.505 140.873 136.916 139.418L136.055 138.582ZM131.646 140.4H125.846V141.6H131.646V140.4ZM126.446 141V127H125.246V141H126.446ZM125.846 127.6H131.646V126.4H125.846V127.6ZM131.646 137.72C132.618 137.72 133.45 137.369 134.09 136.663L133.201 135.857C132.801 136.298 132.299 136.52 131.646 136.52V137.72ZM134.09 136.664C134.739 135.949 135.046 135.044 135.046 134H133.846C133.846 134.796 133.619 135.398 133.202 135.856L134.09 136.664ZM135.046 134C135.046 132.957 134.739 132.055 134.085 131.351L133.206 132.169C133.619 132.612 133.846 133.203 133.846 134H135.046ZM134.095 131.362C133.456 130.641 132.623 130.28 131.646 130.28V131.48C132.295 131.48 132.795 131.705 133.197 132.158L134.095 131.362ZM131.646 130.28H130.046V131.48H131.646V130.28ZM129.446 130.88V137.12H130.646V130.88H129.446ZM130.046 137.72H131.646V136.52H130.046V137.72ZM157.127 139.22L157.547 139.648L157.547 139.648L157.127 139.22ZM146.587 139.22L146.165 139.646L146.169 139.65L146.587 139.22ZM146.587 128.8L147.007 129.228L147.007 129.228L146.587 128.8ZM157.127 128.8L156.705 129.226L156.709 129.23L157.127 128.8ZM149.407 136.44L148.978 136.86L148.987 136.869L149.407 136.44ZM154.307 136.44L153.883 136.016L154.307 136.44ZM154.307 131.58L153.878 132L153.887 132.009L154.307 131.58ZM149.407 131.58L148.983 131.156L149.407 131.58ZM156.707 138.792C155.397 140.077 153.797 140.72 151.867 140.72V141.92C154.097 141.92 156.004 141.163 157.547 139.648L156.707 138.792ZM151.867 140.72C149.937 140.72 148.329 140.077 147.005 138.79L146.169 139.65C147.725 141.163 149.637 141.92 151.867 141.92V140.72ZM147.009 138.794C145.7 137.497 145.047 135.912 145.047 134H143.847C143.847 136.222 144.621 138.117 146.165 139.646L147.009 138.794ZM145.047 134C145.047 132.088 145.7 130.511 147.007 129.228L146.167 128.372C144.621 129.889 143.847 131.778 143.847 134H145.047ZM147.007 129.228C148.331 127.929 149.939 127.28 151.867 127.28V126.08C149.635 126.08 147.723 126.845 146.167 128.372L147.007 129.228ZM151.867 127.28C153.795 127.28 155.395 127.929 156.705 129.226L157.549 128.374C156.006 126.845 154.099 126.08 151.867 126.08V127.28ZM156.709 129.23C158.029 130.514 158.687 132.09 158.687 134H159.887C159.887 131.777 159.105 129.886 157.545 128.37L156.709 129.23ZM158.687 134C158.687 135.91 158.029 137.494 156.707 138.792L157.547 139.648C159.105 138.119 159.887 136.223 159.887 134H158.687ZM148.987 136.869C149.762 137.628 150.737 138 151.867 138V136.8C151.024 136.8 150.359 136.532 149.827 136.011L148.987 136.869ZM151.867 138C152.997 138 153.968 137.627 154.731 136.864L153.883 136.016C153.366 136.533 152.71 136.8 151.867 136.8V138ZM154.731 136.864C155.504 136.092 155.887 135.123 155.887 134H154.687C154.687 134.824 154.417 135.481 153.883 136.016L154.731 136.864ZM155.887 134C155.887 132.877 155.504 131.912 154.727 131.151L153.887 132.009C154.417 132.528 154.687 133.176 154.687 134H155.887ZM154.736 131.16C153.973 130.382 153.001 130 151.867 130V131.2C152.707 131.2 153.361 131.471 153.879 132L154.736 131.16ZM151.867 130C150.733 130 149.757 130.382 148.983 131.156L149.831 132.004C150.364 131.472 151.028 131.2 151.867 131.2V130ZM148.983 131.156C148.221 131.917 147.847 132.881 147.847 134H149.047C149.047 133.173 149.313 132.523 149.831 132.004L148.983 131.156ZM147.847 134C147.847 135.119 148.221 136.087 148.979 136.86L149.836 136.02C149.313 135.487 149.047 134.827 149.047 134H147.847ZM179.727 132.74H180.327V132.14H179.727V132.74ZM177.787 139.36L177.361 138.938L177.358 138.94L177.787 139.36ZM167.367 139.24L166.941 139.662L166.943 139.664L167.367 139.24ZM167.367 128.8L167.793 129.222L167.795 129.22L167.367 128.8ZM176.147 127.56L175.861 128.087L175.863 128.089L176.147 127.56ZM178.727 129.94L179.024 130.461L179.567 130.151L179.235 129.621L178.727 129.94ZM175.327 131.88L174.825 132.209L175.135 132.681L175.624 132.401L175.327 131.88ZM170.207 131.56L169.778 131.14L169.774 131.145L170.207 131.56ZM170.147 136.56L169.678 136.934L169.681 136.938L170.147 136.56ZM175.587 136.14L176.129 136.397L176.535 135.54H175.587V136.14ZM172.607 136.14H172.007V136.74H172.607V136.14ZM172.607 132.74V132.14H172.007V132.74H172.607ZM179.127 132.74V134.4H180.327V132.74H179.127ZM179.127 134.4C179.127 136.257 178.532 137.754 177.361 138.938L178.213 139.782C179.628 138.353 180.327 136.543 180.327 134.4H179.127ZM177.358 138.94C176.208 140.115 174.684 140.72 172.727 140.72V141.92C174.956 141.92 176.806 141.219 178.216 139.78L177.358 138.94ZM172.727 140.72C170.679 140.72 169.052 140.076 167.791 138.816L166.943 139.664C168.455 141.177 170.401 141.92 172.727 141.92V140.72ZM167.793 138.818C166.525 137.537 165.887 135.952 165.887 134.02H164.687C164.687 136.248 165.436 138.143 166.941 139.662L167.793 138.818ZM165.887 134.02C165.887 132.088 166.525 130.503 167.793 129.222L166.941 128.378C165.436 129.897 164.687 131.792 164.687 134.02H165.887ZM167.795 129.22C169.063 127.928 170.639 127.28 172.567 127.28V126.08C170.335 126.08 168.444 126.845 166.939 128.38L167.795 129.22ZM172.567 127.28C173.78 127.28 174.874 127.551 175.861 128.087L176.433 127.033C175.26 126.395 173.967 126.08 172.567 126.08V127.28ZM175.863 128.089C176.87 128.629 177.65 129.352 178.219 130.259L179.235 129.621C178.55 128.528 177.611 127.665 176.431 127.031L175.863 128.089ZM178.43 129.419L175.03 131.359L175.624 132.401L179.024 130.461L178.43 129.419ZM175.829 131.551C175.134 130.493 174.029 130 172.647 130V131.2C173.718 131.2 174.4 131.561 174.825 132.209L175.829 131.551ZM172.647 130C171.506 130 170.531 130.371 169.778 131.14L170.636 131.98C171.136 131.469 171.788 131.2 172.647 131.2V130ZM169.774 131.145C169.038 131.913 168.687 132.896 168.687 134.04H169.887C169.887 133.157 170.149 132.487 170.64 131.975L169.774 131.145ZM168.687 134.04C168.687 135.129 169.016 136.103 169.678 136.934L170.616 136.186C170.131 135.577 169.887 134.871 169.887 134.04H168.687ZM169.681 136.938C170.402 137.827 171.488 138.22 172.807 138.22V137.02C171.726 137.02 171.038 136.706 170.613 136.182L169.681 136.938ZM172.807 138.22C173.568 138.22 174.25 138.085 174.824 137.78C175.406 137.47 175.843 137.002 176.129 136.397L175.045 135.883C174.864 136.265 174.605 136.537 174.26 136.72C173.907 136.908 173.432 137.02 172.807 137.02V138.22ZM175.587 135.54H172.607V136.74H175.587V135.54ZM173.207 136.14V132.74H172.007V136.14H173.207ZM172.607 133.34H179.727V132.14H172.607V133.34Z" fill="#0D0D0C"/>
</svg>
