<svg width="286" height="161" viewBox="0 0 286 161" fill="none" xmlns="http://www.w3.org/2000/svg">
<path d="M143 160C221.687 160 285.475 155.649 285.475 150.282C285.475 144.915 221.687 140.564 143 140.564C64.313 140.564 0.524658 144.915 0.524658 150.282C0.524658 155.649 64.313 160 143 160Z" fill="#DAF7F6" stroke="#3D0B0E" stroke-miterlimit="10"/>
<path d="M266.118 117.996L239.832 103.606L241.506 133.524L225.94 107.922L212.425 134.667L211.747 104.711L186.675 121.119L201.06 94.8335L171.142 96.5071L196.745 80.9358L169.999 67.4264L199.955 66.7482L183.552 41.6711L209.833 56.0611L208.159 26.1436L223.73 51.7457L237.24 25.0005L237.923 54.9563L262.995 38.5481L248.605 64.834L278.523 63.1603L252.92 78.7316L279.666 92.241L249.71 92.9247L266.118 117.996Z" fill="#DAF7F6"/>
<path d="M67.4007 118.259L56.5877 112.335L57.2768 124.647L50.8722 114.113L45.3153 125.117L45.0364 112.795L34.7211 119.544L40.639 108.731L28.3329 109.415L38.8615 103.01L27.8625 97.4533L40.1851 97.1743L33.4358 86.8591L44.2488 92.7769L43.5597 80.4709L49.9643 91.0049L55.5212 80.0005L55.8001 92.323L66.1154 85.5738L60.1975 96.3867L72.5036 95.6976L61.975 102.102L72.974 107.665L60.6515 107.944L67.4007 118.259Z" fill="#DAF7F6"/>
<rect x="195.999" y="60.1235" width="16.3051" height="16.3051" transform="rotate(-39.0478 195.999 60.1235)" fill="#269C9A" stroke="#3D0B0E" stroke-miterlimit="10"/>
<path d="M149.821 20.1952C149.331 19.8449 149.315 18.9612 149.783 17.5332C150.251 16.1053 150.858 14.8606 151.616 13.7829C151.788 13.535 152.256 13.4542 153.02 13.5296C153.783 13.605 154.799 13.9176 156.074 14.4672C157.348 15.0114 158.633 15.7443 159.934 16.6657C164.972 20.2383 166.252 23.7839 163.773 27.3026C163.063 28.3048 162.246 29.0269 161.321 29.4633C160.391 29.8998 159.52 30.083 158.708 30.0076C157.074 29.8244 155.757 29.3933 154.762 28.7143L154.138 28.3102C154.004 28.5042 153.826 28.8437 153.617 29.3286C153.407 29.8136 153.192 30.2123 152.966 30.5303C152.767 30.8105 152.138 30.6865 151.073 30.1585C150.009 29.6304 149.127 29.1185 148.428 28.6174C147.358 27.8576 146.88 27.1247 146.998 26.4189C147.116 25.713 147.777 24.5006 148.982 22.7978C149.267 22.3937 150.235 22.6307 151.88 23.5037C152.504 23.8162 153.149 23.994 153.81 24.0425C154.471 24.091 154.982 23.8701 155.326 23.3744C155.67 22.8786 155.45 22.3559 154.665 21.7955C153.88 21.2351 152.901 20.8525 151.745 20.637C150.589 20.4269 149.95 20.276 149.826 20.1898L149.821 20.1952ZM148.89 31.3816C150.084 32.2276 150.891 33.0305 151.305 33.7849C151.719 34.5393 151.584 35.4015 150.901 36.3714C149.783 37.9556 147.998 37.8748 145.535 36.1343C143.073 34.3938 142.406 32.7288 143.524 31.1445C144.643 29.5603 146.428 29.6412 148.89 31.3816Z" fill="#28AFB0" stroke="#0C0D0D" stroke-width="1.5" stroke-miterlimit="10"/>
<path d="M157.712 37.6777C157.565 37.2451 157.935 36.6945 158.816 36.0203C159.698 35.3461 160.596 34.8461 161.505 34.5202C161.711 34.4472 162.027 34.5989 162.451 34.9809C162.876 35.363 163.349 36.0034 163.877 36.8967C164.405 37.79 164.862 38.8069 165.248 39.9474C166.745 44.3578 166.005 47.1051 163.028 48.1838C162.179 48.4928 161.385 48.5771 160.645 48.4366C159.905 48.2961 159.306 48.0265 158.849 47.622C157.951 46.7905 157.347 45.9477 157.037 45.0938L156.836 44.5712C156.672 44.633 156.422 44.7623 156.096 44.9701C155.769 45.178 155.464 45.3297 155.198 45.4252C154.958 45.5095 154.637 45.1555 154.224 44.3634C153.816 43.5712 153.505 42.8689 153.293 42.2509C152.978 41.3127 152.999 40.6497 153.375 40.2677C153.75 39.8856 154.654 39.4306 156.096 38.9081C156.438 38.7845 156.917 39.3519 157.527 40.616C157.766 41.0823 158.076 41.4756 158.452 41.7958C158.827 42.1161 159.225 42.2004 159.644 42.0543C160.063 41.9082 160.15 41.4812 159.916 40.7902C159.682 40.0991 159.263 39.4362 158.664 38.7957C158.065 38.1608 157.744 37.7844 157.706 37.6777H157.712ZM152.406 44.1555C152.76 45.2005 152.901 46.0488 152.831 46.6949C152.76 47.341 152.314 47.813 151.492 48.1107C150.153 48.5939 149.114 47.7624 148.385 45.6106C147.656 43.4588 147.961 42.1386 149.299 41.6554C150.638 41.1722 151.672 42.0037 152.406 44.1555Z" fill="#28AFB0" stroke="#0C0D0D" stroke-width="1.5" stroke-miterlimit="10"/>
<path d="M88.6225 79.8483C88.095 82.5903 82.9185 83.5685 81.1326 83.9037C79.4181 84.2279 73.945 85.261 72.9449 83.2278C72.1096 81.5298 74.8462 78.6558 75.7474 77.7546C76.3683 77.1282 81.6107 71.9682 85.2815 73.8366C86.985 74.7048 87.8972 76.8534 88.0675 77.2601C88.4522 78.1668 88.7929 78.98 88.6225 79.8483Z" fill="#FFD037" stroke="#0C0D0D" stroke-width="2" stroke-miterlimit="10"/>
<path d="M88.623 79.8488C86.6942 80.8049 84.9742 81.2775 83.7378 81.5358C81.0123 82.0963 79.6495 82.3765 78.0998 81.7611C77.2041 81.4039 76.5942 80.8873 75.3852 80.8379C74.4401 80.7939 73.6543 81.0577 73.1212 81.294C72.6706 82.2886 72.7695 82.8766 72.9454 83.2283C73.6817 84.7175 76.9294 84.2559 81.8365 83.7668C84.8808 83.4646 86.5513 83.0195 87.6778 81.6567C88.2164 81.0082 88.4856 80.3268 88.623 79.8433V79.8488Z" fill="#F18300"/>
<path d="M88.6225 79.8483C88.095 82.5903 82.9185 83.5685 81.1326 83.9037C79.4181 84.2279 73.945 85.261 72.9449 83.2278C72.1096 81.5298 74.8462 78.6558 75.7474 77.7546C76.3683 77.1282 81.6107 71.9682 85.2815 73.8366C86.985 74.7048 87.8972 76.8534 88.0675 77.2601C88.4522 78.1668 88.7929 78.98 88.6225 79.8483Z" stroke="#0C0D0D" stroke-width="2" stroke-miterlimit="10"/>
<path d="M81.5011 94.3931C77.1765 102.773 77.2314 112.351 81.9902 119.308C86.0291 125.215 92.0573 127.183 94.1399 127.825C101.866 130.227 110.796 128.716 117.121 123.484C118.802 122.094 123.341 118.341 124.512 111.752C125.363 106.949 124.001 103.026 123.253 101.251" fill="#FFD037"/>
<path d="M81.1532 118.005C80.6751 119.818 78.3177 129.424 84.0656 137.513C84.9009 138.689 86.8022 141.096 90.0059 143.013C98.5123 148.107 111.129 146.734 118.515 139.436C119.822 138.139 123.872 134.023 124.598 127.402C125.147 122.401 123.526 118.483 122.685 116.763" fill="#FFD037"/>
<path d="M100.162 145.878C101.58 147.202 103.883 149.043 107.119 150.45C108.999 151.263 113.032 152.955 118.241 152.378C119.78 152.208 125.88 151.345 130.606 146.246C136.09 140.322 137.562 131.019 134.232 124.875C133.611 123.727 131.99 120.743 128.473 119.193C126.358 118.265 124.402 118.221 123.242 118.292" fill="#FFD037"/>
<path d="M127.389 149.378C129.203 149.29 136.341 148.729 141.418 143.047C147.018 136.788 148.194 126.468 143.435 120.341C140.759 116.896 135.126 113.379 130.939 115.302C129.258 116.077 128.208 117.544 127.565 118.841" fill="#FFD037"/>
<path d="M145.177 137.212C145.529 136.942 146.018 136.547 146.562 136.036C147.397 135.25 150.464 132.217 151.716 127.634C152.266 125.622 153.969 119.424 150.068 114.973C147.936 112.538 144.177 110.692 140.226 111.494C137.039 112.143 135.094 114.231 134.434 115.011" fill="#FFD037"/>
<path d="M138.194 112.231C138.227 111.516 138.447 108.241 141.035 106.076C144.14 103.477 148.717 104.092 151.207 105.856C155.114 108.62 156.213 115.846 152.003 122.281" fill="#FFD037"/>
<path d="M89.3037 69.9077C87.6167 71.1826 84.9681 73.529 82.9788 77.2602C82.3798 78.3812 78.6706 85.5744 80.9786 92.9763C84.0119 102.714 95.4253 106.835 103.201 107.231C105.163 107.33 117.549 107.731 123.434 98.8891C126.473 94.3226 126.445 89.2891 126.407 87.9592C126.237 82.7444 123.995 79.0626 123.011 77.6339" fill="#FFD037"/>
<path d="M92.2328 73.0925C95.2607 75.8126 98.816 77.4117 99.8491 77.8568C104.278 79.7581 108.064 80.0988 109.433 80.1812C111.801 80.3296 117.17 80.5933 123.006 77.6315C124.11 77.071 127.935 75.0213 131.314 70.7296C132.534 69.1799 136.145 64.4706 136.732 57.3599C136.864 55.7828 137.051 51.5625 135.177 46.6609C134.859 45.8366 133.468 42.3856 130.292 38.7808C124.786 32.5274 117.939 30.615 116.318 30.1974C113.922 29.582 106.152 27.7136 97.9533 31.791C86.3915 37.5334 84.2759 49.9799 84.1879 50.5844C82.6988 60.3383 87.3202 68.6854 92.2273 73.098L92.2328 73.0925Z" fill="#FFD037"/>
<path d="M150.562 105.404C150.546 104.948 150.403 102.085 148.029 100.157C146.199 98.6675 143.331 97.9696 140.83 99.2774C138.847 100.316 137.572 102.377 137.456 104.575C137.336 106.932 138.594 108.581 138.935 109.004" fill="#FFD037"/>
<path d="M104.86 67.9989C104.981 68.9111 108.201 69.7683 108.987 68.7022C109.432 68.0978 109.108 66.8504 108.377 66.3558C107.069 65.4766 104.75 67.1746 104.86 67.9989Z" fill="#0C0D0D"/>
<path d="M104.196 68.1806C104.262 68.6037 104.636 68.9334 104.976 69.1587C105.344 69.406 105.784 69.5654 106.207 69.6808C107.092 69.9226 108.218 70.038 109.043 69.5489C110.136 68.9005 110.043 67.3508 109.383 66.4222C109.037 65.9331 108.548 65.5594 107.944 65.4605C107.389 65.3726 106.828 65.455 106.312 65.6693C105.762 65.8946 105.24 66.2133 104.822 66.642C104.487 66.9827 104.119 67.4882 104.174 67.9993C104.212 68.3564 104.465 68.7026 104.861 68.6862C105.202 68.6697 105.586 68.3839 105.548 67.9993C105.548 67.9828 105.548 67.9388 105.548 67.9278C105.548 67.9168 105.564 67.7904 105.542 67.9663C105.52 68.1092 105.531 68.0267 105.542 68.0048C105.553 67.9828 105.559 67.9498 105.564 67.9223C105.581 67.8344 105.482 68.0762 105.548 67.9608C105.581 67.9003 105.614 67.8399 105.652 67.785C105.669 67.763 105.74 67.6531 105.674 67.752C105.608 67.8509 105.702 67.7245 105.718 67.7025C105.779 67.6366 105.844 67.5706 105.91 67.5102C105.943 67.4827 105.976 67.4497 106.009 67.4223C106.026 67.4058 106.042 67.3948 106.059 67.3783C106.13 67.3179 106.042 67.3783 106.026 67.4003C106.07 67.3344 106.191 67.2794 106.257 67.2409C106.345 67.186 106.432 67.131 106.526 67.0816C106.614 67.0376 106.702 66.9991 106.784 66.9552C106.85 66.9222 106.735 66.9772 106.729 66.9772C106.751 66.9717 106.773 66.9607 106.795 66.9497C106.85 66.9332 106.9 66.9112 106.954 66.8947C107.042 66.8673 107.136 66.8398 107.229 66.8233C107.24 66.8233 107.367 66.7958 107.367 66.7958C107.367 66.8013 107.218 66.8068 107.301 66.8068C107.328 66.8068 107.361 66.8013 107.394 66.8013C107.493 66.7958 107.586 66.8013 107.685 66.8013C107.812 66.8068 107.553 66.7683 107.68 66.8013C107.729 66.8123 107.779 66.8233 107.828 66.8398C107.85 66.8453 107.993 66.8947 107.889 66.8563C107.784 66.8178 107.922 66.8728 107.944 66.8892C107.982 66.9112 108.021 66.9387 108.059 66.9607C108.125 66.9936 108.026 66.9332 108.021 66.9277C108.043 66.9497 108.07 66.9717 108.097 66.9936C108.136 67.0266 108.169 67.0706 108.202 67.1035C108.29 67.197 108.152 67.0211 108.224 67.131C108.284 67.2299 108.334 67.3344 108.394 67.4278C108.433 67.4882 108.383 67.3948 108.378 67.3838C108.389 67.4113 108.4 67.4333 108.405 67.4607C108.422 67.5102 108.438 67.5596 108.455 67.6091C108.471 67.6586 108.482 67.708 108.493 67.763C108.499 67.7904 108.499 67.8124 108.51 67.8399C108.499 67.7959 108.499 67.719 108.51 67.8069C108.515 67.9168 108.51 68.0212 108.51 68.1256C108.51 68.2081 108.51 68.0597 108.521 68.0597C108.521 68.0597 108.51 68.1202 108.504 68.1256C108.504 68.1366 108.46 68.2795 108.46 68.274C108.449 68.274 108.532 68.1366 108.455 68.2685C108.378 68.4004 108.438 68.2465 108.477 68.252C108.466 68.252 108.416 68.3125 108.411 68.3235C108.4 68.3345 108.383 68.3455 108.372 68.3564C108.334 68.4059 108.493 68.2795 108.433 68.307C108.372 68.3345 108.312 68.3729 108.257 68.4059C108.224 68.4279 108.411 68.351 108.29 68.3894C108.251 68.4004 108.207 68.4169 108.169 68.4279C108.092 68.4499 108.021 68.4608 107.944 68.4773C107.823 68.5048 108.092 68.4663 107.966 68.4773C107.916 68.4773 107.867 68.4883 107.823 68.4883C107.636 68.4993 107.444 68.4883 107.257 68.4773C107.213 68.4773 107.169 68.4663 107.125 68.4608C107.048 68.4554 107.196 68.4718 107.196 68.4718C107.196 68.4663 107.136 68.4608 107.13 68.4608C107.031 68.4444 106.938 68.4279 106.839 68.4059C106.636 68.3619 106.438 68.3015 106.24 68.2355C106.196 68.2191 106.147 68.1971 106.103 68.1806C106.031 68.1531 106.18 68.2081 106.169 68.2081C106.147 68.2081 106.114 68.1861 106.092 68.1751C106.009 68.1366 105.927 68.0982 105.85 68.0542C105.773 68.0103 105.702 67.9553 105.625 67.9113C105.608 67.9003 105.746 68.0212 105.647 67.9278C105.619 67.9058 105.592 67.8784 105.57 67.8564C105.548 67.8344 105.526 67.8014 105.504 67.785C105.504 67.785 105.586 67.9168 105.57 67.8729L105.542 67.8289L105.526 67.7959C105.476 67.7355 105.57 67.8784 105.57 67.8949C105.57 67.8839 105.553 67.8234 105.548 67.8069C105.493 67.4497 105.031 67.2189 104.701 67.3289C104.317 67.4552 104.163 67.7904 104.223 68.1751L104.196 68.1806Z" fill="#0C0D0D"/>
<path d="M104.354 49.0693C105.356 44.8499 103.49 40.7932 100.186 40.0084C96.8819 39.2237 93.3911 42.0081 92.3889 46.2276C91.3868 50.4471 93.253 54.5038 96.5571 55.2885C99.8612 56.0732 103.352 53.2888 104.354 49.0693Z" fill="#0C0D0D"/>
<path d="M97.238 44.0225C97.4512 43.1249 97.0543 42.2619 96.3516 42.095C95.6488 41.9281 94.9063 42.5205 94.6931 43.4181C94.48 44.3158 94.8768 45.1788 95.5796 45.3457C96.2823 45.5126 97.0249 44.9202 97.238 44.0225Z" fill="white" stroke="#0C0D0D" stroke-miterlimit="10"/>
<path d="M130.735 53.8643C131.737 49.6448 129.871 45.5881 126.567 44.8034C123.263 44.0187 119.772 46.8031 118.77 51.0226C117.768 55.242 119.634 59.2987 122.938 60.0835C126.242 60.8682 129.733 58.0837 130.735 53.8643Z" fill="#0C0D0D"/>
<path d="M123.488 48.8268C123.701 47.9291 123.304 47.0661 122.601 46.8992C121.899 46.7323 121.156 47.3247 120.943 48.2224C120.73 49.12 121.127 49.983 121.829 50.1499C122.532 50.3168 123.275 49.7244 123.488 48.8268Z" fill="white" stroke="#0C0D0D" stroke-miterlimit="10"/>
<path d="M122.318 100.273C121.202 101.405 119.493 102.916 117.13 104.24C113.004 106.554 109.239 106.988 107.08 107.219C102.651 107.686 99.2492 107.021 98.3754 106.839C96.3422 106.416 91.9681 105.455 87.6489 101.971C84.4563 99.3935 82.5769 96.4701 81.5054 94.3984C81.0493 95.448 80.5987 96.4921 80.1426 97.5417C80.78 99.3001 82.0329 102.13 84.4892 104.812C95.6004 116.956 120.96 114.752 123.944 107.208C124.466 105.894 124.269 104.509 123.889 103.334C123.648 102.85 123.406 102.366 123.153 101.877C122.878 101.339 122.598 100.806 122.323 100.278L122.318 100.273Z" fill="#F18300"/>
<path d="M81.1543 118.007C80.9565 118.369 80.7477 118.842 80.5938 119.408C80.3246 120.403 80.3465 121.271 80.4125 121.842C82.5281 124.821 87.8034 131.261 96.6231 133.432C108.026 136.24 122.577 131.217 124.159 123.491C124.676 120.969 123.725 118.556 122.681 116.754C121.533 118.787 119.401 121.908 115.763 124.497C108.778 129.459 98.9971 130.486 90.9632 126.656C85.8747 124.227 82.7919 120.469 81.1543 118.007Z" fill="#F18300"/>
<path d="M101.057 146.031C101.239 146.316 101.541 146.728 102.003 147.113C106.992 151.311 122.477 145.789 127.984 135.079C131.424 128.386 130.423 120.638 128.473 119.187C127.555 118.505 126.472 118.357 125.588 118.357C124.807 118.335 124.027 118.308 123.241 118.286C124.077 119.764 125.033 121.94 125.23 124.644C125.851 133.221 118.065 140.574 111.405 143.695C109.284 144.69 105.794 145.948 101.063 146.025L101.057 146.031Z" fill="#F18300"/>
<path d="M127.391 149.377C135.364 141.668 137.909 131.595 134.227 124.874C133.458 123.473 131.666 120.835 127.567 118.835C128.677 117.264 129.77 116.824 130.49 116.703C133.732 116.143 137.073 120.687 138.447 123.61C142.365 131.919 138.519 144.393 130.65 148.289C129.413 148.905 128.265 149.212 127.385 149.377H127.391Z" fill="#F18300"/>
<path d="M89.3031 69.9073C89.1217 70.0832 88.9184 70.27 88.6876 70.4569C88.3469 70.7261 88.0227 70.9404 87.726 71.1108C89.3745 75.908 91.8913 78.738 93.5013 80.2327C102.717 88.8106 116.768 85.7828 119.35 85.2278C121.955 84.6673 124.06 83.8925 125.516 83.277C125.28 82.5022 124.983 81.6669 124.609 80.7822C124.104 79.5788 123.549 78.5292 123.016 77.628C122.137 78.1226 120.878 78.7545 119.296 79.293C113.559 81.2603 108.58 80.3536 106.503 79.9799C97.2271 78.2984 91.1824 72.0065 89.3086 69.9019L89.3031 69.9073Z" fill="#F18300"/>
<path d="M97.9633 31.7872C100.683 31.0893 105.288 30.2705 110.86 31.1113C112.503 31.3586 120.279 32.6609 127.588 38.9693C132.753 43.4314 135.424 48.4375 136.737 51.4653C136.281 49.4156 133.945 40.0079 124.78 33.9413C123.18 32.8807 116.042 28.3967 106.459 29.4298C102.788 29.8254 99.8756 30.908 97.9633 31.7927V31.7872Z" fill="#F18300"/>
<path d="M134.44 115.005C134.896 114.291 135.638 113.401 136.764 113.044C140.287 111.923 145.501 116.676 147.205 121.704C148.788 126.375 147.133 130.661 146.414 132.266C146.606 130.364 146.584 127.765 145.688 124.908C145.337 123.792 144.798 122.133 143.446 120.341C143.012 119.764 141.671 118.083 139.314 116.725C137.402 115.626 135.616 115.192 134.445 115.005H134.44Z" fill="#F18300"/>
<path d="M138.193 112.23C138.111 111.515 138.056 110.087 138.935 108.993C140.738 106.746 144.859 107.922 145.43 108.081C149.31 109.185 152.453 112.928 152.931 117.093C153.146 118.989 152.761 120.571 152.431 121.55C152.475 117.401 150.211 113.659 146.678 112.037C142.628 110.18 138.765 111.955 138.204 112.224L138.193 112.23Z" fill="#F18300"/>
<path d="M150.563 105.405C150.244 105.201 146.909 103.157 143.2 104.69C140.293 105.894 139.155 108.46 138.935 108.999C138.386 108.455 137.507 107.405 137.595 106.18C137.77 103.729 141.666 102.284 144.293 102.086C146.348 101.932 149.689 102.388 150.426 104.3C150.585 104.712 150.591 105.108 150.563 105.399V105.405Z" fill="#F18300"/>
<path d="M81.4997 94.3931C77.1585 103.466 77.4882 113.439 82.6811 120.281C86.3464 125.111 91.281 126.864 93.3637 127.573C101.843 130.458 112.097 128.622 118.405 122.402C121.697 119.154 122.939 115.676 123.191 114.939C125.538 108.098 123.087 102.004 122.318 100.267" stroke="#0C0D0D" stroke-width="2" stroke-miterlimit="10"/>
<path d="M81.1538 118.005C78.7854 126.682 81.0769 135.579 87.1106 140.958C93.408 146.569 101.189 146.041 103.068 145.91C111.624 145.327 121.626 139.815 124.098 130.182C125.648 124.165 123.648 118.906 122.681 116.758" stroke="#0C0D0D" stroke-width="2" stroke-miterlimit="10"/>
<path d="M100.162 145.877C108.229 153.542 119.983 154.493 127.688 148.899C135.744 143.047 137.777 131.177 134.232 124.874C133.573 123.704 131.617 120.225 127.572 118.835C125.83 118.236 124.259 118.22 123.237 118.291" stroke="#0C0D0D" stroke-width="2" stroke-miterlimit="10"/>
<path d="M126.554 149.653C128.434 149.593 136.198 149.126 141.424 143.042C147.551 135.915 147.595 124.101 142.007 118.688C139.99 116.737 135.583 114.012 131.5 115.534C129.478 116.287 128.23 117.825 127.571 118.831" stroke="#0C0D0D" stroke-width="2" stroke-miterlimit="10"/>
<path d="M145.047 136.765C145.509 136.425 153.575 130.281 152.432 121.555C152.268 120.285 151.405 113.713 145.893 111.707C142.113 110.334 137.574 111.625 134.447 115.005" stroke="#0C0D0D" stroke-width="2" stroke-miterlimit="10"/>
<path d="M138.194 112.229C138.216 111.636 138.381 108.421 141.035 106.075C141.782 105.415 143.53 104.118 145.981 104.036C149.531 103.915 151.954 106.421 152.58 107.141C155.493 110.482 155.493 116.301 152.426 121.549" stroke="#0C0D0D" stroke-width="2" stroke-miterlimit="10"/>
<path d="M89.3039 69.9077C87.8532 70.9023 83.2537 74.3203 81.1875 80.8101C80.5556 82.7938 79.0719 88.4648 81.5063 94.3995C85.8969 105.104 98.8709 107.011 100.195 107.187C108.79 108.302 121.676 105.324 125.451 95.1469C128.473 86.9976 123.863 79.0461 123.017 77.6394" stroke="#0C0D0D" stroke-width="2" stroke-miterlimit="10"/>
<path d="M92.2328 73.0925C95.2607 75.8126 98.816 77.4117 99.8491 77.8568C104.278 79.7581 108.064 80.0988 109.433 80.1812C111.565 80.3131 117.115 80.5878 123.006 77.6315C123.758 77.2523 134.199 71.7846 136.403 59.8932C137.568 53.6122 135.881 48.5127 135.177 46.6609C134.886 45.8915 133.496 42.4131 130.292 38.7808C124.786 32.5274 117.939 30.615 116.318 30.1974C113.922 29.582 106.152 27.7136 97.9533 31.791C86.3915 37.5334 84.2759 49.9799 84.1879 50.5844C82.6988 60.3383 87.3202 68.6854 92.2273 73.098L92.2328 73.0925Z" stroke="#0C0D0D" stroke-width="2" stroke-miterlimit="10"/>
<path d="M150.563 105.406C150.508 102.604 148.805 100.12 146.266 99.1196C143.843 98.169 140.672 98.5646 138.804 100.873C136.963 103.148 136.979 106.56 138.93 108.994" stroke="#0C0D0D" stroke-width="2" stroke-miterlimit="10"/>
<path d="M124.028 82.8024C121.923 82.4671 119.368 84.1816 118.758 86.2423C117.335 91.0396 126.308 98.1008 128.709 96.738C130.462 95.7434 128.891 90.1713 128.655 89.3745C128.028 87.2479 126.847 83.2475 124.028 82.8024Z" fill="#FFD037" stroke="#0C0D0D" stroke-width="2" stroke-miterlimit="10"/>
<path d="M127.979 96.9088C128.341 96.8648 128.528 96.8428 128.71 96.7439C130.215 95.9031 129.495 91.3147 128.297 88.199C127.83 86.99 127.028 85.3085 125.577 83.4951C128.078 90.9575 127.495 93.6391 126.303 94.5953C125.858 94.9525 124.967 95.3536 125.028 95.8647C125.105 96.5131 126.649 97.0681 127.979 96.9088Z" fill="#F18300"/>
<path d="M124.028 82.8024C121.923 82.4671 119.368 84.1816 118.758 86.2423C117.335 91.0396 126.308 98.1008 128.709 96.738C130.462 95.7434 128.891 90.1713 128.655 89.3745C128.028 87.2479 126.847 83.2475 124.028 82.8024Z" stroke="#0C0D0D" stroke-width="2" stroke-miterlimit="10"/>
<path d="M101.157 30.4789C100.762 29.9129 100.267 29.1601 99.7559 28.2369C99.2064 27.2533 98.8602 26.4839 98.5909 25.874C98.4701 25.6047 97.948 24.4233 97.36 22.7033C96.86 21.2471 96.6072 20.5162 96.4533 19.6755C96.2775 18.7303 96.0632 17.5269 96.316 16.0047C96.5028 14.8727 96.871 14.01 97.1237 13.4385C97.36 12.9 97.6403 12.4164 98.2063 11.4382C98.9866 10.0974 99.3767 9.42703 99.9757 8.61375C100.844 7.43229 100.992 7.49823 101.487 6.67396C102.069 5.69583 102.542 4.90453 102.421 3.90991C102.284 2.75043 101.371 1.59645 100.201 1.27224C98.8382 0.893077 97.6403 1.78329 96.5522 2.58558C94.6619 3.98134 93.7717 5.71781 93.1123 7.03664C92.843 7.57516 91.8044 9.71277 91.3703 12.8065C91.3044 13.2681 90.9252 16.1201 91.4857 19.1754C92.7057 25.8135 97.7667 30.1162 99.1679 31.2372C99.8328 30.9845 100.498 30.7372 101.168 30.4844L101.157 30.4789Z" fill="#FFD037" stroke="#0C0D0D" stroke-width="2" stroke-miterlimit="10"/>
<path d="M124.186 33.6104C127.043 28.3735 128.175 23.9115 128.681 20.8562C130.038 12.7454 128.357 6.54685 131.423 4.99722C132.528 4.44221 134 4.60707 134.962 5.28847C139.248 8.33277 133.769 22.0541 133.28 23.2521C131.978 26.4393 129.829 30.5991 126.153 34.9567C125.499 34.5116 124.845 34.061 124.191 33.6159L124.186 33.6104Z" fill="#FFD037" stroke="#0C0D0D" stroke-width="2" stroke-miterlimit="10"/>
<path d="M91.5057 11.525C91.1595 13.3 90.621 17.3114 92.2641 21.9438C94.1379 27.2136 97.7207 30.1645 99.155 31.2251C99.8199 30.9723 100.485 30.725 101.155 30.4723C99.8913 29.4831 98.2922 28.0379 96.7426 26.0322C95.9238 24.9771 94.7698 23.3066 93.7642 21.1085C92.0882 17.4378 91.6046 13.9923 91.5057 11.5195V11.525Z" fill="#F18300"/>
<path d="M124.186 33.6116C125.439 32.3752 126.725 30.9959 128.016 29.4737C130.588 26.4349 132.615 23.4565 134.22 20.7529C133.33 23.3466 131.995 26.4734 129.939 29.765C128.686 31.7817 127.384 33.5017 126.153 34.9524C125.499 34.5018 124.845 34.0567 124.191 33.6116H124.186Z" fill="#F18300"/>
<path d="M101.157 30.4781C100.25 29.1813 99.0081 27.1646 98.041 24.4939C96.7716 20.9771 95.8155 18.724 96.31 16.0039C96.92 12.6629 99.4917 9.2779 100.442 8.03051C101.486 6.66222 102.596 5.48076 102.41 3.90915C102.294 2.93101 101.673 1.85946 100.695 1.42535C99.3763 0.842861 97.9146 1.65065 97.2882 1.99684C93.6669 3.99707 90.0291 11.5529 91.4798 19.1637C92.7382 25.7798 97.3376 29.8022 99.162 31.2255C99.8269 30.9727 100.492 30.7254 101.162 30.4727L101.157 30.4781Z" stroke="#0C0D0D" stroke-width="2" stroke-miterlimit="10"/>
<path d="M112.761 50.2898C112.541 50.07 112.063 49.6909 111.348 49.5865C111.222 49.57 111.107 49.559 110.991 49.559C110.475 49.559 110.062 49.7238 109.865 49.8227L108.925 50.2898L109.392 47.0917L109.606 46.9543C109.903 46.7674 110.53 46.4487 111.359 46.4487C111.568 46.4487 111.782 46.4707 111.991 46.5092C113.118 46.7345 113.761 47.4763 113.986 47.7841L114.134 47.9819L113.475 50.9767L112.766 50.2788L112.761 50.2898Z" fill="#077BB3"/>
<path d="M111.361 47.0092C111.525 47.0092 111.701 47.0257 111.883 47.0586C112.883 47.2565 113.421 47.9543 113.542 48.1192C113.41 48.7127 113.278 49.3061 113.146 49.8996C112.96 49.7128 112.366 49.1798 111.426 49.0424C111.278 49.0204 111.13 49.0094 110.992 49.0094C110.322 49.0094 109.822 49.2292 109.624 49.3281C109.717 48.6907 109.811 48.0588 109.904 47.4213C110.042 47.3334 110.597 47.0037 111.361 47.0037M111.361 45.9102C110.393 45.9102 109.663 46.2783 109.316 46.4981L108.888 46.7674L108.816 47.2675L108.695 48.0752L108.536 49.1743L108.234 51.2514L110.113 50.3173C110.267 50.2403 110.591 50.1084 110.998 50.1084C111.091 50.1084 111.185 50.1139 111.273 50.1304C111.828 50.2128 112.207 50.5096 112.377 50.6799L113.795 52.0812L114.223 50.1359L114.449 49.1138L114.614 48.3555L114.724 47.8719L114.432 47.4708C114.169 47.1081 113.416 46.2454 112.102 45.9816C111.861 45.9321 111.613 45.9102 111.366 45.9102H111.361Z" fill="#0C0D0D"/>
<path d="M128.069 67.6331C121.222 67.6331 115.073 63.0501 113.111 56.4834C110.644 48.2352 115.353 39.5144 123.601 37.0471C125.063 36.613 126.569 36.3877 128.074 36.3877C134.921 36.3877 141.07 40.9706 143.032 47.5373C144.225 51.5323 143.79 55.7581 141.812 59.4288C139.828 63.0996 136.537 65.7812 132.542 66.9736C131.08 67.4078 129.575 67.6331 128.069 67.6331ZM128.074 39.2617C126.843 39.2617 125.613 39.443 124.42 39.8002C121.161 40.7728 118.474 42.9599 116.859 45.9602C115.243 48.9551 114.892 52.406 115.864 55.6646C117.463 61.0224 122.486 64.7701 128.074 64.7701C129.305 64.7701 130.536 64.5887 131.723 64.2316C138.46 62.2203 142.301 55.1041 140.29 48.3671C138.691 43.0093 133.668 39.2671 128.074 39.2671V39.2617Z" fill="#077BB3"/>
<path d="M128.074 36.9428C134.564 36.9428 140.553 41.1685 142.504 47.7023C144.883 55.6757 140.35 64.0723 132.382 66.4517C130.942 66.8803 129.491 67.0836 128.063 67.0836C121.573 67.0836 115.583 62.8579 113.633 56.3241C111.253 48.3507 115.787 39.9541 123.755 37.5747C125.194 37.1461 126.645 36.9428 128.074 36.9428ZM128.074 65.3142C129.332 65.3142 130.612 65.1328 131.882 64.7537C138.916 62.649 142.916 55.2416 140.817 48.2023C139.092 42.4379 133.805 38.7067 128.079 38.7067C126.821 38.7067 125.54 38.8881 124.271 39.2672C117.237 41.3664 113.242 48.7793 115.341 55.8131C117.067 61.5775 122.353 65.3087 128.079 65.3087M128.074 35.8438C126.513 35.8438 124.953 36.0745 123.441 36.5252C114.902 39.0749 110.028 48.1034 112.577 56.6429C114.611 63.4403 120.974 68.1826 128.063 68.1826C129.623 68.1826 131.184 67.9519 132.695 67.5012C136.833 66.2648 140.24 63.4898 142.29 59.6927C144.339 55.89 144.79 51.5214 143.554 47.3835C141.52 40.5861 135.157 35.8438 128.068 35.8438H128.074ZM128.074 64.2152C122.727 64.2152 117.924 60.6323 116.391 55.5054C115.457 52.3841 115.798 49.087 117.342 46.2186C118.891 43.3501 121.458 41.2565 124.579 40.3278C125.722 39.9871 126.898 39.8167 128.074 39.8167C133.421 39.8167 138.229 43.3996 139.762 48.5265C141.685 54.9723 138.009 61.7808 131.569 63.7096C130.431 64.0503 129.255 64.2206 128.074 64.2206V64.2152Z" fill="#0C0D0D"/>
<path d="M94.8812 61.8254C88.0343 61.8254 81.8852 57.2425 79.9234 50.6758C78.731 46.6808 79.1651 42.4551 81.1434 38.7843C83.1271 35.1136 86.4187 32.4319 90.4137 31.2395C91.8754 30.8054 93.381 30.5801 94.8867 30.5801C101.734 30.5801 107.883 35.163 109.844 41.7297C111.037 45.7247 110.603 49.9504 108.625 53.6212C106.641 57.292 103.349 59.9736 99.3542 61.166C97.8925 61.6001 96.3869 61.8254 94.8812 61.8254ZM94.8867 33.454C93.6558 33.454 92.4249 33.6354 91.2324 33.9926C87.9738 34.9652 85.2867 37.1523 83.6656 40.1526C82.05 43.1475 81.6984 46.5984 82.671 49.857C84.2756 55.2148 89.2926 58.9625 94.8812 58.9625C96.1121 58.9625 97.343 58.7811 98.53 58.4239C105.267 56.4127 109.108 49.2965 107.097 42.5595C105.498 37.2017 100.475 33.4595 94.8867 33.4595V33.454Z" fill="#077BB3"/>
<path d="M94.8873 31.1352C101.377 31.1352 107.367 35.3609 109.318 41.8946C111.697 49.8681 107.163 58.2647 99.1955 60.6441C97.7558 61.0727 96.3051 61.276 94.8763 61.276C88.3866 61.276 82.3969 57.0502 80.4461 50.5165C78.0667 42.5431 82.6002 34.1465 90.5681 31.7671C92.0079 31.3385 93.4586 31.1352 94.8873 31.1352ZM94.8818 59.5066C96.1402 59.5066 97.4206 59.3252 98.69 58.9461C105.724 56.8469 109.724 49.434 107.625 42.3947C105.9 36.6303 100.613 32.8991 94.8873 32.8991C93.6289 32.8991 92.3486 33.0804 91.0792 33.4596C84.0454 35.5642 80.0504 42.9717 82.1496 50.0055C83.8751 55.7699 89.1614 59.5011 94.8873 59.5011M94.8873 30.0361C93.3267 30.0361 91.7661 30.2669 90.2549 30.7175C86.1171 31.9539 82.7101 34.729 80.6604 38.5261C78.6107 42.3288 78.1601 46.6974 79.3965 50.8352C81.4297 57.6327 87.7931 62.375 94.8818 62.375C96.4425 62.375 98.0031 62.1442 99.5142 61.6936C108.054 59.1439 112.928 50.1154 110.373 41.5759C108.339 34.7784 101.976 30.0361 94.8873 30.0361ZM94.8818 58.4075C89.5351 58.4075 84.7323 54.8247 83.1992 49.6977C81.2759 43.2519 84.9466 36.4435 91.3924 34.5202C92.5354 34.1795 93.7114 34.0091 94.8873 34.0091C100.234 34.0091 105.042 37.592 106.575 42.7189C107.51 45.8402 107.169 49.1372 105.619 52.0057C104.07 54.8742 101.498 56.9678 98.3767 57.902C97.2337 58.2427 96.0633 58.413 94.8818 58.413V58.4075Z" fill="#0C0D0D"/>
<path d="M84.0068 56.6377C84.9465 57.6158 87.4083 59.9128 91.3703 60.8634C95.706 61.902 99.2119 60.7041 100.492 60.193C101.718 59.704 105.614 57.9565 108.059 53.5714C109.971 50.1479 110.004 46.9003 109.938 45.499C109.823 47.0816 109.339 50.7469 106.658 54.2748C105.812 55.3848 103.218 58.7038 98.5799 59.9183C95.9258 60.6107 93.7442 60.3194 92.4034 60.1216C88.3535 59.5336 85.474 57.7147 84.0068 56.6377Z" fill="#0A5877"/>
<path d="M119.13 64.1445C120.196 64.9413 122.421 66.381 125.62 66.9086C126.675 67.0844 129.285 67.3976 132.384 66.4525C137.764 64.8204 140.424 60.6826 140.869 59.9682C142.94 56.6327 143.138 53.385 143.138 51.9673C142.984 53.4784 142.429 56.8305 139.973 60.1221C139.253 61.0837 137.341 63.4137 134.258 64.9083C127.329 68.2549 120.097 64.6501 119.13 64.15V64.1445Z" fill="#0A5877"/>
<path d="M124.186 33.6104C127.043 28.3735 128.175 23.9115 128.681 20.8562C130.038 12.7454 128.357 6.54685 131.423 4.99722C132.528 4.44221 134 4.60707 134.962 5.28847C139.248 8.33277 133.769 22.0541 133.28 23.2521C131.978 26.4393 129.829 30.5991 126.153 34.9567C125.499 34.5116 124.845 34.061 124.191 33.6159L124.186 33.6104Z" stroke="#0C0D0D" stroke-width="2" stroke-miterlimit="10"/>
<circle cx="20.9993" cy="35.0005" r="7" fill="#269C9A" stroke="#3D0B0E" stroke-miterlimit="10"/>
<circle cx="266.999" cy="106" r="7" fill="#269C9A" stroke="#3D0B0E" stroke-miterlimit="10"/>
<rect x="18.9993" y="134.101" width="22.3831" height="22.3831" transform="rotate(-39.0478 18.9993 134.101)" fill="#269C9A" stroke="#3D0B0E" stroke-miterlimit="10"/>
<path d="M190.929 105.017L209.008 118.439L188.345 127.385L190.929 105.017Z" fill="#269C9A" stroke="#3D0B0E" stroke-miterlimit="10"/>
<path d="M259.187 32.7752C258.988 34.2059 258.486 35.4125 257.679 36.3952C256.872 37.3779 255.7 38.1153 254.163 38.6074C252.922 39.0043 251.659 39.1353 250.371 39.0004C249.08 38.8531 247.866 38.4761 246.728 37.8694C245.587 37.2504 244.568 36.4146 243.67 35.3619C242.773 34.3093 242.096 33.0699 241.64 31.6438C241.187 30.2301 241.025 28.8466 241.152 27.4933C241.292 26.1361 241.653 24.8928 242.235 23.7632C242.825 22.6173 243.603 21.6302 244.568 20.8017C245.542 19.9569 246.643 19.3381 247.87 18.9452C248.503 18.7428 249.151 18.6312 249.814 18.6103C250.485 18.5731 251.154 18.6532 251.818 18.8506C252.492 19.0317 253.141 19.3298 253.766 19.745C254.403 20.1562 254.996 20.7048 255.543 21.3909L254.121 16.945L262.119 14.3852L268.316 33.7498L260.318 36.3096L259.187 32.7752ZM257.222 26.6366C257.038 26.1485 256.77 25.7149 256.416 25.336C256.062 24.957 255.66 24.6618 255.21 24.4505C254.768 24.2228 254.294 24.0874 253.788 24.0443C253.278 23.9887 252.781 24.0384 252.298 24.1931C251.752 24.3677 251.277 24.6359 250.873 24.9975C250.478 25.3428 250.162 25.7446 249.926 26.2029C249.699 26.6449 249.559 27.1271 249.507 27.6494C249.456 28.1718 249.513 28.6934 249.68 29.2142C249.855 29.7599 250.123 30.2346 250.484 30.6384C250.842 31.0298 251.248 31.3373 251.703 31.561C252.169 31.7808 252.664 31.9164 253.186 31.968C253.705 32.0072 254.218 31.9454 254.726 31.7827C255.247 31.616 255.699 31.362 256.082 31.0208C256.465 30.6795 256.77 30.2878 256.998 29.8458C257.226 29.4038 257.369 28.9341 257.429 28.4365C257.484 27.9266 257.447 27.4258 257.317 26.9342L257.222 26.6366Z" fill="#124A49"/>
<path d="M164.799 89.1079C162.461 88.7334 160.965 87.4732 160.313 85.327L159.872 88.0811L153.423 87.0482L156.557 67.4799L163.155 67.5851L161.808 75.9922C162.495 75.0021 163.282 74.3402 164.169 74.0064C165.065 73.6743 166.083 73.5994 167.223 73.7819C168.253 73.9469 169.188 74.2949 170.028 74.8258C170.877 75.3583 171.584 76.0215 172.148 76.8155C172.711 77.6095 173.112 78.5061 173.348 79.5053C173.596 80.4965 173.631 81.5428 173.455 82.6445C173.278 83.7461 172.912 84.733 172.356 85.6053C171.801 86.468 171.127 87.1876 170.333 87.7642C169.541 88.3312 168.664 88.7357 167.7 88.9779C166.747 89.2216 165.78 89.2649 164.799 89.1079ZM161.061 80.6596C160.993 81.0848 161.009 81.4889 161.111 81.8718C161.212 82.2547 161.38 82.6037 161.614 82.9187C161.849 83.224 162.133 83.4826 162.465 83.6943C162.808 83.8979 163.183 84.0323 163.589 84.0973C164.015 84.1656 164.425 84.1469 164.818 84.0413C165.22 83.9373 165.577 83.7715 165.888 83.5437C166.209 83.3176 166.472 83.0376 166.678 82.7039C166.894 82.3717 167.032 82.0124 167.094 81.6259C167.162 81.2007 167.141 80.7958 167.03 80.4113C166.93 80.0187 166.762 79.6698 166.527 79.3644C166.291 79.0591 166.002 78.8046 165.658 78.6009C165.316 78.3876 164.942 78.2484 164.536 78.1834C164.12 78.1167 163.716 78.1314 163.325 78.2273C162.945 78.3151 162.601 78.4681 162.291 78.6861C161.982 78.9042 161.72 79.1745 161.506 79.497C161.293 79.8098 161.151 80.1587 161.079 80.5437L161.061 80.6596Z" fill="#124A49"/>
<path d="M48.941 90.2795C47.1737 90.2031 45.5958 90.3509 44.2074 90.723C43.4982 90.913 42.8871 91.1981 42.3743 91.5781C41.8766 91.9541 41.4786 92.4004 41.1803 92.917C40.8971 93.4296 40.7212 94.0105 40.6525 94.6597C40.5949 95.2898 40.6611 95.9595 40.8512 96.6688C41.0412 97.3781 41.3207 97.9987 41.6897 98.5306C42.0697 99.0434 42.5201 99.4565 43.0408 99.7699C43.5615 100.083 44.1389 100.276 44.773 100.349C45.4222 100.418 46.109 100.355 46.8334 100.161C48.2067 99.7929 49.5867 99.1481 50.9734 98.2266L53.6136 104.458C52.6133 105.373 51.5811 106.078 50.5169 106.574C49.4678 107.065 48.2944 107.485 46.9965 107.832C45.1705 108.322 43.411 108.486 41.718 108.325C40.0251 108.164 38.4807 107.712 37.085 106.97C35.6892 106.228 34.4783 105.21 33.4522 103.916C32.4372 102.603 31.6891 101.049 31.2079 99.2527C30.7267 97.4568 30.6296 95.736 30.9164 94.0902C31.1992 92.4293 31.7746 90.9245 32.6425 89.5759C33.5215 88.2082 34.6462 87.0334 36.0168 86.0515C37.3873 85.0696 38.9102 84.3543 40.5853 83.9054C41.3248 83.7073 41.9969 83.5595 42.6016 83.4622C43.2174 83.3457 43.8171 83.2902 44.4008 83.2955C44.9805 83.2857 45.5743 83.3288 46.1823 83.4247C46.7903 83.5206 47.4618 83.6723 48.1967 83.8797L48.941 90.2795Z" fill="#124A49"/>
</svg>
