<svg width="392" height="272" viewBox="0 0 392 272" fill="none" xmlns="http://www.w3.org/2000/svg">
<path d="M142.917 137.306L104.114 116.059L106.577 160.232L83.5949 122.431L63.6488 161.92L62.6393 117.691L25.6218 141.917L46.8601 103.107L2.68775 105.578L40.4886 82.587L1 62.6408L45.2369 61.6314L21.0108 24.6138L59.813 45.8601L57.35 1.68776L80.3325 39.4886L100.279 0L101.288 44.2289L138.306 20.0027L117.067 58.813L161.24 56.342L123.439 79.3245L162.927 99.2788L118.691 100.28L142.917 137.306Z" fill="#FFDABA"/>
<path d="M307.17 201.845L291.205 193.107L292.223 211.277L282.767 195.724L274.554 211.971L274.142 193.777L258.912 203.742L267.658 187.777L249.48 188.795L265.033 179.339L248.785 171.126L266.987 170.714L257.022 155.484L272.979 164.23L271.97 146.052L281.426 161.605L289.631 145.357L290.042 163.559L305.273 153.594L296.535 169.551L314.705 168.542L299.152 177.998L315.399 186.203L297.205 186.615L307.17 201.845Z" fill="#FFDABA"/>
<path d="M196.004 270.79C303.697 270.79 391 264.835 391 257.49C391 250.144 303.697 244.189 196.004 244.189C88.3106 244.189 1.00793 250.144 1.00793 257.49C1.00793 264.835 88.3106 270.79 196.004 270.79Z" fill="#FFDABA" stroke="#832706" stroke-width="1.22235" stroke-miterlimit="10"/>
<path d="M360.366 187.877C360.713 189.517 364.702 209.689 350.91 223.126C342.56 231.258 332.368 232.381 328.508 232.744C326.441 232.938 307.303 234.44 294.656 219.904C291.798 216.618 284.966 207.565 285.556 195.177C285.806 189.993 287.276 185.883 288.43 183.307" fill="#FFD037"/>
<path d="M350.914 223.128C350.477 226.584 348.685 237.26 339.665 245.989C328.351 256.939 314.041 256.721 309.342 256.374C305.239 256.075 287.207 254.113 279.14 239.238C277.621 236.436 273.18 227.125 276.685 216.361C279.01 209.222 283.694 204.918 285.907 203.125" fill="#FFD037"/>
<path d="M297.244 254.502C282.749 258.621 267.85 253.719 260.444 242.793C251.965 230.292 254.323 211.428 263.432 205.226C266.178 203.353 272.969 200.3 278.994 202.965C280.746 203.74 281.998 204.814 282.797 205.622" fill="#FFD037"/>
<path d="M259.034 240.459C257.71 239.862 244.765 233.724 242.326 219.891C240.711 210.734 243.723 198.403 252.897 193.856C256.846 191.902 262.644 191.022 268.167 193.469C273.933 196.012 276.493 200.89 277.187 202.351" fill="#FFD037"/>
<path d="M197.652 162.218C199.267 150.953 206.907 143.006 215.055 142.506C215.515 142.473 224.551 142.078 228.783 149.329C231.375 153.771 231.222 159.464 228.427 164.188" fill="#FFD037"/>
<path d="M225.213 145.491C223.695 137.512 217.881 131.577 211.065 130.689C206.309 130.067 200.091 131.779 196.982 136.673C196.513 137.416 193.849 141.607 195.52 146.468C196.845 150.312 200.026 152.121 200.866 152.565" fill="#FFD037"/>
<path d="M353.926 146.035C356.243 148.862 359.538 153.578 361.662 160.119C362.865 163.817 366.564 175.204 361.937 185.088C354.717 200.52 332.187 201.659 327.527 201.893C323.393 202.103 299.296 203.322 290.187 187.607C284.373 177.578 287.385 165.327 288.499 160.781C290.284 153.529 293.49 148.159 295.807 144.889" fill="#FFD037"/>
<path d="M352.95 145.801C348.396 149.831 343.058 152.173 341.507 152.827C334.861 155.621 329.201 156.073 327.149 156.186C317.935 156.679 310.708 153.99 306.896 152.213C303.166 150.469 297.158 147.578 292.272 140.98C285.561 131.92 285.602 122.14 285.755 119.015C286.054 112.967 287.944 108.428 289.074 105.771C291.723 99.5695 295.163 95.5076 296.471 94.054C304.773 84.7754 315.028 81.9975 317.459 81.3918C321.044 80.5035 332.689 77.8063 344.891 83.9921C362.1 92.7135 365.112 111.343 365.241 112.248C367.349 126.848 360.347 139.268 352.95 145.801Z" fill="#FFD037"/>
<path d="M196.739 148.905C195.948 149.171 194.664 149.486 193.13 149.309C190.4 149.002 187 147.185 186.056 143.809C185.03 140.143 187.59 137.05 188.155 136.372C190.174 133.933 192.831 133.239 194.301 132.859C197.345 132.068 199.921 132.504 201.253 132.827" fill="#FFD037"/>
<path d="M331.414 135.895C330.251 136.961 328.603 137.801 326.891 137.987C325.866 138.1 324.832 138.019 323.839 137.745C323.451 137.64 323.072 137.511 322.708 137.357C322.846 137.414 322.555 137.284 322.49 137.252C322.377 137.196 322.272 137.147 322.167 137.091C321.021 136.485 319.995 138.229 321.15 138.835C324.97 140.846 329.669 140.24 332.843 137.317C333.804 136.436 332.367 135.007 331.414 135.887V135.895Z" fill="#0D0C0C"/>
<path d="M346.679 119.171C351.627 118.038 354.464 111.999 353.018 105.682C351.571 99.3651 346.388 95.163 341.44 96.296C336.493 97.4291 333.655 103.468 335.102 109.785C336.549 116.102 341.732 120.304 346.679 119.171Z" fill="#0D0C0C"/>
<path d="M338.69 107.68C339.742 107.439 340.345 106.155 340.038 104.812C339.73 103.468 338.628 102.575 337.576 102.816C336.524 103.057 335.92 104.341 336.228 105.684C336.536 107.028 337.638 107.921 338.69 107.68Z" fill="white" stroke="#0D0C0C" stroke-width="1.22235" stroke-miterlimit="10"/>
<path d="M307.19 126.013C312.137 124.88 314.975 118.84 313.528 112.524C312.081 106.207 306.898 102.005 301.951 103.138C297.003 104.271 294.165 110.31 295.612 116.627C297.059 122.944 302.242 127.146 307.19 126.013Z" fill="#0D0C0C"/>
<path d="M300.199 111.936C301.251 111.695 301.854 110.411 301.546 109.068C301.239 107.724 300.136 106.831 299.084 107.072C298.032 107.312 297.429 108.597 297.737 109.94C298.044 111.283 299.146 112.177 300.199 111.936Z" fill="white" stroke="#0D0C0C" stroke-width="1.22235" stroke-miterlimit="10"/>
<path d="M288.433 183.314C289.402 185.907 291.421 190.211 295.604 193.934C300.094 197.923 304.753 199.166 309.356 200.394C316.753 202.372 322.769 202.122 327.534 201.88C332.872 201.613 337.773 201.371 343.644 199.215C347.343 197.858 353.956 194.822 360.368 187.877L361.022 192.771C356.767 198.916 352.139 202.663 348.619 204.94C327.033 218.959 300.094 208.534 291.162 201.193C289.345 199.699 286.107 196.962 285.542 192.609C284.977 188.265 287.383 184.687 288.433 183.314Z" fill="#F18300"/>
<path d="M350.915 223.13C350.705 224.374 350.504 225.617 350.294 226.861C348.63 229.219 345.707 232.78 341.144 235.712C324.969 246.105 300.767 240.508 288.937 227.321C286.813 224.955 279.125 216.387 281.798 208.595C282.687 206.01 284.463 204.234 285.901 203.111C286.708 206.446 288.485 211.905 292.66 217.405C293.378 218.35 300.016 226.869 311.298 230.713C331.042 237.44 349.123 224.447 350.907 223.122L350.915 223.13Z" fill="#F18300"/>
<path d="M297.246 254.504C294.977 254.819 291.634 254.98 287.887 253.971C275.16 250.555 267.02 236.149 266.964 223.527C266.964 221.782 267.06 207.965 275.192 203.992C276.646 203.282 278.019 203.048 278.988 202.967C280.256 203.855 281.523 204.743 282.791 205.624C281.362 207.247 279.464 209.742 277.954 213.15C277.058 215.177 275.079 220.248 275.467 226.83C276.089 237.449 282.42 244.321 284.148 246.138C288.84 251.08 294.073 253.406 297.254 254.496L297.246 254.504Z" fill="#F18300"/>
<path d="M259.031 240.459C252.215 225.891 254.912 211.178 263.432 205.226C264.934 204.176 269.399 201.455 277.184 202.343C276.724 200.938 275.48 197.821 272.516 196.4C267.316 193.905 261.195 198.726 259.628 199.953C252.522 205.541 251.456 214.368 251.197 216.499C249.687 229.024 257.278 238.4 259.031 240.459Z" fill="#F18300"/>
<path d="M352.948 145.798C353.239 146.266 353.53 146.735 353.82 147.195C351.963 150.062 348.676 154.35 343.363 157.935C330.628 166.544 316.593 164.194 313.137 163.612C311.271 163.297 304.124 161.965 296.324 157.257C294.192 155.973 292.504 154.729 291.317 153.793C291.85 152.242 292.56 150.49 293.53 148.633C294.272 147.211 295.056 145.952 295.799 144.861C298.221 147.09 308.34 155.868 323.998 156.191C339.898 156.522 350.485 147.898 352.94 145.79L352.948 145.798Z" fill="#F18300"/>
<path d="M344.889 83.9971C340.835 82.9231 333.963 81.6391 325.621 82.8343C323.158 83.1815 311.53 85.0389 300.531 94.3821C292.754 100.988 288.709 108.441 286.706 112.947C287.416 109.887 291.018 95.8518 304.787 86.8962C307.193 85.3296 317.909 78.7158 332.219 80.3713C337.702 81.0092 342.046 82.6647 344.889 84.0052V83.9971Z" fill="#F18300"/>
<path d="M228.427 164.173C231.125 160.418 230.85 157.745 230.624 156.671C229.348 150.622 219.52 147.336 212.115 148.805C201.981 150.816 197.943 161.403 197.652 162.202C198.436 161.153 203.119 155.136 211.187 154.466C212.503 154.353 216.993 154.046 221.652 156.808C225.787 159.255 227.725 162.743 228.427 164.173Z" fill="#F18300"/>
<path d="M225.21 145.492C225.177 145 225.072 144.321 224.765 143.579C223.037 139.444 216.617 137.805 212.006 138.281C203.818 139.129 196.841 147.148 198.141 150.58C198.593 151.767 199.998 152.316 200.854 152.575C201.113 151.937 204.27 144.451 212.402 142.706C219.185 141.253 224.378 144.895 225.201 145.492H225.21Z" fill="#F18300"/>
<path d="M196.74 148.905C195.642 147.468 195.182 146.127 194.964 145.158C193.518 138.536 200.253 132.94 200.576 132.682C199.244 133.005 196.522 133.877 194.253 136.332C193.89 136.727 190.571 140.434 191.136 145.215C191.282 146.442 191.532 148.542 193.123 149.317C194.649 150.052 196.417 149.091 196.732 148.913L196.74 148.905Z" fill="#F18300"/>
<path d="M293.708 162.076C292.901 165.363 293.014 168.084 293.224 169.788C293.644 173.269 294.08 176.814 296.413 178.09C297.318 178.582 298.965 178.986 300.338 180.674C300.58 180.973 300.758 181.239 300.863 181.409C297.592 186.286 295.598 186.117 295.073 186.012C292.852 185.576 292.158 181.522 290.761 173.414C289.985 168.908 289.969 166.324 291.479 164.16C292.198 163.126 293.078 162.472 293.716 162.076H293.708Z" fill="#F18300"/>
<path d="M360.366 187.877C360.713 189.517 364.702 209.689 350.91 223.126C342.56 231.258 332.368 232.381 328.508 232.744C326.441 232.938 307.303 234.44 294.656 219.904C291.798 216.618 284.966 207.565 285.556 195.177C285.806 189.993 287.276 185.883 288.43 183.307" stroke="#0D0C0C" stroke-width="2.44471" stroke-miterlimit="10"/>
<path d="M350.911 223.128C350.507 226.463 348.642 238.374 338.386 247.604C323.834 260.694 305.277 256.794 303.347 256.358C300.214 255.647 286.09 252.417 279.137 239.238C278.079 237.235 273.024 227.634 276.682 216.361C278.984 209.27 283.635 204.966 285.904 203.125" stroke="#0D0C0C" stroke-width="2.44471" stroke-miterlimit="10"/>
<path d="M297.244 254.502C282.749 258.621 267.85 253.719 260.444 242.793C251.965 230.292 254.323 211.428 263.432 205.226C266.178 203.353 272.969 200.3 278.994 202.965C280.746 203.74 281.998 204.814 282.797 205.622" stroke="#0D0C0C" stroke-width="2.44471" stroke-miterlimit="10"/>
<path d="M259.034 240.459C257.71 239.862 244.765 233.724 242.326 219.891C240.711 210.734 243.723 198.403 252.897 193.856C256.846 191.902 262.644 191.022 268.167 193.469C273.933 196.012 276.493 200.89 277.187 202.351" stroke="#0D0C0C" stroke-width="2.44471" stroke-miterlimit="10"/>
<path d="M197.652 162.218C199.267 150.953 206.907 143.006 215.055 142.506C215.515 142.473 224.551 142.078 228.783 149.329C231.375 153.771 231.222 159.464 228.427 164.188" stroke="#0D0C0C" stroke-width="2.44471" stroke-miterlimit="10"/>
<path d="M225.213 145.491C223.695 137.512 217.881 131.577 211.065 130.689C206.309 130.067 200.091 131.779 196.982 136.673C196.513 137.416 193.849 141.607 195.52 146.468C196.845 150.312 200.026 152.121 200.866 152.565" stroke="#0D0C0C" stroke-width="2.44471" stroke-miterlimit="10"/>
<path d="M353.926 146.035C356.243 148.862 359.538 153.578 361.662 160.119C362.865 163.817 366.564 175.204 361.937 185.088C354.717 200.52 332.187 201.659 327.527 201.893C323.393 202.103 299.296 203.322 290.187 187.607C284.373 177.578 287.385 165.327 288.499 160.781C290.284 153.529 293.49 148.159 295.807 144.889" stroke="#0D0C0C" stroke-width="2.44471" stroke-miterlimit="10"/>
<path d="M352.95 145.801C348.396 149.831 343.058 152.173 341.507 152.827C334.861 155.621 329.201 156.073 327.149 156.186C317.935 156.679 310.708 153.99 306.896 152.213C303.166 150.469 297.158 147.578 292.272 140.98C285.561 131.92 285.602 122.14 285.755 119.015C286.054 112.967 287.944 108.428 289.074 105.771C291.723 99.5695 295.163 95.5076 296.471 94.054C304.773 84.7754 315.028 81.9975 317.459 81.3918C321.044 80.5035 332.689 77.8063 344.891 83.9921C362.1 92.7135 365.112 111.343 365.241 112.248C367.349 126.848 360.347 139.268 352.95 145.801Z" stroke="#0D0C0C" stroke-width="2.44471" stroke-miterlimit="10"/>
<path d="M196.739 148.905C195.948 149.171 194.664 149.486 193.13 149.309C190.4 149.002 187 147.185 186.056 143.809C185.03 140.143 187.59 137.05 188.155 136.372C190.174 133.933 192.831 133.239 194.301 132.859C197.345 132.068 199.921 132.504 201.253 132.827" stroke="#0D0C0C" stroke-width="2.44471" stroke-miterlimit="10"/>
<path d="M293.711 162.075C289.972 163.925 290.618 171.774 290.836 174.479C291.046 177.071 291.733 185.373 295.06 186.003C297.838 186.528 300.89 181.448 301.835 179.793C302.489 178.654 307.843 169.044 303.692 164.498C301.77 162.39 298.306 161.93 297.652 161.841C296.19 161.647 294.882 161.478 293.703 162.067L293.711 162.075Z" stroke="#0D0C0C" stroke-width="2.44471" stroke-miterlimit="10"/>
<path d="M344.615 171.519C343.88 171.083 342.879 170.34 342.064 169.153C341.086 167.716 340.949 166.448 340.739 161.449C340.497 155.691 340.562 154.561 341.014 153.002C341.514 151.282 342.064 149.409 343.622 148.763C345.318 148.052 347.248 149.199 349.024 150.289C350.26 151.048 351.294 151.88 355.372 156.442C356.3 157.484 358.642 160.125 360.806 163.807C361.38 164.784 361.945 165.842 361.816 167.159C361.622 169.04 360.136 170.276 359.369 170.905C355.816 173.845 351.14 173.336 350.058 173.215C348.831 173.078 346.86 172.706 344.615 171.519Z" fill="#FFD037"/>
<path d="M361.59 165.663C360.484 164.161 356.292 166.357 353.345 166.414C350.236 166.47 345.916 164.185 340.513 154.002C340.675 158.193 340.836 162.384 340.998 166.583C341.539 167.795 343.049 170.734 346.368 172.446C351.463 175.071 356.979 172.818 359.361 170.904C360.096 170.314 361.655 169.063 361.808 167.157C361.848 166.664 361.897 166.099 361.582 165.671L361.59 165.663Z" fill="#F18300"/>
<path d="M344.615 171.519C343.88 171.083 342.879 170.34 342.064 169.153C341.086 167.716 340.949 166.448 340.739 161.449C340.497 155.691 340.562 154.561 341.014 153.002C341.514 151.282 342.064 149.409 343.622 148.763C345.318 148.052 347.248 149.199 349.024 150.289C350.26 151.048 351.294 151.88 355.372 156.442C356.3 157.484 358.642 160.125 360.806 163.807C361.38 164.784 361.945 165.842 361.816 167.159C361.622 169.04 360.136 170.276 359.369 170.905C355.816 173.845 351.14 173.336 350.058 173.215C348.831 173.078 346.86 172.706 344.615 171.519Z" stroke="#0D0C0C" stroke-width="2.44471" stroke-miterlimit="10"/>
<path d="M340.124 81.9946C340.73 81.1548 341.473 80.0323 342.248 78.6595C343.08 77.1979 343.605 76.0512 344.017 75.1386C344.202 74.7349 344.994 72.9825 345.898 70.4145C346.665 68.2423 347.045 67.1602 347.295 65.9004C347.57 64.4953 347.901 62.6945 347.546 60.4172C347.279 58.7214 346.738 57.4293 346.367 56.5652C346.019 55.7577 345.608 55.0309 344.768 53.5693C343.613 51.5504 343.04 50.5491 342.159 49.3297C340.875 47.5531 340.649 47.65 339.931 46.4145C339.075 44.9448 338.38 43.7577 338.566 42.2718C338.792 40.5437 340.157 38.8236 341.917 38.3552C343.96 37.8061 345.737 39.1466 347.352 40.3579C350.162 42.4737 351.47 45.074 352.447 47.0524C352.843 47.86 354.369 51.0659 354.983 55.6931C355.072 56.3876 355.605 60.6514 354.733 65.2059C352.827 75.1144 345.212 81.4778 343.112 83.1413C342.119 82.7618 341.126 82.3742 340.132 81.9946H340.124Z" fill="#FFD037" stroke="#0D0C0C" stroke-width="2.44471" stroke-miterlimit="10"/>
<path d="M305.667 86.4044C306.321 83.5376 306.443 81.115 306.426 79.3949C306.41 78.014 306.257 72.5551 303.269 66.5147C301.468 62.8646 299.966 61.7098 299.514 61.3707C299.142 61.1042 296.906 59.5052 293.853 59.3841C287.885 59.1499 283.573 64.7139 280.585 68.5578C280.585 68.5578 278.502 71.2388 277.404 75.1392C277.186 75.9064 276.959 76.8996 277.194 78.0948C277.266 78.4501 277.63 80.3155 279.196 81.2603C279.439 81.4057 279.963 81.7126 280.682 81.7368C281.498 81.7691 282.103 81.4299 282.54 81.1715C283.581 80.5739 284.179 79.7745 284.381 79.4918C286.731 76.2778 287.296 75.3088 287.296 75.3088C289.42 71.6506 291.091 69.228 292.811 67.9844C293.958 67.1526 294.838 67.0557 295.412 67.0961C295.412 67.0961 295.945 67.1365 296.47 67.3707C297.883 67.9925 300.653 71.0369 302.26 76.7704C303.269 80.3801 303.269 83.0611 303.245 83.9494C303.204 85.7502 302.962 87.2603 302.72 88.3748C303.705 87.7126 304.69 87.0504 305.667 86.3882V86.4044Z" fill="#FFD037" stroke="#0D0C0C" stroke-width="2.44471" stroke-miterlimit="10"/>
<path d="M354.77 53.7891C355.271 56.4459 356.022 62.454 353.511 69.3584C350.652 77.2158 345.258 81.5765 343.101 83.1512C342.108 82.7716 341.115 82.384 340.122 82.0045C342.027 80.5428 344.434 78.3948 346.768 75.423C348.003 73.8483 349.747 71.3773 351.274 68.0986C353.825 62.6316 354.585 57.4876 354.762 53.7891H354.77Z" fill="#F18300"/>
<path d="M305.666 86.4054C305.917 85.0891 306.232 83.0057 306.28 80.4377C306.353 76.8361 306.49 69.9155 302.194 64.2142C300.91 62.5103 299.158 60.2654 296.081 59.5709C293.513 58.9975 291.3 59.7809 290.25 60.2492C291.47 60.0312 293.465 59.8697 295.516 60.7338C298.762 62.1066 300.111 65.1914 301.378 68.0904C303.47 72.8872 303.543 77.1833 303.559 80.0824C303.583 83.5467 303.131 86.4135 302.719 88.3758C303.704 87.7136 304.689 87.0514 305.666 86.3893V86.4054Z" fill="#F18300"/>
<path d="M340.127 81.9939C341.5 80.072 343.381 77.0679 344.851 73.0868C346.797 67.8458 348.251 64.4865 347.54 60.4246C346.668 55.4259 342.864 50.3384 341.459 48.4568C339.917 46.3976 338.269 44.621 338.568 42.2711C338.754 40.8094 339.691 39.2105 341.16 38.5806C343.139 37.7327 345.311 38.9521 346.248 39.477C351.642 42.5133 356.98 53.8512 354.727 65.2052C352.765 75.0733 345.844 81.0329 343.107 83.1406C342.113 82.7611 341.12 82.3735 340.127 81.9939Z" stroke="#0D0C0C" stroke-width="2.44471" stroke-miterlimit="10"/>
<path d="M305.666 86.4006C306.191 84.2122 306.668 81.1032 306.304 77.4369C305.731 71.6873 302.743 61.1489 296.081 59.5661C286.923 57.3938 274.859 73.0843 277.499 79.2216C277.903 80.1583 278.913 81.4827 280.35 81.7007C285.777 82.5406 289.669 66.6482 295.411 67.0924C298.843 67.3588 301.031 73.3266 301.927 75.7895C303.906 81.2081 303.211 86.0534 302.719 88.3791C303.704 87.7169 304.689 87.0547 305.666 86.3925V86.4006Z" stroke="#0D0C0C" stroke-width="2.44471" stroke-miterlimit="10"/>
<path d="M320.534 108.026L320.752 107.736C321.091 107.275 322.068 106.185 323.74 105.862C324.039 105.806 324.337 105.773 324.644 105.773C325.896 105.773 326.833 106.258 327.285 106.541L327.6 106.742L328.254 111.491L326.881 110.796C326.51 110.611 325.92 110.384 325.169 110.384C325.008 110.384 324.838 110.393 324.669 110.417C323.594 110.562 322.876 111.127 322.545 111.459L321.495 112.476L320.55 108.018L320.534 108.026Z" fill="#077BB3"/>
<path d="M324.643 106.58C325.806 106.58 326.646 107.089 326.848 107.226L327.244 110.077C326.937 109.923 326.178 109.584 325.16 109.584C324.966 109.584 324.764 109.6 324.546 109.625C323.133 109.818 322.253 110.61 321.962 110.884C321.777 109.996 321.583 109.108 321.397 108.219C321.575 107.977 322.39 106.944 323.892 106.653C324.151 106.604 324.409 106.58 324.643 106.58ZM324.643 104.965C324.288 104.965 323.933 104.997 323.585 105.062C321.631 105.433 320.501 106.717 320.105 107.25L319.669 107.84L319.822 108.551L320.388 111.215L320.993 114.074L323.093 112.031C323.359 111.773 323.925 111.329 324.764 111.215C324.894 111.199 325.031 111.191 325.16 111.191C325.782 111.191 326.274 111.393 326.509 111.514L329.262 112.903L328.842 109.851L328.649 108.421L328.455 106.992L328.35 106.257L327.72 105.853C327.195 105.514 326.105 104.957 324.643 104.957V104.965Z" fill="#0D0C0C"/>
<path d="M299.647 137.195C297.329 137.195 295.02 136.848 292.783 136.161C280.484 132.382 273.563 119.3 277.343 107.001C280.371 97.1492 289.334 90.5273 299.639 90.5273C301.956 90.5273 304.266 90.8746 306.503 91.561C318.801 95.3403 325.722 108.422 321.943 120.721C318.915 130.573 309.951 137.195 299.647 137.195ZM299.639 94.7831C291.216 94.7831 283.892 100.194 281.413 108.253C279.919 113.122 280.403 118.282 282.793 122.78C285.176 127.287 289.173 130.589 294.034 132.083C295.859 132.649 297.749 132.931 299.639 132.931C308.061 132.931 315.378 127.521 317.857 119.461C320.95 109.408 315.289 98.7239 305.243 95.631C303.418 95.0657 301.528 94.7831 299.631 94.7831H299.639Z" fill="#077BB3"/>
<path d="M299.638 91.3338C301.827 91.3338 304.064 91.6568 306.26 92.3352C318.147 95.9933 324.825 108.599 321.167 120.486C318.187 130.168 309.272 136.394 299.646 136.394C297.458 136.394 295.221 136.071 293.025 135.393C281.138 131.735 274.459 119.129 278.117 107.242C281.097 97.5599 290.012 91.3338 299.638 91.3338ZM299.646 133.738C308.142 133.738 316.007 128.238 318.64 119.695C321.862 109.205 315.983 98.0768 305.493 94.8547C303.547 94.2571 301.584 93.9745 299.646 93.9745C291.151 93.9745 283.278 99.4657 280.653 108.01C277.431 118.499 283.318 129.627 293.808 132.849C295.754 133.447 297.716 133.73 299.654 133.73M299.638 89.7188C288.979 89.7188 279.708 96.5667 276.575 106.766C274.677 112.927 275.299 119.46 278.319 125.154C281.34 130.855 286.395 135.038 292.556 136.927C294.866 137.638 297.256 138.001 299.654 138.001C310.314 138.001 319.584 131.154 322.718 120.954C324.615 114.793 323.994 108.26 320.973 102.567C317.953 96.8655 312.898 92.6824 306.737 90.7928C304.427 90.0821 302.037 89.7188 299.638 89.7188ZM299.646 132.123C297.838 132.123 296.029 131.848 294.276 131.315C289.617 129.878 285.789 126.72 283.512 122.408C281.226 118.096 280.758 113.154 282.196 108.494C284.57 100.782 291.579 95.5976 299.646 95.5976C301.463 95.5976 303.264 95.8722 305.017 96.4052C309.676 97.8345 313.496 101 315.781 105.312C318.066 109.625 318.527 114.567 317.097 119.226C314.723 126.938 307.714 132.123 299.646 132.123Z" fill="#0D0C0C"/>
<path d="M349.325 128.906C347.007 128.906 344.698 128.558 342.461 127.872C336.509 126.039 331.623 122.001 328.7 116.494C325.785 110.986 325.187 104.671 327.021 98.7199C330.049 88.8679 339.012 82.2461 349.317 82.2461C351.634 82.2461 353.944 82.5933 356.181 83.2797C368.479 87.059 375.4 100.141 371.621 112.44C368.593 122.292 359.629 128.914 349.325 128.914V128.906ZM349.317 86.4938C340.894 86.4938 333.57 91.9043 331.091 99.9635C329.597 104.833 330.081 109.993 332.463 114.491C334.846 118.989 338.843 122.3 343.704 123.794C345.529 124.359 347.419 124.642 349.309 124.642C357.731 124.642 365.047 119.231 367.527 111.172C370.619 101.118 364.959 90.4345 354.913 87.3417C353.088 86.7764 351.198 86.4938 349.3 86.4938H349.317Z" fill="#077BB3"/>
<path d="M349.309 83.0448C351.497 83.0448 353.734 83.3678 355.931 84.0461C367.817 87.7043 374.496 100.31 370.838 112.197C367.858 121.879 358.943 128.105 349.317 128.105C347.128 128.105 344.891 127.782 342.695 127.104C330.808 123.446 324.13 110.84 327.788 98.9533C330.768 89.2709 339.683 83.0448 349.309 83.0448ZM349.317 125.449C357.812 125.449 365.678 119.949 368.31 111.406C371.532 100.916 365.653 89.7877 355.163 86.5656C353.217 85.968 351.255 85.6854 349.317 85.6854C340.822 85.6854 332.948 91.1767 330.324 99.7204C327.101 110.21 332.988 121.338 343.478 124.56C345.424 125.158 347.387 125.441 349.325 125.441M349.309 81.4297C338.649 81.4297 329.379 88.2776 326.245 98.4768C324.348 104.638 324.97 111.171 327.99 116.864C331.01 122.566 336.065 126.749 342.227 128.638C344.536 129.349 346.926 129.712 349.325 129.712C359.984 129.712 369.255 122.864 372.388 112.665C374.286 106.504 373.664 99.9708 370.644 94.2776C367.624 88.5764 362.568 84.3933 356.407 82.5037C354.097 81.7931 351.707 81.4297 349.309 81.4297ZM349.317 123.834C347.508 123.834 345.699 123.559 343.947 123.026C334.321 120.062 328.902 109.831 331.858 100.205C334.232 92.493 341.241 87.3086 349.309 87.3086C351.126 87.3086 352.926 87.5831 354.679 88.1161C364.297 91.0717 369.715 101.311 366.76 110.937C364.385 118.649 357.376 123.834 349.309 123.834H349.317Z" fill="#0D0C0C"/>
<path d="M365.451 121.292C364.029 122.746 360.323 126.146 354.388 127.518C347.895 129.02 342.67 127.179 340.764 126.404C338.939 125.653 333.141 123.004 329.532 116.423C326.721 111.287 326.705 106.426 326.826 104.334C326.98 106.7 327.666 112.183 331.623 117.489C332.875 119.16 336.711 124.151 343.631 126.024C347.588 127.09 350.85 126.679 352.861 126.404C358.918 125.572 363.254 122.891 365.451 121.3V121.292Z" fill="#0A5877"/>
<path d="M312.857 132.098C311.25 133.277 307.906 135.401 303.126 136.152C301.543 136.402 297.643 136.838 293.015 135.393C284.996 132.889 281.072 126.671 280.41 125.597C277.357 120.591 277.099 115.729 277.115 113.605C277.325 115.867 278.108 120.881 281.75 125.832C282.816 127.277 285.643 130.782 290.237 133.051C300.55 138.13 311.403 132.841 312.857 132.106V132.098Z" fill="#0A5877"/>
<path d="M110.159 75.8301H51.6849C49.9009 75.8301 48.4547 77.2763 48.4547 79.0602V254.337C48.4547 256.121 49.9009 257.567 51.6849 257.567H110.159C111.943 257.567 113.389 256.121 113.389 254.337V79.0602C113.389 77.2763 111.943 75.8301 110.159 75.8301Z" fill="#832706" stroke="#0D0C0C" stroke-width="2.44471" stroke-miterlimit="10"/>
<path d="M85.0591 75.8301H35.4521C33.6681 75.8301 32.2219 77.2763 32.2219 79.0602V254.337C32.2219 256.121 33.6681 257.567 35.4521 257.567H85.0591C86.8431 257.567 88.2892 256.121 88.2892 254.337V79.0602C88.2892 77.2763 86.8431 75.8301 85.0591 75.8301Z" fill="#D86339" stroke="#0D0C0C" stroke-width="2.44471" stroke-miterlimit="10"/>
<path d="M76.1623 85.207H44.3615C42.5775 85.207 41.1313 86.6532 41.1313 88.4372V244.97C41.1313 246.754 42.5775 248.201 44.3615 248.201H76.1623C77.9463 248.201 79.3925 246.754 79.3925 244.97V88.4372C79.3925 86.6532 77.9463 85.207 76.1623 85.207Z" stroke="#0D0C0C" stroke-width="2.44471" stroke-miterlimit="10"/>
<path d="M301.474 201.492H192.037C190.253 201.492 188.806 202.938 188.806 204.722V254.329C188.806 256.113 190.253 257.56 192.037 257.56H301.474C303.258 257.56 304.704 256.113 304.704 254.329V204.722C304.704 202.938 303.258 201.492 301.474 201.492Z" fill="#832706" stroke="#0D0C0C" stroke-width="2.44471" stroke-miterlimit="10"/>
<path d="M279.666 254.329V204.722C279.666 202.938 278.22 201.492 276.436 201.492H101.16C99.3762 201.492 97.93 202.938 97.93 204.722V254.329C97.93 256.113 99.3762 257.56 101.16 257.56H276.436C278.22 257.56 279.666 256.113 279.666 254.329Z" fill="#D86339" stroke="#0D0C0C" stroke-width="2.44471" stroke-miterlimit="10"/>
<path d="M270.3 245.428V213.627C270.3 211.843 268.854 210.396 267.07 210.396H110.537C108.753 210.396 107.306 211.843 107.306 213.627V245.428C107.306 247.211 108.753 248.658 110.537 248.658H267.07C268.854 248.658 270.3 247.211 270.3 245.428Z" stroke="#0D0C0C" stroke-width="2.44471" stroke-miterlimit="10"/>
<path d="M301.474 201.492H192.037C190.253 201.492 188.806 202.938 188.806 204.722V254.329C188.806 256.113 190.253 257.56 192.037 257.56H301.474C303.258 257.56 304.704 256.113 304.704 254.329V204.722C304.704 202.938 303.258 201.492 301.474 201.492Z" fill="#832706" stroke="#0D0C0C" stroke-width="2.44471" stroke-miterlimit="10"/>
<path d="M279.666 254.329V204.722C279.666 202.938 278.22 201.492 276.436 201.492H101.16C99.3762 201.492 97.93 202.938 97.93 204.722V254.329C97.93 256.113 99.3762 257.56 101.16 257.56H276.436C278.22 257.56 279.666 256.113 279.666 254.329Z" fill="#D86339" stroke="#0D0C0C" stroke-width="2.44471" stroke-miterlimit="10"/>
<path d="M270.3 245.428V213.627C270.3 211.843 268.854 210.396 267.07 210.396H110.537C108.753 210.396 107.306 211.843 107.306 213.627V245.428C107.306 247.211 108.753 248.658 110.537 248.658H267.07C268.854 248.658 270.3 247.211 270.3 245.428Z" stroke="#0D0C0C" stroke-width="2.44471" stroke-miterlimit="10"/>
<path d="M284.348 145.42H199.783C197.999 145.42 196.553 146.866 196.553 148.65V198.257C196.553 200.041 197.999 201.487 199.783 201.487H284.348C286.132 201.487 287.578 200.041 287.578 198.257V148.65C287.578 146.866 286.132 145.42 284.348 145.42Z" fill="#832706" stroke="#0D0C0C" stroke-width="2.44471" stroke-miterlimit="10"/>
<path d="M262.553 198.257V148.65C262.553 146.866 261.107 145.42 259.323 145.42H108.919C107.135 145.42 105.689 146.866 105.689 148.65V198.257C105.689 200.041 107.135 201.487 108.919 201.487H259.323C261.107 201.487 262.553 200.041 262.553 198.257Z" fill="#D86339" stroke="#0D0C0C" stroke-width="2.44471" stroke-miterlimit="10"/>
<path d="M254.465 189.345V157.545C254.465 155.761 253.019 154.314 251.235 154.314H117.006C115.222 154.314 113.776 155.761 113.776 157.545V189.345C113.776 191.129 115.222 192.576 117.006 192.576H251.235C253.019 192.576 254.465 191.129 254.465 189.345Z" stroke="#0D0C0C" stroke-width="2.44471" stroke-miterlimit="10"/>
<path d="M149.131 172.462V174.652C149.131 177.291 148.277 179.473 146.571 181.197C144.882 182.921 142.656 183.784 139.894 183.784C137.008 183.784 134.651 182.869 132.821 181.039C130.991 179.192 130.076 176.896 130.076 174.151C130.076 171.406 130.991 169.11 132.821 167.263C134.651 165.398 136.938 164.466 139.683 164.466C141.407 164.466 142.981 164.853 144.407 165.627C145.849 166.401 146.984 167.448 147.811 168.767L143.325 171.327C142.586 170.201 141.407 169.638 139.788 169.638C138.469 169.638 137.395 170.06 136.569 170.905C135.759 171.749 135.355 172.84 135.355 174.177C135.355 175.444 135.733 176.553 136.489 177.503C137.246 178.435 138.416 178.901 139.999 178.901C141.829 178.901 143.052 178.25 143.668 176.948H139.735V172.462H149.131ZM167.247 183.335L164.317 177.529H162.998V183.335H157.72V164.861H165.109C167.132 164.861 168.804 165.46 170.123 166.656C171.443 167.835 172.103 169.401 172.103 171.354C172.103 172.444 171.848 173.43 171.337 174.309C170.845 175.189 170.15 175.902 169.252 176.447L172.894 183.335H167.247ZM162.998 169.717V173.148H165.004C165.567 173.166 166.006 173.025 166.323 172.726C166.657 172.427 166.825 172.005 166.825 171.459C166.825 170.914 166.657 170.491 166.323 170.192C166.006 169.876 165.567 169.717 165.004 169.717H162.998ZM186.09 178.505H192.951V183.361H180.812V164.888H192.819V169.691H186.09V171.697H192.16V176.447H186.09V178.505ZM206.939 178.505H213.801V183.361H201.661V164.888H213.669V169.691H206.939V171.697H213.009V176.447H206.939V178.505ZM232.54 164.888H237.818V183.361H233.595L227.789 174.916V183.361H222.511V164.888H226.734L232.54 173.333V164.888Z" fill="white"/>
<path d="M149.131 172.462H150.047V171.545H149.131V172.462ZM146.571 181.197L145.919 180.552L145.916 180.556L146.571 181.197ZM132.821 181.039L132.17 181.684L132.173 181.687L132.821 181.039ZM132.821 167.263L133.472 167.908L133.475 167.905L132.821 167.263ZM144.407 165.627L143.969 166.432L143.973 166.435L144.407 165.627ZM147.811 168.767L148.265 169.564L149.095 169.09L148.588 168.28L147.811 168.767ZM143.325 171.327L142.558 171.83L143.031 172.55L143.779 172.123L143.325 171.327ZM136.569 170.905L135.913 170.263L135.907 170.271L136.569 170.905ZM136.489 177.503L135.772 178.074L135.777 178.08L136.489 177.503ZM143.668 176.948L144.496 177.34L145.115 176.032H143.668V176.948ZM139.735 176.948H138.819V177.865H139.735V176.948ZM139.735 172.462V171.545H138.819V172.462H139.735ZM148.214 172.462V174.652H150.047V172.462H148.214ZM148.214 174.652C148.214 177.073 147.44 179.016 145.919 180.552L147.222 181.842C149.114 179.93 150.047 177.51 150.047 174.652H148.214ZM145.916 180.556C144.425 182.078 142.448 182.867 139.894 182.867V184.7C142.864 184.7 145.339 183.765 147.226 181.839L145.916 180.556ZM139.894 182.867C137.221 182.867 135.107 182.028 133.469 180.391L132.173 181.687C134.195 183.709 136.796 184.7 139.894 184.7V182.867ZM133.472 180.394C131.823 178.728 130.993 176.669 130.993 174.151H129.16C129.16 177.122 130.16 179.655 132.17 181.684L133.472 180.394ZM130.993 174.151C130.993 171.633 131.823 169.573 133.472 167.908L132.17 166.618C130.16 168.647 129.16 171.18 129.16 174.151H130.993ZM133.475 167.905C135.123 166.225 137.17 165.382 139.683 165.382V163.549C136.706 163.549 134.178 164.571 132.167 166.621L133.475 167.905ZM139.683 165.382C141.264 165.382 142.687 165.736 143.969 166.432L144.844 164.821C143.276 163.969 141.55 163.549 139.683 163.549V165.382ZM143.973 166.435C145.283 167.137 146.296 168.077 147.034 169.254L148.588 168.28C147.672 166.819 146.416 165.664 144.84 164.819L143.973 166.435ZM147.357 167.971L142.87 170.531L143.779 172.123L148.265 169.564L147.357 167.971ZM144.091 170.824C143.147 169.385 141.644 168.721 139.788 168.721V170.555C141.17 170.555 142.025 171.017 142.558 171.83L144.091 170.824ZM139.788 168.721C138.254 168.721 136.934 169.222 135.913 170.264L137.224 171.546C137.857 170.899 138.684 170.555 139.788 170.555V168.721ZM135.907 170.271C134.91 171.31 134.438 172.64 134.438 174.177H136.271C136.271 173.04 136.608 172.188 137.23 171.539L135.907 170.271ZM134.438 174.177C134.438 175.642 134.881 176.954 135.772 178.074L137.207 176.932C136.585 176.151 136.271 175.246 136.271 174.177H134.438ZM135.777 178.08C136.76 179.291 138.234 179.818 139.999 179.818V177.985C138.598 177.985 137.732 177.579 137.201 176.925L135.777 178.08ZM139.999 179.818C141.018 179.818 141.94 179.637 142.72 179.222C143.512 178.8 144.108 178.162 144.496 177.34L142.839 176.556C142.612 177.037 142.288 177.375 141.858 177.604C141.415 177.84 140.81 177.985 139.999 177.985V179.818ZM143.668 176.032H139.735V177.865H143.668V176.032ZM140.652 176.948V172.462H138.819V176.948H140.652ZM139.735 173.379H149.131V171.545H139.735V173.379ZM167.247 183.335L166.428 183.748L166.682 184.252H167.247V183.335ZM164.317 177.529L165.136 177.116L164.882 176.612H164.317V177.529ZM162.998 177.529V176.612H162.081V177.529H162.998ZM162.998 183.335V184.252H163.915V183.335H162.998ZM157.72 183.335H156.803V184.252H157.72V183.335ZM157.72 164.861V163.945H156.803V164.861H157.72ZM170.123 166.656L169.508 167.335L169.513 167.34L170.123 166.656ZM171.337 174.309L170.544 173.849L170.537 173.861L171.337 174.309ZM169.252 176.447L168.776 175.664L168.038 176.112L168.442 176.875L169.252 176.447ZM172.894 183.335V184.252H174.416L173.705 182.906L172.894 183.335ZM162.998 169.717V168.801H162.081V169.717H162.998ZM162.998 173.148H162.081V174.065H162.998V173.148ZM165.004 173.148L165.032 172.232L165.018 172.231H165.004V173.148ZM166.323 172.726L165.712 172.043L165.703 172.051L165.694 172.059L166.323 172.726ZM166.323 170.192L165.675 170.841L165.693 170.859L165.712 170.876L166.323 170.192ZM168.065 182.922L165.136 177.116L163.499 177.942L166.428 183.748L168.065 182.922ZM164.317 176.612H162.998V178.446H164.317V176.612ZM162.081 177.529V183.335H163.915V177.529H162.081ZM162.998 182.418H157.72V184.252H162.998V182.418ZM158.636 183.335V164.861H156.803V183.335H158.636ZM157.72 165.778H165.109V163.945H157.72V165.778ZM165.109 165.778C166.938 165.778 168.38 166.313 169.508 167.335L170.739 165.977C169.228 164.607 167.327 163.945 165.109 163.945V165.778ZM169.513 167.34C170.616 168.325 171.186 169.631 171.186 171.354H173.019C173.019 169.17 172.27 167.344 170.734 165.972L169.513 167.34ZM171.186 171.354C171.186 172.295 170.968 173.12 170.544 173.849L172.13 174.769C172.728 173.74 173.019 172.594 173.019 171.354H171.186ZM170.537 173.861C170.125 174.597 169.544 175.197 168.776 175.664L169.729 177.23C170.755 176.606 171.564 175.781 172.137 174.757L170.537 173.861ZM168.442 176.875L172.084 183.763L173.705 182.906L170.063 176.018L168.442 176.875ZM172.894 182.418H167.247V184.252H172.894V182.418ZM162.081 169.717V173.148H163.915V169.717H162.081ZM162.998 174.065H165.004V172.231H162.998V174.065ZM164.975 174.064C165.707 174.087 166.411 173.904 166.953 173.392L165.694 172.059C165.602 172.146 165.426 172.244 165.032 172.232L164.975 174.064ZM166.934 173.409C167.504 172.899 167.741 172.204 167.741 171.459H165.908C165.908 171.805 165.81 171.954 165.712 172.043L166.934 173.409ZM167.741 171.459C167.741 170.714 167.504 170.019 166.934 169.509L165.712 170.876C165.81 170.964 165.908 171.113 165.908 171.459H167.741ZM166.971 169.544C166.441 169.014 165.744 168.801 165.004 168.801V170.634C165.389 170.634 165.572 170.737 165.675 170.841L166.971 169.544ZM165.004 168.801H162.998V170.634H165.004V168.801ZM186.09 178.505H185.173V179.422H186.09V178.505ZM192.951 178.505H193.868V177.589H192.951V178.505ZM192.951 183.361V184.278H193.868V183.361H192.951ZM180.812 183.361H179.895V184.278H180.812V183.361ZM180.812 164.888V163.971H179.895V164.888H180.812ZM192.819 164.888H193.736V163.971H192.819V164.888ZM192.819 169.691V170.608H193.736V169.691H192.819ZM186.09 169.691V168.774H185.173V169.691H186.09ZM186.09 171.697H185.173V172.613H186.09V171.697ZM192.16 171.697H193.076V170.78H192.16V171.697ZM192.16 176.447V177.364H193.076V176.447H192.16ZM186.09 176.447V175.53H185.173V176.447H186.09ZM186.09 179.422H192.951V177.589H186.09V179.422ZM192.035 178.505V183.361H193.868V178.505H192.035ZM192.951 182.445H180.812V184.278H192.951V182.445ZM181.728 183.361V164.888H179.895V183.361H181.728ZM180.812 165.805H192.819V163.971H180.812V165.805ZM191.903 164.888V169.691H193.736V164.888H191.903ZM192.819 168.774H186.09V170.608H192.819V168.774ZM185.173 169.691V171.697H187.007V169.691H185.173ZM186.09 172.613H192.16V170.78H186.09V172.613ZM191.243 171.697V176.447H193.076V171.697H191.243ZM192.16 175.53H186.09V177.364H192.16V175.53ZM185.173 176.447V178.505H187.007V176.447H185.173ZM206.939 178.505H206.023V179.422H206.939V178.505ZM213.801 178.505H214.718V177.589H213.801V178.505ZM213.801 183.361V184.278H214.718V183.361H213.801ZM201.661 183.361H200.745V184.278H201.661V183.361ZM201.661 164.888V163.971H200.745V164.888H201.661ZM213.669 164.888H214.586V163.971H213.669V164.888ZM213.669 169.691V170.608H214.586V169.691H213.669ZM206.939 169.691V168.774H206.023V169.691H206.939ZM206.939 171.697H206.023V172.613H206.939V171.697ZM213.009 171.697H213.926V170.78H213.009V171.697ZM213.009 176.447V177.364H213.926V176.447H213.009ZM206.939 176.447V175.53H206.023V176.447H206.939ZM206.939 179.422H213.801V177.589H206.939V179.422ZM212.884 178.505V183.361H214.718V178.505H212.884ZM213.801 182.445H201.661V184.278H213.801V182.445ZM202.578 183.361V164.888H200.745V183.361H202.578ZM201.661 165.805H213.669V163.971H201.661V165.805ZM212.752 164.888V169.691H214.586V164.888H212.752ZM213.669 168.774H206.939V170.608H213.669V168.774ZM206.023 169.691V171.697H207.856V169.691H206.023ZM206.939 172.613H213.009V170.78H206.939V172.613ZM212.093 171.697V176.447H213.926V171.697H212.093ZM213.009 175.53H206.939V177.364H213.009V175.53ZM206.023 176.447V178.505H207.856V176.447H206.023ZM232.54 164.888V163.971H231.623V164.888H232.54ZM237.818 164.888H238.734V163.971H237.818V164.888ZM237.818 183.361V184.278H238.734V183.361H237.818ZM233.595 183.361L232.84 183.881L233.113 184.278H233.595V183.361ZM227.789 174.916L228.545 174.397L226.872 171.965V174.916H227.789ZM227.789 183.361V184.278H228.706V183.361H227.789ZM222.511 183.361H221.594V184.278H222.511V183.361ZM222.511 164.888V163.971H221.594V164.888H222.511ZM226.734 164.888L227.489 164.368L227.216 163.971H226.734V164.888ZM232.54 173.333L231.784 173.852L233.456 176.285V173.333H232.54ZM232.54 165.805H237.818V163.971H232.54V165.805ZM236.901 164.888V183.361H238.734V164.888H236.901ZM237.818 182.445H233.595V184.278H237.818V182.445ZM234.351 182.842L228.545 174.397L227.034 175.436L232.84 183.881L234.351 182.842ZM226.872 174.916V183.361H228.706V174.916H226.872ZM227.789 182.445H222.511V184.278H227.789V182.445ZM223.428 183.361V164.888H221.594V183.361H223.428ZM222.511 165.805H226.734V163.971H222.511V165.805ZM225.978 165.407L231.784 173.852L233.295 172.813L227.489 164.368L225.978 165.407ZM233.456 173.333V164.888H231.623V173.333H233.456Z" fill="#0D0C0C"/>
<path d="M66.1674 113.198C67.9267 114.195 68.8064 115.71 68.8064 117.743C68.8064 119.619 68.1907 121.095 66.9591 122.17C65.7471 123.246 63.9779 123.783 61.6516 123.783H52.972V103.257H61.1238C63.4305 103.257 65.1899 103.756 66.4019 104.753C67.614 105.75 68.22 107.177 68.22 109.034C68.22 110.813 67.5358 112.201 66.1674 113.198ZM60.7719 108.301H58.8366V111.057L61.0945 111.028C61.9351 110.91 62.3554 110.461 62.3554 109.679C62.3554 109.229 62.199 108.887 61.8862 108.653C61.5734 108.418 61.202 108.301 60.7719 108.301ZM61.2997 118.74C61.7689 118.74 62.1599 118.603 62.4727 118.329C62.7854 118.055 62.9418 117.704 62.9418 117.273C62.9418 116.452 62.502 115.973 61.6223 115.837L58.8366 115.807V118.74H61.2997ZM60.5977 155.095H67.342V160.783H54.7331V140.257H60.5977V155.095ZM66.4178 196.229C64.8734 197.578 62.8599 198.252 60.3772 198.252C57.8945 198.252 55.881 197.578 54.3367 196.229C52.7923 194.88 52.0201 193.111 52.0201 190.922V177.257H57.8847V190.277C57.8847 191.801 58.7156 192.564 60.3772 192.564C62.0388 192.564 62.8697 191.801 62.8697 190.277V177.257H68.7343V190.922C68.7343 193.111 67.9621 194.88 66.4178 196.229ZM59.7959 228.388H67.4199V233.783H53.9313V213.257H67.2733V218.594H59.7959V220.822H66.5402V226.101H59.7959V228.388Z" fill="white"/>
<path d="M66.1674 113.198L65.6275 112.457L64.4781 113.294L65.7154 113.995L66.1674 113.198ZM66.9591 122.17L66.3561 121.48L66.3507 121.485L66.9591 122.17ZM52.972 123.783H52.0552V124.7H52.972V123.783ZM52.972 103.257V102.34H52.0552V103.257H52.972ZM66.4019 104.753L65.8196 105.461L66.4019 104.753ZM58.8366 108.301V107.384H57.9198V108.301H58.8366ZM58.8366 111.057H57.9198V111.986L58.8485 111.974L58.8366 111.057ZM61.0945 111.028L61.1064 111.944L61.164 111.944L61.2212 111.936L61.0945 111.028ZM61.8862 108.653L62.4363 107.919H62.4363L61.8862 108.653ZM61.6223 115.837L61.7632 114.931L61.698 114.921L61.6319 114.92L61.6223 115.837ZM58.8366 115.807L58.8462 114.891L57.9198 114.881V115.807H58.8366ZM58.8366 118.74H57.9198V119.656H58.8366V118.74ZM65.7154 113.995C67.1856 114.828 67.8897 116.038 67.8897 117.743H69.7232C69.7232 115.382 68.6679 113.561 66.6193 112.4L65.7154 113.995ZM67.8897 117.743C67.8897 119.398 67.3578 120.605 66.3562 121.48L67.562 122.861C69.0235 121.585 69.7232 119.841 69.7232 117.743H67.8897ZM66.3507 121.485C65.3668 122.357 63.8502 122.866 61.6516 122.866V124.7C64.1056 124.7 66.1274 124.134 67.5675 122.856L66.3507 121.485ZM61.6516 122.866H52.972V124.7H61.6516V122.866ZM53.8888 123.783V103.257H52.0552V123.783H53.8888ZM52.972 104.174H61.1238V102.34H52.972V104.174ZM61.1238 104.174C63.3148 104.174 64.8334 104.649 65.8196 105.461L66.9843 104.045C65.5465 102.862 63.5463 102.34 61.1238 102.34V104.174ZM65.8196 105.461C66.7802 106.251 67.3032 107.395 67.3032 109.034H69.1367C69.1367 106.958 68.4477 105.248 66.9843 104.045L65.8196 105.461ZM67.3032 109.034C67.3032 110.537 66.7453 111.642 65.6275 112.457L66.7072 113.939C68.3262 112.759 69.1367 111.088 69.1367 109.034H67.3032ZM60.7719 107.384H58.8366V109.217H60.7719V107.384ZM57.9198 108.301V111.057H59.7534V108.301H57.9198ZM58.8485 111.974L61.1064 111.944L61.0826 110.111L58.8247 110.14L58.8485 111.974ZM61.2212 111.936C61.7714 111.859 62.3104 111.656 62.7099 111.229C63.1184 110.792 63.2721 110.237 63.2721 109.679H61.4386C61.4386 109.903 61.3822 109.964 61.3704 109.976C61.3495 109.999 61.2582 110.079 60.9678 110.12L61.2212 111.936ZM63.2721 109.679C63.2721 108.99 63.0167 108.354 62.4363 107.919L61.3361 109.386C61.3813 109.42 61.4386 109.468 61.4386 109.679H63.2721ZM62.4363 107.919C61.9488 107.554 61.3794 107.384 60.7719 107.384V109.217C61.0246 109.217 61.198 109.282 61.3361 109.386L62.4363 107.919ZM61.2997 119.656C61.9604 119.656 62.5748 119.458 63.0764 119.019L61.869 117.639C61.745 117.748 61.5774 117.823 61.2997 117.823V119.656ZM63.0764 119.019C63.5959 118.564 63.8586 117.957 63.8586 117.273H62.0251C62.0251 117.45 61.975 117.546 61.869 117.639L63.0764 119.019ZM63.8586 117.273C63.8586 116.696 63.7002 116.128 63.2872 115.678C62.8827 115.238 62.3333 115.019 61.7632 114.931L61.4814 116.743C61.791 116.791 61.9014 116.88 61.9367 116.919C61.9635 116.948 62.0251 117.03 62.0251 117.273H63.8586ZM61.6319 114.92L58.8462 114.891L58.8269 116.724L61.6126 116.753L61.6319 114.92ZM57.9198 115.807V118.74H59.7534V115.807H57.9198ZM58.8366 119.656H61.2997V117.823H58.8366V119.656ZM60.5977 155.095H59.6809V156.011H60.5977V155.095ZM67.342 155.095H68.2588V154.178H67.342V155.095ZM67.342 160.783V161.7H68.2588V160.783H67.342ZM54.7331 160.783H53.8163V161.7H54.7331V160.783ZM54.7331 140.257V139.34H53.8163V140.257H54.7331ZM60.5977 140.257H61.5145V139.34H60.5977V140.257ZM60.5977 156.011H67.342V154.178H60.5977V156.011ZM66.4252 155.095V160.783H68.2588V155.095H66.4252ZM67.342 159.866H54.7331V161.7H67.342V159.866ZM55.6499 160.783V140.257H53.8163V160.783H55.6499ZM54.7331 141.174H60.5977V139.34H54.7331V141.174ZM59.6809 140.257V155.095H61.5145V140.257H59.6809ZM66.4178 196.229L67.0208 196.92L66.4178 196.229ZM54.3367 196.229L53.7336 196.92L54.3367 196.229ZM52.0201 177.257V176.34H51.1034V177.257H52.0201ZM57.8847 177.257H58.8015V176.34H57.8847V177.257ZM62.8697 177.257V176.34H61.9529V177.257H62.8697ZM68.7343 177.257H69.651V176.34H68.7343V177.257ZM65.8147 195.539C64.4708 196.712 62.687 197.336 60.3772 197.336V199.169C63.0328 199.169 65.276 198.444 67.0208 196.92L65.8147 195.539ZM60.3772 197.336C58.0674 197.336 56.2836 196.712 54.9397 195.539L53.7336 196.92C55.4784 198.444 57.7216 199.169 60.3772 199.169V197.336ZM54.9397 195.539C53.6095 194.377 52.9369 192.867 52.9369 190.922H51.1034C51.1034 193.355 51.9751 195.384 53.7336 196.92L54.9397 195.539ZM52.9369 190.922V177.257H51.1034V190.922H52.9369ZM52.0201 178.174H57.8847V176.34H52.0201V178.174ZM56.968 177.257V190.276H58.8015V177.257H56.968ZM56.968 190.276C56.968 191.201 57.2236 192.058 57.888 192.667C58.5375 193.263 59.4237 193.48 60.3772 193.48V191.647C59.6691 191.647 59.309 191.483 59.1277 191.316C58.9613 191.164 58.8015 190.876 58.8015 190.276H56.968ZM60.3772 193.48C61.3307 193.48 62.2169 193.263 62.8664 192.667C63.5308 192.058 63.7864 191.201 63.7864 190.276H61.9529C61.9529 190.876 61.7931 191.164 61.6267 191.316C61.4454 191.483 61.0853 191.647 60.3772 191.647V193.48ZM63.7864 190.276V177.257H61.9529V190.276H63.7864ZM62.8697 178.174H68.7343V176.34H62.8697V178.174ZM67.8175 177.257V190.922H69.651V177.257H67.8175ZM67.8175 190.922C67.8175 192.867 67.1449 194.377 65.8147 195.539L67.0208 196.92C68.7793 195.384 69.651 193.355 69.651 190.922H67.8175ZM59.7959 228.388H58.8791V229.305H59.7959V228.388ZM67.4199 228.388H68.3367V227.471H67.4199V228.388ZM67.4199 233.783V234.7H68.3367V233.783H67.4199ZM53.9313 233.783H53.0145V234.7H53.9313V233.783ZM53.9313 213.257V212.34H53.0145V213.257H53.9313ZM67.2733 213.257H68.19V212.34H67.2733V213.257ZM67.2733 218.594V219.511H68.19V218.594H67.2733ZM59.7959 218.594V217.677H58.8791V218.594H59.7959ZM59.7959 220.822H58.8791V221.739H59.7959V220.822ZM66.5402 220.822H67.457V219.906H66.5402V220.822ZM66.5402 226.101V227.017H67.457V226.101H66.5402ZM59.7959 226.101V225.184H58.8791V226.101H59.7959ZM59.7959 229.305H67.4199V227.471H59.7959V229.305ZM66.5031 228.388V233.783H68.3367V228.388H66.5031ZM67.4199 232.866H53.9313V234.7H67.4199V232.866ZM54.8481 233.783V213.257H53.0145V233.783H54.8481ZM53.9313 214.174H67.2733V212.34H53.9313V214.174ZM66.3565 213.257V218.594H68.19V213.257H66.3565ZM67.2733 217.677H59.7959V219.511H67.2733V217.677ZM58.8791 218.594V220.822H60.7127V218.594H58.8791ZM59.7959 221.739H66.5402V219.906H59.7959V221.739ZM65.6234 220.822V226.101H67.457V220.822H65.6234ZM66.5402 225.184H59.7959V227.017H66.5402V225.184ZM58.8791 226.101V228.388H60.7127V226.101H58.8791Z" fill="#0D0C0C"/>
<path d="M146.14 220.8H151.418V239.273H146.14V232.465H141.654V239.273H136.376V220.8H141.654V227.345H146.14V220.8ZM175.406 236.925C173.523 238.772 171.209 239.696 168.465 239.696C165.72 239.696 163.398 238.772 161.498 236.925C159.615 235.06 158.674 232.764 158.674 230.037C158.674 227.31 159.615 225.022 161.498 223.175C163.398 221.31 165.72 220.378 168.465 220.378C171.209 220.378 173.523 221.31 175.406 223.175C177.306 225.022 178.256 227.31 178.256 230.037C178.256 232.764 177.306 235.06 175.406 236.925ZM165.219 233.256C166.081 234.101 167.163 234.523 168.465 234.523C169.767 234.523 170.84 234.101 171.684 233.256C172.547 232.394 172.978 231.321 172.978 230.037C172.978 228.752 172.547 227.688 171.684 226.843C170.84 225.981 169.767 225.55 168.465 225.55C167.163 225.55 166.081 225.981 165.219 226.843C164.374 227.688 163.952 228.752 163.952 230.037C163.952 231.321 164.374 232.394 165.219 233.256ZM195.04 239.247L192.111 233.441H190.791V239.247H185.513V220.774H192.902C194.926 220.774 196.597 221.372 197.917 222.568C199.236 223.747 199.896 225.313 199.896 227.266C199.896 228.356 199.641 229.342 199.131 230.221C198.638 231.101 197.943 231.814 197.046 232.359L200.688 239.247H195.04ZM190.791 225.629V229.06H192.797C193.36 229.078 193.8 228.937 194.116 228.638C194.451 228.339 194.618 227.917 194.618 227.371C194.618 226.826 194.451 226.404 194.116 226.104C193.8 225.788 193.36 225.629 192.797 225.629H190.791ZM213.678 239.696C211.672 239.696 210.001 239.282 208.664 238.455C207.327 237.611 206.429 236.476 205.972 235.051L210.485 232.438C211.101 234.004 212.209 234.787 213.81 234.787C215.006 234.787 215.605 234.47 215.605 233.837C215.605 233.661 215.561 233.503 215.473 233.362C215.385 233.221 215.218 233.098 214.971 232.992C214.725 232.887 214.505 232.808 214.312 232.755C214.136 232.685 213.819 232.588 213.361 232.465C212.904 232.341 212.561 232.245 212.332 232.174C208.655 231.066 206.817 229.087 206.817 226.236C206.817 224.547 207.424 223.149 208.638 222.04C209.869 220.932 211.479 220.378 213.467 220.378C215.033 220.378 216.432 220.747 217.663 221.486C218.912 222.225 219.827 223.289 220.408 224.679L216.027 227.239C215.517 225.937 214.672 225.286 213.493 225.286C213.036 225.286 212.684 225.383 212.438 225.577C212.209 225.753 212.095 225.981 212.095 226.263C212.095 226.65 212.297 226.949 212.702 227.16C213.124 227.371 213.924 227.644 215.103 227.978C215.983 228.242 216.704 228.497 217.267 228.744C217.83 228.972 218.42 229.307 219.035 229.746C219.651 230.169 220.109 230.723 220.408 231.409C220.724 232.078 220.883 232.869 220.883 233.784C220.883 235.667 220.232 237.127 218.93 238.165C217.646 239.185 215.895 239.696 213.678 239.696ZM232.893 234.418H239.754V239.273H227.615V220.8H239.622V225.603H232.893V227.609H238.963V232.359H232.893V234.418Z" fill="white"/>
<path d="M146.14 220.8V219.883H145.224V220.8H146.14ZM151.418 220.8H152.335V219.883H151.418V220.8ZM151.418 239.273V240.19H152.335V239.273H151.418ZM146.14 239.273H145.224V240.19H146.14V239.273ZM146.14 232.465H147.057V231.548H146.14V232.465ZM141.654 232.465V231.548H140.737V232.465H141.654ZM141.654 239.273V240.19H142.571V239.273H141.654ZM136.376 239.273H135.459V240.19H136.376V239.273ZM136.376 220.8V219.883H135.459V220.8H136.376ZM141.654 220.8H142.571V219.883H141.654V220.8ZM141.654 227.345H140.737V228.262H141.654V227.345ZM146.14 227.345V228.262H147.057V227.345H146.14ZM146.14 221.717H151.418V219.883H146.14V221.717ZM150.502 220.8V239.273H152.335V220.8H150.502ZM151.418 238.357H146.14V240.19H151.418V238.357ZM147.057 239.273V232.465H145.224V239.273H147.057ZM146.14 231.548H141.654V233.381H146.14V231.548ZM140.737 232.465V239.273H142.571V232.465H140.737ZM141.654 238.357H136.376V240.19H141.654V238.357ZM137.292 239.273V220.8H135.459V239.273H137.292ZM136.376 221.717H141.654V219.883H136.376V221.717ZM140.737 220.8V227.345H142.571V220.8H140.737ZM141.654 228.262H146.14V226.428H141.654V228.262ZM147.057 227.345V220.8H145.224V227.345H147.057ZM175.406 236.925L176.048 237.579L176.048 237.579L175.406 236.925ZM161.498 236.925L160.852 237.576L160.859 237.582L161.498 236.925ZM161.498 223.175L162.14 223.829L162.14 223.829L161.498 223.175ZM175.406 223.175L174.76 223.826L174.767 223.832L175.406 223.175ZM165.219 233.256L164.564 233.898L164.57 233.905L164.577 233.911L165.219 233.256ZM171.684 233.256L171.036 232.608L171.684 233.256ZM171.684 226.843L171.03 227.485L171.036 227.492L171.043 227.498L171.684 226.843ZM165.219 226.843L164.57 226.195V226.195L165.219 226.843ZM174.763 236.27C173.06 237.942 170.98 238.779 168.465 238.779V240.612C171.439 240.612 173.986 239.602 176.048 237.579L174.763 236.27ZM168.465 238.779C165.949 238.779 163.859 237.942 162.137 236.267L160.859 237.582C162.937 239.602 165.491 240.612 168.465 240.612V238.779ZM162.143 236.273C160.44 234.586 159.591 232.527 159.591 230.037H157.757C157.757 233 158.791 235.533 160.852 237.576L162.143 236.273ZM159.591 230.037C159.591 227.546 160.439 225.498 162.14 223.829L160.856 222.521C158.791 224.547 157.757 227.073 157.757 230.037H159.591ZM162.14 223.829C163.863 222.138 165.952 221.294 168.465 221.294V219.461C165.488 219.461 162.933 220.482 160.855 222.521L162.14 223.829ZM168.465 221.294C170.977 221.294 173.056 222.138 174.76 223.826L176.051 222.524C173.99 220.482 171.441 219.461 168.465 219.461V221.294ZM174.767 223.832C176.483 225.502 177.339 227.549 177.339 230.037H179.173C179.173 227.07 178.128 224.543 176.045 222.518L174.767 223.832ZM177.339 230.037C177.339 232.524 176.483 234.582 174.763 236.27L176.048 237.579C178.128 235.537 179.173 233.003 179.173 230.037H177.339ZM164.577 233.911C165.625 234.938 166.944 235.44 168.465 235.44V233.606C167.382 233.606 166.537 233.264 165.86 232.601L164.577 233.911ZM168.465 235.44C169.986 235.44 171.3 234.937 172.333 233.905L171.036 232.608C170.38 233.264 169.548 233.606 168.465 233.606V235.44ZM172.333 233.905C173.377 232.861 173.894 231.55 173.894 230.037H172.061C172.061 231.092 171.716 231.928 171.036 232.608L172.333 233.905ZM173.894 230.037C173.894 228.524 173.376 227.217 172.326 226.188L171.043 227.498C171.717 228.158 172.061 228.981 172.061 230.037H173.894ZM172.339 226.202C171.308 225.149 169.992 224.633 168.465 224.633V226.467C169.542 226.467 170.372 226.814 171.03 227.485L172.339 226.202ZM168.465 224.633C166.938 224.633 165.617 225.149 164.57 226.195L165.867 227.492C166.545 226.814 167.388 226.467 168.465 226.467V224.633ZM164.57 226.195C163.54 227.225 163.035 228.529 163.035 230.037H164.869C164.869 228.975 165.208 228.15 165.867 227.492L164.57 226.195ZM163.035 230.037C163.035 231.544 163.54 232.853 164.564 233.898L165.874 232.615C165.209 231.936 164.869 231.098 164.869 230.037H163.035ZM195.04 239.247L194.222 239.66L194.476 240.164H195.04V239.247ZM192.111 233.441L192.929 233.028L192.675 232.524H192.111V233.441ZM190.791 233.441V232.524H189.874V233.441H190.791ZM190.791 239.247V240.164H191.708V239.247H190.791ZM185.513 239.247H184.596V240.164H185.513V239.247ZM185.513 220.774V219.857H184.596V220.774H185.513ZM197.917 222.568L197.301 223.247L197.306 223.252L197.917 222.568ZM199.131 230.221L198.338 229.761L198.331 229.773L199.131 230.221ZM197.046 232.359L196.57 231.576L195.832 232.024L196.235 232.788L197.046 232.359ZM200.688 239.247V240.164H202.209L201.498 238.819L200.688 239.247ZM190.791 225.629V224.713H189.874V225.629H190.791ZM190.791 229.06H189.874V229.977H190.791V229.06ZM192.797 229.06L192.826 228.144L192.811 228.143H192.797V229.06ZM194.116 228.638L193.505 227.955L193.496 227.963L193.487 227.971L194.116 228.638ZM194.116 226.104L193.468 226.753L193.486 226.771L193.505 226.788L194.116 226.104ZM195.859 238.834L192.929 233.028L191.292 233.854L194.222 239.66L195.859 238.834ZM192.111 232.524H190.791V234.358H192.111V232.524ZM189.874 233.441V239.247H191.708V233.441H189.874ZM190.791 238.33H185.513V240.164H190.791V238.33ZM186.43 239.247V220.774H184.596V239.247H186.43ZM185.513 221.69H192.902V219.857H185.513V221.69ZM192.902 221.69C194.731 221.69 196.173 222.225 197.301 223.247L198.532 221.889C197.021 220.519 195.12 219.857 192.902 219.857V221.69ZM197.306 223.252C198.409 224.237 198.979 225.544 198.979 227.266H200.813C200.813 225.082 200.063 223.256 198.527 221.884L197.306 223.252ZM198.979 227.266C198.979 228.207 198.761 229.032 198.338 229.761L199.924 230.681C200.521 229.652 200.813 228.506 200.813 227.266H198.979ZM198.331 229.773C197.919 230.509 197.338 231.109 196.57 231.576L197.522 233.142C198.548 232.519 199.357 231.693 199.931 230.669L198.331 229.773ZM196.235 232.788L199.877 239.676L201.498 238.819L197.856 231.931L196.235 232.788ZM200.688 238.33H195.04V240.164H200.688V238.33ZM189.874 225.629V229.06H191.708V225.629H189.874ZM190.791 229.977H192.797V228.143H190.791V229.977ZM192.768 229.977C193.5 229.999 194.204 229.816 194.746 229.304L193.487 227.971C193.395 228.058 193.219 228.156 192.826 228.144L192.768 229.977ZM194.728 229.321C195.298 228.811 195.535 228.116 195.535 227.371H193.701C193.701 227.717 193.604 227.867 193.505 227.955L194.728 229.321ZM195.535 227.371C195.535 226.626 195.298 225.931 194.728 225.421L193.505 226.788C193.604 226.876 193.701 227.026 193.701 227.371H195.535ZM194.765 225.456C194.234 224.926 193.537 224.713 192.797 224.713V226.546C193.183 226.546 193.365 226.65 193.468 226.753L194.765 225.456ZM192.797 224.713H190.791V226.546H192.797V224.713ZM208.664 238.455L208.174 239.23L208.182 239.235L208.664 238.455ZM205.972 235.051L205.513 234.258L204.873 234.628L205.099 235.331L205.972 235.051ZM210.485 232.438L211.338 232.103L210.948 231.111L210.026 231.645L210.485 232.438ZM215.473 233.362L214.695 233.848V233.848L215.473 233.362ZM214.971 232.992L214.61 233.835L214.971 232.992ZM214.312 232.755L213.971 233.606L214.02 233.626L214.07 233.639L214.312 232.755ZM213.361 232.465L213.6 231.579L213.361 232.465ZM212.332 232.174L212.602 231.298L212.597 231.297L212.332 232.174ZM208.638 222.04L208.024 221.359L208.019 221.363L208.638 222.04ZM217.663 221.486L217.191 222.272L217.196 222.275L217.663 221.486ZM220.408 224.679L220.87 225.471L221.563 225.066L221.254 224.326L220.408 224.679ZM216.027 227.239L215.173 227.574L215.564 228.571L216.489 228.031L216.027 227.239ZM212.438 225.577L212.997 226.303L213.004 226.298L212.438 225.577ZM212.702 227.16L212.278 227.973L212.285 227.977L212.292 227.98L212.702 227.16ZM215.103 227.978L215.367 227.1L215.353 227.096L215.103 227.978ZM217.267 228.744L216.9 229.583L216.911 229.588L216.922 229.593L217.267 228.744ZM219.035 229.746L218.503 230.492L218.51 230.497L218.517 230.502L219.035 229.746ZM220.408 231.409L219.567 231.775L219.573 231.788L219.579 231.801L220.408 231.409ZM218.93 238.165L219.5 238.883L219.501 238.882L218.93 238.165ZM213.678 238.779C211.796 238.779 210.303 238.391 209.146 237.676L208.182 239.235C209.699 240.173 211.548 240.612 213.678 240.612V238.779ZM209.153 237.68C207.987 236.944 207.233 235.979 206.845 234.771L205.099 235.331C205.626 236.973 206.666 238.278 208.174 239.23L209.153 237.68ZM206.431 235.844L210.944 233.232L210.026 231.645L205.513 234.258L206.431 235.844ZM209.632 232.774C209.989 233.683 210.517 234.432 211.249 234.949C211.984 235.468 212.855 235.704 213.81 235.704V233.87C213.164 233.87 212.68 233.715 212.307 233.451C211.93 233.185 211.596 232.759 211.338 232.103L209.632 232.774ZM213.81 235.704C214.459 235.704 215.088 235.623 215.585 235.36C215.847 235.221 216.092 235.021 216.268 234.741C216.447 234.458 216.521 234.145 216.521 233.837H214.688C214.688 233.845 214.688 233.81 214.717 233.764C214.743 233.722 214.764 233.72 214.727 233.739C214.626 233.793 214.357 233.87 213.81 233.87V235.704ZM216.521 233.837C216.521 233.5 216.435 233.171 216.25 232.876L214.695 233.848C214.694 233.846 214.693 233.844 214.692 233.841C214.69 233.838 214.689 233.834 214.688 233.832C214.688 233.829 214.687 233.827 214.687 233.828C214.688 233.828 214.688 233.831 214.688 233.837H216.521ZM216.25 232.876C216.019 232.506 215.654 232.288 215.332 232.15L214.61 233.835C214.686 233.868 214.724 233.892 214.738 233.902C214.751 233.912 214.726 233.897 214.695 233.848L216.25 232.876ZM215.332 232.15C215.059 232.033 214.798 231.937 214.553 231.87L214.07 233.639C214.212 233.678 214.391 233.741 214.61 233.835L215.332 232.15ZM214.652 231.904C214.42 231.811 214.056 231.702 213.6 231.579L213.123 233.35C213.582 233.473 213.851 233.558 213.971 233.606L214.652 231.904ZM213.6 231.579C213.145 231.457 212.814 231.364 212.602 231.298L212.063 233.051C212.307 233.126 212.663 233.226 213.123 233.35L213.6 231.579ZM212.597 231.297C210.852 230.771 209.639 230.065 208.867 229.235C208.115 228.425 207.733 227.444 207.733 226.236H205.9C205.9 227.879 206.438 229.313 207.524 230.482C208.591 231.631 210.135 232.47 212.068 233.052L212.597 231.297ZM207.733 226.236C207.733 224.797 208.238 223.647 209.256 222.717L208.019 221.363C206.609 222.651 205.9 224.298 205.9 226.236H207.733ZM209.251 222.722C210.282 221.794 211.658 221.294 213.467 221.294V219.461C211.3 219.461 209.457 220.07 208.024 221.359L209.251 222.722ZM213.467 221.294C214.882 221.294 216.115 221.626 217.191 222.272L218.135 220.7C216.748 219.868 215.184 219.461 213.467 219.461V221.294ZM217.196 222.275C218.269 222.909 219.054 223.818 219.562 225.033L221.254 224.326C220.6 222.761 219.556 221.541 218.13 220.697L217.196 222.275ZM219.945 223.888L215.564 226.448L216.489 228.031L220.87 225.471L219.945 223.888ZM216.88 226.905C216.583 226.146 216.159 225.502 215.571 225.048C214.971 224.586 214.263 224.37 213.493 224.37V226.203C213.903 226.203 214.206 226.312 214.451 226.501C214.707 226.698 214.96 227.031 215.173 227.574L216.88 226.905ZM213.493 224.37C212.922 224.37 212.339 224.489 211.871 224.856L213.004 226.298C213.029 226.278 213.15 226.203 213.493 226.203V224.37ZM211.879 224.85C211.431 225.194 211.178 225.688 211.178 226.263H213.011C213.011 226.255 213.012 226.255 213.011 226.262C213.009 226.269 213.006 226.279 213 226.29C212.995 226.301 212.99 226.308 212.987 226.311C212.984 226.314 212.986 226.311 212.997 226.303L211.879 224.85ZM211.178 226.263C211.178 227.06 211.636 227.638 212.278 227.973L213.126 226.347C213.023 226.294 213.002 226.258 213.006 226.264C213.008 226.266 213.01 226.272 213.012 226.277C213.013 226.282 213.011 226.279 213.011 226.263H211.178ZM212.292 227.98C212.801 228.235 213.679 228.527 214.853 228.86L215.353 227.096C214.17 226.761 213.447 226.508 213.112 226.34L212.292 227.98ZM214.84 228.856C215.7 229.114 216.383 229.357 216.9 229.583L217.635 227.904C217.026 227.637 216.266 227.37 215.367 227.1L214.84 228.856ZM216.922 229.593C217.405 229.789 217.932 230.085 218.503 230.492L219.568 229C218.908 228.529 218.256 228.156 217.612 227.894L216.922 229.593ZM218.517 230.502C218.991 230.827 219.337 231.246 219.567 231.775L221.248 231.043C220.881 230.199 220.312 229.51 219.554 228.99L218.517 230.502ZM219.579 231.801C219.826 232.322 219.966 232.974 219.966 233.784H221.8C221.8 232.765 221.623 231.833 221.236 231.017L219.579 231.801ZM219.966 233.784C219.966 235.429 219.412 236.608 218.358 237.448L219.501 238.882C221.052 237.646 221.8 235.904 221.8 233.784H219.966ZM218.36 237.447C217.286 238.3 215.76 238.779 213.678 238.779V240.612C216.03 240.612 218.005 240.071 219.5 238.883L218.36 237.447ZM232.893 234.418H231.976V235.334H232.893V234.418ZM239.754 234.418H240.671V233.501H239.754V234.418ZM239.754 239.273V240.19H240.671V239.273H239.754ZM227.615 239.273H226.698V240.19H227.615V239.273ZM227.615 220.8V219.883H226.698V220.8H227.615ZM239.622 220.8H240.539V219.883H239.622V220.8ZM239.622 225.603V226.52H240.539V225.603H239.622ZM232.893 225.603V224.686H231.976V225.603H232.893ZM232.893 227.609H231.976V228.525H232.893V227.609ZM238.963 227.609H239.879V226.692H238.963V227.609ZM238.963 232.359V233.276H239.879V232.359H238.963ZM232.893 232.359V231.442H231.976V232.359H232.893ZM232.893 235.334H239.754V233.501H232.893V235.334ZM238.838 234.418V239.273H240.671V234.418H238.838ZM239.754 238.357H227.615V240.19H239.754V238.357ZM228.531 239.273V220.8H226.698V239.273H228.531ZM227.615 221.717H239.622V219.883H227.615V221.717ZM238.706 220.8V225.603H240.539V220.8H238.706ZM239.622 224.686H232.893V226.52H239.622V224.686ZM231.976 225.603V227.609H233.809V225.603H231.976ZM232.893 228.525H238.963V226.692H232.893V228.525ZM238.046 227.609V232.359H239.879V227.609H238.046ZM238.963 231.442H232.893V233.276H238.963V231.442ZM231.976 232.359V234.418H233.809V232.359H231.976Z" fill="#0D0C0C"/>
</svg>
