<svg width="54" height="45" viewBox="0 0 54 45" fill="none" xmlns="http://www.w3.org/2000/svg">
<path d="M52.0666 2.87711V19.4337C52.0666 19.8 52.0819 20.17 52.0666 20.5362C52.0397 21.1932 51.5451 21.5406 50.9125 21.5444C47.4658 21.5632 44.0191 21.5444 40.5723 21.5444H27.5215C26.655 21.5444 25.0371 21.8238 24.8914 20.6759C24.7994 19.9434 24.8876 19.1505 24.8876 18.4143V14.4309L24.6077 15.0992C25.8422 13.8834 27.0768 12.6676 28.3151 11.448C28.4992 11.2668 28.6947 11.0893 28.8711 10.9006C29.5343 10.1945 29.7414 9.20525 29.3196 8.32172C28.8634 7.36646 27.7746 6.86429 26.7317 7.08706C26.1605 7.20788 25.7464 7.5628 25.3477 7.9517C24.6499 8.63888 23.9521 9.32607 23.2505 10.017L24.8876 10.6853V3.25469C24.8876 2.78649 24.8876 2.35983 25.317 2.05778C25.5355 1.90297 25.7962 1.88787 26.0684 1.88787C26.7777 1.88787 27.487 1.88787 28.1963 1.88787H49.9732C50.418 1.88787 51.0621 1.79347 51.4646 1.97471C51.8365 2.14084 52.0436 2.48821 52.0589 2.88466C52.0972 4.09667 54.0142 4.10045 53.9759 2.88466C53.9299 1.44988 52.8947 0.226544 51.4263 0.033981C51.1886 0.00377508 50.9662 0 50.7285 0H26.2601C26.1375 0 26.0186 0 25.8959 0C24.439 0.0377574 23.1968 1.06476 23.0013 2.50709C22.8479 3.64359 22.9668 4.8556 22.9668 5.99587V10.6891C22.9668 11.5047 24.0173 11.9351 24.6039 11.3574C25.3745 10.5985 26.1068 9.74518 26.9388 9.05799C27.3413 8.72573 27.8244 9.15994 27.51 9.57527C27.2685 9.89243 26.9081 10.1681 26.6244 10.4475L23.9176 13.1131C23.5304 13.4945 23.0013 13.8645 22.9668 14.4422C22.9438 14.7933 22.9668 15.152 22.9668 15.5032V19.7056C22.9668 20.0303 22.9514 20.3588 22.9706 20.6873C23.0434 21.9257 23.9061 23.0282 25.1368 23.3454C25.662 23.4813 26.2295 23.4435 26.7662 23.4435H46.6377C48.0984 23.4435 49.563 23.4813 51.0237 23.4435C52.7107 23.402 53.9605 22.1145 53.9759 20.4645C53.9835 19.7849 53.9759 19.1014 53.9759 18.4218V2.87711C53.9759 1.66132 52.0589 1.66132 52.0589 2.87711H52.0666Z" fill="#087BB4"/>
<path d="M14.5934 12.2076V42.4437C14.5934 42.5306 14.5627 42.6891 14.5934 42.7722C14.6739 42.9836 14.486 42.557 14.6969 42.742C14.6547 42.708 14.4362 42.742 14.3825 42.742H12.7492C12.6534 42.742 12.2547 42.6778 12.178 42.742C12.1128 42.7949 12.316 42.7533 12.2432 42.8439C12.2585 42.8251 12.2393 42.7609 12.2432 42.7382C12.2853 42.557 12.2432 42.3116 12.2432 42.1266V30.4029C12.2432 29.5382 12.1281 28.6849 11.2118 28.262C10.6904 28.0204 10.0693 28.0921 9.50954 28.0921C8.94978 28.0921 8.33635 28.0355 7.82259 28.3413C7.01363 28.8246 6.95995 29.6289 6.95995 30.4444V42.1945C6.95995 42.3531 6.90628 42.6136 6.95995 42.7647C6.96762 42.7873 6.94845 42.8251 6.95995 42.8439C6.81426 42.5947 7.21683 42.8288 6.97912 42.742C6.83727 42.6891 6.56505 42.742 6.41553 42.742H5.50688C5.34969 42.742 4.6059 42.6514 4.51388 42.742C4.58289 42.674 4.59823 42.8515 4.60973 42.8364C4.62123 42.8213 4.6059 42.7798 4.60973 42.7609C4.6404 42.6703 4.60973 42.5155 4.60973 42.4173V12.2076L3.65124 13.1515H15.5519C16.7864 13.1515 16.7864 11.2637 15.5519 11.2637H3.65124C3.13366 11.2637 2.69275 11.6979 2.69275 12.2076V42.5947C2.69275 43.3839 2.98796 44.1277 3.77393 44.4713C4.24934 44.679 4.77459 44.6299 5.28068 44.6299H6.8641C8.06413 44.6299 8.86543 43.837 8.8731 42.6627C8.87694 42.0171 8.8731 41.3714 8.8731 40.7258V30.1839C8.8731 30.1348 8.91144 29.8818 8.8731 29.8441C9.00729 29.98 8.52038 29.9573 8.8731 29.9838C9.14148 30.0064 9.42136 29.9838 9.68973 29.9838C9.89294 29.9838 10.1728 30.0329 10.3683 29.9838C10.6176 29.9234 10.1843 29.9573 10.3223 29.8479C10.284 29.8781 10.3223 30.1726 10.3223 30.2179V37.6108C10.3223 39.3061 10.3032 41.0052 10.3223 42.7005C10.3377 43.9087 11.1965 44.6336 12.3888 44.6336H14.0451C14.5972 44.6336 15.1455 44.6676 15.6439 44.3693C16.7174 43.7275 16.5065 42.3871 16.5065 41.3374V12.2076C16.5065 10.9918 14.5895 10.9918 14.5895 12.2076H14.5934Z" fill="#087BB4"/>
<path d="M2.30932 26.2177C1.76874 26.2177 1.92209 25.3606 1.92209 24.9792C1.92209 23.9183 1.92209 22.8535 1.92209 21.7925C1.92209 19.6026 1.92209 17.4127 1.92209 15.219C1.92209 14.966 1.91059 14.713 1.9681 14.4676C2.15213 13.7011 2.85758 13.1536 3.65505 13.1536L2.69655 12.2097V24.6772C2.69655 25.0963 2.89209 26.195 2.30932 26.2215C1.08246 26.2781 1.07479 28.166 2.30932 28.1093C3.54386 28.0527 4.56369 27.1163 4.61354 25.8401C4.6212 25.6853 4.61354 25.5305 4.61354 25.3795V12.2135C4.61354 11.7037 4.17263 11.2695 3.65505 11.2695C1.60387 11.2695 0.0357837 12.9422 0.00511195 14.9169C-0.00638994 15.7022 0.00511195 16.4914 0.00511195 17.2767C0.00511195 19.8631 0.00511195 22.4533 0.00511195 25.0396C0.00511195 25.3039 -0.00255598 25.572 0.00511195 25.8363C0.0472856 27.071 1.01728 28.1169 2.30932 28.1169C3.60137 28.1169 3.54386 26.229 2.30932 26.229V26.2177Z" fill="#087BB4"/>
<path d="M27.5177 9.56759L22.8173 14.1966L23.4959 13.921H15.5557L16.5142 14.8649V12.2106L15.5557 13.1545C17.3577 13.1545 19.1635 13.1545 20.9655 13.1545C21.6671 13.1545 22.5719 13.3244 23.124 12.8223C23.3847 12.5882 23.6262 12.3277 23.8754 12.0822C24.7956 11.1761 25.7196 10.2661 26.6397 9.35992C26.7854 9.21645 26.9656 8.96725 27.1841 8.92571C27.5484 8.86153 27.7746 9.29574 27.5215 9.56759C26.6972 10.4662 28.0468 11.8066 28.8788 10.9042C29.8641 9.82812 29.7337 8.11393 28.4149 7.34746C27.4142 6.76599 26.2717 7.0605 25.4857 7.8232C24.6997 8.5859 23.9291 9.35615 23.1546 10.1188C22.6754 10.5908 22.1923 11.0666 21.7131 11.5385L22.3917 11.2629C20.1143 11.2629 17.8369 11.2667 15.5596 11.2667C15.042 11.2667 14.6011 11.7009 14.6011 12.2106V14.8649C14.6011 15.3747 15.042 15.8089 15.5596 15.8089H22.0581C22.4799 15.8089 22.9054 15.8164 23.3272 15.8089C23.3847 15.8089 23.4422 15.8089 23.4997 15.8089C23.9828 15.7787 24.255 15.4577 24.5694 15.1481L26.3598 13.3849L28.8788 10.9042C29.7529 10.0433 28.3957 8.7105 27.5215 9.56759H27.5177Z" fill="#087BB4"/>
<path d="M3.5707 5.73519C3.6052 8.15543 5.12345 10.2887 7.42767 11.1345C9.73188 11.9803 12.3466 11.2478 13.8572 9.43163C15.3678 7.6155 15.686 4.88187 14.4017 2.78634C13.1173 0.690803 10.6405 -0.339973 8.22513 0.113115C5.51835 0.622839 3.6052 3.06952 3.56686 5.73519C3.55153 6.95097 5.46851 6.95097 5.48385 5.73519C5.50685 4.1607 6.47684 2.69572 7.99126 2.13313C9.50568 1.57055 11.3421 2.01609 12.4195 3.28096C13.4968 4.54583 13.5927 6.3091 12.776 7.67969C11.9594 9.05028 10.2763 9.84696 8.66987 9.52602C6.8219 9.15223 5.51068 7.59285 5.48385 5.73519C5.46851 4.52318 3.55153 4.5194 3.56686 5.73519H3.5707Z" fill="#087BB4"/>
<path d="M32.4558 42.7423H23.9329L24.8914 43.6863C24.8914 42.882 24.8761 42.074 24.8914 41.2698C24.8991 40.7638 25.1291 40.3221 25.5739 40.0691C25.8844 39.8916 26.1336 39.8841 26.5362 39.8841H29.5804C29.8756 39.8841 30.2245 39.869 30.4315 39.9181C30.9721 40.0502 31.4092 40.5146 31.482 41.0093C31.5472 41.451 31.4935 41.9343 31.4935 42.3799C31.4935 42.8254 31.4935 43.252 31.4935 43.69C31.4935 44.9058 33.4105 44.9058 33.4105 43.69C33.4105 42.8027 33.4718 41.8966 33.399 41.013C33.2495 39.2158 31.7351 38.0038 29.9523 38C28.8634 38 27.7746 38 26.6857 38C26.1528 38 25.6314 38.0113 25.1253 38.2039C24.1745 38.5664 23.4307 39.314 23.1201 40.2768C22.9284 40.8771 22.9706 41.519 22.9706 42.1382V43.6938C22.9706 44.2035 23.4115 44.6377 23.9291 44.6377H32.452C33.6865 44.6377 33.6865 42.7499 32.452 42.7499L32.4558 42.7423Z" fill="#087BB4"/>
<path d="M25.018 35.4696C25.0371 36.8063 25.8806 37.9503 27.142 38.4185C28.3228 38.8565 29.7874 38.4714 30.5887 37.5123C31.4437 36.4891 31.6239 35.0392 30.9223 33.8763C30.2207 32.7134 28.8711 32.1772 27.5407 32.4113C26.0723 32.6718 25.0371 34.0386 25.018 35.4696C25.0103 35.9643 25.4627 36.4362 25.9765 36.4136C26.4902 36.3909 26.9273 35.9982 26.935 35.4696C26.935 35.4092 26.9388 35.3488 26.9426 35.2884C26.9503 35.1185 26.9426 35.3488 26.9311 35.3601C26.9695 35.3224 26.981 35.1374 27.0001 35.0732C27.0116 35.0354 27.0653 34.9448 27.0576 34.9108C27.0576 34.9335 26.9541 35.1147 27.0308 34.9788C27.0883 34.8769 27.1458 34.7825 27.211 34.6843C27.3183 34.5257 27.0883 34.7976 27.1842 34.7183C27.2187 34.6881 27.2493 34.6465 27.28 34.6126C27.3068 34.5861 27.3337 34.5597 27.3644 34.5333L27.4065 34.4955C27.4832 34.4313 27.464 34.4464 27.3452 34.537C27.4219 34.5182 27.5177 34.42 27.5867 34.3822C27.6212 34.3634 27.6557 34.3483 27.6902 34.3294C27.8474 34.2388 27.4794 34.3898 27.7056 34.3256C27.8014 34.2992 27.8934 34.2652 27.9893 34.2463C28.1427 34.2161 28.043 34.2916 27.9433 34.2463C27.974 34.2576 28.0583 34.235 28.0966 34.235C28.2002 34.2312 28.2998 34.235 28.4034 34.2425C28.5414 34.2501 28.158 34.1934 28.3574 34.2388C28.4149 34.2501 28.4724 34.2652 28.5299 34.2803C28.5874 34.2954 28.6411 34.318 28.6986 34.3331C28.8174 34.3709 28.6717 34.3709 28.6334 34.3029C28.6602 34.352 28.8328 34.4049 28.8903 34.4389C28.9324 34.4653 28.967 34.4955 29.0091 34.5182C29.1203 34.5786 28.8328 34.3596 28.9746 34.4955C29.0168 34.537 29.1702 34.7296 29.2162 34.7409C29.151 34.7258 29.1011 34.5786 29.1702 34.6843C29.2008 34.7334 29.2353 34.7787 29.266 34.8278C29.2852 34.8618 29.3043 34.892 29.3235 34.9259L29.3504 34.9788C29.3925 35.0694 29.3849 35.0468 29.3235 34.9108C29.3158 34.9864 29.3964 35.1109 29.4155 35.1865C29.427 35.2242 29.4309 35.262 29.4424 35.2997C29.4845 35.4847 29.427 35.0732 29.4424 35.3148C29.45 35.4055 29.45 35.4961 29.4424 35.5867C29.4347 35.6773 29.3734 35.7981 29.45 35.5754C29.4385 35.6093 29.4347 35.6547 29.427 35.6924C29.404 35.7868 29.3734 35.8774 29.3427 35.9718C29.2813 36.1644 29.45 35.783 29.3465 35.9567C29.3158 36.0058 29.2928 36.0587 29.2622 36.1077C29.2392 36.1493 29.2085 36.187 29.1855 36.2286C29.1011 36.3645 29.128 36.2135 29.2123 36.1946C29.1702 36.2021 29.0475 36.3683 29.013 36.4023C28.9823 36.4287 28.8443 36.508 28.9785 36.44C29.1203 36.3683 28.9593 36.4513 28.9363 36.4664C28.8749 36.508 28.6564 36.5835 28.6334 36.6363C28.6411 36.6212 28.8596 36.5571 28.6986 36.6061C28.6411 36.625 28.5874 36.6439 28.5299 36.659C28.4915 36.6703 28.4532 36.6779 28.4149 36.6892C28.3842 36.6968 28.1963 36.7156 28.365 36.7043C28.5337 36.693 28.3344 36.7043 28.3113 36.7043C28.2615 36.7043 28.2078 36.7043 28.158 36.7043C28.1081 36.7043 28.0545 36.7005 28.0046 36.6968C27.8014 36.6892 28.2002 36.7421 28.02 36.6968C27.9049 36.6666 27.7899 36.6363 27.6787 36.6024C27.4909 36.542 27.8206 36.6892 27.7209 36.6175C27.6672 36.5797 27.5982 36.5571 27.5407 36.5231C27.5062 36.5042 27.4755 36.4815 27.441 36.4627C27.4104 36.44 27.3759 36.4211 27.3452 36.3985C27.464 36.4891 27.4832 36.5042 27.4065 36.44C27.3375 36.372 27.2723 36.3079 27.2033 36.2399C27.0615 36.0964 27.3222 36.4211 27.211 36.2512C27.1803 36.2021 27.1458 36.1568 27.1151 36.1077C27.0845 36.0587 27.0615 36.0058 27.0308 35.9567C26.9426 35.8019 27.096 36.1531 27.0346 35.9718C26.9963 35.8585 26.9695 35.749 26.9388 35.6358C26.9081 35.5225 26.9848 35.6207 26.9465 35.7113C26.9695 35.666 26.935 35.5225 26.9311 35.4696C26.9234 34.975 26.494 34.5031 25.9726 34.5257C25.4512 34.5484 25.0065 34.941 25.0141 35.4696H25.018Z" fill="#087BB4"/>
<path d="M42.7386 42.7423H34.2157L35.1741 43.6863C35.1741 42.882 35.1588 42.074 35.1741 41.2698C35.1818 40.7638 35.4118 40.3221 35.8566 40.0691C36.1671 39.8916 36.4163 39.8841 36.8189 39.8841H39.8631C40.1583 39.8841 40.5072 39.869 40.7142 39.9181C41.2548 40.0502 41.6919 40.5146 41.7647 41.0093C41.8299 41.451 41.7762 41.9343 41.7762 42.3799C41.7762 42.8254 41.7762 43.252 41.7762 43.69C41.7762 44.9058 43.6932 44.9058 43.6932 43.69C43.6932 42.8027 43.7546 41.8966 43.6817 41.013C43.5322 39.2158 42.0178 38.0038 40.235 38C39.1461 38 38.0573 38 36.9684 38C36.4355 38 35.9141 38.0113 35.408 38.2039C34.4572 38.5664 33.7134 39.314 33.4029 40.2768C33.2112 40.8771 33.2533 41.519 33.2533 42.1382C33.2533 42.6555 33.2533 43.1765 33.2533 43.6938C33.2533 44.2111 33.6942 44.6377 34.2118 44.6377H42.7347C43.9693 44.6377 43.9693 42.7499 42.7347 42.7499L42.7386 42.7423Z" fill="#087BB4"/>
<path d="M35.3045 35.4696C35.3236 36.8063 36.1671 37.9503 37.4285 38.4185C38.6093 38.8565 40.0739 38.4714 40.8752 37.5123C41.7302 36.4891 41.9104 35.0392 41.2088 33.8763C40.5072 32.7134 39.1576 32.1772 37.8272 32.4113C36.3588 32.6718 35.3236 34.0386 35.3045 35.4696C35.2968 35.9643 35.7492 36.4362 36.263 36.4136C36.7767 36.3909 37.2138 35.9982 37.2215 35.4696C37.2215 35.4092 37.2253 35.3488 37.2291 35.2884C37.2368 35.1185 37.2291 35.3488 37.2176 35.3601C37.256 35.3224 37.2675 35.1374 37.2866 35.0732C37.2981 35.0354 37.3518 34.9448 37.3441 34.9108C37.3441 34.9335 37.2406 35.1147 37.3173 34.9788C37.3748 34.8769 37.4323 34.7825 37.4975 34.6843C37.6048 34.5257 37.3748 34.7976 37.4707 34.7183C37.5052 34.6881 37.5358 34.6465 37.5665 34.6126C37.5933 34.5861 37.6202 34.5597 37.6509 34.5333L37.693 34.4955C37.7697 34.4313 37.7505 34.4464 37.6317 34.537C37.7084 34.5182 37.8042 34.42 37.8732 34.3822C37.9077 34.3634 37.9422 34.3483 37.9767 34.3294C38.1339 34.2388 37.7659 34.3898 37.9921 34.3256C38.0879 34.2992 38.1799 34.2652 38.2758 34.2463C38.4292 34.2161 38.3295 34.2916 38.2298 34.2463C38.2605 34.2576 38.3448 34.235 38.3831 34.235C38.4867 34.2312 38.5863 34.235 38.6899 34.2425C38.8279 34.2501 38.4445 34.1934 38.6439 34.2388C38.7014 34.2501 38.7589 34.2652 38.8164 34.2803C38.8739 34.2954 38.9276 34.318 38.9851 34.3331C39.1039 34.3709 38.9582 34.3709 38.9199 34.3029C38.9467 34.352 39.1193 34.4049 39.1768 34.4389C39.2189 34.4653 39.2535 34.4955 39.2956 34.5182C39.4068 34.5786 39.1193 34.3596 39.2611 34.4955C39.3033 34.537 39.4567 34.7296 39.5027 34.7409C39.4375 34.7258 39.3876 34.5786 39.4567 34.6843C39.4873 34.7334 39.5218 34.7787 39.5525 34.8278C39.5717 34.8618 39.5908 34.892 39.61 34.9259L39.6368 34.9788C39.679 35.0694 39.6714 35.0468 39.61 34.9108C39.6023 34.9864 39.6829 35.1109 39.702 35.1865C39.7135 35.2242 39.7174 35.262 39.7289 35.2997C39.771 35.4847 39.7135 35.0732 39.7289 35.3148C39.7365 35.4055 39.7365 35.4961 39.7289 35.5867C39.7212 35.6773 39.6599 35.7981 39.7365 35.5754C39.725 35.6093 39.7212 35.6547 39.7135 35.6924C39.6905 35.7868 39.6599 35.8774 39.6292 35.9718C39.5678 36.1644 39.7365 35.783 39.633 35.9567C39.6023 36.0058 39.5793 36.0587 39.5487 36.1077C39.5257 36.1493 39.495 36.187 39.472 36.2286C39.3876 36.3645 39.4145 36.2135 39.4988 36.1946C39.4567 36.2021 39.334 36.3683 39.2995 36.4023C39.2688 36.4287 39.1308 36.508 39.265 36.44C39.4068 36.3683 39.2458 36.4513 39.2228 36.4664C39.1614 36.508 38.9429 36.5835 38.9199 36.6363C38.9276 36.6212 39.1461 36.5571 38.9851 36.6061C38.9276 36.625 38.8739 36.6439 38.8164 36.659C38.778 36.6703 38.7397 36.6779 38.7014 36.6892C38.6707 36.6968 38.4828 36.7156 38.6515 36.7043C38.8202 36.693 38.6208 36.7043 38.5978 36.7043C38.548 36.7043 38.4943 36.7043 38.4445 36.7043C38.3946 36.7043 38.341 36.7005 38.2911 36.6968C38.0879 36.6892 38.4867 36.7421 38.3065 36.6968C38.1914 36.6666 38.0764 36.6363 37.9652 36.6024C37.7774 36.542 38.1071 36.6892 38.0074 36.6175C37.9537 36.5797 37.8847 36.5571 37.8272 36.5231C37.7927 36.5042 37.762 36.4815 37.7275 36.4627C37.6969 36.44 37.6624 36.4211 37.6317 36.3985C37.7505 36.4891 37.7697 36.5042 37.693 36.44C37.624 36.372 37.5588 36.3079 37.4898 36.2399C37.348 36.0964 37.6087 36.4211 37.4975 36.2512C37.4668 36.2021 37.4323 36.1568 37.4016 36.1077C37.371 36.0587 37.348 36.0058 37.3173 35.9567C37.2291 35.8019 37.3825 36.1531 37.3211 35.9718C37.2828 35.8585 37.256 35.749 37.2253 35.6358C37.1946 35.5225 37.2713 35.6207 37.233 35.7113C37.256 35.666 37.2215 35.5225 37.2176 35.4696C37.2099 34.975 36.7805 34.5031 36.2591 34.5257C35.7377 34.5484 35.293 34.941 35.3006 35.4696H35.3045Z" fill="#087BB4"/>
<path d="M53.0213 42.7423H44.4984L45.4569 43.6863C45.4569 42.882 45.4415 42.074 45.4569 41.2698C45.4645 40.7638 45.6946 40.3221 46.1393 40.0691C46.4499 39.8916 46.6991 39.8841 47.1016 39.8841H50.1458C50.441 39.8841 50.7899 39.869 50.9969 39.9181C51.5375 40.0502 51.9746 40.5146 52.0474 41.0093C52.1126 41.451 52.0589 41.9343 52.0589 42.3799C52.0589 42.8254 52.0589 43.252 52.0589 43.69C52.0589 44.9058 53.9759 44.9058 53.9759 43.69C53.9759 42.8027 54.0373 41.8966 53.9644 41.013C53.8149 39.2158 52.3005 38.0038 50.5177 38C49.4288 38 48.34 38 47.2512 38C46.7182 38 46.1968 38.0113 45.6907 38.2039C44.7399 38.5664 43.9961 39.314 43.6856 40.2768C43.4939 40.8771 43.536 41.519 43.536 42.1382V43.6938C43.536 44.2035 43.9769 44.6377 44.4945 44.6377H53.0174C54.252 44.6377 54.252 42.7499 53.0174 42.7499L53.0213 42.7423Z" fill="#087BB4"/>
<path d="M45.5872 35.4696C45.6064 36.8063 46.4498 37.9503 47.7112 38.4185C48.8921 38.8565 50.3566 38.4714 51.1579 37.5123C52.0129 36.4891 52.1931 35.0392 51.4915 33.8763C50.7899 32.7134 49.4403 32.1772 48.1099 32.4113C46.6415 32.6718 45.6064 34.0386 45.5872 35.4696C45.5795 35.9643 46.0319 36.4362 46.5457 36.4136C47.0594 36.3909 47.4965 35.9982 47.5042 35.4696C47.5042 35.4092 47.508 35.3488 47.5118 35.2884C47.5195 35.1185 47.5118 35.3488 47.5003 35.3601C47.5387 35.3224 47.5502 35.1374 47.5693 35.0732C47.5808 35.0354 47.6345 34.9448 47.6269 34.9108C47.6269 34.9335 47.5233 35.1147 47.6 34.9788C47.6575 34.8769 47.715 34.7825 47.7802 34.6843C47.8876 34.5257 47.6575 34.7976 47.7534 34.7183C47.7879 34.6881 47.8185 34.6465 47.8492 34.6126C47.8761 34.5861 47.9029 34.5597 47.9336 34.5333L47.9757 34.4955C48.0524 34.4313 48.0333 34.4464 47.9144 34.537C47.9911 34.5182 48.0869 34.42 48.1559 34.3822C48.1904 34.3634 48.225 34.3483 48.2595 34.3294C48.4167 34.2388 48.0486 34.3898 48.2748 34.3256C48.3706 34.2992 48.4627 34.2652 48.5585 34.2463C48.7119 34.2161 48.6122 34.2916 48.5125 34.2463C48.5432 34.2576 48.6275 34.235 48.6659 34.235C48.7694 34.2312 48.8691 34.235 48.9726 34.2425C49.1106 34.2501 48.7272 34.1934 48.9266 34.2388C48.9841 34.2501 49.0416 34.2652 49.0991 34.2803C49.1566 34.2954 49.2103 34.318 49.2678 34.3331C49.3866 34.3709 49.241 34.3709 49.2026 34.3029C49.2294 34.352 49.402 34.4049 49.4595 34.4389C49.5017 34.4653 49.5362 34.4955 49.5783 34.5182C49.6895 34.5786 49.402 34.3596 49.5438 34.4955C49.586 34.537 49.7394 34.7296 49.7854 34.7409C49.7202 34.7258 49.6704 34.5786 49.7394 34.6843C49.77 34.7334 49.8045 34.7787 49.8352 34.8278C49.8544 34.8618 49.8736 34.892 49.8927 34.9259L49.9196 34.9788C49.9617 35.0694 49.9541 35.0468 49.8927 34.9108C49.8851 34.9864 49.9656 35.1109 49.9847 35.1865C49.9962 35.2242 50.0001 35.262 50.0116 35.2997C50.0538 35.4847 49.9962 35.0732 50.0116 35.3148C50.0192 35.4055 50.0192 35.4961 50.0116 35.5867C50.0039 35.6773 49.9426 35.7981 50.0192 35.5754C50.0077 35.6093 50.0039 35.6547 49.9962 35.6924C49.9732 35.7868 49.9426 35.8774 49.9119 35.9718C49.8506 36.1644 50.0192 35.783 49.9157 35.9567C49.8851 36.0058 49.8621 36.0587 49.8314 36.1077C49.8084 36.1493 49.7777 36.187 49.7547 36.2286C49.6704 36.3645 49.6972 36.2135 49.7815 36.1946C49.7394 36.2021 49.6167 36.3683 49.5822 36.4023C49.5515 36.4287 49.4135 36.508 49.5477 36.44C49.6895 36.3683 49.5285 36.4513 49.5055 36.4664C49.4442 36.508 49.2256 36.5835 49.2026 36.6363C49.2103 36.6212 49.4288 36.5571 49.2678 36.6061C49.2103 36.625 49.1566 36.6439 49.0991 36.659C49.0608 36.6703 49.0224 36.6779 48.9841 36.6892C48.9534 36.6968 48.7655 36.7156 48.9342 36.7043C49.1029 36.693 48.9036 36.7043 48.8806 36.7043C48.8307 36.7043 48.777 36.7043 48.7272 36.7043C48.6774 36.7043 48.6237 36.7005 48.5738 36.6968C48.3706 36.6892 48.7694 36.7421 48.5892 36.6968C48.4742 36.6666 48.3591 36.6363 48.248 36.6024C48.0601 36.542 48.3898 36.6892 48.2901 36.6175C48.2365 36.5797 48.1674 36.5571 48.1099 36.5231C48.0754 36.5042 48.0448 36.4815 48.0102 36.4627C47.9796 36.44 47.9451 36.4211 47.9144 36.3985C48.0333 36.4891 48.0524 36.5042 47.9757 36.44C47.9067 36.372 47.8416 36.3079 47.7725 36.2399C47.6307 36.0964 47.8914 36.4211 47.7802 36.2512C47.7495 36.2021 47.715 36.1568 47.6844 36.1077C47.6537 36.0587 47.6307 36.0058 47.6 35.9567C47.5118 35.8019 47.6652 36.1531 47.6038 35.9718C47.5655 35.8585 47.5387 35.749 47.508 35.6358C47.4773 35.5225 47.554 35.6207 47.5157 35.7113C47.5387 35.666 47.5042 35.5225 47.5003 35.4696C47.4927 34.975 47.0633 34.5031 46.5418 34.5257C46.0204 34.5484 45.5757 34.941 45.5833 35.4696H45.5872Z" fill="#087BB4"/>
</svg>
