<svg width="54" height="52" viewBox="0 0 54 52" fill="none" xmlns="http://www.w3.org/2000/svg">
<path d="M35.0931 22.9827V51.0658L36.0416 50.1317H17.6822L18.6307 51.0658V22.9827L18.3537 23.6441C21.4117 20.2962 24.4736 16.9521 27.5354 13.6043H26.1923C29.2503 16.9521 32.3121 20.2962 35.3701 23.6441C36.1896 24.5408 37.5251 23.2144 36.7132 22.3214C33.6552 18.9735 30.5934 15.6294 27.5354 12.2816C27.2053 11.9192 26.5223 11.9192 26.1923 12.2816C24.0334 14.643 21.8708 17.0044 19.712 19.3659C19.1657 19.96 18.6231 20.5578 18.0768 21.1556C17.6253 21.6488 16.7716 22.2915 16.7299 22.9865C16.7223 23.0836 16.7299 23.1808 16.7299 23.2742V46.4849C16.7299 47.987 16.673 49.5002 16.7299 50.9985C16.7299 51.0209 16.7299 51.0434 16.7299 51.0658C16.7299 51.5702 17.1662 51.9999 17.6784 51.9999H36.0378C36.55 51.9999 36.9863 51.5702 36.9863 51.0658V22.9827C36.9863 21.7796 35.0893 21.7796 35.0893 22.9827H35.0931Z" fill="#087BB4"/>
<path d="M17.6823 50.1311H3.95157L4.90008 51.0653V30.6157L3.95157 31.5499H17.6823L16.7337 30.6157V51.0653C16.7337 52.2684 18.6308 52.2684 18.6308 51.0653V30.6157C18.6308 30.1113 18.1945 29.6816 17.6823 29.6816H3.95157C3.43937 29.6816 3.00305 30.1113 3.00305 30.6157V51.0653C3.00305 51.5697 3.43937 51.9994 3.95157 51.9994H17.6823C18.9039 51.9994 18.9039 50.1311 17.6823 50.1311Z" fill="#087BB4"/>
<path d="M17.6823 34.8639H3.95157L4.90008 35.798V30.6118L3.95157 31.546H17.6823L16.7337 30.6118V35.798C16.7337 37.0011 18.6308 37.0011 18.6308 35.798V30.6118C18.6308 30.1074 18.1945 29.6777 17.6823 29.6777H3.95157C3.43937 29.6777 3.00305 30.1074 3.00305 30.6118V35.798C3.00305 36.3024 3.43937 36.7321 3.95157 36.7321H17.6823C18.9039 36.7321 18.9039 34.8639 17.6823 34.8639Z" fill="#087BB4"/>
<path d="M26.8638 50.1308H23.2139L24.1624 51.0649V39.9341L23.2139 40.8682H26.8638L25.9153 39.9341V51.0649C25.9153 52.2681 27.8123 52.2681 27.8123 51.0649V39.9341C27.8123 39.4297 27.376 39 26.8638 39H23.2139C22.7017 39 22.2654 39.4297 22.2654 39.9341V51.0649C22.2654 51.5694 22.7017 51.9991 23.2139 51.9991H26.8638C28.0855 51.9991 28.0855 50.1308 26.8638 50.1308Z" fill="#087BB4"/>
<path d="M30.5137 50.1308H26.8638L27.8123 51.0649V39.9341L26.8638 40.8682H30.5137L29.5652 39.9341V51.0649C29.5652 52.2681 31.4622 52.2681 31.4622 51.0649V39.9341C31.4622 39.4297 31.0259 39 30.5137 39H26.8638C26.3516 39 25.9153 39.4297 25.9153 39.9341V51.0649C25.9153 51.5694 26.3516 51.9991 26.8638 51.9991H30.5137C31.7354 51.9991 31.7354 50.1308 30.5137 50.1308Z" fill="#087BB4"/>
<path d="M49.7761 50.1311H36.0454L36.994 51.0653V30.6157L36.0454 31.5499H49.7761L48.8276 30.6157V51.0653C48.8276 52.2684 50.7246 52.2684 50.7246 51.0653V30.6157C50.7246 30.1113 50.2883 29.6816 49.7761 29.6816H36.0454C35.5332 29.6816 35.0969 30.1113 35.0969 30.6157V51.0653C35.0969 51.5697 35.5332 51.9994 36.0454 51.9994H49.7761C50.9978 51.9994 50.9978 50.1311 49.7761 50.1311Z" fill="#087BB4"/>
<path d="M49.7761 34.8639H36.0454L36.994 35.798V30.6118L36.0454 31.546H49.7761L48.8276 30.6118V35.798C48.8276 37.0011 50.7246 37.0011 50.7246 35.798V30.6118C50.7246 30.1074 50.2883 29.6777 49.7761 29.6777H36.0454C35.5332 29.6777 35.0969 30.1074 35.0969 30.6118V35.798C35.0969 36.3024 35.5332 36.7321 36.0454 36.7321H49.7761C50.9978 36.7321 50.9978 34.8639 49.7761 34.8639Z" fill="#087BB4"/>
<path d="M34.4481 3.61687H26.8638L27.8123 4.55098V0.934109L26.8638 1.86822H34.4481L33.4996 0.934109V4.55098C33.4996 5.75411 35.3966 5.75411 35.3966 4.55098V0.934109C35.3966 0.42969 34.9603 0 34.4481 0H26.8638C26.3516 0 25.9153 0.42969 25.9153 0.934109V4.55098C25.9153 5.0554 26.3516 5.48509 26.8638 5.48509H34.4481C35.6698 5.48509 35.6698 3.61687 34.4481 3.61687Z" fill="#087BB4"/>
<path d="M15.9293 22.7913C19.7993 18.5616 23.6654 14.332 27.5353 10.1023H26.1922C30.0622 14.332 33.9283 18.5616 37.7983 22.7913C38.6178 23.688 39.9533 22.3616 39.1414 21.4686C35.2714 17.2389 31.4053 13.0093 27.5353 8.77964C27.2053 8.4172 26.5223 8.4172 26.1922 8.77964C22.3223 13.0093 18.4562 17.2389 14.5862 21.4686C13.7705 22.3616 15.1098 23.6843 15.9293 22.7913Z" fill="#087BB4"/>
<path d="M30.6086 30.6124C30.5858 32.1256 29.6449 33.5492 28.1766 34.0686C26.7083 34.5879 24.9403 34.1545 23.9273 32.9065C22.9142 31.6586 22.8611 30.0145 23.6503 28.7143C24.4319 27.4252 25.9988 26.7041 27.5088 26.9731C29.2996 27.2944 30.582 28.8264 30.6086 30.6086C30.6238 31.808 32.5208 31.8118 32.5056 30.6086C32.4715 28.2734 31.0146 26.2183 28.7988 25.3926C26.5831 24.5668 24.0221 25.273 22.5462 27.0366C21.0438 28.8376 20.7858 31.4269 22.0113 33.4483C23.2367 35.4697 25.6194 36.4711 27.9528 36.0601C30.5934 35.593 32.4715 33.2055 32.5056 30.6086C32.5208 29.4055 30.6238 29.4055 30.6086 30.6086V30.6124Z" fill="#087BB4"/>
<path d="M27.4595 28.1791C27.1256 28.9114 26.788 29.6438 26.4541 30.3761C26.382 30.533 26.363 30.69 26.4541 30.8469C26.5376 30.9889 26.6969 31.0786 26.8638 31.0786H28.5332C28.7798 31.0786 29.0189 30.8656 29.0075 30.6115C28.9961 30.3574 28.7988 30.1444 28.5332 30.1444H26.8638L27.2736 30.8469C27.6075 30.1146 27.9451 29.3822 28.279 28.6499C28.3815 28.4294 28.3511 28.138 28.1083 28.0109C27.8996 27.9026 27.5695 27.94 27.4595 28.1791Z" fill="#087BB4"/>
<path d="M17.6822 34.8633H0.916265C-0.305422 34.8633 -0.305422 36.7315 0.916265 36.7315H17.686C18.9077 36.7315 18.9077 34.8633 17.686 34.8633H17.6822Z" fill="#087BB4"/>
<path d="M52.8114 34.8633H36.0416C34.8199 34.8633 34.8199 36.7315 36.0416 36.7315H52.8114C54.033 36.7315 54.033 34.8633 52.8114 34.8633Z" fill="#087BB4"/>
<path d="M25.9153 0.933599V9.81137C25.9153 11.0145 27.8123 11.0145 27.8123 9.81137V0.933599C27.8123 -0.269533 25.9153 -0.269533 25.9153 0.933599Z" fill="#087BB4"/>
</svg>
