<svg width="107" height="108" viewBox="0 0 107 108" fill="none" xmlns="http://www.w3.org/2000/svg">
<path d="M40.9696 37.449C39.9699 34.1572 44.1011 31.772 46.4521 34.2836L52.6959 40.9541C54.3094 42.6779 56.9442 42.9549 58.8809 41.6042L66.3751 36.3776C69.1969 34.4097 72.7419 37.6016 71.0797 40.6137L66.6652 48.6132C65.5243 50.6804 66.0751 53.2718 67.9582 54.6963L75.2448 60.2087C77.9884 62.2842 76.0481 66.6421 72.6699 65.992L63.6977 64.2655C61.3791 63.8193 59.0847 65.144 58.3118 67.375L55.321 76.0084C54.1948 79.2591 49.4507 78.7605 49.025 75.3467L47.8945 66.2801C47.6023 63.9371 45.6335 62.1644 43.2728 62.1188L34.1377 61.9421C30.6981 61.8756 29.7063 57.2096 32.8215 55.7498L41.095 51.8729C43.233 50.871 44.3106 48.4508 43.6245 46.1915L40.9696 37.449Z" fill="#2A3338" stroke="#2A3338" stroke-width="1.5"/>
<path d="M38.8768 35.8826C37.8772 32.5908 42.0083 30.2056 44.3593 32.7172L50.6031 39.3877C52.2167 41.1115 54.8514 41.3884 56.7881 40.0378L64.2824 34.8112C67.1041 32.8433 70.6491 36.0352 68.9869 39.0473L64.5724 47.0468C63.4316 49.114 63.9824 51.7054 65.8654 53.1299L73.152 58.6423C75.8956 60.7178 73.9554 65.0757 70.5771 64.4256L61.6049 62.6991C59.2863 62.2529 56.992 63.5776 56.2191 65.8086L53.2282 74.442C52.102 77.6927 47.3579 77.1941 46.9322 73.7803L45.8017 64.7137C45.5095 62.3707 43.5407 60.598 41.18 60.5524L32.045 60.3757C28.6054 60.3092 27.6136 55.6432 30.7287 54.1834L39.0022 50.3065C41.1402 49.3046 42.2178 46.8844 41.5317 44.6251L38.8768 35.8826Z" fill="#5A90A9" stroke="#2A3338" stroke-width="1.5"/>
</svg>
