<svg width="53" height="52" viewBox="0 0 53 52" fill="none" xmlns="http://www.w3.org/2000/svg">
<path d="M24.0881 0.445826C23.1469 1.00641 23.1392 1.06084 23.4978 5.04067C23.7314 7.66237 24.1114 8.44864 25.138 8.44864C26.1642 8.44864 26.2817 8.01946 26.2817 4.39713C26.2817 1.27525 26.2339 0.89489 25.7815 0.451797C25.1672 -0.1496 25.0905 -0.1496 24.0892 0.445826H24.0881Z" fill="#087BB4"/>
<path d="M12.1966 4.90235C11.9656 4.95139 11.6937 5.27998 11.6079 5.61322C11.4478 6.23525 12.5646 8.11541 14.8226 11.0229C15.7294 12.1918 16.91 12.3591 17.1608 11.3564C17.3677 10.522 17.3676 10.522 15.3729 7.71052C13.3616 4.88137 13.04 4.90235 12.1966 4.90235Z" fill="#087BB4"/>
<path d="M40.2207 5.39764C38.9767 6.73288 35.2886 12.025 35.2886 12.4758C35.2886 13.1432 36.2448 13.7533 36.8141 13.4496C37.349 13.1642 41.9741 7.13686 42.2794 6.32764C42.5314 5.66024 41.9516 4.70703 41.2937 4.70703C40.8635 4.70703 40.2459 5.39764 40.2207 5.39764Z" fill="#087BB4"/>
<path d="M22.5155 12.1864C18.6788 13.4294 16.0206 15.7046 14.3004 19.2188C12.5914 22.7091 12.3365 26.6065 13.5024 31.4457C14.2881 34.7106 16.552 39.0887 18.2277 40.5846C18.7186 41.0224 18.7684 41.2859 18.7064 43.123C18.628 45.4343 18.9443 46.0795 20.3008 46.3746C20.9849 46.5236 21.0157 46.5903 21.0157 47.9007C21.0157 48.6607 21.1807 49.5884 21.3871 49.9856C21.9131 51.0006 23.7801 51.8386 25.7818 51.9598C27.3547 52.055 27.4605 52.0252 28.2129 51.2728C28.9727 50.5131 29.7852 48.5087 29.7852 47.3882C29.7852 47.0187 30.0949 46.7164 30.834 46.3643C32.4377 45.5989 32.8961 44.7907 32.9379 42.646C32.9715 41.0731 33.0866 40.6645 33.8978 39.2384C37.4236 33.0424 38.5702 29.5781 38.553 25.1783C38.5255 18.2779 34.8516 13.6923 29.997 12.1838C27.9956 11.5618 24.4409 11.5641 22.5153 12.1884L22.5155 12.1864ZM30.3557 15.0507C34.9343 17.1461 37.0979 23.1292 35.5351 29.3713C35.0342 31.3726 31.7979 38.1856 30.6936 39.5703C30.0577 40.3658 30.1782 40.2653 26.6856 39.9042C26.8024 37.0276 26.9527 29.279 28.3776 26.5113C28.7207 25.8455 28.9259 25.7243 29.7121 25.7243C32.2841 25.7243 33.5782 22.9082 31.4994 21.8298C29.9471 21.0244 27.979 22.0548 26.6089 24.3901C26.0357 25.3672 25.5183 25.6384 25.5183 24.9623C25.5183 24.4363 24.1598 22.6954 23.3732 22.2115C22.3244 21.5686 20.6522 21.5172 19.9895 22.1126C19.3927 22.6493 19.3569 23.6513 19.9065 24.4379C20.2646 24.95 20.4909 25.0168 21.5145 24.9142C22.6835 24.7974 22.7167 24.814 23.2295 25.7243C24.6613 28.2687 24.5153 30.6255 24.5153 39.9755H20.9188L19.8737 38.8554C17.7694 36.5971 15.9453 32.2542 15.4447 28.2986C14.7364 22.6984 16.9615 17.7727 21.2281 15.4978C23.2152 14.4394 24.2786 14.212 26.8041 14.3166C29.272 14.4181 30.381 15.0484 30.3557 15.0484V15.0507ZM30.5117 42.6443C30.5701 42.6968 30.5117 43.0493 30.381 43.4309L30.1423 44.122H21.1332L20.9901 42.2152L25.6965 42.3824C30.0561 42.5368 30.6006 42.6443 30.5117 42.6443ZM26.9013 48.8986C26.5395 49.7467 26.4722 49.7835 25.5906 49.6215C24.113 49.3497 23.2789 48.8097 23.2789 48.124C23.2789 46.8651 23.4695 46.7423 25.4243 46.7423C27.2362 46.7423 27.283 46.7582 27.283 47.3736C27.3145 47.375 27.2146 48.1625 26.8999 48.8996L26.9013 48.8986Z" fill="#087BB4"/>
<path d="M19.5 19L18 24L22.5 40H26.5H28.5L30 36L32.5 27V21.5L28.5 19H19.5Z" fill="white"/>
<path d="M24.94 30.24C24.3533 30.04 23.82 29.84 23.34 29.64C22.86 29.4267 22.4467 29.1733 22.1 28.88C21.7533 28.5867 21.48 28.24 21.28 27.84C21.0933 27.4267 21 26.9267 21 26.34C21 25.4333 21.28 24.6733 21.84 24.06C22.4 23.4333 23.2 23.0067 24.24 22.78V21.16C24.36 21.1333 24.5467 21.1 24.8 21.06C25.0533 21.02 25.3133 21 25.58 21C26.1 21 26.5067 21.0933 26.8 21.28C27.0933 21.4533 27.24 21.8333 27.24 22.42V22.68C28.0667 22.7867 28.7267 23 29.22 23.32C29.7267 23.64 29.98 24.08 29.98 24.64C29.98 24.9867 29.9 25.2867 29.74 25.54C29.58 25.78 29.3867 25.9867 29.16 26.16C28.8667 25.9733 28.4733 25.8133 27.98 25.68C27.4867 25.5333 26.9467 25.46 26.36 25.46C25.76 25.46 25.32 25.5467 25.04 25.72C24.76 25.88 24.62 26.0867 24.62 26.34C24.62 26.54 24.7067 26.7067 24.88 26.84C25.0533 26.96 25.3133 27.0733 25.66 27.18L26.72 27.52C27.9733 27.92 28.9333 28.4333 29.6 29.06C30.28 29.6733 30.62 30.5133 30.62 31.58C30.62 32.4867 30.3333 33.26 29.76 33.9C29.1867 34.5267 28.3467 34.9533 27.24 35.18V36.78C27.12 36.8067 26.9333 36.84 26.68 36.88C26.4267 36.92 26.1667 36.94 25.9 36.94C25.38 36.94 24.9733 36.8467 24.68 36.66C24.3867 36.4867 24.24 36.1067 24.24 35.52V35.32C23.76 35.2667 23.32 35.18 22.92 35.06C22.5333 34.94 22.1933 34.7867 21.9 34.6C21.62 34.4133 21.4 34.1933 21.24 33.94C21.08 33.6867 21 33.4 21 33.08C21 32.6933 21.1133 32.3667 21.34 32.1C21.5667 31.82 21.8133 31.6067 22.08 31.46C22.4533 31.7533 22.9067 32.0067 23.44 32.22C23.9867 32.4333 24.58 32.54 25.22 32.54C25.8733 32.54 26.3333 32.44 26.6 32.24C26.8667 32.04 27 31.8067 27 31.54C27 31.2733 26.8933 31.0733 26.68 30.94C26.4667 30.7933 26.1667 30.6533 25.78 30.52L24.94 30.24Z" fill="#087BB4"/>
<path d="M2.44985 14.0883C2.21254 14.6144 2.24078 14.8048 2.61715 15.2204C3.17767 15.8401 8.29724 18.7236 8.83697 18.7236C9.47979 18.7236 10.0106 17.7461 9.71379 17.1033C9.41677 16.4604 4.11529 13.457 3.28427 13.457C2.65328 13.4547 2.47639 14.0883 2.44985 14.0883Z" fill="#087BB4"/>
<path d="M42.1793 18.7905C41.9874 19.1001 41.9881 19.3388 42.1793 19.6485C42.7349 20.5379 43.6509 20.3129 47.0347 18.4543C50.728 16.426 51.3483 15.7625 50.3231 14.9344C49.9899 14.6649 49.649 14.4531 49.5485 14.4531C49.2225 14.4531 42.701 17.949 42.1793 18.7905Z" fill="#087BB4"/>
<path d="M0.424485 24.5047C-0.191534 24.8552 -0.123756 25.8897 0.541305 26.3218C1.05413 26.6537 6.02299 27.7248 7.04757 27.7248C7.54811 27.7248 8.26302 27.0816 8.26302 26.6285C8.26302 25.7805 7.57196 25.4741 4.25966 24.8548C2.40263 24.508 0.876883 24.2282 0.876883 24.2345C0.876883 24.2408 0.662519 24.3689 0.424485 24.5047Z" fill="#087BB4"/>
<path d="M43.2839 26.7129C42.801 26.8297 42.634 27.0591 42.575 27.6784C42.4704 28.778 42.8671 28.8885 47.7281 29.1122L51.7793 29.2988C52.293 28.1484 52.4451 28.0355 51.8868 27.464C51.4699 27.0372 50.9574 26.9439 48.4071 26.8321C44.5026 26.6608 44.0665 26.5211 43.2839 26.7153V26.7129Z" fill="#087BB4"/>
<path d="M5.11902 35.8874C1.92578 36.5814 1.29784 37.0437 2.08716 38.1208C2.50899 38.6973 3.28432 38.6791 6.7633 38.0106C9.50342 37.4845 10.4036 36.9494 10.0697 36.0477C9.70694 35.0662 9.0036 35.0434 5.11902 35.8874Z" fill="#087BB4"/>
<path d="M40.4807 37.9053C40.7383 38.3086 47.0131 40.525 47.6328 40.4317C47.8927 40.3925 48.2688 40.1217 48.4593 39.8353C49.0332 38.9744 48.2522 38.3743 45.0831 37.2495C41.9614 36.139 41.2543 36.0377 40.6742 36.6182C40.8286 36.6182 39.9118 37.0145 40.4807 37.9053Z" fill="#087BB4"/>
</svg>
