<svg xmlns="http://www.w3.org/2000/svg" width="53" height="52" viewBox="0 0 53 52" fill="none">
<path d="M24.0881 0.445826C23.1469 1.00641 23.1392 1.06084 23.4977 5.04067C23.7313 7.66237 24.1114 8.44864 25.1379 8.44864C26.1641 8.44864 26.2817 8.01946 26.2817 4.39713C26.2817 1.27525 26.2339 0.89489 25.7815 0.451797C25.1672 -0.1496 25.0904 -0.1496 24.0892 0.445826H24.0881Z" fill="#087BB4"/>
<path d="M12.1967 4.9043C11.9657 4.95334 11.6939 5.28193 11.608 5.61518C11.4479 6.2372 12.5648 8.11736 14.8227 11.0249C15.7295 12.1938 16.9101 12.3611 17.1609 11.3584C17.3678 10.524 17.3678 10.524 15.373 7.71248C13.3617 4.88332 13.0401 4.9043 12.1967 4.9043Z" fill="#087BB4"/>
<path d="M40.2205 5.3996C38.9765 6.73483 35.2884 12.027 35.2884 12.4778C35.2884 13.1452 36.2447 13.7553 36.8139 13.4515C37.3488 13.1661 41.9739 7.13882 42.2792 6.32959C42.5312 5.6622 41.9514 4.70898 41.2935 4.70898C40.8633 4.70898 40.2457 5.3996 40.2205 5.3996Z" fill="#087BB4"/>
<path d="M22.5155 12.1884C18.6788 13.4314 16.0206 15.7065 14.3004 19.2207C12.5914 22.711 12.3365 26.6085 13.5024 31.4476C14.2881 34.7125 16.552 39.0906 18.2277 40.5865C18.7186 41.0243 18.7684 41.2878 18.7064 43.1249C18.628 45.4362 18.9443 46.0815 20.3008 46.3765C20.9849 46.5255 21.0157 46.5922 21.0157 47.9026C21.0157 48.6626 21.1807 49.5903 21.3871 49.9876C21.9131 51.0026 23.7801 51.8406 25.7818 51.9618C27.3547 52.057 27.4605 52.0271 28.2129 51.2747C28.9727 50.515 29.7852 48.5107 29.7852 47.3902C29.7852 47.0207 30.0949 46.7184 30.834 46.3662C32.4377 45.6008 32.8961 44.7927 32.9379 42.648C32.9715 41.0751 33.0866 40.6665 33.8978 39.2404C37.4236 33.0444 38.5702 29.58 38.553 25.1803C38.5255 18.2798 34.8516 13.6942 29.997 12.1858C27.9956 11.5638 24.4409 11.5661 22.5153 12.1904L22.5155 12.1884ZM30.3557 15.0527C34.9343 17.148 37.0979 23.1311 35.5351 29.3733C35.0342 31.3746 31.7979 38.1875 30.6936 39.5723C30.0577 40.3678 30.1782 40.2673 26.6856 39.9061C26.8024 37.0295 26.9527 29.2809 28.3776 26.5133C28.7207 25.8474 28.9259 25.7263 29.7121 25.7263C32.2841 25.7263 33.5782 22.9101 31.4994 21.8318C29.9471 21.0263 27.979 22.0568 26.6089 24.392C26.0357 25.3692 25.5183 25.6403 25.5183 24.9642C25.5183 24.4382 24.1598 22.6974 23.3732 22.2134C22.3244 21.5706 20.6522 21.5191 19.9895 22.1145C19.3927 22.6512 19.3569 23.6533 19.9065 24.4398C20.2646 24.9519 20.4909 25.0187 21.5145 24.9162C22.6835 24.7993 22.7167 24.8159 23.2295 25.7263C24.6613 28.2707 24.5153 30.6275 24.5153 39.9775H20.9188L19.8737 38.8573C17.7694 36.599 15.9453 32.2561 15.4447 28.3006C14.7364 22.7003 16.9615 17.7746 21.2281 15.4998C23.2152 14.4413 24.2786 14.214 26.8041 14.3186C29.272 14.4201 30.381 15.0503 30.3557 15.0503V15.0527ZM30.5117 42.6463C30.5701 42.6987 30.5117 43.0512 30.381 43.4329L30.1423 44.124H21.1332L20.9901 42.2172L25.6965 42.3844C30.0561 42.5388 30.6006 42.6463 30.5117 42.6463ZM26.9013 48.9006C26.5395 49.7486 26.4722 49.7855 25.5906 49.6235C24.113 49.3516 23.2789 48.8117 23.2789 48.126C23.2789 46.867 23.4695 46.7443 25.4243 46.7443C27.2362 46.7443 27.283 46.7602 27.283 47.3756C27.3145 47.3769 27.2146 48.1644 26.8999 48.9016L26.9013 48.9006Z" fill="#087BB4"/>
<path d="M2.44985 14.0883C2.21254 14.6144 2.24078 14.8048 2.61715 15.2204C3.17767 15.8401 8.29724 18.7236 8.83697 18.7236C9.47979 18.7236 10.0106 17.7461 9.71379 17.1033C9.41677 16.4604 4.11529 13.457 3.28427 13.457C2.65328 13.4547 2.47639 14.0883 2.44985 14.0883Z" fill="#087BB4"/>
<path d="M42.1794 18.7924C41.9875 19.1021 41.9881 19.3407 42.1794 19.6504C42.735 20.5399 43.651 20.3148 47.0347 18.4562C50.7281 16.4279 51.3484 15.7645 50.3232 14.9363C49.9899 14.6668 49.6491 14.4551 49.5486 14.4551C49.2226 14.4551 42.7011 17.951 42.1794 18.7924Z" fill="#087BB4"/>
<path d="M0.424485 24.5067C-0.191534 24.8571 -0.123756 25.8916 0.541305 26.3238C1.05413 26.6557 6.02299 27.7267 7.04757 27.7267C7.54811 27.7267 8.26302 27.0835 8.26302 26.6305C8.26302 25.7824 7.57196 25.4761 4.25966 24.8568C2.40263 24.51 0.876883 24.2302 0.876883 24.2364C0.876883 24.2428 0.662519 24.3708 0.424485 24.5067Z" fill="#087BB4"/>
<path d="M43.2839 26.7129C42.8009 26.8297 42.634 27.0591 42.5749 27.6784C42.4704 28.778 42.867 28.8885 47.728 29.1122L51.7792 29.2988C52.293 28.1484 52.445 28.0355 51.8867 27.464C51.4698 27.0372 50.9574 26.9439 48.407 26.8321C44.5026 26.6608 44.0665 26.5211 43.2839 26.7153V26.7129Z" fill="#087BB4"/>
<path d="M5.11896 35.8874C1.92572 36.5814 1.29778 37.0437 2.0871 38.1208C2.50893 38.6973 3.28426 38.6791 6.76324 38.0106C9.50336 37.4845 10.4035 36.9494 10.0696 36.0477C9.70688 35.0662 9.00354 35.0434 5.11896 35.8874Z" fill="#087BB4"/>
<path d="M40.4807 37.9034C40.7383 38.3066 47.0131 40.523 47.6328 40.4298C47.8927 40.3906 48.2688 40.1197 48.4593 39.8334C49.0332 38.9724 48.2522 38.3724 45.0831 37.2476C41.9614 36.137 41.2543 36.0358 40.6742 36.6162C40.8286 36.6162 39.9118 37.0126 40.4807 37.9034Z" fill="#087BB4"/>
</svg>