<svg width="50" height="50" viewBox="0 0 50 50" fill="none" xmlns="http://www.w3.org/2000/svg">
<path d="M47.9093 25.0082C47.8968 29.7711 46.4195 34.4088 43.6695 38.2992C41.0405 42.0185 37.2263 44.9447 32.9489 46.51C28.417 48.1672 23.4218 48.376 18.773 47.0694C14.1243 45.7628 10.26 43.1456 7.28464 39.5515C4.30925 35.9574 2.50232 31.4534 2.15596 26.8282C1.80959 22.2031 2.90711 17.2482 5.39007 13.1449C7.87304 9.04154 11.3659 6.03187 15.5681 4.10752C19.8831 2.13307 24.8699 1.58624 29.5145 2.52963C34.1591 3.47302 38.2988 5.77306 41.5329 9.14172C44.767 12.5104 46.9286 16.8892 47.6547 21.5394C47.8342 22.6873 47.9051 23.8478 47.9093 25.0082C47.9093 26.3524 50 26.3524 49.9958 25.0082C49.9791 19.8571 48.3934 14.7478 45.3929 10.5485C42.4426 6.42425 38.328 3.26848 33.5707 1.5111C28.6715 -0.296369 23.1714 -0.480038 18.1513 0.947572C13.1311 2.37518 8.94969 5.17196 5.76565 9.03736C2.58161 12.9028 0.478392 17.9411 0.0736056 23.1131C-0.327007 28.26 0.916562 33.5071 3.58731 37.9235C6.17878 42.2063 10.0722 45.7086 14.6417 47.7665C19.4491 49.933 24.8281 50.5424 30.0027 49.5114C34.9561 48.5221 39.5715 45.9507 43.0602 42.3024C46.5447 38.6582 48.915 33.9538 49.6828 28.9613C49.8831 27.6506 49.9958 26.3357 50 25.0082C50.0042 23.6808 47.9176 23.6641 47.9135 25.0082H47.9093Z" fill="#087BB4"/>
<path d="M35.0271 25.008C35.0187 29.5497 34.472 34.1205 33.0699 38.4534C32.0725 41.5341 30.637 44.6105 28.1874 46.681C28.154 46.7102 27.9829 46.8396 28.129 46.7311C28.0789 46.7686 28.0247 46.8104 27.9704 46.8479C27.8411 46.9398 27.7075 47.0316 27.574 47.1151C27.2986 47.2863 27.0148 47.4407 26.7227 47.5743C26.5641 47.6452 26.9522 47.4908 26.681 47.591C26.6267 47.6119 26.5683 47.6327 26.514 47.6536C26.3763 47.7037 26.2344 47.7454 26.0926 47.783C25.9507 47.8206 25.8088 47.8498 25.6669 47.879C25.6085 47.8915 25.5542 47.8999 25.4958 47.9082C25.7462 47.8707 25.4875 47.9082 25.429 47.9082C25.1369 47.9249 24.8532 47.9249 24.561 47.9082C24.5026 47.9082 24.4442 47.8957 24.3899 47.8915C24.6528 47.9207 24.3649 47.8874 24.3232 47.879C24.1813 47.8498 24.0394 47.8206 23.8975 47.783C23.7556 47.7454 23.6138 47.6995 23.476 47.6536C23.4218 47.6327 23.3634 47.6119 23.3091 47.591C23.0337 47.4866 23.4969 47.6828 23.2257 47.5576C22.9544 47.4324 22.6748 47.2821 22.4161 47.1193C21.8527 46.7645 21.5398 46.4931 21.0098 45.9547C20.4798 45.4162 20.1042 44.9403 19.6869 44.3308C18.7146 42.9074 17.9593 41.3379 17.3584 39.7224C15.8394 35.6274 15.1508 31.2403 14.9964 26.8865C14.8295 22.2405 15.2426 17.536 16.4778 13.0445C16.9786 11.2245 17.6129 9.43371 18.4726 7.75147C19.1903 6.34891 19.9832 5.10914 21.0432 4.03217C21.2727 3.79841 21.5105 3.58134 21.7609 3.37263C21.9654 3.20148 21.8027 3.32671 22.0155 3.17226C22.1574 3.07208 22.3034 2.9719 22.4536 2.88006C22.704 2.72561 22.9586 2.59204 23.2257 2.46681C23.4927 2.34158 23.1005 2.51272 23.2674 2.45011C23.3383 2.42506 23.4051 2.39584 23.476 2.3708C23.6138 2.32071 23.7556 2.27896 23.8975 2.24139C24.0394 2.20383 24.1813 2.17461 24.3232 2.14539C24.3232 2.14539 24.6069 2.10364 24.44 2.12451C24.2731 2.14539 24.5569 2.11617 24.561 2.11617C24.8532 2.09529 25.1369 2.09947 25.429 2.11617C25.4708 2.11617 25.7587 2.15791 25.4958 2.11617C25.5542 2.12451 25.6126 2.13286 25.6669 2.14539C25.8088 2.17461 25.9507 2.20383 26.0926 2.24139C26.2219 2.27479 26.3471 2.31653 26.4723 2.35827C26.5432 2.38332 26.61 2.40837 26.681 2.43341C26.9564 2.53777 26.4932 2.34158 26.7644 2.46681C27.0357 2.59204 27.3153 2.74231 27.574 2.90511C27.695 2.98025 27.816 3.05956 27.9287 3.14304C27.9955 3.18896 28.0622 3.23905 28.1248 3.28497C27.9663 3.16391 28.2166 3.36428 28.225 3.36846C28.7633 3.82763 29.2599 4.33272 29.7064 4.87955C30.6412 6.02748 31.5133 7.62624 32.1518 9.09559C33.8127 12.9234 34.5972 17.1603 34.8977 21.3054C34.9853 22.5368 35.0271 23.7766 35.0312 25.0122C35.0312 26.3563 37.1219 26.3563 37.1178 25.0122C37.1094 20.1533 36.5085 15.1984 34.9436 10.5816C33.8085 7.23803 32.1351 3.73162 29.2599 1.54429C26.9731 -0.196396 24.0269 -0.484423 21.5272 1.00163C18.5393 2.7757 16.7533 6.14019 15.5306 9.27092C13.8154 13.6581 13.081 18.446 12.9141 23.1379C12.7388 28.0636 13.2062 33.0895 14.5541 37.8356C15.5556 41.3504 17.0788 45.0697 19.762 47.6494C21.9112 49.7199 24.8281 50.6591 27.6533 49.4318C30.6203 48.142 32.5691 45.0697 33.8419 42.2312C35.724 38.0402 36.6253 33.461 36.9675 28.8985C37.0635 27.6044 37.1094 26.3104 37.1136 25.0122C37.1178 23.714 35.0312 23.6681 35.0271 25.0122V25.008Z" fill="#087BB4"/>
<path d="M43.0269 8.95522C38.9915 11.2219 34.2635 12.2529 29.694 12.6703C24.3608 13.1587 18.8858 12.8707 13.6903 11.5433C11.3576 10.9464 9.07074 10.1366 6.96335 8.95522C5.79072 8.29569 4.73911 10.099 5.91174 10.7585C10.2517 13.1963 15.2886 14.29 20.2044 14.7533C25.7421 15.2709 31.4592 14.9412 36.8591 13.5595C39.3629 12.9208 41.8292 12.0275 44.0826 10.7585C45.2553 10.099 44.2037 8.29569 43.031 8.95522H43.0269Z" fill="#087BB4"/>
<path d="M6.95908 41.0612C10.9944 38.7946 15.7225 37.7635 20.292 37.3419C25.6251 36.8494 31.1002 37.1416 36.2998 38.469C38.6367 39.0659 40.9194 39.8757 43.0268 41.057C44.1994 41.7166 45.251 39.9133 44.0784 39.2538C39.7384 36.816 34.7015 35.7223 29.7857 35.2589C24.2439 34.7413 18.531 35.0711 13.131 36.4528C10.6272 37.0915 8.16092 37.9848 5.90747 39.2538C4.73484 39.9133 5.78645 41.7166 6.95908 41.057V41.0612Z" fill="#087BB4"/>
<path d="M1.03756 26.0504H43.056C44.9881 26.0504 46.937 26.1172 48.8691 26.0504C48.8941 26.0504 48.9233 26.0504 48.9484 26.0504C50.2921 26.0504 50.2921 23.9633 48.9484 23.9633H6.93408C5.00195 23.9633 3.05314 23.8965 1.12102 23.9633C1.09598 23.9633 1.06677 23.9633 1.04173 23.9633C-0.301995 23.9633 -0.301995 26.0504 1.04173 26.0504H1.03756Z" fill="#087BB4"/>
</svg>
