<svg width="46" height="62" viewBox="0 0 46 62" fill="none" xmlns="http://www.w3.org/2000/svg">
<path d="M11.0412 48.5263C10.6543 49.1971 11.4117 50.8603 12.1875 51.0437C12.6341 51.1483 16.9714 50.8607 21.7913 50.4059C29.942 49.6374 30.632 49.5199 31.2942 48.7864C31.6867 48.3527 31.9312 47.7048 31.8363 47.3506C31.4613 45.9514 30.2435 45.879 21.7949 46.7601C13.488 47.6258 11.36 47.9749 11.0387 48.5269L11.0412 48.5263Z" fill="#087BB4"/>
<path d="M14.1409 55.6906C13.8128 57.5788 14.8492 57.7208 24.6072 57.1203C34.1885 56.534 34.7073 56.395 34.4368 54.507C34.3403 53.842 34.0174 53.4704 33.3443 53.2517C32.3128 52.9156 17.4396 53.8289 15.5074 54.3466C13.9029 54.7728 14.2784 55.6538 14.1409 55.6906Z" fill="#087BB4"/>
<path d="M18.0803 30.2188C16.6481 26.6741 19.2639 23.1278 21.8248 20.3903C25.044 16.9494 29.647 16.7415 29.8018 11.5236C29.9852 5.34168 15.8304 5.43213 17.2101 12.827C17.5545 15.2364 18.1395 16.3189 16.3516 17.1571C13.9244 18.2985 12.9522 16.2548 12.6482 11.8563C12.4916 7.67854 15.6481 3.89486 19.7018 3.15938C24.5907 1.82068 32.153 4.11 33.8335 9.18205C35.0751 12.8481 32.8892 17.4434 29.4575 19.8981C24.0986 23.7357 22.2215 24.5938 22.2119 29.2483C22.2048 31.4777 18.948 32.3611 18.0803 30.2188Z" fill="#087BB4"/>
<path d="M25.2409 36.2535C25.5487 37.3644 25.4882 38.6202 24.8554 39.6095C23.4856 41.7609 20.9918 41.4929 19.025 40.6705C17.3537 39.9756 16.6848 37.8933 17.4208 36.2896C18.3018 34.3727 19.7875 33.4058 21.4644 33.4764C23.7069 33.5705 24.6946 34.2785 25.2409 36.2535Z" fill="#087BB4"/>
</svg>
