<svg width="234" height="50" viewBox="0 0 234 50" fill="none" xmlns="http://www.w3.org/2000/svg">
<g clip-path="url(#clip0_8_81)">
<path d="M76.9053 49.6021L55.5165 37.2848L55.5163 12.65L76.9055 0.998291L98.2946 12.65L98.2943 37.2848L76.9053 49.6021Z" fill="white" stroke="white" stroke-miterlimit="10"/>
<path d="M76.8841 3.53918L71.1585 6.83636L76.8841 10.1337L82.6092 6.83636L76.8841 3.53918Z" fill="#008445"/>
<path d="M70.5224 7.20264L64.7971 10.5L70.5224 13.7971L76.2477 10.5L70.5224 7.20264Z" fill="#008445"/>
<path d="M83.2456 7.20264L77.5203 10.5L83.2456 13.7971L88.9711 10.5L83.2456 7.20264Z" fill="#008445"/>
<path d="M89.6072 10.8661L83.8819 14.1633L89.6072 17.4606L95.3326 14.1633L89.6072 10.8661Z" fill="#008445"/>
<path d="M64.1609 10.8661L58.4356 14.1633L64.1609 17.4606L69.8863 14.1633L64.1609 10.8661Z" fill="#008445"/>
<path d="M58.1175 35.9612L63.8428 39.258L63.8431 32.6637L58.1175 29.3667V35.9612Z" fill="#C3DD89"/>
<path d="M64.4792 39.6243L70.2046 42.9215L70.205 36.327L64.4792 33.0302V39.6243Z" fill="#C3DD89"/>
<path d="M58.1175 28.6341L63.8431 31.9306V25.3368L58.1178 22.0398L58.1175 28.6341Z" fill="#C3DD89"/>
<path d="M58.1178 21.3071L63.8431 24.6037L63.8433 18.0097L58.1178 14.7129V21.3071Z" fill="#C3DD89"/>
<path d="M70.8409 43.2878L76.5662 46.5851L76.5663 39.9906L70.8409 36.6936V43.2878Z" fill="#C3DD89"/>
<path d="M95.6511 35.9612L89.9258 39.258V32.6637L95.6511 29.3667V35.9612Z" fill="#1F3E7C"/>
<path d="M89.2897 39.6243L83.5644 42.9215L83.5641 36.327L89.2897 33.0302V39.6243Z" fill="#1F3E7C"/>
<path d="M95.6511 28.6341L89.9258 31.9306L89.9255 25.3368L95.6511 22.0398V28.6341Z" fill="#1F3E7C"/>
<path d="M95.6511 21.3071L89.9258 24.6038L89.9255 18.0101L95.6511 14.7133V21.3071Z" fill="#1F3E7C"/>
<path d="M82.9282 43.2878L77.2027 46.5851L77.2024 39.9906L82.9282 36.6936V43.2878Z" fill="#1F3E7C"/>
<path d="M76.8844 39.4413L82.6097 36.1445L76.8844 32.8468L71.159 36.1445L76.8844 39.4413Z" fill="#008445"/>
<path d="M83.2458 35.7778L88.9713 32.481L83.2458 29.1835L77.5205 32.481L83.2458 35.7778Z" fill="#008445"/>
<path d="M70.5229 35.7778L76.2484 32.481L70.5229 29.1835L64.7976 32.481L70.5229 35.7778Z" fill="#008445"/>
<path d="M89.2892 18.0097L83.5638 14.7129V21.3071L89.2892 24.6037V18.0097Z" fill="#C3DD89"/>
<path d="M82.9277 14.3467L77.2022 11.0493L77.2021 17.6435L82.9277 20.9408V14.3467Z" fill="#C3DD89"/>
<path d="M89.2892 25.3368L83.5638 22.0398V28.6341L89.2892 31.9306V25.3368Z" fill="#C3DD89"/>
<path d="M64.4788 18.0101L70.2043 14.7133L70.2046 21.3071L64.4788 24.6038V18.0101Z" fill="#1F3E7C"/>
<path d="M70.8405 14.3467L76.5662 11.0493V17.6435L70.8405 20.9408V14.3467Z" fill="#1F3E7C"/>
<path d="M64.4788 25.3368L70.2043 22.0398L70.2046 28.6341L64.4788 31.9306V25.3368Z" fill="#1F3E7C"/>
<path d="M82.9273 28.6341V22.0398L77.2021 25.3371V31.931L82.9273 28.6341Z" fill="#1F3E7C"/>
<path d="M70.8405 28.6341L76.5658 31.931V25.3371L70.8405 22.0398V28.6341Z" fill="#C3DD89"/>
<path d="M76.8841 18.1935L71.1585 21.4903L76.8841 24.7878L82.6092 21.4903L76.8841 18.1935Z" fill="#008445"/>
<path d="M109.697 14.3967H113.962L122.974 35.5179H118.138L116.215 30.814H107.325L105.402 35.5179H100.686L109.697 14.3967ZM114.563 26.7395L111.77 19.9392L108.976 26.7395H114.563Z" fill="#1F3E7C"/>
<path d="M122.701 27.579V27.5189C122.701 22.9051 126.425 19.1605 131.442 19.1605C136.428 19.1605 140.122 22.8452 140.122 27.4592V27.5189C140.122 32.1327 136.398 35.8777 131.382 35.8777C126.396 35.8777 122.701 32.1928 122.701 27.579ZM135.617 27.579V27.5189C135.617 25.1524 133.905 23.0851 131.382 23.0851C128.768 23.0851 127.207 25.0926 127.207 27.4592V27.5189C127.207 29.8863 128.919 31.9525 131.442 31.9525C134.055 31.9525 135.617 29.9459 135.617 27.579Z" fill="#1F3E7C"/>
<path d="M141.653 14.5461H150.243C155.26 14.5461 158.294 17.5122 158.294 21.7964V21.8565C158.294 26.7095 154.509 29.2262 149.793 29.2262H146.279V35.5179H141.653V14.5461H141.653ZM149.943 25.122C152.256 25.122 153.607 23.7438 153.607 21.9463V21.8866C153.607 19.8194 152.166 18.7109 149.853 18.7109H146.279V25.122H149.943Z" fill="#1F3E7C"/>
<path d="M158.623 32.4622L161.356 29.1968C163.248 30.7543 165.231 31.7434 167.634 31.7434C169.526 31.7434 170.667 30.9943 170.667 29.7658V29.7063C170.667 28.5379 169.947 27.9384 166.432 27.0399C162.197 25.9615 159.464 24.7929 159.464 20.6292V20.5691C159.464 16.7643 162.527 14.2477 166.822 14.2477C169.886 14.2477 172.5 15.2061 174.632 16.9137L172.229 20.3894C170.367 19.1013 168.535 18.3219 166.763 18.3219C164.99 18.3219 164.059 19.131 164.059 20.1498V20.2096C164.059 21.5874 164.96 22.0369 168.595 22.9657C172.859 24.0738 175.263 25.6016 175.263 29.2573V29.3167C175.263 33.4816 172.079 35.8182 167.544 35.8182C164.36 35.8179 161.146 34.7091 158.623 32.4622Z" fill="#1F3E7C"/>
</g>
<defs>
<clipPath id="clip0_8_81">
<rect width="166.867" height="50" fill="white" transform="translate(31)"/>
</clipPath>
</defs>
</svg>
