<svg width="296" height="529" viewBox="0 0 296 529" fill="none" xmlns="http://www.w3.org/2000/svg">
<rect x="5.63965" y="5.63965" width="289.878" height="523.36" rx="12.3487" fill="#0C0D0D"/>
<rect x="0.75" y="0.75" width="288.5" height="523" rx="11.25" fill="white" stroke="#2A3338" stroke-width="1.5"/>
<mask id="path-3-inside-1_8_293" fill="white">
<path d="M75.3242 10.5898H215.016V22.8381C215.016 29.3363 215.016 32.5853 212.997 34.604C210.979 36.6228 207.73 36.6228 201.232 36.6228H89.1088C82.6107 36.6228 79.3616 36.6228 77.3429 34.604C75.3242 32.5853 75.3242 29.3363 75.3242 22.8381V10.5898Z"/>
</mask>
<path d="M75.3242 10.5898H215.016H75.3242ZM216.516 29.7304C216.516 34.3654 212.759 38.1228 208.124 38.1228H82.2165C77.5815 38.1228 73.8242 34.3654 73.8242 29.7304H76.8242C76.8242 32.7085 79.2384 35.1228 82.2165 35.1228H208.124C211.102 35.1228 213.516 32.7085 213.516 29.7304H216.516ZM82.2165 38.1228C77.5815 38.1228 73.8242 34.3654 73.8242 29.7304V10.5898H76.8242V29.7304C76.8242 32.7085 79.2384 35.1228 82.2165 35.1228L82.2165 38.1228ZM216.516 10.5898V29.7304C216.516 34.3654 212.759 38.1228 208.124 38.1228V35.1228C211.102 35.1228 213.516 32.7085 213.516 29.7304V10.5898H216.516Z" fill="#2A3338" mask="url(#path-3-inside-1_8_293)"/>
<path d="M32.4729 27.3865C32.4729 28.7832 33.1503 29.0835 33.8407 29.0835C34.4789 29.0835 35.1824 28.6266 35.1824 27.5301C35.1824 26.4727 34.7264 25.82 33.7886 25.82C33.3196 25.82 32.4729 26.055 32.4729 27.3865ZM30.8316 31.4462H32.6423V31.4592C32.7465 32.0989 33.1503 32.373 33.7104 32.373C34.4659 32.373 35.2214 31.7334 35.2345 29.7884L35.2084 29.7622C34.7916 30.3888 34.0751 30.5455 33.4499 30.5455C31.6783 30.5455 30.6493 29.2009 30.6493 27.6475C30.6493 25.3762 31.991 24.3188 33.8016 24.3188C37.006 24.3188 37.0581 27.7781 37.0581 29.0835C37.0581 32.6732 35.3647 33.835 33.6974 33.835C32.1212 33.835 30.9879 32.9212 30.8316 31.4462Z" fill="#2A3338"/>
<path d="M40.649 31.6811V33.587H38.695V31.6811H40.649ZM40.649 26.9035V28.8093H38.695V26.9035H40.649Z" fill="#2A3338"/>
<path d="M43.5278 30.1147H45.8335C45.8335 27.8695 45.8725 26.4205 45.8725 26.1333H45.8465L43.5278 30.1147ZM48.6862 30.1147V31.5376H47.6571V33.587H45.8335V31.5376H42.1861V29.9581L45.586 24.3188H47.6571V30.1147H48.6862Z" fill="#2A3338"/>
<path d="M49.9714 27.2037V25.9245H50.2319C51.9904 25.9245 52.4594 25.0107 52.4985 24.3188H53.9965V33.587H52.1728V27.2037H49.9714Z" fill="#2A3338"/>
<path d="M218.812 33.2311H220.473V31.5694H218.812M221.58 33.2311H223.241V29.3539H221.58M224.349 33.2311H226.009V26.5844H224.349M227.117 33.2311H228.778V23.261H227.117V33.2311Z" fill="#2A3338"/>
<path d="M238.937 30.519L237.774 29.2581C238.346 28.652 239.002 28.1877 239.74 27.8652C240.478 27.5426 241.253 27.3813 242.065 27.3813C242.877 27.3813 243.655 27.5452 244.398 27.8728C245.141 28.2004 245.793 28.672 246.356 29.2874L245.193 30.519C244.778 30.0791 244.3 29.7396 243.76 29.5003C243.22 29.261 242.655 29.1412 242.065 29.1408C241.474 29.1408 240.909 29.2606 240.37 29.5003C239.83 29.7399 239.353 30.0795 238.937 30.519ZM236.584 28.0265L235.421 26.7949C236.298 25.8467 237.311 25.1209 238.46 24.6173C239.609 24.1137 240.81 23.8621 242.065 23.8625C243.32 23.8625 244.522 24.1143 245.671 24.6179C246.82 25.1215 247.833 25.8471 248.709 26.7949L247.546 28.0265C246.817 27.2543 245.98 26.6606 245.034 26.2453C244.088 25.8301 243.098 25.6223 242.065 25.6219C241.032 25.6219 240.042 25.8297 239.096 26.2453C238.15 26.6609 237.313 27.2547 236.584 28.0265ZM242.065 33.8326L240.113 31.7506C240.372 31.4769 240.669 31.2667 241.006 31.1201C241.343 30.9735 241.696 30.9002 242.065 30.9002C242.434 30.9002 242.787 30.9735 243.124 31.1201C243.461 31.2667 243.759 31.4769 244.017 31.7506L242.065 33.8326Z" fill="#2A3338"/>
<path d="M256.847 23.8625C256.451 23.8625 256.071 24.0376 255.79 24.3492C255.51 24.6608 255.352 25.0835 255.352 25.5242V32.1709C255.352 32.6116 255.51 33.0342 255.79 33.3459C256.071 33.6575 256.451 33.8326 256.847 33.8326H267.311C267.708 33.8326 268.088 33.6575 268.368 33.3459C268.648 33.0342 268.806 32.6116 268.806 32.1709V31.34C269.202 31.34 269.583 31.165 269.863 30.8533C270.143 30.5417 270.301 30.1191 270.301 29.6784V28.0167C270.301 27.576 270.143 27.1533 269.863 26.8417C269.583 26.5301 269.202 26.355 268.806 26.355V25.5242C268.806 25.0835 268.648 24.6608 268.368 24.3492C268.088 24.0376 267.708 23.8625 267.311 23.8625H256.847Z" fill="#2A3338"/>
<path d="M97.2366 495.162H193.104" stroke="#2A3338" stroke-width="1.5" stroke-linecap="round"/>
<path d="M12.0293 34.1523C12.0293 28.4743 12.0309 24.2912 12.4619 21.085C12.8901 17.9004 13.7296 15.7922 15.3243 14.1974C16.9191 12.6026 19.0274 11.7632 22.212 11.335C25.4181 10.9039 29.6012 10.9023 35.2793 10.9023H53.4782H74.9478H213.39H255.279C260.957 10.9023 265.14 10.9039 268.347 11.335C271.531 11.7632 273.639 12.6026 275.234 14.1974C276.829 15.7922 277.668 17.9004 278.097 21.085C278.528 24.2912 278.529 28.4743 278.529 34.1523V490.152C278.529 495.83 278.528 500.014 278.097 503.22C277.668 506.404 276.829 508.513 275.234 510.107C273.639 511.702 271.531 512.542 268.347 512.97C265.14 513.401 260.957 513.402 255.279 513.402H35.2793C29.6012 513.402 25.4181 513.401 22.212 512.97C19.0274 512.542 16.9191 511.702 15.3243 510.107C13.7296 508.513 12.8901 506.404 12.4619 503.22C12.0309 500.014 12.0293 495.83 12.0293 490.152V34.1523Z" stroke="#2A3338" stroke-width="1.5" stroke-miterlimit="1.41421"/>
</svg>
