<svg width="234" height="48" viewBox="0 0 234 48" fill="none" xmlns="http://www.w3.org/2000/svg">
<path d="M215.867 18.9879C215.762 18.9883 215.658 18.9745 215.558 18.9471C215.269 18.8689 215.023 18.6793 214.874 18.4198C214.824 18.3333 214.785 18.2407 214.759 18.1444C214.732 18.0441 214.719 17.9407 214.719 17.8369C214.719 17.733 214.733 17.6296 214.76 17.5294C214.812 17.3378 214.913 17.1633 215.054 17.0237C215.124 16.9548 215.202 16.8952 215.287 16.8465C215.464 16.7448 215.665 16.6914 215.869 16.6917C216.074 16.6919 216.274 16.7457 216.451 16.8477C216.536 16.8969 216.614 16.9571 216.683 17.0268C216.822 17.1672 216.922 17.3412 216.973 17.5319C216.999 17.6314 217.013 17.7339 217.013 17.8369C217.013 18.0424 216.96 18.2444 216.858 18.4229C216.809 18.508 216.749 18.5862 216.68 18.6556C216.611 18.7248 216.533 18.7848 216.449 18.8341C216.363 18.8842 216.271 18.9224 216.174 18.9477C216.074 18.9746 215.971 18.9881 215.867 18.9879ZM215.867 18.7853C215.952 18.7858 216.037 18.7744 216.119 18.7514C216.198 18.7292 216.273 18.697 216.344 18.6557C216.413 18.6149 216.477 18.565 216.533 18.5075C216.646 18.3898 216.729 18.246 216.773 18.0889C216.828 17.8839 216.814 17.6664 216.733 17.4702C216.662 17.2989 216.542 17.1525 216.388 17.0498C216.233 16.9471 216.052 16.8927 215.867 16.8935C215.741 16.8926 215.616 16.9178 215.501 16.9676C215.389 17.0154 215.288 17.0841 215.203 17.1701C215.118 17.2567 215.05 17.3585 215.002 17.4702C214.953 17.5861 214.928 17.711 214.929 17.8369C214.929 17.9218 214.94 18.0064 214.963 18.0882C214.984 18.1675 215.016 18.2437 215.057 18.3149C215.097 18.3849 215.146 18.4497 215.203 18.5075C215.259 18.5651 215.323 18.6149 215.393 18.6557C215.463 18.697 215.538 18.7292 215.617 18.7514C215.698 18.7743 215.782 18.7857 215.867 18.7853ZM215.44 18.4204V17.2084H215.855C215.921 17.2077 215.986 17.2135 216.05 17.2256C216.102 17.2345 216.153 17.2547 216.197 17.2849C216.237 17.3131 216.27 17.3517 216.291 17.3967C216.315 17.4515 216.326 17.511 216.324 17.5708C216.329 17.6526 216.307 17.7337 216.262 17.8023C216.221 17.8582 216.164 17.8998 216.098 17.9215L216.435 18.4204H216.14L215.836 17.9629H215.685V18.4204L215.44 18.4204ZM215.685 17.7517H215.847C215.885 17.7524 215.922 17.7493 215.959 17.7425C215.984 17.7381 216.006 17.7282 216.026 17.7135C216.042 17.6997 216.053 17.6814 216.058 17.661C216.064 17.6355 216.067 17.6094 216.067 17.5832C216.067 17.5579 216.064 17.5328 216.057 17.5085C216.051 17.489 216.04 17.4715 216.025 17.4578C216.006 17.4434 215.984 17.4334 215.961 17.4288C215.927 17.4219 215.892 17.4188 215.858 17.4196H215.685L215.685 17.7517Z" fill="#FF943A"/>
<path d="M71.9822 13.6387H69.1037L65.5559 29.0275L61.985 13.7656L61.955 13.6387H58.7619L55.2164 28.9083L51.7263 13.6387H48.8055L53.4417 33.4461L53.4725 33.573H56.7772L60.3227 18.4349L63.8258 33.4461L63.8558 33.573H67.2159L71.933 13.8433L71.9822 13.6387Z" fill="#DD1100"/>
<path d="M78.3386 17.9595C77.4165 17.9042 76.4937 18.0562 75.6381 18.4044C74.7824 18.7525 74.0156 19.2879 73.3941 19.9713C72.2549 21.2995 71.6776 23.333 71.6776 26.0148C71.6776 28.6495 72.2525 30.6613 73.3868 31.994C74.0078 32.6805 74.7753 33.2185 75.6325 33.5681C76.4897 33.9176 77.4146 34.0697 78.3386 34.0131C79.2619 34.0708 80.1861 33.9168 81.0408 33.563C81.8955 33.2091 82.6582 32.6648 83.2705 31.9714C84.3898 30.6248 84.9574 28.6208 84.9574 26.0148C84.9574 23.3809 84.3923 21.3606 83.2778 20.009C82.6662 19.3123 81.9028 18.7653 81.0465 18.41C80.1902 18.0547 79.2638 17.9006 78.3386 17.9595ZM81.1862 30.2392C80.8288 30.6539 80.3859 30.9864 79.888 31.214C79.3901 31.4415 78.8488 31.5588 78.3014 31.5577C77.7539 31.5565 77.2131 31.4371 76.7162 31.2074C76.2192 30.9778 75.7777 30.6435 75.422 30.2273C74.7197 28.9397 74.4009 27.4779 74.5032 26.0148C74.5032 24.0481 74.8236 22.6007 75.4553 21.7134C75.7879 21.2712 76.2261 20.9193 76.7298 20.6901C77.2335 20.4609 77.7866 20.3615 78.3386 20.4012C78.8829 20.3624 79.4282 20.4617 79.9239 20.6901C80.4195 20.9184 80.8494 21.2683 81.1736 21.7073C81.8094 22.5904 82.1317 24.0395 82.1317 26.0148C82.1317 27.9254 81.8134 29.3466 81.1862 30.2392Z" fill="#DD1100"/>
<path d="M90.4336 12.1521H87.692V33.5742H90.4336V12.1521Z" fill="#DD1100"/>
<path d="M102.275 12.2777C101.353 11.8895 100.361 11.6968 99.3611 11.7117C97.6324 11.7117 96.4019 12.1588 95.7036 13.0416C94.921 14.2451 94.5559 15.6726 94.6647 17.1041V18.3831H92.5036V20.7539H94.6647V33.5728H97.4063V20.7539H100.676V18.3831H97.4063V17.1041C97.3258 16.2876 97.4796 15.4651 97.8496 14.7329C98.0492 14.5236 98.2947 14.3636 98.5667 14.2654C98.8388 14.1673 99.1299 14.1337 99.4171 14.1674C99.7783 14.1741 100.137 14.2248 100.486 14.3181C100.828 14.3986 101.16 14.5177 101.475 14.673L101.648 14.7636L102.411 12.3371L102.275 12.2777Z" fill="#DD1100"/>
<path d="M109.731 18.1571C108.807 18.1526 107.906 18.4437 107.16 18.9878C106.499 19.4641 105.875 19.9896 105.293 20.5599V18.3838H102.551V33.5735H105.293V23.2077C105.946 22.5066 106.703 21.91 107.538 21.4385C108.161 21.1212 108.85 20.9548 109.549 20.9529C109.908 20.9362 110.267 20.9895 110.606 21.1098L110.788 21.1885L111.378 18.5337L111.268 18.4743C110.79 18.2438 110.262 18.1349 109.731 18.1571Z" fill="#DD1100"/>
<path d="M122.554 19.1585C121.611 18.3622 120.046 17.9586 117.902 17.9586C116.7 17.9221 115.504 18.1523 114.401 18.6327C113.499 19.0412 112.753 19.7288 112.272 20.5941L112.196 20.733L114.452 22.1215L114.536 21.9752C114.815 21.5349 115.193 21.1661 115.64 20.8982C116.314 20.5276 117.078 20.355 117.846 20.4003C118.728 20.3517 119.606 20.5589 120.373 20.997C120.692 21.2601 120.939 21.5996 121.092 21.9839C121.245 22.3682 121.298 22.7849 121.246 23.1952V23.7661L117.771 24.0788C116.619 24.1713 115.491 24.4622 114.438 24.9385C113.695 25.3114 113.073 25.8884 112.646 26.602C112.209 27.4068 111.995 28.3139 112.027 29.2293C111.979 30.481 112.402 31.7052 113.212 32.661C113.64 33.1198 114.164 33.4787 114.747 33.7122C115.33 33.9457 115.956 34.0481 116.583 34.0122C117.51 34.0253 118.424 33.7933 119.232 33.3397C119.945 32.9253 120.619 32.4475 121.246 31.9123V33.5733H123.987V23.3083C123.987 21.3584 123.505 19.9622 122.554 19.1585ZM117.327 31.5C116.659 31.5513 115.994 31.3595 115.456 30.9599C115.234 30.7219 115.066 30.4394 114.962 30.1313C114.858 29.8231 114.821 29.4963 114.853 29.1727C114.828 28.7898 114.898 28.4067 115.058 28.0579C115.218 27.7091 115.462 27.4055 115.768 27.1744C116.773 26.5949 117.909 26.2814 119.068 26.2638L121.246 26.0544V29.4182C120.957 29.6481 120.662 29.8843 120.36 30.1267C120.05 30.3773 119.721 30.6045 119.377 30.8066C119.048 31.0004 118.704 31.1672 118.349 31.3054C118.023 31.4327 117.677 31.4987 117.327 31.5Z" fill="#DD1100"/>
<path d="M146.243 20.2989C146.02 19.6013 145.581 18.9927 144.99 18.5609C144.318 18.1316 143.531 17.9209 142.735 17.9577C141.752 17.9516 140.791 18.2542 139.989 18.8228C139.213 19.3749 138.491 19.9998 137.833 20.6891C137.678 19.9072 137.262 19.2011 136.654 18.6863C135.933 18.1718 135.06 17.9151 134.175 17.9577C133.24 17.9604 132.328 18.2466 131.558 18.7785C130.881 19.2345 130.251 19.7588 129.681 20.3432V18.3827H126.939V33.5724H129.681V22.9799C130.32 22.3181 131.038 21.7364 131.817 21.2477C132.339 20.8947 132.944 20.6852 133.572 20.6403C133.979 20.6084 134.386 20.7035 134.737 20.9124C135.013 21.1576 135.195 21.4921 135.25 21.8575C135.39 22.7824 135.445 23.7182 135.414 24.6532V33.5724H138.156V22.9832C138.856 22.2894 139.628 21.6724 140.459 21.1427C140.927 20.8438 141.465 20.6708 142.019 20.6403C142.431 20.6116 142.842 20.698 143.207 20.8899C143.486 21.1079 143.672 21.4239 143.726 21.7739C143.869 22.7266 143.923 23.6904 143.89 24.6532V33.5724H146.631V23.4918C146.672 22.4137 146.541 21.336 146.243 20.2989Z" fill="#DD1100"/>
<path d="M158.767 13.6387H155.165L148.415 33.5736H151.416L153.072 28.4743H160.748L162.432 33.5736H165.517L158.805 13.7505L158.767 13.6387ZM159.825 25.7638H153.966L156.896 16.9057L159.825 25.7638Z" fill="#FF7E00"/>
<path d="M170.087 12.1521H167.346V33.5742H170.087V12.1521Z" fill="#FF7E00"/>
<path d="M180.26 17.9586C179.373 17.9536 178.495 18.1477 177.693 18.5266C177.058 18.8231 176.466 19.2047 175.934 19.6609V18.3835H173.192V39H175.934V32.5413C177.039 33.4747 178.435 33.9946 179.881 34.0122C180.753 34.0411 181.619 33.8527 182.4 33.464C183.181 33.0753 183.854 32.4984 184.356 31.7852C185.508 30.0353 186.072 27.9641 185.967 25.872C185.967 23.355 185.465 21.3895 184.476 20.0302C184 19.362 183.366 18.8228 182.63 18.4611C181.894 18.0994 181.079 17.9267 180.26 17.9586ZM183.141 25.929C183.141 27.8564 182.798 29.2854 182.122 30.1767C181.837 30.5911 181.453 30.9287 181.006 31.1595C180.559 31.3903 180.062 31.5073 179.558 31.5C178.209 31.4429 176.924 30.9066 175.934 29.9874V22.2743C176.457 21.7827 177.042 21.3603 177.673 21.0174C178.321 20.6523 179.052 20.4593 179.797 20.4568C182.047 20.4568 183.141 22.2468 183.141 25.929Z" fill="#FF7E00"/>
<path d="M196.03 17.9596C195.033 17.9751 194.059 18.2593 193.21 18.782C192.441 19.2307 191.724 19.7632 191.072 20.3697V12.1521H188.331V33.5742H191.072V22.9884C191.783 22.3601 192.554 21.8043 193.374 21.329C193.998 20.9271 194.714 20.6907 195.454 20.6422C195.911 20.6118 196.367 20.7152 196.766 20.9397C197.074 21.1698 197.292 21.5011 197.381 21.8757C197.551 22.7918 197.617 23.7242 197.578 24.6551V33.5742H200.319V23.4937C200.319 21.5179 199.972 20.0885 199.286 19.2451C198.878 18.7961 198.372 18.4467 197.807 18.2239C197.243 18.001 196.635 17.9106 196.03 17.9596Z" fill="#FF7E00"/>
<path d="M213.244 19.1585C212.301 18.3622 210.736 17.9586 208.592 17.9586C207.39 17.9221 206.194 18.1523 205.091 18.6327C204.189 19.0412 203.443 19.7288 202.962 20.5941L202.886 20.733L205.142 22.1215L205.226 21.9752C205.505 21.5349 205.883 21.1661 206.331 20.8982C207.004 20.5276 207.768 20.355 208.536 20.4003C209.418 20.3517 210.296 20.5589 211.063 20.997C211.382 21.2601 211.629 21.5996 211.782 21.9839C211.935 22.3682 211.988 22.7849 211.936 23.1952V23.7661L208.461 24.0788C207.309 24.1713 206.181 24.4622 205.128 24.9385C204.385 25.3114 203.763 25.8884 203.336 26.602C202.899 27.4068 202.685 28.3139 202.717 29.2293C202.67 30.481 203.092 31.7052 203.902 32.661C204.33 33.1198 204.854 33.4787 205.437 33.7122C206.02 33.9457 206.647 34.0481 207.273 34.0122C208.2 34.0253 209.114 33.7933 209.922 33.3397C210.635 32.9253 211.309 32.4475 211.936 31.9123V33.5733H214.678V23.3083C214.678 21.3584 214.195 19.9622 213.244 19.1585ZM208.017 31.5C207.349 31.5513 206.684 31.3595 206.146 30.9599C205.924 30.7219 205.756 30.4394 205.652 30.1313C205.548 29.8231 205.511 29.4963 205.543 29.1727C205.518 28.7898 205.588 28.4067 205.748 28.0579C205.908 27.7091 206.152 27.4055 206.458 27.1744C207.463 26.5949 208.599 26.2814 209.758 26.2638L211.936 26.0544V29.4182C211.647 29.6481 211.352 29.8843 211.051 30.1267C210.74 30.3773 210.411 30.6045 210.067 30.8066C209.738 31.0004 209.395 31.1672 209.039 31.3054C208.713 31.4327 208.367 31.4987 208.017 31.5Z" fill="#FF7E00"/>
<path d="M45.4653 28.1343L39.4121 29.4213L40.0283 35.4407L34.3574 33.0083L31.2327 38.2308L28.1072 33.0068L22.4355 35.4384L23.0525 29.4205L17 28.1305L21.1224 23.615L17.0015 19.098L23.0532 17.811L22.4386 11.7916L28.1095 14.224L31.2327 9L34.3581 14.224L40.0298 11.7931L39.4137 17.8118L45.4653 19.101L41.3445 23.6173L45.4653 28.1343Z" fill="#F16850"/>
<path d="M31.2327 18.125L28.1095 14.2242L22.4386 11.791L25.8141 16.2427L31.2327 18.125Z" fill="#FD694F"/>
<path d="M23.0533 17.8083L17.0008 19.0961L21.1217 23.6131L25.9726 21.8554L23.0533 17.8083Z" fill="#FF3413"/>
<path d="M25.8141 16.2427L22.4386 11.791L23.0532 17.8104L25.9725 21.8574L25.8141 16.2427Z" fill="#DC1D23"/>
<path d="M34.3581 14.2232L31.2327 9L28.1095 14.2232L31.2327 18.1241L34.3581 14.2232Z" fill="#FF9281"/>
<path d="M41.3438 23.6173L45.4654 19.101L39.4137 17.8125L36.4929 21.8572L41.3438 23.6173Z" fill="#FF8B79"/>
<path d="M36.4929 21.8559L39.4137 17.8112L40.0299 11.791L36.6513 16.2411L36.4929 21.8559Z" fill="#FD694F"/>
<path d="M36.6513 16.2411L40.0298 11.791L34.3581 14.2226L31.2327 18.1235L36.6513 16.2411Z" fill="#EF5240"/>
<path d="M39.9999 26.3083L45.4646 28.1337L41.3438 23.6175L36.4929 21.8574L39.9999 26.3083Z" fill="#FF482C"/>
<path d="M25.9725 21.8574L21.1216 23.6152L17 28.1307L22.4655 26.3083L25.9725 21.8574Z" fill="#EC2101"/>
<path d="M31.2327 32.5289V38.2306L34.3566 33.0082L34.4835 27.8965L31.2327 32.5289Z" fill="#D21C22"/>
<path d="M39.9998 26.3086L34.4836 27.8971L39.4121 29.4217L45.4646 28.134L39.9998 26.3086Z" fill="#C90901"/>
<path d="M34.3566 33.0082L40.0275 35.4405L39.4121 29.4211L34.4836 27.8965L34.3566 33.0082Z" fill="#EC2101"/>
<path d="M22.4655 26.3086L17 28.1309L23.0525 29.4202L27.9818 27.8971L22.4655 26.3086Z" fill="#B6171E"/>
<path d="M27.9818 27.8965L28.1072 33.0074L31.2327 38.2306V32.5289L27.9818 27.8965Z" fill="#B4151B"/>
<path d="M23.0525 29.4196L22.4355 35.4382L28.1072 33.0074L27.9818 27.8965L23.0525 29.4196Z" fill="#D21C22"/>
<path d="M36.4928 21.8569L36.6513 16.2422L31.2327 18.1245V23.5878L36.4928 21.8569Z" fill="#E63320"/>
<path d="M31.2327 18.1245L25.8141 16.2422L25.9726 21.8569L31.2327 23.5878V18.1245Z" fill="#FF4527"/>
<path d="M27.9818 27.8965L31.2327 32.5289L34.4835 27.8965L31.2327 23.5879L27.9818 27.8965Z" fill="#FF9281"/>
<path d="M31.2327 23.5882L34.4835 27.8968L39.9998 26.3083L36.4928 21.8574L31.2327 23.5882Z" fill="#FD684D"/>
<path d="M25.9726 21.8574L22.4656 26.3083L27.9819 27.8968L31.2327 23.5882L25.9726 21.8574Z" fill="#FD745C"/>
</svg>
