<svg width="57" height="52" viewBox="0 0 57 52" fill="none" xmlns="http://www.w3.org/2000/svg">
<path d="M35.7085 32.1426C35.5669 32.1812 35.3417 32.2198 35.0328 32.2584C34.7368 32.297 34.4408 32.3163 34.1448 32.3163C33.8488 32.3163 33.585 32.2906 33.3533 32.2391C33.1345 32.2005 32.9479 32.1233 32.7935 32.0075C32.6391 31.8916 32.5232 31.7308 32.446 31.5249C32.3688 31.3189 32.3302 31.0487 32.3302 30.7141V20.5214C32.4718 20.4957 32.697 20.4635 33.0059 20.4249C33.3147 20.3734 33.6107 20.3477 33.8938 20.3477C34.1898 20.3477 34.4472 20.3734 34.666 20.4249C34.8977 20.4635 35.0907 20.5407 35.2452 20.6565C35.3996 20.7724 35.5154 20.9332 35.5926 21.1391C35.6698 21.345 35.7085 21.6153 35.7085 21.9499V32.1426Z" fill="#087BB4"/>
<path d="M22.7174 20.8726C22.9362 20.7439 23.2644 20.6216 23.7019 20.5058C24.1524 20.3899 24.6028 20.332 25.0532 20.332C25.6967 20.332 26.263 20.4286 26.752 20.6216C27.2539 20.8018 27.5757 21.0913 27.7172 21.4903C27.9489 22.1595 28.1998 22.9381 28.4701 23.8261C28.7404 24.7141 29.0106 25.6343 29.2809 26.5866C29.5511 27.5261 29.815 28.4591 30.0724 29.3858C30.3298 30.2995 30.555 31.1103 30.748 31.8181C30.5936 31.9983 30.3619 32.1398 30.0531 32.2428C29.7442 32.3586 29.3774 32.4165 28.9527 32.4165C28.6438 32.4165 28.38 32.3908 28.1612 32.3393C27.9553 32.2878 27.7816 32.2106 27.64 32.1077C27.5113 32.0047 27.4019 31.8696 27.3118 31.7023C27.2346 31.535 27.1638 31.3419 27.0995 31.1231L26.752 29.7911H23.2579C23.155 30.1772 23.052 30.5762 22.9491 30.988C22.8461 31.3998 22.7432 31.7988 22.6402 32.1849C22.46 32.2492 22.267 32.3007 22.0611 32.3393C21.868 32.3908 21.6299 32.4165 21.3468 32.4165C20.6905 32.4165 20.2014 32.3071 19.8797 32.0884C19.5708 31.8567 19.4164 31.5414 19.4164 31.1424C19.4164 30.9623 19.4421 30.7821 19.4936 30.6019C19.5451 30.4218 19.603 30.2094 19.6673 29.9649C19.7574 29.6174 19.8797 29.1863 20.0341 28.6715C20.2014 28.1567 20.3816 27.6033 20.5746 27.0113C20.7677 26.4065 20.9736 25.7887 21.1924 25.1581C21.4112 24.5275 21.6171 23.9355 21.8101 23.3821C22.0032 22.8159 22.1769 22.3139 22.3313 21.8764C22.4986 21.4388 22.6273 21.1042 22.7174 20.8726ZM25.0339 23.3628C24.8538 23.9033 24.6479 24.5082 24.4162 25.1774C24.1974 25.8338 23.9979 26.503 23.8178 27.1851H26.2115C26.0313 26.4901 25.8447 25.8145 25.6517 25.1581C25.4715 24.4889 25.3042 23.8905 25.1498 23.3628H25.0339Z" fill="#087BB4"/>
<path d="M48.4709 37.7409C47.0615 40.1588 43.7467 41.597 38.8674 41.4256C34.0655 41.2568 28.1812 39.5123 22.4132 36.1504C16.6453 32.7884 12.2274 28.528 9.71402 24.4329C7.16019 20.2718 6.77794 16.6787 8.18731 14.2608C9.59667 11.8428 12.9115 10.4046 17.7908 10.5761C22.5927 10.7448 28.477 12.4893 34.245 15.8513C40.0129 19.2132 44.4308 23.4736 46.9442 27.5687C49.498 31.7298 49.8803 35.3229 48.4709 37.7409ZM21.5182 37.6859C27.4887 41.1659 33.6562 43.0209 38.805 43.2018C43.948 43.3826 48.1087 41.8918 50.0065 38.6359C51.9042 35.38 51.1508 31.025 48.459 26.639C45.7641 22.2481 41.1105 17.7957 35.14 14.3157C29.1695 10.8357 23.002 8.98071 17.8532 8.79979C12.7102 8.61908 8.54949 10.1099 6.65174 13.3657C4.75399 16.6216 5.50736 20.9767 8.1992 25.3626C10.8941 29.7536 15.5477 34.2059 21.5182 37.6859Z" fill="#087BB4" stroke="#087BB4" stroke-width="0.25"/>
<path d="M8.01294 37.4302C6.64012 34.9913 7.0764 31.4044 9.69255 27.2822C12.2672 23.2254 16.7488 19.032 22.5666 15.7572C28.3845 12.4824 34.2944 10.8266 39.0984 10.7302C43.9797 10.6321 47.2725 12.12 48.6453 14.5589C50.0181 16.9979 49.5818 20.5848 46.9657 24.707C44.391 28.7638 39.9095 32.9572 34.0916 36.232C28.2737 39.5068 22.3638 41.1626 17.5599 41.259C12.6786 41.357 9.38577 39.8691 8.01294 37.4302ZM21.6948 14.2083C15.6727 17.5981 10.9526 21.9799 8.19189 26.3298C5.43436 30.6747 4.61554 35.018 6.46408 38.302C8.31263 41.5861 12.4505 43.1393 17.5955 43.036C22.7465 42.9326 28.9413 41.1706 34.9634 37.7809C40.9856 34.3911 45.7057 30.0093 48.4663 25.6594C51.2239 21.3144 52.0427 16.9712 50.1942 13.6871C48.3456 10.4031 44.2078 8.84984 39.0627 8.95315C33.9117 9.05657 27.717 10.8185 21.6948 14.2083Z" fill="#087BB4" stroke="#087BB4" stroke-width="0.25"/>
<path d="M28.2696 49.3154C25.4708 49.3083 22.5645 47.1612 20.2666 42.8536C18.0051 38.6142 16.5643 32.6482 16.5813 25.972C16.5983 19.2958 18.0695 13.3372 20.3527 9.10943C22.6726 4.81355 25.5898 2.68136 28.3885 2.6885C31.1872 2.69563 34.0935 4.84268 36.3915 9.15035C38.653 13.3897 40.0938 19.3557 40.0768 26.0319C40.0598 32.7081 38.5886 38.6667 36.3054 42.8945C33.9855 47.1904 31.0683 49.3225 28.2696 49.3154ZM14.8039 25.9675C14.7863 32.8781 16.2735 39.1445 18.6984 43.6901C21.1205 48.2306 24.4965 51.0832 28.265 51.0928C32.0336 51.1024 35.424 48.2671 37.8693 43.739C40.3174 39.2058 41.8365 32.9471 41.8542 26.0364C41.8718 19.1258 40.3846 12.8594 37.9597 8.31379C35.5375 3.77333 32.1616 0.920745 28.393 0.911132C24.6245 0.90152 21.234 3.73684 18.7888 8.26489C16.3407 12.7981 14.8215 19.0568 14.8039 25.9675Z" fill="#087BB4" stroke="#087BB4" stroke-width="0.25"/>
<path d="M7.19763 17.7944C5.22937 17.7894 3.63785 16.1897 3.64288 14.2214C3.6479 12.2532 5.24756 10.6617 7.21581 10.6667C9.18407 10.6717 10.7756 12.2714 10.7706 14.2396C10.7656 16.2079 9.16589 17.7994 7.19763 17.7944Z" fill="white"/>
<path d="M7.20185 16.142C6.14616 16.1393 5.29255 15.2813 5.29524 14.2257C5.29793 13.17 6.15592 12.3164 7.2116 12.3191C8.26728 12.3217 9.1209 13.1797 9.11821 14.2354C9.11552 15.2911 8.25753 16.1447 7.20185 16.142ZM3.51788 14.2211C3.51268 16.2584 5.16002 17.9142 7.19731 17.9194C9.23461 17.9246 10.8904 16.2772 10.8956 14.2399C10.9008 12.2027 9.25343 10.5469 7.21613 10.5417C5.17884 10.5365 3.52307 12.1838 3.51788 14.2211Z" fill="#087BB4" stroke="#087BB4" stroke-width="0.25"/>
<path d="M7.19751 41.7202C5.22925 41.7151 3.63773 40.1155 3.64275 38.1472C3.64777 36.179 5.24743 34.5875 7.21569 34.5925C9.18395 34.5975 10.7755 36.1972 10.7705 38.1654C10.7654 40.1337 9.16577 41.7252 7.19751 41.7202Z" fill="white"/>
<path d="M7.20173 40.0678C6.14604 40.0651 5.29242 39.2071 5.29512 38.1514C5.29781 37.0958 6.15579 36.2421 7.21148 36.2448C8.26716 36.2475 9.12078 37.1055 9.11809 38.1612C9.11539 39.2169 8.25741 40.0705 7.20173 40.0678ZM3.51775 38.1469C3.51256 40.1842 5.1599 41.84 7.19719 41.8452C9.23449 41.8504 10.8903 40.203 10.8955 38.1657C10.9006 36.1284 9.25331 34.4727 7.21601 34.4675C5.17872 34.4623 3.52295 36.1096 3.51775 38.1469Z" fill="#087BB4" stroke="#087BB4" stroke-width="0.25"/>
<path d="M49.4547 17.7944C47.4865 17.7894 45.8949 16.1897 45.9 14.2214C45.905 12.2532 47.5046 10.6617 49.4729 10.6667C51.4412 10.6717 53.0327 12.2714 53.0277 14.2396C53.0226 16.2079 51.423 17.7994 49.4547 17.7944Z" fill="white"/>
<path d="M49.4589 16.142C48.4032 16.1393 47.5496 15.2813 47.5523 14.2257C47.555 13.17 48.413 12.3164 49.4687 12.3191C50.5244 12.3217 51.378 13.1797 51.3753 14.2354C51.3726 15.2911 50.5146 16.1447 49.4589 16.142ZM45.775 14.2211C45.7698 16.2584 47.4171 17.9142 49.4544 17.9194C51.4917 17.9246 53.1475 16.2772 53.1527 14.2399C53.1578 12.2027 51.5105 10.5469 49.4732 10.5417C47.4359 10.5365 45.7802 12.1838 45.775 14.2211Z" fill="#087BB4" stroke="#087BB4" stroke-width="0.25"/>
<path d="M49.4548 41.7202C47.4866 41.7151 45.8951 40.1155 45.9001 38.1472C45.9051 36.179 47.5048 34.5875 49.473 34.5925C51.4413 34.5975 53.0328 36.1972 53.0278 38.1654C53.0228 40.1337 51.4231 41.7252 49.4548 41.7202Z" fill="white"/>
<path d="M49.4591 40.0678C48.4034 40.0651 47.5497 39.2071 47.5524 38.1514C47.5551 37.0958 48.4131 36.2421 49.4688 36.2448C50.5245 36.2475 51.3781 37.1055 51.3754 38.1612C51.3727 39.2169 50.5147 40.0705 49.4591 40.0678ZM45.7751 38.1469C45.7699 40.1842 47.4172 41.84 49.4545 41.8452C51.4918 41.8504 53.1476 40.203 53.1528 38.1657C53.158 36.1284 51.5106 34.4727 49.4733 34.4675C47.436 34.4623 45.7803 36.1096 45.7751 38.1469Z" fill="#087BB4" stroke="#087BB4" stroke-width="0.25"/>
</svg>
