<svg width="55" height="38" viewBox="0 0 55 38" fill="none" xmlns="http://www.w3.org/2000/svg">
<path d="M27.5394 6.67578C25.4295 6.67578 23.2972 6.99661 21.2473 7.46843C17.3049 8.37431 13.4936 10.0275 10.207 12.413C7.8086 14.1531 5.72871 16.2328 3.94863 18.607C3.76875 18.8448 3.76875 19.3204 3.94863 19.5582C6.90544 23.5025 10.7692 26.6542 15.255 28.6736C18.3879 30.0853 21.7157 30.9798 25.126 31.3497C28.2702 31.6894 31.4743 31.3988 34.5398 30.6212C38.6733 29.5719 42.4996 27.5563 45.8424 24.9104C47.6749 23.461 49.3876 21.8115 50.8266 19.9583C50.9278 19.8262 51.0327 19.694 51.1302 19.5582C51.3101 19.3166 51.3101 18.8448 51.1302 18.607C49.8672 16.9085 48.372 15.3836 46.7643 14.0134C43.6276 11.3411 40.0225 9.24244 36.0988 7.99308C33.3368 7.11362 30.4363 6.68333 27.5394 6.67578C26.3327 6.67578 26.3327 8.55926 27.5394 8.56303C32.1376 8.57436 36.6384 9.7671 40.652 12.0167C43.4739 13.5982 45.8461 15.4704 48.0609 17.8521C48.417 18.2371 48.7655 18.6296 49.099 19.0335C49.2114 19.1732 49.3239 19.3128 49.4363 19.4525C49.5974 19.6563 49.3838 19.3506 49.425 19.4374C49.4438 19.4789 49.4888 19.5204 49.515 19.5582V18.607C49.4925 18.6372 49.455 18.6674 49.4438 18.7014C49.3688 18.8939 49.5862 18.5202 49.47 18.6674C49.3801 18.7806 49.2901 18.8938 49.2002 19.0071C48.9304 19.3392 48.653 19.6638 48.3682 19.9809C47.4876 20.9585 46.5394 21.8795 45.5426 22.7363C44.2534 23.846 42.9156 24.816 41.3753 25.7332C39.6065 26.7901 37.7402 27.6582 35.7802 28.2961C32.6361 29.3228 29.2858 29.7908 25.9842 29.5417C25.7293 29.5229 25.4745 29.5002 25.2197 29.4738C25.0923 29.4625 24.9686 29.4474 24.8412 29.4323C24.7625 29.4247 24.6875 29.4134 24.6088 29.4058C24.5676 29.4021 24.3278 29.3681 24.4589 29.387C24.5901 29.4058 24.3465 29.3719 24.3015 29.3643C24.2303 29.353 24.1554 29.3417 24.0842 29.3304C23.908 29.3039 23.7319 29.2737 23.5558 29.2473C23.2072 29.1869 22.8587 29.1228 22.5102 29.051C20.8088 28.7038 19.1337 28.2169 17.511 27.5941C13.4337 26.0239 9.64864 23.4119 6.72931 20.0526C6.32457 19.5846 5.93483 19.1052 5.56382 18.6108V19.5619C8.32576 15.878 12.0208 13.0056 16.1993 11.1259C17.7658 10.4201 19.5309 9.83127 21.2548 9.40475C21.9893 9.22357 22.7313 9.06882 23.4771 8.94048C23.7994 8.88387 24.1179 8.8348 24.4402 8.7895C24.6163 8.76308 24.2603 8.81215 24.5039 8.78196C24.5714 8.77441 24.6388 8.76308 24.7063 8.75553C24.8562 8.73666 25.0061 8.72156 25.156 8.70269C25.9467 8.61965 26.7412 8.56303 27.5394 8.56303C28.7461 8.56303 28.7461 6.67578 27.5394 6.67578Z" fill="#087BB4"/>
<path d="M27.5394 25.62C24.8749 25.5974 22.3641 23.9177 21.4534 21.3624C20.5428 18.8071 21.3072 15.7875 23.4508 14.0021C25.5944 12.2168 28.6187 12.0885 30.9234 13.5001C33.2282 14.9118 34.4499 17.6785 33.9177 20.3206C33.3031 23.3818 30.6386 25.5936 27.5394 25.62C26.3327 25.6314 26.3327 27.5186 27.5394 27.5073C31.0621 27.4771 34.195 25.2464 35.4167 21.921C36.616 18.6485 35.5479 14.7797 32.8647 12.5867C30.1402 10.3597 26.2353 10.02 23.2147 11.8695C20.1942 13.719 18.6802 17.2897 19.3473 20.7585C20.0968 24.6613 23.6382 27.4696 27.5432 27.5073C28.7499 27.5186 28.7499 25.6314 27.5432 25.62H27.5394Z" fill="#087BB4"/>
<path d="M28.435 7.36838V1.32918C28.435 0.834715 28.0041 0.362902 27.4982 0.385549C26.9922 0.408196 26.5613 0.800745 26.5613 1.32918V7.36838C26.5613 7.86284 26.9922 8.33465 27.4982 8.31201C28.0041 8.28936 28.435 7.89681 28.435 7.36838Z" fill="#087BB4"/>
<path d="M7.39258 15.6227L2.31841 10.512L1.59514 9.78355C1.24662 9.43252 0.613282 9.40987 0.268508 9.78355C-0.0762661 10.1572 -0.102499 10.746 0.268508 11.1197C1.95865 12.822 3.65254 14.5281 5.34268 16.2304L6.06595 16.9589C6.41448 17.3099 7.04781 17.3326 7.39258 16.9589C7.73736 16.5852 7.76359 15.9964 7.39258 15.6227Z" fill="#087BB4"/>
<path d="M17.2599 9.52715C16.5966 7.74559 15.9333 5.96024 15.2662 4.17868C15.1725 3.92579 15.0788 3.6729 14.9814 3.42C14.809 2.95952 14.3406 2.59339 13.8271 2.75947C13.3812 2.90667 12.9877 3.42378 13.1713 3.92201C13.8346 5.70358 14.498 7.48892 15.165 9.27048C15.2587 9.52338 15.3524 9.77627 15.4498 10.0292C15.6222 10.4896 16.0907 10.8558 16.6041 10.6897C17.05 10.5425 17.4435 10.0254 17.2599 9.52715Z" fill="#087BB4"/>
<path d="M48.9304 16.9555C50.6205 15.2532 52.3144 13.5472 54.0046 11.8449C54.2444 11.6033 54.488 11.3579 54.7278 11.1164C55.0764 10.7654 55.0988 10.1275 54.7278 9.78021C54.3568 9.43295 53.7722 9.40653 53.4012 9.78021C51.7111 11.4825 50.0172 13.1886 48.327 14.8909C48.0872 15.1325 47.8436 15.3778 47.6038 15.6194C47.2552 15.9704 47.2327 16.6083 47.6038 16.9555C47.9748 17.3028 48.5594 17.3292 48.9304 16.9555Z" fill="#087BB4"/>
<path d="M39.5465 10.0299C40.2099 8.24831 40.8732 6.46297 41.5402 4.6814C41.6339 4.42851 41.7276 4.17562 41.825 3.92273C41.9974 3.45846 41.6339 2.86964 41.1692 2.76018C40.6371 2.6394 40.2024 2.92248 40.015 3.42072C39.3517 5.20228 38.6884 6.98762 38.0213 8.76919C37.9276 9.02208 37.8339 9.27497 37.7365 9.52787C37.5641 9.99213 37.9276 10.581 38.3923 10.6904C38.9244 10.8112 39.3592 10.5281 39.5465 10.0299Z" fill="#087BB4"/>
<path d="M26.5613 30.7901V36.8293C26.5613 37.3238 26.9922 37.7956 27.4982 37.7729C28.0041 37.7503 28.435 37.3577 28.435 36.8293V30.7901C28.435 30.2957 28.0041 29.8238 27.4982 29.8465C26.9922 29.8691 26.5613 30.2617 26.5613 30.7901Z" fill="#087BB4"/>
<path d="M47.6075 22.5396L52.6817 27.6503L53.4049 28.3788C53.7535 28.7298 54.3868 28.7525 54.7316 28.3788C55.0763 28.0051 55.1026 27.4163 54.7316 27.0426L49.6574 21.932L48.9341 21.2035C48.5856 20.8524 47.9523 20.8298 47.6075 21.2035C47.2627 21.5771 47.2365 22.166 47.6075 22.5396Z" fill="#087BB4"/>
<path d="M37.7402 28.6349C38.4035 30.4165 39.0668 32.2018 39.7339 33.9834C39.8276 34.2363 39.9212 34.4892 40.0187 34.7421C40.1911 35.2025 40.6595 35.5687 41.1729 35.4026C41.6189 35.2554 42.0124 34.7383 41.8287 34.24C41.1654 32.4585 40.5021 30.6731 39.835 28.8916C39.7414 28.6387 39.6477 28.3858 39.5502 28.1329C39.3778 27.6724 38.9094 27.3063 38.396 27.4724C37.95 27.6196 37.5565 28.1367 37.7402 28.6349Z" fill="#087BB4"/>
<path d="M6.06978 21.206C4.37964 22.9083 2.68575 24.6144 0.995606 26.3167C0.755763 26.5582 0.512173 26.8036 0.27233 27.0451C-0.0761911 27.3962 -0.0986764 28.0341 0.27233 28.3813C0.643337 28.7286 1.22795 28.755 1.59896 28.3813C3.2891 26.679 4.98299 24.9729 6.67313 23.2706C6.91297 23.0291 7.15656 22.7837 7.39641 22.5422C7.74493 22.1911 7.76741 21.5532 7.39641 21.206C7.0254 20.8587 6.44078 20.8323 6.06978 21.206Z" fill="#087BB4"/>
<path d="M15.4537 28.1317C14.7904 29.9132 14.1271 31.6986 13.46 33.4801C13.3663 33.733 13.2726 33.9859 13.1752 34.2388C13.0028 34.7031 13.3663 35.2919 13.831 35.4014C14.3632 35.5221 14.7979 35.239 14.9853 34.7408C15.6486 32.9592 16.3119 31.1739 16.9789 29.3923C17.0726 29.1394 17.1663 28.8866 17.2638 28.6337C17.4361 28.1694 17.0726 27.5806 16.6079 27.4711C16.0758 27.3503 15.6411 27.6334 15.4537 28.1317Z" fill="#087BB4"/>
</svg>
