<svg width="52" height="50" viewBox="0 0 52 50" fill="none" xmlns="http://www.w3.org/2000/svg">
<path d="M40.5213 26.6427C39.202 26.6268 37.9189 25.8076 37.4952 24.5965C37.0232 23.2588 37.3944 21.8775 38.5201 20.9791C39.5086 20.1915 41.0418 20.0925 42.1837 20.7574C43.3255 21.4223 43.9549 22.7719 43.7128 24.0068C43.4062 25.5661 42.0868 26.6229 40.5213 26.6427C39.2262 26.6585 39.2221 28.6374 40.5213 28.6216C42.7364 28.5899 44.6731 27.2522 45.4559 25.2258C46.2386 23.1994 45.5688 20.8722 43.9065 19.5424C42.2442 18.2126 39.7628 17.9236 37.8422 19.0477C35.9217 20.1717 34.9856 22.3445 35.377 24.4738C35.8168 26.8762 38.0803 28.5859 40.5254 28.6176C41.8246 28.6334 41.8246 26.6545 40.5254 26.6387L40.5213 26.6427Z" fill="#087BB4"/>
<path d="M27.481 26.6424C26.1616 26.6266 24.8826 25.8073 24.4589 24.5962C23.9909 23.2585 24.354 21.8772 25.4837 20.9788C26.4682 20.1912 28.0055 20.0922 29.1433 20.7572C30.2811 21.4221 30.9146 22.7717 30.6725 24.0065C30.3658 25.5659 29.0464 26.6226 27.481 26.6424C26.1858 26.6582 26.1818 28.6371 27.481 28.6213C29.696 28.5896 31.6327 27.2519 32.4155 25.2255C33.1982 23.1991 32.5285 20.8719 30.8661 19.5421C29.2038 18.2123 26.7224 17.9194 24.8019 19.0474C22.8813 20.1754 21.9533 22.3442 22.3406 24.4735C22.7804 26.8759 25.0399 28.5857 27.481 28.6173C28.7802 28.6332 28.7802 26.6543 27.481 26.6384V26.6424Z" fill="#087BB4"/>
<path d="M14.4445 26.6427C13.1252 26.6268 11.8421 25.8076 11.4185 24.5965C10.9464 23.2588 11.3176 21.8775 12.4433 20.9791C13.4278 20.1915 14.965 20.0925 16.1069 20.7574C17.2487 21.4223 17.8701 22.7719 17.628 24.0068C17.3213 25.5661 16.01 26.6229 14.4445 26.6427C13.1494 26.6585 13.1453 28.6374 14.4445 28.6216C16.6556 28.5899 18.5923 27.2522 19.371 25.2258C20.1497 23.1994 19.488 20.8722 17.8257 19.5424C16.1634 18.2126 13.686 17.9236 11.7614 19.0477C9.83682 20.1717 8.90478 22.3445 9.29616 24.4738C9.73595 26.8762 11.9995 28.5859 14.4445 28.6176C15.7437 28.6334 15.7437 26.6545 14.4445 26.6387V26.6427Z" fill="#087BB4"/>
<path d="M27.481 0.953125C20.7792 0.972914 14.267 3.68796 9.65529 8.47293C4.97897 13.3212 2.50968 19.9901 2.98175 26.655C3.3005 31.155 4.89424 35.5165 7.59351 39.1696V38.1722C5.11615 41.3266 2.64283 44.4849 0.16547 47.6393C-0.318705 48.2567 0.347035 49.1274 1.03698 49.1274H27.2631C35.0422 49.1274 42.3693 45.6129 47.082 39.5337C52.3837 32.6986 53.4569 23.3582 50.0193 15.4901C46.6502 7.77636 39.1657 2.27107 30.7007 1.1708C29.6315 1.03228 28.5623 0.961041 27.485 0.957083C26.1858 0.957083 26.1858 2.93202 27.485 2.93598C35.5949 2.95973 43.1924 7.3133 47.1627 14.2632C51.1329 21.2131 50.8989 30.0548 46.5534 36.8345C42.442 43.2382 35.143 47.1406 27.4447 47.1564C23.2848 47.1643 19.1249 47.1564 14.9691 47.1564H1.03295L1.90446 48.6445C4.38182 45.4902 6.85514 42.3319 9.3325 39.1775C9.53021 38.9242 9.5181 38.4334 9.3325 38.1801C5.10405 32.4572 3.81695 25.0482 6.00784 18.3001C7.83963 12.6484 12.0358 7.91093 17.4263 5.25525C20.5411 3.71962 23.999 2.95181 27.481 2.9439C28.7802 2.9439 28.7802 0.961041 27.481 0.964999V0.953125Z" fill="#087BB4"/>
</svg>
